<svg xmlns="http://www.w3.org/2000/svg" xmlns:xlink="http://www.w3.org/1999/xlink" width="150" zoomAndPan="magnify" viewBox="0 0 112.5 112.499997" height="150" preserveAspectRatio="xMidYMid meet" version="1.0"><defs><clipPath id="6be84d8435"><path d="M 30.59375 37 L 81.59375 37 L 81.59375 86.9375 L 30.59375 86.9375 Z M 30.59375 37 " clip-rule="nonzero"/></clipPath><clipPath id="79c8c81f9d"><path d="M 57 30 L 81.59375 30 L 81.59375 40 L 57 40 Z M 57 30 " clip-rule="nonzero"/></clipPath><clipPath id="c7d835af27"><path d="M 54 25.4375 L 63 25.4375 L 63 43 L 54 43 Z M 54 25.4375 " clip-rule="nonzero"/></clipPath></defs><g clip-path="url(#6be84d8435)"><path fill="#df3d3d" d="M 66.273438 37.535156 C 61.183594 37.535156 61.183594 39.238281 56.09375 39.238281 C 51.003906 39.238281 51.003906 37.535156 45.914062 37.535156 C 39.125 37.535156 30.640625 40.941406 30.640625 52.867188 C 30.640625 71.605469 40.824219 86.9375 47.609375 86.9375 C 52.699219 86.9375 52.699219 85.234375 56.09375 85.234375 C 59.488281 85.234375 59.488281 86.9375 64.578125 86.9375 C 71.363281 86.9375 81.542969 71.605469 81.542969 52.867188 C 81.542969 40.941406 73.058594 37.535156 66.273438 37.535156 Z M 66.273438 37.535156 " fill-opacity="1" fill-rule="nonzero"/></g><g clip-path="url(#79c8c81f9d)"><path fill="#91a979" d="M 57.789062 37.535156 C 57.789062 37.535156 62.878906 30.71875 71.363281 30.71875 C 78.148438 30.71875 81.542969 34.128906 81.542969 34.128906 C 81.542969 34.128906 74.757812 39.238281 69.667969 39.238281 C 64.578125 39.238281 57.789062 37.535156 57.789062 37.535156 Z M 57.789062 37.535156 " fill-opacity="1" fill-rule="nonzero"/></g><g clip-path="url(#c7d835af27)"><path fill="#5d4037" d="M 56.09375 42.644531 C 55.15625 42.644531 54.394531 41.882812 54.394531 40.941406 C 54.394531 35.078125 56.433594 29.671875 59.984375 26.109375 C 60.648438 25.441406 61.71875 25.441406 62.382812 26.109375 C 63.046875 26.773438 63.046875 27.851562 62.382812 28.519531 C 59.460938 31.449219 57.789062 35.976562 57.789062 40.941406 C 57.789062 41.882812 57.03125 42.644531 56.09375 42.644531 Z M 56.09375 42.644531 " fill-opacity="1" fill-rule="nonzero"/></g></svg>