<?xml version="1.0" encoding="utf-8"?>
<!-- Generator: Adobe Illustrator 27.1.1, SVG Export Plug-In . SVG Version: 6.00 Build 0)  -->
<svg version="1.1" id="Lager_1" xmlns="http://www.w3.org/2000/svg" xmlns:xlink="http://www.w3.org/1999/xlink" x="0px" y="0px"
	 viewBox="0 0 69.6 82.4" style="enable-background:new 0 0 69.6 82.4;" xml:space="preserve">
<style type="text/css">
	.st0{clip-path:url(#SVGID_00000089540635864482912270000002210276197079755396_);}
	.st1{fill:#DF3D3D;}
	.st2{clip-path:url(#SVGID_00000125570536041509181630000015542053098418898080_);}
	.st3{fill:#91A979;}
	.st4{clip-path:url(#SVGID_00000001623166823702613130000003570377771878850715_);}
	.st5{fill:#5D4037;}
</style>
<g>
	<defs>
		<rect id="SVGID_1_" x="0.8" y="15.4" width="68" height="66.6"/>
	</defs>
	<clipPath id="SVGID_00000159465337918745262600000002464962795380068497_">
		<use xlink:href="#SVGID_1_"  style="overflow:visible;"/>
	</clipPath>
	<g style="clip-path:url(#SVGID_00000159465337918745262600000002464962795380068497_);">
		<path class="st1" d="M48.4,16.1c-6.8,0-6.8,2.3-13.6,2.3s-6.8-2.3-13.6-2.3c-9.1,0-20.4,4.5-20.4,20.4c0,25,13.6,45.4,22.6,45.4
			c6.8,0,6.8-2.3,11.3-2.3S39.3,82,46.1,82c9,0,22.6-20.4,22.6-45.4C68.7,20.7,57.4,16.1,48.4,16.1z"/>
	</g>
</g>
<g>
	<defs>
		<rect id="SVGID_00000091003743574504847660000016752063088119010190_" x="36" y="6.1" width="32.8" height="13.3"/>
	</defs>
	<clipPath id="SVGID_00000168113945373192172690000005459722812715363222_">
		<use xlink:href="#SVGID_00000091003743574504847660000016752063088119010190_"  style="overflow:visible;"/>
	</clipPath>
	<g style="clip-path:url(#SVGID_00000168113945373192172690000005459722812715363222_);">
		<path class="st3" d="M37.1,16.1c0,0,6.8-9.1,18.1-9.1c9,0,13.6,4.5,13.6,4.5s-9,6.8-15.8,6.8S37.1,16.1,37.1,16.1z"/>
	</g>
</g>
<g>
	<defs>
		<rect id="SVGID_00000166636906069880392500000008958395522190999731_" x="32" width="12" height="23.4"/>
	</defs>
	<clipPath id="SVGID_00000078003726521144785740000001442330823661402797_">
		<use xlink:href="#SVGID_00000166636906069880392500000008958395522190999731_"  style="overflow:visible;"/>
	</clipPath>
	<g style="clip-path:url(#SVGID_00000078003726521144785740000001442330823661402797_);">
		<path class="st5" d="M34.8,22.9c-1.2,0-2.3-1-2.3-2.3c0-7.8,2.7-15,7.5-19.8c0.9-0.9,2.3-0.9,3.2,0c0.9,0.9,0.9,2.3,0,3.2
			c-3.9,3.9-6.1,9.9-6.1,16.6C37.1,21.9,36.1,22.9,34.8,22.9z"/>
	</g>
</g>
</svg>
