<svg xmlns="http://www.w3.org/2000/svg" xmlns:xlink="http://www.w3.org/1999/xlink" width="150" zoomAndPan="magnify" viewBox="0 0 112.5 112.499997" height="150" preserveAspectRatio="xMidYMid meet" version="1.0"><defs><clipPath id="a298501f9d"><path d="M 22.386719 31 L 89.886719 31 L 89.886719 93.675781 L 22.386719 93.675781 Z M 22.386719 31 " clip-rule="nonzero"/></clipPath><clipPath id="2a1f489a80"><path d="M 24 31 L 89.886719 31 L 89.886719 93.675781 L 24 93.675781 Z M 24 31 " clip-rule="nonzero"/></clipPath><clipPath id="f6bfc106b7"><path d="M 67 18.675781 L 89 18.675781 L 89 43 L 67 43 Z M 67 18.675781 " clip-rule="nonzero"/></clipPath><clipPath id="3043d63897"><path d="M 22.386719 86 L 27 86 L 27 92 L 22.386719 92 Z M 22.386719 86 " clip-rule="nonzero"/></clipPath><clipPath id="faea24c82f"><path d="M 67 18.675781 L 77 18.675781 L 77 23 L 67 23 Z M 67 18.675781 " clip-rule="nonzero"/></clipPath></defs><g clip-path="url(#a298501f9d)"><path fill="#ffe082" d="M 76.734375 31.800781 C 78.605469 31.800781 89.839844 29.925781 89.839844 46.800781 C 89.839844 63.675781 65.5 93.675781 31.796875 93.675781 C 28.050781 93.675781 24.308594 91.800781 24.308594 91.800781 L 22.433594 86.175781 C 22.433594 86.175781 24.308594 78.675781 35.542969 73.050781 C 46.777344 67.425781 54.757812 62.714844 59.53125 57.933594 C 63.277344 54.1875 69.242188 46.800781 69.242188 41.175781 C 69.242188 37.503906 72.988281 33.675781 72.988281 33.675781 " fill-opacity="1" fill-rule="nonzero"/></g><g clip-path="url(#2a1f489a80)"><path fill="#f0c642" d="M 26.179688 88.050781 C 26.179688 88.050781 39.285156 84.300781 50.519531 78.675781 C 61.753906 73.050781 86.09375 56.175781 78.605469 31.800781 C 78.605469 31.800781 89.839844 29.925781 89.839844 46.800781 C 89.839844 63.675781 65.5 93.675781 31.796875 93.675781 C 28.050781 93.675781 24.308594 91.800781 24.308594 91.800781 Z M 26.179688 88.050781 " fill-opacity="1" fill-rule="nonzero"/></g><g clip-path="url(#f6bfc106b7)"><path fill="#91a979" d="M 88.085938 37.3125 C 84.574219 29.769531 76.734375 33.675781 76.734375 18.675781 C 71.117188 18.675781 67.371094 22.425781 67.371094 22.425781 C 67.371094 22.425781 72.988281 28.050781 72.988281 33.675781 C 76.734375 33.675781 79.75 33.382812 80.085938 42.582031 C 82.617188 31.839844 88.085938 37.3125 88.085938 37.3125 Z M 88.085938 37.3125 " fill-opacity="1" fill-rule="nonzero"/></g><path fill="#91a979" d="M 69.242188 41.175781 C 69.242188 41.175781 69.125 37.777344 72.988281 33.675781 C 76.851562 29.578125 80.535156 32.914062 80.535156 32.914062 L 80.085938 42.582031 C 80.085938 42.582031 78.449219 36.488281 75.875 36.332031 C 70.445312 36.003906 69.242188 41.175781 69.242188 41.175781 Z M 69.242188 41.175781 " fill-opacity="1" fill-rule="nonzero"/><g clip-path="url(#3043d63897)"><path fill="#5d4037" d="M 22.433594 88.050781 L 24.308594 91.800781 L 26.179688 91.800781 L 26.179688 88.050781 L 22.433594 86.175781 Z M 22.433594 88.050781 " fill-opacity="1" fill-rule="nonzero"/></g><g clip-path="url(#faea24c82f)"><path fill="#5d4037" d="M 76.734375 18.675781 C 71.117188 18.675781 67.371094 22.425781 67.371094 22.425781 L 72.988281 22.425781 Z M 76.734375 18.675781 " fill-opacity="1" fill-rule="nonzero"/></g></svg>