<?xml version="1.0" encoding="utf-8"?>
<!-- Generator: Adobe Illustrator 27.1.1, SVG Export Plug-In . SVG Version: 6.00 Build 0)  -->
<svg version="1.1" id="Lager_1" xmlns="http://www.w3.org/2000/svg" xmlns:xlink="http://www.w3.org/1999/xlink" x="0px" y="0px"
	 viewBox="0 0 90 100.2" style="enable-background:new 0 0 90 100.2;" xml:space="preserve">
<style type="text/css">
	.st0{clip-path:url(#SVGID_00000004516693172636584680000009646719977147374765_);}
	.st1{fill:#FFE082;}
	.st2{clip-path:url(#SVGID_00000142856364601049719920000014645354872722539444_);}
	.st3{fill:#F0C642;}
	.st4{clip-path:url(#SVGID_00000181081706768328602600000015766702170502387096_);}
	.st5{fill:#91A979;}
	.st6{clip-path:url(#SVGID_00000168832922349325779110000001341971726658433432_);}
	.st7{fill:#5D4037;}
	.st8{clip-path:url(#SVGID_00000011752469085589001610000018139446759378092939_);}
</style>
<g>
	<defs>
		<rect id="SVGID_1_" y="16.7" width="90" height="83.6"/>
	</defs>
	<clipPath id="SVGID_00000008848697072587200500000012469020532440746380_">
		<use xlink:href="#SVGID_1_"  style="overflow:visible;"/>
	</clipPath>
	<g style="clip-path:url(#SVGID_00000008848697072587200500000012469020532440746380_);">
		<path class="st1" d="M72.5,17.7c2.5,0,17.5-2.5,17.5,20s-32.5,62.5-77.4,62.5c-5,0-10-2.5-10-2.5l-2.5-7.5c0,0,2.5-10,17.5-17.5
			s25.6-13.8,32-20.2c5-5,12.9-14.8,12.9-22.3c0-4.9,5-10,5-10"/>
	</g>
</g>
<g>
	<defs>
		<rect id="SVGID_00000155854828997793578920000016722459084360624778_" x="2.2" y="16.7" width="87.8" height="83.6"/>
	</defs>
	<clipPath id="SVGID_00000121982087857597569850000001885683895990891684_">
		<use xlink:href="#SVGID_00000155854828997793578920000016722459084360624778_"  style="overflow:visible;"/>
	</clipPath>
	<g style="clip-path:url(#SVGID_00000121982087857597569850000001885683895990891684_);">
		<path class="st3" d="M5.1,92.7c0,0,17.5-5,32.5-12.5s47.4-30,37.4-62.5c0,0,15-2.5,15,20s-32.5,62.5-77.4,62.5c-5,0-10-2.5-10-2.5
			L5.1,92.7z"/>
	</g>
</g>
<g>
	<defs>
		<rect id="SVGID_00000021109703291838737810000002967947652172665510_" x="59.5" y="0.2" width="29.3" height="32.4"/>
	</defs>
	<clipPath id="SVGID_00000073709679157334020940000001013893113803364793_">
		<use xlink:href="#SVGID_00000021109703291838737810000002967947652172665510_"  style="overflow:visible;"/>
	</clipPath>
	<g style="clip-path:url(#SVGID_00000073709679157334020940000001013893113803364793_);">
		<path class="st5" d="M87.6,25.1C82.9,15,72.5,20.2,72.5,0.2c-7.5,0-12.5,5-12.5,5s7.5,7.5,7.5,15c5,0,9-0.4,9.5,11.9
			C80.3,17.8,87.6,25.1,87.6,25.1z"/>
	</g>
</g>
<path class="st5" d="M62.5,30.2c0,0-0.2-4.5,5-10c5.2-5.5,10.1-1,10.1-1l-0.6,12.9c0,0-2.2-8.1-5.6-8.3
	C64.1,23.3,62.5,30.2,62.5,30.2z"/>
<g>
	<defs>
		<rect id="SVGID_00000022549327073941369320000011835506506501720985_" y="90" width="6.2" height="8"/>
	</defs>
	<clipPath id="SVGID_00000134930121419061292300000001159219815579236538_">
		<use xlink:href="#SVGID_00000022549327073941369320000011835506506501720985_"  style="overflow:visible;"/>
	</clipPath>
	<g style="clip-path:url(#SVGID_00000134930121419061292300000001159219815579236538_);">
		<path class="st7" d="M0.1,92.7l2.5,5h2.5v-5l-5-2.5V92.7z"/>
	</g>
</g>
<g>
	<defs>
		<rect id="SVGID_00000114060908775675975380000000668982292141939633_" x="59.5" y="0.2" width="13.3" height="5.8"/>
	</defs>
	<clipPath id="SVGID_00000165957350379484784190000000957396915596195491_">
		<use xlink:href="#SVGID_00000114060908775675975380000000668982292141939633_"  style="overflow:visible;"/>
	</clipPath>
	<g style="clip-path:url(#SVGID_00000165957350379484784190000000957396915596195491_);">
		<path class="st7" d="M72.5,0.2c-7.5,0-12.5,5-12.5,5h7.5L72.5,0.2z"/>
	</g>
</g>
</svg>
