<svg xmlns="http://www.w3.org/2000/svg" xmlns:xlink="http://www.w3.org/1999/xlink" width="150" zoomAndPan="magnify" viewBox="0 0 112.5 112.499997" height="150" preserveAspectRatio="xMidYMid meet" version="1.0"><defs><clipPath id="a1dcc031d4"><path d="M 40 27.171875 L 58 27.171875 L 58 49 L 40 49 Z M 40 27.171875 " clip-rule="nonzero"/></clipPath><clipPath id="aacb2b89bc"><path d="M 52 27.171875 L 65 27.171875 L 65 45 L 52 45 Z M 52 27.171875 " clip-rule="nonzero"/></clipPath><clipPath id="cf85158c0b"><path d="M 29.710938 40 L 61 40 L 61 69 L 29.710938 69 Z M 29.710938 40 " clip-rule="nonzero"/></clipPath><clipPath id="4a0e318018"><path d="M 46 52 L 82.960938 52 L 82.960938 85.671875 L 46 85.671875 Z M 46 52 " clip-rule="nonzero"/></clipPath></defs><g clip-path="url(#a1dcc031d4)"><path fill="#5c913b" d="M 40.167969 27.484375 C 40.167969 27.484375 50.230469 28.546875 54.839844 34.480469 C 60.347656 41.570312 56.371094 48.191406 56.371094 48.191406 C 56.371094 48.191406 48.082031 47.460938 44.292969 42.753906 C 38.792969 35.917969 40.167969 27.484375 40.167969 27.484375 Z M 40.167969 27.484375 " fill-opacity="1" fill-rule="nonzero"/></g><g clip-path="url(#aacb2b89bc)"><path fill="#77b255" d="M 63.894531 27.484375 C 63.894531 27.484375 65.464844 35.4375 62.167969 40.351562 C 58.226562 46.226562 52.417969 44.726562 52.417969 44.726562 C 52.417969 44.726562 51.019531 38.210938 53.605469 34.210938 C 57.359375 28.398438 63.894531 27.484375 63.894531 27.484375 Z M 63.894531 27.484375 " fill-opacity="1" fill-rule="nonzero"/></g><path fill="#5864b7" d="M 78.929688 45.632812 C 78.929688 46.316406 78.851562 46.988281 78.699219 47.660156 C 78.546875 48.328125 78.324219 48.976562 78.023438 49.605469 C 77.726562 50.234375 77.359375 50.832031 76.925781 51.402344 C 76.492188 51.96875 76 52.492188 75.449219 52.972656 C 74.898438 53.457031 74.296875 53.886719 73.648438 54.265625 C 73 54.644531 72.316406 54.964844 71.59375 55.222656 C 70.875 55.484375 70.132812 55.683594 69.367188 55.816406 C 68.601562 55.949219 67.828125 56.015625 67.046875 56.015625 C 66.269531 56.015625 65.496094 55.949219 64.730469 55.816406 C 63.964844 55.683594 63.222656 55.484375 62.503906 55.222656 C 61.78125 54.964844 61.097656 54.644531 60.449219 54.265625 C 59.800781 53.886719 59.199219 53.457031 58.648438 52.972656 C 58.097656 52.492188 57.605469 51.96875 57.171875 51.402344 C 56.738281 50.832031 56.371094 50.234375 56.074219 49.605469 C 55.773438 48.976562 55.550781 48.328125 55.398438 47.660156 C 55.246094 46.988281 55.167969 46.316406 55.167969 45.632812 C 55.167969 44.953125 55.246094 44.277344 55.398438 43.609375 C 55.550781 42.941406 55.773438 42.289062 56.074219 41.660156 C 56.371094 41.03125 56.738281 40.433594 57.171875 39.867188 C 57.605469 39.300781 58.097656 38.773438 58.648438 38.292969 C 59.199219 37.8125 59.800781 37.378906 60.449219 37 C 61.097656 36.621094 61.78125 36.304688 62.503906 36.042969 C 63.222656 35.78125 63.964844 35.585938 64.730469 35.453125 C 65.496094 35.320312 66.269531 35.253906 67.046875 35.253906 C 67.828125 35.253906 68.601562 35.320312 69.367188 35.453125 C 70.132812 35.585938 70.875 35.78125 71.59375 36.042969 C 72.316406 36.304688 73 36.621094 73.648438 37 C 74.296875 37.378906 74.898438 37.8125 75.449219 38.292969 C 76 38.773438 76.492188 39.300781 76.925781 39.867188 C 77.359375 40.433594 77.726562 41.03125 78.023438 41.660156 C 78.324219 42.289062 78.546875 42.941406 78.699219 43.609375 C 78.851562 44.277344 78.929688 44.953125 78.929688 45.632812 Z M 78.929688 45.632812 " fill-opacity="1" fill-rule="nonzero"/><path fill="#334372" d="M 59.496094 55.039062 C 59.496094 53.570312 59.28125 52.210938 58.910156 50.949219 C 61.027344 50.246094 63.324219 49.847656 65.753906 49.847656 C 69.640625 49.847656 73.234375 50.792969 76.183594 52.535156 C 74.058594 55.296875 70.421875 56.765625 66.285156 56.765625 C 63.75 56.765625 61.417969 56.195312 59.492188 55.132812 C 59.492188 55.101562 59.496094 55.070312 59.496094 55.039062 Z M 59.496094 55.039062 " fill-opacity="1" fill-rule="nonzero"/><path fill="#334372" d="M 63.65625 54.285156 C 63.65625 54.75 63.625 55.199219 63.585938 55.640625 C 58.714844 54.554688 55.167969 51.09375 55.167969 45.632812 C 55.167969 44.292969 55.390625 43.078125 55.785156 41.984375 C 60.476562 44.128906 63.65625 48.421875 63.65625 54.285156 Z M 63.65625 54.285156 " fill-opacity="1" fill-rule="nonzero"/><g clip-path="url(#cf85158c0b)"><path fill="#5864b7" d="M 60.257812 54.285156 C 60.257812 55.191406 60.160156 56.09375 59.964844 56.984375 C 59.769531 57.875 59.480469 58.738281 59.097656 59.578125 C 58.710938 60.417969 58.242188 61.214844 57.683594 61.972656 C 57.128906 62.726562 56.492188 63.425781 55.785156 64.070312 C 55.074219 64.710938 54.304688 65.285156 53.46875 65.789062 C 52.636719 66.296875 51.757812 66.722656 50.828125 67.070312 C 49.902344 67.417969 48.949219 67.679688 47.964844 67.855469 C 46.980469 68.035156 45.988281 68.121094 44.984375 68.121094 C 43.980469 68.121094 42.988281 68.035156 42.003906 67.855469 C 41.019531 67.679688 40.066406 67.417969 39.140625 67.070312 C 38.210938 66.722656 37.332031 66.296875 36.5 65.789062 C 35.664062 65.285156 34.894531 64.710938 34.183594 64.070312 C 33.476562 63.425781 32.839844 62.726562 32.285156 61.972656 C 31.726562 61.214844 31.257812 60.417969 30.871094 59.578125 C 30.488281 58.738281 30.199219 57.875 30.003906 56.984375 C 29.808594 56.09375 29.710938 55.191406 29.710938 54.285156 C 29.710938 53.375 29.808594 52.472656 30.003906 51.582031 C 30.199219 50.691406 30.488281 49.828125 30.871094 48.988281 C 31.257812 48.148438 31.726562 47.351562 32.285156 46.59375 C 32.839844 45.839844 33.476562 45.140625 34.183594 44.496094 C 34.894531 43.855469 35.664062 43.28125 36.5 42.777344 C 37.332031 42.269531 38.210938 41.84375 39.140625 41.496094 C 40.066406 41.148438 41.019531 40.886719 42.003906 40.710938 C 42.988281 40.53125 43.980469 40.445312 44.984375 40.445312 C 45.988281 40.445312 46.980469 40.53125 47.964844 40.710938 C 48.949219 40.886719 49.902344 41.148438 50.828125 41.496094 C 51.757812 41.84375 52.636719 42.269531 53.46875 42.777344 C 54.304688 43.28125 55.074219 43.855469 55.785156 44.496094 C 56.492188 45.140625 57.128906 45.839844 57.683594 46.59375 C 58.242188 47.351562 58.710938 48.148438 59.097656 48.988281 C 59.480469 49.828125 59.769531 50.691406 59.964844 51.582031 C 60.160156 52.472656 60.257812 53.375 60.257812 54.285156 Z M 60.257812 54.285156 " fill-opacity="1" fill-rule="nonzero"/></g><path fill="#334372" d="M 44.984375 67.257812 C 44.984375 58.167969 51.425781 52.25 59.90625 51.058594 C 60.132812 52.070312 60.261719 53.144531 60.261719 54.28125 C 60.261719 62.867188 53.445312 68.101562 45.027344 68.121094 C 45.015625 67.832031 44.984375 67.554688 44.984375 67.257812 Z M 44.984375 67.257812 " fill-opacity="1" fill-rule="nonzero"/><path fill="#aa8dd8" d="M 58.515625 59.0625 C 58.757812 59.203125 58.988281 59.367188 59.199219 59.554688 C 59.410156 59.742188 59.601562 59.949219 59.773438 60.171875 C 59.945312 60.398438 60.089844 60.636719 60.214844 60.894531 C 60.339844 61.148438 60.4375 61.414062 60.507812 61.6875 C 60.582031 61.964844 60.625 62.242188 60.644531 62.527344 C 60.660156 62.8125 60.648438 63.09375 60.613281 63.375 C 60.574219 63.660156 60.507812 63.9375 60.417969 64.207031 C 60.324219 64.476562 60.207031 64.734375 60.066406 64.980469 C 59.921875 65.230469 59.757812 65.460938 59.570312 65.675781 C 59.382812 65.890625 59.175781 66.085938 58.953125 66.257812 C 58.726562 66.433594 58.488281 66.585938 58.234375 66.710938 C 57.980469 66.839844 57.714844 66.941406 57.441406 67.015625 C 57.167969 67.089844 56.890625 67.136719 56.609375 67.15625 C 56.328125 67.175781 56.046875 67.167969 55.765625 67.132812 C 55.484375 67.097656 55.210938 67.035156 54.945312 66.941406 C 54.675781 66.851562 54.421875 66.738281 54.175781 66.59375 C 53.933594 66.453125 53.703125 66.289062 53.492188 66.101562 C 53.28125 65.917969 53.089844 65.710938 52.917969 65.484375 C 52.746094 65.257812 52.601562 65.019531 52.476562 64.765625 C 52.351562 64.507812 52.253906 64.246094 52.183594 63.96875 C 52.109375 63.695312 52.066406 63.414062 52.046875 63.132812 C 52.03125 62.847656 52.042969 62.5625 52.078125 62.28125 C 52.117188 62 52.183594 61.722656 52.273438 61.453125 C 52.367188 61.183594 52.484375 60.921875 52.625 60.675781 C 52.769531 60.429688 52.933594 60.199219 53.121094 59.984375 C 53.308594 59.769531 53.515625 59.574219 53.738281 59.398438 C 53.964844 59.222656 54.203125 59.074219 54.457031 58.945312 C 54.710938 58.820312 54.976562 58.71875 55.25 58.644531 C 55.523438 58.570312 55.800781 58.519531 56.082031 58.5 C 56.363281 58.480469 56.644531 58.488281 56.925781 58.523438 C 57.207031 58.5625 57.480469 58.625 57.746094 58.714844 C 58.015625 58.804688 58.269531 58.921875 58.515625 59.0625 Z M 58.515625 59.0625 " fill-opacity="1" fill-rule="nonzero"/><g clip-path="url(#4a0e318018)"><path fill="#5864b7" d="M 82.960938 68.988281 C 82.960938 69.527344 82.929688 70.0625 82.871094 70.597656 C 82.816406 71.132812 82.726562 71.664062 82.613281 72.195312 C 82.496094 72.722656 82.351562 73.242188 82.179688 73.757812 C 82.007812 74.273438 81.808594 74.78125 81.578125 75.277344 C 81.351562 75.773438 81.097656 76.261719 80.816406 76.734375 C 80.539062 77.210938 80.234375 77.671875 79.902344 78.117188 C 79.574219 78.566406 79.21875 78.996094 78.84375 79.414062 C 78.464844 79.832031 78.066406 80.226562 77.648438 80.609375 C 77.226562 80.988281 76.789062 81.351562 76.328125 81.691406 C 75.867188 82.035156 75.390625 82.355469 74.898438 82.652344 C 74.40625 82.953125 73.894531 83.226562 73.371094 83.480469 C 72.847656 83.734375 72.3125 83.964844 71.761719 84.171875 C 71.214844 84.378906 70.65625 84.558594 70.085938 84.714844 C 69.519531 84.871094 68.941406 85.003906 68.359375 85.105469 C 67.777344 85.210938 67.191406 85.292969 66.597656 85.34375 C 66.007812 85.398438 65.414062 85.421875 64.820312 85.421875 C 64.226562 85.421875 63.632812 85.398438 63.042969 85.34375 C 62.453125 85.292969 61.863281 85.210938 61.28125 85.105469 C 60.699219 85.003906 60.125 84.871094 59.554688 84.714844 C 58.988281 84.558594 58.429688 84.378906 57.878906 84.171875 C 57.332031 83.964844 56.792969 83.734375 56.269531 83.480469 C 55.746094 83.226562 55.238281 82.953125 54.742188 82.652344 C 54.25 82.355469 53.773438 82.035156 53.3125 81.691406 C 52.855469 81.351562 52.414062 80.988281 51.996094 80.609375 C 51.574219 80.226562 51.175781 79.832031 50.800781 79.414062 C 50.421875 78.996094 50.070312 78.566406 49.738281 78.117188 C 49.410156 77.671875 49.101562 77.210938 48.824219 76.734375 C 48.542969 76.261719 48.289062 75.773438 48.0625 75.277344 C 47.835938 74.78125 47.636719 74.273438 47.460938 73.757812 C 47.289062 73.242188 47.144531 72.722656 47.03125 72.195312 C 46.914062 71.664062 46.828125 71.132812 46.769531 70.597656 C 46.710938 70.0625 46.679688 69.527344 46.679688 68.988281 C 46.679688 68.449219 46.710938 67.914062 46.769531 67.375 C 46.828125 66.839844 46.914062 66.308594 47.03125 65.78125 C 47.144531 65.253906 47.289062 64.730469 47.460938 64.214844 C 47.636719 63.703125 47.835938 63.195312 48.0625 62.699219 C 48.289062 62.199219 48.542969 61.714844 48.824219 61.238281 C 49.101562 60.765625 49.410156 60.304688 49.738281 59.855469 C 50.070312 59.410156 50.421875 58.976562 50.800781 58.5625 C 51.175781 58.144531 51.574219 57.746094 51.996094 57.367188 C 52.414062 56.984375 52.855469 56.625 53.3125 56.28125 C 53.773438 55.941406 54.25 55.621094 54.742188 55.320312 C 55.238281 55.023438 55.746094 54.746094 56.269531 54.492188 C 56.792969 54.238281 57.332031 54.007812 57.878906 53.804688 C 58.429688 53.597656 58.988281 53.417969 59.554688 53.261719 C 60.125 53.105469 60.699219 52.972656 61.28125 52.867188 C 61.863281 52.761719 62.453125 52.683594 63.042969 52.632812 C 63.632812 52.578125 64.226562 52.550781 64.820312 52.550781 C 65.414062 52.550781 66.007812 52.578125 66.597656 52.632812 C 67.191406 52.683594 67.777344 52.761719 68.359375 52.867188 C 68.941406 52.972656 69.519531 53.105469 70.085938 53.261719 C 70.65625 53.417969 71.214844 53.597656 71.761719 53.804688 C 72.3125 54.007812 72.847656 54.238281 73.371094 54.492188 C 73.894531 54.746094 74.40625 55.023438 74.898438 55.320312 C 75.390625 55.621094 75.867188 55.941406 76.328125 56.28125 C 76.789062 56.625 77.226562 56.984375 77.648438 57.367188 C 78.066406 57.746094 78.464844 58.144531 78.84375 58.5625 C 79.21875 58.976562 79.574219 59.410156 79.902344 59.855469 C 80.234375 60.304688 80.539062 60.765625 80.816406 61.238281 C 81.097656 61.714844 81.351562 62.199219 81.578125 62.699219 C 81.808594 63.195312 82.007812 63.703125 82.179688 64.214844 C 82.351562 64.730469 82.496094 65.253906 82.613281 65.78125 C 82.726562 66.308594 82.816406 66.839844 82.871094 67.375 C 82.929688 67.914062 82.960938 68.449219 82.960938 68.988281 Z M 82.960938 68.988281 " fill-opacity="1" fill-rule="nonzero"/></g><path fill="#334372" d="M 55.550781 59.773438 C 56.757812 57.660156 58.46875 58.757812 60.5 57.421875 C 62.128906 56.347656 62.351562 54.710938 64.070312 54.710938 C 65.789062 54.710938 66.824219 56.144531 67.792969 56.5 C 70.074219 57.34375 71.433594 56.109375 73.152344 57.832031 C 74.871094 59.554688 71.824219 61.105469 71.570312 62.433594 C 71.246094 64.125 73.355469 65.351562 71.875 66.167969 C 69.75 67.347656 69.214844 65.210938 65.78125 65.378906 C 63.203125 65.503906 62.183594 68.011719 59.9375 67.242188 C 57.636719 66.457031 60.753906 64.226562 59.375 62.792969 C 57.691406 61.039062 54.734375 61.207031 55.550781 59.773438 Z M 36.875 46.011719 C 37.640625 44.226562 38.707031 45.257812 40.195312 44.011719 C 41.390625 43.011719 41.417969 41.695312 42.777344 41.539062 C 44.140625 41.382812 45.089844 42.425781 45.890625 42.617188 C 47.773438 43.078125 49.121094 42.480469 50.257812 43.1875 C 51.902344 44.207031 50.019531 45.445312 49.9375 46.523438 C 49.832031 47.890625 51.097656 49.125 50 49.910156 C 48.417969 51.035156 47.433594 49.609375 44.730469 50.050781 C 42.699219 50.386719 42.546875 51.835938 40.699219 51.433594 C 38.808594 51.019531 40.441406 49.167969 39.222656 48.160156 C 37.730469 46.925781 36.359375 47.222656 36.875 46.011719 Z M 68.171875 37.265625 C 69.597656 36.757812 69.574219 37.917969 71.078125 38.113281 C 72.285156 38.269531 73.054688 37.582031 73.867188 38.285156 C 74.679688 38.984375 74.589844 40.082031 74.90625 40.648438 C 75.644531 41.976562 76.703125 42.433594 76.902344 43.460938 C 77.195312 44.949219 75.484375 44.523438 74.824219 45.050781 C 73.984375 45.71875 73.949219 47.101562 72.921875 46.886719 C 71.4375 46.578125 71.730469 45.253906 70.039062 43.933594 C 68.765625 42.941406 67.855469 43.628906 67.105469 42.351562 C 66.335938 41.042969 68.261719 41 68.1875 39.761719 C 68.101562 38.242188 67.203125 37.613281 68.171875 37.265625 Z M 68.171875 37.265625 " fill-opacity="1" fill-rule="nonzero"/><path fill="#253356" d="M 71.664062 60.523438 C 71.664062 60.796875 71.625 61.0625 71.542969 61.328125 C 71.460938 61.59375 71.335938 61.847656 71.175781 62.097656 C 71.011719 62.347656 70.8125 62.585938 70.578125 62.808594 C 70.34375 63.035156 70.074219 63.242188 69.773438 63.433594 C 69.476562 63.625 69.148438 63.792969 68.796875 63.945312 C 68.445312 64.09375 68.074219 64.21875 67.679688 64.324219 C 67.289062 64.425781 66.886719 64.503906 66.46875 64.558594 C 66.054688 64.609375 65.632812 64.636719 65.210938 64.636719 C 64.785156 64.636719 64.367188 64.609375 63.953125 64.558594 C 63.535156 64.503906 63.132812 64.425781 62.742188 64.324219 C 62.347656 64.21875 61.976562 64.09375 61.625 63.945312 C 61.273438 63.792969 60.945312 63.625 60.644531 63.433594 C 60.347656 63.242188 60.078125 63.035156 59.84375 62.808594 C 59.609375 62.585938 59.410156 62.347656 59.246094 62.097656 C 59.085938 61.847656 58.960938 61.59375 58.878906 61.328125 C 58.796875 61.0625 58.753906 60.796875 58.753906 60.523438 C 58.753906 60.253906 58.796875 59.988281 58.878906 59.722656 C 58.960938 59.457031 59.085938 59.203125 59.246094 58.953125 C 59.410156 58.703125 59.609375 58.464844 59.84375 58.242188 C 60.078125 58.015625 60.347656 57.808594 60.644531 57.617188 C 60.945312 57.425781 61.273438 57.257812 61.625 57.105469 C 61.976562 56.957031 62.347656 56.832031 62.742188 56.726562 C 63.132812 56.625 63.535156 56.546875 63.953125 56.492188 C 64.367188 56.441406 64.785156 56.414062 65.210938 56.414062 C 65.632812 56.414062 66.054688 56.441406 66.46875 56.492188 C 66.886719 56.546875 67.289062 56.625 67.679688 56.726562 C 68.074219 56.832031 68.445312 56.957031 68.796875 57.105469 C 69.148438 57.257812 69.476562 57.425781 69.773438 57.617188 C 70.074219 57.808594 70.34375 58.015625 70.578125 58.242188 C 70.8125 58.464844 71.011719 58.703125 71.175781 58.953125 C 71.335938 59.203125 71.460938 59.457031 71.542969 59.722656 C 71.625 59.988281 71.664062 60.253906 71.664062 60.523438 Z M 71.664062 60.523438 " fill-opacity="1" fill-rule="nonzero"/><path fill="#253356" d="M 49.074219 46.335938 C 49.074219 46.539062 49.042969 46.742188 48.980469 46.941406 C 48.917969 47.136719 48.828125 47.332031 48.707031 47.519531 C 48.585938 47.707031 48.433594 47.882812 48.257812 48.050781 C 48.082031 48.21875 47.882812 48.375 47.65625 48.519531 C 47.433594 48.664062 47.1875 48.789062 46.921875 48.902344 C 46.660156 49.015625 46.378906 49.109375 46.085938 49.1875 C 45.792969 49.265625 45.488281 49.324219 45.179688 49.363281 C 44.867188 49.402344 44.550781 49.421875 44.234375 49.421875 C 43.914062 49.421875 43.601562 49.402344 43.289062 49.363281 C 42.976562 49.324219 42.675781 49.265625 42.382812 49.1875 C 42.085938 49.109375 41.808594 49.015625 41.542969 48.902344 C 41.28125 48.789062 41.035156 48.664062 40.8125 48.519531 C 40.585938 48.375 40.386719 48.21875 40.207031 48.050781 C 40.03125 47.882812 39.882812 47.707031 39.761719 47.519531 C 39.640625 47.332031 39.546875 47.136719 39.484375 46.941406 C 39.425781 46.742188 39.394531 46.539062 39.394531 46.335938 C 39.394531 46.136719 39.425781 45.933594 39.484375 45.734375 C 39.546875 45.539062 39.640625 45.34375 39.761719 45.15625 C 39.882812 44.96875 40.03125 44.792969 40.207031 44.625 C 40.386719 44.457031 40.585938 44.300781 40.8125 44.15625 C 41.035156 44.011719 41.28125 43.886719 41.542969 43.773438 C 41.808594 43.660156 42.085938 43.566406 42.382812 43.488281 C 42.675781 43.410156 42.976562 43.351562 43.289062 43.3125 C 43.601562 43.273438 43.914062 43.253906 44.234375 43.253906 C 44.550781 43.253906 44.867188 43.273438 45.179688 43.3125 C 45.488281 43.351562 45.792969 43.410156 46.085938 43.488281 C 46.378906 43.566406 46.660156 43.660156 46.921875 43.773438 C 47.1875 43.886719 47.433594 44.011719 47.65625 44.15625 C 47.882812 44.300781 48.082031 44.457031 48.257812 44.625 C 48.433594 44.792969 48.585938 44.96875 48.707031 45.15625 C 48.828125 45.34375 48.917969 45.539062 48.980469 45.734375 C 49.042969 45.933594 49.074219 46.136719 49.074219 46.335938 Z M 49.074219 46.335938 " fill-opacity="1" fill-rule="nonzero"/><path fill="#253356" d="M 73.835938 40.308594 C 74.136719 40.664062 74.378906 41.039062 74.570312 41.441406 C 74.757812 41.84375 74.878906 42.238281 74.933594 42.621094 C 74.984375 43.007812 74.964844 43.355469 74.871094 43.667969 C 74.777344 43.980469 74.617188 44.230469 74.390625 44.421875 C 74.167969 44.613281 73.890625 44.726562 73.570312 44.769531 C 73.246094 44.808594 72.902344 44.769531 72.53125 44.652344 C 72.160156 44.535156 71.792969 44.351562 71.429688 44.09375 C 71.070312 43.839844 70.738281 43.535156 70.441406 43.179688 C 70.140625 42.824219 69.898438 42.445312 69.707031 42.042969 C 69.515625 41.644531 69.394531 41.25 69.34375 40.863281 C 69.292969 40.476562 69.3125 40.128906 69.40625 39.816406 C 69.5 39.503906 69.660156 39.253906 69.882812 39.0625 C 70.109375 38.871094 70.382812 38.757812 70.707031 38.71875 C 71.027344 38.679688 71.375 38.714844 71.746094 38.832031 C 72.117188 38.949219 72.480469 39.136719 72.84375 39.390625 C 73.207031 39.648438 73.539062 39.953125 73.835938 40.308594 Z M 73.835938 40.308594 " fill-opacity="1" fill-rule="nonzero"/></svg>