<?xml version="1.0" encoding="utf-8"?>
<!-- Generator: Adobe Illustrator 27.1.1, SVG Export Plug-In . SVG Version: 6.00 Build 0)  -->
<svg version="1.1" id="Lager_1" xmlns="http://www.w3.org/2000/svg" xmlns:xlink="http://www.w3.org/1999/xlink" x="0px" y="0px"
	 viewBox="0 0 71.5 78" style="enable-background:new 0 0 71.5 78;" xml:space="preserve">
<style type="text/css">
	.st0{clip-path:url(#SVGID_00000095336146846763600370000017436874327841639100_);}
	.st1{fill:#5C913B;}
	.st2{clip-path:url(#SVGID_00000044895539965027866930000012502507799227181486_);}
	.st3{fill:#77B255;}
	.st4{fill:#5864B7;}
	.st5{fill:#334372;}
	.st6{clip-path:url(#SVGID_00000049914401260789550040000015391962004388310163_);}
	.st7{fill:#AA8DD8;}
	.st8{clip-path:url(#SVGID_00000039834715867684726990000012755707313163948721_);}
	.st9{fill:#253356;}
</style>
<g>
	<defs>
		<rect id="SVGID_1_" x="14" width="24" height="29.1"/>
	</defs>
	<clipPath id="SVGID_00000047759650743694363090000003530452450908544904_">
		<use xlink:href="#SVGID_1_"  style="overflow:visible;"/>
	</clipPath>
	<g style="clip-path:url(#SVGID_00000047759650743694363090000003530452450908544904_);">
		<path class="st1" d="M14.3,0.4c0,0,13.4,1.4,19.6,9.3c7.3,9.5,2,18.3,2,18.3s-11.1-1-16.1-7.2C12.4,11.7,14.3,0.4,14.3,0.4z"/>
	</g>
</g>
<g>
	<defs>
		<rect id="SVGID_00000179605496960489221680000014172243852251715748_" x="30" width="17.3" height="23.8"/>
	</defs>
	<clipPath id="SVGID_00000180331618233639096850000006406427775758768316_">
		<use xlink:href="#SVGID_00000179605496960489221680000014172243852251715748_"  style="overflow:visible;"/>
	</clipPath>
	<g style="clip-path:url(#SVGID_00000180331618233639096850000006406427775758768316_);">
		<path class="st3" d="M45.9,0.4c0,0,2.1,10.6-2.3,17.2c-5.3,7.8-13,5.8-13,5.8s-1.9-8.7,1.6-14C37.2,1.6,45.9,0.4,45.9,0.4z"/>
	</g>
</g>
<path class="st4" d="M66,24.6c0,0.9-0.1,1.8-0.3,2.7c-0.2,0.9-0.5,1.8-0.9,2.6c-0.4,0.8-0.9,1.6-1.5,2.4c-0.6,0.8-1.2,1.5-2,2.1
	c-0.7,0.6-1.5,1.2-2.4,1.7c-0.9,0.5-1.8,0.9-2.7,1.3c-1,0.3-1.9,0.6-3,0.8c-1,0.2-2.1,0.3-3.1,0.3c-1,0-2.1-0.1-3.1-0.3
	c-1-0.2-2-0.4-3-0.8c-1-0.3-1.9-0.8-2.7-1.3c-0.9-0.5-1.7-1.1-2.4-1.7c-0.7-0.6-1.4-1.3-2-2.1c-0.6-0.8-1.1-1.6-1.5-2.4
	c-0.4-0.8-0.7-1.7-0.9-2.6c-0.2-0.9-0.3-1.8-0.3-2.7c0-0.9,0.1-1.8,0.3-2.7s0.5-1.8,0.9-2.6c0.4-0.8,0.9-1.6,1.5-2.4s1.2-1.5,2-2.1
	s1.5-1.2,2.4-1.7c0.9-0.5,1.8-0.9,2.7-1.3c1-0.3,1.9-0.6,3-0.8c1-0.2,2.1-0.3,3.1-0.3c1,0,2.1,0.1,3.1,0.3c1,0.2,2,0.4,3,0.8
	c1,0.3,1.9,0.8,2.7,1.3c0.9,0.5,1.7,1.1,2.4,1.7s1.4,1.3,2,2.1s1.1,1.6,1.5,2.4c0.4,0.8,0.7,1.7,0.9,2.6S66,23.7,66,24.6z"/>
<path class="st5" d="M40,37.2c0-2-0.3-3.8-0.8-5.5c2.8-0.9,5.9-1.5,9.1-1.5c5.2,0,10,1.3,13.9,3.6c-2.8,3.7-7.7,5.6-13.2,5.6
	c-3.4,0-6.5-0.8-9.1-2.2C40,37.2,40,37.2,40,37.2z"/>
<path class="st5" d="M45.6,36.2c0,0.6,0,1.2-0.1,1.8c-6.5-1.4-11.2-6.1-11.2-13.3c0-1.8,0.3-3.4,0.8-4.9
	C41.3,22.6,45.6,28.3,45.6,36.2z"/>
<g>
	<defs>
		<rect id="SVGID_00000054947731129076084320000015941983467834381231_" x="0.3" y="17.1" width="41.7" height="38.7"/>
	</defs>
	<clipPath id="SVGID_00000037652055334427216250000003453300520965338255_">
		<use xlink:href="#SVGID_00000054947731129076084320000015941983467834381231_"  style="overflow:visible;"/>
	</clipPath>
	<g style="clip-path:url(#SVGID_00000037652055334427216250000003453300520965338255_);">
		<path class="st4" d="M41.1,36.2c0,1.2-0.1,2.4-0.4,3.6s-0.6,2.3-1.2,3.5c-0.5,1.1-1.1,2.2-1.9,3.2c-0.7,1-1.6,1.9-2.5,2.8
			c-0.9,0.9-2,1.6-3.1,2.3c-1.1,0.7-2.3,1.2-3.5,1.7c-1.2,0.5-2.5,0.8-3.8,1c-1.3,0.2-2.6,0.4-4,0.4c-1.3,0-2.7-0.1-4-0.4
			c-1.3-0.2-2.6-0.6-3.8-1c-1.2-0.5-2.4-1-3.5-1.7c-1.1-0.7-2.1-1.4-3.1-2.3c-0.9-0.9-1.8-1.8-2.5-2.8c-0.7-1-1.4-2.1-1.9-3.2
			c-0.5-1.1-0.9-2.3-1.2-3.5s-0.4-2.4-0.4-3.6c0-1.2,0.1-2.4,0.4-3.6s0.6-2.3,1.2-3.5C2.4,28,3,26.9,3.8,25.9c0.7-1,1.6-1.9,2.5-2.8
			c0.9-0.9,2-1.6,3.1-2.3c1.1-0.7,2.3-1.2,3.5-1.7c1.2-0.5,2.5-0.8,3.8-1c1.3-0.2,2.6-0.4,4-0.4c1.3,0,2.7,0.1,4,0.4
			c1.3,0.2,2.6,0.6,3.8,1c1.2,0.5,2.4,1,3.5,1.7c1.1,0.7,2.1,1.4,3.1,2.3c0.9,0.9,1.8,1.8,2.5,2.8c0.7,1,1.4,2.1,1.9,3.2
			c0.5,1.1,0.9,2.3,1.2,3.5S41.1,34.9,41.1,36.2z"/>
	</g>
</g>
<path class="st5" d="M20.7,53.4c0-12.1,8.6-20,19.9-21.6c0.3,1.3,0.5,2.8,0.5,4.3c0,11.4-9.1,18.4-20.3,18.5
	C20.7,54.2,20.7,53.8,20.7,53.4z"/>
<path class="st7" d="M38.7,42.5c0.3,0.2,0.6,0.4,0.9,0.7s0.5,0.5,0.8,0.8c0.2,0.3,0.4,0.6,0.6,1c0.2,0.3,0.3,0.7,0.4,1.1
	c0.1,0.4,0.2,0.7,0.2,1.1c0,0.4,0,0.8,0,1.1c-0.1,0.4-0.1,0.8-0.3,1.1c-0.1,0.4-0.3,0.7-0.5,1c-0.2,0.3-0.4,0.6-0.7,0.9
	s-0.5,0.5-0.8,0.8c-0.3,0.2-0.6,0.4-1,0.6c-0.3,0.2-0.7,0.3-1.1,0.4c-0.4,0.1-0.7,0.2-1.1,0.2c-0.4,0-0.8,0-1.1,0S34.3,53.2,34,53
	c-0.4-0.1-0.7-0.3-1-0.5c-0.3-0.2-0.6-0.4-0.9-0.7c-0.3-0.2-0.5-0.5-0.8-0.8c-0.2-0.3-0.4-0.6-0.6-1c-0.2-0.3-0.3-0.7-0.4-1.1
	c-0.1-0.4-0.2-0.7-0.2-1.1c0-0.4,0-0.8,0-1.1c0.1-0.4,0.1-0.7,0.3-1.1c0.1-0.4,0.3-0.7,0.5-1c0.2-0.3,0.4-0.6,0.7-0.9
	c0.2-0.3,0.5-0.5,0.8-0.8c0.3-0.2,0.6-0.4,1-0.6c0.3-0.2,0.7-0.3,1.1-0.4c0.4-0.1,0.7-0.2,1.1-0.2c0.4,0,0.8,0,1.1,0
	c0.4,0.1,0.7,0.1,1.1,0.3C38.1,42.2,38.4,42.3,38.7,42.5z"/>
<g>
	<defs>
		<rect id="SVGID_00000051357778995401872980000009622056606255721143_" x="22" y="33.1" width="49.3" height="44.9"/>
	</defs>
	<clipPath id="SVGID_00000150791313697252738870000005063318897137379459_">
		<use xlink:href="#SVGID_00000051357778995401872980000009622056606255721143_"  style="overflow:visible;"/>
	</clipPath>
	<g style="clip-path:url(#SVGID_00000150791313697252738870000005063318897137379459_);">
		<path class="st4" d="M71.3,55.8c0,0.7,0,1.4-0.1,2.1c-0.1,0.7-0.2,1.4-0.3,2.1c-0.2,0.7-0.3,1.4-0.6,2.1s-0.5,1.4-0.8,2
			c-0.3,0.7-0.6,1.3-1,1.9c-0.4,0.6-0.8,1.2-1.2,1.8c-0.4,0.6-0.9,1.2-1.4,1.7c-0.5,0.6-1,1.1-1.6,1.6c-0.6,0.5-1.1,1-1.8,1.4
			c-0.6,0.5-1.2,0.9-1.9,1.3c-0.7,0.4-1.3,0.8-2,1.1c-0.7,0.3-1.4,0.6-2.1,0.9c-0.7,0.3-1.5,0.5-2.2,0.7c-0.8,0.2-1.5,0.4-2.3,0.5
			c-0.8,0.1-1.6,0.2-2.3,0.3c-0.8,0.1-1.6,0.1-2.4,0.1c-0.8,0-1.6,0-2.4-0.1c-0.8-0.1-1.6-0.2-2.3-0.3c-0.8-0.1-1.5-0.3-2.3-0.5
			c-0.8-0.2-1.5-0.4-2.2-0.7c-0.7-0.3-1.4-0.6-2.1-0.9c-0.7-0.3-1.4-0.7-2-1.1c-0.7-0.4-1.3-0.8-1.9-1.3c-0.6-0.5-1.2-0.9-1.8-1.4
			c-0.6-0.5-1.1-1-1.6-1.6c-0.5-0.6-1-1.1-1.4-1.7c-0.4-0.6-0.8-1.2-1.2-1.8c-0.4-0.6-0.7-1.3-1-1.9c-0.3-0.7-0.6-1.3-0.8-2
			c-0.2-0.7-0.4-1.4-0.6-2.1c-0.2-0.7-0.3-1.4-0.3-2.1S23,56.5,23,55.8s0-1.4,0.1-2.2c0.1-0.7,0.2-1.4,0.3-2.1
			c0.2-0.7,0.3-1.4,0.6-2.1c0.2-0.7,0.5-1.4,0.8-2c0.3-0.7,0.6-1.3,1-1.9c0.4-0.6,0.8-1.2,1.2-1.8c0.4-0.6,0.9-1.2,1.4-1.7
			c0.5-0.6,1-1.1,1.6-1.6c0.6-0.5,1.1-1,1.8-1.4c0.6-0.5,1.2-0.9,1.9-1.3c0.7-0.4,1.3-0.8,2-1.1c0.7-0.3,1.4-0.6,2.1-0.9
			c0.7-0.3,1.5-0.5,2.2-0.7c0.8-0.2,1.5-0.4,2.3-0.5c0.8-0.1,1.6-0.2,2.3-0.3c0.8-0.1,1.6-0.1,2.4-0.1c0.8,0,1.6,0,2.4,0.1
			c0.8,0.1,1.6,0.2,2.3,0.3c0.8,0.1,1.5,0.3,2.3,0.5c0.8,0.2,1.5,0.4,2.2,0.7c0.7,0.3,1.4,0.6,2.1,0.9c0.7,0.3,1.4,0.7,2,1.1
			c0.7,0.4,1.3,0.8,1.9,1.3c0.6,0.5,1.2,0.9,1.8,1.4c0.6,0.5,1.1,1,1.6,1.6c0.5,0.6,1,1.1,1.4,1.7c0.4,0.6,0.8,1.2,1.2,1.8
			c0.4,0.6,0.7,1.3,1,1.9c0.3,0.7,0.6,1.3,0.8,2c0.2,0.7,0.4,1.4,0.6,2.1c0.2,0.7,0.3,1.4,0.3,2.1C71.3,54.3,71.3,55,71.3,55.8z"/>
	</g>
</g>
<path class="st5" d="M34.8,43.5c1.6-2.8,3.9-1.4,6.6-3.1c2.2-1.4,2.5-3.6,4.8-3.6c2.3,0,3.7,1.9,5,2.4c3,1.1,4.9-0.5,7.1,1.8
	c2.3,2.3-1.8,4.4-2.1,6.1c-0.4,2.3,2.4,3.9,0.4,5c-2.8,1.6-3.5-1.3-8.1-1.1c-3.4,0.2-4.8,3.5-7.8,2.5c-3.1-1,1.1-4-0.8-5.9
	C37.6,45.2,33.7,45.4,34.8,43.5z M9.9,25.1c1-2.4,2.4-1,4.4-2.7c1.6-1.3,1.6-3.1,3.4-3.3c1.8-0.2,3.1,1.2,4.2,1.4
	c2.5,0.6,4.3-0.2,5.8,0.8c2.2,1.4-0.3,3-0.4,4.4c-0.1,1.8,1.5,3.5,0.1,4.5c-2.1,1.5-3.4-0.4-7,0.2c-2.7,0.4-2.9,2.4-5.4,1.8
	c-2.5-0.6-0.3-3-2-4.4C11,26.3,9.2,26.7,9.9,25.1z M51.6,13.5c1.9-0.7,1.9,0.9,3.9,1.1c1.6,0.2,2.6-0.7,3.7,0.2
	c1.1,0.9,1,2.4,1.4,3.2c1,1.8,2.4,2.4,2.7,3.8c0.4,2-1.9,1.4-2.8,2.1c-1.1,0.9-1.2,2.7-2.5,2.4c-2-0.4-1.6-2.2-3.8-3.9
	c-1.7-1.3-2.9-0.4-3.9-2.1c-1-1.7,1.5-1.8,1.4-3.5C51.5,14.8,50.3,13.9,51.6,13.5z"/>
<path class="st9" d="M56.3,44.5c0,0.4-0.1,0.7-0.2,1.1s-0.3,0.7-0.5,1c-0.2,0.3-0.5,0.7-0.8,0.9c-0.3,0.3-0.7,0.6-1.1,0.8
	c-0.4,0.3-0.8,0.5-1.3,0.7c-0.5,0.2-1,0.4-1.5,0.5c-0.5,0.1-1.1,0.2-1.6,0.3c-0.6,0.1-1.1,0.1-1.7,0.1c-0.6,0-1.1,0-1.7-0.1
	c-0.6-0.1-1.1-0.2-1.6-0.3c-0.5-0.1-1-0.3-1.5-0.5c-0.5-0.2-0.9-0.4-1.3-0.7c-0.4-0.3-0.8-0.5-1.1-0.8c-0.3-0.3-0.6-0.6-0.8-0.9
	c-0.2-0.3-0.4-0.7-0.5-1s-0.2-0.7-0.2-1.1c0-0.4,0.1-0.7,0.2-1.1s0.3-0.7,0.5-1c0.2-0.3,0.5-0.7,0.8-0.9c0.3-0.3,0.7-0.6,1.1-0.8
	c0.4-0.3,0.8-0.5,1.3-0.7c0.5-0.2,1-0.4,1.5-0.5c0.5-0.1,1.1-0.2,1.6-0.3c0.6-0.1,1.1-0.1,1.7-0.1c0.6,0,1.1,0,1.7,0.1
	c0.6,0.1,1.1,0.2,1.6,0.3c0.5,0.1,1,0.3,1.5,0.5c0.5,0.2,0.9,0.4,1.3,0.7c0.4,0.3,0.8,0.5,1.1,0.8c0.3,0.3,0.6,0.6,0.8,0.9
	c0.2,0.3,0.4,0.7,0.5,1S56.3,44.1,56.3,44.5z"/>
<path class="st9" d="M26.1,25.6c0,0.3,0,0.5-0.1,0.8c-0.1,0.3-0.2,0.5-0.4,0.8c-0.2,0.2-0.4,0.5-0.6,0.7c-0.2,0.2-0.5,0.4-0.8,0.6
	c-0.3,0.2-0.6,0.4-1,0.5c-0.3,0.2-0.7,0.3-1.1,0.4c-0.4,0.1-0.8,0.2-1.2,0.2c-0.4,0.1-0.8,0.1-1.3,0.1c-0.4,0-0.8,0-1.3-0.1
	c-0.4-0.1-0.8-0.1-1.2-0.2c-0.4-0.1-0.8-0.2-1.1-0.4c-0.3-0.2-0.7-0.3-1-0.5c-0.3-0.2-0.6-0.4-0.8-0.6c-0.2-0.2-0.4-0.5-0.6-0.7
	c-0.2-0.2-0.3-0.5-0.4-0.8c-0.1-0.3-0.1-0.5-0.1-0.8c0-0.3,0-0.5,0.1-0.8c0.1-0.3,0.2-0.5,0.4-0.8c0.2-0.2,0.4-0.5,0.6-0.7
	c0.2-0.2,0.5-0.4,0.8-0.6c0.3-0.2,0.6-0.4,1-0.5c0.4-0.2,0.7-0.3,1.1-0.4c0.4-0.1,0.8-0.2,1.2-0.2c0.4-0.1,0.8-0.1,1.3-0.1
	c0.4,0,0.8,0,1.3,0.1c0.4,0.1,0.8,0.1,1.2,0.2s0.8,0.2,1.1,0.4c0.4,0.2,0.7,0.3,1,0.5c0.3,0.2,0.6,0.4,0.8,0.6s0.4,0.5,0.6,0.7
	c0.2,0.2,0.3,0.5,0.4,0.8C26.1,25,26.1,25.3,26.1,25.6z"/>
<path class="st9" d="M59.2,17.5c0.4,0.5,0.7,1,1,1.5c0.2,0.5,0.4,1.1,0.5,1.6c0.1,0.5,0,1-0.1,1.4c-0.1,0.4-0.3,0.8-0.6,1
	c-0.3,0.3-0.7,0.4-1.1,0.5c-0.4,0.1-0.9,0-1.4-0.2c-0.5-0.2-1-0.4-1.5-0.7c-0.5-0.3-0.9-0.7-1.3-1.2c-0.4-0.5-0.7-1-1-1.5
	c-0.3-0.5-0.4-1.1-0.5-1.6c-0.1-0.5,0-1,0.1-1.4c0.1-0.4,0.3-0.8,0.6-1c0.3-0.3,0.7-0.4,1.1-0.5c0.4-0.1,0.9,0,1.4,0.2
	c0.5,0.2,1,0.4,1.5,0.7C58.3,16.6,58.8,17,59.2,17.5z"/>
</svg>
