<?xml version="1.0" encoding="utf-8"?>
<!-- Generator: Adobe Illustrator 27.1.1, SVG Export Plug-In . SVG Version: 6.00 Build 0)  -->
<svg version="1.1" id="Lager_1" xmlns="http://www.w3.org/2000/svg" xmlns:xlink="http://www.w3.org/1999/xlink" x="0px" y="0px"
	 viewBox="0 0 102.9 78.1" style="enable-background:new 0 0 102.9 78.1;" xml:space="preserve">
<style type="text/css">
	.st0{clip-path:url(#SVGID_00000165215646914506928220000011672133395980320662_);}
	.st1{fill:#A6A6A6;}
	.st2{fill:#F9DA8F;}
	.st3{fill:#36342F;}
	.st4{fill:#FFFFFF;}
</style>
<g>
	<defs>
		<rect id="SVGID_1_" x="3.3" y="2.7" width="97.8" height="73"/>
	</defs>
	<clipPath id="SVGID_00000058561606381049207480000014425814902164182157_">
		<use xlink:href="#SVGID_1_"  style="overflow:visible;"/>
	</clipPath>
	<g style="clip-path:url(#SVGID_00000058561606381049207480000014425814902164182157_);">
		<path class="st1" d="M101,12.4c0,1.9,0,3.9-0.1,5.8c0,1.4,0,2.8-0.1,4.2c-0.1,3.3-0.2,6.6-0.4,9.9c-0.1,1.8-0.1,3.7-0.3,5.5
			c-0.1,1.6-0.3,3.2-0.4,4.7c0,0.4-0.2,0.8-0.3,1.2c-0.1,0.3-0.3,0.6-0.6,0.9c0,0,0,0-0.1,0c-0.1,0.6-0.3,1.2-0.7,1.8c0,0,0,0,0,0
			c0.1,0.1,0.1,0.3,0.1,0.5c-0.1,0.4-0.4,0.7-0.7,0.9c-0.8,0.8-1.7,1.5-2.7,2.1c-1.7,1-3.5,2.1-5.2,3c-11.1,6.3-22.5,12.2-34.1,17.8
			c-3,1.4-6,2.7-9,4c-0.5,0.2-1.1,0.4-1.6,0.6c-0.5,0.2-1,0.3-1.5,0c-0.1-0.1-0.3,0-0.4,0c-1.1,0-2.2-0.2-3.3-0.5
			c-7.4-1.9-14.9-3.9-22.2-6.1c-3-0.9-6-1.8-8.9-2.9c-0.6-0.2-1.2-0.5-1.8-0.8c-1-0.5-1.8-1.3-2.2-2.4c-0.2-0.7-0.4-1.3-0.5-2.1
			c-0.6-7.1-0.7-14.2-0.6-21.3c0-2.1,0.2-4.2,0.3-6.2c0.1-1.8,0.2-3.5,0.5-5.3c0.2-1.8,0.4-2.1,2-2.9c3.4-1.7,6.7-3.4,10.2-5
			c9.4-4.3,18.9-8.1,28.6-11.6c3.8-1.4,7.6-2.7,11.3-4.1c0.9-0.3,1.8-0.6,2.7-0.8c1.7-0.5,3.5-0.7,5.2-0.6C66.7,2.9,68.8,3,71,3.2
			c1.9,0.1,3.7,0.3,5.6,0.5C78,3.8,79.5,4,81,4.2c1.5,0.2,3,0.3,4.5,0.5C87.3,5,89.1,5.2,91,5.5c2.1,0.3,4.2,0.7,6.3,1.1
			C97.6,6.7,98,6.8,98.4,7c0.2,0.1,0.3,0.2,0.4,0.3C99,7.4,99,7.6,99,7.8c0.3,0.1,0.7,0.3,0.9,0.5c0.3,0,0.5,0.1,0.7,0.4
			c0.2,0.4,0.4,0.8,0.4,1.2C100.9,10.7,101,11.6,101,12.4z"/>
	</g>
</g>
<path class="st2" d="M44.3,70.8c0,0.1-0.1,0.1-0.2,0.2c-0.1-0.1-0.2-0.2-0.2-0.3c0-0.1,0-0.3,0-0.4c0-2.4,0-4.7,0-7.1
	c0.1-2.1,0.2-4.2,0.3-6.3c0.1-1.4,0.2-2.7,0.2-4.1c0.2-3.7,0.4-7.5,0.2-11.2c0-1.2-0.1-2.5-0.2-3.7c0-0.5,0-0.9,0.2-1.3
	c0-0.1,0.1-0.2,0.3-0.3c0-0.6-0.2-1.1,0.1-1.5c0.4-0.5,1-0.8,1.6-1.1c0,0,0,0,0-0.1c0.1-0.1,0.1-0.2,0.2-0.2
	c1.1-0.3,2.2-0.8,3.2-1.4c4.3-2.3,8.6-4.6,12.9-6.8c9.3-4.7,18.7-9.2,28.1-13.6c1.3-0.6,2.6-1.1,3.9-1.7c0.1-0.1,0.3-0.1,0.4-0.1
	l2.8-1.5c-0.1,0-0.2,0-0.3,0c-0.7-0.1-1.4-0.1-2.1-0.3c-2.3-0.4-4.7-0.8-7-1.2c-1.3-0.2-2.7-0.3-4-0.5c-1.4-0.2-2.8-0.4-4.2-0.5
	c-1.5-0.2-3-0.4-4.5-0.5C75.1,5.2,74,5.1,73,5c-0.9-0.1-1.9-0.2-2.8-0.3c-2-0.1-4-0.3-6-0.4C62.6,4.3,61,4.6,59.5,5
	c-3.6,1.1-7.2,2.4-10.7,3.7c-8,3-16,5.9-23.8,9.3c-4.3,1.9-8.7,3.8-13,5.7c-1.7,0.8-3.4,1.5-5.2,2.1c-0.4,0.2-0.8,0.3-1.1,0.5
	c0,0.8-0.1,1.5-0.1,2.2c0,0.2,0,0.3,0,0.5c-0.1,2.5-0.2,5-0.3,7.5c-0.1,2.3-0.1,4.7-0.1,7c0,3.6,0.2,7.3,0.3,10.9
	c0,1.1,0.1,2.2,0.1,3.3c0,0.5,0.1,1,0.1,1.6c0.4,0,0.5-0.3,0.7-0.4c1.5-1.6,3-3.1,4.4-4.7c0.7-0.7,1.3-1.4,1.9-2.1
	c0.4-0.4,0.9-0.8,1.4-1.2c-0.1-0.2-0.2-0.4-0.3-0.6c-2-3.6-3.9-7.3-5.6-11.1c-0.6-1.3-1.3-2.6-1.9-3.9c-0.2-0.3-0.3-0.7-0.5-1.1
	c-0.1-0.2,0-0.4,0-0.6c0-0.1,0.3-0.2,0.4-0.1c0.1,0.1,0.2,0.3,0.3,0.4c1.1,1.9,2.2,3.8,3.1,5.8c2,4.3,4.3,8.6,6.7,12.7
	c0.6,0.9,1.1,1.9,1.7,2.8c0.3,0.4,0.6,0.8,0.8,1.2c0.5,0.7,1.1,1.1,1.9,1.5c0.9,0.4,1.8,0.7,2.7,0.9c0.4,0.1,0.8,0.2,1.2,0.3
	c0.1,0,0.2,0.2,0.3,0.3c-0.1,0.1-0.2,0.2-0.3,0.2c-1.2-0.1-2.5-0.1-3.7-0.4c-1.5-0.4-2.7-1.2-3.5-2.6c-0.8-1.4-1.7-2.7-2.5-4.1
	c-0.1-0.2-0.3-0.5-0.5-0.7c-2.8,3.2-5.8,6.1-8.8,8.9c0,0.2,0,0.4-0.1,0.6c-0.2,0.9,0.3,1.5,0.9,2c0.5,0.3,1,0.6,1.6,0.8
	c2.3,0.9,4.6,1.7,6.9,2.4c4.5,1.3,8.9,2.6,13.4,3.8c4.7,1.3,9.3,2.5,14,3.7c0.3,0.1,0.6,0.2,0.9,0.3c0.3,0.2,0.6,0.2,0.9,0.1
	C44.3,73.1,44.3,72,44.3,70.8z M74.7,12.4c0.1,0,0.1,0.2,0,0.3c-0.4,0.5-0.9,0.8-1.5,1.1c-0.1,0-0.2-0.1-0.3-0.1
	c0.1-0.2,0.2-0.3,0.3-0.4c0.4-0.3,0.8-0.6,1.2-0.8C74.5,12.4,74.7,12.4,74.7,12.4z M73.6,11.6c-0.4,0.6-0.8,0.9-1.2,1.2
	c-0.2,0.1-0.3,0-0.4-0.2C72.3,12.1,72.7,11.8,73.6,11.6z M20.8,30c-1.4-0.2-2.7-0.4-4.1-0.6c-1.2-0.2-2.3-0.3-3.5-0.4
	c-1.2-0.2-2.4-0.4-3.7-0.6c-0.3-0.1-0.5-0.1-0.8-0.2c-0.1,0-0.1-0.2-0.1-0.2c0-0.1,0.1-0.2,0.2-0.2c0.2,0,0.3-0.1,0.5,0
	c1.8,0.2,3.6,0.5,5.5,0.7c0.8,0.1,1.7,0.2,2.5,0.2c1.8,0.1,3.6,0.5,5.3,0.8c2.5,0.4,5,0.9,7.5,1.4c2.6,0.5,5.2,1.2,7.7,1.8
	c1,0.3,2,0.5,3.1,0.8c0.2,0.1,0.4,0.2,0.6,0.3c-0.1,0.3-0.3,0.3-0.4,0.3c-0.9-0.2-1.8-0.3-2.7-0.5c-2-0.3-3.9-0.9-5.9-1.2
	c-2.1-0.4-4.2-0.8-6.3-1.2C24.5,30.6,22.7,30.3,20.8,30z M43.1,42.7c-2.2,2.7-4.5,5.3-7,7.8c-0.8,0.7-1.5,1.5-2.2,2.2
	c-0.1,0.4,0.1,0.5,0.2,0.7c1.8,2.8,3.6,5.6,5.2,8.5c1.2,2.2,2.3,4.5,3.2,6.8c0.1,0.2,0.1,0.4,0.2,0.6c-0.1,0.2-0.3,0.2-0.5,0.1
	c-0.2-0.2-0.5-0.4-0.6-0.7c-0.5-0.7-0.9-1.4-1.3-2.2c-1.7-3.4-3.6-6.6-5.5-9.9c-0.6-1-1.1-1.9-1.7-3c-0.2,0.2-0.5,0.4-0.7,0.6
	c-1.6,1.5-3.1,3-4.7,4.4c-0.3,0.3-0.6,0.5-0.9,0.7c-0.2,0.1-0.5,0.1-0.7-0.3c1.7-1.7,3.4-3.5,5.1-5.2c2.4-2.5,4.8-5,7.1-7.5
	c1.4-1.5,2.9-2.9,4.3-4.4c0.3-0.3,0.6-0.6,1.1-0.7c0.2,0.2,0.1,0.4,0.1,0.5C43.6,42.1,43.4,42.4,43.1,42.7z"/>
<path class="st2" d="M45.1,36C45.1,36.1,45.1,36.1,45.1,36c-0.1-0.5-0.3-1.1,0-1.5c0.4-0.5,1-0.8,1.6-1.1c0.1,0.2,0.3,0.2,0.4,0.1
	c0.4-0.1,0.9-0.2,1.3-0.3c1-0.4,2.1-0.9,3.1-1.4c5.6-2.8,11.1-5.6,16.7-8.3c3.6-1.8,7.2-3.5,10.9-5.2c0.2-0.1,0.5-0.3,0.8-0.2
	c-0.3,0.3-0.6,0.5-0.8,0.8c-0.9,0.8-1.8,1.7-2.7,2.5c-4.3,4-8.5,8-12.8,12.1c-4.9,4.7-9.8,9.4-14.4,14.4c-1,1.1-2,2.1-3.1,3.1
	c-0.2,0.2-0.4,0.4-0.7,0.4c0-1.7,0.1-3.4,0.1-5.1c0-1.7-0.1-3.4-0.1-5.1C45.4,39.5,45.3,37.8,45.1,36z M98,44.4
	c-0.1-0.2-0.1-0.5,0-0.7c0.5-3.3,0.7-6.6,0.8-9.9c0.1-2.3,0.2-4.6,0.3-6.9c0-0.1,0-0.1,0-0.2c-0.2-0.1-0.3,0.1-0.4,0.2
	c-4.5,5.2-9.2,10.2-13.8,15.2c-3.8,4.1-7.7,8.1-11.4,12.2c-2.9,3.2-5.8,6.3-8.6,9.6c-0.2,0.2-0.4,0.5-0.6,0.7c0.2,0.2,0.3,0,0.4,0
	c9.5-4.8,18.8-9.8,28-15.1c1.4-0.8,2.7-1.7,4.1-2.6c0.3-0.2,0.6-0.4,0.9-0.5c0.1-0.1,0.4,0,0.5,0.1c0.4-0.5,0.6-1.1,0.7-1.8
	C98.5,44.9,98.1,44.8,98,44.4z"/>
<path class="st3" d="M56.4,56.3c0.5,0,0.8,0,1.2,0c1,0,1.7,0.5,2.1,1.3c0.2,0.3,0.3,0.7,0.3,1.1c0.2,2.5-0.5,4.6-2.4,6.3
	c-0.9,0.8-2.1,1.3-3.3,1.4c-0.2,0-0.5,0.1-0.7,0.1c-0.4,0.2-0.8,0-1-0.3c-0.2-0.3-0.4-0.7-0.6-1c-0.6-1.7-1.2-3.4-1.8-5.2
	c-0.3-0.8-0.5-1.6-0.7-2.4c-0.1-0.6-0.2-1.2-0.3-1.9c-0.1-0.4,0.1-0.7,0.2-1c0.7-1.1,1.7-1.9,2.9-2.4c1.2-0.5,2.4-0.1,3.2,1
	c0.5,0.6,0.8,1.3,0.8,2.2C56.4,55.8,56.4,56.1,56.4,56.3z M52.2,61.3c0.4,1.2,0.8,2.3,1.2,3.4c0.1,0.2,0.2,0.3,0.3,0.5
	c0.6-0.2,1.1-0.3,1.6-0.5c1.1-0.4,2-1.1,2.5-2.1c0.5-0.9,0.8-1.8,0.8-2.8c0-0.3,0-0.6,0-0.8c-0.2-1.2-0.5-1.4-1.7-1.4
	c-0.1,0-0.1,0-0.2,0c-0.4,0-0.7,0.2-0.9,0.6C55.1,59.7,53.9,60.8,52.2,61.3z M51.9,60c0.8-0.5,1.5-1.1,2.2-1.8
	c0.4-0.5,0.7-1,0.8-1.6c0.2-0.7,0.1-1.5-0.3-2.1c-0.4-0.7-0.9-0.9-1.7-0.7c-1,0.2-2.1,1.1-2.7,2.1c0.5,1.3,0.9,2.6,1.4,3.9
	C51.7,59.9,51.8,59.9,51.9,60z M92.9,22.2c0.7,0.3,1.4,0.7,2,1c0.2,0.1,0.5,0.2,0.7,0.4c0.4,0.3,0.5,0.7,0.3,1.1
	c-0.2,0.3-0.6,0.5-1,0.3c-0.2-0.1-0.5-0.2-0.7-0.3c-0.6-0.4-1.3-0.7-1.9-1.1c-0.2-0.1-0.4-0.2-0.6-0.3c-0.7,0.4-1.4,0.8-2.1,1.3
	c0.2,1,0.4,1.9,0.7,2.9c0,0.2,0.1,0.3,0.1,0.5c0,0.2,0,0.3-0.1,0.5c-0.1,0.2-0.2,0.4-0.4,0.4c-0.3,0-0.5,0-0.6-0.3
	c-0.2-0.3-0.3-0.6-0.4-1c-0.2-0.9-0.5-1.8-0.7-2.8c-0.3-1.2-0.6-2.4-0.9-3.6c-0.3-0.9-0.4-1.9-0.5-2.8c-0.1-0.4,0-0.8,0.3-1.1
	c0.4-0.5,0.9-1,1.3-1.5c0.8-0.8,1.9-0.9,3-0.7c0.9,0.2,1.6,0.7,2.2,1.4c0.8,0.9,1,2,0.6,3.2c-0.2,0.6-0.5,1.2-0.8,1.7
	C93.2,21.7,93.1,21.9,92.9,22.2z M89.3,23.1c1-0.8,1.9-1.5,2.7-2.4c0.3-0.4,0.6-0.9,0.8-1.4c0.3-0.7,0.1-1.3-0.3-1.9
	c-0.3-0.4-0.7-0.7-1.2-0.9c-0.6-0.3-1.2-0.2-1.8,0.1c-0.6,0.4-1.2,0.9-1.8,1.5C88.1,19.8,88.7,21.4,89.3,23.1z M65.5,47.6
	c-0.3-1.2-0.8-2.2-1.5-3.3c-0.3-0.5-0.7-0.9-1.1-1.2c-0.2-0.1-0.5,0-0.5,0.2c0,0.1,0,0.3,0,0.4c0.2,0.7,0.5,1.3,0.7,2
	c0.4,1.2,0.9,2.3,1.2,3.5c0.4,1.2,0.6,2.5,0.6,3.9c0,0.7-0.2,1.4-0.5,2c-0.4,0.8-0.9,1-1.7,0.5c-0.6-0.4-1-0.9-1.3-1.5
	c-0.4-0.8-0.9-1.6-1.2-2.5c-0.5-1.2-0.9-2.5-1.3-3.8c-0.1-0.3-0.2-0.7-0.4-1c0-0.1-0.2-0.2-0.3-0.2c-0.1,0-0.3,0.1-0.3,0.2
	c-0.1,0.3-0.1,0.6-0.1,0.9c0.3,2.6,1.1,5,2.3,7.2c0.2,0.4,0.5,0.8,0.8,1.1c0.5,0.6,1.1,1,1.8,1.2c0.8,0.2,1.6,0.1,2.2-0.6
	c0.4-0.4,0.7-0.8,0.8-1.3c0.4-0.9,0.5-1.8,0.5-2.7C66.4,51.2,66,49.3,65.5,47.6z M81,24.9c0.9-0.7,1.8-1.4,2.7-2.1
	c0.2-0.2,0.4-0.5,0.6-0.7c0.2-0.2,0-0.6-0.3-0.7c-0.2-0.1-0.5-0.1-0.7,0c-0.2,0.1-0.5,0.3-0.7,0.5c-0.8,0.8-1.7,1.6-2.5,2.5
	c-0.3,0.3-0.4,0.6-0.4,1c0,0.3,0,0.6,0.1,0.8c0.5,2.7,1.2,5.4,1.9,8c0.1,0.4,0.3,0.8,0.5,1.2c0.3,0.6,0.8,0.8,1.4,0.7
	c0.5,0,0.9-0.3,1.4-0.5c1.2-0.8,2-1.9,2.8-3.1c0.1-0.1,0.1-0.2,0.1-0.3c0-0.2,0-0.4-0.1-0.5c-0.1-0.1-0.3-0.1-0.5,0
	c-0.2,0.2-0.4,0.4-0.6,0.5c-0.8,0.7-1.6,1.3-2.5,2c-0.2,0.2-0.4,0.4-0.8,0.3c-0.4-0.8-1.1-2.9-1.1-3.8c0.1-0.1,0.1-0.1,0.2-0.2
	c1-0.7,1.9-1.6,2.8-2.5c0.1-0.1,0.3-0.3,0.4-0.5c0.1-0.2,0-0.5-0.2-0.7c-0.2-0.1-0.4-0.1-0.6,0c-0.2,0.1-0.4,0.3-0.6,0.5
	c-0.6,0.6-1.3,1.2-1.9,1.8c-0.1,0.1-0.3,0.2-0.5,0.4c-0.4-1.5-0.8-2.8-1.2-4.3C80.8,25.1,80.9,25,81,24.9z M74.3,32.3
	c0.7,2,1.3,4.1,2,6.1c0.2,0.6,0.4,1.1,0.7,1.7c0.1,0.2,0.2,0.4,0.4,0.6c0.1,0.2,0.4,0.2,0.6,0.1c0.1-0.1,0.3-0.3,0.3-0.4
	c0-0.5,0-0.9-0.1-1.4c-0.2-0.7-0.4-1.3-0.7-2c-0.7-1.9-1.4-3.9-2.4-5.8c0,0,0-0.1,0-0.3c0.7-0.7,1.5-1.3,2.2-2
	c0.3-0.3,0.6-0.6,0.9-0.9c0.2-0.2,0.3-0.5,0.1-0.8c-0.1-0.2-0.4-0.3-0.8-0.2c-0.3,0.1-0.5,0.2-0.8,0.4c-0.3,0.2-0.6,0.4-0.8,0.7
	c-1.1,1.1-2.2,2.3-3.3,3.4c-0.4,0.4-0.7,0.8-1,1.2c-0.2,0.2-0.2,0.5,0,0.6c0.2,0.1,0.4,0.1,0.6,0c0.3-0.2,0.6-0.4,0.8-0.6
	c0.3-0.2,0.6-0.5,1-0.8C74.2,32.2,74.3,32.2,74.3,32.3z M67.6,40.6c0.1,0.6,0.2,1.1,0.3,1.7c0.4,1.3,0.8,2.6,1.2,3.8
	c0.1,0.4,0.3,0.8,0.6,1.1c0.1,0.2,0.4,0.3,0.7,0.2c0.2-0.1,0.4-0.3,0.4-0.5c0.1-0.5-0.1-1-0.3-1.4c-0.4-1.2-0.9-2.4-1.3-3.6
	c-0.4-1.1-0.8-2.2-1.1-3.3c0.2-0.2,0.4-0.4,0.6-0.5c0.5-0.5,1.1-0.9,1.6-1.4c0.2-0.2,0.3-0.4,0.5-0.6c0.2-0.3-0.1-0.8-0.5-0.7
	c-0.2,0-0.3,0.1-0.5,0.2c-0.2,0.1-0.5,0.3-0.7,0.5c-1.6,1.4-3.1,2.8-4.6,4.2c-0.1,0.1-0.2,0.2-0.3,0.3c-0.1,0.2,0,0.5,0.2,0.5
	c0.2,0,0.4,0.1,0.5,0c0.4-0.2,0.7-0.4,1.1-0.7c0.4-0.3,0.9-0.7,1.4-1.1C67.5,39.8,67.5,40.2,67.6,40.6z"/>
<path class="st4" d="M99,7.8c0,0.2-0.2,0.4-0.4,0.5c-0.1,0-0.2,0.1-0.3,0.1l-2.8,1.5c0.1,0,0.2,0,0.3,0.1c-0.2,0.4-0.5,0.5-0.8,0.7
	c-1.2,0.7-2.5,1.3-3.8,2c-2.6,1.3-5.1,2.5-7.7,3.7c-0.5,0.2-1,0.5-1.4,1c-2.8,3-5.9,5.8-8.9,8.6c-7.8,7.3-15.6,14.6-23.1,22.3
	c-1,1-2,1.9-3,2.8c-0.5,0.5-1.1,0.9-1.7,1.3c-0.1,1.3-0.2,2.7-0.2,4.1c-0.1,3-0.2,6.1-0.3,9.1c0,0.8-0.1,1.5-0.2,2.3
	c-0.1,0.8-0.1,1.5-0.2,2.3c0,0.2,0,0.5-0.2,0.7c0,1.2,0,2.4,0.1,3.6c0.1,0,0.3-0.1,0.4-0.1c0.4-0.2,0.9-0.4,1.4-0.6
	c5.1-2.3,10.2-4.8,15.2-7.3c0.7-0.3,1.2-0.8,1.7-1.4c1.2-1.5,2.4-3,3.6-4.4c3.3-3.7,6.6-7.4,9.9-11c4.7-5.1,9.6-10.2,14.3-15.3
	c2.6-2.8,5.1-5.7,7.6-8.5c0.5-0.5,0.7-1,0.7-1.7c0-3.7,0.1-7.3,0.2-11c0-1-0.1-2-0.1-3.1c0-0.3,0-0.6,0-1c0-0.4,0.2-0.7,0.5-0.7
	c0,0,0.1,0,0.1,0C99.6,8,99.3,7.9,99,7.8z M57.7,65.1c-0.9,0.8-2.1,1.3-3.3,1.4c-0.2,0-0.5,0.1-0.7,0.1c-0.4,0.2-0.8,0-1-0.3
	c-0.2-0.3-0.4-0.7-0.6-1c-0.6-1.7-1.2-3.4-1.8-5.2c-0.3-0.8-0.5-1.6-0.7-2.4c-0.1-0.6-0.2-1.2-0.3-1.9c-0.1-0.4,0.1-0.7,0.2-1
	c0.7-1.1,1.7-1.9,2.9-2.4c1.2-0.5,2.4-0.1,3.2,1c0.5,0.6,0.8,1.3,0.8,2.2c0,0.2,0,0.5,0,0.8c0.5,0,0.8,0,1.2,0c1,0,1.7,0.5,2.1,1.3
	c0.2,0.3,0.3,0.7,0.3,1.1C60.3,61.2,59.5,63.4,57.7,65.1z M65.9,55.4c-0.2,0.5-0.5,0.9-0.8,1.3c-0.6,0.6-1.4,0.8-2.2,0.6
	c-0.7-0.2-1.3-0.6-1.8-1.2c-0.3-0.3-0.6-0.7-0.8-1.1c-1.3-2.2-2.1-4.6-2.3-7.2c0-0.3,0-0.6,0.1-0.9c0-0.1,0.2-0.2,0.3-0.2
	c0.1,0,0.3,0.1,0.3,0.2c0.1,0.3,0.2,0.7,0.4,1c0.4,1.3,0.8,2.5,1.3,3.8c0.3,0.8,0.8,1.7,1.2,2.5c0.3,0.6,0.7,1.1,1.3,1.5
	c0.8,0.5,1.3,0.4,1.7-0.5c0.3-0.6,0.4-1.3,0.5-2c0.1-1.3-0.2-2.6-0.6-3.9c-0.3-1.2-0.8-2.3-1.2-3.5c-0.2-0.7-0.5-1.3-0.7-2
	c0-0.1,0-0.3,0-0.4c0-0.2,0.3-0.3,0.5-0.2c0.5,0.3,0.8,0.8,1.1,1.2c0.6,1,1.1,2.1,1.5,3.3c0.5,1.7,0.9,3.6,0.9,5
	C66.4,53.5,66.3,54.5,65.9,55.4z M70.8,46.9c0,0.3-0.2,0.5-0.4,0.5c-0.3,0.1-0.5,0-0.7-0.2c-0.2-0.4-0.4-0.7-0.6-1.1
	c-0.4-1.3-0.8-2.5-1.2-3.8c-0.2-0.5-0.2-1.1-0.3-1.7c-0.1-0.4-0.1-0.8-0.2-1.4c-0.6,0.4-1,0.8-1.4,1.1c-0.3,0.2-0.7,0.5-1.1,0.7
	c-0.1,0.1-0.3,0.1-0.5,0c-0.2,0-0.3-0.3-0.2-0.5c0.1-0.1,0.2-0.2,0.3-0.3c1.5-1.4,3.1-2.8,4.6-4.2c0.2-0.2,0.4-0.4,0.7-0.5
	c0.1-0.1,0.3-0.1,0.5-0.2c0.4,0,0.7,0.4,0.5,0.7c-0.1,0.2-0.3,0.4-0.5,0.6c-0.5,0.5-1.1,0.9-1.6,1.4c-0.2,0.2-0.4,0.3-0.6,0.5
	c0.3,1.1,0.8,2.2,1.2,3.3c0.4,1.2,0.9,2.4,1.3,3.6C70.7,45.9,70.9,46.4,70.8,46.9z M78.3,28.2c-0.3,0.3-0.6,0.6-0.9,0.9
	c-0.8,0.7-1.5,1.4-2.2,2c0,0.1,0,0.2,0,0.3c1,1.8,1.7,3.8,2.4,5.8c0.2,0.7,0.5,1.3,0.7,2c0.1,0.4,0.1,0.9,0.1,1.4
	c0,0.1-0.2,0.3-0.3,0.4c-0.2,0.1-0.4,0.1-0.6-0.1c-0.2-0.2-0.3-0.4-0.4-0.6c-0.2-0.5-0.5-1.1-0.7-1.7c-0.7-2-1.3-4.1-2-6.1
	c0-0.1-0.1-0.2-0.2-0.4c-0.4,0.3-0.7,0.5-1,0.8c-0.3,0.2-0.6,0.4-0.8,0.6c-0.2,0.1-0.4,0.2-0.6,0c-0.1-0.1-0.1-0.3,0-0.6
	c0.3-0.4,0.7-0.8,1-1.2c1.1-1.2,2.2-2.3,3.3-3.4c0.2-0.2,0.5-0.5,0.8-0.7c0.2-0.2,0.5-0.3,0.8-0.4c0.3-0.1,0.6,0,0.8,0.2
	C78.5,27.7,78.5,27.9,78.3,28.2z M87.7,32.4c-0.8,1.2-1.6,2.3-2.8,3.1c-0.4,0.3-0.9,0.5-1.4,0.5c-0.6,0.1-1.1-0.1-1.4-0.7
	c-0.2-0.4-0.4-0.8-0.5-1.2c-0.7-2.7-1.4-5.3-1.9-8c0-0.3,0-0.6-0.1-0.8c0-0.4,0.1-0.8,0.4-1c0.8-0.8,1.6-1.7,2.5-2.5
	c0.2-0.2,0.4-0.3,0.7-0.5c0.2-0.1,0.5-0.1,0.7,0c0.3,0.1,0.4,0.4,0.3,0.7c-0.2,0.3-0.4,0.5-0.6,0.7c-0.9,0.7-1.8,1.4-2.7,2.1
	c-0.1,0.1-0.2,0.2-0.4,0.3c0.4,1.4,0.8,2.8,1.2,4.3c0.2-0.2,0.4-0.3,0.5-0.4c0.6-0.6,1.3-1.2,1.9-1.8c0.2-0.2,0.4-0.3,0.6-0.5
	c0.2-0.1,0.4-0.1,0.6,0c0.2,0.1,0.3,0.4,0.2,0.7c-0.1,0.2-0.2,0.4-0.4,0.5c-0.9,0.9-1.7,1.8-2.8,2.5c-0.1,0.1-0.2,0.1-0.2,0.2
	c0.1,0.9,0.7,3,1.1,3.8c0.3,0.1,0.5-0.1,0.8-0.3c0.8-0.7,1.6-1.3,2.5-2c0.2-0.2,0.4-0.4,0.6-0.5c0.2-0.1,0.4-0.2,0.5,0
	c0.1,0.1,0.1,0.3,0.1,0.5C87.8,32.2,87.8,32.4,87.7,32.4z M96,24.6c-0.2,0.3-0.6,0.5-1,0.3c-0.2-0.1-0.5-0.2-0.7-0.3
	c-0.6-0.4-1.3-0.7-1.9-1.1c-0.2-0.1-0.4-0.2-0.6-0.3c-0.7,0.4-1.4,0.8-2.1,1.3c0.2,1,0.4,1.9,0.7,2.9c0,0.2,0.1,0.3,0.1,0.5
	c0,0.2,0,0.3-0.1,0.5c-0.1,0.2-0.2,0.4-0.4,0.4c-0.3,0-0.5,0-0.6-0.3c-0.2-0.3-0.3-0.6-0.4-1c-0.2-0.9-0.5-1.8-0.7-2.8
	c-0.3-1.2-0.6-2.4-0.9-3.6c-0.3-0.9-0.4-1.9-0.5-2.8c-0.1-0.4,0-0.8,0.3-1.1c0.4-0.5,0.9-1,1.3-1.5c0.8-0.8,1.9-0.9,3-0.7
	c0.9,0.2,1.6,0.7,2.2,1.4c0.8,0.9,1,2,0.6,3.2c-0.2,0.6-0.5,1.2-0.8,1.7c-0.2,0.2-0.3,0.5-0.5,0.7c0.7,0.3,1.4,0.7,2,1
	c0.2,0.1,0.5,0.2,0.7,0.4C96.1,23.8,96.2,24.3,96,24.6z M52.2,61.3c1.8-0.5,2.9-1.7,3.7-3.1c0.2-0.4,0.5-0.6,0.9-0.6
	c0.1,0,0.1,0,0.2,0c1.2-0.1,1.5,0.2,1.7,1.4c0,0.3,0,0.6,0,0.8c-0.1,1-0.4,1.9-0.8,2.8c-0.6,1-1.4,1.8-2.5,2.1
	c-0.5,0.2-1,0.3-1.6,0.5c-0.1-0.2-0.2-0.3-0.3-0.5C53,63.6,52.6,62.5,52.2,61.3z M51.9,60c-0.1-0.1-0.2-0.1-0.2-0.2
	c-0.5-1.3-1-2.6-1.4-3.9c0.6-1,1.6-1.9,2.7-2.1c0.8-0.2,1.2,0,1.7,0.7c0.4,0.7,0.4,1.4,0.3,2.1c-0.1,0.6-0.4,1.1-0.8,1.6
	C53.4,58.9,52.7,59.5,51.9,60z M89.3,23.1c-0.6-1.7-1.2-3.3-1.8-5c0.6-0.6,1.2-1.1,1.8-1.5c0.6-0.4,1.2-0.4,1.8-0.1
	c0.5,0.2,0.9,0.5,1.2,0.9c0.4,0.6,0.6,1.2,0.3,1.9c-0.2,0.5-0.4,1-0.8,1.4C91.2,21.6,90.3,22.4,89.3,23.1z"/>
</svg>
