<svg xmlns="http://www.w3.org/2000/svg" xmlns:xlink="http://www.w3.org/1999/xlink" width="150" zoomAndPan="magnify" viewBox="0 0 112.5 112.499997" height="150" preserveAspectRatio="xMidYMid meet" version="1.0"><defs><clipPath id="90e8db7779"><path d="M 19.625 28.917969 L 93 28.917969 L 93 83.667969 L 19.625 83.667969 Z M 19.625 28.917969 " clip-rule="nonzero"/></clipPath></defs><g clip-path="url(#90e8db7779)"><path fill="#a6a6a6" d="M 92.945312 36.226562 C 92.945312 37.683594 92.921875 39.136719 92.898438 40.589844 C 92.886719 41.648438 92.878906 42.707031 92.84375 43.765625 C 92.765625 46.25 92.671875 48.734375 92.578125 51.214844 C 92.523438 52.585938 92.46875 53.964844 92.378906 55.335938 C 92.292969 56.523438 92.171875 57.707031 92.042969 58.882812 C 92.011719 59.195312 91.925781 59.507812 91.824219 59.808594 C 91.742188 60.058594 91.621094 60.292969 91.386719 60.453125 C 91.371094 60.460938 91.355469 60.46875 91.34375 60.476562 C 91.25 60.945312 91.09375 61.40625 90.824219 61.800781 C 90.824219 61.800781 90.828125 61.800781 90.828125 61.804688 C 90.902344 61.882812 90.933594 62.050781 90.90625 62.160156 C 90.84375 62.457031 90.621094 62.660156 90.410156 62.859375 C 89.796875 63.449219 89.128906 63.972656 88.402344 64.410156 C 87.105469 65.175781 85.8125 65.957031 84.5 66.695312 C 76.140625 71.421875 67.625 75.859375 58.960938 80.011719 C 56.742188 81.074219 54.476562 82.03125 52.230469 83.03125 C 51.84375 83.199219 51.4375 83.324219 51.03125 83.445312 C 50.648438 83.566406 50.265625 83.660156 49.875 83.445312 C 49.789062 83.402344 49.671875 83.414062 49.566406 83.414062 C 48.710938 83.429688 47.878906 83.269531 47.0625 83.054688 C 41.484375 81.601562 35.914062 80.117188 30.398438 78.460938 C 28.144531 77.78125 25.882812 77.128906 23.6875 76.277344 C 23.21875 76.097656 22.757812 75.902344 22.304688 75.683594 C 21.535156 75.3125 20.980469 74.746094 20.691406 73.917969 C 20.519531 73.414062 20.386719 72.917969 20.339844 72.378906 C 19.882812 67.050781 19.804688 61.714844 19.925781 56.371094 C 19.957031 54.8125 20.085938 53.257812 20.160156 51.695312 C 20.222656 50.375 20.34375 49.058594 20.511719 47.75 C 20.679688 46.40625 20.777344 46.210938 22.015625 45.585938 C 24.542969 44.3125 27.074219 43.046875 29.648438 41.871094 C 36.679688 38.671875 43.855469 35.828125 51.101562 33.15625 C 53.929688 32.113281 56.769531 31.105469 59.609375 30.097656 C 60.277344 29.859375 60.96875 29.675781 61.652344 29.460938 C 62.929688 29.050781 64.242188 28.910156 65.574219 28.984375 C 67.1875 29.070312 68.796875 29.191406 70.410156 29.316406 C 71.808594 29.421875 73.207031 29.546875 74.601562 29.6875 C 75.707031 29.800781 76.808594 29.957031 77.910156 30.09375 C 79.042969 30.226562 80.171875 30.339844 81.300781 30.492188 C 82.664062 30.671875 84.027344 30.859375 85.386719 31.078125 C 86.953125 31.328125 88.515625 31.605469 90.078125 31.882812 C 90.386719 31.9375 90.6875 32.050781 90.980469 32.15625 C 91.101562 32.203125 91.210938 32.292969 91.300781 32.382812 C 91.394531 32.488281 91.425781 32.621094 91.40625 32.75 C 91.660156 32.839844 91.910156 32.949219 92.0625 33.144531 C 92.265625 33.136719 92.445312 33.238281 92.578125 33.433594 C 92.753906 33.707031 92.84375 34.011719 92.859375 34.335938 C 92.882812 34.960938 92.945312 35.59375 92.945312 36.226562 Z M 92.945312 36.226562 " fill-opacity="1" fill-rule="nonzero"/></g><path fill="#f9da8f" d="M 50.398438 79.988281 C 50.363281 80.035156 50.316406 80.082031 50.253906 80.121094 C 50.207031 80.035156 50.136719 79.960938 50.113281 79.875 C 50.089844 79.777344 50.097656 79.667969 50.097656 79.558594 C 50.101562 77.789062 50.074219 76.015625 50.121094 74.246094 C 50.160156 72.660156 50.277344 71.078125 50.359375 69.492188 C 50.410156 68.460938 50.480469 67.433594 50.527344 66.40625 C 50.648438 63.601562 50.796875 60.804688 50.707031 58 C 50.679688 57.078125 50.625 56.152344 50.59375 55.230469 C 50.582031 54.882812 50.585938 54.539062 50.738281 54.21875 C 50.769531 54.152344 50.839844 54.101562 50.941406 54.015625 C 50.925781 53.597656 50.808594 53.164062 51.027344 52.859375 C 51.328125 52.515625 51.792969 52.269531 52.246094 52.070312 C 52.234375 52.054688 52.226562 52.035156 52.21875 52.007812 C 52.261719 51.96875 52.308594 51.890625 52.371094 51.878906 C 53.226562 51.664062 53.996094 51.25 54.769531 50.84375 C 58.003906 49.148438 61.21875 47.425781 64.480469 45.777344 C 71.441406 42.261719 78.488281 38.914062 85.546875 35.582031 C 86.5 35.132812 87.488281 34.75 88.464844 34.339844 C 88.566406 34.292969 88.667969 34.261719 88.773438 34.273438 L 90.851562 33.140625 C 90.78125 33.144531 90.707031 33.148438 90.636719 33.140625 C 90.109375 33.085938 89.582031 33.03125 89.058594 32.945312 C 87.3125 32.664062 85.566406 32.347656 83.820312 32.074219 C 82.828125 31.921875 81.824219 31.820312 80.828125 31.695312 C 79.777344 31.5625 78.730469 31.421875 77.675781 31.296875 C 76.542969 31.160156 75.417969 31.03125 74.285156 30.90625 C 73.496094 30.820312 72.703125 30.738281 71.914062 30.660156 C 71.203125 30.589844 70.492188 30.519531 69.777344 30.46875 C 68.273438 30.367188 66.765625 30.238281 65.261719 30.191406 C 64.09375 30.148438 62.945312 30.347656 61.820312 30.6875 C 59.109375 31.507812 56.457031 32.480469 53.800781 33.460938 C 47.796875 35.679688 41.804688 37.921875 35.914062 40.433594 C 32.65625 41.824219 29.421875 43.273438 26.1875 44.726562 C 24.910156 45.300781 23.605469 45.816406 22.300781 46.320312 C 22.007812 46.433594 21.71875 46.554688 21.445312 46.664062 C 21.417969 47.28125 21.398438 47.78125 21.378906 48.285156 C 21.375 48.414062 21.359375 48.546875 21.355469 48.675781 C 21.285156 50.554688 21.203125 52.425781 21.148438 54.304688 C 21.097656 56.050781 21.039062 57.796875 21.0625 59.539062 C 21.097656 62.261719 21.195312 64.984375 21.269531 67.707031 C 21.292969 68.527344 21.3125 69.34375 21.347656 70.164062 C 21.367188 70.554688 21.410156 70.949219 21.449219 71.375 C 21.730469 71.363281 21.859375 71.183594 21.992188 71.046875 C 23.105469 69.878906 24.21875 68.707031 25.324219 67.53125 C 25.8125 67.007812 26.269531 66.457031 26.769531 65.945312 C 27.078125 65.625 27.425781 65.34375 27.796875 65.011719 C 27.710938 64.851562 27.625 64.691406 27.539062 64.535156 C 26.023438 61.808594 24.601562 59.03125 23.328125 56.179688 C 22.886719 55.191406 22.363281 54.242188 21.878906 53.273438 C 21.753906 53.015625 21.617188 52.753906 21.535156 52.476562 C 21.492188 52.339844 21.542969 52.171875 21.570312 52.019531 C 21.589844 51.925781 21.773438 51.890625 21.835938 51.960938 C 21.921875 52.058594 22.007812 52.160156 22.074219 52.269531 C 22.910156 53.679688 23.722656 55.097656 24.421875 56.585938 C 25.953125 59.835938 27.640625 63.011719 29.46875 66.113281 C 29.882812 66.820312 30.308594 67.523438 30.738281 68.21875 C 30.933594 68.53125 31.160156 68.828125 31.371094 69.132812 C 31.734375 69.644531 32.230469 69.992188 32.796875 70.242188 C 33.449219 70.53125 34.132812 70.742188 34.828125 70.90625 C 35.136719 70.980469 35.441406 71.0625 35.746094 71.15625 C 35.828125 71.179688 35.894531 71.273438 35.996094 71.359375 C 35.886719 71.429688 35.824219 71.5 35.761719 71.496094 C 34.835938 71.453125 33.90625 71.433594 33.011719 71.175781 C 31.902344 70.863281 30.988281 70.269531 30.382812 69.261719 C 29.765625 68.246094 29.144531 67.230469 28.515625 66.21875 C 28.410156 66.046875 28.289062 65.878906 28.144531 65.660156 C 26.046875 68.050781 23.804688 70.21875 21.515625 72.335938 C 21.5 72.503906 21.503906 72.664062 21.472656 72.816406 C 21.332031 73.488281 21.675781 73.945312 22.183594 74.28125 C 22.554688 74.527344 22.964844 74.730469 23.378906 74.898438 C 25.070312 75.582031 26.792969 76.179688 28.546875 76.683594 C 31.898438 77.644531 35.246094 78.640625 38.609375 79.5625 C 42.105469 80.527344 45.609375 81.417969 49.109375 82.34375 C 49.339844 82.40625 49.574219 82.464844 49.785156 82.566406 C 50.019531 82.683594 50.246094 82.707031 50.472656 82.660156 C 50.414062 81.773438 50.382812 80.886719 50.398438 79.988281 Z M 73.226562 36.242188 C 73.265625 36.273438 73.269531 36.398438 73.234375 36.433594 C 72.925781 36.792969 72.550781 37.066406 72.121094 37.25 C 72.074219 37.273438 71.992188 37.199219 71.882812 37.148438 C 71.972656 37.023438 72.03125 36.902344 72.125 36.832031 C 72.414062 36.613281 72.71875 36.414062 73.023438 36.21875 C 73.074219 36.191406 73.1875 36.203125 73.226562 36.242188 Z M 72.355469 35.640625 C 72.050781 36.101562 71.769531 36.332031 71.441406 36.503906 C 71.296875 36.578125 71.195312 36.527344 71.125 36.34375 C 71.414062 36.03125 71.730469 35.746094 72.355469 35.640625 Z M 32.808594 49.40625 C 31.792969 49.242188 30.769531 49.125 29.746094 48.992188 C 28.882812 48.878906 28.015625 48.785156 27.152344 48.65625 C 26.238281 48.523438 25.324219 48.367188 24.414062 48.210938 C 24.210938 48.171875 24.003906 48.105469 23.808594 48.03125 C 23.757812 48.011719 23.699219 47.902344 23.710938 47.84375 C 23.722656 47.78125 23.796875 47.699219 23.863281 47.679688 C 23.988281 47.648438 24.121094 47.628906 24.25 47.648438 C 25.613281 47.820312 26.972656 48.003906 28.339844 48.171875 C 28.96875 48.25 29.601562 48.316406 30.238281 48.351562 C 31.585938 48.425781 32.910156 48.691406 34.242188 48.914062 C 36.117188 49.230469 37.976562 49.617188 39.851562 49.945312 C 41.808594 50.289062 43.714844 50.816406 45.636719 51.285156 C 46.40625 51.476562 47.171875 51.679688 47.9375 51.890625 C 48.101562 51.933594 48.253906 52.023438 48.40625 52.089844 C 48.347656 52.3125 48.207031 52.3125 48.078125 52.292969 C 47.398438 52.175781 46.730469 52.042969 46.046875 51.941406 C 44.550781 51.734375 43.105469 51.300781 41.625 51.015625 C 40.046875 50.707031 38.460938 50.40625 36.878906 50.113281 C 35.515625 49.863281 34.164062 49.617188 32.808594 49.40625 Z M 49.535156 58.929688 C 47.851562 60.933594 46.125 62.902344 44.269531 64.75 C 43.707031 65.308594 43.152344 65.871094 42.648438 66.382812 C 42.585938 66.648438 42.726562 66.753906 42.808594 66.882812 C 44.128906 68.984375 45.476562 71.070312 46.683594 73.242188 C 47.59375 74.886719 48.382812 76.585938 49.117188 78.3125 C 49.175781 78.457031 49.21875 78.605469 49.261719 78.738281 C 49.152344 78.894531 49.019531 78.902344 48.914062 78.796875 C 48.746094 78.632812 48.570312 78.460938 48.449219 78.261719 C 48.105469 77.726562 47.746094 77.203125 47.46875 76.632812 C 46.230469 74.085938 44.777344 71.660156 43.347656 69.226562 C 42.917969 68.5 42.5 67.769531 42.054688 67.007812 C 41.871094 67.171875 41.691406 67.328125 41.523438 67.488281 C 40.347656 68.59375 39.175781 69.703125 37.992188 70.800781 C 37.785156 70.996094 37.542969 71.171875 37.296875 71.316406 C 37.132812 71.410156 36.9375 71.402344 36.785156 71.109375 C 38.0625 69.804688 39.316406 68.519531 40.582031 67.242188 C 42.402344 65.398438 44.195312 63.527344 45.933594 61.605469 C 46.964844 60.472656 48.078125 59.414062 49.164062 58.332031 C 49.398438 58.101562 49.644531 57.847656 50 57.828125 C 50.148438 57.96875 50.109375 58.105469 50.042969 58.214844 C 49.878906 58.464844 49.71875 58.707031 49.535156 58.929688 Z M 49.535156 58.929688 " fill-opacity="1" fill-rule="nonzero"/><path fill="#f9da8f" d="M 51.015625 53.957031 C 50.992188 53.980469 50.96875 54 50.941406 54.015625 C 50.925781 53.597656 50.808594 53.164062 51.027344 52.859375 C 51.328125 52.515625 51.792969 52.269531 52.246094 52.070312 C 52.320312 52.195312 52.449219 52.199219 52.550781 52.175781 C 52.882812 52.109375 53.234375 52.058594 53.542969 51.925781 C 54.320312 51.59375 55.089844 51.238281 55.847656 50.863281 C 60.015625 48.789062 64.171875 46.691406 68.34375 44.628906 C 71.046875 43.292969 73.769531 42.003906 76.488281 40.695312 C 76.664062 40.613281 76.828125 40.472656 77.121094 40.523438 C 76.878906 40.75 76.6875 40.933594 76.496094 41.117188 C 75.816406 41.75 75.136719 42.378906 74.460938 43.007812 C 71.265625 46.019531 68.058594 49.027344 64.871094 52.050781 C 61.179688 55.546875 57.558594 59.109375 54.082031 62.820312 C 53.339844 63.613281 52.558594 64.363281 51.785156 65.128906 C 51.640625 65.265625 51.515625 65.460938 51.234375 65.421875 C 51.265625 64.15625 51.324219 62.890625 51.324219 61.625 C 51.324219 60.355469 51.277344 59.085938 51.234375 57.820312 C 51.199219 56.554688 51.15625 55.300781 51.015625 53.957031 Z M 90.695312 60.203125 C 90.65625 60.027344 90.652344 59.832031 90.683594 59.652344 C 91.09375 57.195312 91.207031 54.714844 91.308594 52.230469 C 91.371094 50.511719 91.457031 48.796875 91.523438 47.078125 C 91.53125 47.03125 91.507812 46.976562 91.5 46.921875 C 91.335938 46.851562 91.273438 46.984375 91.195312 47.074219 C 87.855469 50.976562 84.332031 54.714844 80.8125 58.449219 C 77.941406 61.492188 75.070312 64.535156 72.234375 67.605469 C 70.046875 69.972656 67.847656 72.34375 65.789062 74.828125 C 65.644531 75.003906 65.503906 75.191406 65.367188 75.367188 C 65.507812 75.515625 65.597656 75.398438 65.671875 75.359375 C 72.765625 71.734375 79.804688 68.019531 86.691406 64.015625 C 87.742188 63.402344 88.75 62.722656 89.785156 62.078125 C 90.007812 61.941406 90.238281 61.804688 90.480469 61.710938 C 90.574219 61.671875 90.75 61.71875 90.824219 61.792969 C 91.097656 61.398438 91.25 60.9375 91.34375 60.46875 C 91.085938 60.621094 90.753906 60.503906 90.695312 60.203125 Z M 90.695312 60.203125 " fill-opacity="1" fill-rule="nonzero"/><path fill="#36342f" d="M 59.484375 69.175781 C 59.855469 69.175781 60.117188 69.175781 60.382812 69.175781 C 61.121094 69.171875 61.644531 69.523438 61.953125 70.179688 C 62.074219 70.4375 62.164062 70.726562 62.191406 71.007812 C 62.371094 72.859375 61.796875 74.453125 60.421875 75.710938 C 59.726562 76.347656 58.863281 76.683594 57.914062 76.769531 C 57.730469 76.789062 57.542969 76.808594 57.378906 76.878906 C 57.046875 77.015625 56.796875 76.902344 56.617188 76.648438 C 56.453125 76.414062 56.300781 76.15625 56.203125 75.886719 C 55.753906 74.59375 55.308594 73.300781 54.878906 71.996094 C 54.683594 71.394531 54.523438 70.777344 54.382812 70.164062 C 54.277344 69.703125 54.238281 69.226562 54.164062 68.757812 C 54.117188 68.480469 54.207031 68.242188 54.351562 68.011719 C 54.882812 67.183594 55.597656 66.578125 56.527344 66.246094 C 57.460938 65.90625 58.324219 66.179688 58.902344 66.992188 C 59.25 67.472656 59.476562 68.003906 59.480469 68.605469 C 59.488281 68.785156 59.484375 68.96875 59.484375 69.175781 Z M 56.308594 72.910156 C 56.636719 73.796875 56.9375 74.613281 57.246094 75.425781 C 57.300781 75.5625 57.398438 75.683594 57.46875 75.800781 C 57.890625 75.679688 58.273438 75.574219 58.652344 75.457031 C 59.503906 75.191406 60.117188 74.632812 60.550781 73.867188 C 60.921875 73.214844 61.117188 72.503906 61.1875 71.761719 C 61.207031 71.550781 61.199219 71.335938 61.171875 71.128906 C 61.042969 70.261719 60.773438 70.046875 59.90625 70.101562 C 59.855469 70.105469 59.800781 70.109375 59.746094 70.109375 C 59.421875 70.109375 59.234375 70.273438 59.078125 70.566406 C 58.472656 71.660156 57.632812 72.511719 56.308594 72.910156 Z M 56.070312 71.921875 C 56.667969 71.546875 57.226562 71.121094 57.695312 70.578125 C 57.996094 70.234375 58.199219 69.839844 58.304688 69.394531 C 58.433594 68.839844 58.402344 68.300781 58.097656 67.792969 C 57.773438 67.253906 57.441406 67.105469 56.84375 67.253906 C 56.09375 67.4375 55.273438 68.09375 54.855469 68.863281 C 55.210938 69.832031 55.566406 70.816406 55.933594 71.796875 C 55.949219 71.84375 56.007812 71.871094 56.070312 71.921875 Z M 86.84375 43.535156 C 87.378906 43.789062 87.878906 44.027344 88.378906 44.269531 C 88.566406 44.359375 88.761719 44.457031 88.933594 44.570312 C 89.238281 44.777344 89.324219 45.125 89.160156 45.394531 C 89.019531 45.632812 88.707031 45.734375 88.386719 45.625 C 88.214844 45.570312 88.042969 45.480469 87.882812 45.390625 C 87.402344 45.117188 86.925781 44.832031 86.445312 44.558594 C 86.308594 44.480469 86.167969 44.410156 86.019531 44.332031 C 85.488281 44.65625 84.980469 44.96875 84.457031 45.285156 C 84.621094 46.007812 84.785156 46.722656 84.949219 47.441406 C 84.980469 47.570312 85.015625 47.699219 85.019531 47.832031 C 85.019531 47.957031 84.996094 48.09375 84.953125 48.21875 C 84.902344 48.375 84.789062 48.492188 84.621094 48.523438 C 84.417969 48.558594 84.234375 48.5 84.144531 48.320312 C 84.023438 48.089844 83.917969 47.84375 83.851562 47.589844 C 83.667969 46.898438 83.511719 46.203125 83.335938 45.515625 C 83.113281 44.621094 82.90625 43.714844 82.652344 42.828125 C 82.457031 42.140625 82.375 41.433594 82.269531 40.726562 C 82.226562 40.414062 82.289062 40.144531 82.476562 39.910156 C 82.796875 39.523438 83.117188 39.132812 83.476562 38.78125 C 84.101562 38.175781 84.882812 38.070312 85.695312 38.269531 C 86.347656 38.433594 86.90625 38.796875 87.335938 39.324219 C 87.914062 40.03125 88.0625 40.832031 87.820312 41.707031 C 87.695312 42.171875 87.480469 42.59375 87.203125 42.984375 C 87.085938 43.164062 86.972656 43.339844 86.84375 43.535156 Z M 84.152344 44.253906 C 84.933594 43.691406 85.59375 43.125 86.140625 42.445312 C 86.382812 42.144531 86.5625 41.78125 86.714844 41.425781 C 86.929688 40.921875 86.808594 40.4375 86.484375 40.015625 C 86.242188 39.699219 85.933594 39.460938 85.554688 39.304688 C 85.078125 39.109375 84.628906 39.125 84.195312 39.398438 C 83.710938 39.714844 83.265625 40.082031 82.84375 40.511719 C 83.269531 41.746094 83.695312 42.957031 84.152344 44.253906 Z M 66.28125 62.625 C 66.019531 61.761719 65.660156 60.941406 65.191406 60.167969 C 64.96875 59.804688 64.703125 59.480469 64.347656 59.238281 C 64.222656 59.152344 63.992188 59.261719 63.976562 59.414062 C 63.96875 59.515625 63.960938 59.628906 63.988281 59.722656 C 64.15625 60.222656 64.332031 60.71875 64.503906 61.21875 C 64.808594 62.085938 65.148438 62.949219 65.414062 63.832031 C 65.691406 64.769531 65.882812 65.730469 65.832031 66.722656 C 65.808594 67.253906 65.71875 67.777344 65.488281 68.257812 C 65.183594 68.890625 64.792969 68.988281 64.210938 68.597656 C 63.789062 68.308594 63.460938 67.925781 63.230469 67.476562 C 62.910156 66.867188 62.589844 66.257812 62.34375 65.621094 C 61.980469 64.6875 61.6875 63.726562 61.355469 62.777344 C 61.269531 62.527344 61.191406 62.277344 61.082031 62.039062 C 61.046875 61.964844 60.90625 61.898438 60.824219 61.90625 C 60.742188 61.914062 60.617188 62.011719 60.601562 62.085938 C 60.558594 62.316406 60.515625 62.554688 60.542969 62.785156 C 60.734375 64.703125 61.332031 66.5 62.304688 68.164062 C 62.476562 68.457031 62.695312 68.730469 62.921875 68.984375 C 63.292969 69.40625 63.75 69.722656 64.300781 69.875 C 64.9375 70.046875 65.507812 69.929688 65.980469 69.449219 C 66.265625 69.160156 66.472656 68.828125 66.613281 68.449219 C 66.878906 67.773438 66.972656 67.074219 66.953125 66.402344 C 66.992188 65.292969 66.671875 63.894531 66.28125 62.625 Z M 77.953125 45.613281 C 78.617188 45.085938 79.289062 44.574219 79.941406 44.035156 C 80.125 43.886719 80.265625 43.691406 80.394531 43.496094 C 80.515625 43.3125 80.394531 43.066406 80.183594 42.972656 C 80.003906 42.890625 79.816406 42.894531 79.648438 42.980469 C 79.464844 43.078125 79.277344 43.1875 79.128906 43.328125 C 78.5 43.933594 77.886719 44.554688 77.269531 45.171875 C 77.050781 45.386719 76.9375 45.644531 76.964844 45.953125 C 76.980469 46.164062 76.984375 46.378906 77.015625 46.582031 C 77.355469 48.617188 77.882812 50.609375 78.40625 52.597656 C 78.484375 52.898438 78.617188 53.195312 78.765625 53.472656 C 78.992188 53.890625 79.378906 54.035156 79.835938 53.988281 C 80.214844 53.953125 80.542969 53.796875 80.859375 53.585938 C 81.765625 52.984375 82.394531 52.144531 82.964844 51.25 C 83.007812 51.183594 83.050781 51.101562 83.050781 51.027344 C 83.042969 50.902344 83.042969 50.75 82.976562 50.664062 C 82.886719 50.558594 82.726562 50.578125 82.617188 50.667969 C 82.449219 50.800781 82.296875 50.945312 82.132812 51.078125 C 81.519531 51.578125 80.910156 52.085938 80.285156 52.574219 C 80.128906 52.699219 79.96875 52.867188 79.722656 52.78125 C 79.394531 52.15625 78.933594 50.582031 78.890625 49.910156 C 78.941406 49.863281 78.996094 49.808594 79.058594 49.761719 C 79.839844 49.25 80.46875 48.566406 81.128906 47.921875 C 81.238281 47.816406 81.328125 47.675781 81.398438 47.539062 C 81.484375 47.371094 81.417969 47.136719 81.28125 47.039062 C 81.136719 46.9375 80.976562 46.929688 80.832031 47.015625 C 80.675781 47.113281 80.535156 47.230469 80.402344 47.359375 C 79.925781 47.820312 79.460938 48.289062 78.988281 48.746094 C 78.878906 48.851562 78.757812 48.933594 78.582031 49.066406 C 78.257812 47.96875 77.960938 46.933594 77.644531 45.851562 C 77.789062 45.742188 77.875 45.679688 77.953125 45.613281 Z M 72.898438 51.183594 C 73.398438 52.714844 73.890625 54.246094 74.398438 55.773438 C 74.539062 56.199219 74.726562 56.613281 74.90625 57.023438 C 74.980469 57.1875 75.085938 57.34375 75.210938 57.480469 C 75.320312 57.601562 75.5 57.648438 75.640625 57.5625 C 75.742188 57.5 75.855469 57.363281 75.855469 57.261719 C 75.859375 56.921875 75.855469 56.570312 75.773438 56.242188 C 75.648438 55.734375 75.46875 55.234375 75.285156 54.734375 C 74.742188 53.277344 74.242188 51.796875 73.496094 50.421875 C 73.472656 50.386719 73.5 50.324219 73.507812 50.226562 C 74.054688 49.738281 74.625 49.226562 75.195312 48.714844 C 75.429688 48.5 75.660156 48.277344 75.867188 48.046875 C 76.015625 47.878906 76.074219 47.675781 75.949219 47.460938 C 75.855469 47.300781 75.625 47.214844 75.382812 47.292969 C 75.1875 47.355469 74.984375 47.445312 74.816406 47.566406 C 74.601562 47.714844 74.398438 47.894531 74.214844 48.082031 C 73.382812 48.9375 72.5625 49.792969 71.742188 50.660156 C 71.46875 50.949219 71.214844 51.253906 70.960938 51.5625 C 70.824219 51.726562 70.820312 51.90625 70.929688 51.984375 C 71.082031 52.089844 71.234375 52.054688 71.371094 51.957031 C 71.585938 51.804688 71.796875 51.636719 72.003906 51.476562 C 72.234375 51.296875 72.464844 51.125 72.753906 50.90625 C 72.828125 51.042969 72.875 51.109375 72.898438 51.183594 Z M 67.886719 57.375 C 67.964844 57.792969 68.023438 58.210938 68.140625 58.613281 C 68.425781 59.574219 68.730469 60.527344 69.050781 61.480469 C 69.148438 61.777344 69.304688 62.058594 69.464844 62.332031 C 69.570312 62.503906 69.753906 62.550781 69.953125 62.507812 C 70.132812 62.464844 70.253906 62.3125 70.273438 62.105469 C 70.3125 61.726562 70.210938 61.367188 70.082031 61.019531 C 69.761719 60.128906 69.425781 59.238281 69.105469 58.347656 C 68.8125 57.53125 68.484375 56.726562 68.246094 55.882812 C 68.398438 55.738281 68.527344 55.605469 68.664062 55.488281 C 69.058594 55.132812 69.460938 54.792969 69.847656 54.4375 C 69.980469 54.3125 70.105469 54.167969 70.195312 54.007812 C 70.335938 53.765625 70.125 53.441406 69.839844 53.457031 C 69.714844 53.464844 69.578125 53.503906 69.46875 53.570312 C 69.289062 53.675781 69.121094 53.808594 68.960938 53.945312 C 67.796875 54.988281 66.640625 56.03125 65.484375 57.074219 C 65.40625 57.144531 65.34375 57.230469 65.285156 57.316406 C 65.203125 57.4375 65.300781 57.667969 65.453125 57.6875 C 65.582031 57.707031 65.734375 57.726562 65.835938 57.671875 C 66.117188 57.523438 66.382812 57.351562 66.640625 57.164062 C 66.976562 56.914062 67.296875 56.640625 67.714844 56.3125 C 67.78125 56.753906 67.828125 57.066406 67.886719 57.375 Z M 67.886719 57.375 " fill-opacity="1" fill-rule="nonzero"/><path fill="#ffffff" d="M 91.398438 32.742188 C 91.371094 32.898438 91.269531 33.046875 91.105469 33.089844 C 91.023438 33.113281 90.9375 33.132812 90.851562 33.136719 L 88.773438 34.269531 C 88.84375 34.277344 88.917969 34.304688 88.992188 34.367188 C 88.878906 34.652344 88.621094 34.75 88.394531 34.867188 C 87.460938 35.367188 86.527344 35.867188 85.578125 36.332031 C 83.65625 37.277344 81.722656 38.203125 79.792969 39.128906 C 79.40625 39.3125 79.0625 39.53125 78.761719 39.847656 C 76.625 42.09375 74.328125 44.171875 72.058594 46.277344 C 66.175781 51.730469 60.328125 57.222656 54.75 62.984375 C 54.03125 63.722656 53.261719 64.417969 52.496094 65.105469 C 52.105469 65.460938 51.667969 65.753906 51.214844 66.105469 C 51.160156 67.09375 51.089844 68.121094 51.054688 69.148438 C 50.972656 71.417969 50.914062 73.695312 50.832031 75.964844 C 50.808594 76.546875 50.742188 77.125 50.691406 77.703125 C 50.636719 78.28125 50.589844 78.863281 50.523438 79.441406 C 50.5 79.617188 50.511719 79.8125 50.390625 79.980469 C 50.375 80.878906 50.40625 81.765625 50.460938 82.65625 C 50.558594 82.636719 50.664062 82.605469 50.765625 82.558594 C 51.101562 82.40625 51.453125 82.277344 51.785156 82.125 C 55.609375 80.371094 59.402344 78.554688 63.15625 76.65625 C 63.664062 76.398438 64.089844 76.074219 64.445312 75.632812 C 65.347656 74.523438 66.226562 73.394531 67.179688 72.332031 C 69.644531 69.566406 72.125 66.8125 74.636719 64.09375 C 78.195312 60.242188 81.800781 56.441406 85.363281 52.597656 C 87.300781 50.496094 89.175781 48.339844 91.09375 46.222656 C 91.433594 45.84375 91.582031 45.453125 91.585938 44.941406 C 91.609375 42.1875 91.671875 39.441406 91.703125 36.691406 C 91.710938 35.929688 91.648438 35.160156 91.617188 34.398438 C 91.609375 34.160156 91.582031 33.921875 91.585938 33.683594 C 91.59375 33.382812 91.738281 33.1875 91.960938 33.144531 C 91.996094 33.136719 92.023438 33.136719 92.054688 33.132812 C 91.902344 32.941406 91.652344 32.832031 91.398438 32.742188 Z M 60.421875 75.710938 C 59.726562 76.347656 58.863281 76.683594 57.914062 76.769531 C 57.730469 76.789062 57.542969 76.808594 57.378906 76.878906 C 57.046875 77.015625 56.796875 76.902344 56.617188 76.648438 C 56.453125 76.414062 56.300781 76.15625 56.203125 75.886719 C 55.753906 74.59375 55.308594 73.300781 54.878906 71.996094 C 54.683594 71.394531 54.523438 70.777344 54.382812 70.164062 C 54.277344 69.703125 54.238281 69.226562 54.164062 68.757812 C 54.117188 68.480469 54.207031 68.242188 54.351562 68.011719 C 54.882812 67.183594 55.597656 66.578125 56.527344 66.246094 C 57.460938 65.90625 58.324219 66.179688 58.902344 66.992188 C 59.25 67.472656 59.476562 68.003906 59.480469 68.605469 C 59.484375 68.785156 59.480469 68.96875 59.480469 69.175781 C 59.851562 69.175781 60.113281 69.175781 60.378906 69.175781 C 61.117188 69.171875 61.640625 69.523438 61.949219 70.179688 C 62.066406 70.4375 62.160156 70.726562 62.1875 71.007812 C 62.371094 72.859375 61.792969 74.449219 60.421875 75.710938 Z M 66.625 68.449219 C 66.480469 68.824219 66.273438 69.160156 65.988281 69.449219 C 65.515625 69.925781 64.945312 70.046875 64.3125 69.875 C 63.757812 69.722656 63.300781 69.40625 62.929688 68.984375 C 62.703125 68.730469 62.484375 68.453125 62.3125 68.164062 C 61.339844 66.5 60.742188 64.703125 60.550781 62.785156 C 60.523438 62.554688 60.566406 62.3125 60.613281 62.085938 C 60.628906 62.015625 60.75 61.914062 60.832031 61.90625 C 60.917969 61.898438 61.054688 61.96875 61.089844 62.039062 C 61.199219 62.277344 61.277344 62.527344 61.363281 62.777344 C 61.691406 63.726562 61.988281 64.683594 62.351562 65.621094 C 62.597656 66.257812 62.921875 66.867188 63.238281 67.476562 C 63.472656 67.925781 63.796875 68.316406 64.21875 68.597656 C 64.800781 68.992188 65.1875 68.894531 65.496094 68.257812 C 65.726562 67.777344 65.816406 67.253906 65.839844 66.722656 C 65.886719 65.730469 65.703125 64.769531 65.421875 63.832031 C 65.160156 62.949219 64.816406 62.085938 64.511719 61.21875 C 64.339844 60.71875 64.164062 60.222656 63.996094 59.722656 C 63.964844 59.628906 63.972656 59.515625 63.984375 59.414062 C 64.003906 59.261719 64.234375 59.15625 64.355469 59.238281 C 64.710938 59.480469 64.980469 59.804688 65.199219 60.167969 C 65.667969 60.941406 66.027344 61.761719 66.289062 62.625 C 66.675781 63.894531 66.996094 65.292969 66.964844 66.402344 C 66.980469 67.074219 66.882812 67.777344 66.625 68.449219 Z M 70.273438 62.101562 C 70.25 62.304688 70.128906 62.460938 69.953125 62.503906 C 69.753906 62.546875 69.566406 62.5 69.464844 62.324219 C 69.308594 62.054688 69.152344 61.773438 69.050781 61.476562 C 68.734375 60.527344 68.429688 59.570312 68.140625 58.609375 C 68.023438 58.207031 67.964844 57.789062 67.886719 57.371094 C 67.828125 57.066406 67.78125 56.753906 67.707031 56.3125 C 67.289062 56.640625 66.96875 56.917969 66.632812 57.164062 C 66.375 57.351562 66.109375 57.523438 65.828125 57.671875 C 65.726562 57.726562 65.574219 57.710938 65.445312 57.6875 C 65.292969 57.667969 65.195312 57.433594 65.277344 57.316406 C 65.335938 57.230469 65.398438 57.144531 65.476562 57.074219 C 66.632812 56.03125 67.792969 54.988281 68.953125 53.945312 C 69.109375 53.808594 69.28125 53.675781 69.460938 53.570312 C 69.570312 53.503906 69.707031 53.464844 69.832031 53.457031 C 70.117188 53.441406 70.332031 53.761719 70.1875 54.007812 C 70.097656 54.164062 69.972656 54.3125 69.839844 54.4375 C 69.453125 54.792969 69.050781 55.136719 68.65625 55.488281 C 68.519531 55.609375 68.386719 55.738281 68.234375 55.882812 C 68.476562 56.726562 68.804688 57.527344 69.097656 58.347656 C 69.417969 59.238281 69.753906 60.128906 70.074219 61.019531 C 70.210938 61.367188 70.3125 61.722656 70.273438 62.101562 Z M 75.867188 48.046875 C 75.65625 48.277344 75.429688 48.5 75.195312 48.714844 C 74.625 49.230469 74.054688 49.738281 73.507812 50.226562 C 73.5 50.320312 73.472656 50.382812 73.496094 50.421875 C 74.242188 51.800781 74.738281 53.277344 75.285156 54.734375 C 75.46875 55.230469 75.648438 55.730469 75.773438 56.242188 C 75.855469 56.570312 75.855469 56.921875 75.855469 57.261719 C 75.855469 57.363281 75.742188 57.5 75.640625 57.5625 C 75.5 57.652344 75.320312 57.601562 75.210938 57.480469 C 75.085938 57.34375 74.980469 57.1875 74.90625 57.023438 C 74.726562 56.613281 74.539062 56.203125 74.398438 55.773438 C 73.890625 54.246094 73.398438 52.710938 72.898438 51.183594 C 72.875 51.109375 72.828125 51.042969 72.757812 50.898438 C 72.46875 51.117188 72.238281 51.292969 72.007812 51.464844 C 71.800781 51.625 71.59375 51.789062 71.375 51.945312 C 71.238281 52.042969 71.085938 52.082031 70.933594 51.976562 C 70.824219 51.898438 70.828125 51.71875 70.964844 51.550781 C 71.214844 51.25 71.472656 50.945312 71.746094 50.652344 C 72.566406 49.789062 73.386719 48.929688 74.21875 48.074219 C 74.402344 47.886719 74.601562 47.703125 74.820312 47.554688 C 74.988281 47.4375 75.191406 47.347656 75.386719 47.285156 C 75.628906 47.210938 75.859375 47.292969 75.957031 47.453125 C 76.078125 47.675781 76.019531 47.875 75.867188 48.046875 Z M 82.964844 51.253906 C 82.394531 52.148438 81.765625 52.996094 80.859375 53.589844 C 80.546875 53.800781 80.214844 53.953125 79.835938 53.992188 C 79.375 54.042969 78.988281 53.898438 78.765625 53.476562 C 78.617188 53.199219 78.484375 52.902344 78.40625 52.601562 C 77.882812 50.613281 77.351562 48.621094 77.015625 46.585938 C 76.984375 46.378906 76.980469 46.167969 76.964844 45.957031 C 76.9375 45.644531 77.054688 45.386719 77.269531 45.175781 C 77.886719 44.558594 78.5 43.9375 79.128906 43.335938 C 79.277344 43.191406 79.464844 43.082031 79.648438 42.984375 C 79.820312 42.898438 80.003906 42.894531 80.183594 42.976562 C 80.390625 43.070312 80.515625 43.3125 80.394531 43.5 C 80.265625 43.695312 80.125 43.894531 79.941406 44.039062 C 79.289062 44.578125 78.621094 45.097656 77.953125 45.617188 C 77.871094 45.683594 77.789062 45.746094 77.640625 45.859375 C 77.960938 46.945312 78.257812 47.976562 78.578125 49.074219 C 78.753906 48.941406 78.875 48.859375 78.984375 48.753906 C 79.457031 48.296875 79.925781 47.828125 80.398438 47.367188 C 80.53125 47.238281 80.675781 47.117188 80.828125 47.023438 C 80.96875 46.933594 81.132812 46.945312 81.277344 47.046875 C 81.414062 47.144531 81.480469 47.378906 81.394531 47.546875 C 81.324219 47.6875 81.234375 47.824219 81.125 47.929688 C 80.460938 48.574219 79.832031 49.257812 79.054688 49.769531 C 78.988281 49.8125 78.933594 49.871094 78.886719 49.917969 C 78.929688 50.585938 79.390625 52.164062 79.71875 52.789062 C 79.957031 52.875 80.125 52.707031 80.28125 52.582031 C 80.902344 52.09375 81.515625 51.585938 82.128906 51.085938 C 82.292969 50.949219 82.449219 50.804688 82.613281 50.679688 C 82.726562 50.585938 82.882812 50.566406 82.972656 50.671875 C 83.039062 50.761719 83.039062 50.910156 83.042969 51.035156 C 83.050781 51.105469 83.007812 51.1875 82.964844 51.253906 Z M 89.160156 45.394531 C 89.019531 45.632812 88.707031 45.734375 88.386719 45.625 C 88.214844 45.570312 88.042969 45.480469 87.882812 45.390625 C 87.402344 45.117188 86.925781 44.832031 86.445312 44.558594 C 86.308594 44.480469 86.167969 44.410156 86.019531 44.332031 C 85.488281 44.65625 84.980469 44.96875 84.457031 45.285156 C 84.621094 46.007812 84.785156 46.722656 84.949219 47.441406 C 84.980469 47.570312 85.015625 47.699219 85.019531 47.832031 C 85.019531 47.957031 84.996094 48.09375 84.953125 48.21875 C 84.902344 48.375 84.789062 48.492188 84.621094 48.523438 C 84.417969 48.558594 84.234375 48.5 84.144531 48.320312 C 84.023438 48.089844 83.917969 47.84375 83.851562 47.589844 C 83.667969 46.898438 83.511719 46.203125 83.335938 45.515625 C 83.113281 44.621094 82.90625 43.714844 82.652344 42.828125 C 82.457031 42.140625 82.375 41.433594 82.269531 40.726562 C 82.226562 40.414062 82.289062 40.144531 82.476562 39.910156 C 82.796875 39.523438 83.117188 39.132812 83.476562 38.78125 C 84.101562 38.175781 84.882812 38.070312 85.695312 38.269531 C 86.347656 38.433594 86.90625 38.796875 87.335938 39.324219 C 87.914062 40.03125 88.0625 40.832031 87.820312 41.707031 C 87.695312 42.171875 87.480469 42.59375 87.203125 42.984375 C 87.085938 43.152344 86.972656 43.328125 86.84375 43.523438 C 87.378906 43.777344 87.878906 44.015625 88.378906 44.257812 C 88.566406 44.347656 88.761719 44.441406 88.933594 44.558594 C 89.238281 44.777344 89.324219 45.125 89.160156 45.394531 Z M 56.308594 72.910156 C 57.632812 72.511719 58.472656 71.660156 59.078125 70.566406 C 59.238281 70.273438 59.421875 70.113281 59.746094 70.109375 C 59.800781 70.109375 59.855469 70.105469 59.90625 70.101562 C 60.777344 70.046875 61.042969 70.261719 61.171875 71.128906 C 61.199219 71.332031 61.207031 71.550781 61.1875 71.761719 C 61.117188 72.503906 60.921875 73.214844 60.550781 73.867188 C 60.117188 74.636719 59.503906 75.191406 58.652344 75.457031 C 58.273438 75.578125 57.890625 75.679688 57.46875 75.800781 C 57.398438 75.683594 57.300781 75.5625 57.246094 75.425781 C 56.9375 74.613281 56.636719 73.796875 56.308594 72.910156 Z M 56.070312 71.921875 C 56.007812 71.867188 55.949219 71.84375 55.933594 71.800781 C 55.566406 70.816406 55.210938 69.835938 54.855469 68.867188 C 55.273438 68.097656 56.089844 67.445312 56.84375 67.257812 C 57.441406 67.109375 57.773438 67.257812 58.097656 67.796875 C 58.40625 68.300781 58.433594 68.84375 58.304688 69.398438 C 58.199219 69.839844 57.996094 70.234375 57.695312 70.582031 C 57.226562 71.121094 56.664062 71.550781 56.070312 71.921875 Z M 84.152344 44.253906 C 83.695312 42.957031 83.269531 41.746094 82.839844 40.511719 C 83.261719 40.082031 83.707031 39.710938 84.191406 39.398438 C 84.625 39.121094 85.074219 39.109375 85.550781 39.304688 C 85.929688 39.460938 86.238281 39.695312 86.480469 40.015625 C 86.804688 40.4375 86.925781 40.921875 86.710938 41.425781 C 86.558594 41.78125 86.378906 42.148438 86.136719 42.445312 C 85.597656 43.125 84.933594 43.691406 84.152344 44.253906 Z M 84.152344 44.253906 " fill-opacity="1" fill-rule="nonzero"/></svg>