<?xml version="1.0" encoding="utf-8"?>
<!-- Generator: Adobe Illustrator 27.1.1, SVG Export Plug-In . SVG Version: 6.00 Build 0)  -->
<svg version="1.1" id="Lager_1" xmlns="http://www.w3.org/2000/svg" xmlns:xlink="http://www.w3.org/1999/xlink" x="0px" y="0px"
	 viewBox="0 0 65 73.8" style="enable-background:new 0 0 65 73.8;" xml:space="preserve">
<style type="text/css">
	.st0{clip-path:url(#SVGID_00000145044633410361360870000017584446811087456410_);}
	.st1{fill:#E86060;}
	.st2{clip-path:url(#SVGID_00000153703518026074245410000005805786327170691212_);}
	.st3{fill:#91A979;}
	.st4{fill:#FC9797;}
</style>
<g>
	<defs>
		<rect id="SVGID_1_" x="8.4" y="35" width="56" height="37.8"/>
	</defs>
	<clipPath id="SVGID_00000140726576717895369570000015184989831014398653_">
		<use xlink:href="#SVGID_1_"  style="overflow:visible;"/>
	</clipPath>
	<g style="clip-path:url(#SVGID_00000140726576717895369570000015184989831014398653_);">
		<path class="st1" d="M63.9,51.4c-0.6,2.8-2.2,5.3-4.3,7.2c-1.1,1-2.4,1.7-3.7,2.4c-1.2,0.6-2.5,1-3.7,1.3c-2.4,0.6-4.8,0.5-7-0.6
			c-2.7-1.3-4.6-3.9-5.9-6.6c-0.3-0.6-0.5-1.2-0.7-1.8c-0.8-2.4-1.1-5-0.5-7.5c0.6-2.5,2-4.8,4-6.3c1.2-0.9,2.5-1.5,3.9-2
			c1.3-0.5,2.7-0.9,4-1.1c2.4-0.5,5-0.5,7.3,0.6c2.7,1.2,4.6,3.6,5.9,6.3C64.2,45.7,64.5,48.6,63.9,51.4z M35.1,59.8
			c0-2.8-0.5-5.8-2.1-8.2c-1.3-1.9-3.2-3.1-5.4-3.8c-1.2-0.4-2.4-0.6-3.6-0.7c-1.4-0.1-2.8-0.2-4.2,0c-2.9,0.4-5.7,1.8-7.8,4
			c-2,2.1-3.3,4.9-3.5,7.9c-0.2,2.8,0.3,5.9,1.9,8.3c1.3,2,3.4,3.3,5.6,4.1c1.2,0.4,2.5,0.8,3.8,1c1.5,0.3,3,0.5,4.5,0.3
			c2.8-0.2,5.4-1.4,7.4-3.5c1.9-2,3-4.7,3.3-7.4C35,61.2,35.1,60.5,35.1,59.8z"/>
	</g>
</g>
<g>
	<defs>
		<rect id="SVGID_00000078024367680936431150000017944847160751505592_" x="0.6" y="0.8" width="49.1" height="51.5"/>
	</defs>
	<clipPath id="SVGID_00000059988943121576855780000009089599334953569193_">
		<use xlink:href="#SVGID_00000078024367680936431150000017944847160751505592_"  style="overflow:visible;"/>
	</clipPath>
	<g style="clip-path:url(#SVGID_00000059988943121576855780000009089599334953569193_);">
		<path class="st3" d="M49.1,40.1c0,0.1-0.1,0.2-0.2,0.2c-0.9,0-1.9,0-2.8,0c-0.1,0-0.2-0.1-0.2-0.2c0,0,0,0,0,0c0,0,0,0,0-0.1
			c0-0.1,0-0.2,0-0.2c0-0.3,0-0.5-0.1-0.8c-0.2-1.1-0.6-2.2-1-3.2c-0.8-2.1-1.9-4.1-3-6c-1.3-2.3-2.7-4.5-4.4-6.5
			c-2.7-3.1-5.9-5.7-9.5-7.5c-2.6-1.3-5.3-2.2-8.1-2.7c-0.8-0.2-1.7-0.3-2.6-0.3c-0.2,0-0.3,0.1-0.5,0.1c0,0,0,0,0,0
			c0.2,0.2,0.3,0.4,0.5,0.7c0.5,0.7,1,1.5,1.5,2.3c1.7,2.6,3.1,5.4,4.5,8.2c1.8,3.9,3.5,8.1,4.3,12.3c0.6,3.5,0.7,7,0.3,10.5
			c-0.2,1.4-0.4,2.9-0.9,4.2c0,0.1-0.1,0.1-0.2,0.1c-0.7-0.4-1.4-0.7-2.2-1.1c-0.1,0-0.1-0.1-0.1-0.2c0,0,0,0,0,0c0,0,0,0,0-0.1
			c0.3-1.5,0.4-3.1,0.4-4.6c0-3.6-0.6-7.2-1.6-10.7c-1-3.7-2.5-7.2-4.2-10.6c-1.3-2.6-2.7-5.2-4.3-7.6c-0.3-0.5-0.6-1-0.9-1.5
			c-0.8,0.5-1.6,0.8-2.5,1.1c-1.9,0.5-3.9,0.8-5.8,0.7c-1.3,0-2.6-0.2-3.8-0.6c-0.4-0.2-1.3-0.5-1.3-1c0-0.1,0-0.2,0-0.3
			c0.2-0.7,0.9-1.3,1.4-1.8c1.1-0.9,2.5-1.5,3.9-1.9c1.9-0.6,3.9-0.9,5.9-0.8c1.1,0,2.2,0.2,3.2,0.5c0.1-0.1,0.1-0.2,0.2-0.3
			c0-1.3,0.5-2.5,1.1-3.6c1.4-2.3,3.5-4.3,6.1-5.2C23,1.1,23.8,0.8,24.4,1c0.6,0.3,0.8,1.2,0.8,1.8c0,1.3-0.5,2.7-1.2,3.8
			c-0.9,1.4-2,2.8-3.3,3.9c1.7,0.4,3.5,0.8,5.1,1.4c4.3,1.5,8.3,3.8,11.7,6.8c2.1,1.8,3.9,3.9,5.6,6.1c1.8,2.5,3.3,5.1,4.5,8
			c0.7,1.7,1.2,3.5,1.5,5.3C49.1,38.8,49.2,39.4,49.1,40.1z"/>
	</g>
</g>
<path class="st4" d="M32.1,57.5c0.2,1.2,0.2,2.5,0.1,3.7c0,0.1-0.1,0.2-0.2,0.2c-0.5-0.1-0.9-0.1-1.4-0.2c-0.1,0-0.2-0.1-0.2-0.2
	c0.1-0.5,0-1,0-1.5c-0.1-1.1-0.2-2.2-0.7-3.2c-0.5-0.9-1.5-1.8-2.4-2.2c0,0-0.1-0.1-0.1-0.1c0,0,0-0.1,0-0.1
	c0.2-0.4,0.4-0.9,0.6-1.3c0-0.1,0.2-0.1,0.2-0.1c0.5,0.2,1,0.5,1.4,0.8c0.7,0.5,1.4,1.1,1.9,1.9C31.8,55.9,32,56.7,32.1,57.5z
	 M59.6,44.2c-0.2-1.8-1.5-3.4-2.9-4.4c-0.3-0.2-0.7-0.5-1.1-0.6c-0.1,0-0.1,0-0.2,0.1c-0.3,0.4-0.5,0.7-0.8,1.1c0,0.1,0,0.1,0,0.2
	c0,0,0,0.1,0.1,0.1c1.1,0.5,2.1,1.5,2.7,2.5c0.8,1.5,0.7,3.5,0.2,5c0,0.1,0.1,0.2,0.2,0.2c0.5,0,0.9,0,1.4,0c0.1,0,0.1-0.1,0.2-0.1
	C59.7,47,59.8,45.6,59.6,44.2z"/>
</svg>
