<svg xmlns="http://www.w3.org/2000/svg" xmlns:xlink="http://www.w3.org/1999/xlink" width="150" zoomAndPan="magnify" viewBox="0 0 112.5 112.499997" height="150" preserveAspectRatio="xMidYMid meet" version="1.0"><defs><clipPath id="9a3dc4036a"><path d="M 38 55 L 80 55 L 80 83.355469 L 38 83.355469 Z M 38 55 " clip-rule="nonzero"/></clipPath><clipPath id="3e5647ba25"><path d="M 32.144531 29.355469 L 69 29.355469 L 69 68 L 32.144531 68 Z M 32.144531 29.355469 " clip-rule="nonzero"/></clipPath></defs><g clip-path="url(#9a3dc4036a)"><path fill="#e86060" d="M 79.652344 67.296875 C 79.191406 69.390625 78.035156 71.304688 76.433594 72.703125 C 75.589844 73.441406 74.644531 74.003906 73.636719 74.46875 C 72.734375 74.886719 71.796875 75.242188 70.832031 75.472656 C 69.066406 75.894531 67.203125 75.855469 65.546875 75.046875 C 63.492188 74.046875 62.089844 72.089844 61.089844 70.085938 C 60.878906 69.660156 60.691406 69.21875 60.53125 68.769531 C 59.894531 66.972656 59.707031 64.996094 60.125 63.125 C 60.546875 61.238281 61.613281 59.5625 63.136719 58.386719 C 64.019531 57.707031 65.015625 57.226562 66.054688 56.855469 C 67.046875 56.5 68.054688 56.195312 69.085938 56 C 70.902344 55.65625 72.8125 55.660156 74.527344 56.421875 C 76.550781 57.320312 77.976562 59.15625 78.933594 61.113281 C 79.863281 63.027344 80.109375 65.21875 79.652344 67.296875 Z M 58.023438 73.632812 C 58.019531 71.503906 57.679688 69.261719 56.457031 67.472656 C 55.492188 66.058594 54.050781 65.113281 52.441406 64.605469 C 51.570312 64.328125 50.667969 64.175781 49.761719 64.089844 C 48.71875 63.996094 47.660156 63.972656 46.621094 64.117188 C 44.410156 64.421875 42.3125 65.46875 40.753906 67.085938 C 39.222656 68.671875 38.261719 70.769531 38.105469 72.984375 C 37.960938 75.097656 38.332031 77.417969 39.523438 79.199219 C 40.523438 80.699219 42.042969 81.691406 43.707031 82.300781 C 44.621094 82.636719 45.570312 82.863281 46.527344 83.03125 C 47.640625 83.222656 48.773438 83.371094 49.902344 83.292969 C 52.003906 83.148438 53.984375 82.253906 55.425781 80.699219 C 56.824219 79.1875 57.648438 77.203125 57.921875 75.167969 C 57.988281 74.660156 58.023438 74.144531 58.023438 73.632812 Z M 58.023438 73.632812 " fill-opacity="1" fill-rule="nonzero"/></g><g clip-path="url(#3e5647ba25)"><path fill="#91a979" d="M 68.5625 58.816406 C 68.554688 58.882812 68.511719 58.941406 68.441406 58.941406 C 67.734375 58.941406 67.027344 58.941406 66.320312 58.941406 C 66.238281 58.941406 66.175781 58.859375 66.199219 58.78125 C 66.203125 58.773438 66.207031 58.761719 66.207031 58.753906 C 66.207031 58.71875 66.210938 58.757812 66.214844 58.691406 C 66.214844 58.632812 66.21875 58.574219 66.21875 58.515625 C 66.214844 58.324219 66.1875 58.136719 66.15625 57.949219 C 66.007812 57.113281 65.714844 56.304688 65.402344 55.519531 C 64.773438 53.957031 63.988281 52.457031 63.167969 50.988281 C 62.195312 49.257812 61.140625 47.59375 59.847656 46.089844 C 57.859375 43.769531 55.433594 41.851562 52.707031 40.488281 C 50.78125 39.523438 48.714844 38.832031 46.597656 38.449219 C 45.96875 38.335938 45.324219 38.238281 44.683594 38.195312 C 44.566406 38.222656 44.445312 38.238281 44.328125 38.238281 C 44.332031 38.246094 44.335938 38.25 44.339844 38.257812 C 44.464844 38.417969 44.582031 38.582031 44.699219 38.746094 C 45.101562 39.304688 45.480469 39.875 45.847656 40.457031 C 47.101562 42.429688 48.207031 44.5 49.191406 46.621094 C 50.5625 49.574219 51.832031 52.660156 52.425781 55.878906 C 52.902344 58.480469 52.984375 61.160156 52.652344 63.789062 C 52.515625 64.847656 52.34375 65.9375 52.003906 66.957031 C 51.980469 67.035156 51.898438 67.066406 51.824219 67.03125 C 51.285156 66.753906 50.742188 66.480469 50.203125 66.207031 C 50.144531 66.175781 50.132812 66.125 50.144531 66.078125 C 50.144531 66.074219 50.144531 66.070312 50.144531 66.066406 C 50.148438 66.046875 50.15625 66.03125 50.15625 66.015625 C 50.355469 64.859375 50.460938 63.707031 50.464844 62.53125 C 50.46875 59.816406 50.039062 57.109375 49.296875 54.5 C 48.511719 51.753906 47.429688 49.09375 46.171875 46.535156 C 45.210938 44.578125 44.144531 42.671875 42.980469 40.832031 C 42.75 40.464844 42.515625 40.097656 42.273438 39.734375 C 41.6875 40.082031 41.050781 40.34375 40.402344 40.53125 C 39.003906 40.941406 37.488281 41.109375 36.03125 41.082031 C 35.074219 41.0625 34.074219 40.957031 33.171875 40.609375 C 32.839844 40.480469 32.230469 40.253906 32.183594 39.824219 C 32.179688 39.75 32.195312 39.671875 32.214844 39.597656 C 32.375 39.054688 32.871094 38.605469 33.296875 38.265625 C 34.152344 37.585938 35.171875 37.132812 36.207031 36.808594 C 37.628906 36.367188 39.144531 36.132812 40.632812 36.171875 C 41.441406 36.191406 42.277344 36.285156 43.050781 36.546875 C 43.097656 36.472656 43.152344 36.390625 43.214844 36.316406 C 43.210938 35.371094 43.570312 34.4375 44.039062 33.636719 C 45.058594 31.890625 46.699219 30.390625 48.613281 29.722656 C 48.988281 29.589844 49.59375 29.359375 49.988281 29.542969 C 50.457031 29.761719 50.550781 30.449219 50.554688 30.898438 C 50.566406 31.898438 50.167969 32.886719 49.664062 33.726562 C 49.015625 34.804688 48.15625 35.808594 47.222656 36.648438 C 48.53125 36.917969 49.820312 37.28125 51.074219 37.730469 C 54.285156 38.882812 57.285156 40.605469 59.863281 42.855469 C 61.421875 44.21875 62.820312 45.769531 64.03125 47.453125 C 65.363281 49.308594 66.527344 51.3125 67.386719 53.429688 C 67.902344 54.699219 68.316406 56.027344 68.496094 57.390625 C 68.558594 57.855469 68.617188 58.347656 68.5625 58.816406 Z M 68.5625 58.816406 " fill-opacity="1" fill-rule="nonzero"/></g><path fill="#fc9797" d="M 55.820312 71.910156 C 55.941406 72.8125 55.953125 73.75 55.867188 74.660156 C 55.863281 74.71875 55.8125 74.792969 55.742188 74.785156 C 55.394531 74.738281 55.046875 74.695312 54.699219 74.652344 C 54.636719 74.644531 54.566406 74.597656 54.574219 74.527344 C 54.613281 74.144531 54.601562 73.75 54.578125 73.367188 C 54.535156 72.578125 54.441406 71.6875 54.078125 70.976562 C 53.714844 70.265625 52.984375 69.617188 52.296875 69.34375 C 52.261719 69.328125 52.238281 69.296875 52.226562 69.265625 C 52.210938 69.234375 52.207031 69.199219 52.226562 69.160156 C 52.367188 68.839844 52.507812 68.519531 52.652344 68.195312 C 52.679688 68.128906 52.765625 68.128906 52.820312 68.152344 C 53.191406 68.3125 53.546875 68.527344 53.878906 68.757812 C 54.417969 69.132812 54.917969 69.589844 55.269531 70.152344 C 55.597656 70.679688 55.738281 71.296875 55.820312 71.910156 Z M 76.457031 61.949219 C 76.277344 60.613281 75.363281 59.429688 74.289062 58.671875 C 74.039062 58.496094 73.777344 58.332031 73.496094 58.214844 C 73.441406 58.191406 73.386719 58.230469 73.355469 58.273438 C 73.148438 58.550781 72.945312 58.828125 72.738281 59.105469 C 72.707031 59.144531 72.710938 59.183594 72.730469 59.21875 C 72.738281 59.238281 72.753906 59.261719 72.785156 59.273438 C 73.589844 59.683594 74.355469 60.363281 74.796875 61.160156 C 75.40625 62.261719 75.34375 63.765625 74.945312 64.933594 C 74.917969 65.011719 74.988281 65.09375 75.0625 65.09375 C 75.410156 65.09375 75.757812 65.09375 76.105469 65.09375 C 76.160156 65.09375 76.210938 65.054688 76.222656 65 C 76.476562 64.027344 76.59375 62.949219 76.457031 61.949219 Z M 76.457031 61.949219 " fill-opacity="1" fill-rule="nonzero"/></svg>