<?xml version="1.0" encoding="utf-8"?>
<!-- Generator: Adobe Illustrator 27.1.1, SVG Export Plug-In . SVG Version: 6.00 Build 0)  -->
<svg version="1.1" id="Lager_1" xmlns="http://www.w3.org/2000/svg" xmlns:xlink="http://www.w3.org/1999/xlink" x="0px" y="0px"
	 viewBox="0 0 111.1 119.6" style="enable-background:new 0 0 111.1 119.6;" xml:space="preserve">
<style type="text/css">
	.st0{clip-path:url(#SVGID_00000131329341693793038640000009647186932318321802_);}
	.st1{fill:#F7A49E;}
	.st2{clip-path:url(#SVGID_00000035521618904796090130000005285211404778484387_);}
	.st3{fill:#E9D1B8;}
	.st4{fill:#693729;}
	.st5{fill:#F5EDBE;}
	.st6{clip-path:url(#SVGID_00000026151048869898330560000007596718992422831525_);}
	.st7{fill:#8A4B38;}
	.st8{clip-path:url(#SVGID_00000010277716599457137070000003634807116120287114_);}
</style>
<g>
	<defs>
		<rect id="SVGID_1_" x="27.4" y="33.1" width="82.6" height="84"/>
	</defs>
	<clipPath id="SVGID_00000183963596687880121160000005147032774882043306_">
		<use xlink:href="#SVGID_1_"  style="overflow:visible;"/>
	</clipPath>
	<g style="clip-path:url(#SVGID_00000183963596687880121160000005147032774882043306_);">
		<path class="st1" d="M107.5,80.9c0.7,1,1.4,2,1.7,3.2c0.3,1.2-0.2,2.3-1,3.2c-4.1,4.7-20.6,19.6-29.2,26c-5.2,3.8-8.2,4.1-10.1,2
			c-10.1-11.2-19.9-22.9-30-34c-3.1-3.5-6.2-6.9-9.3-10.4c-0.6-0.6-1.8-1.6-2-2.5c-0.2-0.9,0.9-1.8,1.4-2.5c1.4-1.8,3-3.4,4.7-5
			c2.4-2.2,5.1-4,7.7-6c6.7-5.3,12.4-11.7,19-17c1.5-1.2,3-2.3,4.7-3.2c1.1-0.5,2.3-0.9,3.5-0.8c0.6,0.1,1.1,0.3,1.7,0.2
			c1.1-0.1,1.1,0,1.7,0.7c0.6,0.7,1.1,1.5,1.8,2.3c1.3,1.5,2.6,3.1,3.9,4.6c2.5,3,5,6,7.5,9.1c4.8,5.8,9.4,11.7,13.9,17.8
			c0.8,1.1,1.6,2.2,2.3,3.2C103.3,74.9,105.4,77.9,107.5,80.9z"/>
	</g>
</g>
<g>
	<defs>
		<rect id="SVGID_00000103231677803246217640000016888862913824606100_" x="32.7" y="50.4" width="77.2" height="46.7"/>
	</defs>
	<clipPath id="SVGID_00000178198516027762008820000001213507590737728182_">
		<use xlink:href="#SVGID_00000103231677803246217640000016888862913824606100_"  style="overflow:visible;"/>
	</clipPath>
	<g style="clip-path:url(#SVGID_00000178198516027762008820000001213507590737728182_);">
		<path class="st3" d="M108.1,87.3c-1.7,1.9-5.5,5.6-10,9.7c-22-5.7-52.3-19.5-52.3-19.5S35.4,65.6,33.2,61.3
			c0.2-0.1,0.3-0.3,0.5-0.4c2.4-2.1,5.1-4,7.7-6c0.9-0.7,1.8-1.4,2.6-2.2c3.1-1.4,5.6-2.3,5.6-2.3c0.2-0.1,41.8,11.7,45.1,12.7
			c1.4,1.9,2.8,3.7,4.2,5.6c0.8,1.1,1.6,2.2,2.3,3.2c2.1,3,4.2,6,6.3,9c0.7,1,1.4,2,1.7,3.2C109.4,85.2,108.9,86.4,108.1,87.3z"/>
	</g>
</g>
<path class="st4" d="M97.9,97.5C76.2,91.9,45.9,78.1,45.6,78l0.5-1c0.3,0.1,30.5,13.8,52.2,19.5L97.9,97.5z"/>
<path class="st5" d="M69.2,31.1c2.6-0.7,4.3,0.9,4.3,0.9c-0.7,2.1-2.1,3.9-3.9,5.1c-2.6,1.8-6,2.3-8.1,4.6c-0.8,0.8-1.3,1.9-2.1,2.8
	c-1.6,2-4.1,3.2-6.5,4.2c-1.4,0.6-2.9,1.2-4.1,2.3c-1,0.9-1.7,2.2-2.5,3.2c-2.7,3.5-7,5.3-10.3,8.2c-2.5,2.1-4.6,5-7.8,5.8
	c-1.6,0.5-3.6,0.4-4.8,1.6c-0.6-1.8-0.6-3.8,0.1-5.6c1.5-3.8,3.6-7.7,6.7-10.3s6.9-4.4,10.3-6.6c2.9-1.9,5.7-4,8.3-6.3
	c2.9-2.6,5.5-5.5,8.8-7.7C61.1,31.3,65.5,29.9,69.2,31.1z M77.4,100c1.5,0.5,3.3,0.8,4.6-0.2c0.9-0.7,1.2-1.9,1.2-3
	c-0.1-1.1-0.5-2.2-1-3.2c-2.1-4.2-7.2-11.6-12.6-11.6c-6.6,0-2,9.5,0,12.1C71.5,96.8,74.3,98.9,77.4,100z"/>
<g>
	<defs>
		<rect id="SVGID_00000049179928561049545260000010347083622348567706_" x="2.1" y="2.4" width="68" height="62.6"/>
	</defs>
	<clipPath id="SVGID_00000049206092299775900720000007501427527934919074_">
		<use xlink:href="#SVGID_00000049179928561049545260000010347083622348567706_"  style="overflow:visible;"/>
	</clipPath>
	<g style="clip-path:url(#SVGID_00000049206092299775900720000007501427527934919074_);">
		<path class="st7" d="M52.6,41.3c-6.1,4.4-10.1,11-16.3,15.2c-1.7,1.1-3.4,2-5.2,3c-2.5,1.4-5.2,3.2-7.6,4.8
			c-5.6-6.5-15-17.2-20-24.2c-0.5-0.7-1-1.4-0.9-2.2C2.7,37,3.4,36.3,4,35.6c12.1-11.4,24.9-22,38.3-31.8c0.5-0.4,1.1-0.8,1.8-0.8
			c0.7,0,1.3,0.6,1.8,1.1c6.8,7.3,17.3,18.8,23.2,26.9C64.6,35.9,58,37.5,52.6,41.3z"/>
	</g>
</g>
<g>
	<defs>
		<rect id="SVGID_00000068648994957620273590000010989241320975072913_" x="2" y="2.4" width="108" height="115"/>
	</defs>
	<clipPath id="SVGID_00000003095447193822915010000018162487176261311142_">
		<use xlink:href="#SVGID_00000068648994957620273590000010989241320975072913_"  style="overflow:visible;"/>
	</clipPath>
	<g style="clip-path:url(#SVGID_00000003095447193822915010000018162487176261311142_);">
		<path class="st4" d="M26.8,40.1c-3-3-6.3-6-8.5-9.6c-0.1-0.2,0.2-0.5,0.4-0.4c2.8,2.1,5,4.8,7.4,7.3c0.6,0.6,1.2,1.3,1.8,1.9
			c0.5,0.5,1.3,1.7,2,1.8c0.6,0.1,1.6-0.8,2.1-1.1c0.7-0.5,1.3-1,1.9-1.5c1.1-0.9,3-2.4,3-4c0-1.5-1.6-3.2-2.5-4.3
			c-1.9-2.6-3.9-5.1-5.8-7.6c-0.9,1.1-1.9,1.8-3.2,2.5c-0.2,0.1-0.4-0.1-0.2-0.3c1-1,2.1-2.3,3-3.4c0.2-0.3,0.7-0.4,0.9-0.1
			c2.7,3.2,5.3,6.7,7.8,10.1c0.9,1.3,1.8,2.8,1.2,4.4c-0.5,1.5-1.9,2.8-3,3.8c-1.2,1.1-2.6,2.2-4.2,2.8C29,42.9,27.9,41.2,26.8,40.1
			z M35.7,15.3c0.8-1,1.6-2,2.5-2.9c0.8-0.8,1.7-1.5,2.6-2.2c0.9-0.7,1.8-1.4,2.8-2c0.6-0.4,1.3-1,2.1-0.8c0.8,0.1,1.3,0.9,1.8,1.4
			c0.7,0.7,1.3,1.5,1.9,2.3c1.3,1.6,2.6,3.3,3.8,5c0.7,0.9,1.3,1.9,1.9,2.8c0.4,0.6,0.7,1.1,0.6,1.8c-0.1,0.8-0.8,1.5-1.3,2.1
			c-0.6,0.7-1.2,1.3-1.9,1.9c-1.3,1.2-2.9,2.5-4.6,3.2c-1.8,0.7-2.7-0.6-3.7-1.8c-2.9-3.4-6.1-6.7-8.5-10.4c0,0,0-0.1,0-0.1
			C35.7,15.5,35.7,15.4,35.7,15.3z M36.1,15.4C36.1,15.4,36.1,15.4,36.1,15.4c3.5,3.1,6.4,7,9.4,10.5c0.4,0.4,0.8,1.3,1.5,1.2
			c0.4,0,0.9-0.4,1.2-0.6c0.9-0.6,1.8-1.3,2.6-2c0.7-0.6,1.3-1.2,2-1.9c0.7-0.7,1.8-1.7,1.5-2.7c-0.3-1-1.3-2-1.9-2.8
			c-0.5-0.8-1.1-1.7-1.6-2.5c-1.2-1.8-2.5-3.4-3.7-5.2c-0.6-0.8-0.8-1.7-2.2-1.1c-0.4,0.2-0.8,0.6-1.1,0.9c-0.9,0.7-1.7,1.3-2.5,2
			C39.6,12.7,37.8,14,36.1,15.4z M108.5,87.7c-4.2,4.7-20.6,19.6-29.3,26c-3.1,2.3-5.6,3.4-7.6,3.4c-1.3,0-2.4-0.5-3.3-1.5
			C58.5,104.7,50.1,95.2,41.2,85c-4.5-5.1-9.1-10.4-14.1-16c0,0-0.1,0-0.1,0c-1.2,0.2-2.3,0.4-3,1.2l-0.6,0.7L23,70
			c-0.6-1.8-0.7-3.7-0.1-5.5c-0.8-0.9-1.6-1.9-2.5-2.9C14.9,55.2,7.3,46.5,3.1,40.4c-0.4-0.6-1.1-1.5-1-2.6c0.1-1.1,0.8-1.9,1.6-2.6
			C15.7,23.8,28.6,13.1,42,3.4c0.5-0.4,1.3-0.9,2.2-0.9c1,0.1,1.8,0.8,2.2,1.3c4.8,5.1,16.5,17.8,23.1,26.6c2.6-0.5,4.4,1,4.4,1.1
			l0.3,0.2L74,32.1c-0.3,1-0.8,2-1.5,2.8c1,1.2,2,2.4,3,3.6c6.8,8.2,13.4,16.1,19.4,24c0,0,0,0,0,0l0,0c2.3,3,4.5,6,6.6,9l6.3,9
			c0.7,1,1.5,2.1,1.7,3.4C110,85.2,109.5,86.5,108.5,87.7z M71.8,35.9c-0.6,0.6-1.2,1.2-1.9,1.6c-1.1,0.7-2.3,1.3-3.5,1.8
			c-1.7,0.8-3.3,1.5-4.5,2.7c-0.4,0.4-0.8,1-1.1,1.5c-0.3,0.4-0.6,0.9-0.9,1.3c-1.7,2.1-4.3,3.3-6.7,4.4L53,49.2
			c-0.7,0.3-1.4,0.6-2,0.9c0.2,0.1,0.4,0.1,0.7,0.2c1.2,0.3,2.9,0.8,5.2,1.4c3.8,1.1,9,2.5,15.6,4.4c8.5,2.4,17,4.8,20.7,5.9
			c-5.8-7.5-12-15-18.5-22.8C73.7,38.2,72.8,37,71.8,35.9z M21.3,60.9c0.8,0.9,1.6,1.8,2.3,2.6l0.3-0.2c2.3-1.5,4.6-3,6.9-4.3
			c0.5-0.3,0.9-0.5,1.4-0.8c1.3-0.7,2.5-1.4,3.7-2.2c3.2-2.1,5.9-5,8.5-7.8c1.3-1.4,2.6-2.7,3.9-4c-1.4-1.2-2.7-2.5-4.1-3.8
			c-0.5-0.4-0.9-1-1.6-1.1c-0.9-0.2-1.3,0.4-1.8,0.9c-0.6,0.8-1.2,1.6-1.9,2.3c-0.7,0.8-1.3,1.6-2,2.4c-0.7,0.8-2.6,2.3-2.1,3.5
			c0.2,0.4,0.7,0.8,1,1.2c0.3,0.4,0.7,0.8,1,1.2c0.7,0.8,1.5,1.5,1.9,2.5c0.1,0.1-0.1,0.3-0.2,0.2c-1.2-0.8-2.2-2.1-3.2-3.1
			c-0.6-0.7-1.9-1.5-1.8-2.6c0.1-1.1,1.3-2.1,2-2.9c0.9-1.1,1.9-2.3,2.9-3.4c1.3-1.5,2.9-3.9,5.2-2.6c2.1,1.1,3.8,3,5.1,5
			c1.1-1.1,2.3-2.1,3.6-3c0.9-0.6,1.8-1.2,2.7-1.7c-0.2-0.2-0.4-0.4-0.6-0.7c-0.7-0.8-1.3-1.6-1.9-2.4c-0.9-1.1-2-2-1.3-3.5
			c1.2-2.4,3.3-4.6,5.8-5.6c0.7-0.3,1.7-0.7,2.5-0.5c0.8,0.1,1.4,0.9,2,1.4c1.6,1.5,3.6,3.3,4.4,5.3c0.9-0.6,1.8-1.3,2.6-2.1
			C61.9,22.3,50.3,9.7,45.5,4.6c-0.4-0.5-0.9-0.9-1.4-1c0,0,0,0-0.1,0c-0.4,0-0.9,0.3-1.4,0.6C30.9,12.9,19.5,22.2,8.7,32
			c1.4,1.7,2.7,3.6,4,5.4c1.8,2.4,3.7,4.8,5.5,7.2c1.9,2.4,3.7,4.9,5.5,7.3c1.5,2,3,4.2,4.6,6.2c0.1,0.1,0,0.2-0.1,0.1
			c-3.7-4.1-7.4-8.1-10.8-12.5c-1.9-2.4-3.8-4.9-5.6-7.4c-1.3-1.8-2.8-3.6-3.9-5.5C6.7,33.9,5.6,35,4.4,36c-0.6,0.6-1.2,1.2-1.2,1.9
			c0,0.6,0.4,1.2,0.8,1.9C8.2,45.8,15.8,54.5,21.3,60.9z M59.4,36.8c2.2-1.1,4.3-2.2,6.2-3.5c-1.7-0.9-2.8-2.7-4.1-4
			c-0.5-0.6-1.1-1.3-1.9-1.7c-0.6-0.3-1.4,0-2,0.3c-2.1,1.1-3.8,2.8-5.1,4.7c-0.1,0.2-0.4,0.5-0.5,0.8c-0.1,0.5,0.3,1,0.6,1.3
			c0.4,0.6,0.9,1.2,1.3,1.7c0.5,0.7,1.3,1.4,1.7,2.2C57,38,58.2,37.4,59.4,36.8z M26.8,68c0.5-0.1,1-0.2,1.4-0.3
			c2.2-0.6,3.9-2.2,5.7-4c0.6-0.6,1.2-1.2,1.9-1.8c1.3-1.1,2.7-2.1,4.1-3c2.3-1.6,4.5-3,6.1-5.1c0.3-0.3,0.5-0.7,0.8-1.1
			c0.5-0.8,1.1-1.6,1.8-2.2c0.2-0.2,0.4-0.4,0.7-0.6c0,0,0.1,0,0.1-0.1c1-0.7,2.2-1.2,3.3-1.7l0.2-0.1c2.3-1,4.7-2.1,6.3-4
			c0.3-0.4,0.6-0.8,0.9-1.2c0.4-0.5,0.8-1.1,1.2-1.6c1.3-1.5,3.2-2.3,4.9-3c1.1-0.5,2.3-1,3.3-1.7c1.6-1.1,2.8-2.6,3.5-4.4
			c-0.5-0.3-1.7-0.9-3.3-0.5c-2.8,2.8-6.2,4.6-9.6,6.2c-2.3,1.2-4.7,2.4-6.9,3.9c-2.8,2.1-5.3,4.7-7.7,7.3c-2.6,2.8-5.4,5.7-8.7,7.9
			c-1.2,0.8-2.6,1.6-3.8,2.2c-0.5,0.3-0.9,0.5-1.4,0.8c-2.2,1.3-4.6,2.8-6.8,4.3l-0.4,0.3c-0.5,1.4-0.6,2.9-0.3,4.3
			C24.7,68.3,25.8,68.1,26.8,68z M108.6,84.2c-0.2-1.1-0.9-2-1.6-2.9l-6.3-9c-2.1-2.9-4.2-5.8-6.4-8.7C82.2,60.1,52.6,51.7,49.7,51
			c-0.1,0.1-0.2,0.2-0.4,0.3c-0.6,0.6-1.1,1.3-1.6,2c-0.3,0.4-0.5,0.8-0.8,1.1c-1.7,2.2-3.9,3.7-6.1,5.2c-0.6,1.3-0.9,2.6-0.4,4
			c0.6,1.7,2.2,2.9,4,3c0.2,0,0.1,0.2,0,0.2c-2.2,0.3-4.3-0.7-5.2-2.8c-0.4-1-0.5-2.2-0.2-3.3c-0.9,0.6-1.8,1.3-2.6,1.9
			c-0.4,0.4-0.8,0.7-1.2,1.1c2,2,3.6,4.4,5.5,6.5c1.9,2.3,3.8,4.5,5.8,6.8c4,4.6,7.9,9.1,11.8,13.8c0.1,0.1,0,0.2-0.1,0.1
			C53.6,87,49.4,82.6,45.4,78c-2-2.3-4-4.6-5.9-7c-1.7-2.1-3.6-4.1-5-6.4c-1.8,1.7-3.6,3.4-6,4.1c0,0-0.1,0-0.1,0
			c4.8,5.4,9.3,10.5,13.6,15.5C51,94.4,59.3,104,69.2,114.8c1.3,1.4,3.4,2.3,9.3-2.1c8.6-6.3,25.1-21.3,29.2-25.9
			C108.4,86,108.8,85.1,108.6,84.2z M20.3,29.3c0.6-0.2,1.1-0.7,1.5-1.2c0.4-0.4,0.9-0.9,1.3-1.4c0.1-0.1-0.1-0.2-0.2-0.2
			c-0.3,0.1-0.5,0.3-0.8,0.5c-0.3,0.2-0.6,0.3-0.9,0.5c-0.5,0.3-1.1,0.6-1.4,1.2C19.7,28.9,20,29.4,20.3,29.3z M78.5,108.2
			c-1.4-0.1-2.7-0.2-4-0.7c-1.4-0.5-2.6-1.5-3.7-2.5c-2.2-2-4.3-4.1-6.7-6c-0.1-0.1-0.2,0-0.1,0.1c2.1,2.7,4.5,5.5,7.2,7.7
			c1.9,1.5,5.1,3.3,7.4,1.5C78.6,108.3,78.5,108.2,78.5,108.2z M86.3,87.4c0,0.1,0,0.1,0,0.2c0,0,0,0,0,0
			C86.3,87.6,86.3,87.5,86.3,87.4C86.3,87.4,86.3,87.4,86.3,87.4z M83.7,96.9c0.1,1.4-0.4,2.7-1.4,3.5c-0.7,0.5-1.5,0.8-2.5,0.8
			c-0.8,0-1.7-0.2-2.7-0.5c-3.1-1.1-6-3.3-8.1-6c-1.3-1.8-4.7-8-3.1-11.2c0.4-0.8,1.4-1.8,3.6-1.8c0,0,0,0,0,0
			c5.8,0,11,7.5,13.2,11.9C83.2,94.4,83.7,95.6,83.7,96.9z M82.6,96.9c-0.1-1-0.5-2.1-0.9-2.9c-1.9-3.9-6.9-11.3-12.1-11.3
			c0,0,0,0,0,0c-1.3,0-2.1,0.4-2.5,1.2c-1.2,2.3,1.4,7.8,3,10c2,2.6,4.7,4.6,7.6,5.6c1.2,0.4,2.9,0.8,4-0.1
			C82.3,98.9,82.6,97.9,82.6,96.9z M96.7,74.4c-2.2,0.5-3.7,2.3-4.6,4.2c-0.8,1.9-1.3,4.4,0,6.2c1,1.3,3.1,1.8,4.2,0.4
			c0.1-0.2,0-0.5-0.2-0.4c-1.2,0.3-2.4-0.5-2.9-1.6c-0.4-1.2-0.2-2.6,0.3-3.7c0.8,0.6,2,0.7,2.9,0.8c1.1,0.1,2.4,0.1,3.5,0
			c0.1,0,0.1-0.2,0-0.2c-1.2-0.3-2.3-0.5-3.5-0.8c-0.8-0.2-1.7-0.6-2.5-0.6c0.5-1,1.3-1.9,2.3-2.5c0.9-0.5,2.8-1,3.7-0.1
			c0.1,0.1,0.4,0.1,0.4-0.1C100.8,74.1,97.9,74.1,96.7,74.4z M96.3,70.5c0.3,0,0.2-0.4,0-0.5c-2-0.6-4.2-0.8-6.3-1.2
			c-2.1-0.4-4.2-0.8-6.4-1.2c-0.6-0.1-0.8,0.7-0.2,0.9c1.2,0.5,2.5,0.8,3.7,1.1c-0.5,0.8-0.9,1.6-1.4,2.4c-0.7,1.2-1.3,2.4-2,3.6
			c-0.6,1.1-1.2,2.3-1.8,3.4c-0.4,0.9-1.1,1.9-0.9,2.9c0,0,0,0,0,0c0.1,0.2,0.3,0.3,0.5,0.2c1-0.4,1.4-1.6,1.9-2.5
			c0.6-1.1,1.2-2.3,1.7-3.4c0.5-1.1,1.1-2.2,1.6-3.3c0.5-1,1-2,1.4-3c0.6,0.1,1.2,0.2,1.8,0.3C92.1,70.5,94.2,70.8,96.3,70.5z
			 M68.7,76.3c-0.1-1.1,0.9-2,1.5-2.8c0.5-0.6,0.9-1.2,1.4-1.8c-0.2-0.1-0.1-0.5,0.2-0.5c0.1,0,0.1,0,0.2,0c0.2-0.2,0.3-0.4,0.5-0.6
			c0.8-1,1.7-2.1,2.5-3.1c0.7-0.8,1.3-1.8,2.2-2.3c0.6-0.3,1.1,0.6,0.6,0.9c-0.2,0.2-0.5,0.4-0.7,0.6c0.4,0.8,0.4,1.7,0.5,2.6
			c0,0.8,0.1,1.5,0.1,2.3c1.1,0.2,2.2,0.5,3.3,0.9c0.1,0,0.1,0.2,0,0.2c-1.1,0.1-2.2,0.1-3.2,0c0,0.8,0,1.6-0.1,2.4
			c-0.1,1.1,0,3.2-1.4,3.6c-0.7,0.2-1.4-0.1-1.4-0.8c0-0.1,0.2-0.2,0.2-0.1c0.6,0.4,0.7-2,0.7-2.2c0.1-1,0.2-2,0.3-2.9
			c-1-0.1-1.9-0.3-2.8-0.6c-0.7,0.9-1.4,1.7-2,2.6c-0.6,0.7-1.2,1.6-2.1,1.8C68.8,76.6,68.7,76.5,68.7,76.3z M73.8,71.3
			c0.8,0,1.5,0,2.3,0.1c0.1-0.7,0.1-1.3,0.1-2c0-0.4,0.2-1.2,0.2-1.8c-0.4,0.6-0.8,1.2-1.1,1.6C74.8,69.9,74.3,70.6,73.8,71.3z
			 M64.8,75.1c-1.3-0.6-2.8-1.3-3.9-2.2c-1.2-1.1-0.8-2.8-0.4-4.2c0.4-1.4,0.9-2.8,1.6-4.1c0.7-1.2,1.6-2.3,2.2-3.5
			c0.1-0.3-0.2-0.6-0.5-0.5c-2.9,1.7-4.7,5.9-5.2,9.1c-0.3,1.5-0.2,3.2,1.2,4.2c1.4,1,3.2,1.3,4.9,1.5
			C64.9,75.4,64.9,75.1,64.8,75.1z M55.1,59.5c0.8,2.3,1.8,5.2-0.3,7.2c-1.4,1.4-5.5,3-6.8,0.8c-1.3-2.2,0.9-5,2.5-6.3
			c1.6-1.4,3.8-2.3,5.9-2.4c0.1,0,0.2-0.1,0.2-0.2c-0.9-2.6-6.1,0.8-7.1,1.7c-2.2,1.9-4.5,5.5-2.4,8.3c1.9,2.5,6.1,1.1,8.1-0.6
			C57.6,65.8,56.9,61.9,55.1,59.5C55.1,59.4,55,59.4,55.1,59.5z"/>
	</g>
</g>
</svg>
