<svg xmlns="http://www.w3.org/2000/svg" xmlns:xlink="http://www.w3.org/1999/xlink" width="150" zoomAndPan="magnify" viewBox="0 0 112.5 112.499997" height="150" preserveAspectRatio="xMidYMid meet" version="1.0"><defs><clipPath id="3f232bfffe"><path d="M 35 36 L 96.921875 36 L 96.921875 99 L 35 99 Z M 35 36 " clip-rule="nonzero"/></clipPath><clipPath id="1905b009dd"><path d="M 39 49 L 96.921875 49 L 96.921875 84 L 39 84 Z M 39 49 " clip-rule="nonzero"/></clipPath><clipPath id="4c367a147f"><path d="M 16 13.015625 L 67 13.015625 L 67 60 L 16 60 Z M 16 13.015625 " clip-rule="nonzero"/></clipPath><clipPath id="c19602adf3"><path d="M 15.921875 13.015625 L 96.921875 13.015625 L 96.921875 99.265625 L 15.921875 99.265625 Z M 15.921875 13.015625 " clip-rule="nonzero"/></clipPath></defs><g clip-path="url(#3f232bfffe)"><path fill="#f7a49e" d="M 95.0625 71.886719 C 95.578125 72.621094 96.105469 73.378906 96.300781 74.25 C 96.496094 75.125 96.136719 75.996094 95.539062 76.664062 C 92.4375 80.152344 80.089844 91.390625 73.609375 96.132812 C 69.675781 99.019531 67.492188 99.234375 66.039062 97.632812 C 58.445312 89.261719 51.144531 80.484375 43.554688 72.113281 C 41.207031 69.523438 38.875 66.925781 36.550781 64.316406 C 36.128906 63.839844 35.179688 63.117188 35.0625 62.460938 C 34.941406 61.785156 35.714844 61.097656 36.105469 60.609375 C 37.179688 59.273438 38.375 58.03125 39.664062 56.894531 C 41.496094 55.28125 43.515625 53.898438 45.433594 52.386719 C 50.433594 48.441406 54.703125 43.644531 59.652344 39.632812 C 60.757812 38.738281 61.902344 37.878906 63.183594 37.261719 C 64.011719 36.863281 64.929688 36.5625 65.839844 36.6875 C 66.265625 36.746094 66.683594 36.894531 67.109375 36.855469 C 67.949219 36.777344 67.917969 36.828125 68.347656 37.371094 C 68.78125 37.921875 69.207031 38.523438 69.667969 39.078125 C 70.632812 40.234375 71.597656 41.394531 72.5625 42.554688 C 74.441406 44.8125 76.316406 47.074219 78.171875 49.351562 C 81.746094 53.726562 85.253906 58.160156 88.582031 62.726562 C 89.167969 63.535156 89.75 64.34375 90.324219 65.160156 C 91.902344 67.402344 93.480469 69.644531 95.0625 71.886719 Z M 95.0625 71.886719 " fill-opacity="1" fill-rule="nonzero"/></g><g clip-path="url(#1905b009dd)"><path fill="#e9d1b8" d="M 95.535156 76.664062 C 94.253906 78.105469 91.390625 80.871094 88.015625 83.957031 C 71.519531 79.660156 48.8125 69.3125 48.8125 69.3125 C 48.8125 69.3125 41.039062 60.433594 39.320312 57.199219 C 39.433594 57.097656 39.542969 56.996094 39.660156 56.894531 C 41.492188 55.285156 43.511719 53.898438 45.429688 52.386719 C 46.101562 51.855469 46.761719 51.308594 47.414062 50.75 C 49.71875 49.726562 51.597656 49.007812 51.597656 49.007812 C 51.726562 48.914062 82.925781 57.804688 85.433594 58.519531 C 86.492188 59.914062 87.542969 61.316406 88.574219 62.730469 C 89.160156 63.539062 89.746094 64.347656 90.320312 65.164062 C 91.898438 67.40625 93.480469 69.648438 95.058594 71.890625 C 95.578125 72.621094 96.105469 73.378906 96.300781 74.253906 C 96.496094 75.125 96.132812 75.996094 95.535156 76.664062 Z M 95.535156 76.664062 " fill-opacity="1" fill-rule="nonzero"/></g><path fill="#693729" d="M 87.90625 84.371094 C 71.566406 80.113281 48.863281 69.808594 48.636719 69.703125 L 48.996094 68.921875 C 49.222656 69.027344 71.859375 79.304688 88.128906 83.542969 Z M 87.90625 84.371094 " fill-opacity="1" fill-rule="nonzero"/><path fill="#f5edbe" d="M 66.339844 34.523438 C 68.273438 34.023438 69.558594 35.171875 69.558594 35.171875 C 69.042969 36.714844 68 38.078125 66.648438 38.992188 C 64.714844 40.304688 62.167969 40.722656 60.589844 42.445312 C 60.003906 43.082031 59.597656 43.859375 59.050781 44.527344 C 57.824219 46.039062 55.984375 46.910156 54.1875 47.675781 C 53.109375 48.132812 51.992188 48.585938 51.140625 49.386719 C 50.394531 50.085938 49.898438 51 49.277344 51.808594 C 47.265625 54.429688 44.054688 55.820312 41.550781 57.984375 C 39.691406 59.585938 38.089844 61.703125 35.722656 62.371094 C 34.503906 62.71875 33.015625 62.679688 32.144531 63.601562 C 31.664062 62.261719 31.679688 60.746094 32.199219 59.421875 C 33.3125 56.578125 34.867188 53.640625 37.246094 51.707031 C 39.625 49.773438 42.398438 48.390625 44.992188 46.753906 C 47.203125 45.355469 49.289062 43.765625 51.21875 42.007812 C 53.382812 40.039062 55.371094 37.847656 57.824219 36.257812 C 60.28125 34.667969 63.546875 33.636719 66.339844 34.523438 Z M 72.507812 86.242188 C 73.632812 86.640625 74.996094 86.847656 75.933594 86.113281 C 76.589844 85.597656 76.871094 84.707031 76.828125 83.875 C 76.785156 83.042969 76.457031 82.25 76.089844 81.5 C 74.527344 78.328125 70.660156 72.789062 66.609375 72.78125 C 61.671875 72.773438 65.117188 79.882812 66.617188 81.859375 C 68.109375 83.832031 70.164062 85.402344 72.507812 86.242188 Z M 72.507812 86.242188 " fill-opacity="1" fill-rule="nonzero"/><g clip-path="url(#4c367a147f)"><path fill="#8a4b38" d="M 53.929688 42.214844 C 49.390625 45.488281 46.320312 50.496094 41.667969 53.605469 C 40.421875 54.4375 39.085938 55.117188 37.78125 55.855469 C 35.894531 56.917969 33.90625 58.242188 32.097656 59.429688 C 27.886719 54.539062 20.828125 46.542969 17.097656 41.285156 C 16.742188 40.785156 16.371094 40.230469 16.410156 39.621094 C 16.453125 38.9375 16.980469 38.398438 17.476562 37.929688 C 26.527344 29.375 36.128906 21.398438 46.207031 14.066406 C 46.605469 13.777344 47.050781 13.472656 47.546875 13.5 C 48.097656 13.53125 48.53125 13.957031 48.90625 14.359375 C 54.03125 19.820312 61.90625 28.496094 66.34375 34.523438 C 62.886719 38.105469 57.96875 39.300781 53.929688 42.214844 Z M 53.929688 42.214844 " fill-opacity="1" fill-rule="nonzero"/></g><g clip-path="url(#c19602adf3)"><path fill="#693729" d="M 34.570312 41.292969 C 32.355469 39.03125 29.847656 36.773438 28.171875 34.085938 C 28.070312 33.921875 28.285156 33.675781 28.453125 33.804688 C 30.527344 35.367188 32.21875 37.410156 34.03125 39.265625 C 34.496094 39.738281 34.953125 40.210938 35.417969 40.679688 C 35.757812 41.023438 36.410156 41.933594 36.890625 41.992188 C 37.351562 42.046875 38.09375 41.421875 38.464844 41.167969 C 38.96875 40.824219 39.449219 40.449219 39.90625 40.042969 C 40.699219 39.332031 42.136719 38.207031 42.136719 37.042969 C 42.136719 35.886719 40.917969 34.667969 40.273438 33.789062 C 38.851562 31.855469 37.375 29.957031 35.90625 28.058594 C 35.210938 28.871094 34.511719 29.433594 33.484375 29.9375 C 33.332031 30.015625 33.171875 29.828125 33.300781 29.699219 C 34.0625 28.917969 34.894531 28.003906 35.527344 27.117188 C 35.679688 26.90625 36.03125 26.789062 36.234375 27.027344 C 38.292969 29.464844 40.238281 32.015625 42.074219 34.621094 C 42.769531 35.609375 43.386719 36.714844 42.960938 37.945312 C 42.570312 39.0625 41.542969 40.050781 40.679688 40.816406 C 39.773438 41.621094 38.710938 42.464844 37.5625 42.90625 C 36.226562 43.421875 35.398438 42.136719 34.570312 41.292969 Z M 41.253906 22.710938 C 41.871094 21.976562 42.429688 21.21875 43.136719 20.566406 C 43.773438 19.976562 44.433594 19.429688 45.121094 18.902344 C 45.800781 18.378906 46.492188 17.859375 47.207031 17.382812 C 47.679688 17.066406 48.210938 16.652344 48.8125 16.753906 C 49.378906 16.851562 49.804688 17.394531 50.175781 17.785156 C 50.6875 18.320312 51.136719 18.917969 51.597656 19.496094 C 52.585938 20.726562 53.554688 21.972656 54.46875 23.261719 C 54.960938 23.953125 55.425781 24.667969 55.882812 25.382812 C 56.160156 25.816406 56.425781 26.214844 56.332031 26.75 C 56.230469 27.347656 55.738281 27.839844 55.355469 28.292969 C 54.921875 28.804688 54.453125 29.292969 53.957031 29.75 C 52.960938 30.671875 51.765625 31.613281 50.496094 32.128906 C 49.144531 32.683594 48.503906 31.6875 47.695312 30.75 C 45.527344 28.226562 43.128906 25.734375 41.320312 22.9375 C 41.300781 22.910156 41.296875 22.882812 41.300781 22.859375 C 41.238281 22.84375 41.199219 22.773438 41.253906 22.710938 Z M 41.503906 22.738281 C 41.515625 22.742188 41.53125 22.753906 41.542969 22.761719 C 44.136719 25.078125 46.316406 27.960938 48.570312 30.597656 C 48.84375 30.917969 49.207031 31.546875 49.714844 31.511719 C 49.992188 31.492188 50.355469 31.203125 50.582031 31.0625 C 51.277344 30.621094 51.945312 30.121094 52.566406 29.585938 C 53.082031 29.148438 53.570312 28.6875 54.03125 28.191406 C 54.53125 27.652344 55.417969 26.925781 55.15625 26.171875 C 54.898438 25.441406 54.1875 24.6875 53.757812 24.039062 C 53.347656 23.421875 52.945312 22.796875 52.527344 22.183594 C 51.632812 20.867188 50.644531 19.621094 49.734375 18.316406 C 49.304688 17.699219 49.140625 17.050781 48.113281 17.519531 C 47.828125 17.644531 47.542969 17.96875 47.296875 18.160156 C 46.65625 18.660156 46.011719 19.160156 45.386719 19.679688 C 44.117188 20.742188 42.796875 21.714844 41.503906 22.738281 Z M 95.863281 76.949219 C 92.734375 80.464844 80.449219 91.660156 73.867188 96.480469 C 71.515625 98.207031 69.667969 99.054688 68.199219 99.054688 C 67.21875 99.054688 66.402344 98.675781 65.71875 97.921875 C 58.320312 89.765625 52.027344 82.59375 45.363281 74.996094 C 42.003906 71.164062 38.527344 67.207031 34.8125 63.007812 C 34.777344 63.015625 34.742188 63.019531 34.703125 63.027344 C 33.816406 63.1875 32.984375 63.339844 32.460938 63.890625 L 31.976562 64.402344 L 31.738281 63.746094 C 31.261719 62.425781 31.242188 60.9375 31.675781 59.605469 C 31.097656 58.933594 30.472656 58.210938 29.808594 57.445312 C 25.648438 52.640625 19.953125 46.058594 16.742188 41.535156 C 16.417969 41.078125 15.929688 40.390625 15.976562 39.597656 C 16.027344 38.777344 16.597656 38.171875 17.179688 37.621094 C 26.210938 29.082031 35.890625 21.039062 45.949219 13.722656 C 46.324219 13.449219 46.890625 13.035156 47.566406 13.074219 C 48.328125 13.113281 48.886719 13.710938 49.21875 14.066406 C 52.808594 17.890625 61.609375 27.429688 66.519531 34.046875 C 68.492188 33.671875 69.789062 34.804688 69.847656 34.851562 L 70.058594 35.039062 L 69.96875 35.304688 C 69.710938 36.070312 69.335938 36.789062 68.863281 37.4375 C 69.617188 38.347656 70.363281 39.246094 71.105469 40.136719 C 76.226562 46.289062 81.136719 52.1875 85.691406 58.144531 C 85.703125 58.148438 85.710938 58.148438 85.710938 58.152344 L 85.707031 58.167969 C 87.417969 60.402344 89.074219 62.648438 90.675781 64.917969 L 95.414062 71.640625 C 95.925781 72.367188 96.503906 73.191406 96.722656 74.160156 C 96.929688 75.082031 96.613281 76.101562 95.863281 76.949219 Z M 68.308594 38.121094 C 67.886719 38.582031 67.410156 38.996094 66.890625 39.347656 C 66.082031 39.894531 65.175781 40.292969 64.296875 40.675781 C 63.007812 41.238281 61.792969 41.773438 60.910156 42.734375 C 60.601562 43.070312 60.34375 43.449219 60.074219 43.851562 C 59.859375 44.164062 59.640625 44.492188 59.386719 44.796875 C 58.085938 46.394531 56.1875 47.289062 54.355469 48.066406 L 54.222656 48.125 C 53.707031 48.34375 53.179688 48.566406 52.6875 48.832031 C 52.839844 48.875 53.015625 48.921875 53.210938 48.976562 C 54.101562 49.21875 55.40625 49.578125 57.082031 50.046875 C 59.910156 50.835938 63.839844 51.941406 68.765625 53.335938 C 75.125 55.136719 81.539062 56.960938 84.300781 57.75 C 79.957031 52.113281 75.292969 46.511719 70.441406 40.6875 C 69.734375 39.835938 69.023438 38.980469 68.308594 38.121094 Z M 30.464844 56.878906 C 31.070312 57.578125 31.644531 58.242188 32.175781 58.859375 L 32.421875 58.699219 C 34.113281 57.589844 35.863281 56.441406 37.566406 55.480469 C 37.914062 55.28125 38.265625 55.089844 38.617188 54.898438 C 39.558594 54.382812 40.527344 53.847656 41.425781 53.246094 C 43.808594 51.65625 45.820312 49.503906 47.765625 47.421875 C 48.714844 46.40625 49.679688 45.371094 50.699219 44.386719 C 49.644531 43.476562 48.660156 42.507812 47.640625 41.546875 C 47.300781 41.222656 46.945312 40.800781 46.464844 40.691406 C 45.804688 40.539062 45.464844 40.96875 45.109375 41.390625 C 44.625 41.964844 44.171875 42.558594 43.683594 43.128906 C 43.179688 43.71875 42.675781 44.3125 42.171875 44.898438 C 41.648438 45.507812 40.226562 46.605469 40.578125 47.511719 C 40.695312 47.808594 41.132812 48.140625 41.34375 48.382812 C 41.601562 48.671875 41.855469 48.960938 42.113281 49.253906 C 42.628906 49.835938 43.21875 50.402344 43.570312 51.105469 C 43.613281 51.195312 43.519531 51.308594 43.425781 51.246094 C 42.5 50.675781 41.785156 49.699219 41.046875 48.910156 C 40.574219 48.40625 39.636719 47.757812 39.679688 46.984375 C 39.722656 46.183594 40.675781 45.398438 41.152344 44.824219 C 41.859375 43.96875 42.578125 43.125 43.300781 42.28125 C 44.28125 41.136719 45.488281 39.382812 47.1875 40.324219 C 48.742188 41.183594 50.050781 42.605469 50.988281 44.109375 C 51.835938 43.308594 52.722656 42.550781 53.671875 41.863281 C 54.316406 41.398438 54.988281 40.976562 55.671875 40.578125 C 55.515625 40.421875 55.371094 40.246094 55.21875 40.054688 C 54.730469 39.464844 54.261719 38.859375 53.785156 38.261719 C 53.097656 37.40625 52.277344 36.777344 52.84375 35.660156 C 53.742188 33.886719 55.308594 32.238281 57.171875 31.46875 C 57.714844 31.246094 58.464844 30.960938 59.066406 31.058594 C 59.640625 31.152344 60.140625 31.703125 60.539062 32.078125 C 61.714844 33.183594 63.25 34.535156 63.835938 36.082031 C 64.515625 35.601562 65.164062 35.074219 65.769531 34.476562 C 60.882812 27.90625 52.152344 18.453125 48.585938 14.648438 C 48.253906 14.296875 47.898438 13.949219 47.519531 13.929688 C 47.507812 13.929688 47.492188 13.929688 47.480469 13.929688 C 47.15625 13.929688 46.8125 14.160156 46.457031 14.414062 C 37.617188 20.847656 29.070312 27.84375 20.996094 35.242188 C 22.070312 36.507812 22.988281 37.949219 23.980469 39.269531 C 25.351562 41.089844 26.730469 42.902344 28.121094 44.707031 C 29.515625 46.515625 30.886719 48.351562 32.261719 50.175781 C 33.417969 51.707031 34.492188 53.316406 35.714844 54.792969 C 35.765625 54.855469 35.679688 54.945312 35.621094 54.882812 C 32.820312 51.820312 30.046875 48.78125 27.484375 45.5 C 26.054688 43.664062 24.644531 41.8125 23.269531 39.9375 C 22.296875 38.617188 21.175781 37.269531 20.355469 35.832031 C 19.488281 36.628906 18.625 37.433594 17.769531 38.238281 C 17.296875 38.6875 16.867188 39.132812 16.839844 39.644531 C 16.808594 40.097656 17.109375 40.5625 17.445312 41.035156 C 20.636719 45.527344 26.316406 52.089844 30.464844 56.878906 Z M 58.972656 38.835938 C 60.617188 38.011719 62.203125 37.210938 63.652344 36.214844 C 62.398438 35.5625 61.527344 34.191406 60.585938 33.183594 C 60.1875 32.753906 59.726562 32.171875 59.195312 31.898438 C 58.714844 31.648438 58.167969 31.898438 57.714844 32.132812 C 56.167969 32.9375 54.851562 34.199219 53.921875 35.660156 C 53.824219 35.8125 53.597656 36.058594 53.566406 36.242188 C 53.496094 36.648438 53.828125 36.957031 54.046875 37.242188 C 54.378906 37.675781 54.710938 38.113281 55.039062 38.546875 C 55.4375 39.066406 55.988281 39.613281 56.292969 40.230469 C 57.183594 39.734375 58.085938 39.28125 58.972656 38.835938 Z M 34.546875 62.183594 C 34.921875 62.113281 35.273438 62.050781 35.605469 61.957031 C 37.257812 61.488281 38.511719 60.273438 39.84375 58.984375 C 40.304688 58.539062 40.78125 58.078125 41.269531 57.65625 C 42.238281 56.820312 43.316406 56.09375 44.363281 55.386719 C 46.09375 54.222656 47.730469 53.117188 48.933594 51.546875 C 49.132812 51.289062 49.328125 51.007812 49.511719 50.738281 C 49.90625 50.164062 50.3125 49.574219 50.84375 49.074219 C 51.003906 48.925781 51.175781 48.789062 51.347656 48.660156 C 51.367188 48.644531 51.386719 48.628906 51.40625 48.621094 C 52.167969 48.070312 53.035156 47.695312 53.886719 47.339844 L 54.019531 47.28125 C 55.75 46.542969 57.539062 45.707031 58.71875 44.261719 C 58.945312 43.980469 59.144531 43.6875 59.359375 43.371094 C 59.636719 42.964844 59.921875 42.539062 60.273438 42.160156 C 61.277344 41.0625 62.636719 40.464844 63.953125 39.890625 C 64.792969 39.523438 65.664062 39.144531 66.40625 38.640625 C 67.601562 37.832031 68.527344 36.664062 69.046875 35.328125 C 68.648438 35.074219 67.757812 34.644531 66.5625 34.917969 C 64.484375 37.03125 61.882812 38.339844 59.363281 39.605469 C 57.617188 40.484375 55.808594 41.390625 54.183594 42.5625 C 52.046875 44.109375 50.191406 46.089844 48.402344 48.007812 C 46.421875 50.125 44.375 52.316406 41.910156 53.960938 C 40.980469 54.582031 39.992188 55.125 39.039062 55.648438 C 38.691406 55.839844 38.339844 56.03125 37.996094 56.226562 C 36.316406 57.175781 34.578125 58.316406 32.902344 59.417969 L 32.589844 59.625 C 32.199219 60.644531 32.128906 61.792969 32.378906 62.859375 C 33.015625 62.460938 33.792969 62.320312 34.546875 62.183594 Z M 95.878906 74.34375 C 95.699219 73.539062 95.195312 72.824219 94.707031 72.132812 L 89.96875 65.40625 C 88.425781 63.21875 86.824219 61.050781 85.175781 58.890625 C 76.125 56.308594 53.90625 49.996094 51.707031 49.464844 C 51.613281 49.539062 51.523438 49.617188 51.433594 49.695312 C 50.972656 50.132812 50.609375 50.660156 50.226562 51.21875 C 50.035156 51.496094 49.835938 51.789062 49.621094 52.066406 C 48.378906 53.683594 46.691406 54.851562 45.039062 55.964844 C 44.613281 56.914062 44.386719 57.910156 44.761719 58.945312 C 45.210938 60.1875 46.449219 61.109375 47.75 61.230469 C 47.863281 61.238281 47.859375 61.386719 47.75 61.398438 C 46.125 61.589844 44.539062 60.84375 43.878906 59.3125 C 43.550781 58.542969 43.507812 57.640625 43.753906 56.839844 C 43.089844 57.300781 42.433594 57.78125 41.832031 58.300781 C 41.523438 58.574219 41.210938 58.859375 40.90625 59.152344 C 42.382812 60.671875 43.640625 62.429688 44.996094 64.050781 C 46.417969 65.757812 47.859375 67.453125 49.316406 69.136719 C 52.28125 72.566406 55.242188 75.980469 58.136719 79.464844 C 58.179688 79.515625 58.109375 79.582031 58.0625 79.539062 C 54.671875 76.445312 51.523438 73.164062 48.507812 69.710938 C 47.007812 67.992188 45.539062 66.25 44.089844 64.488281 C 42.816406 62.941406 41.425781 61.402344 40.328125 59.710938 C 39.015625 60.980469 37.648438 62.269531 35.839844 62.78125 C 35.820312 62.789062 35.800781 62.792969 35.777344 62.800781 C 39.375 66.863281 42.746094 70.710938 46.011719 74.433594 C 52.671875 82.027344 58.964844 89.199219 66.359375 97.34375 C 67.320312 98.40625 68.90625 99.050781 73.351562 95.792969 C 79.765625 91.09375 92.183594 79.789062 95.214844 76.382812 C 95.78125 75.742188 96.023438 75 95.878906 74.34375 Z M 29.6875 33.148438 C 30.144531 32.992188 30.492188 32.609375 30.824219 32.277344 C 31.15625 31.945312 31.511719 31.578125 31.789062 31.195312 C 31.847656 31.117188 31.738281 31.042969 31.667969 31.074219 C 31.445312 31.175781 31.261719 31.308594 31.058594 31.433594 C 30.832031 31.574219 30.59375 31.675781 30.371094 31.824219 C 30 32.070312 29.574219 32.308594 29.34375 32.699219 C 29.210938 32.917969 29.425781 33.234375 29.6875 33.148438 Z M 73.292969 92.347656 C 72.265625 92.296875 71.277344 92.226562 70.304688 91.855469 C 69.242188 91.445312 68.347656 90.722656 67.511719 89.972656 C 65.828125 88.453125 64.261719 86.871094 62.476562 85.472656 C 62.410156 85.417969 62.324219 85.5 62.382812 85.570312 C 63.988281 87.601562 65.753906 89.683594 67.777344 91.332031 C 69.203125 92.492188 71.589844 93.789062 73.324219 92.464844 C 73.375 92.429688 73.363281 92.347656 73.292969 92.347656 Z M 79.191406 76.78125 C 79.195312 76.835938 79.203125 76.886719 79.207031 76.941406 C 79.207031 76.945312 79.214844 76.945312 79.214844 76.941406 C 79.210938 76.886719 79.207031 76.835938 79.199219 76.78125 C 79.199219 76.777344 79.191406 76.777344 79.191406 76.78125 Z M 77.257812 83.851562 C 77.316406 84.914062 76.921875 85.886719 76.203125 86.449219 C 75.710938 86.839844 75.082031 87.03125 74.351562 87.03125 C 73.753906 87.03125 73.089844 86.902344 72.363281 86.644531 C 70.011719 85.804688 67.847656 84.199219 66.269531 82.117188 C 65.257812 80.78125 62.722656 76.125 63.933594 73.71875 C 64.246094 73.09375 64.964844 72.351562 66.601562 72.351562 C 66.605469 72.351562 66.609375 72.351562 66.609375 72.351562 C 70.925781 72.355469 74.839844 77.984375 76.476562 81.3125 C 76.835938 82.042969 77.210938 82.914062 77.257812 83.851562 Z M 76.394531 83.898438 C 76.355469 83.113281 76.019531 82.339844 75.699219 81.6875 C 74.257812 78.757812 70.503906 73.214844 66.609375 73.207031 C 66.609375 73.207031 66.605469 73.207031 66.601562 73.207031 C 65.628906 73.207031 65.007812 73.5 64.707031 74.105469 C 63.820312 75.859375 65.730469 79.980469 66.960938 81.601562 C 68.4375 83.550781 70.460938 85.054688 72.65625 85.835938 C 73.574219 86.164062 74.847656 86.421875 75.664062 85.777344 C 76.15625 85.390625 76.4375 84.671875 76.394531 83.898438 Z M 86.988281 67.027344 C 85.367188 67.425781 84.191406 68.726562 83.554688 70.210938 C 82.964844 71.601562 82.574219 73.539062 83.589844 74.84375 C 84.332031 75.796875 85.917969 76.191406 86.761719 75.15625 C 86.871094 75.023438 86.773438 74.816406 86.589844 74.863281 C 85.695312 75.085938 84.769531 74.511719 84.449219 73.667969 C 84.117188 72.785156 84.320312 71.75 84.648438 70.878906 C 85.21875 71.34375 86.125 71.421875 86.828125 71.492188 C 87.679688 71.574219 88.605469 71.59375 89.449219 71.464844 C 89.523438 71.449219 89.515625 71.339844 89.449219 71.324219 C 88.574219 71.101562 87.703125 70.9375 86.832031 70.691406 C 86.222656 70.523438 85.566406 70.226562 84.925781 70.246094 C 85.316406 69.472656 85.890625 68.792969 86.675781 68.386719 C 87.332031 68.046875 88.800781 67.648438 89.417969 68.292969 C 89.519531 68.402344 89.722656 68.351562 89.753906 68.207031 C 90.058594 66.8125 87.863281 66.8125 86.988281 67.027344 Z M 86.667969 64.09375 C 86.859375 64.066406 86.828125 63.785156 86.667969 63.738281 C 85.144531 63.277344 83.503906 63.117188 81.941406 62.828125 C 80.34375 62.53125 78.753906 62.222656 77.160156 61.933594 C 76.710938 61.855469 76.546875 62.453125 76.972656 62.609375 C 77.886719 62.949219 78.816406 63.226562 79.761719 63.453125 C 79.382812 64.023438 79.078125 64.648438 78.734375 65.238281 C 78.21875 66.117188 77.738281 67.019531 77.265625 67.921875 C 76.816406 68.773438 76.359375 69.621094 75.925781 70.480469 C 75.589844 71.15625 75.105469 71.917969 75.261719 72.683594 C 75.265625 72.683594 75.269531 72.683594 75.269531 72.683594 C 75.316406 72.839844 75.492188 72.9375 75.675781 72.851562 C 76.394531 72.527344 76.742188 71.628906 77.085938 70.960938 C 77.527344 70.101562 77.960938 69.238281 78.390625 68.378906 C 78.796875 67.566406 79.203125 66.75 79.578125 65.925781 C 79.921875 65.175781 80.339844 64.429688 80.605469 63.644531 C 81.0625 63.734375 81.519531 63.816406 81.980469 63.886719 C 83.5 64.105469 85.136719 64.3125 86.667969 64.09375 Z M 65.941406 68.433594 C 65.902344 67.617188 66.625 66.914062 67.097656 66.300781 C 67.441406 65.855469 67.785156 65.417969 68.132812 64.980469 C 68.015625 64.875 68.082031 64.628906 68.269531 64.636719 C 68.3125 64.636719 68.359375 64.640625 68.402344 64.640625 C 68.519531 64.496094 68.636719 64.347656 68.75 64.203125 C 69.382812 63.417969 70.007812 62.621094 70.648438 61.84375 C 71.140625 61.246094 71.613281 60.5 72.328125 60.152344 C 72.804688 59.917969 73.1875 60.566406 72.742188 60.859375 C 72.558594 60.984375 72.382812 61.148438 72.21875 61.339844 C 72.527344 61.902344 72.542969 62.632812 72.585938 63.261719 C 72.621094 63.828125 72.648438 64.394531 72.660156 64.964844 C 73.492188 65.128906 74.320312 65.328125 75.117188 65.617188 C 75.21875 65.652344 75.195312 65.789062 75.09375 65.796875 C 74.289062 65.871094 73.472656 65.863281 72.660156 65.820312 C 72.652344 66.417969 72.625 67.015625 72.566406 67.605469 C 72.484375 68.460938 72.535156 69.992188 71.5 70.320312 C 71 70.480469 70.484375 70.230469 70.445312 69.695312 C 70.441406 69.601562 70.558594 69.578125 70.621094 69.625 C 71.042969 69.953125 71.148438 68.113281 71.167969 67.941406 C 71.253906 67.207031 71.324219 66.464844 71.410156 65.730469 C 70.675781 65.660156 69.984375 65.476562 69.292969 65.289062 C 68.785156 65.941406 68.277344 66.59375 67.757812 67.234375 C 67.320312 67.765625 66.882812 68.464844 66.167969 68.605469 C 66.046875 68.625 65.945312 68.550781 65.941406 68.433594 Z M 69.785156 64.648438 C 70.355469 64.648438 70.925781 64.664062 71.507812 64.753906 C 71.554688 64.257812 71.589844 63.761719 71.617188 63.257812 C 71.636719 62.929688 71.761719 62.390625 71.78125 61.910156 C 71.484375 62.339844 71.214844 62.792969 70.953125 63.132812 C 70.5625 63.636719 70.175781 64.144531 69.785156 64.648438 Z M 63.035156 67.507812 C 62.054688 67.058594 60.914062 66.566406 60.109375 65.832031 C 59.210938 65.007812 59.503906 63.753906 59.777344 62.703125 C 60.050781 61.644531 60.460938 60.621094 60.988281 59.664062 C 61.488281 58.75 62.160156 57.945312 62.628906 57.015625 C 62.738281 56.800781 62.511719 56.542969 62.285156 56.671875 C 60.089844 57.9375 58.792969 61.101562 58.394531 63.480469 C 58.203125 64.613281 58.269531 65.90625 59.296875 66.640625 C 60.324219 67.375 61.734375 67.632812 62.96875 67.753906 C 63.097656 67.765625 63.15625 67.5625 63.035156 67.507812 Z M 55.742188 55.832031 C 56.367188 57.59375 57.101562 59.695312 55.542969 61.226562 C 54.496094 62.25 51.394531 63.476562 50.417969 61.847656 C 49.425781 60.199219 51.082031 58.132812 52.304688 57.105469 C 53.507812 56.089844 55.125 55.355469 56.707031 55.320312 C 56.777344 55.320312 56.84375 55.246094 56.820312 55.171875 C 56.140625 53.234375 52.28125 55.789062 51.480469 56.476562 C 49.839844 57.894531 48.117188 60.617188 49.699219 62.671875 C 51.144531 64.550781 54.269531 63.511719 55.761719 62.203125 C 57.625 60.5625 57.132812 57.613281 55.816406 55.804688 C 55.792969 55.769531 55.726562 55.785156 55.742188 55.832031 Z M 55.742188 55.832031 " fill-opacity="1" fill-rule="nonzero"/></g></svg>