<?xml version="1.0" encoding="utf-8"?>
<!-- Generator: Adobe Illustrator 27.1.1, SVG Export Plug-In . SVG Version: 6.00 Build 0)  -->
<svg version="1.1" id="Lager_1" xmlns="http://www.w3.org/2000/svg" xmlns:xlink="http://www.w3.org/1999/xlink" x="0px" y="0px"
	 viewBox="0 0 65.2 86.4" style="enable-background:new 0 0 65.2 86.4;" xml:space="preserve">
<style type="text/css">
	.st0{clip-path:url(#SVGID_00000110438540507542239770000009039502270693030827_);}
	.st1{fill:#E9D1B8;}
	.st2{clip-path:url(#SVGID_00000089575548642246459890000007148574326273708963_);}
	.st3{fill:#DEBA94;}
	.st4{fill:#F2E3D4;}
</style>
<g>
	<defs>
		<rect id="SVGID_1_" x="1.2" y="0.5" width="62" height="84"/>
	</defs>
	<clipPath id="SVGID_00000119836184393862729090000005734517723669031822_">
		<use xlink:href="#SVGID_1_"  style="overflow:visible;"/>
	</clipPath>
	<g style="clip-path:url(#SVGID_00000119836184393862729090000005734517723669031822_);">
		<path class="st1" d="M63.2,49.6c0,23.2-13.9,35-31,35s-31-11.8-31-35s13.9-49,31-49S63.2,26.4,63.2,49.6z"/>
	</g>
</g>
<g>
	<defs>
		<rect id="SVGID_00000178181475562020385650000010162971691960983742_" x="1.2" y="1" width="55.1" height="83.6"/>
	</defs>
	<clipPath id="SVGID_00000042700943526795908670000012327124963617912195_">
		<use xlink:href="#SVGID_00000178181475562020385650000010162971691960983742_"  style="overflow:visible;"/>
	</clipPath>
	<g style="clip-path:url(#SVGID_00000042700943526795908670000012327124963617912195_);">
		<path class="st3" d="M43.4,76.1c-17.1,0-31-11.8-31-35c0-14.4,5.3-29.7,13.4-39.4C11.8,7.1,1.2,29.3,1.2,49.6
			c0,23.2,13.9,35,31,35c9.5,0,18-3.6,23.7-10.8C52.1,75.3,47.9,76.1,43.4,76.1z"/>
	</g>
</g>
<path class="st4" d="M40.7,18c-1.6,1-3.8,0.4-4.9-1.2c-1.6-2.6-3.2-5.2-4.8-7.8c-0.9-1.7-0.4-3.9,1.2-4.9c1.6-0.9,4.7-1.2,6.6,0
	c1.3,1,2.4,2.2,3.3,3.6c0.9,1.4,1.4,2.9,1.7,4.5C44,14.4,42.2,17,40.7,18L40.7,18z"/>
</svg>
