<svg xmlns="http://www.w3.org/2000/svg" xmlns:xlink="http://www.w3.org/1999/xlink" width="150" zoomAndPan="magnify" viewBox="0 0 112.5 112.499997" height="150" preserveAspectRatio="xMidYMid meet" version="1.0"><defs><clipPath id="0171e33130"><path d="M 31.640625 26.664062 L 78.140625 26.664062 L 78.140625 89.664062 L 31.640625 89.664062 Z M 31.640625 26.664062 " clip-rule="nonzero"/></clipPath><clipPath id="fad893e84c"><path d="M 31.640625 27 L 73 27 L 73 89.664062 L 31.640625 89.664062 Z M 31.640625 27 " clip-rule="nonzero"/></clipPath></defs><g clip-path="url(#0171e33130)"><path fill="#e9d1b8" d="M 78.144531 63.429688 C 78.144531 80.824219 67.734375 89.660156 54.894531 89.660156 C 42.054688 89.660156 31.648438 80.824219 31.648438 63.429688 C 31.648438 46.035156 42.058594 26.671875 54.894531 26.671875 C 67.730469 26.671875 78.144531 46.035156 78.144531 63.429688 Z M 78.144531 63.429688 " fill-opacity="1" fill-rule="nonzero"/></g><g clip-path="url(#fad893e84c)"><path fill="#deba94" d="M 63.296875 83.308594 C 50.457031 83.308594 40.050781 74.476562 40.050781 57.082031 C 40.050781 46.308594 44.042969 34.78125 50.132812 27.566406 C 39.574219 31.5625 31.644531 48.246094 31.644531 63.429688 C 31.644531 80.824219 42.054688 89.65625 54.890625 89.65625 C 62.023438 89.65625 68.40625 86.925781 72.667969 81.519531 C 69.804688 82.707031 66.636719 83.308594 63.296875 83.308594 Z M 63.296875 83.308594 " fill-opacity="1" fill-rule="nonzero"/></g><path fill="#f2e3d4" d="M 61.207031 39.742188 C 60.035156 40.472656 58.359375 40.078125 57.507812 38.859375 C 56.308594 36.921875 55.113281 34.984375 53.914062 33.046875 C 53.207031 31.742188 53.617188 30.085938 54.808594 29.390625 C 55.992188 28.695312 58.367188 28.457031 59.722656 29.367188 C 60.722656 30.101562 61.542969 30.992188 62.195312 32.042969 C 62.84375 33.09375 63.269531 34.222656 63.476562 35.4375 C 63.675781 37.042969 62.375 39.019531 61.210938 39.742188 Z M 61.207031 39.742188 " fill-opacity="1" fill-rule="nonzero"/></svg>