<?xml version="1.0" encoding="utf-8"?>
<!-- Generator: Adobe Illustrator 27.1.1, SVG Export Plug-In . SVG Version: 6.00 Build 0)  -->
<svg version="1.1" id="Lager_1" xmlns="http://www.w3.org/2000/svg" xmlns:xlink="http://www.w3.org/1999/xlink" x="0px" y="0px"
	 viewBox="0 0 115.4 125.8" style="enable-background:new 0 0 115.4 125.8;" xml:space="preserve">
<style type="text/css">
	.st0{clip-path:url(#SVGID_00000139258276520819922070000003014727993174452150_);}
	.st1{fill:#A6A6A6;}
	.st2{fill:#36342F;}
	.st3{clip-path:url(#SVGID_00000097466163733257906450000017801803894932070799_);}
	.st4{fill:#F0C642;}
	.st5{fill:#F2F2F2;}
	.st6{fill:#D9D9D9;}
</style>
<g>
	<defs>
		<rect id="SVGID_1_" x="1.2" y="46.3" width="112.4" height="78.4"/>
	</defs>
	<clipPath id="SVGID_00000052083202604035185370000013396137426738016691_">
		<use xlink:href="#SVGID_1_"  style="overflow:visible;"/>
	</clipPath>
	<g style="clip-path:url(#SVGID_00000052083202604035185370000013396137426738016691_);">
		<path class="st1" d="M7.7,55.2c0-0.5,2.3-3.7,2.3-3.7s6.6-3.8,7.1-3.9s43.7,1,46.9,0.7c3.2-0.4,32.7-0.8,33.2-0.7
			c0.5,0.1,7.5,4.5,7.5,5.6c0,1.1,0.1,4.6,0,5.2c-0.1,0.7-1.8,4.8-1.8,4.8s5.7,13.7,5.8,14.4c0.1,0.7,2.6,24.3,2.7,25.5
			c0.1,1.1-1.3,9.3-1.3,9.3s2.5,1.7,2.5,2.2c0,0.6-0.9,2.4-0.9,2.4l-7.7,0.5L86.5,121c0,0-20.4,3.3-24,3.5
			c-3.6,0.2-39.9-1.7-40.5-1.7c-0.6-0.1-17.2-4-17.2-4s-3.7-2.3-3.7-2.7c0-0.7,1.4-4.5,1.4-4.5l3.2-3.8c0,0-1.4-12-1.4-13.6
			S6.9,74.6,7,73.8c0.1-0.8,3.2-10.3,3.2-10.3S9.1,61.3,9,61.1C9,60.9,7.7,55.5,7.7,55.2z"/>
	</g>
</g>
<path class="st2" d="M34.1,71.6l14.3,0.7l28.5-2.7l22.2-6l-14.2,6.8l-14.1,4.1l-30.4,0.8l-10.4-2.9l-13.2-7.6L34.1,71.6z"/>
<path class="st2" d="M25.2,84.3l0.5,10.9l-0.8,11.1l3.5-0.1l-0.1-12l4.2-0.3l0.1-1.9l-3.2-0.2l-1.1-0.1l-0.2-4.2l4.8,0.2l0.4-1.5
	l0.1-1.1l-6.3-0.4L25.2,84.3z"/>
<path class="st2" d="M35.3,86l0.5,11l-0.3,9.8h4.1l6-0.5l-0.4-2.9l-3.3,0.5h-3.5l-0.5-11l0.3-6.9H35.3z"/>
<path class="st2" d="M55.4,88.6c-1-0.6-3.4-1.9-4-1.9c-0.6,0-3.3,1.9-3.3,1.9s-1.3,5.4-1.3,5.9c0,0.5,0.1,6.5,0.9,9.2
	c0.1,0.4,2.1,3.2,2.3,3.3c0.2,0.1,4.4,0.1,4.9,0c0.5-0.1,4-3.6,4-4.1c0-0.5-0.2-8.5-0.4-9C58.5,93.4,56.4,89.2,55.4,88.6z
	 M56.4,101.9c-0.1,0.7-1.9,2.3-2.4,2.5c-0.5,0.2-2.8,0-3-0.3c-1.1-1.9-1.6-9.5-1.5-10c0.2-0.5,0.9-2.8,1.3-3.4
	c0.2-0.3,1.3-0.6,1.6-0.6s2.7,1.8,2.9,2.1C55.8,93.3,56.5,100.8,56.4,101.9z"/>
<path class="st2" d="M60.3,86.2L61,96.6c0,0,1.3,7.1,1.5,7.5c0.2,0.4,2.1,1.4,2.1,1.4s2.4,0.2,3.1,0.2c0.7-0.1,3.4-1,3.8-1.2
	c0.4-0.2,1.7-2.3,1.7-2.8l-0.7-9.7l-1-7.5l-2.5,0.5l0.4,5.6l1.1,8.1c0,0-0.1,2.8-0.2,3.1c-0.1,0.4-1.8,1.1-1.8,1.1l-1.9,0.3
	c0,0-2.1-0.4-2.3-0.9c-0.2-0.5-1.1-8.1-1.1-8.1l0.1-8.2L60.3,86.2z"/>
<path class="st2" d="M74.7,85.4l1.6,9.9l0.5,9l3.1-0.3l-0.6-2.6l-1.6-12.2c0,0,3.3-3.2,3.9-3.2c0.6,0,3.3,0.1,3.6,0.5
	c0.2,0.2,0.6,2.5,0.5,2.9c-0.1,0.7-1.1,2.4-1.4,2.7c-0.3,0.3-4.1,1.5-4.1,1.5l-0.7,1.6l3.9,2.1l3.1,3.1l1.1,2.8l3.5-0.3l-4.4-6.2
	l-3.4-2.1c0,0,3.4-1.2,3.8-1.6c0.4-0.4,1.3-3.7,1.3-3.7s-0.4-2.9-0.7-3.5c-0.2-0.6-2.6-2.5-2.6-2.5s-4.2,0-4.5,0s-3.4,2.4-3.4,2.4
	l-0.1-1.8l-2.8,0.8L74.7,85.4z"/>
<g>
	<defs>
		<rect id="SVGID_00000055688878953850284870000013150654605373169059_" x="70.9" y="0.9" width="43.3" height="45.3"/>
	</defs>
	<clipPath id="SVGID_00000168819963008602779570000002113069322596126367_">
		<use xlink:href="#SVGID_00000055688878953850284870000013150654605373169059_"  style="overflow:visible;"/>
	</clipPath>
	<g style="clip-path:url(#SVGID_00000168819963008602779570000002113069322596126367_);">
		<path class="st4" d="M110.2,1.2C109,0.7,104,1.8,104,1.8S92.1,17.2,90.1,19.2C88.9,20.3,84.5,32,84.5,32l-6.1,1.1L72,35.8L93,45
			l0.2-6.7l-2-3.9c0,0,4.9-9.7,5.4-10.5c0.8-1.5,9.8-12,9.8-12s7.9-6.4,7.9-7.1C114.1,4.2,111.5,1.7,110.2,1.2z M108.8,5.7
			c-0.1,0.2-1.2,1.3-1.6,1.4c-0.2,0.1-1.7,0.2-1.9,0.2c-0.2-0.1-0.8-0.9-0.8-1.2c0-0.2,0.7-1.5,0.8-1.6c0.3-0.3,0.6-0.5,1-0.7
			c0.4-0.1,0.8-0.1,1.2-0.1c0,0,1.2,0.6,1.3,0.7C108.9,4.8,108.9,5.3,108.8,5.7z"/>
	</g>
</g>
<path class="st5" d="M19.4,44.4c0.9-0.9,13.8-9.7,14.7-10c0.7-0.3,20.2-7.7,21-7.9c0.8-0.2,6,0.1,7.7,0.6c2,0.6,12.6,6.7,12.6,6.7
	l12.1,4.5c0,0,5.5,3.3,7.1,4.8c0.7,0.7,4.9,9.3,4.9,9.3L81.8,59l-34.2,4.6l-25.4-4.9l-7-3.5C15.2,55.2,18.5,45.2,19.4,44.4z"/>
<path class="st6" d="M62.3,32.6l7.4,4.1l4.9,1.5l5.5,3.6l4.7,5.7l-8.3-6.2l-6.9-2.9L62.3,32.6z"/>
<path class="st6" d="M31.3,47.9l6.1-2.3l7.3-0.5l-9.9,3l-6.4,3.9L31.3,47.9z"/>
<path class="st6" d="M15.2,55.2l0.6-1.9l3.4,2.4l5.6,1.7c0,0,16.8,3.6,19,3.9c3.7,0.5,30.6-2.6,30.6-2.6l14.2-3.1l10.2-4.5l0.6,1.3
	L81.8,59l-34.2,4.6l-25.4-4.9L15.2,55.2z"/>
<path class="st2" d="M9.3,108.4l4,4.9l4.4,3.3l-4.3-1.2l-3.9-3.7L9.3,108.4z"/>
<path class="st2" d="M107.8,99.6c0,0-0.6,6.2-0.8,6.9c-0.2,0.8-4.5,5-4.5,5l-5.9,2.8l6.7-1.2l3.1-2.2c0,0,2.2-5.8,2.2-6.6
	C108.6,103.6,107.8,99.6,107.8,99.6z"/>
<path class="st2" d="M8.5,101.5l1,4.2l4.1,6.1l-0.7-3l-3.1-6.1L9,95.3L8.5,101.5z"/>
</svg>
