<svg xmlns="http://www.w3.org/2000/svg" xmlns:xlink="http://www.w3.org/1999/xlink" width="150" zoomAndPan="magnify" viewBox="0 0 112.5 112.499997" height="150" preserveAspectRatio="xMidYMid meet" version="1.0"><defs><clipPath id="26b907fb77"><path d="M 13.691406 44 L 98 44 L 98 102.808594 L 13.691406 102.808594 Z M 13.691406 44 " clip-rule="nonzero"/></clipPath><clipPath id="a090149463"><path d="M 66 10 L 98.441406 10 L 98.441406 44 L 66 44 Z M 66 10 " clip-rule="nonzero"/></clipPath></defs><g clip-path="url(#26b907fb77)"><path fill="#a6a6a6" d="M 18.59375 50.675781 C 18.605469 50.289062 20.324219 47.898438 20.324219 47.898438 C 20.324219 47.898438 25.238281 45.019531 25.613281 44.949219 C 25.988281 44.878906 58.378906 45.714844 60.804688 45.4375 C 63.230469 45.15625 85.363281 44.859375 85.710938 44.949219 C 86.0625 45.035156 91.371094 48.316406 91.371094 49.15625 C 91.371094 49.996094 91.441406 52.589844 91.371094 53.046875 C 91.289062 53.585938 90.023438 56.660156 90.023438 56.660156 C 90.023438 56.660156 94.320312 66.914062 94.375 67.425781 C 94.429688 67.941406 96.351562 85.679688 96.414062 86.515625 C 96.472656 87.347656 95.414062 93.507812 95.414062 93.507812 C 95.414062 93.507812 97.257812 94.753906 97.257812 95.183594 C 97.257812 95.613281 96.597656 96.992188 96.597656 96.992188 L 90.835938 97.390625 L 77.695312 100.050781 C 77.695312 100.050781 62.414062 102.53125 59.730469 102.667969 C 57.046875 102.808594 29.796875 101.414062 29.367188 101.359375 C 28.933594 101.304688 16.476562 98.324219 16.476562 98.324219 C 16.476562 98.324219 13.734375 96.566406 13.734375 96.308594 C 13.734375 95.796875 14.8125 92.9375 14.8125 92.9375 L 17.191406 90.085938 C 17.191406 90.085938 16.164062 81.050781 16.164062 79.902344 C 16.164062 78.753906 17.980469 65.238281 18.046875 64.675781 C 18.109375 64.113281 20.441406 56.929688 20.441406 56.929688 C 20.441406 56.929688 19.617188 55.296875 19.582031 55.140625 C 19.542969 54.988281 18.585938 50.917969 18.59375 50.675781 Z M 18.59375 50.675781 " fill-opacity="1" fill-rule="nonzero"/></g><path fill="#36342f" d="M 38.335938 63.015625 L 49.035156 63.527344 L 70.433594 61.523438 L 87.058594 57.019531 L 76.429688 62.089844 L 65.875 65.199219 L 43.070312 65.820312 L 35.25 63.632812 L 25.328125 57.964844 Z M 38.335938 63.015625 " fill-opacity="1" fill-rule="nonzero"/><path fill="#36342f" d="M 31.671875 72.539062 L 32.03125 80.707031 L 31.433594 89.011719 L 34.089844 88.910156 L 33.984375 79.886719 L 37.15625 79.664062 L 37.261719 78.21875 L 34.871094 78.046875 L 34.058594 77.96875 L 33.910156 74.800781 L 37.496094 74.949219 L 37.78125 73.859375 L 37.839844 73.054688 L 33.125 72.757812 Z M 31.671875 72.539062 " fill-opacity="1" fill-rule="nonzero"/><path fill="#36342f" d="M 39.246094 73.800781 L 39.625 82.023438 L 39.433594 89.40625 L 42.519531 89.40625 L 47.054688 89 L 46.742188 86.847656 L 44.285156 87.226562 L 41.640625 87.226562 L 41.261719 78.992188 L 41.511719 73.800781 Z M 39.246094 73.800781 " fill-opacity="1" fill-rule="nonzero"/><path fill="#36342f" d="M 54.378906 75.773438 C 53.644531 75.328125 51.851562 74.378906 51.410156 74.378906 C 50.96875 74.378906 48.960938 75.839844 48.960938 75.839844 C 48.960938 75.839844 47.996094 79.878906 47.996094 80.273438 C 47.996094 80.667969 48.101562 85.171875 48.664062 87.175781 C 48.753906 87.492188 50.207031 89.539062 50.371094 89.648438 C 50.53125 89.757812 53.683594 89.738281 54.082031 89.648438 C 54.480469 89.554688 57.046875 86.921875 57.046875 86.542969 C 57.046875 86.167969 56.886719 80.183594 56.769531 79.757812 C 56.652344 79.332031 55.117188 76.21875 54.378906 75.773438 Z M 55.085938 85.722656 C 55.027344 86.222656 53.65625 87.417969 53.261719 87.589844 C 52.871094 87.765625 51.160156 87.574219 51.03125 87.355469 C 50.203125 85.957031 49.820312 80.203125 49.941406 79.835938 C 50.066406 79.464844 50.617188 77.742188 50.890625 77.296875 C 51.054688 77.039062 51.882812 76.867188 52.117188 76.867188 C 52.351562 76.867188 54.167969 78.242188 54.28125 78.476562 C 54.667969 79.257812 55.1875 84.914062 55.085938 85.722656 Z M 55.085938 85.722656 " fill-opacity="1" fill-rule="nonzero"/><path fill="#36342f" d="M 57.992188 73.949219 L 58.554688 81.726562 C 58.554688 81.726562 59.511719 87.039062 59.660156 87.316406 C 59.808594 87.59375 61.25 88.34375 61.25 88.34375 C 61.25 88.34375 63.035156 88.511719 63.539062 88.476562 C 64.042969 88.4375 66.089844 87.703125 66.359375 87.539062 C 66.632812 87.378906 67.648438 85.789062 67.628906 85.445312 L 67.101562 78.148438 L 66.363281 72.535156 L 64.496094 72.90625 L 64.824219 77.09375 L 65.644531 83.179688 C 65.644531 83.179688 65.605469 85.253906 65.507812 85.523438 C 65.40625 85.796875 64.144531 86.351562 64.144531 86.351562 L 62.726562 86.585938 C 62.726562 86.585938 61.117188 86.273438 60.976562 85.925781 C 60.832031 85.578125 60.128906 79.816406 60.128906 79.816406 L 60.203125 73.640625 Z M 57.992188 73.949219 " fill-opacity="1" fill-rule="nonzero"/><path fill="#36342f" d="M 68.828125 73.371094 L 70.007812 80.789062 L 70.414062 87.566406 L 72.714844 87.34375 L 72.277344 85.410156 L 71.097656 76.285156 C 71.097656 76.285156 73.609375 73.914062 74.046875 73.917969 C 74.480469 73.925781 76.5 74.011719 76.765625 74.265625 C 76.949219 74.4375 77.214844 76.164062 77.175781 76.476562 C 77.109375 76.976562 76.339844 78.308594 76.113281 78.503906 C 75.890625 78.699219 73.066406 79.605469 73.066406 79.605469 L 72.574219 80.773438 L 75.480469 82.375 L 77.785156 84.679688 L 78.585938 86.78125 L 81.234375 86.527344 L 77.921875 81.867188 L 75.34375 80.277344 C 75.34375 80.277344 77.921875 79.394531 78.207031 79.113281 C 78.492188 78.832031 79.175781 76.324219 79.175781 76.324219 C 79.175781 76.324219 78.875 74.15625 78.6875 73.699219 C 78.503906 73.238281 76.710938 71.835938 76.710938 71.835938 C 76.710938 71.835938 73.578125 71.847656 73.34375 71.871094 C 73.109375 71.894531 70.78125 73.671875 70.78125 73.671875 L 70.734375 72.359375 L 68.652344 72.953125 Z M 68.828125 73.371094 " fill-opacity="1" fill-rule="nonzero"/><g clip-path="url(#a090149463)"><path fill="#f0c642" d="M 95.464844 10.191406 C 94.53125 9.804688 90.820312 10.625 90.820312 10.625 C 90.820312 10.625 81.894531 22.1875 80.394531 23.683594 C 79.507812 24.566406 76.199219 33.292969 76.199219 33.292969 L 71.613281 34.132812 L 66.828125 36.167969 L 82.523438 43.054688 L 82.695312 38.011719 L 81.167969 35.066406 C 81.167969 35.066406 84.867188 27.820312 85.191406 27.203125 C 85.765625 26.113281 92.511719 18.234375 92.511719 18.234375 C 92.511719 18.234375 98.402344 13.433594 98.402344 12.941406 C 98.402344 12.445312 96.398438 10.578125 95.464844 10.191406 Z M 94.414062 13.585938 C 94.355469 13.722656 93.484375 14.53125 93.214844 14.648438 C 93.085938 14.703125 91.953125 14.832031 91.789062 14.761719 C 91.628906 14.6875 91.203125 14.082031 91.207031 13.863281 C 91.207031 13.699219 91.746094 12.726562 91.824219 12.632812 C 92.054688 12.441406 92.300781 12.277344 92.5625 12.132812 C 92.875 12.078125 93.1875 12.058594 93.5 12.078125 C 93.5 12.078125 94.421875 12.511719 94.46875 12.613281 C 94.503906 12.941406 94.484375 13.265625 94.414062 13.585938 Z M 94.414062 13.585938 " fill-opacity="1" fill-rule="nonzero"/></g><path fill="#f2f2f2" d="M 27.3125 42.589844 C 27.992188 41.941406 37.699219 35.347656 38.308594 35.066406 C 38.828125 34.828125 53.425781 29.253906 54.042969 29.140625 C 54.660156 29.023438 58.507812 29.199219 59.816406 29.589844 C 61.289062 30.03125 69.273438 34.644531 69.273438 34.644531 L 78.367188 37.992188 C 78.367188 37.992188 82.492188 40.445312 83.707031 41.609375 C 84.246094 42.128906 87.347656 48.621094 87.347656 48.621094 L 74.179688 53.585938 L 48.535156 57.019531 L 29.5 53.335938 L 24.230469 50.726562 C 24.230469 50.726562 26.652344 43.210938 27.3125 42.589844 Z M 27.3125 42.589844 " fill-opacity="1" fill-rule="nonzero"/><path fill="#d9d9d9" d="M 59.488281 33.734375 L 65.054688 36.84375 L 68.753906 37.988281 L 72.890625 40.6875 L 76.429688 44.929688 L 70.210938 40.289062 L 65.007812 38.105469 Z M 59.488281 33.734375 " fill-opacity="1" fill-rule="nonzero"/><path fill="#d9d9d9" d="M 36.304688 45.273438 L 40.914062 43.523438 L 46.410156 43.167969 L 39.007812 45.453125 L 34.179688 48.378906 Z M 36.304688 45.273438 " fill-opacity="1" fill-rule="nonzero"/><path fill="#d9d9d9" d="M 24.230469 50.726562 L 24.695312 49.308594 L 27.230469 51.097656 L 31.433594 52.367188 C 31.433594 52.367188 44.070312 55.0625 45.65625 55.269531 C 48.441406 55.640625 68.582031 53.300781 68.582031 53.300781 L 79.210938 51.011719 L 86.867188 47.625 L 87.347656 48.613281 L 74.179688 53.585938 L 48.535156 57.019531 L 29.5 53.335938 Z M 24.230469 50.726562 " fill-opacity="1" fill-rule="nonzero"/><path fill="#36342f" d="M 19.796875 90.644531 L 22.769531 94.355469 L 26.101562 96.808594 L 22.910156 95.882812 L 19.953125 93.140625 Z M 19.796875 90.644531 " fill-opacity="1" fill-rule="nonzero"/><path fill="#36342f" d="M 93.683594 84.042969 C 93.683594 84.042969 93.226562 88.660156 93.078125 89.226562 C 92.933594 89.796875 89.71875 93 89.71875 93 L 85.289062 95.085938 L 90.304688 94.207031 L 92.632812 92.558594 C 92.632812 92.558594 94.265625 88.207031 94.265625 87.613281 C 94.265625 87.023438 93.683594 84.042969 93.683594 84.042969 Z M 93.683594 84.042969 " fill-opacity="1" fill-rule="nonzero"/><path fill="#36342f" d="M 19.140625 85.457031 L 19.878906 88.597656 L 22.949219 93.152344 L 22.460938 90.9375 L 20.140625 86.375 L 19.523438 80.773438 Z M 19.140625 85.457031 " fill-opacity="1" fill-rule="nonzero"/></svg>