<?xml version="1.0" encoding="utf-8"?>
<!-- Generator: Adobe Illustrator 27.1.1, SVG Export Plug-In . SVG Version: 6.00 Build 0)  -->
<svg version="1.1" id="Lager_1" xmlns="http://www.w3.org/2000/svg" xmlns:xlink="http://www.w3.org/1999/xlink" x="0px" y="0px"
	 viewBox="0 0 41.7 116.1" style="enable-background:new 0 0 41.7 116.1;" xml:space="preserve">
<style type="text/css">
	.st0{clip-path:url(#SVGID_00000013881813771437110800000016955353735485088669_);}
	.st1{fill:#BDE2F2;}
	.st2{fill:#F2E3D4;}
	.st3{filter:url(#Adobe_OpacityMaskFilter);}
	.st4{fill-opacity:0.498;}
	.st5{mask:url(#b4caf11278_00000053537595077175660700000008340624413984631936_);}
	.st6{clip-path:url(#SVGID_00000029013121331607793360000012655504844924147385_);}
	.st7{clip-path:url(#SVGID_00000106115193194781500050000001850613098217986945_);}
	.st8{fill:#FFFFFF;}
	.st9{clip-path:url(#SVGID_00000129206313835579089140000007510396399406358441_);}
	.st10{fill:#7AAFCF;}
	.st11{fill:#DEF1F9;}
</style>
<g>
	<defs>
		<rect id="SVGID_1_" x="1.4" y="2.8" width="39" height="113.3"/>
	</defs>
	<clipPath id="SVGID_00000139279587990054585950000016830408540703130002_">
		<use xlink:href="#SVGID_1_"  style="overflow:visible;"/>
	</clipPath>
	<g style="clip-path:url(#SVGID_00000139279587990054585950000016830408540703130002_);">
		<path class="st1" d="M12.3,11c-0.2-1-0.4-1.7-0.7-2c-0.5-0.4-0.4-1.3,0.1-2.5C12,6,12.7,5.3,13.3,5c4.8-2,10.6-2,15.2,0
			c0.6,0.3,1.3,1,1.6,1.6c0.6,1.2,0.6,2,0.1,2.5c-0.3,0.3-0.5,0.9-0.7,2l5.8,16.1c2.8,7.7,5,20.6,5,28.8v46.9c0,3.3-2.2,7.4-4.9,9.2
			c-7.5,5-20.5,5-29-0.2c-2.8-1.7-5.1-5.7-5.1-9V55.9c0-8.2,2.3-21.1,5-28.8L12.3,11z"/>
	</g>
</g>
<path class="st2" d="M36.9,101.1c0,2.7-1.8,6.1-4,7.5c-6.1,4.1-16.8,4.1-23.8-0.2C6.8,107,5,103.7,5,101.1V46.2
	c0-1.3,0.9-2.9,2.1-3.5c8.1-4.4,18.7-4.4,27.7,0.1c1.2,0.6,2.1,2.1,2.1,3.4V101.1z"/>
<defs>
	<filter id="Adobe_OpacityMaskFilter" filterUnits="userSpaceOnUse" x="6" y="10.8" width="9.3" height="100">
		<feColorMatrix  type="matrix" values="1 0 0 0 0  0 1 0 0 0  0 0 1 0 0  0 0 0 1 0"/>
	</filter>
</defs>
<mask maskUnits="userSpaceOnUse" x="6" y="10.8" width="9.3" height="100" id="b4caf11278_00000053537595077175660700000008340624413984631936_">
	<g class="st3">
		<rect x="-69" y="-30.9" class="st4" width="180" height="180"/>
	</g>
</mask>
<g class="st5">
	<g transform="matrix(1, 0, 0, 1, 45, 20)">
		<g>
			<defs>
				<rect id="SVGID_00000127741689192403611920000006103730280234725281_" x="-39" y="-9.2" width="9.3" height="100"/>
			</defs>
			<clipPath id="SVGID_00000181786561330575126170000016601101932123687862_">
				<use xlink:href="#SVGID_00000127741689192403611920000006103730280234725281_"  style="overflow:visible;"/>
			</clipPath>
			<g style="clip-path:url(#SVGID_00000181786561330575126170000016601101932123687862_);">
				<g>
					<defs>
						<rect id="SVGID_00000038384749718058482020000016328299486475554474_" x="-38.8" y="-9.1" width="7.8" height="98.6"/>
					</defs>
					<clipPath id="SVGID_00000044137714182881872060000008602681593662269067_">
						<use xlink:href="#SVGID_00000038384749718058482020000016328299486475554474_"  style="overflow:visible;"/>
					</clipPath>
					<g style="clip-path:url(#SVGID_00000044137714182881872060000008602681593662269067_);">
						<path class="st8" d="M-31.2-8.9c-0.1,0-0.3,0-0.5,0c-4.5,17.8-6.8,28-6.8,30.6c0,2.7,0,24,0,64.1c1.4,1.8,2.9,3,4.4,3.6
							c-0.1-39.9-0.1-62.1,0-66.6C-34,18.1-33,7.6-31.2-8.9z"/>
					</g>
				</g>
			</g>
		</g>
	</g>
</g>
<g>
	<defs>
		<rect id="SVGID_00000005247649071160998090000001064025776017022622_" x="1.4" y="57.4" width="39" height="25.3"/>
	</defs>
	<clipPath id="SVGID_00000092417135316762145460000008600476122537321099_">
		<use xlink:href="#SVGID_00000005247649071160998090000001064025776017022622_"  style="overflow:visible;"/>
	</clipPath>
	<g style="clip-path:url(#SVGID_00000092417135316762145460000008600476122537321099_);">
		<path class="st10" d="M1.4,58.3c8.1,1.3,14.4,2,18.9,2c4.5,0,11.2-0.6,20.1-2V80c-8.8,1.4-15.6,2.1-20.5,2C15,82,8.9,81.3,1.4,80
			V58.3z"/>
	</g>
</g>
<path class="st11" d="M14.9,74.1c0,0.2,0,0.3,0.1,0.5c0,0.2,0.1,0.3,0.1,0.3c-0.1,0.1-0.2,0.2-0.3,0.2s-0.3,0.2-0.5,0.2
	c-0.2,0.1-0.4,0.1-0.6,0.1c-0.3,0-0.6-0.1-0.7-0.4c-0.2-0.2-0.3-0.5-0.3-0.9c0-0.1,0-0.2,0-0.4c0-0.2,0-0.4,0-0.6c0-0.2,0-0.4,0-0.5
	c0-0.1,0-0.3-0.1-0.4c-0.1-0.1-0.1-0.2-0.2-0.2c-0.1,0-0.2,0-0.3,0.2c0,0-0.1,0.1-0.2,0.3c-0.1,0.2-0.2,0.3-0.3,0.5
	c-0.1,0.2-0.2,0.4-0.3,0.6c-0.1,0.2-0.2,0.4-0.2,0.5s0,0.2,0.1,0.3c0,0.1-0.1,0.2-0.2,0.3c-0.1,0.2-0.2,0.3-0.4,0.4
	c-0.2,0.1-0.4,0.2-0.8,0.1c-0.2,0-0.4-0.1-0.7-0.3c-0.3-0.2-0.6-0.6-0.8-1.1c-0.2-0.5-0.4-0.9-0.6-1.1c-0.2-0.2-0.3-0.3-0.3-0.3
	c-0.1,0-0.1,0.1-0.2,0.1s-0.1,0.2-0.1,0.3c0,0.1,0,0.2,0,0.4c0,0.2,0,0.4,0,0.6c0,0.2,0,0.4,0.1,0.6c0,0.2,0.1,0.3,0.2,0.4
	c-0.1,0-0.2,0.1-0.3,0.2c-0.2,0.1-0.3,0.2-0.5,0.3c-0.2,0.1-0.4,0.1-0.6,0.1c-0.3,0-0.5-0.1-0.7-0.2C5,75,4.9,74.7,4.8,74.3
	c0-0.1,0-0.3,0-0.6s0-0.8,0-1.3c0-0.5,0-1.1,0-1.6c0-0.6,0-1.2,0-1.7c0-0.6,0-1.1,0-1.6c0-0.5,0-0.9,0-1.1c0-0.3,0-0.4,0-0.4
	c0.1,0,0.2,0,0.4,0c0.2,0,0.4,0,0.7,0.1c0.2,0.1,0.5,0.1,0.7,0.3c0.2,0.1,0.3,0.3,0.4,0.5c0,0,0,0.1,0.1,0.2
	c0.1,0.1,0.2,0.3,0.3,0.6c0.1,0.2,0.3,0.5,0.4,0.8c0.1,0.3,0.3,0.5,0.4,0.8c0.1,0.3,0.3,0.5,0.4,0.7c0.1,0.2,0.2,0.3,0.2,0.4
	c0.1,0.2,0.3,0.4,0.4,0.5c0.1,0.1,0.3,0.1,0.4,0.1c0.3,0,0.6-0.2,0.8-0.7c0-0.1,0.1-0.2,0.2-0.5c0.1-0.2,0.3-0.5,0.4-0.8
	c0.2-0.3,0.3-0.7,0.5-1c0.2-0.3,0.3-0.7,0.5-1s0.3-0.5,0.3-0.7c0.1-0.2,0.1-0.3,0.1-0.3c0.1,0,0.1,0,0.2,0c0.1,0,0.2,0,0.3,0
	c0.2,0,0.5,0.1,0.7,0.1c0.2,0.1,0.5,0.2,0.6,0.3c0.2,0.1,0.3,0.3,0.3,0.6c0,0.1,0,0.4,0,0.7c0,0.3,0,0.7,0,1.1c0,0.4,0,0.9,0,1.3
	c0,0.5,0,0.9,0,1.4c0,0.4,0,0.9,0,1.2c0,0.4,0,0.7,0,0.9C14.9,73.9,14.9,74,14.9,74.1z M17.7,75.4c-0.3-0.1-0.6-0.3-0.7-0.7
	s-0.2-0.9-0.2-1.5c0-0.1,0-0.2,0-0.5c0-0.3,0-0.6,0-1.1c0-0.4,0-0.9,0-1.4c0-0.5,0-1,0-1.5c0-0.5,0-0.9,0-1.4c0-0.4,0-0.8,0-1
	c0-0.3,0-0.4,0-0.5c0.1,0,0.3,0,0.5,0c0.2,0,0.5,0.1,0.8,0.1c0.3,0.1,0.5,0.2,0.7,0.3c0.2,0.2,0.3,0.4,0.4,0.6c0,0.1,0,0.3,0,0.6
	c0,0.3,0,0.7,0,1.1c0,0.4,0,0.9,0,1.3s0,0.9,0,1.4c0,0.5,0,0.9,0,1.3c0,0.4,0,0.7,0,1c0,0.3,0,0.4,0,0.5c0,0.2,0,0.3,0.1,0.4
	c0,0.1,0.1,0.2,0.2,0.3c-0.2,0.2-0.4,0.4-0.7,0.5C18.3,75.4,18,75.5,17.7,75.4z M27,73c0.1,0.1,0.2,0.3,0.2,0.5s0,0.5,0,0.8
	c0,0.2-0.1,0.4-0.3,0.7c-0.1,0.2-0.3,0.3-0.5,0.4c-0.1,0-0.3,0-0.5,0c-0.3,0-0.6,0-1,0c-0.4,0-0.8,0-1.2,0c-0.4,0-0.7,0-1,0
	c-0.3,0-0.5,0-0.6,0c-0.3,0.1-0.7,0.1-1,0.1c-0.3,0-0.6-0.1-0.7-0.1c0.1-0.1,0.1-0.3,0.1-0.5c0-0.2,0.1-0.5,0.1-0.7
	c0-0.3,0-0.5,0-0.8l0-7.3c0.1,0,0.2,0,0.5,0c0.2,0,0.4,0,0.7,0.1c0.3,0.1,0.5,0.2,0.7,0.4c0.2,0.2,0.3,0.4,0.4,0.7
	c0,0.1,0,0.3,0,0.5c0,0.3,0,0.6,0,0.9c0,0.3,0,0.7,0,1.1s0,0.7,0,1c0,0.3,0,0.6,0,0.8c0,0.2,0,0.3,0,0.3c0,0.3,0,0.6,0.1,0.8
	c0.1,0.2,0.2,0.4,0.3,0.6c0.1,0.1,0.2,0.2,0.4,0.2c0.2,0,0.3,0.1,0.6,0.1c0.1,0,0.2,0,0.4,0c0.2,0,0.4,0,0.7,0s0.5,0,0.7-0.1
	c0.2,0,0.4-0.1,0.6-0.1C26.8,73,26.9,73,27,73z M34.9,73.3c0.3,0.3,0.6,0.5,0.9,0.6c0,0.1-0.1,0.2-0.2,0.4c-0.1,0.2-0.2,0.3-0.3,0.5
	c-0.1,0.2-0.2,0.3-0.4,0.4c-0.2,0.1-0.3,0.2-0.5,0.2c-0.2,0-0.4,0-0.6-0.1c-0.2-0.1-0.4-0.2-0.6-0.3c-0.2-0.1-0.3-0.3-0.5-0.5
	c-0.2-0.2-0.4-0.4-0.6-0.6c-0.2-0.2-0.3-0.4-0.4-0.5c-0.2-0.2-0.3-0.4-0.5-0.5c-0.2-0.1-0.4-0.2-0.6-0.2c-0.1,0-0.2,0-0.2,0.1
	c0,0.1-0.1,0.2-0.1,0.3c0,0.1,0,0.3,0,0.4c0,0.2,0,0.3,0,0.5c0,0.1,0,0.2,0,0.3c0,0.1,0,0.2,0.1,0.3c0.1,0.1,0.1,0.1,0.2,0.2
	c-0.1,0.1-0.3,0.2-0.6,0.3s-0.6,0.2-0.9,0.2c-0.2,0-0.4-0.1-0.5-0.3c-0.1-0.2-0.2-0.4-0.3-0.7c-0.1-0.3-0.1-0.5-0.1-0.8
	c0-0.1,0-0.3,0-0.6c0-0.3,0-0.7,0-1.2c0-0.5,0-1,0-1.5s0-1.1,0-1.6c0-0.5,0-1,0-1.5c0-0.4,0-0.8,0-1.1s0-0.4,0-0.4
	c0.1,0,0.2,0,0.5,0c0.2,0,0.4,0,0.7,0.1c0.3,0.1,0.5,0.2,0.7,0.3c0.2,0.2,0.4,0.4,0.4,0.7c0,0.2,0,0.3,0,0.4c0,0.1,0,0.2,0,0.4
	c0,0.4,0.1,0.7,0.3,0.8c0.2,0.1,0.5,0,0.9-0.2c0.1,0,0.2-0.1,0.3-0.3c0.2-0.1,0.3-0.3,0.5-0.5c0.2-0.2,0.4-0.4,0.6-0.6
	c0.2-0.2,0.4-0.4,0.6-0.6c0.2-0.2,0.3-0.3,0.5-0.4c0.1-0.1,0.2-0.2,0.2-0.2c0.1,0.1,0.2,0.2,0.3,0.4c0.1,0.2,0.2,0.4,0.3,0.7
	c0.1,0.2,0.2,0.5,0.2,0.8s0,0.5-0.2,0.7c-0.1,0.1-0.1,0.2-0.3,0.3c-0.1,0.1-0.3,0.2-0.4,0.4c-0.1,0.1-0.3,0.2-0.4,0.4
	c-0.1,0.1-0.2,0.2-0.3,0.3c-0.2,0.1-0.3,0.3-0.4,0.5c-0.1,0.2-0.2,0.4-0.2,0.6c0,0.2,0,0.4,0,0.6c0,0.2,0.1,0.4,0.3,0.5
	c0.1,0.1,0.2,0.3,0.4,0.4c0.2,0.2,0.4,0.4,0.6,0.6C34.6,73,34.8,73.2,34.9,73.3z"/>
<path class="st10" d="M11.9,2.9c5.3-1.7,12.6-1.7,18,0c1.1,0.3,2,1.6,2,2.7v3.7c0,1.1-0.9,2.3-2,2.5C23.9,13,16.6,13,12,11.8
	c-1.1-0.3-2-1.4-2-2.6V5.6C10,4.4,10.9,3.2,11.9,2.9z"/>
<path class="st1" d="M12.8,3c-1.4,0.4-2.3,0.9-2.3,1.5c0,1.3,4.4,2.4,9.8,2.4c4,0,7.5-0.6,8.9-1.4c-1.8,0.5-4.5,0.8-7.5,0.8
	C16.3,6.3,12,5.3,12,4C12,3.6,12.2,3.3,12.8,3z"/>
</svg>
