<svg xmlns="http://www.w3.org/2000/svg" xmlns:xlink="http://www.w3.org/1999/xlink" width="150" zoomAndPan="magnify" viewBox="0 0 112.5 112.499997" height="150" preserveAspectRatio="xMidYMid meet" version="1.0"><defs><filter x="0%" y="0%" width="100%" height="100%" id="65839db0c1"><feColorMatrix values="0 0 0 0 1 0 0 0 0 1 0 0 0 0 1 0 0 0 1 0" color-interpolation-filters="sRGB"/></filter><clipPath id="169da1821e"><path d="M 41.5625 14 L 70.8125 14 L 70.8125 99 L 41.5625 99 Z M 41.5625 14 " clip-rule="nonzero"/></clipPath><mask id="b4caf11278"><g filter="url(#65839db0c1)"><rect x="-11.25" width="135" fill="#000000" y="-11.25" height="134.999996" fill-opacity="0.498"/></g></mask><clipPath id="f548c09b20"><path d="M 0.160156 0.0703125 L 6 0.0703125 L 6 74 L 0.160156 74 Z M 0.160156 0.0703125 " clip-rule="nonzero"/></clipPath><clipPath id="48e962c21b"><rect x="0" width="7" y="0" height="75"/></clipPath><clipPath id="61c3fde253"><path d="M 41.5625 55 L 70.8125 55 L 70.8125 74 L 41.5625 74 Z M 41.5625 55 " clip-rule="nonzero"/></clipPath></defs><g clip-path="url(#169da1821e)"><path fill="#bde2f2" d="M 49.714844 20.167969 C 49.585938 19.402344 49.414062 18.914062 49.195312 18.703125 C 48.84375 18.371094 48.875 17.75 49.289062 16.84375 C 49.496094 16.394531 50.027344 15.878906 50.476562 15.691406 C 54.089844 14.179688 58.449219 14.183594 61.90625 15.679688 C 62.355469 15.875 62.882812 16.394531 63.085938 16.84375 C 63.503906 17.75 63.535156 18.371094 63.183594 18.703125 C 62.964844 18.914062 62.789062 19.402344 62.664062 20.167969 L 67.035156 32.269531 C 69.121094 38.039062 70.8125 47.707031 70.8125 53.84375 L 70.8125 88.988281 C 70.8125 91.441406 69.164062 94.542969 67.128906 95.90625 C 61.511719 99.667969 51.757812 99.664062 45.351562 95.75 C 43.261719 94.472656 41.5625 91.441406 41.5625 88.988281 L 41.5625 53.84375 C 41.5625 47.707031 43.257812 38.039062 45.34375 32.269531 Z M 49.714844 20.167969 " fill-opacity="1" fill-rule="nonzero"/></g><path fill="#f2e3d4" d="M 68.15625 87.707031 C 68.15625 89.714844 66.804688 92.253906 65.140625 93.367188 C 60.542969 96.445312 52.5625 96.441406 47.320312 93.238281 C 45.609375 92.195312 44.222656 89.714844 44.222656 87.707031 L 44.222656 46.578125 C 44.222656 45.597656 44.921875 44.417969 45.78125 43.949219 C 51.839844 40.632812 59.824219 40.636719 66.566406 44.007812 C 67.445312 44.445312 68.15625 45.597656 68.15625 46.578125 Z M 68.15625 87.707031 " fill-opacity="1" fill-rule="nonzero"/><g mask="url(#b4caf11278)"><g transform="matrix(1, 0, 0, 1, 45, 20)"><g clip-path="url(#48e962c21b)"><g clip-path="url(#f548c09b20)"><path fill="#ffffff" d="M 5.878906 0.203125 C 5.777344 0.230469 5.648438 0.222656 5.476562 0.167969 C 2.066406 13.5 0.351562 21.148438 0.34375 23.105469 C 0.332031 25.097656 0.332031 41.132812 0.351562 71.210938 C 1.410156 72.585938 2.519531 73.480469 3.65625 73.878906 C 3.582031 43.929688 3.582031 27.269531 3.65625 23.894531 C 3.730469 20.519531 4.46875 12.621094 5.878906 0.203125 Z M 5.878906 0.203125 " fill-opacity="1" fill-rule="nonzero"/></g></g></g></g><g clip-path="url(#61c3fde253)"><path fill="#7aafcf" d="M 41.5625 55.609375 C 47.617188 56.59375 52.347656 57.097656 55.746094 57.117188 C 59.144531 57.136719 64.167969 56.636719 70.8125 55.609375 L 70.8125 71.910156 C 64.246094 72.953125 59.125 73.457031 55.449219 73.417969 C 51.773438 73.382812 47.144531 72.878906 41.5625 71.910156 Z M 41.5625 55.609375 " fill-opacity="1" fill-rule="nonzero"/></g><path fill="#def1f9" d="M 51.664062 67.460938 C 51.671875 67.578125 51.6875 67.695312 51.714844 67.804688 C 51.738281 67.917969 51.773438 68.003906 51.816406 68.054688 C 51.761719 68.109375 51.679688 68.171875 51.570312 68.242188 C 51.460938 68.3125 51.335938 68.371094 51.199219 68.414062 C 51.058594 68.460938 50.914062 68.480469 50.761719 68.472656 C 50.53125 68.460938 50.34375 68.363281 50.207031 68.179688 C 50.066406 67.996094 49.996094 67.769531 49.988281 67.496094 C 49.988281 67.441406 49.988281 67.34375 49.988281 67.195312 C 49.988281 67.050781 49.988281 66.894531 49.988281 66.730469 C 49.988281 66.5625 49.988281 66.425781 49.988281 66.320312 C 49.988281 66.21875 49.964844 66.121094 49.914062 66.027344 C 49.863281 65.933594 49.804688 65.875 49.742188 65.859375 C 49.652344 65.828125 49.578125 65.882812 49.519531 66.019531 C 49.507812 66.046875 49.46875 66.121094 49.402344 66.234375 C 49.339844 66.351562 49.265625 66.488281 49.1875 66.640625 C 49.105469 66.796875 49.03125 66.949219 48.964844 67.101562 C 48.898438 67.257812 48.851562 67.390625 48.828125 67.5 C 48.804688 67.609375 48.820312 67.675781 48.871094 67.699219 C 48.847656 67.757812 48.804688 67.84375 48.742188 67.957031 C 48.683594 68.070312 48.582031 68.167969 48.441406 68.246094 C 48.304688 68.328125 48.105469 68.359375 47.851562 68.339844 C 47.71875 68.328125 47.542969 68.246094 47.328125 68.089844 C 47.117188 67.9375 46.914062 67.65625 46.71875 67.246094 C 46.535156 66.855469 46.386719 66.589844 46.269531 66.449219 C 46.15625 66.308594 46.070312 66.246094 46.019531 66.257812 C 45.972656 66.265625 45.933594 66.296875 45.90625 66.355469 C 45.878906 66.414062 45.855469 66.5 45.832031 66.605469 C 45.820312 66.660156 45.8125 66.746094 45.8125 66.871094 C 45.8125 66.996094 45.820312 67.136719 45.832031 67.289062 C 45.84375 67.445312 45.867188 67.589844 45.898438 67.726562 C 45.929688 67.863281 45.972656 67.964844 46.027344 68.039062 C 45.980469 68.066406 45.894531 68.117188 45.773438 68.1875 C 45.652344 68.261719 45.515625 68.324219 45.367188 68.378906 C 45.214844 68.4375 45.070312 68.464844 44.929688 68.464844 C 44.714844 68.457031 44.539062 68.402344 44.394531 68.292969 C 44.253906 68.179688 44.167969 67.964844 44.140625 67.636719 C 44.132812 67.582031 44.128906 67.433594 44.128906 67.183594 C 44.128906 66.933594 44.128906 66.621094 44.128906 66.242188 C 44.128906 65.859375 44.128906 65.453125 44.128906 65.015625 C 44.128906 64.582031 44.128906 64.148438 44.128906 63.722656 C 44.128906 63.296875 44.132812 62.902344 44.132812 62.546875 C 44.136719 62.191406 44.140625 61.90625 44.140625 61.695312 C 44.140625 61.480469 44.140625 61.375 44.140625 61.375 C 44.203125 61.363281 44.3125 61.359375 44.46875 61.363281 C 44.621094 61.371094 44.789062 61.394531 44.972656 61.4375 C 45.15625 61.476562 45.324219 61.542969 45.476562 61.636719 C 45.632812 61.726562 45.738281 61.855469 45.796875 62.023438 C 45.796875 62.023438 45.824219 62.078125 45.878906 62.1875 C 45.9375 62.296875 46.011719 62.441406 46.105469 62.613281 C 46.203125 62.789062 46.304688 62.976562 46.414062 63.179688 C 46.523438 63.382812 46.628906 63.582031 46.730469 63.777344 C 46.835938 63.972656 46.925781 64.144531 47.007812 64.292969 C 47.085938 64.441406 47.140625 64.542969 47.171875 64.605469 C 47.269531 64.777344 47.367188 64.894531 47.457031 64.960938 C 47.550781 65.023438 47.648438 65.058594 47.753906 65.066406 C 47.972656 65.066406 48.183594 64.898438 48.382812 64.558594 C 48.414062 64.503906 48.472656 64.390625 48.5625 64.214844 C 48.652344 64.042969 48.753906 63.832031 48.871094 63.589844 C 48.992188 63.347656 49.113281 63.097656 49.238281 62.84375 C 49.367188 62.585938 49.484375 62.347656 49.589844 62.125 C 49.695312 61.902344 49.785156 61.722656 49.851562 61.582031 C 49.917969 61.445312 49.953125 61.375 49.953125 61.375 C 49.996094 61.367188 50.054688 61.363281 50.136719 61.359375 C 50.214844 61.359375 50.300781 61.363281 50.398438 61.375 C 50.5625 61.386719 50.738281 61.417969 50.925781 61.472656 C 51.109375 61.523438 51.273438 61.609375 51.410156 61.722656 C 51.550781 61.832031 51.628906 61.984375 51.648438 62.175781 C 51.660156 62.277344 51.667969 62.441406 51.671875 62.667969 C 51.679688 62.898438 51.683594 63.167969 51.683594 63.476562 C 51.683594 63.789062 51.683594 64.121094 51.683594 64.46875 C 51.683594 64.820312 51.679688 65.164062 51.675781 65.503906 C 51.675781 65.839844 51.671875 66.152344 51.667969 66.4375 C 51.664062 66.722656 51.664062 66.953125 51.664062 67.132812 C 51.664062 67.316406 51.664062 67.421875 51.664062 67.460938 Z M 53.746094 68.472656 C 53.492188 68.425781 53.3125 68.253906 53.210938 67.957031 C 53.109375 67.660156 53.054688 67.292969 53.054688 66.855469 C 53.054688 66.800781 53.054688 66.667969 53.050781 66.453125 C 53.046875 66.242188 53.046875 65.976562 53.042969 65.65625 C 53.039062 65.339844 53.035156 64.996094 53.035156 64.628906 C 53.03125 64.261719 53.027344 63.894531 53.019531 63.527344 C 53.015625 63.160156 53.007812 62.820312 53.003906 62.507812 C 52.996094 62.195312 52.992188 61.941406 52.984375 61.738281 C 52.980469 61.535156 52.972656 61.414062 52.96875 61.375 C 53.054688 61.355469 53.191406 61.351562 53.378906 61.359375 C 53.566406 61.371094 53.761719 61.398438 53.964844 61.449219 C 54.167969 61.5 54.347656 61.582031 54.5 61.699219 C 54.65625 61.8125 54.742188 61.972656 54.765625 62.175781 C 54.777344 62.269531 54.789062 62.429688 54.792969 62.660156 C 54.800781 62.886719 54.804688 63.15625 54.804688 63.46875 C 54.808594 63.78125 54.8125 64.109375 54.8125 64.460938 C 54.8125 64.8125 54.8125 65.15625 54.8125 65.496094 C 54.8125 65.839844 54.8125 66.152344 54.8125 66.441406 C 54.8125 66.726562 54.8125 66.96875 54.816406 67.160156 C 54.816406 67.355469 54.824219 67.472656 54.828125 67.511719 C 54.839844 67.636719 54.863281 67.726562 54.898438 67.785156 C 54.933594 67.839844 54.972656 67.910156 55.015625 67.992188 C 54.867188 68.152344 54.683594 68.285156 54.464844 68.382812 C 54.246094 68.484375 54.007812 68.515625 53.746094 68.472656 Z M 60.722656 66.632812 C 60.800781 66.695312 60.851562 66.828125 60.878906 67.019531 C 60.90625 67.210938 60.894531 67.410156 60.847656 67.621094 C 60.8125 67.792969 60.746094 67.957031 60.652344 68.113281 C 60.558594 68.269531 60.433594 68.363281 60.28125 68.394531 C 60.21875 68.40625 60.085938 68.414062 59.871094 68.414062 C 59.660156 68.417969 59.410156 68.417969 59.121094 68.414062 C 58.835938 68.414062 58.546875 68.410156 58.253906 68.40625 C 57.960938 68.402344 57.703125 68.402344 57.472656 68.40625 C 57.246094 68.410156 57.085938 68.417969 56.992188 68.429688 C 56.75 68.46875 56.503906 68.484375 56.25 68.472656 C 56 68.460938 55.824219 68.425781 55.722656 68.367188 C 55.765625 68.285156 55.800781 68.15625 55.828125 67.988281 C 55.859375 67.820312 55.882812 67.632812 55.902344 67.433594 C 55.917969 67.230469 55.925781 67.039062 55.917969 66.855469 L 55.882812 61.375 C 55.949219 61.363281 56.0625 61.359375 56.222656 61.363281 C 56.386719 61.371094 56.558594 61.398438 56.742188 61.445312 C 56.945312 61.492188 57.125 61.582031 57.285156 61.710938 C 57.445312 61.84375 57.539062 62.007812 57.578125 62.210938 C 57.589844 62.277344 57.597656 62.40625 57.601562 62.597656 C 57.609375 62.789062 57.613281 63.015625 57.617188 63.277344 C 57.621094 63.539062 57.621094 63.804688 57.617188 64.078125 C 57.613281 64.351562 57.613281 64.605469 57.613281 64.84375 C 57.613281 65.082031 57.609375 65.273438 57.605469 65.421875 C 57.605469 65.570312 57.601562 65.644531 57.601562 65.644531 C 57.597656 65.871094 57.621094 66.074219 57.671875 66.253906 C 57.726562 66.433594 57.804688 66.574219 57.902344 66.675781 C 57.980469 66.753906 58.074219 66.808594 58.1875 66.835938 C 58.300781 66.867188 58.4375 66.886719 58.605469 66.898438 C 58.675781 66.90625 58.785156 66.90625 58.9375 66.898438 C 59.085938 66.894531 59.253906 66.882812 59.4375 66.867188 C 59.621094 66.851562 59.800781 66.832031 59.984375 66.808594 C 60.164062 66.785156 60.320312 66.757812 60.457031 66.730469 C 60.59375 66.699219 60.679688 66.667969 60.722656 66.632812 Z M 66.6875 66.890625 C 66.949219 67.132812 67.171875 67.289062 67.363281 67.363281 C 67.34375 67.433594 67.308594 67.527344 67.25 67.644531 C 67.195312 67.765625 67.125 67.882812 67.039062 68.003906 C 66.953125 68.121094 66.851562 68.222656 66.742188 68.304688 C 66.628906 68.386719 66.503906 68.433594 66.367188 68.4375 C 66.203125 68.445312 66.054688 68.425781 65.921875 68.378906 C 65.789062 68.335938 65.648438 68.261719 65.5 68.152344 C 65.386719 68.0625 65.257812 67.949219 65.105469 67.8125 C 64.957031 67.671875 64.808594 67.527344 64.667969 67.378906 C 64.523438 67.230469 64.414062 67.105469 64.332031 67.003906 C 64.210938 66.851562 64.085938 66.722656 63.949219 66.613281 C 63.8125 66.507812 63.664062 66.464844 63.496094 66.488281 C 63.402344 66.496094 63.34375 66.519531 63.324219 66.566406 C 63.304688 66.609375 63.285156 66.695312 63.265625 66.828125 C 63.253906 66.917969 63.253906 67.023438 63.257812 67.144531 C 63.265625 67.265625 63.273438 67.378906 63.289062 67.484375 C 63.304688 67.59375 63.3125 67.667969 63.3125 67.71875 C 63.3125 67.824219 63.332031 67.90625 63.375 67.960938 C 63.414062 68.019531 63.457031 68.070312 63.496094 68.117188 C 63.398438 68.195312 63.238281 68.277344 63.027344 68.367188 C 62.816406 68.457031 62.578125 68.5 62.316406 68.5 C 62.148438 68.5 62.011719 68.433594 61.914062 68.296875 C 61.816406 68.160156 61.75 67.992188 61.707031 67.796875 C 61.664062 67.601562 61.640625 67.410156 61.636719 67.226562 C 61.636719 67.175781 61.632812 67.03125 61.632812 66.792969 C 61.628906 66.554688 61.625 66.257812 61.621094 65.90625 C 61.621094 65.554688 61.617188 65.175781 61.617188 64.769531 C 61.617188 64.363281 61.617188 63.957031 61.613281 63.558594 C 61.609375 63.15625 61.609375 62.792969 61.605469 62.464844 C 61.601562 62.132812 61.601562 61.871094 61.601562 61.671875 C 61.601562 61.472656 61.601562 61.375 61.601562 61.375 C 61.664062 61.363281 61.777344 61.359375 61.941406 61.363281 C 62.105469 61.371094 62.273438 61.398438 62.453125 61.445312 C 62.652344 61.492188 62.835938 61.574219 63.003906 61.683594 C 63.171875 61.796875 63.269531 61.960938 63.292969 62.175781 C 63.304688 62.3125 63.3125 62.421875 63.316406 62.511719 C 63.320312 62.601562 63.320312 62.695312 63.320312 62.789062 C 63.320312 63.101562 63.398438 63.300781 63.550781 63.382812 C 63.722656 63.472656 63.957031 63.414062 64.25 63.207031 C 64.296875 63.171875 64.378906 63.101562 64.5 62.996094 C 64.617188 62.894531 64.753906 62.769531 64.90625 62.628906 C 65.058594 62.484375 65.21875 62.335938 65.386719 62.183594 C 65.550781 62.027344 65.703125 61.886719 65.839844 61.753906 C 65.980469 61.617188 66.09375 61.511719 66.183594 61.425781 C 66.273438 61.34375 66.316406 61.300781 66.316406 61.300781 C 66.367188 61.34375 66.445312 61.441406 66.542969 61.597656 C 66.640625 61.75 66.726562 61.921875 66.804688 62.113281 C 66.878906 62.300781 66.929688 62.496094 66.949219 62.695312 C 66.96875 62.894531 66.929688 63.058594 66.828125 63.1875 C 66.789062 63.242188 66.722656 63.3125 66.628906 63.402344 C 66.539062 63.492188 66.4375 63.585938 66.328125 63.683594 C 66.21875 63.78125 66.113281 63.871094 66.015625 63.957031 C 65.914062 64.042969 65.835938 64.109375 65.785156 64.160156 C 65.671875 64.253906 65.578125 64.371094 65.503906 64.511719 C 65.429688 64.648438 65.386719 64.792969 65.367188 64.941406 C 65.351562 65.089844 65.355469 65.238281 65.386719 65.386719 C 65.414062 65.535156 65.480469 65.671875 65.578125 65.796875 C 65.652344 65.878906 65.757812 65.988281 65.898438 66.128906 C 66.042969 66.269531 66.1875 66.40625 66.332031 66.546875 C 66.480469 66.6875 66.597656 66.800781 66.6875 66.890625 Z M 66.6875 66.890625 " fill-opacity="1" fill-rule="nonzero"/><path fill="#7aafcf" d="M 49.457031 14.085938 C 53.464844 12.800781 58.9375 12.808594 62.921875 14.085938 C 63.730469 14.347656 64.386719 15.25 64.386719 16.105469 L 64.386719 18.867188 C 64.386719 19.722656 63.710938 20.558594 62.878906 20.734375 C 58.425781 21.675781 52.964844 21.679688 49.484375 20.792969 C 48.660156 20.585938 47.992188 19.722656 47.992188 18.867188 L 47.992188 16.105469 C 47.992188 15.25 48.648438 14.347656 49.457031 14.085938 Z M 49.457031 14.085938 " fill-opacity="1" fill-rule="nonzero"/><path fill="#bde2f2" d="M 50.082031 14.1875 C 49.015625 14.496094 48.371094 14.898438 48.371094 15.332031 C 48.371094 16.316406 51.648438 17.113281 55.683594 17.113281 C 58.695312 17.113281 61.285156 16.667969 62.394531 16.03125 C 61.046875 16.421875 59.035156 16.667969 56.789062 16.667969 C 52.753906 16.667969 49.476562 15.871094 49.476562 14.886719 C 49.476562 14.636719 49.6875 14.402344 50.082031 14.1875 Z M 50.082031 14.1875 " fill-opacity="1" fill-rule="nonzero"/></svg>