<svg xmlns="http://www.w3.org/2000/svg" xmlns:xlink="http://www.w3.org/1999/xlink" width="150" zoomAndPan="magnify" viewBox="0 0 112.5 112.499997" height="150" preserveAspectRatio="xMidYMid meet" version="1.0"><defs><clipPath id="10f9a51935"><path d="M 54 33.75 L 59 33.75 L 59 43 L 54 43 Z M 54 33.75 " clip-rule="nonzero"/></clipPath><clipPath id="c97d355bf7"><path d="M 39 42 L 74 42 L 74 78.75 L 39 78.75 Z M 39 42 " clip-rule="nonzero"/></clipPath><clipPath id="43eba1257a"><path d="M 39 53 L 74 53 L 74 78.75 L 39 78.75 Z M 39 53 " clip-rule="nonzero"/></clipPath></defs><g clip-path="url(#10f9a51935)"><path fill="#91a979" d="M 56.4375 42.5625 C 56.4375 42.5625 57.695312 38.617188 54.859375 35.007812 L 58.03125 33.75 C 58.03125 33.75 58.957031 39.398438 57.382812 42.621094 L 56.4375 42.5625 " fill-opacity="1" fill-rule="nonzero"/></g><g clip-path="url(#c97d355bf7)"><path fill="#ff5757" d="M 55.929688 42.117188 C 55.929688 42.117188 44.488281 40.996094 40.847656 47.425781 C 37.207031 53.851562 40.625 62.550781 44.929688 68.652344 C 49.234375 74.757812 52.90625 77.640625 56.96875 78.195312 C 61.027344 78.75 65.035156 75.039062 69.160156 66.921875 C 73.28125 58.804688 75.402344 51.753906 72.539062 47.054688 C 69.679688 42.355469 63.035156 41.703125 55.929688 42.117188 " fill-opacity="1" fill-rule="nonzero"/></g><path fill="#637463" d="M 54.984375 41.097656 C 54.984375 41.097656 51.207031 38.113281 46.636719 38.742188 L 45.21875 38.65625 C 45.21875 38.65625 50.574219 42.355469 54.984375 41.097656 " fill-opacity="1" fill-rule="nonzero"/><path fill="#637463" d="M 57.726562 41.972656 C 57.726562 41.972656 55.988281 38.269531 52.5625 37.800781 L 51.589844 37.390625 C 51.589844 37.390625 54.214844 42.140625 57.726562 41.972656 " fill-opacity="1" fill-rule="nonzero"/><path fill="#637463" d="M 60.007812 40.941406 C 60.007812 40.941406 63.808594 38.914062 68.21875 40.007812 L 70.898438 40.941406 C 70.898438 40.941406 63.929688 42.667969 60.007812 40.941406 " fill-opacity="1" fill-rule="nonzero"/><path fill="#637463" d="M 57.015625 41.589844 C 57.015625 41.589844 59.21875 38.601562 62.992188 38.351562 L 65.378906 38.453125 C 65.378906 38.453125 60.636719 42.078125 57.015625 41.589844 " fill-opacity="1" fill-rule="nonzero"/><path fill="#91a979" d="M 50.890625 44.082031 C 50.890625 44.082031 48.054688 45.179688 47.109375 48.164062 C 46.164062 51.148438 47.109375 51.621094 47.109375 51.621094 C 47.109375 51.621094 51.679688 47.695312 53.253906 47.066406 C 54.828125 46.4375 56.582031 45.179688 56.582031 45.179688 C 56.582031 45.179688 58.925781 46.4375 60.816406 47.851562 C 62.703125 49.265625 65.539062 50.679688 65.855469 51.621094 C 66.171875 52.5625 66.957031 50.050781 65.855469 47.851562 C 64.753906 45.652344 62.863281 44.082031 62.863281 44.082031 C 62.863281 44.082031 68.375 45.179688 70.109375 47.066406 C 71.839844 48.949219 73.328125 48.761719 73.328125 48.761719 C 73.328125 48.761719 72.15625 43.398438 69.164062 42.011719 C 66.171875 40.625 63.285156 39.804688 60.007812 40.941406 C 60.007812 40.941406 57.035156 41.882812 54.984375 41.097656 C 52.9375 40.3125 50.261719 40.027344 47.738281 40.40625 C 45.21875 40.785156 43.171875 41.726562 41.125 43.769531 C 41.125 43.769531 47.425781 42.511719 50.890625 44.082031 " fill-opacity="1" fill-rule="nonzero"/><g clip-path="url(#43eba1257a)"><path fill="#ff5757" d="M 69.160156 66.921875 C 71.785156 61.753906 73.589844 57.015625 73.824219 53.042969 C 73.582031 53.25 73.628906 53.746094 73.328125 54.457031 C 71.683594 58.375 70.421875 60.492188 68.21875 64.261719 C 66.011719 68.03125 61.433594 69.375 57.726562 69.367188 C 52.03125 69.355469 49.316406 68.265625 45.21875 64.027344 C 41.964844 60.660156 39.46875 54.78125 39.347656 54.484375 C 39.613281 59.402344 42.070312 64.601562 44.929688 68.652344 C 49.234375 74.757812 52.90625 77.640625 56.96875 78.195312 C 61.03125 78.75 65.035156 75.039062 69.160156 66.921875 " fill-opacity="1" fill-rule="nonzero"/></g><path fill="#ff5757" d="M 62.546875 58.742188 C 62.546875 59.507812 62.246094 60.132812 61.871094 60.132812 C 61.5 60.132812 61.195312 59.507812 61.195312 58.742188 C 61.195312 57.972656 61.5 57.351562 61.871094 57.351562 C 62.246094 57.351562 62.546875 57.972656 62.546875 58.742188 " fill-opacity="1" fill-rule="nonzero"/><path fill="#f4d1b1" d="M 62.265625 58.398438 C 62.265625 58.886719 62.089844 59.285156 61.871094 59.285156 C 61.65625 59.285156 61.476562 58.886719 61.476562 58.398438 C 61.476562 57.90625 61.65625 57.507812 61.871094 57.507812 C 62.089844 57.507812 62.265625 57.90625 62.265625 58.398438 " fill-opacity="1" fill-rule="nonzero"/><path fill="#ff5757" d="M 66.785156 56.234375 C 66.953125 56.984375 66.796875 57.660156 66.433594 57.742188 C 66.070312 57.824219 65.636719 57.285156 65.46875 56.535156 C 65.296875 55.789062 65.453125 55.113281 65.816406 55.03125 C 66.179688 54.949219 66.613281 55.488281 66.785156 56.234375 " fill-opacity="1" fill-rule="nonzero"/><path fill="#f4d1b1" d="M 66.433594 55.964844 C 66.542969 56.441406 66.457031 56.867188 66.246094 56.917969 C 66.035156 56.964844 65.773438 56.617188 65.664062 56.136719 C 65.554688 55.660156 65.640625 55.234375 65.851562 55.183594 C 66.0625 55.136719 66.324219 55.484375 66.433594 55.964844 " fill-opacity="1" fill-rule="nonzero"/><path fill="#ff5757" d="M 56.53125 57.085938 C 56.472656 57.851562 56.121094 58.449219 55.75 58.421875 C 55.378906 58.390625 55.125 57.75 55.183594 56.984375 C 55.242188 56.21875 55.589844 55.621094 55.964844 55.648438 C 56.335938 55.679688 56.589844 56.320312 56.53125 57.085938 " fill-opacity="1" fill-rule="nonzero"/><path fill="#f4d1b1" d="M 56.230469 56.671875 C 56.257812 57.160156 56.101562 57.566406 55.886719 57.578125 C 55.667969 57.589844 55.472656 57.203125 55.445312 56.710938 C 55.417969 56.222656 55.574219 55.816406 55.789062 55.804688 C 56.007812 55.792969 56.203125 56.179688 56.230469 56.671875 " fill-opacity="1" fill-rule="nonzero"/><path fill="#ff5757" d="M 51.703125 56.554688 C 51.507812 57.296875 51.058594 57.824219 50.695312 57.730469 C 50.335938 57.636719 50.199219 56.957031 50.394531 56.214844 C 50.589844 55.472656 51.039062 54.949219 51.398438 55.042969 C 51.761719 55.136719 51.894531 55.8125 51.703125 56.554688 " fill-opacity="1" fill-rule="nonzero"/><path fill="#f4d1b1" d="M 51.480469 56.09375 C 51.421875 56.582031 51.195312 56.953125 50.980469 56.925781 C 50.765625 56.898438 50.640625 56.480469 50.699219 55.996094 C 50.761719 55.507812 50.984375 55.136719 51.203125 55.164062 C 51.417969 55.191406 51.542969 55.605469 51.480469 56.09375 " fill-opacity="1" fill-rule="nonzero"/><path fill="#ff5757" d="M 47.328125 54.863281 C 47.132812 55.609375 46.683594 56.132812 46.320312 56.039062 C 45.960938 55.945312 45.824219 55.269531 46.019531 54.523438 C 46.214844 53.78125 46.664062 53.257812 47.023438 53.351562 C 47.386719 53.445312 47.519531 54.121094 47.328125 54.863281 " fill-opacity="1" fill-rule="nonzero"/><path fill="#f4d1b1" d="M 47.105469 54.402344 C 47.046875 54.890625 46.820312 55.261719 46.605469 55.234375 C 46.390625 55.207031 46.265625 54.792969 46.324219 54.304688 C 46.386719 53.816406 46.609375 53.445312 46.828125 53.472656 C 47.042969 53.5 47.167969 53.914062 47.105469 54.402344 " fill-opacity="1" fill-rule="nonzero"/><path fill="#ff5757" d="M 44.03125 50.441406 C 43.75 51.15625 43.242188 51.625 42.894531 51.488281 C 42.546875 51.351562 42.492188 50.660156 42.777344 49.949219 C 43.058594 49.234375 43.570312 48.765625 43.914062 48.902344 C 44.261719 49.039062 44.316406 49.726562 44.03125 50.441406 " fill-opacity="1" fill-rule="nonzero"/><path fill="#f4d1b1" d="M 43.871094 49.957031 C 43.75 50.433594 43.484375 50.773438 43.273438 50.722656 C 43.0625 50.671875 42.988281 50.242188 43.105469 49.765625 C 43.226562 49.289062 43.492188 48.945312 43.703125 49 C 43.914062 49.050781 43.988281 49.480469 43.871094 49.957031 " fill-opacity="1" fill-rule="nonzero"/><path fill="#ff5757" d="M 41.585938 55.980469 C 41.480469 56.738281 41.097656 57.316406 40.726562 57.261719 C 40.355469 57.210938 40.144531 56.554688 40.25 55.792969 C 40.355469 55.035156 40.738281 54.460938 41.109375 54.511719 C 41.480469 54.5625 41.691406 55.21875 41.585938 55.980469 " fill-opacity="1" fill-rule="nonzero"/><path fill="#f4d1b1" d="M 41.3125 55.546875 C 41.3125 56.035156 41.132812 56.433594 40.914062 56.429688 C 40.695312 56.429688 40.523438 56.03125 40.527344 55.539062 C 40.53125 55.050781 40.710938 54.652344 40.925781 54.65625 C 41.144531 54.65625 41.316406 55.054688 41.3125 55.546875 " fill-opacity="1" fill-rule="nonzero"/><path fill="#ff5757" d="M 44.585938 58.980469 C 44.480469 59.742188 44.097656 60.316406 43.726562 60.265625 C 43.355469 60.214844 43.144531 59.554688 43.25 58.796875 C 43.355469 58.035156 43.738281 57.460938 44.109375 57.511719 C 44.476562 57.5625 44.691406 58.222656 44.585938 58.980469 " fill-opacity="1" fill-rule="nonzero"/><path fill="#f4d1b1" d="M 44.3125 58.546875 C 44.308594 59.039062 44.132812 59.433594 43.914062 59.433594 C 43.695312 59.429688 43.523438 59.03125 43.527344 58.542969 C 43.53125 58.050781 43.707031 57.65625 43.925781 57.65625 C 44.144531 57.660156 44.316406 58.058594 44.3125 58.546875 " fill-opacity="1" fill-rule="nonzero"/><path fill="#ff5757" d="M 48.996094 62.082031 C 48.890625 62.84375 48.507812 63.417969 48.136719 63.367188 C 47.769531 63.316406 47.554688 62.65625 47.660156 61.898438 C 47.765625 61.136719 48.148438 60.5625 48.519531 60.613281 C 48.890625 60.664062 49.101562 61.324219 48.996094 62.082031 " fill-opacity="1" fill-rule="nonzero"/><path fill="#f4d1b1" d="M 48.722656 61.648438 C 48.722656 62.140625 48.542969 62.535156 48.324219 62.535156 C 48.105469 62.53125 47.933594 62.132812 47.9375 61.644531 C 47.941406 61.152344 48.121094 60.757812 48.335938 60.757812 C 48.554688 60.757812 48.726562 61.160156 48.722656 61.648438 " fill-opacity="1" fill-rule="nonzero"/><path fill="#ff5757" d="M 54.710938 51.085938 C 54.605469 51.84375 54.21875 52.417969 53.851562 52.367188 C 53.480469 52.316406 53.265625 51.660156 53.371094 50.898438 C 53.476562 50.140625 53.863281 49.566406 54.230469 49.617188 C 54.601562 49.667969 54.816406 50.324219 54.710938 51.085938 " fill-opacity="1" fill-rule="nonzero"/><path fill="#f4d1b1" d="M 54.4375 50.652344 C 54.433594 51.140625 54.253906 51.539062 54.035156 51.535156 C 53.820312 51.535156 53.644531 51.136719 53.648438 50.644531 C 53.652344 50.15625 53.832031 49.757812 54.050781 49.757812 C 54.265625 49.761719 54.441406 50.160156 54.4375 50.652344 " fill-opacity="1" fill-rule="nonzero"/><path fill="#ff5757" d="M 61.175781 51.835938 C 61.164062 52.601562 60.847656 53.21875 60.476562 53.210938 C 60.101562 53.207031 59.8125 52.578125 59.824219 51.8125 C 59.839844 51.042969 60.152344 50.429688 60.527344 50.433594 C 60.898438 50.441406 61.191406 51.070312 61.175781 51.835938 " fill-opacity="1" fill-rule="nonzero"/><path fill="#f4d1b1" d="M 60.851562 51.4375 C 60.910156 51.925781 60.777344 52.339844 60.5625 52.363281 C 60.347656 52.386719 60.125 52.011719 60.070312 51.527344 C 60.015625 51.039062 60.144531 50.625 60.363281 50.597656 C 60.578125 50.574219 60.796875 50.949219 60.851562 51.4375 " fill-opacity="1" fill-rule="nonzero"/><path fill="#ff5757" d="M 69.039062 49.722656 C 69.199219 50.472656 69.035156 51.144531 68.667969 51.21875 C 68.304688 51.296875 67.878906 50.75 67.71875 50 C 67.558594 49.25 67.726562 48.578125 68.089844 48.503906 C 68.457031 48.425781 68.882812 48.96875 69.039062 49.722656 " fill-opacity="1" fill-rule="nonzero"/><path fill="#f4d1b1" d="M 68.636719 49.40625 C 68.800781 49.867188 68.765625 50.300781 68.5625 50.375 C 68.355469 50.445312 68.058594 50.128906 67.894531 49.667969 C 67.730469 49.203125 67.761719 48.769531 67.96875 48.699219 C 68.171875 48.625 68.472656 48.941406 68.636719 49.40625 " fill-opacity="1" fill-rule="nonzero"/><path fill="#ff5757" d="M 71.542969 56.945312 C 71.476562 57.707031 71.121094 58.300781 70.75 58.269531 C 70.378906 58.238281 70.128906 57.59375 70.195312 56.828125 C 70.261719 56.0625 70.617188 55.46875 70.988281 55.503906 C 71.359375 55.535156 71.609375 56.179688 71.542969 56.945312 " fill-opacity="1" fill-rule="nonzero"/><path fill="#f4d1b1" d="M 71.246094 56.523438 C 71.269531 57.015625 71.109375 57.417969 70.894531 57.429688 C 70.675781 57.4375 70.480469 57.050781 70.460938 56.558594 C 70.4375 56.070312 70.597656 55.664062 70.8125 55.65625 C 71.03125 55.644531 71.226562 56.035156 71.246094 56.523438 " fill-opacity="1" fill-rule="nonzero"/><path fill="#ff5757" d="M 69.378906 61.574219 C 69.3125 62.339844 68.960938 62.933594 68.585938 62.902344 C 68.214844 62.867188 67.96875 62.222656 68.035156 61.457031 C 68.101562 60.695312 68.453125 60.101562 68.824219 60.132812 C 69.199219 60.164062 69.445312 60.808594 69.378906 61.574219 " fill-opacity="1" fill-rule="nonzero"/><path fill="#f4d1b1" d="M 69.085938 61.15625 C 69.105469 61.644531 68.949219 62.050781 68.730469 62.058594 C 68.515625 62.070312 68.320312 61.679688 68.296875 61.191406 C 68.277344 60.699219 68.433594 60.296875 68.652344 60.285156 C 68.867188 60.277344 69.0625 60.664062 69.085938 61.15625 " fill-opacity="1" fill-rule="nonzero"/><path fill="#ff5757" d="M 59.046875 62.320312 C 58.980469 63.085938 58.625 63.679688 58.253906 63.648438 C 57.882812 63.613281 57.636719 62.96875 57.699219 62.203125 C 57.765625 61.441406 58.121094 60.847656 58.492188 60.878906 C 58.863281 60.910156 59.113281 61.554688 59.046875 62.320312 " fill-opacity="1" fill-rule="nonzero"/><path fill="#f4d1b1" d="M 58.753906 61.902344 C 58.773438 62.390625 58.617188 62.796875 58.398438 62.804688 C 58.179688 62.816406 57.988281 62.425781 57.964844 61.9375 C 57.941406 61.445312 58.101562 61.039062 58.320312 61.03125 C 58.535156 61.019531 58.730469 61.410156 58.753906 61.902344 " fill-opacity="1" fill-rule="nonzero"/><path fill="#ff5757" d="M 53.878906 63.878906 C 53.816406 64.644531 53.460938 65.238281 53.089844 65.207031 C 52.714844 65.171875 52.46875 64.527344 52.535156 63.761719 C 52.601562 63 52.957031 62.40625 53.328125 62.4375 C 53.699219 62.46875 53.945312 63.113281 53.878906 63.878906 " fill-opacity="1" fill-rule="nonzero"/><path fill="#f4d1b1" d="M 53.585938 63.460938 C 53.605469 63.949219 53.449219 64.355469 53.230469 64.363281 C 53.015625 64.375 52.820312 63.984375 52.796875 63.496094 C 52.777344 63.003906 52.933594 62.597656 53.152344 62.589844 C 53.371094 62.578125 53.5625 62.96875 53.585938 63.460938 " fill-opacity="1" fill-rule="nonzero"/><path fill="#ff5757" d="M 50.667969 67.558594 C 50.792969 68.316406 50.59375 68.980469 50.226562 69.039062 C 49.859375 69.101562 49.457031 68.535156 49.332031 67.777344 C 49.207031 67.019531 49.40625 66.359375 49.773438 66.296875 C 50.140625 66.238281 50.542969 66.800781 50.667969 67.558594 " fill-opacity="1" fill-rule="nonzero"/><path fill="#f4d1b1" d="M 50.277344 67.226562 C 50.417969 67.695312 50.367188 68.125 50.15625 68.1875 C 49.949219 68.25 49.664062 67.921875 49.523438 67.453125 C 49.378906 66.984375 49.433594 66.550781 49.640625 66.488281 C 49.851562 66.425781 50.132812 66.757812 50.277344 67.226562 " fill-opacity="1" fill-rule="nonzero"/><path fill="#ff5757" d="M 46.085938 64.574219 C 46.210938 65.332031 46.015625 65.992188 45.648438 66.054688 C 45.28125 66.113281 44.878906 65.550781 44.753906 64.792969 C 44.628906 64.035156 44.828125 63.371094 45.195312 63.3125 C 45.5625 63.25 45.960938 63.816406 46.085938 64.574219 " fill-opacity="1" fill-rule="nonzero"/><path fill="#f4d1b1" d="M 45.699219 64.242188 C 45.839844 64.710938 45.789062 65.140625 45.578125 65.203125 C 45.371094 65.265625 45.085938 64.9375 44.945312 64.46875 C 44.800781 64 44.855469 63.566406 45.0625 63.503906 C 45.273438 63.441406 45.554688 63.769531 45.699219 64.242188 " fill-opacity="1" fill-rule="nonzero"/><path fill="#ff5757" d="M 57.445312 68.410156 C 57.570312 69.164062 57.375 69.828125 57.003906 69.890625 C 56.636719 69.949219 56.238281 69.382812 56.113281 68.628906 C 55.988281 67.871094 56.183594 67.207031 56.554688 67.148438 C 56.921875 67.085938 57.320312 67.652344 57.445312 68.410156 " fill-opacity="1" fill-rule="nonzero"/><path fill="#f4d1b1" d="M 57.054688 68.074219 C 57.199219 68.542969 57.144531 68.976562 56.9375 69.039062 C 56.730469 69.101562 56.445312 68.773438 56.304688 68.300781 C 56.160156 67.832031 56.214844 67.402344 56.421875 67.339844 C 56.628906 67.277344 56.914062 67.605469 57.054688 68.074219 " fill-opacity="1" fill-rule="nonzero"/><path fill="#ff5757" d="M 64.859375 66.320312 C 64.824219 67.089844 64.496094 67.695312 64.125 67.679688 C 63.753906 67.664062 63.476562 67.03125 63.507812 66.265625 C 63.539062 65.5 63.871094 64.890625 64.242188 64.90625 C 64.613281 64.921875 64.890625 65.554688 64.859375 66.320312 " fill-opacity="1" fill-rule="nonzero"/><path fill="#f4d1b1" d="M 64.546875 65.914062 C 64.589844 66.402344 64.449219 66.816406 64.230469 66.835938 C 64.015625 66.855469 63.804688 66.472656 63.761719 65.984375 C 63.71875 65.496094 63.859375 65.085938 64.074219 65.066406 C 64.289062 65.046875 64.5 65.425781 64.546875 65.914062 " fill-opacity="1" fill-rule="nonzero"/><path fill="#ff5757" d="M 61.871094 72.691406 C 61.839844 73.460938 61.511719 74.066406 61.136719 74.050781 C 60.765625 74.035156 60.488281 73.402344 60.523438 72.636719 C 60.554688 71.871094 60.882812 71.261719 61.253906 71.277344 C 61.628906 71.292969 61.902344 71.925781 61.871094 72.691406 " fill-opacity="1" fill-rule="nonzero"/><path fill="#f4d1b1" d="M 61.558594 72.285156 C 61.601562 72.773438 61.460938 73.1875 61.246094 73.207031 C 61.027344 73.226562 60.816406 72.84375 60.773438 72.355469 C 60.730469 71.867188 60.871094 71.457031 61.085938 71.4375 C 61.304688 71.417969 61.515625 71.796875 61.558594 72.285156 " fill-opacity="1" fill-rule="nonzero"/><path fill="#ff5757" d="M 54.988281 73.195312 C 55.054688 73.960938 54.808594 74.605469 54.4375 74.636719 C 54.066406 74.667969 53.710938 74.074219 53.644531 73.3125 C 53.578125 72.546875 53.824219 71.902344 54.195312 71.867188 C 54.570312 71.835938 54.921875 72.429688 54.988281 73.195312 " fill-opacity="1" fill-rule="nonzero"/><path fill="#f4d1b1" d="M 54.628906 72.832031 C 54.734375 73.3125 54.648438 73.738281 54.433594 73.785156 C 54.222656 73.832031 53.964844 73.480469 53.859375 73 C 53.753906 72.523438 53.839844 72.097656 54.050781 72.050781 C 54.265625 72.003906 54.523438 72.355469 54.628906 72.832031 " fill-opacity="1" fill-rule="nonzero"/><path fill="#637463" d="M 60.460938 46.75 C 59.710938 45.730469 58.300781 43.769531 56.585938 44.277344 C 56.585938 44.277344 52.671875 47.1875 50.832031 48.621094 C 50.828125 48.625 50.824219 48.628906 50.820312 48.628906 C 51.78125 47.910156 52.703125 47.285156 53.253906 47.066406 C 54.828125 46.4375 56.582031 45.179688 56.582031 45.179688 C 56.582031 45.179688 58.925781 46.4375 60.816406 47.851562 C 61.582031 48.421875 62.5 48.996094 63.34375 49.535156 C 63.34375 49.535156 61.210938 47.773438 60.460938 46.75 " fill-opacity="1" fill-rule="nonzero"/><path fill="#637463" d="M 62.863281 44.082031 L 65.066406 46.550781 C 64.03125 45.0625 62.863281 44.082031 62.863281 44.082031 " fill-opacity="1" fill-rule="nonzero"/><path fill="#637463" d="M 73.328125 48.761719 C 73.328125 48.761719 73.324219 48.742188 73.320312 48.734375 C 72.253906 48.359375 70.941406 47.6875 70.542969 47.066406 C 69.949219 46.148438 68.769531 45.339844 66.839844 44.554688 C 64.910156 43.769531 62.863281 44.082031 62.863281 44.082031 C 62.863281 44.082031 68.375 45.179688 70.109375 47.066406 C 71.839844 48.949219 73.328125 48.761719 73.328125 48.761719 " fill-opacity="1" fill-rule="nonzero"/><path fill="#637463" d="M 50.890625 44.082031 C 50.890625 44.082031 46.242188 41.214844 41.125 43.769531 C 41.125 43.769531 47.425781 42.511719 50.890625 44.082031 " fill-opacity="1" fill-rule="nonzero"/></svg>