<?xml version="1.0" encoding="utf-8"?>
<!-- Generator: Adobe Illustrator 27.1.1, SVG Export Plug-In . SVG Version: 6.00 Build 0)  -->
<svg version="1.1" id="Lager_1" xmlns="http://www.w3.org/2000/svg" xmlns:xlink="http://www.w3.org/1999/xlink" x="0px" y="0px"
	 viewBox="0 0 47.6 60" style="enable-background:new 0 0 47.6 60;" xml:space="preserve">
<style type="text/css">
	.st0{clip-path:url(#SVGID_00000057124149509983073980000009802649057837431682_);}
	.st1{fill:#91A979;}
	.st2{clip-path:url(#SVGID_00000165210134290873058370000011560274320576015528_);}
	.st3{fill:#FF5757;}
	.st4{fill:#637463;}
	.st5{clip-path:url(#SVGID_00000080174528750087717170000014386358165948011402_);}
	.st6{fill:#F4D1B1;}
</style>
<g>
	<defs>
		<rect id="SVGID_1_" x="20" width="6.7" height="12.3"/>
	</defs>
	<clipPath id="SVGID_00000088849629698366112990000000583644729535903107_">
		<use xlink:href="#SVGID_1_"  style="overflow:visible;"/>
	</clipPath>
	<g style="clip-path:url(#SVGID_00000088849629698366112990000000583644729535903107_);">
		<path class="st1" d="M23.2,11.8c0,0,1.7-5.3-2.1-10.1L25.4,0c0,0,1.2,7.5-0.9,11.8L23.2,11.8"/>
	</g>
</g>
<g>
	<defs>
		<rect id="SVGID_00000089541484848904115700000014158112684377686417_" y="11" width="46.7" height="49"/>
	</defs>
	<clipPath id="SVGID_00000173880189579674087470000012089192027332947368_">
		<use xlink:href="#SVGID_00000089541484848904115700000014158112684377686417_"  style="overflow:visible;"/>
	</clipPath>
	<g style="clip-path:url(#SVGID_00000173880189579674087470000012089192027332947368_);">
		<path class="st3" d="M22.6,11.2c0,0-15.3-1.5-20.1,7.1c-4.9,8.6-0.3,20.2,5.4,28.3c5.7,8.1,10.6,12,16.1,12.7
			c5.4,0.7,10.8-4.2,16.3-15c5.5-10.8,8.3-20.2,4.5-26.5C40.9,11.5,32,10.6,22.6,11.2"/>
	</g>
</g>
<path class="st4" d="M21.3,9.8c0,0-5-4-11.1-3.1L8.3,6.5C8.3,6.5,15.4,11.5,21.3,9.8"/>
<path class="st4" d="M25,11c0,0-2.3-4.9-6.9-5.6l-1.3-0.5C16.8,4.9,20.3,11.2,25,11"/>
<path class="st4" d="M28,9.6c0,0,5.1-2.7,10.9-1.2l3.6,1.2C42.5,9.6,33.2,11.9,28,9.6"/>
<path class="st4" d="M24,10.5c0,0,2.9-4,8-4.3l3.2,0.1C35.2,6.3,28.8,11.1,24,10.5"/>
<path class="st1" d="M15.9,13.8c0,0-3.8,1.5-5,5.4s0,4.6,0,4.6s6.1-5.2,8.2-6.1s4.4-2.5,4.4-2.5s3.1,1.7,5.6,3.6
	c2.5,1.9,6.3,3.8,6.7,5c0.4,1.3,1.5-2.1,0-5s-4-5-4-5s7.3,1.5,9.7,4c2.3,2.5,4.3,2.3,4.3,2.3s-1.6-7.2-5.6-9S32.4,8.1,28,9.6
	c0,0-4,1.3-6.7,0.2c-2.7-1-6.3-1.4-9.7-0.9c-3.4,0.5-6.1,1.8-8.8,4.5C2.8,13.4,11.2,11.7,15.9,13.8"/>
<g>
	<defs>
		<rect id="SVGID_00000065756160056450648160000013174192029860453268_" y="25.7" width="46.7" height="34.3"/>
	</defs>
	<clipPath id="SVGID_00000086665215217466686070000013328987492860092305_">
		<use xlink:href="#SVGID_00000065756160056450648160000013174192029860453268_"  style="overflow:visible;"/>
	</clipPath>
	<g style="clip-path:url(#SVGID_00000086665215217466686070000013328987492860092305_);">
		<path class="st3" d="M40.2,44.2c3.5-6.9,5.9-13.2,6.2-18.5c-0.3,0.3-0.3,0.9-0.7,1.9c-2.2,5.2-3.9,8-6.8,13.1c-2.9,5-9,6.8-14,6.8
			c-7.6,0-11.2-1.5-16.7-7.1C4,35.9,0.6,28,0.5,27.6c0.4,6.6,3.6,13.5,7.4,18.9c5.7,8.1,10.6,12,16.1,12.7S34.7,55.1,40.2,44.2"/>
	</g>
</g>
<path class="st3" d="M31.4,33.3c0,1-0.4,1.9-0.9,1.9c-0.5,0-0.9-0.8-0.9-1.9c0-1,0.4-1.9,0.9-1.9C31,31.5,31.4,32.3,31.4,33.3"/>
<path class="st6" d="M31,32.9c0,0.7-0.2,1.2-0.5,1.2c-0.3,0-0.5-0.5-0.5-1.2c0-0.7,0.2-1.2,0.5-1.2C30.8,31.7,31,32.2,31,32.9"/>
<path class="st3" d="M37,30c0.2,1,0,1.9-0.5,2c-0.5,0.1-1.1-0.6-1.3-1.6c-0.2-1,0-1.9,0.5-2S36.8,29,37,30"/>
<path class="st6" d="M36.6,29.6c0.1,0.6,0,1.2-0.2,1.3c-0.3,0.1-0.6-0.4-0.8-1c-0.1-0.6,0-1.2,0.2-1.3C36.1,28.5,36.4,29,36.6,29.6"
	/>
<path class="st3" d="M23.4,31.1c-0.1,1-0.5,1.8-1,1.8c-0.5,0-0.8-0.9-0.8-1.9c0.1-1,0.5-1.8,1-1.8C23.1,29.2,23.5,30.1,23.4,31.1"/>
<path class="st6" d="M23,30.6c0,0.7-0.2,1.2-0.5,1.2c-0.3,0-0.6-0.5-0.6-1.2c0-0.7,0.2-1.2,0.5-1.2C22.7,29.4,22.9,29.9,23,30.6"/>
<path class="st3" d="M16.9,30.4c-0.3,1-0.9,1.7-1.3,1.6c-0.5-0.1-0.7-1-0.4-2c0.3-1,0.9-1.7,1.3-1.6C17,28.5,17.2,29.4,16.9,30.4"/>
<path class="st6" d="M16.6,29.8c-0.1,0.7-0.4,1.1-0.7,1.1c-0.3,0-0.5-0.6-0.4-1.2c0.1-0.7,0.4-1.1,0.7-1.1
	C16.6,28.6,16.7,29.1,16.6,29.8"/>
<path class="st3" d="M11.1,28.2c-0.3,1-0.9,1.7-1.3,1.6c-0.5-0.1-0.7-1-0.4-2c0.3-1,0.9-1.7,1.3-1.6C11.2,26.3,11.4,27.2,11.1,28.2"
	/>
<path class="st6" d="M10.8,27.5c-0.1,0.7-0.4,1.1-0.7,1.1c-0.3,0-0.5-0.6-0.4-1.2c0.1-0.7,0.4-1.1,0.7-1.1
	C10.7,26.3,10.9,26.9,10.8,27.5"/>
<path class="st3" d="M6.7,22.3c-0.4,1-1.1,1.6-1.5,1.4c-0.5-0.2-0.5-1.1-0.2-2.1c0.4-1,1.1-1.6,1.5-1.4C7,20.4,7.1,21.3,6.7,22.3"/>
<path class="st6" d="M6.5,21.6c-0.2,0.6-0.5,1.1-0.8,1S5.3,22,5.5,21.4c0.2-0.6,0.5-1.1,0.8-1C6.6,20.4,6.7,21,6.5,21.6"/>
<path class="st3" d="M3.4,29.6c-0.1,1-0.7,1.8-1.1,1.7c-0.5-0.1-0.8-0.9-0.6-2c0.1-1,0.7-1.8,1.1-1.7C3.3,27.8,3.6,28.6,3.4,29.6"/>
<path class="st6" d="M3.1,29.1c0,0.7-0.2,1.2-0.5,1.2c-0.3,0-0.5-0.5-0.5-1.2c0-0.7,0.2-1.2,0.5-1.2C2.9,27.9,3.1,28.4,3.1,29.1"/>
<path class="st3" d="M7.4,33.6c-0.1,1-0.7,1.8-1.1,1.7s-0.8-0.9-0.6-2c0.1-1,0.7-1.8,1.1-1.7C7.3,31.8,7.6,32.6,7.4,33.6"/>
<path class="st6" d="M7.1,33.1c0,0.7-0.2,1.2-0.5,1.2c-0.3,0-0.5-0.5-0.5-1.2c0-0.7,0.2-1.2,0.5-1.2C6.9,31.9,7.1,32.4,7.1,33.1"/>
<path class="st3" d="M13.3,37.8c-0.1,1-0.7,1.8-1.1,1.7c-0.5-0.1-0.8-0.9-0.6-2c0.1-1,0.7-1.8,1.1-1.7
	C13.2,35.9,13.5,36.8,13.3,37.8"/>
<path class="st6" d="M13,37.2c0,0.7-0.2,1.2-0.5,1.2c-0.3,0-0.5-0.5-0.5-1.2c0-0.7,0.2-1.2,0.5-1.2C12.7,36,13,36.5,13,37.2"/>
<path class="st3" d="M20.9,23.1c-0.1,1-0.7,1.8-1.1,1.7c-0.5-0.1-0.8-0.9-0.6-2c0.1-1,0.7-1.8,1.1-1.7
	C20.8,21.2,21.1,22.1,20.9,23.1"/>
<path class="st6" d="M20.6,22.5c0,0.7-0.2,1.2-0.5,1.2c-0.3,0-0.5-0.5-0.5-1.2c0-0.7,0.2-1.2,0.5-1.2C20.4,21.3,20.6,21.9,20.6,22.5
	"/>
<path class="st3" d="M29.6,24.1c0,1-0.4,1.8-0.9,1.8c-0.5,0-0.9-0.8-0.9-1.9c0-1,0.4-1.8,0.9-1.8C29.2,22.3,29.6,23.1,29.6,24.1"/>
<path class="st6" d="M29.1,23.6c0.1,0.7-0.1,1.2-0.4,1.2c-0.3,0-0.6-0.5-0.7-1.1c-0.1-0.7,0.1-1.2,0.4-1.2
	C28.8,22.4,29.1,22.9,29.1,23.6"/>
<path class="st3" d="M40.1,21.3c0.2,1,0,1.9-0.5,2c-0.5,0.1-1.1-0.6-1.3-1.6s0-1.9,0.5-2C39.3,19.6,39.8,20.3,40.1,21.3"/>
<path class="st6" d="M39.5,20.9c0.2,0.6,0.2,1.2-0.1,1.3c-0.3,0.1-0.7-0.3-0.9-0.9c-0.2-0.6-0.2-1.2,0.1-1.3
	C38.9,19.8,39.3,20.3,39.5,20.9"/>
<path class="st3" d="M43.4,30.9c-0.1,1-0.6,1.8-1.1,1.8c-0.5,0-0.8-0.9-0.7-1.9c0.1-1,0.6-1.8,1.1-1.8C43.1,29,43.5,29.9,43.4,30.9"
	/>
<path class="st6" d="M43,30.4c0,0.7-0.2,1.2-0.5,1.2c-0.3,0-0.6-0.5-0.6-1.2c0-0.7,0.2-1.2,0.5-1.2C42.7,29.2,43,29.7,43,30.4"/>
<path class="st3" d="M40.5,37.1c-0.1,1-0.6,1.8-1.1,1.8c-0.5,0-0.8-0.9-0.7-1.9c0.1-1,0.6-1.8,1.1-1.8
	C40.3,35.2,40.6,36.1,40.5,37.1"/>
<path class="st6" d="M40.1,36.5c0,0.7-0.2,1.2-0.5,1.2c-0.3,0-0.5-0.5-0.6-1.2c0-0.7,0.2-1.2,0.5-1.2C39.8,35.4,40.1,35.9,40.1,36.5
	"/>
<path class="st3" d="M26.7,38.1c-0.1,1-0.6,1.8-1.1,1.8c-0.5,0-0.8-0.9-0.7-1.9c0.1-1,0.6-1.8,1.1-1.8
	C26.5,36.2,26.8,37.1,26.7,38.1"/>
<path class="st6" d="M26.3,37.5c0,0.7-0.2,1.2-0.5,1.2c-0.3,0-0.5-0.5-0.6-1.2c0-0.7,0.2-1.2,0.5-1.2C26,36.4,26.3,36.9,26.3,37.5"
	/>
<path class="st3" d="M19.8,40.2c-0.1,1-0.6,1.8-1.1,1.8C18.3,41.9,18,41,18,40c0.1-1,0.6-1.8,1.1-1.8C19.6,38.3,19.9,39.2,19.8,40.2
	"/>
<path class="st6" d="M19.4,39.6c0,0.7-0.2,1.2-0.5,1.2c-0.3,0-0.5-0.5-0.6-1.2c0-0.7,0.2-1.2,0.5-1.2C19.2,38.4,19.4,39,19.4,39.6"
	/>
<path class="st3" d="M15.6,45.1c0.2,1-0.1,1.9-0.6,2c-0.5,0.1-1-0.7-1.2-1.7s0.1-1.9,0.6-2C14.9,43.3,15.4,44.1,15.6,45.1"/>
<path class="st6" d="M15,44.6c0.2,0.6,0.1,1.2-0.2,1.3c-0.3,0.1-0.7-0.4-0.8-1c-0.2-0.6-0.1-1.2,0.2-1.3C14.5,43.6,14.8,44,15,44.6"
	/>
<path class="st3" d="M9.4,41.1c0.2,1-0.1,1.9-0.6,2c-0.5,0.1-1-0.7-1.2-1.7c-0.2-1,0.1-1.9,0.6-2C8.8,39.3,9.3,40.1,9.4,41.1"/>
<path class="st6" d="M8.9,40.7c0.2,0.6,0.1,1.2-0.2,1.3c-0.3,0.1-0.7-0.4-0.8-1c-0.2-0.6-0.1-1.2,0.2-1.3C8.4,39.6,8.7,40,8.9,40.7"
	/>
<path class="st3" d="M24.6,46.2c0.2,1-0.1,1.9-0.6,2c-0.5,0.1-1-0.7-1.2-1.7c-0.2-1,0.1-1.9,0.6-2C23.9,44.4,24.4,45.2,24.6,46.2"/>
<path class="st6" d="M24.1,45.8c0.2,0.6,0.1,1.2-0.2,1.3c-0.3,0.1-0.7-0.4-0.8-1c-0.2-0.6-0.1-1.2,0.2-1.3
	C23.5,44.7,23.9,45.1,24.1,45.8"/>
<path class="st3" d="M34.5,43.4c0,1-0.5,1.8-1,1.8c-0.5,0-0.9-0.9-0.8-1.9c0-1,0.5-1.8,1-1.8C34.2,41.6,34.5,42.4,34.5,43.4"/>
<path class="st6" d="M34.1,42.9c0.1,0.7-0.1,1.2-0.4,1.2c-0.3,0-0.6-0.5-0.6-1.1c-0.1-0.7,0.1-1.2,0.4-1.2
	C33.7,41.7,34,42.2,34.1,42.9"/>
<path class="st3" d="M30.5,51.9c0,1-0.5,1.8-1,1.8c-0.5,0-0.9-0.9-0.8-1.9c0-1,0.5-1.8,1-1.8C30.2,50.1,30.5,50.9,30.5,51.9"/>
<path class="st6" d="M30.1,51.4c0.1,0.7-0.1,1.2-0.4,1.2c-0.3,0-0.6-0.5-0.6-1.1c-0.1-0.7,0.1-1.2,0.4-1.2
	C29.7,50.2,30,50.7,30.1,51.4"/>
<path class="st3" d="M21.3,52.6c0.1,1-0.2,1.9-0.7,1.9c-0.5,0-1-0.8-1.1-1.8c-0.1-1,0.2-1.9,0.7-1.9C20.8,50.8,21.2,51.6,21.3,52.6"
	/>
<path class="st6" d="M20.8,52.1c0.1,0.6,0,1.2-0.3,1.3c-0.3,0.1-0.6-0.4-0.8-1c-0.1-0.6,0-1.2,0.3-1.3C20.4,51,20.7,51.5,20.8,52.1"
	/>
<path class="st4" d="M28.6,17.3c-1-1.4-2.9-4-5.2-3.3c0,0-5.2,3.9-7.7,5.8c0,0,0,0,0,0c1.3-1,2.5-1.8,3.2-2.1
	c2.1-0.8,4.4-2.5,4.4-2.5s3.1,1.7,5.6,3.6c1,0.8,2.2,1.5,3.4,2.2C32.5,21,29.6,18.7,28.6,17.3"/>
<path class="st4" d="M31.8,13.8l2.9,3.3C33.4,15.1,31.8,13.8,31.8,13.8"/>
<path class="st4" d="M45.8,20C45.8,20,45.8,20,45.8,20c-1.4-0.5-3.2-1.4-3.7-2.3c-0.8-1.2-2.4-2.3-4.9-3.3s-5.3-0.6-5.3-0.6
	s7.3,1.5,9.7,4C43.8,20.3,45.8,20,45.8,20"/>
<path class="st4" d="M15.9,13.8c0,0-6.2-3.8-13-0.4C2.8,13.4,11.2,11.7,15.9,13.8"/>
</svg>
