<svg xmlns="http://www.w3.org/2000/svg" xmlns:xlink="http://www.w3.org/1999/xlink" width="150" zoomAndPan="magnify" viewBox="0 0 112.5 112.499997" height="150" preserveAspectRatio="xMidYMid meet" version="1.0"><defs><clipPath id="43f58ca891"><path d="M 15.429688 29 L 97.179688 29 L 97.179688 103.035156 L 15.429688 103.035156 Z M 15.429688 29 " clip-rule="nonzero"/></clipPath><clipPath id="ff1ca71033"><path d="M 49 9.285156 L 66 9.285156 L 66 25 L 49 25 Z M 49 9.285156 " clip-rule="nonzero"/></clipPath></defs><g clip-path="url(#43f58ca891)"><path fill="#efdec1" d="M 95.550781 62.414062 C 95.550781 62.414062 95.492188 45.339844 95.226562 44.515625 C 95.027344 43.902344 92.28125 40.183594 90.957031 38.257812 C 91.808594 38.222656 92.660156 38.140625 93.503906 38.011719 C 93.742188 37.871094 94.277344 35.152344 94.246094 34.796875 C 94.195312 34.289062 91.292969 31.988281 91.058594 31.847656 C 90.667969 31.789062 90.273438 31.753906 89.875 31.738281 L 89.066406 31.683594 C 87.5 31.585938 85.207031 31.460938 82.910156 31.339844 L 82.136719 31.304688 C 78.28125 31.105469 74.636719 30.929688 74.636719 30.929688 L 74.042969 30.910156 L 73.753906 30.902344 L 64.761719 30.625 L 64.410156 30.613281 L 55.40625 30.339844 C 55.316406 30.339844 55.230469 30.339844 55.140625 30.339844 C 51.992188 30.246094 48.972656 30.152344 46.535156 30.085938 L 46.015625 30.070312 C 43.394531 29.996094 41.539062 29.949219 41.085938 29.945312 C 40.683594 29.945312 39.621094 29.996094 38.160156 30.082031 L 37.570312 30.121094 C 35.550781 30.242188 32.933594 30.421875 30.289062 30.609375 L 29.523438 30.664062 C 27.234375 30.816406 24.964844 30.988281 23.085938 31.121094 L 22.347656 31.179688 C 20.140625 31.351562 18.640625 31.476562 18.589844 31.503906 C 18.402344 31.609375 16.15625 34.828125 16.15625 34.996094 C 16.15625 35.167969 16.605469 37.175781 16.792969 37.363281 C 16.859375 37.425781 18.835938 37.726562 18.835938 37.726562 L 21.527344 37.863281 C 20.058594 39.253906 16.078125 42.761719 15.804688 43.410156 C 15.480469 44.171875 17.003906 73.21875 17.003906 73.21875 C 17.003906 73.21875 16.414062 93.550781 16.511719 94.332031 C 16.605469 95.109375 18.296875 98.9375 18.746094 99.429688 C 19.195312 99.921875 24.613281 100.597656 24.613281 100.597656 L 44.835938 103.035156 L 68.765625 102.378906 C 68.765625 102.378906 84.675781 101.5625 85.730469 101.363281 C 86.78125 101.167969 93.082031 100.347656 93.933594 99.679688 C 94.785156 99.007812 97.144531 92.675781 97.144531 92.1875 C 97.144531 91.5 95.550781 62.414062 95.550781 62.414062 Z M 95.550781 62.414062 " fill-opacity="1" fill-rule="nonzero"/></g><path fill="#ffffff" d="M 34.859375 68.890625 C 37.492188 68.644531 62.667969 73.519531 65.042969 73.742188 C 68.40625 74.0625 79.34375 73.246094 85.804688 72.808594 C 88.59375 72.621094 90.621094 72.882812 90.78125 72.949219 C 91.308594 73.167969 91.546875 82.6875 91.546875 82.6875 C 91.546875 82.6875 92.648438 92.390625 92.648438 92.941406 C 92.644531 93.496094 91.300781 95.890625 91.03125 96.097656 C 90.921875 96.179688 90.199219 96.460938 88.214844 96.660156 C 84.414062 97.050781 78.984375 97.269531 77.503906 97.3125 C 75.382812 97.367188 47.191406 98.476562 47.191406 98.476562 C 47.191406 98.476562 23.996094 95.59375 23.347656 95.246094 C 23.15625 95.140625 20.753906 92.832031 20.789062 91.769531 C 20.890625 88.746094 21.363281 77.386719 21.363281 77.386719 C 21.363281 77.386719 21.109375 71.902344 21.273438 71.816406 C 21.652344 71.609375 33.539062 69.011719 34.859375 68.890625 Z M 34.859375 68.890625 " fill-opacity="1" fill-rule="nonzero"/><path fill="#f2f2f2" d="M 84.476562 81.398438 C 84.476562 81.398438 84.597656 81.304688 85.261719 81.242188 C 85.925781 81.183594 86.632812 81.851562 86.632812 81.851562 C 86.632812 81.851562 86.964844 82.507812 86.792969 82.847656 C 86.480469 83.46875 85.785156 83.878906 85.664062 83.972656 C 85.40625 84.179688 84.082031 83.8125 84.082031 83.8125 C 84.082031 83.8125 83.5 82.984375 83.640625 82.523438 C 83.78125 82.058594 84.476562 81.398438 84.476562 81.398438 Z M 84.476562 81.398438 " fill-opacity="1" fill-rule="nonzero"/><path fill="#f2f2f2" d="M 36.601562 70.941406 C 36.601562 70.941406 36.722656 70.851562 37.386719 70.785156 C 38.046875 70.722656 38.753906 71.398438 38.753906 71.398438 C 38.753906 71.398438 39.085938 72.050781 38.917969 72.394531 C 38.605469 73.011719 37.910156 73.425781 37.789062 73.527344 C 37.527344 73.734375 36.207031 73.363281 36.207031 73.363281 C 36.207031 73.363281 35.625 72.539062 35.765625 72.074219 C 35.90625 71.609375 36.601562 70.941406 36.601562 70.941406 Z M 36.601562 70.941406 " fill-opacity="1" fill-rule="nonzero"/><path fill="#f2f2f2" d="M 82.21875 92.792969 C 82.21875 92.792969 82.339844 92.703125 83.003906 92.640625 C 83.667969 92.578125 84.371094 93.25 84.371094 93.25 C 84.371094 93.25 84.707031 93.90625 84.535156 94.246094 C 84.222656 94.867188 83.527344 95.277344 83.410156 95.378906 C 83.148438 95.585938 81.824219 95.21875 81.824219 95.21875 C 81.824219 95.21875 81.246094 94.390625 81.386719 93.929688 C 81.527344 93.464844 82.21875 92.792969 82.21875 92.792969 Z M 82.21875 92.792969 " fill-opacity="1" fill-rule="nonzero"/><path fill="#f2f2f2" d="M 77.863281 88.773438 C 77.863281 88.773438 77.984375 88.683594 78.648438 88.617188 C 79.3125 88.554688 80.015625 89.230469 80.015625 89.230469 C 80.015625 89.230469 80.351562 89.882812 80.179688 90.226562 C 79.867188 90.84375 79.171875 91.257812 79.054688 91.359375 C 78.792969 91.566406 77.46875 91.199219 77.46875 91.199219 C 77.46875 91.199219 76.890625 90.371094 77.03125 89.90625 C 77.171875 89.441406 77.863281 88.773438 77.863281 88.773438 Z M 77.863281 88.773438 " fill-opacity="1" fill-rule="nonzero"/><path fill="#f2f2f2" d="M 68.285156 92.714844 C 68.285156 92.714844 68.40625 92.625 69.070312 92.5625 C 69.734375 92.5 70.441406 93.171875 70.441406 93.171875 C 70.441406 93.171875 70.773438 93.828125 70.601562 94.167969 C 70.292969 94.789062 69.597656 95.199219 69.472656 95.292969 C 69.214844 95.5 67.890625 95.132812 67.890625 95.132812 C 67.890625 95.132812 67.308594 94.304688 67.449219 93.839844 C 67.589844 93.378906 68.285156 92.714844 68.285156 92.714844 Z M 68.285156 92.714844 " fill-opacity="1" fill-rule="nonzero"/><path fill="#f2f2f2" d="M 26.714844 72.71875 C 26.714844 72.71875 26.835938 72.625 27.5 72.5625 C 28.164062 72.5 28.871094 73.171875 28.871094 73.171875 C 28.871094 73.171875 29.203125 73.828125 29.035156 74.167969 C 28.722656 74.789062 28.027344 75.199219 27.90625 75.300781 C 27.644531 75.511719 26.320312 75.140625 26.320312 75.140625 C 26.320312 75.140625 25.742188 74.316406 25.882812 73.851562 C 26.023438 73.390625 26.714844 72.71875 26.714844 72.71875 Z M 26.714844 72.71875 " fill-opacity="1" fill-rule="nonzero"/><path fill="#f2f2f2" d="M 80.058594 85.3125 C 80.058594 85.3125 80.179688 85.222656 80.847656 85.160156 C 81.515625 85.097656 82.222656 85.769531 82.222656 85.769531 C 82.222656 85.769531 82.558594 86.425781 82.386719 86.765625 C 82.074219 87.386719 81.375 87.796875 81.246094 87.898438 C 80.988281 88.105469 79.65625 87.738281 79.65625 87.738281 C 79.65625 87.738281 79.074219 86.910156 79.214844 86.449219 C 79.355469 85.984375 80.058594 85.3125 80.058594 85.3125 Z M 80.058594 85.3125 " fill-opacity="1" fill-rule="nonzero"/><path fill="#f2f2f2" d="M 86.957031 88.824219 C 86.957031 88.824219 87.101562 88.734375 87.882812 88.671875 C 88.667969 88.609375 89.5 89.28125 89.5 89.28125 C 89.5 89.28125 89.894531 89.9375 89.6875 90.277344 C 89.3125 90.898438 88.503906 91.308594 88.355469 91.410156 C 88.046875 91.617188 86.484375 91.246094 86.484375 91.246094 C 86.484375 91.246094 85.796875 90.421875 85.964844 89.957031 C 86.132812 89.496094 86.957031 88.824219 86.957031 88.824219 Z M 86.957031 88.824219 " fill-opacity="1" fill-rule="nonzero"/><path fill="#f2f2f2" d="M 41.242188 73.773438 C 41.242188 73.773438 41.386719 73.679688 42.167969 73.621094 C 42.953125 73.558594 43.785156 74.230469 43.785156 74.230469 C 43.785156 74.230469 44.179688 74.886719 43.972656 75.226562 C 43.597656 75.847656 42.789062 76.257812 42.640625 76.359375 C 42.332031 76.566406 40.769531 76.199219 40.769531 76.199219 C 40.769531 76.199219 40.082031 75.371094 40.25 74.90625 C 40.417969 74.441406 41.242188 73.773438 41.242188 73.773438 Z M 41.242188 73.773438 " fill-opacity="1" fill-rule="nonzero"/><g clip-path="url(#ff1ca71033)"><path fill="#f0c642" d="M 56.582031 24.523438 C 58.996094 24.601562 62.269531 23.25 62.867188 22.667969 C 64.082031 21.488281 65.472656 18.289062 65.496094 17.128906 C 65.496094 16.589844 64.53125 12.800781 63.960938 12.195312 C 63.03125 11.195312 59.125 9.273438 57.785156 9.394531 C 56.449219 9.515625 53.019531 10.394531 52.261719 11.003906 C 51.507812 11.613281 49.355469 14.1875 49.328125 15.539062 C 49.289062 17.613281 49.851562 20.078125 50.046875 20.527344 C 50.347656 21.226562 52.339844 23.238281 52.515625 23.339844 C 52.695312 23.4375 55.578125 24.488281 56.582031 24.523438 Z M 56.582031 24.523438 " fill-opacity="1" fill-rule="nonzero"/></g><path fill="#f2f2f2" d="M 63.59375 19.070312 L 62.789062 15.707031 C 62.789062 15.707031 61.269531 12.871094 60.496094 12.46875 L 57.730469 11.035156 L 60.003906 11.242188 C 60.003906 11.242188 63.273438 13.394531 63.613281 13.972656 C 64.109375 14.816406 64.160156 17.074219 64.160156 17.074219 Z M 63.59375 19.070312 " fill-opacity="1" fill-rule="nonzero"/><path fill="#f0c642" d="M 91.171875 32.90625 C 90.484375 33.261719 84.824219 33.546875 81.320312 33.589844 C 78.984375 33.621094 66.304688 34.074219 63.890625 34.121094 C 62.824219 34.136719 34.804688 33.785156 34.804688 33.785156 C 34.570312 33.8125 25.828125 33.359375 24.75 33.152344 C 24.402344 33.085938 21.019531 32.558594 21.019531 32.398438 C 21.019531 32.234375 28.628906 28.105469 29.097656 27.902344 C 29.570312 27.699219 38.996094 24.828125 40.125 24.53125 C 41.8125 24.101562 52.304688 23.289062 55.238281 23.371094 C 55.320312 23.371094 55.402344 23.371094 55.484375 23.371094 C 58.300781 23.453125 64.640625 23.589844 67.144531 23.785156 L 76.703125 25.472656 C 76.703125 25.472656 82.214844 27.054688 83.039062 27.445312 C 83.75 27.796875 91.410156 32.78125 91.171875 32.90625 Z M 91.171875 32.90625 " fill-opacity="1" fill-rule="nonzero"/><path fill="#f2f2f2" d="M 30.058594 39.847656 L 46.949219 40.511719 L 85.351562 39.441406 L 66.910156 41.335938 L 41.082031 41.191406 L 31.5625 40.980469 L 26.027344 39.644531 Z M 30.058594 39.847656 " fill-opacity="1" fill-rule="nonzero"/><path fill="#f2f2f2" d="M 25.707031 47.785156 L 43.875 48.164062 L 75.335938 48.339844 L 87.484375 47.121094 L 87.410156 60.347656 L 88.519531 66.191406 L 62.808594 65.371094 L 39.472656 65.839844 L 24.917969 65.910156 L 25.894531 54.890625 Z M 25.707031 47.785156 " fill-opacity="1" fill-rule="nonzero"/><path fill="#36342f" d="M 38.902344 53.203125 C 38.902344 53.203125 38.242188 51.746094 38.050781 51.558594 C 37.863281 51.375 34.316406 50.453125 33.574219 50.507812 C 32.832031 50.558594 29.960938 51.28125 29.792969 51.441406 C 29.628906 51.605469 28.964844 53.804688 28.894531 54.261719 C 28.828125 54.722656 29.339844 56.367188 29.480469 56.5 C 29.617188 56.632812 31.921875 57.578125 32.355469 57.734375 C 32.789062 57.890625 36.398438 58.347656 36.539062 58.445312 C 36.800781 58.621094 37.257812 59.695312 37.324219 59.894531 C 37.390625 60.09375 37.0625 61.421875 36.71875 61.664062 C 36.371094 61.90625 33.292969 62.0625 32.949219 62.039062 C 32.605469 62.015625 31.039062 61.101562 30.972656 60.847656 C 30.910156 60.589844 30.65625 58.9375 30.65625 58.9375 L 28.863281 59.257812 C 28.863281 59.257812 28.921875 61.878906 29.117188 62.28125 C 29.3125 62.679688 30.761719 63.441406 30.761719 63.441406 C 30.761719 63.441406 34.707031 64.148438 35.25 64.15625 C 35.792969 64.160156 38.847656 62.761719 39.226562 62.175781 C 39.453125 61.820312 39.484375 59.054688 39.351562 58.707031 C 39.117188 58.070312 38.460938 56.917969 38.199219 56.769531 C 37.941406 56.625 35.625 56.011719 35.625 56.011719 C 35.625 56.011719 33.4375 55.605469 33.140625 55.523438 C 32.84375 55.4375 31.480469 54.726562 31.433594 54.609375 C 31.320312 54.328125 31.621094 52.722656 31.878906 52.589844 C 32.308594 52.371094 34.445312 52.285156 34.710938 52.304688 C 34.976562 52.328125 35.789062 52.714844 35.910156 52.792969 C 36.027344 52.871094 36.515625 53.796875 36.515625 53.796875 Z M 38.902344 53.203125 " fill-opacity="1" fill-rule="nonzero"/><path fill="#36342f" d="M 41.140625 51.101562 L 40.984375 57.691406 C 40.984375 57.691406 41.453125 62.238281 41.566406 62.480469 C 41.683594 62.722656 43.070312 63.472656 43.070312 63.472656 C 43.070312 63.472656 44.847656 63.757812 45.359375 63.765625 C 45.867188 63.777344 48.363281 63.324219 48.652344 63.207031 C 48.941406 63.085938 50.117188 61.835938 50.121094 61.546875 L 50.269531 55.367188 L 50.050781 50.597656 L 47.796875 50.734375 L 47.738281 54.292969 L 47.992188 59.476562 C 47.992188 59.476562 47.761719 61.21875 47.636719 61.4375 C 47.511719 61.652344 46.160156 62.046875 46.160156 62.046875 L 45.074219 61.996094 C 45.074219 61.996094 43.488281 61.605469 43.382812 61.300781 C 43.277344 61 43.101562 56.097656 43.101562 56.097656 L 43.75 50.914062 Z M 41.140625 51.101562 " fill-opacity="1" fill-rule="nonzero"/><path fill="#36342f" d="M 74.042969 51.476562 L 74.570312 57.804688 L 74.414062 63.542969 L 77.277344 63.492188 L 77.011719 61.832031 L 76.628906 54.066406 C 76.628906 54.066406 78.914062 52.488281 79.3125 52.527344 C 79.710938 52.5625 81.601562 52.785156 81.835938 53.019531 C 81.988281 53.179688 82.355469 54.417969 82.292969 54.675781 C 82.191406 55.09375 81.304688 55.824219 81.082031 55.972656 C 80.855469 56.117188 78.140625 56.671875 78.140625 56.671875 L 77.652344 57.953125 L 80.242188 59.511719 L 81.84375 61.601562 L 82.429688 63.429688 L 85.300781 63.441406 L 82.992188 59.375 L 80.28125 57.738281 C 80.28125 57.738281 82.960938 57.195312 83.246094 56.976562 C 83.53125 56.761719 84.375 54.703125 84.375 54.703125 C 84.375 54.703125 84.285156 52.820312 84.148438 52.417969 C 84.011719 52.019531 82.222656 50.734375 82.222656 50.734375 C 82.222656 50.734375 79.292969 50.511719 79.070312 50.515625 C 78.847656 50.515625 76.53125 51.835938 76.53125 51.835938 L 76.589844 50.730469 L 73.910156 51.105469 Z M 74.042969 51.476562 " fill-opacity="1" fill-rule="nonzero"/><path fill="#36342f" d="M 56.585938 56.972656 L 56.550781 58.34375 L 59.785156 58.136719 C 59.785156 58.136719 59.773438 59.835938 59.710938 60.117188 C 59.617188 60.535156 57.929688 61.484375 57.457031 61.617188 C 56.984375 61.746094 54.933594 61.515625 54.789062 61.324219 C 53.847656 60.109375 53.628906 55.234375 53.789062 54.929688 C 53.949219 54.625 54.679688 53.191406 55.027344 52.828125 C 55.230469 52.613281 56.234375 52.507812 56.515625 52.519531 C 56.796875 52.527344 58.558594 53.488281 58.683594 53.691406 C 58.761719 53.8125 59.199219 54.347656 59.273438 54.695312 L 61.355469 54.105469 L 61.15625 53.804688 C 60.5625 52.929688 59.773438 51.929688 59.269531 51.691406 C 58.394531 51.285156 56.296875 50.40625 55.765625 50.378906 C 55.238281 50.355469 52.761719 51.503906 52.761719 51.503906 C 52.761719 51.503906 51.445312 54.875 51.425781 55.207031 C 51.40625 55.539062 51.355469 59.347656 51.949219 61.0625 C 52.042969 61.335938 53.707031 63.121094 53.898438 63.21875 C 54.089844 63.316406 57.871094 63.441406 58.347656 63.378906 C 58.824219 63.320312 62.011719 61.203125 62.027344 60.886719 C 62.039062 60.664062 62.214844 58.648438 62.195312 57.015625 L 60.40625 56.808594 Z M 56.585938 56.972656 " fill-opacity="1" fill-rule="nonzero"/><path fill="#36342f" d="M 72.621094 58.847656 L 70.4375 51.019531 L 69.191406 50.699219 L 66.386719 50.972656 L 64.914062 56.214844 L 63.546875 63.441406 L 65.964844 63.496094 L 66.769531 59.117188 L 70.316406 58.871094 L 71.148438 63.519531 L 73.257812 63.484375 Z M 66.949219 57.09375 L 68.039062 53.371094 L 69.15625 53.027344 L 69.964844 56.988281 Z M 66.949219 57.09375 " fill-opacity="1" fill-rule="nonzero"/></svg>