<?xml version="1.0" encoding="utf-8"?>
<!-- Generator: Adobe Illustrator 27.1.1, SVG Export Plug-In . SVG Version: 6.00 Build 0)  -->
<svg version="1.1" id="Lager_1" xmlns="http://www.w3.org/2000/svg" xmlns:xlink="http://www.w3.org/1999/xlink" x="0px" y="0px"
	 viewBox="0 0 111.8 127.6" style="enable-background:new 0 0 111.8 127.6;" xml:space="preserve">
<style type="text/css">
	.st0{clip-path:url(#SVGID_00000129204915684649032830000015453612061027260583_);}
	.st1{fill:#EFDEC1;}
	.st2{fill:#FFFFFF;}
	.st3{fill:#F2F2F2;}
	.st4{clip-path:url(#SVGID_00000081607865347404729930000013425392879067627144_);}
	.st5{fill:#F0C642;}
	.st6{fill:#36342F;}
</style>
<g>
	<defs>
		<rect id="SVGID_1_" x="1.3" y="27.4" width="109" height="98.7"/>
	</defs>
	<clipPath id="SVGID_00000019640901721975137580000016114752509082212543_">
		<use xlink:href="#SVGID_1_"  style="overflow:visible;"/>
	</clipPath>
	<g style="clip-path:url(#SVGID_00000019640901721975137580000016114752509082212543_);">
		<path class="st1" d="M108.1,71.9c0,0-0.1-22.8-0.4-23.9c-0.3-0.8-3.9-5.8-5.7-8.3c1.1,0,2.3-0.2,3.4-0.3c0.3-0.2,1-3.8,1-4.3
			c-0.1-0.7-3.9-3.7-4.2-3.9c-0.5-0.1-1-0.1-1.6-0.1L99.5,31c-2.1-0.1-5.1-0.3-8.2-0.5l-1,0c-5.1-0.3-10-0.5-10-0.5l-0.8,0l-0.4,0
			l-12-0.4l-0.5,0l-12-0.4c-0.1,0-0.2,0-0.4,0c-4.2-0.1-8.2-0.2-11.5-0.3l-0.7,0c-3.5-0.1-6-0.2-6.6-0.2c-0.5,0-2,0.1-3.9,0.2
			l-0.8,0.1c-2.7,0.2-6.2,0.4-9.7,0.7l-1,0.1C17,29.8,14,30,11.5,30.2l-1,0.1c-2.9,0.2-4.9,0.4-5,0.4c-0.2,0.1-3.2,4.4-3.2,4.7
			c0,0.2,0.6,2.9,0.8,3.2C3.2,38.6,5.8,39,5.8,39l3.6,0.2c-2,1.9-7.3,6.5-7.6,7.4c-0.4,1,1.6,39.7,1.6,39.7s-0.8,27.1-0.7,28.2
			c0.1,1,2.4,6.1,3,6.8s7.8,1.6,7.8,1.6l27,3.2l31.9-0.9c0,0,21.2-1.1,22.6-1.4c1.4-0.3,9.8-1.4,10.9-2.2c1.1-0.9,4.3-9.3,4.3-10
			C110.3,110.7,108.1,71.9,108.1,71.9z"/>
	</g>
</g>
<path class="st2" d="M27.2,80.6c3.5-0.3,37.1,6.2,40.2,6.5c4.5,0.4,19.1-0.7,27.7-1.2c3.7-0.2,6.4,0.1,6.6,0.2c0.7,0.3,1,13,1,13
	s1.5,12.9,1.5,13.7c0,0.7-1.8,3.9-2.2,4.2c-0.1,0.1-1.1,0.5-3.8,0.8c-5.1,0.5-12.3,0.8-14.3,0.9c-2.8,0.1-40.4,1.6-40.4,1.6
	s-30.9-3.8-31.8-4.3c-0.3-0.1-3.5-3.2-3.4-4.6c0.1-4,0.8-19.2,0.8-19.2s-0.3-7.3-0.1-7.4C9.6,84.2,25.5,80.7,27.2,80.6z"/>
<path class="st3" d="M93.4,97.3c0,0,0.2-0.1,1-0.2c0.9-0.1,1.8,0.8,1.8,0.8s0.4,0.9,0.2,1.3c-0.4,0.8-1.3,1.4-1.5,1.5
	c-0.3,0.3-2.1-0.2-2.1-0.2s-0.8-1.1-0.6-1.7C92.4,98.1,93.4,97.3,93.4,97.3z"/>
<path class="st3" d="M29.5,83.3c0,0,0.2-0.1,1-0.2c0.9-0.1,1.8,0.8,1.8,0.8s0.4,0.9,0.2,1.3c-0.4,0.8-1.3,1.4-1.5,1.5
	C30.8,87,29,86.5,29,86.5s-0.8-1.1-0.6-1.7S29.5,83.3,29.5,83.3z"/>
<path class="st3" d="M90.4,112.4c0,0,0.2-0.1,1-0.2s1.8,0.8,1.8,0.8s0.4,0.9,0.2,1.3c-0.4,0.8-1.3,1.4-1.5,1.5
	c-0.3,0.3-2.1-0.2-2.1-0.2s-0.8-1.1-0.6-1.7C89.4,113.3,90.4,112.4,90.4,112.4z"/>
<path class="st3" d="M84.5,107.1c0,0,0.2-0.1,1-0.2c0.9-0.1,1.8,0.8,1.8,0.8s0.4,0.9,0.2,1.3c-0.4,0.8-1.3,1.4-1.5,1.5
	c-0.3,0.3-2.1-0.2-2.1-0.2s-0.8-1.1-0.6-1.7C83.6,108,84.5,107.1,84.5,107.1z"/>
<path class="st3" d="M71.8,112.3c0,0,0.2-0.1,1-0.2c0.9-0.1,1.8,0.8,1.8,0.8s0.4,0.9,0.2,1.3c-0.4,0.8-1.3,1.4-1.5,1.5
	c-0.3,0.3-2.1-0.2-2.1-0.2s-0.8-1.1-0.6-1.7C70.9,113.2,71.8,112.3,71.8,112.3z"/>
<path class="st3" d="M16.4,85.7c0,0,0.2-0.1,1-0.2c0.9-0.1,1.8,0.8,1.8,0.8s0.4,0.9,0.2,1.3c-0.4,0.8-1.3,1.4-1.5,1.5
	c-0.3,0.3-2.1-0.2-2.1-0.2s-0.8-1.1-0.6-1.7C15.4,86.6,16.4,85.7,16.4,85.7z"/>
<path class="st3" d="M87.5,102.5c0,0,0.2-0.1,1.1-0.2c0.9-0.1,1.8,0.8,1.8,0.8s0.4,0.9,0.2,1.3c-0.4,0.8-1.3,1.4-1.5,1.5
	c-0.3,0.3-2.1-0.2-2.1-0.2s-0.8-1.1-0.6-1.7C86.5,103.4,87.5,102.5,87.5,102.5z"/>
<path class="st3" d="M96.7,107.2c0,0,0.2-0.1,1.2-0.2c1-0.1,2.2,0.8,2.2,0.8s0.5,0.9,0.2,1.3c-0.5,0.8-1.6,1.4-1.8,1.5
	c-0.4,0.3-2.5-0.2-2.5-0.2s-0.9-1.1-0.7-1.7C95.6,108.1,96.7,107.2,96.7,107.2z"/>
<path class="st3" d="M35.7,87.1c0,0,0.2-0.1,1.2-0.2c1-0.1,2.2,0.8,2.2,0.8s0.5,0.9,0.2,1.3c-0.5,0.8-1.6,1.4-1.8,1.5
	c-0.4,0.3-2.5-0.2-2.5-0.2s-0.9-1.1-0.7-1.7C34.6,88,35.7,87.1,35.7,87.1z"/>
<g>
	<defs>
		<rect id="SVGID_00000016063632811670730240000016443108750914128820_" x="46.1" y="1.1" width="22.7" height="21"/>
	</defs>
	<clipPath id="SVGID_00000054224316423294237270000010337129134695855028_">
		<use xlink:href="#SVGID_00000016063632811670730240000016443108750914128820_"  style="overflow:visible;"/>
	</clipPath>
	<g style="clip-path:url(#SVGID_00000054224316423294237270000010337129134695855028_);">
		<path class="st5" d="M56.2,21.4c3.2,0.1,7.6-1.7,8.4-2.5c1.6-1.6,3.5-5.8,3.5-7.4c0-0.7-1.3-5.8-2-6.6c-1.2-1.3-6.4-3.9-8.2-3.7
			c-1.8,0.2-6.4,1.3-7.4,2.1c-1,0.8-3.9,4.2-3.9,6c-0.1,2.8,0.7,6.1,1,6.7c0.4,0.9,3.1,3.6,3.3,3.8C51,20,54.8,21.4,56.2,21.4z"/>
	</g>
</g>
<path class="st3" d="M65.5,14.1l-1.1-4.5c0,0-2-3.8-3.1-4.3l-3.7-1.9l3,0.3c0,0,4.4,2.9,4.8,3.6c0.7,1.1,0.7,4.1,0.7,4.1L65.5,14.1z
	"/>
<path class="st5" d="M102.3,32.6c-0.9,0.5-8.5,0.9-13.1,0.9c-3.1,0-20,0.6-23.2,0.7c-1.4,0-38.8-0.4-38.8-0.4
	c-0.3,0-12-0.6-13.4-0.8c-0.5-0.1-5-0.8-5-1c0-0.2,10.1-5.7,10.8-6c0.6-0.3,13.2-4.1,14.7-4.5c2.2-0.6,16.2-1.7,20.2-1.5
	c0.1,0,0.2,0,0.3,0c3.8,0.1,12.2,0.3,15.5,0.6L83,22.7c0,0,7.3,2.1,8.4,2.6C92.4,25.8,102.6,32.4,102.3,32.6z"/>
<path class="st3" d="M20.8,41.9l22.5,0.9l51.2-1.4l-24.6,2.5l-34.4-0.2l-12.7-0.3l-7.4-1.8L20.8,41.9z"/>
<path class="st3" d="M15,52.4l24.2,0.5l41.9,0.2l16.2-1.6l-0.1,17.6l1.5,7.8l-34.3-1.1l-31.1,0.6L14,76.6l1.3-14.7L15,52.4z"/>
<path class="st6" d="M32.6,59.7c0,0-0.9-1.9-1.1-2.2c-0.2-0.2-5-1.5-6-1.4c-1,0.1-4.8,1-5,1.2c-0.2,0.2-1.1,3.2-1.2,3.8
	c-0.1,0.6,0.6,2.8,0.8,3c0.2,0.2,3.3,1.4,3.8,1.6c0.6,0.2,5.4,0.8,5.6,0.9c0.3,0.2,1,1.7,1,1.9c0.1,0.3-0.3,2-0.8,2.4
	c-0.5,0.3-4.6,0.5-5,0.5s-2.5-1.2-2.6-1.6c-0.1-0.3-0.4-2.5-0.4-2.5l-2.4,0.4c0,0,0.1,3.5,0.3,4c0.3,0.5,2.2,1.5,2.2,1.5
	s5.3,0.9,6,1c0.7,0,4.8-1.9,5.3-2.6c0.3-0.5,0.3-4.2,0.2-4.6c-0.3-0.8-1.2-2.4-1.5-2.6c-0.3-0.2-3.4-1-3.4-1s-2.9-0.5-3.3-0.7
	c-0.4-0.1-2.2-1.1-2.3-1.2c-0.2-0.4,0.2-2.5,0.6-2.7c0.6-0.3,3.4-0.4,3.8-0.4c0.4,0,1.4,0.5,1.6,0.7c0.2,0.1,0.8,1.3,0.8,1.3
	L32.6,59.7z"/>
<path class="st6" d="M35.6,56.9l-0.2,8.8c0,0,0.6,6.1,0.8,6.4c0.2,0.3,2,1.3,2,1.3s2.4,0.4,3.1,0.4c0.7,0,4-0.6,4.4-0.7
	c0.4-0.2,2-1.8,2-2.2l0.2-8.2l-0.3-6.4l-3,0.2l-0.1,4.7l0.3,6.9c0,0-0.3,2.3-0.5,2.6c-0.2,0.3-2,0.8-2,0.8l-1.4-0.1
	c0,0-2.1-0.5-2.3-0.9c-0.1-0.4-0.4-6.9-0.4-6.9l0.9-6.9L35.6,56.9z"/>
<path class="st6" d="M79.5,57.4l0.7,8.4L80,73.4l3.8-0.1l-0.4-2.2l-0.5-10.4c0,0,3-2.1,3.6-2.1c0.5,0,3.1,0.3,3.4,0.7
	c0.2,0.2,0.7,1.9,0.6,2.2c-0.1,0.6-1.3,1.5-1.6,1.7c-0.3,0.2-3.9,0.9-3.9,0.9L84.3,66l3.5,2.1l2.1,2.8l0.8,2.4l3.8,0l-3.1-5.4
	l-3.6-2.2c0,0,3.6-0.7,4-1c0.4-0.3,1.5-3,1.5-3s-0.1-2.5-0.3-3c-0.2-0.5-2.6-2.2-2.6-2.2s-3.9-0.3-4.2-0.3c-0.3,0-3.4,1.8-3.4,1.8
	l0.1-1.5l-3.6,0.5L79.5,57.4z"/>
<path class="st6" d="M56.2,64.7l0,1.8l4.3-0.3c0,0,0,2.3-0.1,2.6c-0.1,0.6-2.4,1.8-3,2c-0.6,0.2-3.4-0.1-3.6-0.4
	c-1.3-1.6-1.5-8.1-1.3-8.5c0.2-0.4,1.2-2.3,1.7-2.8c0.3-0.3,1.6-0.4,2-0.4c0.4,0,2.7,1.3,2.9,1.6c0.1,0.2,0.7,0.9,0.8,1.3l2.8-0.8
	l-0.3-0.4c-0.8-1.2-1.8-2.5-2.5-2.8c-1.2-0.5-4-1.7-4.7-1.8c-0.7,0-4,1.5-4,1.5s-1.8,4.5-1.8,4.9c0,0.4-0.1,5.5,0.7,7.8
	c0.1,0.4,2.3,2.7,2.6,2.9c0.3,0.1,5.3,0.3,5.9,0.2c0.6-0.1,4.9-2.9,4.9-3.3c0-0.3,0.2-3,0.2-5.2l-2.4-0.3L56.2,64.7z"/>
<path class="st6" d="M77.6,67.2l-2.9-10.4L73,56.3l-3.7,0.4l-2,7l-1.8,9.6l3.2,0.1l1.1-5.8l4.7-0.3l1.1,6.2l2.8,0L77.6,67.2z
	 M70,64.8l1.5-5l1.5-0.5l1.1,5.3L70,64.8z"/>
</svg>
