<svg width="1440" height="661" viewBox="0 0 1440 661" fill="none" xmlns="http://www.w3.org/2000/svg">
<path d="M467.04 -54.9854C471.657 -55.3022 475.479 -51.4473 475.123 -46.8331V-46.8331C474.48 -38.4828 485.851 -35.4009 489.511 -42.9336L500.472 -65.4855C505.281 -75.3802 519.652 -74.523 523.25 -64.1268L553.21 22.4261C554.388 25.8306 554.789 29.4557 554.383 33.0353L541.328 148.106C538.756 170.767 509.009 177.42 497.03 158.013L486.765 141.383C478.549 128.073 458.204 132.202 455.827 147.662L454.973 153.221C452.655 168.302 432.046 170.948 425.993 156.941V156.941C420.729 144.759 403.475 144.698 398.127 156.844L393.305 167.792C384.495 187.798 354.657 181.842 354.201 159.988L353.893 145.239C353.553 128.951 336.687 118.304 321.837 125.002V125.002C301.8 134.039 281.887 112.192 292.737 93.0762L296.978 85.6039C303.257 74.5419 299.449 60.4867 288.445 54.1064L287.591 53.6112C274.889 46.2461 272.578 28.8619 282.914 18.4338V18.4338C289.918 11.3684 291.428 0.532796 286.622 -8.17795L284.379 -12.2446C277.232 -25.2007 285.806 -41.2205 300.551 -42.4588V-42.4588C310.415 -43.2873 318.265 -51.0711 319.177 -60.928V-60.928C320.539 -75.6619 336.631 -84.101 349.526 -76.8447L353.574 -74.5671C362.244 -69.6885 373.092 -71.1068 380.216 -78.0504V-78.0504C390.731 -88.2987 408.095 -85.8409 415.353 -73.0769L419.7 -65.4308C424.281 -57.3742 433.073 -52.6548 442.32 -53.2892L467.04 -54.9854Z" fill="url(#paint0_linear_435_178)"/>
<path d="M289.19 -36.1285C303.8 -37.0762 315.878 -24.8955 314.807 -10.2941V-10.2941C314.133 -1.09979 318.758 7.67469 326.725 12.3141L332.135 15.465C343.23 21.9262 345.237 37.1242 336.199 46.2434V46.2434C330.058 52.4394 328.743 61.945 332.972 69.5752L334.757 72.7967C341.168 84.3626 333.485 98.6863 320.304 99.744V99.744C311.876 100.42 305.026 106.815 303.771 115.176L299.266 145.205C297.274 158.487 279.138 160.872 273.779 148.557V148.557C269.121 137.852 253.942 137.838 249.264 148.535L245.088 158.084C237.407 175.649 211.227 170.51 210.755 151.346L210.426 137.995C210.074 123.681 195.259 114.342 182.192 120.197V120.197C164.537 128.107 147.028 108.888 156.545 92.0447L160.188 85.598C165.702 75.8385 162.348 63.4595 152.661 57.8184L151.704 57.2609C140.609 50.7997 138.602 35.6016 147.64 26.4825V26.4825C153.781 20.2864 155.096 10.7808 150.867 3.15065L148.793 -0.590754C142.518 -11.9131 150.039 -25.9352 162.943 -26.9706V-26.9706C171.596 -27.665 178.487 -34.4983 179.254 -43.1453V-43.1453C180.399 -56.0397 194.484 -63.4422 205.753 -57.0716L209.476 -54.9665C217.071 -50.6734 226.587 -51.9078 232.835 -57.9962V-57.9962C242.03 -66.957 257.21 -64.8224 263.578 -53.6734L266.683 -48.2364C271.255 -40.231 279.99 -35.5318 289.19 -36.1285V-36.1285Z" fill="url(#paint1_linear_435_178)"/>
<path d="M667.188 -23.1293C681.798 -24.077 693.876 -11.8963 692.806 2.70514V2.70514C692.131 11.8994 696.757 20.6739 704.723 25.3133L710.134 28.4641C721.229 34.9253 723.235 50.1233 714.197 59.2425V59.2425C708.056 65.4386 706.742 74.9442 710.971 82.5743L712.756 85.7959C719.166 97.3618 711.483 111.685 698.302 112.743V112.743C689.875 113.419 683.024 119.814 681.77 128.175L677.265 158.205C675.272 171.486 657.136 173.871 651.778 161.556V161.556C647.119 150.851 631.941 150.837 627.263 161.534L623.086 171.084C615.405 188.648 589.226 183.51 588.754 164.345L588.448 151.941C588.084 137.177 572.805 127.545 559.327 133.583L549.324 138.065C531.049 146.253 511.332 129.893 516.007 110.421L537.62 20.4056C540.63 7.86907 533.25 -4.81822 520.864 -8.39817L384.586 -47.7872C364.594 -53.5655 360.811 -80.2506 378.41 -91.3575L421.359 -118.464C422.451 -119.154 423.597 -119.754 424.785 -120.26L498.019 -151.434C509.79 -156.445 523.244 -149.695 526.264 -137.264L547.905 -48.1851C549.401 -42.0263 558.367 -42.6992 558.927 -49.0123V-49.0123C559.287 -53.0687 563.718 -55.3974 567.263 -53.3934L587.475 -41.9673C595.069 -37.6742 604.585 -38.9085 610.833 -44.997V-44.997C620.028 -53.9577 635.209 -51.8232 641.576 -40.6742L644.681 -35.2372C649.253 -27.2318 657.989 -22.5326 667.188 -23.1293V-23.1293Z" fill="url(#paint2_linear_435_178)"/>
<path d="M1396.04 -37.9854C1400.66 -38.3022 1404.48 -34.4473 1404.12 -29.8331V-29.8331C1403.48 -21.4828 1414.85 -18.4009 1418.51 -25.9336L1429.47 -48.4855C1434.28 -58.3802 1448.65 -57.523 1452.25 -47.1268L1482.21 39.4261C1483.39 42.8306 1483.79 46.4557 1483.38 50.0353L1470.33 165.106C1467.76 187.767 1438.01 194.42 1426.03 175.013L1415.77 158.383C1407.55 145.073 1387.2 149.202 1384.83 164.662L1383.97 170.221C1381.65 185.302 1361.05 187.948 1354.99 173.941V173.941C1349.73 161.759 1332.48 161.698 1327.13 173.844L1322.3 184.792C1313.49 204.798 1283.66 198.842 1283.2 176.988L1282.94 164.403C1282.58 147.402 1264.67 136.543 1249.43 144.094L1241.42 148.065C1223.6 156.894 1203.36 141.589 1206.99 122.042L1212.92 90.1948C1214.22 83.1997 1211.94 76.0168 1206.85 71.0479V71.0479C1198.38 62.7842 1198.27 49.2021 1206.6 40.7981L1211.55 35.7967C1218.77 28.5161 1220.33 17.3506 1215.38 8.37466L1213.38 4.75536C1206.23 -8.20074 1214.81 -24.2205 1229.55 -25.4588V-25.4588C1239.42 -26.2873 1247.27 -34.0711 1248.18 -43.928V-43.928C1249.54 -58.6619 1265.63 -67.101 1278.53 -59.8447L1282.57 -57.5671C1291.24 -52.6885 1302.09 -54.1068 1309.22 -61.0504V-61.0504C1319.73 -71.2987 1337.09 -68.8409 1344.35 -56.0769L1348.7 -48.4308C1353.28 -40.3742 1362.07 -35.6548 1371.32 -36.2892L1396.04 -37.9854Z" fill="url(#paint3_linear_435_178)"/>
<path d="M950.04 -20.9854C954.657 -21.3022 958.479 -17.4473 958.123 -12.8331V-12.8331C957.48 -4.48276 968.851 -1.40094 972.511 -8.93357L983.472 -31.4855C988.281 -41.3802 1002.65 -40.523 1006.25 -30.1268L1036.21 56.4261C1037.39 59.8306 1037.79 63.4557 1037.38 67.0353L1024.33 182.106C1021.76 204.767 992.009 211.42 980.03 192.013L969.765 175.383C961.549 162.073 941.204 166.202 938.827 181.662L937.973 187.221C935.655 202.302 915.046 204.948 908.993 190.941V190.941C903.729 178.759 886.475 178.698 881.127 190.844L876.305 201.792C867.495 221.798 837.657 215.842 837.201 193.988L836.893 179.239C836.553 162.951 819.687 152.304 804.837 159.002V159.002C784.8 168.039 764.887 146.192 775.737 127.076L779.978 119.604C786.257 108.542 782.449 94.4867 771.445 88.1064L770.591 87.6112C757.889 80.2461 755.578 62.8619 765.914 52.4338V52.4338C772.918 45.3684 774.428 34.5328 769.622 25.822L767.379 21.7554C760.232 8.79926 768.806 -7.22045 783.551 -8.45883V-8.45883C793.415 -9.2873 801.265 -17.0711 802.177 -26.928V-26.928C803.539 -41.6619 819.631 -50.101 832.526 -42.8447L836.574 -40.5671C845.244 -35.6885 856.092 -37.1068 863.216 -44.0504V-44.0504C873.731 -54.2987 891.095 -51.8409 898.353 -39.0769L902.7 -31.4308C907.281 -23.3742 916.073 -18.6548 925.32 -19.2892L950.04 -20.9854Z" fill="url(#paint4_linear_435_178)"/>
<path d="M1147.04 -20.9854C1151.66 -21.3022 1155.48 -17.4473 1155.12 -12.8331V-12.8331C1154.48 -4.48276 1165.85 -1.40094 1169.51 -8.93357L1183.57 -37.8661C1188.08 -47.1418 1200.84 -48.2967 1206.94 -39.9817L1259.29 31.3712C1263.54 37.1633 1264.99 44.5483 1263.24 51.5159L1225.59 201.42C1220.23 222.748 1191.46 226.37 1180.99 207.036L1165.64 178.715C1158.27 165.108 1137.83 168.659 1135.47 183.956L1134.97 187.221C1132.65 202.302 1112.05 204.948 1105.99 190.941V190.941C1100.73 178.759 1083.48 178.698 1078.13 190.844L1073.3 201.792C1064.49 221.798 1034.66 215.842 1034.2 193.988L1033.89 179.239C1033.55 162.951 1016.69 152.304 1001.84 159.002V159.002C981.8 168.039 961.887 146.192 972.737 127.076L976.978 119.604C983.257 108.542 979.449 94.4867 968.445 88.1064L967.591 87.6112C954.889 80.2461 952.578 62.8619 962.914 52.4338V52.4338C969.918 45.3684 971.428 34.5328 966.622 25.822L964.379 21.7554C957.232 8.79926 965.806 -7.22045 980.551 -8.45883V-8.45883C990.415 -9.2873 998.265 -17.0711 999.177 -26.928V-26.928C1000.54 -41.6619 1016.63 -50.101 1029.53 -42.8447L1033.57 -40.5671C1042.24 -35.6885 1053.09 -37.1068 1060.22 -44.0504V-44.0504C1070.73 -54.2987 1088.09 -51.8409 1095.35 -39.0769L1099.7 -31.4308C1104.28 -23.3742 1113.07 -18.6548 1122.32 -19.2892L1147.04 -20.9854Z" fill="url(#paint5_linear_435_178)"/>
<path d="M808.04 -20.9854C812.657 -21.3022 816.479 -17.4473 816.123 -12.8331V-12.8331C815.48 -4.48276 826.851 -1.40094 830.511 -8.93357L841.472 -31.4855C846.281 -41.3802 860.652 -40.523 864.25 -30.1268L894.21 56.4261C895.388 59.8306 895.789 63.4557 895.383 67.0353L882.328 182.106C879.756 204.767 850.009 211.42 838.03 192.013L827.765 175.383C819.549 162.073 799.204 166.202 796.827 181.662L795.973 187.221C793.655 202.302 773.046 204.948 766.993 190.941V190.941C761.729 178.759 744.475 178.698 739.127 190.844L734.305 201.792C725.495 221.798 695.657 215.842 695.201 193.988L694.893 179.239C694.553 162.951 677.687 152.304 662.837 159.002V159.002C642.8 168.039 622.887 146.192 633.737 127.076L637.978 119.604C644.257 108.542 640.449 94.4867 629.445 88.1064L628.591 87.6112C615.889 80.2461 613.578 62.8619 623.914 52.4338V52.4338C630.918 45.3684 632.428 34.5328 627.622 25.822L625.379 21.7554C618.232 8.79926 626.806 -7.22045 641.551 -8.45883V-8.45883C651.415 -9.2873 659.265 -17.0711 660.177 -26.928V-26.928C661.539 -41.6619 677.631 -50.101 690.526 -42.8447L694.574 -40.5671C703.244 -35.6885 714.092 -37.1068 721.216 -44.0504V-44.0504C731.731 -54.2987 749.095 -51.8409 756.353 -39.0769L760.7 -31.4308C765.281 -23.3742 774.073 -18.6548 783.32 -19.2892L808.04 -20.9854Z" fill="url(#paint6_linear_435_178)"/>
<path d="M166.04 -11.9854C170.657 -12.3022 174.479 -8.44728 174.123 -3.83311V-3.83311C173.48 4.51724 184.851 7.59906 188.511 0.0664269L199.472 -22.4855C204.281 -32.3802 218.652 -31.523 222.25 -21.1268L252.21 65.4261C253.388 68.8306 253.789 72.4557 253.383 76.0353L240.328 191.106C237.756 213.767 208.009 220.42 196.03 201.013L185.765 184.383C177.549 171.073 157.204 175.202 154.827 190.662L153.973 196.221C151.655 211.302 131.046 213.948 124.993 199.941V199.941C119.729 187.759 102.475 187.698 97.1265 199.844L92.3049 210.792C83.4946 230.798 53.6566 224.842 53.2005 202.988L52.8927 188.239C52.5529 171.951 35.687 161.304 20.8367 168.002V168.002C0.800173 177.039 -19.1134 155.192 -8.2634 136.076L-4.0221 128.604C2.25668 117.542 -1.55081 103.487 -12.5546 97.1064L-13.4087 96.6112C-26.111 89.2461 -28.4223 71.8619 -18.0856 61.4338V61.4338C-11.0822 54.3684 -9.57243 43.5328 -14.3777 34.822L-16.6211 30.7554C-23.7683 17.7993 -15.1938 1.77955 -0.448936 0.541172V0.541172C9.41536 -0.287301 17.2651 -8.07108 18.1767 -17.928V-17.928C19.5394 -32.6619 35.6308 -41.101 48.5261 -33.8447L52.5737 -31.5671C61.2436 -26.6885 72.0916 -28.1068 79.2158 -35.0504V-35.0504C89.7308 -45.2987 107.095 -42.8409 114.353 -30.0769L118.7 -22.4308C123.281 -14.3742 132.073 -9.65478 141.32 -10.2892L166.04 -11.9854Z" fill="url(#paint7_linear_435_178)"/>
<path d="M363.937 -4.11711C367.801 -4.38224 370.8 -7.59393 370.8 -11.467V-11.467C370.8 -13.8913 371.993 -16.1604 373.99 -17.5351L382.398 -23.3235C395.526 -32.3616 413.656 -26.4077 418.869 -11.3455L448.212 73.4245C449.39 76.8289 449.791 80.4541 449.385 84.0337L436.33 199.105C433.759 221.766 404.011 228.418 392.032 209.011L381.767 192.381C373.551 179.071 353.206 183.2 350.829 198.66L349.975 204.219C347.657 219.301 327.048 221.946 320.995 207.94V207.94C315.731 195.757 298.478 195.697 293.129 207.842L271.659 256.592C263.455 275.221 237.286 275.938 228.075 257.785L209.38 220.944C205.61 213.515 198.273 208.557 189.973 207.83L156.986 204.944C154.588 204.734 152.235 204.166 150.005 203.26L6.55935 144.947C4.20132 143.988 2.00988 142.663 0.0663785 141.019L-85.7045 68.476C-87.7952 66.7077 -90.9985 68.1936 -90.9989 70.9319V70.9319C-90.9992 73.7834 -87.5641 75.2257 -85.5288 73.2285L72.4359 -81.7746C82.269 -91.4233 98.1722 -90.8907 107.338 -80.6058L155.157 -26.9453C161.455 -19.8783 171.304 -17.1482 180.342 -19.9645L192.22 -23.6661C195.049 -24.5478 197.692 -25.9433 200.015 -27.7828L204.387 -31.2438C212.064 -37.3216 222.654 -38.1551 231.188 -33.3532L248.576 -23.5687C257.246 -18.6901 268.094 -20.1084 275.218 -27.052V-27.052C285.733 -37.3003 303.097 -34.8425 310.355 -22.0786L314.702 -14.4325C319.283 -6.37581 328.075 -1.6564 337.322 -2.29084L363.937 -4.11711Z" fill="url(#paint8_linear_435_178)"/>
<path d="M559.04 -3.98538C563.657 -4.30218 567.479 -0.44728 567.123 4.16689V4.16689C566.48 12.5172 577.851 15.5991 581.511 8.06643L592.472 -14.4855C597.281 -24.3802 611.652 -23.523 615.25 -13.1268L645.21 73.4261C646.388 76.8306 646.789 80.4557 646.383 84.0353L633.328 199.106C630.756 221.767 601.009 228.42 589.03 209.013L578.765 192.383C570.549 179.073 550.204 183.202 547.827 198.662L546.973 204.221C544.655 219.302 524.046 221.948 517.993 207.941V207.941C512.729 195.759 495.475 195.698 490.127 207.844L485.305 218.792C476.495 238.798 446.657 232.842 446.201 210.988L445.893 196.239C445.553 179.951 428.687 169.304 413.837 176.002V176.002C393.8 185.039 373.887 163.192 384.737 144.076L388.978 136.604C395.257 125.542 391.449 111.487 380.445 105.106L379.591 104.611C366.889 97.2461 364.578 79.8619 374.914 69.4338V69.4338C381.918 62.3684 383.428 51.5328 378.622 42.822L376.379 38.7554C369.232 25.7993 377.806 9.77955 392.551 8.54117V8.54117C402.415 7.7127 410.265 -0.071079 411.177 -9.92804V-9.92804C412.539 -24.6619 428.631 -33.101 441.526 -25.8447L445.574 -23.5671C454.244 -18.6885 465.092 -20.1068 472.216 -27.0504V-27.0504C482.731 -37.2987 500.095 -34.8409 507.353 -22.0769L511.7 -14.4308C516.281 -6.37419 525.073 -1.65478 534.32 -2.28922L559.04 -3.98538Z" fill="url(#paint9_linear_435_178)"/>
<path d="M467.04 -54.9854C471.657 -55.3022 475.479 -51.4473 475.123 -46.8331V-46.8331C474.48 -38.4828 485.851 -35.4009 489.511 -42.9336L500.472 -65.4855C505.281 -75.3802 519.652 -74.523 523.25 -64.1268L553.21 22.4261C554.388 25.8306 554.789 29.4557 554.383 33.0353L541.328 148.106C538.756 170.767 509.009 177.42 497.03 158.013L486.765 141.383C478.549 128.073 458.204 132.202 455.827 147.662L454.973 153.221C452.655 168.302 432.046 170.948 425.993 156.941V156.941C420.729 144.759 403.475 144.698 398.127 156.844L393.305 167.792C384.495 187.798 354.657 181.842 354.201 159.988L353.893 145.239C353.553 128.951 336.687 118.304 321.837 125.002V125.002C301.8 134.039 281.887 112.192 292.737 93.0762L296.978 85.6039C303.257 74.5419 299.449 60.4867 288.445 54.1064L287.591 53.6112C274.889 46.2461 272.578 28.8619 282.914 18.4338V18.4338C289.918 11.3684 291.428 0.532796 286.622 -8.17795L284.379 -12.2446C277.232 -25.2007 285.806 -41.2205 300.551 -42.4588V-42.4588C310.415 -43.2873 318.265 -51.0711 319.177 -60.928V-60.928C320.539 -75.6619 336.631 -84.101 349.526 -76.8447L353.574 -74.5671C362.244 -69.6885 373.092 -71.1068 380.216 -78.0504V-78.0504C390.731 -88.2987 408.095 -85.8409 415.353 -73.0769L419.7 -65.4308C424.281 -57.3742 433.073 -52.6548 442.32 -53.2892L467.04 -54.9854Z" fill="url(#paint10_linear_435_178)"/>
<path d="M289.19 -36.1285C303.8 -37.0762 315.878 -24.8955 314.807 -10.2941V-10.2941C314.133 -1.09979 318.758 7.67469 326.725 12.3141L332.135 15.465C343.23 21.9262 345.237 37.1242 336.199 46.2434V46.2434C330.058 52.4394 328.743 61.945 332.972 69.5752L334.757 72.7967C341.168 84.3626 333.485 98.6863 320.304 99.744V99.744C311.876 100.42 305.026 106.815 303.771 115.176L299.266 145.205C297.274 158.487 279.138 160.872 273.779 148.557V148.557C269.121 137.852 253.942 137.838 249.264 148.535L245.088 158.084C237.407 175.649 211.227 170.51 210.755 151.346L210.426 137.995C210.074 123.681 195.259 114.342 182.192 120.197V120.197C164.537 128.107 147.028 108.888 156.545 92.0447L160.188 85.598C165.702 75.8385 162.348 63.4595 152.661 57.8184L151.704 57.2609C140.609 50.7997 138.602 35.6016 147.64 26.4825V26.4825C153.781 20.2864 155.096 10.7808 150.867 3.15065L148.793 -0.590754C142.518 -11.9131 150.039 -25.9352 162.943 -26.9706V-26.9706C171.596 -27.665 178.487 -34.4983 179.254 -43.1453V-43.1453C180.399 -56.0397 194.484 -63.4422 205.753 -57.0716L209.476 -54.9665C217.071 -50.6734 226.587 -51.9078 232.835 -57.9962V-57.9962C242.03 -66.957 257.21 -64.8224 263.578 -53.6734L266.683 -48.2364C271.255 -40.231 279.99 -35.5318 289.19 -36.1285V-36.1285Z" fill="url(#paint11_linear_435_178)"/>
<path d="M667.188 -23.1293C681.798 -24.077 693.876 -11.8963 692.806 2.70514V2.70514C692.131 11.8994 696.757 20.6739 704.723 25.3133L710.134 28.4641C721.229 34.9253 723.235 50.1233 714.197 59.2425V59.2425C708.056 65.4386 706.742 74.9442 710.971 82.5743L712.756 85.7959C719.166 97.3618 711.483 111.685 698.302 112.743V112.743C689.875 113.419 683.024 119.814 681.77 128.175L677.265 158.205C675.272 171.486 657.136 173.871 651.778 161.556V161.556C647.119 150.851 631.941 150.837 627.263 161.534L623.086 171.084C615.405 188.648 589.226 183.51 588.754 164.345L588.448 151.941C588.084 137.177 572.805 127.545 559.327 133.583L549.324 138.065C531.049 146.253 511.332 129.893 516.007 110.421L537.62 20.4056C540.63 7.86907 533.25 -4.81822 520.864 -8.39817L384.586 -47.7872C364.594 -53.5655 360.811 -80.2506 378.41 -91.3575L421.359 -118.464C422.451 -119.154 423.597 -119.754 424.785 -120.26L498.019 -151.434C509.79 -156.445 523.244 -149.695 526.264 -137.264L547.905 -48.1851C549.401 -42.0263 558.367 -42.6992 558.927 -49.0123V-49.0123C559.287 -53.0687 563.718 -55.3974 567.263 -53.3934L587.475 -41.9673C595.069 -37.6742 604.585 -38.9085 610.833 -44.997V-44.997C620.028 -53.9577 635.209 -51.8232 641.576 -40.6742L644.681 -35.2372C649.253 -27.2318 657.989 -22.5326 667.188 -23.1293V-23.1293Z" fill="url(#paint12_linear_435_178)"/>
<path d="M950.04 -20.9854C954.657 -21.3022 958.479 -17.4473 958.123 -12.8331V-12.8331C957.48 -4.48276 968.851 -1.40094 972.511 -8.93357L983.472 -31.4855C988.281 -41.3802 1002.65 -40.523 1006.25 -30.1268L1036.21 56.4261C1037.39 59.8306 1037.79 63.4557 1037.38 67.0353L1024.33 182.106C1021.76 204.767 992.009 211.42 980.03 192.013L969.765 175.383C961.549 162.073 941.204 166.202 938.827 181.662L937.973 187.221C935.655 202.302 915.046 204.948 908.993 190.941V190.941C903.729 178.759 886.475 178.698 881.127 190.844L876.305 201.792C867.495 221.798 837.657 215.842 837.201 193.988L836.893 179.239C836.553 162.951 819.687 152.304 804.837 159.002V159.002C784.8 168.039 764.887 146.192 775.737 127.076L779.978 119.604C786.257 108.542 782.449 94.4867 771.445 88.1064L770.591 87.6112C757.889 80.2461 755.578 62.8619 765.914 52.4338V52.4338C772.918 45.3684 774.428 34.5328 769.622 25.822L767.379 21.7554C760.232 8.79926 768.806 -7.22045 783.551 -8.45883V-8.45883C793.415 -9.2873 801.265 -17.0711 802.177 -26.928V-26.928C803.539 -41.6619 819.631 -50.101 832.526 -42.8447L836.574 -40.5671C845.244 -35.6885 856.092 -37.1068 863.216 -44.0504V-44.0504C873.731 -54.2987 891.095 -51.8409 898.353 -39.0769L902.7 -31.4308C907.281 -23.3742 916.073 -18.6548 925.32 -19.2892L950.04 -20.9854Z" fill="url(#paint13_linear_435_178)"/>
<path d="M808.04 -20.9854C812.657 -21.3022 816.479 -17.4473 816.123 -12.8331V-12.8331C815.48 -4.48276 826.851 -1.40094 830.511 -8.93357L841.472 -31.4855C846.281 -41.3802 860.652 -40.523 864.25 -30.1268L894.21 56.4261C895.388 59.8306 895.789 63.4557 895.383 67.0353L880.847 195.153C878.471 216.095 852.103 223.907 838.703 207.639V207.639C827.163 193.63 804.83 197.113 798.105 213.971L797.155 216.352C792.114 228.987 777.629 234.956 765.15 229.542L761.696 228.044C750.469 223.173 737.373 227.482 731.232 238.067L707.749 278.545C699.087 293.475 678.005 294.741 667.619 280.954L576.5 160L577.07 160.689C587.837 173.697 608.294 171.902 616.629 157.216L637.978 119.604C644.257 108.542 640.449 94.4867 629.445 88.1064L628.591 87.6112C615.889 80.2461 613.578 62.8619 623.914 52.4338V52.4338C630.918 45.3684 632.428 34.5328 627.622 25.822L625.379 21.7554C618.232 8.79926 626.806 -7.22045 641.551 -8.45883V-8.45883C651.415 -9.2873 659.265 -17.0711 660.177 -26.928V-26.928C661.539 -41.6619 677.631 -50.101 690.526 -42.8447L694.574 -40.5671C703.244 -35.6885 714.092 -37.1068 721.216 -44.0504V-44.0504C731.731 -54.2987 749.095 -51.8409 756.353 -39.0769L760.7 -31.4308C765.281 -23.3742 774.073 -18.6548 783.32 -19.2892L808.04 -20.9854Z" fill="url(#paint14_linear_435_178)"/>
<path d="M166.04 -11.9854C170.657 -12.3022 174.479 -8.44728 174.123 -3.83311V-3.83311C173.48 4.51724 184.851 7.59906 188.511 0.0664269L199.472 -22.4855C204.281 -32.3802 218.652 -31.523 222.25 -21.1268L252.559 66.4349C253.512 69.1873 253.958 72.0895 253.877 75.001L245.484 374.251C244.951 393.26 219.497 399.141 210.679 382.293V382.293C202.175 366.046 177.748 370.798 175.955 389.049L165.189 498.678C163.538 515.488 145.322 525.319 130.198 517.796V517.796C118.692 512.072 104.56 516.296 98.2662 527.502L48.7012 615.751C39.4471 632.228 15.6994 632.147 6.55886 615.607L-21.9907 563.945C-23.9646 560.374 -25 556.359 -25 552.278L-25 494L-25 390L-31.6489 225.594C-31.7716 222.558 -32.4665 219.574 -33.697 216.797L-37.7104 207.739C-40.8069 200.751 -40.4078 192.708 -36.6347 186.061L-4.0221 128.604C2.25668 117.542 -1.55081 103.487 -12.5546 97.1064L-13.4087 96.6112C-26.111 89.2461 -28.4223 71.8619 -18.0856 61.4338V61.4338C-11.0822 54.3684 -9.57243 43.5328 -14.3777 34.822L-16.6211 30.7554C-23.7683 17.7993 -15.1938 1.77955 -0.448936 0.541172V0.541172C9.41536 -0.287301 17.2651 -8.07108 18.1767 -17.928V-17.928C19.5394 -32.6619 35.6308 -41.101 48.5261 -33.8447L52.5737 -31.5671C61.2436 -26.6885 72.0916 -28.1068 79.2158 -35.0504V-35.0504C89.7308 -45.2987 107.095 -42.8409 114.353 -30.0769L118.7 -22.4308C123.281 -14.3742 132.073 -9.65478 141.32 -10.2892L166.04 -11.9854Z" fill="url(#paint15_linear_435_178)"/>
<path d="M363.937 -4.11711C367.801 -4.38224 370.8 -7.59393 370.8 -11.467V-11.467C370.8 -13.8913 371.993 -16.1604 373.99 -17.5351L390.919 -29.1896C400.958 -36.1007 414.575 -34.4371 422.655 -25.3123L483.473 43.3703C488.802 49.389 490.783 57.6672 488.755 65.4464L426.022 306.061C421.456 323.573 399.948 330.007 386.516 317.879L377.675 309.895C369.838 302.82 358.311 301.663 349.225 307.041L345.148 309.454C341.767 311.454 338.926 314.25 336.872 317.599L315.91 351.769C309.024 362.995 294.407 366.622 283.071 359.919L262.68 347.859C258.962 345.66 254.721 344.5 250.401 344.5L201.31 344.5C198.134 344.5 194.991 345.127 192.058 346.345L17.2692 418.937C0.655255 425.837 -17.3928 412.778 -16.0343 394.839L2.06977 155.783C2.65404 148.068 -0.498093 140.541 -6.4056 135.545L-85.7045 68.476C-87.7952 66.7077 -90.9985 68.1936 -90.9989 70.9319V70.9319C-90.9992 73.7834 -87.5641 75.2257 -85.5288 73.2285L72.4359 -81.7746C82.269 -91.4233 98.1722 -90.8907 107.338 -80.6058L155.157 -26.9453C161.455 -19.8783 171.304 -17.1482 180.342 -19.9645L192.22 -23.6661C195.049 -24.5478 197.692 -25.9433 200.015 -27.7828L204.387 -31.2438C212.064 -37.3216 222.654 -38.1551 231.188 -33.3532L248.576 -23.5687C257.246 -18.6901 268.094 -20.1084 275.218 -27.052V-27.052C285.733 -37.3003 303.097 -34.8425 310.355 -22.0786L314.702 -14.4325C319.283 -6.37581 328.075 -1.6564 337.322 -2.29084L363.937 -4.11711Z" fill="url(#paint16_linear_435_178)"/>
<path d="M559.041 -3.98402C563.658 -4.30082 567.481 -0.445918 567.125 4.16825V4.16825C566.481 12.5186 577.852 15.6004 581.513 8.06778L599.944 -29.854C603.18 -36.5127 610.651 -39.9787 617.825 -38.149L733.302 -8.69807C748.275 -4.87933 755.846 11.8368 748.841 25.6101L640.824 237.976C633.317 252.735 613.458 255.659 601.94 243.762V243.762C587.395 228.738 561.841 237.987 560.456 258.853L559.319 275.976C557.81 298.717 528.513 306.872 515.47 288.181L508.598 278.332C497.319 262.168 472.465 265.622 466.021 284.249L445.177 344.501L429.932 392.589C422.315 416.615 387.595 414.332 383.19 389.516L351.888 213.191C350.906 207.658 351.887 201.956 354.661 197.069L388.98 136.605C395.259 125.543 391.451 111.488 380.447 105.108L379.593 104.613C366.891 97.2476 364.58 79.8633 374.916 69.4351V69.4351C381.92 62.3697 383.429 51.5341 378.624 42.8233L376.381 38.7567C369.234 25.8006 377.808 9.78091 392.553 8.54253V8.54253C402.417 7.71406 410.267 -0.069718 411.179 -9.92668V-9.92668C412.541 -24.6605 428.633 -33.0996 441.528 -25.8433L445.576 -23.5657C454.246 -18.6871 465.093 -20.1054 472.218 -27.049V-27.049C482.733 -37.2974 500.097 -34.8396 507.354 -22.0756L511.702 -14.4295C516.283 -6.37284 525.075 -1.65342 534.321 -2.28786L559.041 -3.98402Z" fill="url(#paint17_linear_435_178)"/>
<defs>
<linearGradient id="paint0_linear_435_178" x1="389.913" y1="-25.1842" x2="400.459" y2="206.953" gradientUnits="userSpaceOnUse">
<stop stop-color="#F7C6C2"/>
<stop offset="1" stop-color="#FCEEED"/>
</linearGradient>
<linearGradient id="paint1_linear_435_178" x1="241.5" y1="-11.5" x2="250" y2="192.5" gradientUnits="userSpaceOnUse">
<stop stop-color="#F7C6C2"/>
<stop offset="1" stop-color="#FCEEED"/>
</linearGradient>
<linearGradient id="paint2_linear_435_178" x1="619.5" y1="1.49997" x2="546" y2="210" gradientUnits="userSpaceOnUse">
<stop stop-color="#F7C6C2"/>
<stop offset="1" stop-color="#FCEEED"/>
</linearGradient>
<linearGradient id="paint3_linear_435_178" x1="1318.91" y1="-8.18421" x2="1329.46" y2="223.953" gradientUnits="userSpaceOnUse">
<stop stop-color="#F7C6C2"/>
<stop offset="1" stop-color="#FCEEED"/>
</linearGradient>
<linearGradient id="paint4_linear_435_178" x1="872.913" y1="8.81579" x2="883.459" y2="240.953" gradientUnits="userSpaceOnUse">
<stop stop-color="#F7C6C2"/>
<stop offset="1" stop-color="#FCEEED"/>
</linearGradient>
<linearGradient id="paint5_linear_435_178" x1="1069.91" y1="8.81579" x2="1080.46" y2="240.953" gradientUnits="userSpaceOnUse">
<stop stop-color="#F7C6C2"/>
<stop offset="1" stop-color="#FCEEED"/>
</linearGradient>
<linearGradient id="paint6_linear_435_178" x1="730.913" y1="8.81579" x2="741.459" y2="240.953" gradientUnits="userSpaceOnUse">
<stop stop-color="#F7C6C2"/>
<stop offset="1" stop-color="#FCEEED"/>
</linearGradient>
<linearGradient id="paint7_linear_435_178" x1="88.9125" y1="17.8158" x2="99.4587" y2="249.953" gradientUnits="userSpaceOnUse">
<stop stop-color="#F7C6C2"/>
<stop offset="1" stop-color="#FCEEED"/>
</linearGradient>
<linearGradient id="paint8_linear_435_178" x1="284.913" y1="25.8159" x2="295.459" y2="257.953" gradientUnits="userSpaceOnUse">
<stop stop-color="#F7C6C2"/>
<stop offset="1" stop-color="#FCEEED"/>
</linearGradient>
<linearGradient id="paint9_linear_435_178" x1="481.913" y1="25.8158" x2="492.459" y2="257.953" gradientUnits="userSpaceOnUse">
<stop stop-color="#F7C6C2"/>
<stop offset="1" stop-color="#FCEEED"/>
</linearGradient>
<linearGradient id="paint10_linear_435_178" x1="389.913" y1="-25.1842" x2="400.459" y2="206.953" gradientUnits="userSpaceOnUse">
<stop stop-color="#F7C6C2"/>
<stop offset="1" stop-color="#FCEEED"/>
</linearGradient>
<linearGradient id="paint11_linear_435_178" x1="241.5" y1="-11.5" x2="250" y2="192.5" gradientUnits="userSpaceOnUse">
<stop stop-color="#F7C6C2"/>
<stop offset="1" stop-color="#FCEEED"/>
</linearGradient>
<linearGradient id="paint12_linear_435_178" x1="619.5" y1="1.49997" x2="546" y2="210" gradientUnits="userSpaceOnUse">
<stop stop-color="#F7C6C2"/>
<stop offset="1" stop-color="#FCEEED"/>
</linearGradient>
<linearGradient id="paint13_linear_435_178" x1="872.913" y1="8.81579" x2="883.459" y2="240.953" gradientUnits="userSpaceOnUse">
<stop stop-color="#F7C6C2"/>
<stop offset="1" stop-color="#FCEEED"/>
</linearGradient>
<linearGradient id="paint14_linear_435_178" x1="730.913" y1="8.81583" x2="741.459" y2="240.953" gradientUnits="userSpaceOnUse">
<stop stop-color="#F7C6C2"/>
<stop offset="1" stop-color="#FCEEED"/>
</linearGradient>
<linearGradient id="paint15_linear_435_178" x1="88.9124" y1="17.816" x2="99.4585" y2="249.953" gradientUnits="userSpaceOnUse">
<stop stop-color="#F7C6C2"/>
<stop offset="1" stop-color="#FCEEED"/>
</linearGradient>
<linearGradient id="paint16_linear_435_178" x1="284.912" y1="25.816" x2="295.459" y2="257.953" gradientUnits="userSpaceOnUse">
<stop stop-color="#F7C6C2"/>
<stop offset="1" stop-color="#FCEEED"/>
</linearGradient>
<linearGradient id="paint17_linear_435_178" x1="481.912" y1="25.8159" x2="492.459" y2="257.953" gradientUnits="userSpaceOnUse">
<stop stop-color="#F7C6C2"/>
<stop offset="1" stop-color="#FCEEED"/>
</linearGradient>
</defs>
</svg>
