<svg xmlns="http://www.w3.org/2000/svg" xmlns:xlink="http://www.w3.org/1999/xlink" width="250" zoomAndPan="magnify" viewBox="0 0 187.5 187.499992" height="250" preserveAspectRatio="xMidYMid meet" version="1.0"><defs><clipPath id="0f40a01e60"><path d="M 27.589844 47.710938 L 160.230469 47.710938 L 160.230469 143.234375 L 27.589844 143.234375 Z M 27.589844 47.710938 " clip-rule="nonzero"/></clipPath><clipPath id="45da43c49c"><path d="M 27.324219 44.234375 L 161.058594 44.234375 L 161.058594 62.691406 L 27.324219 62.691406 Z M 27.324219 44.234375 " clip-rule="nonzero"/></clipPath></defs><g clip-path="url(#0f40a01e60)"><path fill="#d9eff3" d="M 38.21875 55.015625 C 39.425781 54.75 40.902344 54.480469 42.714844 54.210938 C 43.179688 54.144531 43.546875 54.089844 43.785156 54.046875 C 48.242188 53.242188 52.855469 52.84375 57.316406 52.464844 C 58.675781 52.347656 60.082031 52.226562 61.460938 52.097656 C 73.070312 51 84.585938 50.820312 94.320312 50.789062 C 94.964844 50.785156 95.613281 50.785156 96.257812 50.785156 C 107.675781 50.785156 117.683594 51.136719 126.847656 51.855469 C 132.636719 52.3125 138.621094 52.785156 144.570312 53.6875 C 144.769531 53.71875 145.054688 53.753906 145.414062 53.800781 C 148.382812 54.191406 150.554688 54.609375 152.144531 55.015625 Z M 157.613281 55.015625 C 156.375 53.640625 153.980469 53.03125 152.371094 52.621094 C 152.148438 52.566406 151.941406 52.511719 151.757812 52.464844 C 145.613281 50.796875 139.324219 50.222656 133.246094 49.664062 C 120.550781 48.5 107.742188 47.882812 95.167969 47.839844 C 82.417969 47.792969 69.628906 48.320312 57.148438 49.414062 C 50.796875 49.96875 44.234375 50.542969 37.914062 52.160156 C 37.722656 52.210938 37.507812 52.261719 37.273438 52.320312 C 35.453125 52.757812 32.714844 53.417969 31.4375 55.015625 L 27.628906 55.015625 C 28.421875 67.871094 27.628906 86.070312 29.605469 98.929688 C 34.351562 130.777344 65.597656 141.855469 93.875 143.238281 C 122.15625 141.855469 153.402344 130.777344 158.148438 98.929688 C 160.125 86.070312 159.332031 67.871094 160.125 55.015625 L 157.613281 55.015625 " fill-opacity="1" fill-rule="nonzero"/></g><path fill="#b4dbdc" d="M 156.96875 57.097656 C 156.554688 54.316406 146.539062 53.308594 144.671875 53.027344 C 138.789062 52.132812 132.828125 51.65625 126.898438 51.191406 C 116.058594 50.335938 105.191406 50.085938 94.316406 50.121094 C 83.339844 50.15625 72.332031 50.398438 61.398438 51.433594 C 55.488281 51.988281 49.519531 52.332031 43.667969 53.386719 C 41.917969 53.703125 32.96875 54.652344 32.527344 57.144531 C 32.414062 57.789062 31.40625 57.621094 31.40625 56.992188 C 31.417969 54.144531 36.019531 53.335938 38.082031 52.808594 C 44.339844 51.203125 50.785156 50.640625 57.207031 50.078125 C 69.847656 48.972656 82.472656 48.460938 95.164062 48.507812 C 107.882812 48.554688 120.523438 49.167969 133.183594 50.328125 C 139.359375 50.898438 145.582031 51.484375 151.582031 53.109375 C 153.480469 53.621094 157.671875 54.410156 157.75 56.992188 C 157.761719 57.429688 157.035156 57.546875 156.96875 57.097656 Z M 157.390625 52.660156 C 152.269531 50.75 146.707031 49.824219 141.351562 48.792969 C 137.136719 47.976562 132.878906 47.367188 128.605469 46.910156 C 128.011719 46.84375 127.421875 46.78125 126.828125 46.722656 C 110.21875 45.097656 93.207031 45.140625 76.53125 45.691406 C 60.941406 46.203125 45.21875 48.007812 30.527344 53.433594 C 25.894531 55.140625 29.390625 57.050781 32.25 57.777344 C 36.832031 58.945312 41.640625 59.621094 46.332031 60.203125 C 62.507812 62.207031 78.828125 61.542969 95.082031 61.542969 C 94.472656 61.542969 93.871094 61.542969 93.261719 61.539062 C 98.097656 61.46875 102.933594 61.480469 107.769531 61.488281 C 124.113281 61.507812 140.664062 61.476562 156.664062 57.785156 C 160.832031 56.820312 161.511719 54.199219 157.390625 52.660156 " fill-opacity="1" fill-rule="nonzero"/><path fill="#b4dbdc" d="M 156.433594 62.289062 C 135.628906 66.800781 114.394531 65.625 93.261719 65.882812 C 93.261719 65.882812 93.261719 65.882812 93.257812 65.882812 C 93.207031 65.882812 93.15625 65.882812 93.109375 65.882812 C 93.109375 65.886719 93.109375 65.886719 93.109375 65.886719 C 83.839844 65.902344 74.039062 66.082031 64.449219 65.804688 C 53.578125 65.5 43.089844 64.078125 32.382812 62.28125 C 31.289062 62.097656 30.886719 63.605469 31.96875 63.957031 C 41.484375 67.070312 52.398438 67.441406 62.328125 67.824219 C 73.417969 68.253906 84.539062 67.898438 95.632812 67.882812 C 95.734375 67.882812 95.824219 67.867188 95.910156 67.84375 C 116.152344 67.660156 136.90625 68.621094 156.820312 63.964844 C 157.914062 63.707031 157.523438 62.050781 156.433594 62.289062 " fill-opacity="1" fill-rule="nonzero"/><path fill="#b4dbdc" d="M 38.007812 109.785156 C 36.160156 106.390625 35.167969 102.640625 34.539062 98.855469 C 32.914062 89.085938 33.269531 78.921875 32.722656 69.058594 C 32.699219 68.613281 32.050781 68.609375 32.027344 69.058594 C 31.496094 79.039062 31.671875 89.335938 33.144531 99.238281 C 34.269531 106.78125 37.8125 114.628906 43.714844 119.632812 C 44.09375 119.957031 44.757812 119.535156 44.445312 119.066406 C 42.324219 115.925781 39.832031 113.132812 38.007812 109.785156 " fill-opacity="1" fill-rule="nonzero"/><path fill="#b4dbdc" d="M 80.527344 134.773438 C 75.015625 132.90625 69.011719 132.511719 63.421875 130.765625 C 57.210938 128.824219 52 125.605469 47.082031 121.40625 C 46.703125 121.082031 46.226562 121.570312 46.542969 121.949219 C 50.355469 126.554688 55.796875 129.414062 61.308594 131.503906 C 67.085938 133.699219 74.195312 135.6875 80.429688 135.496094 C 80.855469 135.484375 80.921875 134.90625 80.527344 134.773438 " fill-opacity="1" fill-rule="nonzero"/><path fill="#b4dbdc" d="M 87.726562 127.777344 C 87.65625 127.847656 87.613281 127.941406 87.613281 128.039062 C 87.613281 128.152344 87.65625 128.246094 87.726562 128.316406 C 87.800781 128.386719 87.890625 128.429688 87.992188 128.429688 C 88.09375 128.429688 88.195312 128.386719 88.265625 128.316406 C 88.335938 128.246094 88.378906 128.152344 88.378906 128.039062 C 88.378906 127.941406 88.335938 127.847656 88.265625 127.777344 C 88.125 127.632812 87.867188 127.632812 87.726562 127.777344 " fill-opacity="1" fill-rule="nonzero"/><path fill="#b4dbdc" d="M 83.125 126.578125 C 83.042969 126.660156 83 126.761719 83 126.878906 C 83 127.007812 83.042969 127.109375 83.125 127.1875 C 83.207031 127.269531 83.308594 127.316406 83.425781 127.316406 C 83.542969 127.316406 83.65625 127.269531 83.738281 127.1875 C 83.816406 127.109375 83.863281 127.007812 83.863281 126.878906 C 83.863281 126.761719 83.816406 126.660156 83.738281 126.578125 C 83.574219 126.414062 83.289062 126.414062 83.125 126.578125 " fill-opacity="1" fill-rule="nonzero"/><path fill="#b4dbdc" d="M 79.46875 129.039062 C 79.527344 128.984375 79.5625 128.90625 79.5625 128.8125 C 79.5625 128.730469 79.527344 128.65625 79.46875 128.597656 C 79.351562 128.480469 79.140625 128.480469 79.023438 128.597656 C 78.964844 128.65625 78.929688 128.730469 78.929688 128.8125 C 78.929688 128.90625 78.964844 128.980469 79.023438 129.039062 C 79.082031 129.101562 79.15625 129.132812 79.242188 129.132812 C 79.324219 129.132812 79.410156 129.101562 79.46875 129.039062 " fill-opacity="1" fill-rule="nonzero"/><path fill="#b4dbdc" d="M 74.96875 129.226562 C 75.042969 129.152344 75.085938 129.050781 75.085938 128.929688 C 75.085938 128.820312 75.042969 128.722656 74.96875 128.644531 C 74.8125 128.488281 74.539062 128.488281 74.382812 128.644531 C 74.308594 128.722656 74.261719 128.820312 74.261719 128.929688 C 74.261719 129.050781 74.308594 129.152344 74.382812 129.226562 C 74.460938 129.304688 74.558594 129.347656 74.667969 129.347656 C 74.78125 129.347656 74.890625 129.304688 74.96875 129.226562 " fill-opacity="1" fill-rule="nonzero"/><path fill="#b4dbdc" d="M 71.183594 125.890625 C 71.253906 125.824219 71.292969 125.738281 71.292969 125.628906 C 71.292969 125.53125 71.253906 125.445312 71.183594 125.378906 C 71.046875 125.242188 70.804688 125.242188 70.667969 125.378906 C 70.601562 125.445312 70.5625 125.53125 70.5625 125.628906 C 70.5625 125.738281 70.601562 125.824219 70.667969 125.890625 C 70.738281 125.960938 70.824219 126 70.921875 126 C 71.019531 126 71.117188 125.960938 71.183594 125.890625 " fill-opacity="1" fill-rule="nonzero"/><path fill="#b4dbdc" d="M 67.5625 123.960938 C 67.605469 123.914062 67.632812 123.851562 67.632812 123.777344 C 67.632812 123.710938 67.605469 123.652344 67.5625 123.605469 C 67.464844 123.511719 67.300781 123.511719 67.207031 123.605469 C 67.160156 123.652344 67.132812 123.710938 67.132812 123.777344 C 67.132812 123.851562 67.160156 123.914062 67.207031 123.960938 C 67.253906 124.007812 67.3125 124.03125 67.378906 124.03125 C 67.445312 124.03125 67.511719 124.007812 67.5625 123.960938 " fill-opacity="1" fill-rule="nonzero"/><path fill="#b4dbdc" d="M 62.285156 124.332031 C 62.324219 124.292969 62.34375 124.246094 62.34375 124.183594 C 62.34375 124.132812 62.324219 124.082031 62.285156 124.046875 C 62.210938 123.96875 62.074219 123.96875 62 124.046875 C 61.960938 124.082031 61.941406 124.128906 61.941406 124.183594 C 61.941406 124.246094 61.960938 124.292969 62 124.332031 C 62.035156 124.367188 62.085938 124.390625 62.140625 124.390625 C 62.195312 124.390625 62.246094 124.367188 62.285156 124.332031 " fill-opacity="1" fill-rule="nonzero"/><path fill="#b4dbdc" d="M 58.644531 121.894531 C 58.695312 121.84375 58.722656 121.78125 58.722656 121.699219 C 58.722656 121.625 58.695312 121.5625 58.644531 121.511719 C 58.542969 121.40625 58.359375 121.40625 58.257812 121.511719 C 58.207031 121.5625 58.179688 121.625 58.179688 121.699219 C 58.179688 121.78125 58.207031 121.84375 58.257812 121.894531 C 58.308594 121.949219 58.375 121.976562 58.449219 121.976562 C 58.519531 121.976562 58.59375 121.949219 58.644531 121.894531 " fill-opacity="1" fill-rule="nonzero"/><path fill="#b4dbdc" d="M 55.277344 118.691406 C 55.328125 118.636719 55.359375 118.570312 55.359375 118.488281 C 55.359375 118.414062 55.328125 118.347656 55.277344 118.296875 C 55.171875 118.191406 54.984375 118.191406 54.882812 118.296875 C 54.828125 118.347656 54.796875 118.414062 54.796875 118.488281 C 54.796875 118.570312 54.828125 118.636719 54.882812 118.691406 C 54.933594 118.742188 55 118.773438 55.074219 118.773438 C 55.148438 118.773438 55.222656 118.742188 55.277344 118.691406 " fill-opacity="1" fill-rule="nonzero"/><path fill="#b4dbdc" d="M 54.4375 113.855469 C 54.488281 113.808594 54.515625 113.742188 54.515625 113.660156 C 54.515625 113.589844 54.488281 113.523438 54.4375 113.472656 C 54.335938 113.371094 54.15625 113.371094 54.054688 113.472656 C 54.003906 113.523438 53.972656 113.589844 53.972656 113.660156 C 53.972656 113.742188 54.003906 113.808594 54.054688 113.855469 C 54.105469 113.90625 54.167969 113.9375 54.242188 113.9375 C 54.3125 113.9375 54.386719 113.90625 54.4375 113.855469 " fill-opacity="1" fill-rule="nonzero"/><path fill="#b4dbdc" d="M 136.636719 122.972656 C 136.550781 123.058594 136.5 123.171875 136.5 123.296875 C 136.5 123.4375 136.550781 123.550781 136.636719 123.636719 C 136.726562 123.726562 136.839844 123.777344 136.964844 123.777344 C 137.09375 123.777344 137.21875 123.726562 137.304688 123.636719 C 137.394531 123.550781 137.441406 123.4375 137.441406 123.296875 C 137.441406 123.171875 137.394531 123.058594 137.304688 122.972656 C 137.128906 122.796875 136.8125 122.796875 136.636719 122.972656 " fill-opacity="1" fill-rule="nonzero"/><path fill="#b4dbdc" d="M 131.964844 123.511719 C 131.90625 123.570312 131.871094 123.648438 131.871094 123.734375 C 131.871094 123.828125 131.90625 123.90625 131.964844 123.964844 C 132.027344 124.023438 132.101562 124.058594 132.1875 124.058594 C 132.273438 124.058594 132.359375 124.023438 132.417969 123.964844 C 132.476562 123.90625 132.511719 123.828125 132.511719 123.734375 C 132.511719 123.648438 132.476562 123.570312 132.417969 123.511719 C 132.296875 123.390625 132.085938 123.390625 131.964844 123.511719 " fill-opacity="1" fill-rule="nonzero"/><path fill="#b4dbdc" d="M 128.777344 126.746094 C 128.738281 126.785156 128.714844 126.835938 128.714844 126.890625 C 128.714844 126.949219 128.738281 127 128.777344 127.035156 C 128.816406 127.074219 128.863281 127.097656 128.917969 127.097656 C 128.972656 127.097656 129.027344 127.078125 129.066406 127.035156 C 129.105469 127 129.125 126.949219 129.125 126.890625 C 129.125 126.835938 129.105469 126.785156 129.066406 126.746094 C 128.988281 126.667969 128.851562 126.667969 128.777344 126.746094 " fill-opacity="1" fill-rule="nonzero"/><path fill="#b4dbdc" d="M 123.679688 126.75 C 123.59375 126.832031 123.546875 126.941406 123.546875 127.0625 C 123.546875 127.199219 123.59375 127.308594 123.679688 127.390625 C 123.765625 127.480469 123.875 127.527344 123.996094 127.527344 C 124.117188 127.527344 124.238281 127.480469 124.324219 127.390625 C 124.40625 127.308594 124.457031 127.199219 124.457031 127.0625 C 124.457031 126.941406 124.40625 126.832031 124.324219 126.75 C 124.152344 126.578125 123.847656 126.578125 123.679688 126.75 " fill-opacity="1" fill-rule="nonzero"/><path fill="#b4dbdc" d="M 120.328125 129.042969 C 120.261719 129.113281 120.222656 129.199219 120.222656 129.292969 C 120.222656 129.402344 120.261719 129.488281 120.328125 129.554688 C 120.398438 129.625 120.484375 129.664062 120.578125 129.664062 C 120.675781 129.664062 120.773438 129.625 120.84375 129.554688 C 120.910156 129.488281 120.949219 129.402344 120.949219 129.292969 C 120.949219 129.199219 120.910156 129.113281 120.84375 129.042969 C 120.707031 128.90625 120.464844 128.90625 120.328125 129.042969 " fill-opacity="1" fill-rule="nonzero"/><path fill="#b4dbdc" d="M 116.878906 132.902344 C 116.824219 132.957031 116.792969 133.027344 116.792969 133.105469 C 116.792969 133.191406 116.824219 133.261719 116.878906 133.316406 C 116.933594 133.371094 117.003906 133.402344 117.082031 133.402344 C 117.160156 133.402344 117.238281 133.371094 117.292969 133.316406 C 117.347656 133.261719 117.378906 133.191406 117.378906 133.105469 C 117.378906 133.027344 117.347656 132.957031 117.292969 132.902344 C 117.183594 132.792969 116.988281 132.792969 116.878906 132.902344 " fill-opacity="1" fill-rule="nonzero"/><path fill="#b4dbdc" d="M 112.058594 132.242188 C 111.976562 132.324219 111.929688 132.433594 111.929688 132.550781 C 111.929688 132.683594 111.976562 132.792969 112.058594 132.875 C 112.144531 132.960938 112.253906 133.007812 112.371094 133.007812 C 112.492188 133.007812 112.609375 132.960938 112.695312 132.875 C 112.777344 132.792969 112.824219 132.683594 112.824219 132.550781 C 112.824219 132.433594 112.777344 132.324219 112.695312 132.242188 C 112.527344 132.074219 112.226562 132.074219 112.058594 132.242188 " fill-opacity="1" fill-rule="nonzero"/><path fill="#b4dbdc" d="M 107.691406 132.574219 C 107.640625 132.621094 107.613281 132.683594 107.613281 132.753906 C 107.613281 132.832031 107.640625 132.894531 107.691406 132.945312 C 107.742188 132.992188 107.804688 133.023438 107.875 133.023438 C 107.945312 133.023438 108.015625 132.992188 108.0625 132.945312 C 108.113281 132.894531 108.140625 132.832031 108.140625 132.753906 C 108.140625 132.683594 108.113281 132.621094 108.0625 132.574219 C 107.964844 132.472656 107.789062 132.472656 107.691406 132.574219 " fill-opacity="1" fill-rule="nonzero"/><path fill="#b4dbdc" d="M 104.035156 136.015625 C 103.964844 136.085938 103.921875 136.175781 103.921875 136.273438 C 103.921875 136.386719 103.964844 136.476562 104.035156 136.546875 C 104.101562 136.617188 104.191406 136.65625 104.292969 136.65625 C 104.394531 136.65625 104.492188 136.617188 104.5625 136.546875 C 104.632812 136.476562 104.671875 136.386719 104.671875 136.273438 C 104.671875 136.175781 104.632812 136.085938 104.5625 136.015625 C 104.421875 135.875 104.171875 135.875 104.035156 136.015625 " fill-opacity="1" fill-rule="nonzero"/><path fill="#b4dbdc" d="M 99.4375 135.710938 C 99.378906 135.769531 99.34375 135.847656 99.34375 135.933594 C 99.34375 136.027344 99.378906 136.101562 99.4375 136.160156 C 99.5 136.222656 99.574219 136.253906 99.660156 136.253906 C 99.746094 136.253906 99.832031 136.222656 99.890625 136.160156 C 99.949219 136.101562 99.984375 136.027344 99.984375 135.933594 C 99.984375 135.847656 99.949219 135.769531 99.890625 135.710938 C 99.769531 135.589844 99.558594 135.589844 99.4375 135.710938 " fill-opacity="1" fill-rule="nonzero"/><path fill="#b4dbdc" d="M 95 136.636719 C 94.929688 136.707031 94.890625 136.800781 94.890625 136.902344 C 94.890625 137.011719 94.929688 137.105469 95 137.175781 C 95.074219 137.246094 95.164062 137.289062 95.265625 137.289062 C 95.367188 137.289062 95.46875 137.246094 95.539062 137.175781 C 95.609375 137.105469 95.652344 137.011719 95.652344 136.902344 C 95.652344 136.800781 95.609375 136.707031 95.539062 136.636719 C 95.398438 136.496094 95.144531 136.496094 95 136.636719 " fill-opacity="1" fill-rule="nonzero"/><path fill="#b4dbdc" d="M 90.710938 134.417969 C 90.664062 134.464844 90.636719 134.527344 90.636719 134.59375 C 90.636719 134.667969 90.664062 134.726562 90.710938 134.773438 C 90.757812 134.824219 90.820312 134.847656 90.886719 134.847656 C 90.953125 134.847656 91.023438 134.824219 91.070312 134.773438 C 91.117188 134.726562 91.144531 134.667969 91.144531 134.59375 C 91.144531 134.527344 91.117188 134.464844 91.070312 134.417969 C 90.972656 134.324219 90.804688 134.324219 90.710938 134.417969 " fill-opacity="1" fill-rule="nonzero"/><path fill="#b4dbdc" d="M 86.324219 133.996094 C 86.273438 134.046875 86.246094 134.105469 86.246094 134.171875 C 86.246094 134.25 86.273438 134.308594 86.324219 134.355469 C 86.371094 134.402344 86.429688 134.429688 86.5 134.429688 C 86.566406 134.429688 86.632812 134.402344 86.683594 134.355469 C 86.726562 134.308594 86.753906 134.25 86.753906 134.171875 C 86.753906 134.105469 86.730469 134.046875 86.683594 133.996094 C 86.585938 133.902344 86.417969 133.902344 86.324219 133.996094 " fill-opacity="1" fill-rule="nonzero"/><path fill="#b4dbdc" d="M 81.886719 136.589844 C 81.828125 136.648438 81.796875 136.722656 81.796875 136.800781 C 81.796875 136.894531 81.828125 136.964844 81.886719 137.023438 C 81.941406 137.082031 82.015625 137.113281 82.097656 137.113281 C 82.179688 137.113281 82.261719 137.082031 82.316406 137.023438 C 82.375 136.964844 82.40625 136.894531 82.40625 136.800781 C 82.40625 136.722656 82.375 136.648438 82.316406 136.589844 C 82.203125 136.476562 82 136.476562 81.886719 136.589844 " fill-opacity="1" fill-rule="nonzero"/><path fill="#b4dbdc" d="M 128.9375 118.40625 C 128.867188 118.476562 128.828125 118.5625 128.828125 118.664062 C 128.828125 118.773438 128.867188 118.863281 128.9375 118.929688 C 129.007812 119.003906 129.097656 119.042969 129.199219 119.042969 C 129.296875 119.042969 129.394531 119.003906 129.46875 118.929688 C 129.535156 118.863281 129.574219 118.773438 129.574219 118.664062 C 129.574219 118.5625 129.535156 118.476562 129.46875 118.40625 C 129.328125 118.265625 129.078125 118.265625 128.9375 118.40625 " fill-opacity="1" fill-rule="nonzero"/><path fill="#b4dbdc" d="M 125.902344 121.988281 C 125.84375 122.046875 125.808594 122.125 125.808594 122.210938 C 125.808594 122.304688 125.84375 122.378906 125.902344 122.4375 C 125.960938 122.5 126.039062 122.53125 126.121094 122.53125 C 126.207031 122.53125 126.292969 122.5 126.351562 122.4375 C 126.410156 122.378906 126.445312 122.304688 126.445312 122.210938 C 126.445312 122.125 126.410156 122.046875 126.351562 121.988281 C 126.230469 121.871094 126.019531 121.871094 125.902344 121.988281 " fill-opacity="1" fill-rule="nonzero"/><path fill="#b4dbdc" d="M 121.683594 123.402344 C 121.625 123.457031 121.59375 123.53125 121.59375 123.609375 C 121.59375 123.703125 121.625 123.773438 121.683594 123.828125 C 121.738281 123.886719 121.808594 123.917969 121.890625 123.917969 C 121.972656 123.917969 122.050781 123.886719 122.109375 123.828125 C 122.164062 123.773438 122.195312 123.703125 122.195312 123.609375 C 122.195312 123.53125 122.164062 123.457031 122.109375 123.402344 C 121.996094 123.289062 121.792969 123.289062 121.683594 123.402344 " fill-opacity="1" fill-rule="nonzero"/><path fill="#b4dbdc" d="M 117.859375 126.015625 C 117.773438 126.101562 117.722656 126.210938 117.722656 126.332031 C 117.722656 126.46875 117.773438 126.578125 117.859375 126.664062 C 117.945312 126.75 118.054688 126.800781 118.179688 126.800781 C 118.300781 126.800781 118.425781 126.75 118.511719 126.664062 C 118.597656 126.578125 118.644531 126.46875 118.644531 126.332031 C 118.644531 126.210938 118.597656 126.101562 118.511719 126.015625 C 118.339844 125.84375 118.03125 125.84375 117.859375 126.015625 " fill-opacity="1" fill-rule="nonzero"/><path fill="#b4dbdc" d="M 112.902344 125.183594 C 112.828125 125.257812 112.789062 125.347656 112.789062 125.449219 C 112.789062 125.5625 112.828125 125.65625 112.902344 125.726562 C 112.972656 125.796875 113.066406 125.839844 113.167969 125.839844 C 113.269531 125.839844 113.371094 125.796875 113.441406 125.726562 C 113.511719 125.65625 113.554688 125.5625 113.554688 125.449219 C 113.554688 125.347656 113.511719 125.257812 113.441406 125.183594 C 113.300781 125.042969 113.042969 125.042969 112.902344 125.183594 " fill-opacity="1" fill-rule="nonzero"/><path fill="#b4dbdc" d="M 109.847656 129.386719 C 109.804688 129.429688 109.777344 129.484375 109.777344 129.546875 C 109.777344 129.617188 109.804688 129.671875 109.847656 129.714844 C 109.890625 129.757812 109.945312 129.78125 110.007812 129.78125 C 110.070312 129.78125 110.132812 129.757812 110.175781 129.714844 C 110.21875 129.671875 110.242188 129.617188 110.242188 129.546875 C 110.242188 129.484375 110.21875 129.429688 110.175781 129.386719 C 110.085938 129.300781 109.933594 129.300781 109.847656 129.386719 " fill-opacity="1" fill-rule="nonzero"/><path fill="#b4dbdc" d="M 104.894531 127.832031 C 104.8125 127.910156 104.765625 128.011719 104.765625 128.128906 C 104.765625 128.253906 104.8125 128.359375 104.894531 128.4375 C 104.972656 128.515625 105.078125 128.5625 105.191406 128.5625 C 105.304688 128.5625 105.417969 128.515625 105.5 128.4375 C 105.578125 128.359375 105.625 128.253906 105.625 128.128906 C 105.625 128.011719 105.578125 127.910156 105.5 127.832031 C 105.339844 127.671875 105.054688 127.671875 104.894531 127.832031 " fill-opacity="1" fill-rule="nonzero"/><path fill="#b4dbdc" d="M 100.65625 128.359375 C 100.613281 128.402344 100.589844 128.457031 100.589844 128.519531 C 100.589844 128.589844 100.613281 128.644531 100.65625 128.683594 C 100.699219 128.730469 100.753906 128.753906 100.816406 128.753906 C 100.878906 128.753906 100.9375 128.730469 100.980469 128.683594 C 101.023438 128.644531 101.050781 128.589844 101.050781 128.519531 C 101.050781 128.457031 101.023438 128.402344 100.980469 128.359375 C 100.894531 128.273438 100.742188 128.273438 100.65625 128.359375 " fill-opacity="1" fill-rule="nonzero"/><path fill="#b4dbdc" d="M 96.167969 128.6875 C 96.097656 128.757812 96.054688 128.855469 96.054688 128.957031 C 96.054688 129.074219 96.097656 129.167969 96.167969 129.238281 C 96.242188 129.3125 96.335938 129.355469 96.441406 129.355469 C 96.542969 129.355469 96.648438 129.3125 96.722656 129.238281 C 96.792969 129.167969 96.835938 129.074219 96.835938 128.957031 C 96.835938 128.855469 96.792969 128.757812 96.722656 128.6875 C 96.574219 128.542969 96.316406 128.542969 96.167969 128.6875 " fill-opacity="1" fill-rule="nonzero"/><path fill="#b4dbdc" d="M 149.414062 96.246094 C 149.34375 96.316406 149.300781 96.40625 149.300781 96.507812 C 149.300781 96.621094 149.34375 96.710938 149.414062 96.78125 C 149.484375 96.851562 149.574219 96.894531 149.675781 96.894531 C 149.78125 96.894531 149.878906 96.851562 149.949219 96.78125 C 150.019531 96.710938 150.0625 96.621094 150.0625 96.507812 C 150.0625 96.40625 150.019531 96.316406 149.949219 96.246094 C 149.808594 96.101562 149.554688 96.101562 149.414062 96.246094 " fill-opacity="1" fill-rule="nonzero"/><path fill="#b4dbdc" d="M 149.082031 100.859375 C 149.042969 100.902344 149.019531 100.949219 149.019531 101.007812 C 149.019531 101.070312 149.042969 101.121094 149.082031 101.160156 C 149.121094 101.203125 149.175781 101.222656 149.230469 101.222656 C 149.289062 101.222656 149.34375 101.203125 149.382812 101.160156 C 149.421875 101.121094 149.445312 101.070312 149.445312 101.007812 C 149.445312 100.949219 149.421875 100.902344 149.382812 100.859375 C 149.304688 100.78125 149.164062 100.78125 149.082031 100.859375 " fill-opacity="1" fill-rule="nonzero"/><path fill="#b4dbdc" d="M 145.28125 103.371094 C 145.210938 103.441406 145.171875 103.527344 145.171875 103.625 C 145.171875 103.734375 145.210938 103.824219 145.28125 103.890625 C 145.351562 103.960938 145.4375 104 145.535156 104 C 145.636719 104 145.734375 103.960938 145.804688 103.890625 C 145.871094 103.824219 145.910156 103.734375 145.910156 103.625 C 145.910156 103.527344 145.871094 103.441406 145.804688 103.371094 C 145.664062 103.230469 145.417969 103.230469 145.28125 103.371094 " fill-opacity="1" fill-rule="nonzero"/><path fill="#b4dbdc" d="M 142.550781 99.9375 C 142.492188 99.992188 142.460938 100.066406 142.460938 100.144531 C 142.460938 100.234375 142.492188 100.304688 142.550781 100.363281 C 142.605469 100.417969 142.675781 100.449219 142.757812 100.449219 C 142.835938 100.449219 142.917969 100.417969 142.972656 100.363281 C 143.03125 100.304688 143.0625 100.234375 143.0625 100.144531 C 143.0625 100.066406 143.03125 99.992188 142.972656 99.9375 C 142.863281 99.824219 142.660156 99.824219 142.550781 99.9375 " fill-opacity="1" fill-rule="nonzero"/><path fill="#b4dbdc" d="M 143.816406 95.878906 C 143.890625 95.804688 143.933594 95.710938 143.933594 95.59375 C 143.933594 95.488281 143.890625 95.390625 143.816406 95.316406 C 143.667969 95.167969 143.402344 95.167969 143.253906 95.316406 C 143.179688 95.390625 143.136719 95.488281 143.136719 95.59375 C 143.136719 95.710938 143.179688 95.804688 143.253906 95.878906 C 143.328125 95.953125 143.421875 95.996094 143.527344 95.996094 C 143.636719 95.996094 143.742188 95.953125 143.816406 95.878906 " fill-opacity="1" fill-rule="nonzero"/><path fill="#b4dbdc" d="M 142.472656 91.53125 C 142.523438 91.582031 142.59375 91.613281 142.667969 91.613281 C 142.742188 91.613281 142.816406 91.582031 142.871094 91.53125 C 142.921875 91.480469 142.953125 91.410156 142.953125 91.328125 C 142.953125 91.253906 142.921875 91.1875 142.871094 91.132812 C 142.765625 91.027344 142.578125 91.027344 142.472656 91.132812 C 142.417969 91.1875 142.390625 91.253906 142.390625 91.328125 C 142.390625 91.410156 142.417969 91.480469 142.472656 91.53125 " fill-opacity="1" fill-rule="nonzero"/><path fill="#b4dbdc" d="M 142.132812 86.996094 C 142.132812 86.929688 142.105469 86.871094 142.0625 86.824219 C 141.96875 86.734375 141.804688 86.734375 141.714844 86.824219 C 141.667969 86.871094 141.644531 86.929688 141.644531 86.996094 C 141.644531 87.066406 141.667969 87.128906 141.714844 87.171875 C 141.761719 87.21875 141.820312 87.246094 141.886719 87.246094 C 141.953125 87.246094 142.015625 87.21875 142.0625 87.171875 C 142.105469 87.128906 142.132812 87.066406 142.132812 86.996094 " fill-opacity="1" fill-rule="nonzero"/><path fill="#b4dbdc" d="M 141.214844 82.574219 C 141.171875 82.621094 141.144531 82.675781 141.144531 82.738281 C 141.144531 82.808594 141.171875 82.863281 141.214844 82.90625 C 141.257812 82.949219 141.3125 82.976562 141.375 82.976562 C 141.4375 82.976562 141.5 82.949219 141.546875 82.90625 C 141.589844 82.863281 141.613281 82.808594 141.613281 82.738281 C 141.613281 82.675781 141.589844 82.621094 141.546875 82.574219 C 141.457031 82.488281 141.300781 82.488281 141.214844 82.574219 " fill-opacity="1" fill-rule="nonzero"/><path fill="#b4dbdc" d="M 143.714844 79.207031 C 143.636719 79.285156 143.59375 79.382812 143.59375 79.492188 C 143.59375 79.613281 143.636719 79.710938 143.714844 79.785156 C 143.792969 79.863281 143.890625 79.90625 143.996094 79.90625 C 144.109375 79.90625 144.214844 79.863281 144.292969 79.785156 C 144.367188 79.710938 144.414062 79.613281 144.414062 79.492188 C 144.414062 79.382812 144.367188 79.285156 144.292969 79.207031 C 144.140625 79.054688 143.867188 79.054688 143.714844 79.207031 " fill-opacity="1" fill-rule="nonzero"/><path fill="#b4dbdc" d="M 145.992188 76.949219 C 145.933594 77.011719 145.898438 77.089844 145.898438 77.175781 C 145.898438 77.273438 145.933594 77.355469 145.992188 77.414062 C 146.054688 77.476562 146.136719 77.511719 146.222656 77.511719 C 146.3125 77.511719 146.398438 77.476562 146.460938 77.414062 C 146.523438 77.355469 146.558594 77.273438 146.558594 77.175781 C 146.558594 77.089844 146.523438 77.011719 146.460938 76.949219 C 146.335938 76.824219 146.117188 76.824219 145.992188 76.949219 " fill-opacity="1" fill-rule="nonzero"/><path fill="#b4dbdc" d="M 150.773438 75.160156 C 150.695312 75.078125 150.550781 75.078125 150.472656 75.160156 C 150.429688 75.199219 150.410156 75.25 150.410156 75.308594 C 150.410156 75.371094 150.429688 75.421875 150.472656 75.460938 C 150.511719 75.5 150.5625 75.523438 150.621094 75.523438 C 150.675781 75.523438 150.734375 75.5 150.773438 75.460938 C 150.8125 75.421875 150.835938 75.371094 150.835938 75.308594 C 150.835938 75.25 150.8125 75.199219 150.773438 75.160156 " fill-opacity="1" fill-rule="nonzero"/><path fill="#b4dbdc" d="M 154.082031 78.027344 C 154.003906 78.101562 153.964844 78.195312 153.964844 78.300781 C 153.964844 78.421875 154.003906 78.515625 154.082031 78.589844 C 154.15625 78.664062 154.25 78.707031 154.355469 78.707031 C 154.460938 78.707031 154.566406 78.664062 154.640625 78.589844 C 154.714844 78.515625 154.757812 78.421875 154.757812 78.300781 C 154.757812 78.195312 154.714844 78.101562 154.640625 78.027344 C 154.492188 77.878906 154.226562 77.878906 154.082031 78.027344 " fill-opacity="1" fill-rule="nonzero"/><path fill="#b4dbdc" d="M 154.011719 82.628906 C 153.933594 82.703125 153.890625 82.804688 153.890625 82.910156 C 153.890625 83.035156 153.933594 83.132812 154.011719 83.207031 C 154.085938 83.285156 154.183594 83.328125 154.292969 83.328125 C 154.402344 83.328125 154.511719 83.285156 154.589844 83.207031 C 154.664062 83.132812 154.707031 83.035156 154.707031 82.910156 C 154.707031 82.804688 154.664062 82.703125 154.589844 82.628906 C 154.4375 82.476562 154.164062 82.476562 154.011719 82.628906 " fill-opacity="1" fill-rule="nonzero"/><path fill="#b4dbdc" d="M 155.480469 87.023438 C 155.421875 87.082031 155.386719 87.160156 155.386719 87.242188 C 155.386719 87.335938 155.421875 87.410156 155.480469 87.46875 C 155.539062 87.527344 155.613281 87.5625 155.699219 87.5625 C 155.78125 87.5625 155.867188 87.527344 155.925781 87.46875 C 155.984375 87.410156 156.015625 87.335938 156.015625 87.242188 C 156.015625 87.160156 155.984375 87.082031 155.925781 87.023438 C 155.808594 86.90625 155.597656 86.90625 155.480469 87.023438 " fill-opacity="1" fill-rule="nonzero"/><path fill="#b4dbdc" d="M 153.667969 90.964844 C 153.59375 91.039062 153.550781 91.132812 153.550781 91.234375 C 153.550781 91.351562 153.59375 91.445312 153.667969 91.519531 C 153.738281 91.59375 153.832031 91.632812 153.9375 91.632812 C 154.042969 91.632812 154.148438 91.59375 154.21875 91.519531 C 154.292969 91.445312 154.335938 91.351562 154.335938 91.234375 C 154.335938 91.132812 154.292969 91.039062 154.21875 90.964844 C 154.074219 90.820312 153.8125 90.820312 153.667969 90.964844 " fill-opacity="1" fill-rule="nonzero"/><path fill="#b4dbdc" d="M 153.648438 95.726562 C 153.601562 95.773438 153.574219 95.832031 153.574219 95.898438 C 153.574219 95.972656 153.601562 96.035156 153.648438 96.078125 C 153.695312 96.125 153.753906 96.152344 153.820312 96.152344 C 153.886719 96.152344 153.953125 96.125 154 96.078125 C 154.046875 96.035156 154.070312 95.972656 154.070312 95.898438 C 154.070312 95.832031 154.046875 95.773438 154 95.726562 C 153.90625 95.636719 153.738281 95.636719 153.648438 95.726562 " fill-opacity="1" fill-rule="nonzero"/><path fill="#b4dbdc" d="M 151.4375 99.15625 C 151.292969 99.011719 151.039062 99.011719 150.898438 99.15625 C 150.828125 99.226562 150.785156 99.320312 150.785156 99.417969 C 150.785156 99.53125 150.828125 99.625 150.898438 99.695312 C 150.96875 99.769531 151.058594 99.808594 151.160156 99.808594 C 151.265625 99.808594 151.367188 99.769531 151.4375 99.695312 C 151.507812 99.625 151.550781 99.53125 151.550781 99.417969 C 151.550781 99.320312 151.507812 99.226562 151.4375 99.15625 " fill-opacity="1" fill-rule="nonzero"/><path fill="#b4dbdc" d="M 148.039062 103.117188 C 148.109375 103.191406 148.203125 103.230469 148.308594 103.230469 C 148.414062 103.230469 148.515625 103.191406 148.589844 103.117188 C 148.660156 103.046875 148.703125 102.953125 148.703125 102.835938 C 148.703125 102.730469 148.660156 102.640625 148.589844 102.566406 C 148.441406 102.417969 148.183594 102.417969 148.039062 102.566406 C 147.964844 102.640625 147.921875 102.730469 147.921875 102.835938 C 147.921875 102.953125 147.964844 103.046875 148.039062 103.117188 " fill-opacity="1" fill-rule="nonzero"/><path fill="#b4dbdc" d="M 143.460938 103.71875 C 143.394531 103.789062 143.355469 103.875 143.355469 103.96875 C 143.355469 104.074219 143.394531 104.160156 143.460938 104.226562 C 143.527344 104.292969 143.613281 104.332031 143.707031 104.332031 C 143.804688 104.332031 143.898438 104.292969 143.964844 104.226562 C 144.03125 104.160156 144.070312 104.074219 144.070312 103.96875 C 144.070312 103.875 144.03125 103.789062 143.964844 103.71875 C 143.832031 103.585938 143.59375 103.585938 143.460938 103.71875 " fill-opacity="1" fill-rule="nonzero"/><path fill="#b4dbdc" d="M 141.996094 99.566406 C 141.953125 99.605469 141.929688 99.65625 141.929688 99.714844 C 141.929688 99.78125 141.953125 99.835938 141.996094 99.875 C 142.035156 99.917969 142.085938 99.9375 142.144531 99.9375 C 142.207031 99.9375 142.261719 99.917969 142.304688 99.875 C 142.34375 99.832031 142.367188 99.78125 142.367188 99.714844 C 142.367188 99.65625 142.34375 99.605469 142.304688 99.566406 C 142.222656 99.484375 142.074219 99.484375 141.996094 99.566406 " fill-opacity="1" fill-rule="nonzero"/><path fill="#b4dbdc" d="M 139.722656 95.53125 C 139.636719 95.617188 139.585938 95.726562 139.585938 95.851562 C 139.585938 95.992188 139.636719 96.101562 139.722656 96.1875 C 139.8125 96.277344 139.921875 96.324219 140.046875 96.324219 C 140.171875 96.324219 140.296875 96.277344 140.382812 96.1875 C 140.46875 96.101562 140.519531 95.992188 140.519531 95.851562 C 140.519531 95.726562 140.46875 95.617188 140.382812 95.53125 C 140.210938 95.355469 139.898438 95.355469 139.722656 95.53125 " fill-opacity="1" fill-rule="nonzero"/><path fill="#b4dbdc" d="M 139.9375 92.023438 C 139.988281 91.976562 140.015625 91.914062 140.015625 91.835938 C 140.015625 91.765625 139.988281 91.703125 139.9375 91.652344 C 139.839844 91.554688 139.664062 91.554688 139.5625 91.652344 C 139.515625 91.703125 139.484375 91.765625 139.484375 91.835938 C 139.484375 91.914062 139.515625 91.976562 139.5625 92.023438 C 139.613281 92.074219 139.675781 92.101562 139.746094 92.101562 C 139.816406 92.101562 139.886719 92.074219 139.9375 92.023438 " fill-opacity="1" fill-rule="nonzero"/><path fill="#b4dbdc" d="M 139.628906 87.894531 C 139.628906 87.796875 139.585938 87.707031 139.515625 87.636719 C 139.375 87.496094 139.125 87.496094 138.984375 87.636719 C 138.914062 87.707031 138.875 87.796875 138.875 87.894531 C 138.875 88.007812 138.914062 88.097656 138.984375 88.167969 C 139.054688 88.238281 139.144531 88.277344 139.246094 88.277344 C 139.347656 88.277344 139.445312 88.238281 139.515625 88.167969 C 139.585938 88.097656 139.628906 88.007812 139.628906 87.894531 " fill-opacity="1" fill-rule="nonzero"/><path fill="#b4dbdc" d="M 135.632812 83.09375 C 135.550781 83.171875 135.507812 83.277344 135.507812 83.390625 C 135.507812 83.519531 135.550781 83.621094 135.632812 83.703125 C 135.714844 83.78125 135.816406 83.828125 135.929688 83.828125 C 136.046875 83.828125 136.160156 83.78125 136.238281 83.703125 C 136.320312 83.621094 136.363281 83.519531 136.363281 83.390625 C 136.363281 83.277344 136.320312 83.171875 136.238281 83.09375 C 136.078125 82.933594 135.792969 82.933594 135.632812 83.09375 " fill-opacity="1" fill-rule="nonzero"/><path fill="#b4dbdc" d="M 137.601562 78.8125 C 137.519531 78.894531 137.472656 78.996094 137.472656 79.109375 C 137.472656 79.234375 137.519531 79.335938 137.601562 79.417969 C 137.679688 79.496094 137.78125 79.542969 137.894531 79.542969 C 138.011719 79.542969 138.125 79.496094 138.203125 79.417969 C 138.28125 79.335938 138.328125 79.234375 138.328125 79.109375 C 138.328125 78.996094 138.28125 78.894531 138.203125 78.8125 C 138.042969 78.65625 137.757812 78.65625 137.601562 78.8125 " fill-opacity="1" fill-rule="nonzero"/><path fill="#b4dbdc" d="M 137.914062 74.292969 C 137.847656 74.363281 137.804688 74.449219 137.804688 74.546875 C 137.804688 74.65625 137.847656 74.742188 137.914062 74.808594 C 137.984375 74.878906 138.070312 74.917969 138.167969 74.917969 C 138.265625 74.917969 138.363281 74.878906 138.429688 74.808594 C 138.5 74.742188 138.539062 74.65625 138.539062 74.546875 C 138.539062 74.449219 138.5 74.363281 138.429688 74.292969 C 138.292969 74.15625 138.050781 74.15625 137.914062 74.292969 " fill-opacity="1" fill-rule="nonzero"/><path fill="#b4dbdc" d="M 142.851562 73.507812 C 142.964844 73.507812 143.078125 73.464844 143.15625 73.382812 C 143.234375 73.304688 143.277344 73.207031 143.277344 73.078125 C 143.277344 72.96875 143.234375 72.867188 143.15625 72.789062 C 142.996094 72.632812 142.714844 72.632812 142.558594 72.789062 C 142.480469 72.867188 142.4375 72.96875 142.4375 73.078125 C 142.4375 73.207031 142.480469 73.308594 142.558594 73.382812 C 142.640625 73.464844 142.738281 73.507812 142.851562 73.507812 " fill-opacity="1" fill-rule="nonzero"/><path fill="#b4dbdc" d="M 146.09375 69.945312 C 146.171875 69.871094 146.214844 69.773438 146.214844 69.652344 C 146.214844 69.542969 146.171875 69.445312 146.09375 69.371094 C 145.941406 69.21875 145.671875 69.21875 145.519531 69.371094 C 145.441406 69.445312 145.398438 69.542969 145.398438 69.652344 C 145.398438 69.773438 145.441406 69.871094 145.519531 69.945312 C 145.59375 70.023438 145.691406 70.066406 145.800781 70.066406 C 145.910156 70.066406 146.019531 70.023438 146.09375 69.945312 " fill-opacity="1" fill-rule="nonzero"/><path fill="#b4dbdc" d="M 151.53125 107.464844 C 151.492188 107.503906 151.472656 107.550781 151.472656 107.597656 C 151.472656 107.65625 151.492188 107.703125 151.53125 107.738281 C 151.566406 107.773438 151.609375 107.792969 151.664062 107.792969 C 151.714844 107.792969 151.765625 107.773438 151.800781 107.738281 C 151.835938 107.703125 151.859375 107.65625 151.859375 107.597656 C 151.859375 107.546875 151.835938 107.503906 151.800781 107.464844 C 151.730469 107.394531 151.601562 107.394531 151.53125 107.464844 " fill-opacity="1" fill-rule="nonzero"/><path fill="#b4dbdc" d="M 148.125 110.667969 C 148.039062 110.753906 147.988281 110.863281 147.988281 110.984375 C 147.988281 111.121094 148.039062 111.230469 148.125 111.316406 C 148.210938 111.402344 148.320312 111.449219 148.441406 111.449219 C 148.566406 111.449219 148.6875 111.402344 148.773438 111.316406 C 148.855469 111.230469 148.90625 111.121094 148.90625 110.984375 C 148.90625 110.863281 148.855469 110.753906 148.773438 110.667969 C 148.601562 110.496094 148.296875 110.496094 148.125 110.667969 " fill-opacity="1" fill-rule="nonzero"/><path fill="#b4dbdc" d="M 146.914062 114.785156 C 146.84375 114.855469 146.800781 114.945312 146.800781 115.046875 C 146.800781 115.164062 146.84375 115.253906 146.914062 115.324219 C 146.988281 115.398438 147.078125 115.4375 147.179688 115.4375 C 147.28125 115.4375 147.382812 115.398438 147.457031 115.324219 C 147.527344 115.253906 147.566406 115.164062 147.566406 115.046875 C 147.566406 114.945312 147.527344 114.855469 147.457031 114.785156 C 147.3125 114.640625 147.058594 114.640625 146.914062 114.785156 " fill-opacity="1" fill-rule="nonzero"/><path fill="#b4dbdc" d="M 144.707031 118.582031 C 144.628906 118.65625 144.585938 118.753906 144.585938 118.863281 C 144.585938 118.984375 144.628906 119.078125 144.707031 119.152344 C 144.78125 119.230469 144.878906 119.273438 144.984375 119.273438 C 145.09375 119.273438 145.203125 119.230469 145.277344 119.152344 C 145.351562 119.078125 145.398438 118.984375 145.398438 118.863281 C 145.398438 118.753906 145.351562 118.65625 145.277344 118.582031 C 145.125 118.429688 144.855469 118.429688 144.707031 118.582031 " fill-opacity="1" fill-rule="nonzero"/><path fill="#b4dbdc" d="M 154.3125 70.957031 C 154.25 71.015625 154.214844 71.097656 154.214844 71.183594 C 154.214844 71.28125 154.25 71.363281 154.3125 71.421875 C 154.375 71.488281 154.453125 71.523438 154.542969 71.523438 C 154.632812 71.523438 154.71875 71.488281 154.78125 71.421875 C 154.84375 71.363281 154.878906 71.28125 154.878906 71.183594 C 154.878906 71.097656 154.84375 71.015625 154.78125 70.957031 C 154.65625 70.832031 154.4375 70.832031 154.3125 70.957031 " fill-opacity="1" fill-rule="nonzero"/><path fill="#b4dbdc" d="M 156 66.390625 C 155.933594 66.453125 155.898438 66.535156 155.898438 66.625 C 155.898438 66.726562 155.933594 66.808594 156 66.871094 C 156.0625 66.933594 156.140625 66.96875 156.234375 66.96875 C 156.324219 66.96875 156.414062 66.933594 156.480469 66.871094 C 156.542969 66.808594 156.578125 66.726562 156.578125 66.625 C 156.578125 66.535156 156.542969 66.453125 156.480469 66.390625 C 156.351562 66.261719 156.125 66.261719 156 66.390625 " fill-opacity="1" fill-rule="nonzero"/><path fill="#b4dbdc" d="M 147.347656 89.242188 C 147.304688 89.285156 147.277344 89.339844 147.277344 89.40625 C 147.277344 89.476562 147.304688 89.53125 147.347656 89.574219 C 147.394531 89.621094 147.449219 89.644531 147.511719 89.644531 C 147.578125 89.644531 147.640625 89.621094 147.683594 89.574219 C 147.726562 89.53125 147.753906 89.476562 147.753906 89.40625 C 147.753906 89.339844 147.726562 89.285156 147.683594 89.242188 C 147.59375 89.152344 147.4375 89.152344 147.347656 89.242188 " fill-opacity="1" fill-rule="nonzero"/><path fill="#b4dbdc" d="M 148.359375 85.511719 C 148.472656 85.511719 148.582031 85.46875 148.65625 85.390625 C 148.734375 85.316406 148.777344 85.214844 148.777344 85.09375 C 148.777344 84.984375 148.734375 84.886719 148.65625 84.808594 C 148.503906 84.652344 148.226562 84.652344 148.074219 84.808594 C 147.996094 84.886719 147.953125 84.984375 147.953125 85.09375 C 147.953125 85.214844 147.996094 85.316406 148.074219 85.390625 C 148.152344 85.46875 148.25 85.511719 148.359375 85.511719 " fill-opacity="1" fill-rule="nonzero"/><path fill="#b4dbdc" d="M 147.476562 80.660156 C 147.535156 80.660156 147.597656 80.636719 147.640625 80.59375 C 147.679688 80.554688 147.707031 80.5 147.707031 80.433594 C 147.707031 80.371094 147.679688 80.316406 147.640625 80.277344 C 147.554688 80.191406 147.40625 80.191406 147.320312 80.277344 C 147.277344 80.316406 147.253906 80.371094 147.253906 80.433594 C 147.253906 80.5 147.277344 80.554688 147.320312 80.59375 C 147.363281 80.636719 147.417969 80.660156 147.476562 80.660156 " fill-opacity="1" fill-rule="nonzero"/><g clip-path="url(#45da43c49c)"><path fill="#dad9d6" d="M 154.183594 57.394531 C 149.792969 58.324219 145.347656 58.949219 140.886719 59.421875 C 125.078125 61.109375 109.125 60.363281 93.261719 60.566406 C 93.261719 60.566406 93.257812 60.566406 93.257812 60.566406 C 93.207031 60.566406 93.152344 60.566406 93.109375 60.566406 C 93.109375 60.566406 93.109375 60.566406 93.109375 60.570312 C 79.671875 60.597656 66.410156 60.957031 52.992188 59.898438 C 46.058594 59.351562 39.175781 58.464844 32.421875 56.800781 C 31.339844 56.53125 30.289062 56.140625 29.417969 55.429688 C 29.050781 55.136719 34.296875 53.195312 34.902344 53 C 38.351562 51.875 41.886719 50.984375 45.425781 50.203125 C 58.992188 47.199219 72.953125 46.734375 86.792969 46.480469 C 100.765625 46.226562 114.667969 46.804688 128.601562 47.777344 C 128.601562 47.777344 128.601562 47.777344 128.605469 47.777344 C 136.769531 48.714844 145.039062 50.019531 152.980469 52.160156 C 154.9375 52.6875 157.261719 53.210938 158.863281 54.496094 C 160.824219 56.070312 154.589844 57.308594 154.183594 57.394531 Z M 157.605469 51.808594 C 148.410156 48.539062 138.285156 47.078125 128.613281 46.039062 C 113.308594 43.90625 97.640625 44.09375 82.226562 44.46875 C 66.78125 44.847656 51.355469 46.003906 36.460938 50.375 C 34.285156 51.015625 24.667969 52.84375 28.027344 56.871094 C 29.542969 58.691406 33.105469 59.046875 35.183594 59.488281 C 38.863281 60.273438 42.605469 60.742188 46.332031 61.207031 C 62.683594 63.253906 79.214844 62.535156 95.644531 62.519531 C 95.746094 62.519531 95.832031 62.503906 95.914062 62.480469 C 114.5625 62.308594 133.757812 63.050781 152.355469 59.609375 C 155.027344 59.113281 159.371094 58.890625 160.8125 56.113281 C 161.898438 54.023438 159.160156 52.359375 157.605469 51.808594 " fill-opacity="1" fill-rule="nonzero"/></g><path fill="#dad9d6" d="M 56.835938 123.4375 C 56.769531 123.507812 56.730469 123.59375 56.730469 123.6875 C 56.730469 123.796875 56.769531 123.882812 56.835938 123.949219 C 56.90625 124.015625 56.992188 124.054688 57.085938 124.054688 C 57.183594 124.054688 57.277344 124.015625 57.347656 123.949219 C 57.414062 123.882812 57.453125 123.796875 57.453125 123.6875 C 57.453125 123.59375 57.414062 123.507812 57.347656 123.4375 C 57.210938 123.304688 56.972656 123.304688 56.835938 123.4375 " fill-opacity="1" fill-rule="nonzero"/><path fill="#dad9d6" d="M 53.949219 120.148438 C 53.910156 120.1875 53.886719 120.242188 53.886719 120.296875 C 53.886719 120.363281 53.910156 120.414062 53.949219 120.453125 C 53.992188 120.492188 54.042969 120.515625 54.101562 120.515625 C 54.160156 120.515625 54.214844 120.496094 54.253906 120.453125 C 54.296875 120.414062 54.316406 120.363281 54.316406 120.296875 C 54.316406 120.242188 54.296875 120.1875 54.253906 120.148438 C 54.175781 120.066406 54.03125 120.066406 53.949219 120.148438 " fill-opacity="1" fill-rule="nonzero"/><path fill="#dad9d6" d="M 49.527344 118.488281 C 49.449219 118.566406 49.40625 118.660156 49.40625 118.769531 C 49.40625 118.894531 49.449219 118.992188 49.527344 119.066406 C 49.605469 119.144531 49.703125 119.1875 49.8125 119.1875 C 49.921875 119.1875 50.027344 119.144531 50.105469 119.066406 C 50.179688 118.992188 50.226562 118.894531 50.226562 118.769531 C 50.226562 118.660156 50.179688 118.566406 50.105469 118.488281 C 49.953125 118.335938 49.679688 118.335938 49.527344 118.488281 " fill-opacity="1" fill-rule="nonzero"/><path fill="#dad9d6" d="M 46.304688 115.625 C 46.253906 115.671875 46.226562 115.734375 46.226562 115.804688 C 46.226562 115.886719 46.253906 115.949219 46.304688 115.996094 C 46.351562 116.046875 46.414062 116.074219 46.484375 116.074219 C 46.558594 116.074219 46.628906 116.046875 46.675781 115.996094 C 46.726562 115.949219 46.753906 115.886719 46.753906 115.804688 C 46.753906 115.734375 46.726562 115.671875 46.675781 115.625 C 46.578125 115.523438 46.402344 115.523438 46.304688 115.625 " fill-opacity="1" fill-rule="nonzero"/><path fill="#dad9d6" d="M 44.078125 111.664062 C 44 111.742188 43.957031 111.839844 43.957031 111.945312 C 43.957031 112.066406 44 112.164062 44.078125 112.238281 C 44.152344 112.316406 44.25 112.359375 44.359375 112.359375 C 44.46875 112.359375 44.578125 112.316406 44.65625 112.238281 C 44.730469 112.164062 44.773438 112.066406 44.773438 111.945312 C 44.773438 111.839844 44.730469 111.742188 44.65625 111.664062 C 44.5 111.511719 44.230469 111.511719 44.078125 111.664062 " fill-opacity="1" fill-rule="nonzero"/><path fill="#dad9d6" d="M 44.28125 107.605469 C 44.359375 107.527344 44.40625 107.425781 44.40625 107.296875 C 44.40625 107.183594 44.359375 107.078125 44.28125 107 C 44.121094 106.839844 43.835938 106.839844 43.675781 107 C 43.597656 107.078125 43.550781 107.183594 43.550781 107.296875 C 43.550781 107.425781 43.597656 107.527344 43.675781 107.605469 C 43.757812 107.6875 43.859375 107.730469 43.972656 107.730469 C 44.085938 107.730469 44.199219 107.6875 44.28125 107.605469 " fill-opacity="1" fill-rule="nonzero"/><path fill="#dad9d6" d="M 40.636719 103.566406 C 40.566406 103.632812 40.53125 103.722656 40.53125 103.820312 C 40.53125 103.929688 40.566406 104.019531 40.636719 104.085938 C 40.707031 104.15625 40.796875 104.195312 40.894531 104.195312 C 40.992188 104.195312 41.089844 104.15625 41.160156 104.085938 C 41.226562 104.019531 41.265625 103.929688 41.265625 103.820312 C 41.265625 103.722656 41.226562 103.632812 41.160156 103.566406 C 41.019531 103.425781 40.773438 103.425781 40.636719 103.566406 " fill-opacity="1" fill-rule="nonzero"/><path fill="#dad9d6" d="M 40.480469 99.167969 C 40.402344 99.09375 40.273438 99.09375 40.199219 99.167969 C 40.160156 99.203125 40.140625 99.25 40.140625 99.304688 C 40.140625 99.363281 40.160156 99.410156 40.199219 99.445312 C 40.234375 99.484375 40.28125 99.507812 40.335938 99.507812 C 40.390625 99.507812 40.441406 99.484375 40.480469 99.445312 C 40.515625 99.410156 40.535156 99.363281 40.535156 99.304688 C 40.535156 99.25 40.515625 99.203125 40.480469 99.167969 " fill-opacity="1" fill-rule="nonzero"/><path fill="#dad9d6" d="M 36.265625 95.640625 C 36.179688 95.726562 36.128906 95.839844 36.128906 95.964844 C 36.128906 96.105469 36.179688 96.21875 36.265625 96.304688 C 36.355469 96.394531 36.46875 96.441406 36.59375 96.441406 C 36.71875 96.441406 36.84375 96.394531 36.933594 96.304688 C 37.019531 96.21875 37.070312 96.105469 37.070312 95.964844 C 37.070312 95.839844 37.019531 95.726562 36.933594 95.640625 C 36.753906 95.464844 36.441406 95.464844 36.265625 95.640625 " fill-opacity="1" fill-rule="nonzero"/><path fill="#dad9d6" d="M 36.925781 90.859375 C 36.835938 90.949219 36.789062 91.0625 36.789062 91.183594 C 36.789062 91.324219 36.835938 91.4375 36.925781 91.519531 C 37.011719 91.609375 37.125 91.660156 37.25 91.660156 C 37.375 91.660156 37.5 91.609375 37.585938 91.519531 C 37.671875 91.4375 37.722656 91.324219 37.722656 91.183594 C 37.722656 91.0625 37.671875 90.949219 37.585938 90.859375 C 37.414062 90.683594 37.101562 90.683594 36.925781 90.859375 " fill-opacity="1" fill-rule="nonzero"/><path fill="#dad9d6" d="M 36.476562 86.410156 C 36.390625 86.496094 36.339844 86.609375 36.339844 86.734375 C 36.339844 86.875 36.390625 86.984375 36.476562 87.070312 C 36.566406 87.160156 36.679688 87.210938 36.800781 87.210938 C 36.925781 87.210938 37.054688 87.160156 37.140625 87.070312 C 37.226562 86.984375 37.277344 86.875 37.277344 86.734375 C 37.277344 86.609375 37.226562 86.496094 37.140625 86.410156 C 36.964844 86.234375 36.652344 86.234375 36.476562 86.410156 " fill-opacity="1" fill-rule="nonzero"/><path fill="#dad9d6" d="M 35.074219 82.644531 C 35.023438 82.695312 34.996094 82.757812 34.996094 82.828125 C 34.996094 82.90625 35.023438 82.96875 35.074219 83.019531 C 35.125 83.066406 35.1875 83.097656 35.257812 83.097656 C 35.328125 83.097656 35.398438 83.066406 35.449219 83.019531 C 35.496094 82.96875 35.523438 82.90625 35.523438 82.828125 C 35.523438 82.757812 35.496094 82.695312 35.449219 82.644531 C 35.347656 82.546875 35.171875 82.546875 35.074219 82.644531 " fill-opacity="1" fill-rule="nonzero"/><path fill="#dad9d6" d="M 36.09375 78.394531 C 36.09375 78.519531 36.136719 78.621094 36.214844 78.699219 C 36.292969 78.777344 36.394531 78.820312 36.507812 78.820312 C 36.621094 78.820312 36.730469 78.777344 36.808594 78.699219 C 36.886719 78.621094 36.933594 78.519531 36.933594 78.394531 C 36.933594 78.28125 36.886719 78.183594 36.808594 78.105469 C 36.652344 77.945312 36.371094 77.945312 36.214844 78.105469 C 36.136719 78.183594 36.09375 78.28125 36.09375 78.394531 " fill-opacity="1" fill-rule="nonzero"/><path fill="#dad9d6" d="M 35.105469 73.722656 C 35.019531 73.808594 34.972656 73.914062 34.972656 74.03125 C 34.972656 74.164062 35.019531 74.273438 35.105469 74.355469 C 35.1875 74.441406 35.296875 74.488281 35.414062 74.488281 C 35.535156 74.488281 35.652344 74.441406 35.738281 74.355469 C 35.820312 74.273438 35.867188 74.164062 35.867188 74.03125 C 35.867188 73.914062 35.820312 73.808594 35.738281 73.722656 C 35.570312 73.554688 35.269531 73.554688 35.105469 73.722656 " fill-opacity="1" fill-rule="nonzero"/><path fill="#dad9d6" d="M 78.113281 123.90625 C 78.050781 123.96875 78.015625 124.050781 78.015625 124.136719 C 78.015625 124.238281 78.050781 124.316406 78.113281 124.378906 C 78.175781 124.441406 78.253906 124.476562 78.34375 124.476562 C 78.433594 124.476562 78.523438 124.441406 78.585938 124.378906 C 78.644531 124.316406 78.683594 124.238281 78.683594 124.136719 C 78.683594 124.050781 78.648438 123.96875 78.585938 123.90625 C 78.460938 123.78125 78.238281 123.78125 78.113281 123.90625 " fill-opacity="1" fill-rule="nonzero"/><path fill="#dad9d6" d="M 73.886719 122.632812 C 73.824219 122.699219 73.785156 122.78125 73.785156 122.871094 C 73.785156 122.972656 73.824219 123.054688 73.886719 123.121094 C 73.953125 123.183594 74.035156 123.222656 74.125 123.222656 C 74.21875 123.222656 74.3125 123.183594 74.375 123.121094 C 74.4375 123.054688 74.476562 122.972656 74.476562 122.871094 C 74.476562 122.78125 74.4375 122.699219 74.375 122.632812 C 74.246094 122.503906 74.015625 122.503906 73.886719 122.632812 " fill-opacity="1" fill-rule="nonzero"/><path fill="#dad9d6" d="M 69.84375 120.457031 C 69.773438 120.527344 69.734375 120.617188 69.734375 120.714844 C 69.734375 120.824219 69.773438 120.914062 69.84375 120.984375 C 69.910156 121.054688 70 121.09375 70.101562 121.09375 C 70.199219 121.09375 70.300781 121.054688 70.371094 120.984375 C 70.4375 120.914062 70.476562 120.824219 70.476562 120.714844 C 70.476562 120.617188 70.4375 120.527344 70.371094 120.457031 C 70.230469 120.316406 69.980469 120.316406 69.84375 120.457031 " fill-opacity="1" fill-rule="nonzero"/><path fill="#dad9d6" d="M 65.441406 120.023438 C 65.394531 120.074219 65.367188 120.136719 65.367188 120.203125 C 65.367188 120.277344 65.394531 120.339844 65.441406 120.386719 C 65.492188 120.4375 65.550781 120.460938 65.617188 120.460938 C 65.6875 120.460938 65.753906 120.4375 65.804688 120.386719 C 65.851562 120.339844 65.878906 120.277344 65.878906 120.203125 C 65.878906 120.136719 65.851562 120.074219 65.804688 120.023438 C 65.707031 119.929688 65.539062 119.929688 65.441406 120.023438 " fill-opacity="1" fill-rule="nonzero"/><path fill="#dad9d6" d="M 62.832031 116.246094 C 62.78125 116.300781 62.75 116.371094 62.75 116.449219 C 62.75 116.535156 62.78125 116.605469 62.832031 116.65625 C 62.886719 116.710938 62.957031 116.742188 63.035156 116.742188 C 63.113281 116.742188 63.1875 116.710938 63.242188 116.65625 C 63.296875 116.605469 63.328125 116.535156 63.328125 116.449219 C 63.328125 116.371094 63.296875 116.300781 63.242188 116.246094 C 63.132812 116.140625 62.941406 116.140625 62.832031 116.246094 " fill-opacity="1" fill-rule="nonzero"/><path fill="#dad9d6" d="M 59.457031 113.214844 C 59.375 113.296875 59.328125 113.402344 59.328125 113.519531 C 59.328125 113.648438 59.375 113.75 59.457031 113.832031 C 59.539062 113.914062 59.640625 113.960938 59.757812 113.960938 C 59.875 113.960938 59.992188 113.914062 60.070312 113.832031 C 60.152344 113.75 60.199219 113.648438 60.199219 113.519531 C 60.199219 113.402344 60.152344 113.296875 60.070312 113.214844 C 59.910156 113.054688 59.617188 113.054688 59.457031 113.214844 " fill-opacity="1" fill-rule="nonzero"/><path fill="#dad9d6" d="M 55.597656 111.273438 C 55.550781 111.324219 55.523438 111.382812 55.523438 111.449219 C 55.523438 111.523438 55.550781 111.582031 55.597656 111.628906 C 55.644531 111.675781 55.707031 111.703125 55.769531 111.703125 C 55.839844 111.703125 55.90625 111.675781 55.949219 111.628906 C 55.996094 111.582031 56.023438 111.523438 56.023438 111.449219 C 56.023438 111.382812 55.996094 111.324219 55.949219 111.273438 C 55.859375 111.183594 55.691406 111.183594 55.597656 111.273438 " fill-opacity="1" fill-rule="nonzero"/><path fill="#dad9d6" d="M 51.804688 108.375 C 51.742188 108.4375 51.707031 108.519531 51.707031 108.605469 C 51.707031 108.707031 51.742188 108.785156 51.804688 108.847656 C 51.867188 108.910156 51.945312 108.945312 52.035156 108.945312 C 52.125 108.945312 52.214844 108.910156 52.277344 108.847656 C 52.335938 108.785156 52.375 108.707031 52.375 108.605469 C 52.375 108.519531 52.335938 108.4375 52.277344 108.375 C 52.152344 108.25 51.929688 108.25 51.804688 108.375 " fill-opacity="1" fill-rule="nonzero"/><path fill="#dad9d6" d="M 50.261719 104.140625 C 50.195312 104.210938 50.15625 104.296875 50.15625 104.390625 C 50.15625 104.496094 50.195312 104.582031 50.261719 104.648438 C 50.328125 104.71875 50.414062 104.757812 50.511719 104.757812 C 50.609375 104.757812 50.703125 104.71875 50.769531 104.648438 C 50.835938 104.582031 50.875 104.496094 50.875 104.390625 C 50.875 104.296875 50.835938 104.210938 50.769531 104.140625 C 50.636719 104.007812 50.398438 104.007812 50.261719 104.140625 " fill-opacity="1" fill-rule="nonzero"/><path fill="#dad9d6" d="M 49.035156 99.933594 C 49 99.972656 48.980469 100.015625 48.980469 100.070312 C 48.980469 100.125 49 100.171875 49.035156 100.207031 C 49.074219 100.246094 49.117188 100.265625 49.171875 100.265625 C 49.222656 100.265625 49.273438 100.246094 49.308594 100.207031 C 49.34375 100.171875 49.363281 100.125 49.363281 100.070312 C 49.363281 100.015625 49.34375 99.972656 49.308594 99.933594 C 49.238281 99.863281 49.109375 99.863281 49.035156 99.933594 " fill-opacity="1" fill-rule="nonzero"/><path fill="#dad9d6" d="M 45.558594 96.863281 C 45.511719 96.90625 45.484375 96.964844 45.484375 97.027344 C 45.484375 97.101562 45.511719 97.160156 45.558594 97.203125 C 45.601562 97.25 45.660156 97.273438 45.722656 97.273438 C 45.789062 97.273438 45.851562 97.25 45.898438 97.203125 C 45.945312 97.160156 45.96875 97.101562 45.96875 97.027344 C 45.96875 96.964844 45.945312 96.90625 45.898438 96.863281 C 45.808594 96.773438 45.648438 96.773438 45.558594 96.863281 " fill-opacity="1" fill-rule="nonzero"/><path fill="#dad9d6" d="M 43.859375 93.347656 C 43.976562 93.347656 44.09375 93.300781 44.179688 93.214844 C 44.257812 93.136719 44.304688 93.027344 44.304688 92.898438 C 44.304688 92.78125 44.257812 92.675781 44.179688 92.589844 C 44.011719 92.425781 43.71875 92.425781 43.550781 92.589844 C 43.46875 92.675781 43.421875 92.78125 43.421875 92.898438 C 43.421875 93.027344 43.46875 93.132812 43.550781 93.214844 C 43.636719 93.300781 43.742188 93.347656 43.859375 93.347656 " fill-opacity="1" fill-rule="nonzero"/><path fill="#dad9d6" d="M 43.640625 88.414062 C 43.640625 88.324219 43.605469 88.246094 43.542969 88.183594 C 43.414062 88.054688 43.191406 88.054688 43.066406 88.183594 C 43 88.246094 42.964844 88.324219 42.964844 88.414062 C 42.964844 88.515625 43 88.597656 43.066406 88.660156 C 43.128906 88.722656 43.207031 88.757812 43.296875 88.757812 C 43.386719 88.757812 43.476562 88.722656 43.542969 88.660156 C 43.605469 88.597656 43.640625 88.515625 43.640625 88.414062 " fill-opacity="1" fill-rule="nonzero"/><path fill="#dad9d6" d="M 43.152344 87.585938 C 43.152344 87.527344 43.128906 87.476562 43.089844 87.4375 C 43.007812 87.355469 42.863281 87.355469 42.78125 87.4375 C 42.742188 87.476562 42.71875 87.527344 42.71875 87.585938 C 42.71875 87.652344 42.742188 87.703125 42.78125 87.742188 C 42.824219 87.785156 42.875 87.808594 42.933594 87.808594 C 42.992188 87.808594 43.050781 87.785156 43.089844 87.742188 C 43.128906 87.703125 43.152344 87.652344 43.152344 87.585938 " fill-opacity="1" fill-rule="nonzero"/><path fill="#dad9d6" d="M 101.144531 69.761719 C 101.082031 69.824219 101.046875 69.898438 101.046875 69.984375 C 101.046875 70.082031 101.082031 70.160156 101.144531 70.21875 C 101.203125 70.277344 101.28125 70.3125 101.367188 70.3125 C 101.453125 70.3125 101.539062 70.28125 101.597656 70.21875 C 101.660156 70.160156 101.691406 70.082031 101.691406 69.984375 C 101.691406 69.898438 101.660156 69.824219 101.597656 69.761719 C 101.480469 69.640625 101.265625 69.640625 101.144531 69.761719 " fill-opacity="1" fill-rule="nonzero"/><path fill="#dad9d6" d="M 96.765625 70.394531 C 96.695312 70.460938 96.660156 70.546875 96.660156 70.644531 C 96.660156 70.75 96.695312 70.835938 96.765625 70.902344 C 96.832031 70.972656 96.917969 71.007812 97.011719 71.007812 C 97.109375 71.007812 97.207031 70.972656 97.273438 70.902344 C 97.339844 70.835938 97.378906 70.75 97.378906 70.644531 C 97.378906 70.546875 97.339844 70.460938 97.273438 70.394531 C 97.140625 70.257812 96.898438 70.257812 96.765625 70.394531 " fill-opacity="1" fill-rule="nonzero"/><path fill="#dad9d6" d="M 92.542969 71.816406 C 92.496094 71.863281 92.46875 71.921875 92.46875 71.988281 C 92.46875 72.058594 92.496094 72.121094 92.542969 72.164062 C 92.585938 72.210938 92.648438 72.238281 92.710938 72.238281 C 92.78125 72.238281 92.84375 72.210938 92.890625 72.164062 C 92.9375 72.121094 92.964844 72.058594 92.964844 71.988281 C 92.964844 71.921875 92.9375 71.863281 92.890625 71.816406 C 92.796875 71.722656 92.632812 71.722656 92.542969 71.816406 " fill-opacity="1" fill-rule="nonzero"/><path fill="#dad9d6" d="M 87.996094 70.734375 C 87.929688 70.800781 87.890625 70.882812 87.890625 70.972656 C 87.890625 71.078125 87.929688 71.160156 87.996094 71.222656 C 88.058594 71.289062 88.144531 71.324219 88.234375 71.324219 C 88.328125 71.324219 88.421875 71.289062 88.484375 71.222656 C 88.550781 71.160156 88.585938 71.078125 88.585938 70.972656 C 88.585938 70.882812 88.550781 70.800781 88.484375 70.734375 C 88.355469 70.605469 88.125 70.605469 87.996094 70.734375 " fill-opacity="1" fill-rule="nonzero"/><path fill="#dad9d6" d="M 83.566406 69.53125 C 83.488281 69.609375 83.445312 69.707031 83.445312 69.816406 C 83.445312 69.9375 83.488281 70.035156 83.566406 70.113281 C 83.640625 70.191406 83.742188 70.234375 83.851562 70.234375 C 83.960938 70.234375 84.070312 70.191406 84.144531 70.113281 C 84.222656 70.035156 84.265625 69.9375 84.265625 69.816406 C 84.265625 69.707031 84.222656 69.609375 84.144531 69.53125 C 83.992188 69.375 83.71875 69.375 83.566406 69.53125 " fill-opacity="1" fill-rule="nonzero"/><path fill="#dad9d6" d="M 79.152344 69.832031 C 79.070312 69.914062 79.023438 70.023438 79.023438 70.140625 C 79.023438 70.273438 79.070312 70.382812 79.152344 70.460938 C 79.238281 70.546875 79.34375 70.59375 79.464844 70.59375 C 79.582031 70.59375 79.699219 70.546875 79.785156 70.460938 C 79.867188 70.382812 79.914062 70.273438 79.914062 70.140625 C 79.914062 70.023438 79.867188 69.914062 79.785156 69.832031 C 79.617188 69.667969 79.320312 69.667969 79.152344 69.832031 " fill-opacity="1" fill-rule="nonzero"/><path fill="#dad9d6" d="M 74.890625 69.96875 C 74.839844 70.019531 74.8125 70.082031 74.8125 70.152344 C 74.8125 70.230469 74.839844 70.296875 74.890625 70.34375 C 74.941406 70.394531 75.003906 70.421875 75.074219 70.421875 C 75.148438 70.421875 75.21875 70.394531 75.269531 70.34375 C 75.316406 70.296875 75.34375 70.230469 75.34375 70.152344 C 75.34375 70.082031 75.316406 70.019531 75.269531 69.96875 C 75.167969 69.867188 74.988281 69.867188 74.890625 69.96875 " fill-opacity="1" fill-rule="nonzero"/><path fill="#dad9d6" d="M 70.417969 72.4375 C 70.339844 72.519531 70.292969 72.621094 70.292969 72.730469 C 70.292969 72.855469 70.339844 72.957031 70.417969 73.035156 C 70.496094 73.117188 70.597656 73.160156 70.710938 73.160156 C 70.824219 73.160156 70.9375 73.117188 71.015625 73.035156 C 71.09375 72.957031 71.136719 72.855469 71.136719 72.730469 C 71.136719 72.621094 71.09375 72.519531 71.015625 72.4375 C 70.859375 72.28125 70.574219 72.28125 70.417969 72.4375 " fill-opacity="1" fill-rule="nonzero"/><path fill="#dad9d6" d="M 66.019531 69.453125 C 65.945312 69.523438 65.90625 69.621094 65.90625 69.722656 C 65.90625 69.835938 65.945312 69.929688 66.019531 70.003906 C 66.09375 70.078125 66.1875 70.117188 66.289062 70.117188 C 66.394531 70.117188 66.496094 70.074219 66.570312 70.003906 C 66.640625 69.929688 66.683594 69.835938 66.683594 69.722656 C 66.683594 69.621094 66.640625 69.527344 66.570312 69.453125 C 66.425781 69.308594 66.164062 69.308594 66.019531 69.453125 " fill-opacity="1" fill-rule="nonzero"/><path fill="#dad9d6" d="M 61.957031 69.851562 C 61.917969 69.890625 61.894531 69.941406 61.894531 69.996094 C 61.894531 70.058594 61.917969 70.109375 61.957031 70.148438 C 61.996094 70.1875 62.046875 70.207031 62.101562 70.207031 C 62.15625 70.207031 62.214844 70.1875 62.253906 70.148438 C 62.292969 70.109375 62.316406 70.058594 62.316406 69.996094 C 62.316406 69.941406 62.292969 69.890625 62.253906 69.851562 C 62.175781 69.773438 62.035156 69.773438 61.957031 69.851562 " fill-opacity="1" fill-rule="nonzero"/><path fill="#dad9d6" d="M 57.796875 71.589844 C 57.867188 71.519531 57.910156 71.429688 57.910156 71.316406 C 57.910156 71.21875 57.867188 71.128906 57.796875 71.054688 C 57.65625 70.914062 57.402344 70.914062 57.261719 71.054688 C 57.191406 71.128906 57.152344 71.21875 57.152344 71.316406 C 57.152344 71.429688 57.191406 71.519531 57.261719 71.589844 C 57.332031 71.664062 57.425781 71.703125 57.523438 71.703125 C 57.625 71.703125 57.726562 71.664062 57.796875 71.589844 " fill-opacity="1" fill-rule="nonzero"/><path fill="#dad9d6" d="M 53.085938 69.046875 C 53.019531 69.117188 52.980469 69.203125 52.980469 69.300781 C 52.980469 69.410156 53.019531 69.496094 53.085938 69.566406 C 53.15625 69.636719 53.246094 69.671875 53.339844 69.671875 C 53.441406 69.671875 53.539062 69.636719 53.605469 69.566406 C 53.675781 69.496094 53.714844 69.410156 53.714844 69.300781 C 53.714844 69.203125 53.675781 69.117188 53.605469 69.046875 C 53.46875 68.910156 53.222656 68.910156 53.085938 69.046875 " fill-opacity="1" fill-rule="nonzero"/><path fill="#dad9d6" d="M 49.097656 69.847656 C 49.097656 69.785156 49.074219 69.726562 49.03125 69.683594 C 48.941406 69.597656 48.785156 69.597656 48.699219 69.683594 C 48.652344 69.726562 48.628906 69.785156 48.628906 69.847656 C 48.628906 69.914062 48.652344 69.972656 48.699219 70.015625 C 48.742188 70.058594 48.796875 70.085938 48.859375 70.085938 C 48.921875 70.085938 48.984375 70.058594 49.03125 70.015625 C 49.074219 69.972656 49.097656 69.914062 49.097656 69.847656 " fill-opacity="1" fill-rule="nonzero"/><path fill="#dad9d6" d="M 44.988281 67.148438 C 44.851562 67.015625 44.609375 67.015625 44.472656 67.148438 C 44.40625 67.21875 44.367188 67.304688 44.367188 67.402344 C 44.367188 67.507812 44.40625 67.597656 44.472656 67.664062 C 44.542969 67.730469 44.628906 67.769531 44.726562 67.769531 C 44.824219 67.769531 44.917969 67.730469 44.988281 67.664062 C 45.054688 67.597656 45.09375 67.507812 45.09375 67.402344 C 45.09375 67.304688 45.054688 67.21875 44.988281 67.148438 " fill-opacity="1" fill-rule="nonzero"/><path fill="#dad9d6" d="M 40.539062 67.054688 C 40.636719 67.054688 40.738281 67.015625 40.808594 66.945312 C 40.878906 66.875 40.917969 66.785156 40.917969 66.675781 C 40.917969 66.574219 40.878906 66.484375 40.808594 66.414062 C 40.667969 66.273438 40.417969 66.273438 40.277344 66.414062 C 40.207031 66.484375 40.167969 66.574219 40.167969 66.675781 C 40.167969 66.785156 40.207031 66.875 40.277344 66.945312 C 40.347656 67.015625 40.4375 67.054688 40.539062 67.054688 " fill-opacity="1" fill-rule="nonzero"/><path fill="#dad9d6" d="M 35.558594 67.53125 C 35.511719 67.574219 35.484375 67.632812 35.484375 67.699219 C 35.484375 67.769531 35.511719 67.828125 35.558594 67.875 C 35.605469 67.921875 35.664062 67.945312 35.726562 67.945312 C 35.792969 67.945312 35.855469 67.921875 35.902344 67.875 C 35.949219 67.828125 35.972656 67.769531 35.972656 67.699219 C 35.972656 67.632812 35.949219 67.574219 35.902344 67.53125 C 35.8125 67.4375 35.648438 67.4375 35.558594 67.53125 " fill-opacity="1" fill-rule="nonzero"/><path fill="#dad9d6" d="M 38.566406 85.035156 C 38.507812 85.09375 38.472656 85.171875 38.472656 85.257812 C 38.472656 85.351562 38.507812 85.425781 38.566406 85.484375 C 38.625 85.546875 38.703125 85.582031 38.785156 85.582031 C 38.871094 85.582031 38.957031 85.546875 39.019531 85.484375 C 39.078125 85.425781 39.109375 85.351562 39.109375 85.257812 C 39.109375 85.171875 39.078125 85.09375 39.019531 85.035156 C 38.898438 84.917969 38.6875 84.917969 38.566406 85.035156 " fill-opacity="1" fill-rule="nonzero"/><path fill="#dad9d6" d="M 38.800781 80.707031 C 38.757812 80.75 38.734375 80.808594 38.734375 80.871094 C 38.734375 80.941406 38.757812 81 38.800781 81.042969 C 38.847656 81.085938 38.902344 81.109375 38.964844 81.109375 C 39.03125 81.109375 39.09375 81.085938 39.136719 81.042969 C 39.179688 81 39.207031 80.941406 39.207031 80.871094 C 39.207031 80.808594 39.179688 80.75 39.136719 80.707031 C 39.046875 80.617188 38.890625 80.617188 38.800781 80.707031 " fill-opacity="1" fill-rule="nonzero"/><path fill="#dad9d6" d="M 36.890625 76.730469 C 36.945312 76.679688 36.972656 76.613281 36.972656 76.53125 C 36.972656 76.457031 36.945312 76.390625 36.890625 76.335938 C 36.789062 76.230469 36.601562 76.230469 36.496094 76.335938 C 36.445312 76.390625 36.414062 76.457031 36.414062 76.53125 C 36.414062 76.613281 36.445312 76.679688 36.496094 76.730469 C 36.550781 76.785156 36.617188 76.8125 36.691406 76.8125 C 36.765625 76.8125 36.839844 76.785156 36.890625 76.730469 " fill-opacity="1" fill-rule="nonzero"/><path fill="#dad9d6" d="M 38.617188 72.117188 C 38.542969 72.191406 38.5 72.289062 38.5 72.394531 C 38.5 72.511719 38.542969 72.609375 38.617188 72.683594 C 38.695312 72.757812 38.789062 72.800781 38.898438 72.800781 C 39.003906 72.800781 39.113281 72.757812 39.1875 72.683594 C 39.261719 72.609375 39.304688 72.511719 39.304688 72.394531 C 39.304688 72.289062 39.261719 72.191406 39.1875 72.117188 C 39.035156 71.964844 38.769531 71.964844 38.617188 72.117188 " fill-opacity="1" fill-rule="nonzero"/><path fill="#dad9d6" d="M 103.089844 78.011719 C 103.035156 78.066406 103.003906 78.136719 103.003906 78.214844 C 103.003906 78.300781 103.035156 78.371094 103.089844 78.425781 C 103.144531 78.480469 103.214844 78.511719 103.292969 78.511719 C 103.371094 78.511719 103.449219 78.480469 103.503906 78.425781 C 103.558594 78.371094 103.589844 78.300781 103.589844 78.214844 C 103.589844 78.136719 103.558594 78.066406 103.503906 78.011719 C 103.394531 77.898438 103.199219 77.898438 103.089844 78.011719 " fill-opacity="1" fill-rule="nonzero"/><path fill="#dad9d6" d="M 98.707031 76.753906 C 98.648438 76.8125 98.613281 76.890625 98.613281 76.976562 C 98.613281 77.070312 98.648438 77.148438 98.707031 77.207031 C 98.765625 77.265625 98.84375 77.300781 98.929688 77.300781 C 99.015625 77.300781 99.097656 77.265625 99.160156 77.207031 C 99.21875 77.148438 99.253906 77.070312 99.253906 76.976562 C 99.253906 76.890625 99.21875 76.8125 99.160156 76.753906 C 99.039062 76.636719 98.824219 76.636719 98.707031 76.753906 " fill-opacity="1" fill-rule="nonzero"/><path fill="#dad9d6" d="M 94.277344 75.566406 C 94.199219 75.640625 94.15625 75.742188 94.15625 75.847656 C 94.15625 75.972656 94.199219 76.070312 94.277344 76.144531 C 94.351562 76.222656 94.449219 76.265625 94.5625 76.265625 C 94.671875 76.265625 94.78125 76.222656 94.855469 76.144531 C 94.933594 76.070312 94.976562 75.972656 94.976562 75.847656 C 94.976562 75.742188 94.933594 75.640625 94.855469 75.566406 C 94.703125 75.410156 94.429688 75.410156 94.277344 75.566406 " fill-opacity="1" fill-rule="nonzero"/><path fill="#dad9d6" d="M 89.785156 78.191406 C 89.699219 78.28125 89.648438 78.390625 89.648438 78.515625 C 89.648438 78.65625 89.699219 78.769531 89.785156 78.855469 C 89.875 78.945312 89.988281 78.992188 90.113281 78.992188 C 90.238281 78.992188 90.363281 78.945312 90.449219 78.855469 C 90.535156 78.769531 90.585938 78.65625 90.585938 78.515625 C 90.585938 78.390625 90.535156 78.28125 90.449219 78.191406 C 90.273438 78.015625 89.960938 78.015625 89.785156 78.191406 " fill-opacity="1" fill-rule="nonzero"/><path fill="#dad9d6" d="M 85.492188 75.550781 C 85.414062 75.628906 85.371094 75.726562 85.371094 75.835938 C 85.371094 75.957031 85.414062 76.058594 85.492188 76.132812 C 85.570312 76.210938 85.667969 76.257812 85.78125 76.257812 C 85.890625 76.257812 86 76.210938 86.078125 76.132812 C 86.15625 76.058594 86.199219 75.957031 86.199219 75.835938 C 86.199219 75.726562 86.15625 75.628906 86.078125 75.550781 C 85.921875 75.394531 85.644531 75.394531 85.492188 75.550781 " fill-opacity="1" fill-rule="nonzero"/><path fill="#dad9d6" d="M 81.117188 75.175781 C 81.042969 75.253906 81 75.347656 81 75.457031 C 81 75.578125 81.042969 75.671875 81.117188 75.746094 C 81.191406 75.824219 81.289062 75.867188 81.398438 75.867188 C 81.503906 75.867188 81.613281 75.824219 81.6875 75.746094 C 81.761719 75.671875 81.804688 75.578125 81.804688 75.457031 C 81.804688 75.347656 81.761719 75.253906 81.6875 75.175781 C 81.535156 75.027344 81.265625 75.027344 81.117188 75.175781 " fill-opacity="1" fill-rule="nonzero"/><path fill="#dad9d6" d="M 76.773438 77.835938 C 76.726562 77.882812 76.699219 77.945312 76.699219 78.015625 C 76.699219 78.089844 76.726562 78.152344 76.773438 78.199219 C 76.824219 78.25 76.886719 78.273438 76.953125 78.273438 C 77.023438 78.273438 77.089844 78.25 77.140625 78.199219 C 77.1875 78.152344 77.214844 78.089844 77.214844 78.015625 C 77.214844 77.945312 77.1875 77.882812 77.140625 77.835938 C 77.042969 77.738281 76.871094 77.738281 76.773438 77.835938 " fill-opacity="1" fill-rule="nonzero"/><path fill="#dad9d6" d="M 72.417969 74.609375 C 72.363281 74.667969 72.332031 74.738281 72.332031 74.820312 C 72.332031 74.910156 72.363281 74.984375 72.417969 75.039062 C 72.476562 75.097656 72.546875 75.128906 72.628906 75.128906 C 72.710938 75.128906 72.792969 75.097656 72.847656 75.039062 C 72.90625 74.984375 72.9375 74.910156 72.9375 74.820312 C 72.9375 74.738281 72.90625 74.667969 72.847656 74.609375 C 72.734375 74.496094 72.53125 74.496094 72.417969 74.609375 " fill-opacity="1" fill-rule="nonzero"/><path fill="#dad9d6" d="M 68.496094 75.105469 C 68.558594 75.039062 68.597656 74.953125 68.597656 74.847656 C 68.597656 74.753906 68.558594 74.667969 68.496094 74.601562 C 68.359375 74.472656 68.125 74.472656 67.992188 74.601562 C 67.925781 74.671875 67.886719 74.753906 67.886719 74.847656 C 67.886719 74.953125 67.925781 75.039062 67.992188 75.105469 C 68.058594 75.171875 68.144531 75.210938 68.238281 75.210938 C 68.332031 75.210938 68.425781 75.171875 68.496094 75.105469 " fill-opacity="1" fill-rule="nonzero"/><path fill="#dad9d6" d="M 64.058594 75.140625 C 64.097656 75.101562 64.117188 75.054688 64.117188 75 C 64.117188 74.945312 64.097656 74.898438 64.058594 74.863281 C 63.988281 74.789062 63.855469 74.789062 63.785156 74.863281 C 63.746094 74.898438 63.726562 74.945312 63.726562 75 C 63.726562 75.054688 63.746094 75.101562 63.785156 75.140625 C 63.820312 75.175781 63.867188 75.195312 63.917969 75.195312 C 63.972656 75.195312 64.023438 75.175781 64.058594 75.140625 " fill-opacity="1" fill-rule="nonzero"/><path fill="#dad9d6" d="M 59.777344 76.179688 C 59.859375 76.09375 59.90625 75.988281 59.90625 75.851562 C 59.90625 75.734375 59.859375 75.625 59.777344 75.539062 C 59.605469 75.371094 59.304688 75.371094 59.136719 75.539062 C 59.050781 75.625 59.003906 75.734375 59.003906 75.851562 C 59.003906 75.988281 59.050781 76.09375 59.136719 76.179688 C 59.222656 76.265625 59.332031 76.3125 59.449219 76.3125 C 59.570312 76.3125 59.691406 76.265625 59.777344 76.179688 " fill-opacity="1" fill-rule="nonzero"/><path fill="#dad9d6" d="M 55.417969 76.011719 C 55.417969 75.910156 55.378906 75.820312 55.308594 75.75 C 55.167969 75.609375 54.917969 75.609375 54.777344 75.75 C 54.707031 75.820312 54.667969 75.910156 54.667969 76.011719 C 54.667969 76.121094 54.707031 76.210938 54.777344 76.28125 C 54.847656 76.351562 54.9375 76.390625 55.039062 76.390625 C 55.136719 76.390625 55.238281 76.351562 55.308594 76.28125 C 55.378906 76.210938 55.417969 76.121094 55.417969 76.011719 " fill-opacity="1" fill-rule="nonzero"/><path fill="#dad9d6" d="M 50.636719 73.316406 C 50.585938 73.367188 50.558594 73.429688 50.558594 73.503906 C 50.558594 73.582031 50.585938 73.644531 50.636719 73.695312 C 50.6875 73.746094 50.75 73.773438 50.824219 73.773438 C 50.894531 73.773438 50.964844 73.746094 51.015625 73.695312 C 51.066406 73.644531 51.09375 73.582031 51.09375 73.503906 C 51.09375 73.429688 51.066406 73.367188 51.015625 73.316406 C 50.914062 73.21875 50.738281 73.21875 50.636719 73.316406 " fill-opacity="1" fill-rule="nonzero"/><path fill="#dad9d6" d="M 46.40625 73.953125 C 46.472656 73.953125 46.539062 73.925781 46.585938 73.878906 C 46.632812 73.835938 46.65625 73.777344 46.65625 73.703125 C 46.65625 73.636719 46.632812 73.578125 46.585938 73.53125 C 46.492188 73.4375 46.328125 73.4375 46.234375 73.53125 C 46.1875 73.578125 46.164062 73.636719 46.164062 73.703125 C 46.164062 73.777344 46.1875 73.835938 46.234375 73.878906 C 46.28125 73.925781 46.339844 73.953125 46.40625 73.953125 " fill-opacity="1" fill-rule="nonzero"/><path fill="#dad9d6" d="M 41.589844 76 C 41.527344 76.058594 41.492188 76.140625 41.492188 76.226562 C 41.492188 76.324219 41.527344 76.402344 41.589844 76.464844 C 41.652344 76.527344 41.730469 76.5625 41.816406 76.5625 C 41.90625 76.5625 41.992188 76.527344 42.054688 76.464844 C 42.117188 76.402344 42.152344 76.324219 42.152344 76.226562 C 42.152344 76.140625 42.117188 76.058594 42.054688 76 C 41.933594 75.875 41.710938 75.875 41.589844 76 " fill-opacity="1" fill-rule="nonzero"/><path fill="#dad9d6" d="M 68.183594 105.496094 C 68.136719 105.542969 68.109375 105.605469 68.109375 105.675781 C 68.109375 105.753906 68.136719 105.816406 68.183594 105.863281 C 68.234375 105.914062 68.296875 105.941406 68.363281 105.941406 C 68.433594 105.941406 68.503906 105.914062 68.554688 105.863281 C 68.601562 105.816406 68.628906 105.753906 68.628906 105.675781 C 68.628906 105.605469 68.601562 105.542969 68.554688 105.496094 C 68.457031 105.398438 68.28125 105.398438 68.183594 105.496094 " fill-opacity="1" fill-rule="nonzero"/><path fill="#dad9d6" d="M 63.722656 104.382812 C 63.636719 104.46875 63.585938 104.582031 63.585938 104.707031 C 63.585938 104.847656 63.636719 104.957031 63.722656 105.046875 C 63.8125 105.136719 63.925781 105.183594 64.050781 105.183594 C 64.175781 105.183594 64.300781 105.136719 64.386719 105.046875 C 64.476562 104.957031 64.527344 104.847656 64.527344 104.707031 C 64.527344 104.582031 64.476562 104.46875 64.386719 104.382812 C 64.210938 104.207031 63.898438 104.207031 63.722656 104.382812 " fill-opacity="1" fill-rule="nonzero"/><path fill="#dad9d6" d="M 61.371094 101.71875 C 61.320312 101.769531 61.289062 101.839844 61.289062 101.914062 C 61.289062 101.996094 61.320312 102.066406 61.371094 102.117188 C 61.425781 102.167969 61.492188 102.199219 61.566406 102.199219 C 61.644531 102.199219 61.71875 102.171875 61.769531 102.117188 C 61.824219 102.066406 61.851562 101.996094 61.851562 101.914062 C 61.851562 101.839844 61.824219 101.769531 61.769531 101.71875 C 61.664062 101.613281 61.476562 101.613281 61.371094 101.71875 " fill-opacity="1" fill-rule="nonzero"/><path fill="#dad9d6" d="M 59.59375 97.695312 C 59.550781 97.734375 59.527344 97.789062 59.527344 97.847656 C 59.527344 97.914062 59.550781 97.96875 59.59375 98.011719 C 59.636719 98.054688 59.691406 98.078125 59.75 98.078125 C 59.8125 98.078125 59.871094 98.054688 59.910156 98.011719 C 59.953125 97.96875 59.976562 97.917969 59.976562 97.847656 C 59.976562 97.789062 59.953125 97.734375 59.910156 97.695312 C 59.828125 97.609375 59.679688 97.609375 59.59375 97.695312 " fill-opacity="1" fill-rule="nonzero"/><path fill="#dad9d6" d="M 57.546875 93.96875 C 57.472656 94.039062 57.433594 94.132812 57.433594 94.234375 C 57.433594 94.347656 57.472656 94.4375 57.546875 94.507812 C 57.617188 94.582031 57.707031 94.621094 57.808594 94.621094 C 57.910156 94.621094 58.011719 94.582031 58.085938 94.507812 C 58.15625 94.4375 58.195312 94.347656 58.195312 94.234375 C 58.195312 94.132812 58.15625 94.039062 58.085938 93.96875 C 57.941406 93.828125 57.6875 93.828125 57.546875 93.96875 " fill-opacity="1" fill-rule="nonzero"/><path fill="#dad9d6" d="M 55.605469 90.695312 C 55.605469 90.640625 55.582031 90.589844 55.542969 90.554688 C 55.46875 90.476562 55.332031 90.476562 55.257812 90.554688 C 55.21875 90.589844 55.199219 90.640625 55.199219 90.695312 C 55.199219 90.753906 55.21875 90.800781 55.257812 90.839844 C 55.296875 90.878906 55.34375 90.902344 55.398438 90.902344 C 55.453125 90.902344 55.507812 90.878906 55.546875 90.839844 C 55.582031 90.800781 55.605469 90.753906 55.605469 90.695312 " fill-opacity="1" fill-rule="nonzero"/><path fill="#dad9d6" d="M 54.226562 86.15625 C 54.164062 86.214844 54.132812 86.292969 54.132812 86.375 C 54.132812 86.472656 54.164062 86.546875 54.226562 86.605469 C 54.285156 86.667969 54.359375 86.703125 54.445312 86.703125 C 54.53125 86.703125 54.617188 86.667969 54.675781 86.605469 C 54.734375 86.546875 54.769531 86.472656 54.769531 86.375 C 54.769531 86.292969 54.734375 86.214844 54.675781 86.15625 C 54.558594 86.035156 54.34375 86.035156 54.226562 86.15625 " fill-opacity="1" fill-rule="nonzero"/><path fill="#dad9d6" d="M 54.257812 82.921875 C 54.3125 82.867188 54.34375 82.796875 54.34375 82.710938 C 54.34375 82.632812 54.3125 82.5625 54.257812 82.507812 C 54.148438 82.394531 53.953125 82.394531 53.84375 82.507812 C 53.789062 82.5625 53.757812 82.632812 53.757812 82.710938 C 53.757812 82.796875 53.789062 82.867188 53.84375 82.921875 C 53.898438 82.976562 53.96875 83.007812 54.046875 83.007812 C 54.125 83.007812 54.203125 82.976562 54.257812 82.921875 " fill-opacity="1" fill-rule="nonzero"/><path fill="#dad9d6" d="M 45.867188 82.804688 C 45.867188 82.691406 45.820312 82.585938 45.742188 82.507812 C 45.578125 82.34375 45.289062 82.34375 45.128906 82.507812 C 45.046875 82.585938 45 82.691406 45 82.804688 C 45 82.933594 45.046875 83.039062 45.128906 83.117188 C 45.210938 83.199219 45.3125 83.246094 45.429688 83.246094 C 45.542969 83.246094 45.660156 83.199219 45.742188 83.117188 C 45.820312 83.039062 45.867188 82.933594 45.867188 82.804688 " fill-opacity="1" fill-rule="nonzero"/><path fill="#dad9d6" d="M 43.167969 79.304688 C 43.253906 79.304688 43.339844 79.269531 43.398438 79.210938 C 43.457031 79.152344 43.492188 79.074219 43.492188 78.980469 C 43.492188 78.898438 43.457031 78.820312 43.398438 78.761719 C 43.277344 78.640625 43.066406 78.640625 42.949219 78.761719 C 42.890625 78.820312 42.855469 78.898438 42.855469 78.980469 C 42.855469 79.074219 42.890625 79.152344 42.949219 79.210938 C 43.007812 79.269531 43.085938 79.304688 43.167969 79.304688 " fill-opacity="1" fill-rule="nonzero"/><path fill="#dad9d6" d="M 30.132812 66.113281 C 30.09375 66.152344 30.070312 66.203125 30.070312 66.261719 C 30.070312 66.328125 30.09375 66.378906 30.132812 66.417969 C 30.175781 66.460938 30.226562 66.484375 30.285156 66.484375 C 30.34375 66.484375 30.402344 66.460938 30.441406 66.417969 C 30.480469 66.378906 30.503906 66.328125 30.503906 66.261719 C 30.503906 66.203125 30.480469 66.152344 30.441406 66.113281 C 30.359375 66.03125 30.214844 66.03125 30.132812 66.113281 " fill-opacity="1" fill-rule="nonzero"/></svg>