<?xml version="1.0" encoding="utf-8"?>
<!-- Generator: Adobe Illustrator 27.1.1, SVG Export Plug-In . SVG Version: 6.00 Build 0)  -->
<svg version="1.1" id="Lager_1" xmlns="http://www.w3.org/2000/svg" xmlns:xlink="http://www.w3.org/1999/xlink" x="0px" y="0px"
	 viewBox="0 0 178.3 133.2" style="enable-background:new 0 0 178.3 133.2;" xml:space="preserve">
<style type="text/css">
	.st0{clip-path:url(#SVGID_00000153688244497857297880000008661112542903381898_);}
	.st1{fill:#D9EFF3;}
	.st2{fill:#B4DBDC;}
	.st3{clip-path:url(#SVGID_00000179630709313049142160000003843041807887028382_);}
	.st4{fill:#DAD9D6;}
</style>
<g>
	<defs>
		<rect id="SVGID_1_" x="0.4" y="5.9" width="176.9" height="127.4"/>
	</defs>
	<clipPath id="SVGID_00000060006003243115918080000008435651630778785445_">
		<use xlink:href="#SVGID_1_"  style="overflow:visible;"/>
	</clipPath>
	<g style="clip-path:url(#SVGID_00000060006003243115918080000008435651630778785445_);">
		<path class="st1" d="M14.5,15.6c1.6-0.4,3.6-0.7,6-1.1c0.6-0.1,1.1-0.2,1.4-0.2c5.9-1.1,12.1-1.6,18-2.1c1.8-0.2,3.7-0.3,5.5-0.5
			C61,10.3,76.3,10,89.3,10c0.9,0,1.7,0,2.6,0c15.2,0,28.6,0.5,40.8,1.4c7.7,0.6,15.7,1.2,23.6,2.4c0.3,0,0.6,0.1,1.1,0.2
			c4,0.5,6.9,1.1,9,1.6H14.5z M173.7,15.6c-1.7-1.8-4.8-2.6-7-3.2c-0.3-0.1-0.6-0.1-0.8-0.2c-8.2-2.2-16.6-3-24.7-3.7
			c-16.9-1.6-34-2.4-50.8-2.4C73.5,6,56.4,6.7,39.8,8.1c-8.5,0.7-17.2,1.5-25.6,3.7c-0.3,0.1-0.5,0.1-0.9,0.2
			c-2.4,0.6-6.1,1.5-7.8,3.6H0.4C1.5,32.8,0.4,57,3,74.2c6.3,42.5,48,57.2,85.7,59.1c37.7-1.8,79.4-16.6,85.7-59.1
			c2.6-17.1,1.6-41.4,2.6-58.6H173.7"/>
	</g>
</g>
<path class="st2" d="M172.9,18.4c-0.6-3.7-13.9-5.1-16.4-5.4c-7.8-1.2-15.8-1.8-23.7-2.4C118.3,9.4,103.8,9,89.3,9.1
	c-14.6,0-29.3,0.4-43.9,1.8c-7.9,0.7-15.8,1.2-23.6,2.6c-2.3,0.4-14.3,1.7-14.9,5c-0.2,0.9-1.5,0.6-1.5-0.2c0-3.8,6.2-4.9,8.9-5.6
	c8.3-2.1,16.9-2.9,25.5-3.6c16.9-1.5,33.7-2.2,50.6-2.1c17,0.1,33.8,0.9,50.7,2.4c8.2,0.8,16.5,1.5,24.5,3.7
	c2.5,0.7,8.1,1.7,8.2,5.2C173.9,18.8,172.9,19,172.9,18.4z M173.4,12.5c-6.8-2.5-14.2-3.8-21.4-5.2c-5.6-1.1-11.3-1.9-17-2.5
	c-0.8-0.1-1.6-0.2-2.4-0.2c-22.1-2.2-44.8-2.1-67.1-1.4C44.8,3.9,23.9,6.3,4.3,13.5c-6.2,2.3-1.5,4.8,2.3,5.8
	c6.1,1.6,12.5,2.5,18.8,3.2c21.6,2.7,43.3,1.8,65,1.8c-0.8,0-1.6,0-2.4,0c6.4-0.1,12.9-0.1,19.3-0.1c21.8,0,43.9,0,65.2-4.9
	C178,18,178.9,14.5,173.4,12.5"/>
<path class="st2" d="M172.1,25.3c-27.7,6-56.1,4.4-84.2,4.8c0,0,0,0,0,0c-0.1,0-0.1,0-0.2,0c0,0,0,0,0,0c-12.4,0-25.4,0.3-38.2-0.1
	C35,29.6,21,27.7,6.7,25.3c-1.5-0.2-2,1.8-0.6,2.2c12.7,4.2,27.2,4.6,40.5,5.2c14.8,0.6,29.6,0.1,44.4,0.1c0.1,0,0.3,0,0.4-0.1
	c27-0.2,54.7,1,81.2-5.2C174.1,27.2,173.6,25,172.1,25.3"/>
<path class="st2" d="M14.2,88.6c-2.5-4.5-3.8-9.5-4.6-14.6C7.5,61,7.9,47.5,7.2,34.3c0-0.6-0.9-0.6-0.9,0c-0.7,13.3-0.5,27,1.5,40.2
	c1.5,10.1,6.2,20.5,14.1,27.2c0.5,0.4,1.4-0.1,1-0.8C20,96.8,16.7,93.1,14.2,88.6"/>
<path class="st2" d="M70.9,122c-7.3-2.5-15.4-3-22.8-5.3c-8.3-2.6-15.2-6.9-21.8-12.5c-0.5-0.4-1.1,0.2-0.7,0.7
	c5.1,6.1,12.3,10,19.7,12.7c7.7,2.9,17.2,5.6,25.5,5.3C71.4,122.9,71.5,122.1,70.9,122"/>
<path class="st2" d="M80.5,112.6c-0.1,0.1-0.2,0.2-0.2,0.3c0,0.2,0.1,0.3,0.2,0.4c0.1,0.1,0.2,0.2,0.4,0.2c0.1,0,0.3-0.1,0.4-0.2
	s0.2-0.2,0.2-0.4c0-0.1-0.1-0.3-0.2-0.3C81.1,112.4,80.7,112.4,80.5,112.6"/>
<path class="st2" d="M74.4,111c-0.1,0.1-0.2,0.2-0.2,0.4c0,0.2,0.1,0.3,0.2,0.4c0.1,0.1,0.2,0.2,0.4,0.2s0.3-0.1,0.4-0.2
	c0.1-0.1,0.2-0.2,0.2-0.4c0-0.2-0.1-0.3-0.2-0.4C75,110.8,74.6,110.8,74.4,111"/>
<path class="st2" d="M69.5,114.3c0.1-0.1,0.1-0.2,0.1-0.3c0-0.1,0-0.2-0.1-0.3c-0.2-0.2-0.4-0.2-0.6,0c-0.1,0.1-0.1,0.2-0.1,0.3
	c0,0.1,0,0.2,0.1,0.3c0.1,0.1,0.2,0.1,0.3,0.1C69.3,114.4,69.4,114.4,69.5,114.3"/>
<path class="st2" d="M63.5,114.6c0.1-0.1,0.2-0.2,0.2-0.4c0-0.1-0.1-0.3-0.2-0.4c-0.2-0.2-0.6-0.2-0.8,0c-0.1,0.1-0.2,0.2-0.2,0.4
	c0,0.2,0.1,0.3,0.2,0.4c0.1,0.1,0.2,0.2,0.4,0.2C63.3,114.7,63.4,114.7,63.5,114.6"/>
<path class="st2" d="M58.5,110.1c0.1-0.1,0.1-0.2,0.1-0.3c0-0.1-0.1-0.2-0.1-0.3c-0.2-0.2-0.5-0.2-0.7,0c-0.1,0.1-0.1,0.2-0.1,0.3
	c0,0.1,0.1,0.3,0.1,0.3c0.1,0.1,0.2,0.1,0.3,0.1C58.3,110.3,58.4,110.2,58.5,110.1"/>
<path class="st2" d="M53.7,107.5c0.1-0.1,0.1-0.1,0.1-0.2c0-0.1,0-0.2-0.1-0.2c-0.1-0.1-0.3-0.1-0.5,0c-0.1,0.1-0.1,0.1-0.1,0.2
	c0,0.1,0,0.2,0.1,0.2s0.1,0.1,0.2,0.1C53.5,107.6,53.6,107.6,53.7,107.5"/>
<path class="st2" d="M46.6,108c0.1-0.1,0.1-0.1,0.1-0.2c0-0.1,0-0.1-0.1-0.2c-0.1-0.1-0.3-0.1-0.4,0c-0.1,0-0.1,0.1-0.1,0.2
	c0,0.1,0,0.1,0.1,0.2c0,0,0.1,0.1,0.2,0.1C46.5,108.1,46.6,108.1,46.6,108"/>
<path class="st2" d="M41.8,104.8c0.1-0.1,0.1-0.2,0.1-0.3c0-0.1,0-0.2-0.1-0.2c-0.1-0.1-0.4-0.1-0.5,0c-0.1,0.1-0.1,0.2-0.1,0.2
	c0,0.1,0,0.2,0.1,0.3c0.1,0.1,0.2,0.1,0.3,0.1C41.6,104.9,41.7,104.9,41.8,104.8"/>
<path class="st2" d="M37.3,100.5c0.1-0.1,0.1-0.2,0.1-0.3c0-0.1,0-0.2-0.1-0.3c-0.1-0.1-0.4-0.1-0.5,0c-0.1,0.1-0.1,0.2-0.1,0.3
	c0,0.1,0,0.2,0.1,0.3c0.1,0.1,0.2,0.1,0.3,0.1C37.1,100.6,37.2,100.6,37.3,100.5"/>
<path class="st2" d="M36.2,94.1c0.1-0.1,0.1-0.2,0.1-0.3c0-0.1,0-0.2-0.1-0.2c-0.1-0.1-0.4-0.1-0.5,0c-0.1,0.1-0.1,0.2-0.1,0.2
	c0,0.1,0,0.2,0.1,0.3c0.1,0.1,0.2,0.1,0.2,0.1C36,94.2,36.1,94.1,36.2,94.1"/>
<path class="st2" d="M145.8,106.2c-0.1,0.1-0.2,0.3-0.2,0.4c0,0.2,0.1,0.3,0.2,0.5c0.1,0.1,0.3,0.2,0.4,0.2c0.2,0,0.3-0.1,0.5-0.2
	c0.1-0.1,0.2-0.3,0.2-0.5c0-0.2-0.1-0.3-0.2-0.4C146.4,106,146,106,145.8,106.2"/>
<path class="st2" d="M139.5,106.9c-0.1,0.1-0.1,0.2-0.1,0.3c0,0.1,0,0.2,0.1,0.3c0.1,0.1,0.2,0.1,0.3,0.1c0.1,0,0.2,0,0.3-0.1
	s0.1-0.2,0.1-0.3c0-0.1,0-0.2-0.1-0.3C140,106.8,139.7,106.8,139.5,106.9"/>
<path class="st2" d="M135.3,111.3c-0.1,0.1-0.1,0.1-0.1,0.2c0,0.1,0,0.1,0.1,0.2c0.1,0.1,0.1,0.1,0.2,0.1c0.1,0,0.1,0,0.2-0.1
	c0.1,0,0.1-0.1,0.1-0.2c0-0.1,0-0.1-0.1-0.2C135.6,111.2,135.4,111.2,135.3,111.3"/>
<path class="st2" d="M128.5,111.3c-0.1,0.1-0.2,0.3-0.2,0.4c0,0.2,0.1,0.3,0.2,0.4c0.1,0.1,0.3,0.2,0.4,0.2c0.2,0,0.3-0.1,0.4-0.2
	c0.1-0.1,0.2-0.3,0.2-0.4c0-0.2-0.1-0.3-0.2-0.4C129.1,111,128.7,111,128.5,111.3"/>
<path class="st2" d="M124,114.3c-0.1,0.1-0.1,0.2-0.1,0.3c0,0.1,0.1,0.3,0.1,0.3c0.1,0.1,0.2,0.1,0.3,0.1c0.1,0,0.3-0.1,0.4-0.1
	c0.1-0.1,0.1-0.2,0.1-0.3c0-0.1-0.1-0.2-0.1-0.3C124.5,114.1,124.2,114.1,124,114.3"/>
<path class="st2" d="M119.4,119.5c-0.1,0.1-0.1,0.2-0.1,0.3c0,0.1,0,0.2,0.1,0.3c0.1,0.1,0.2,0.1,0.3,0.1s0.2,0,0.3-0.1
	s0.1-0.2,0.1-0.3c0-0.1,0-0.2-0.1-0.3C119.8,119.3,119.6,119.3,119.4,119.5"/>
<path class="st2" d="M113,118.6c-0.1,0.1-0.2,0.3-0.2,0.4c0,0.2,0.1,0.3,0.2,0.4c0.1,0.1,0.3,0.2,0.4,0.2c0.2,0,0.3-0.1,0.4-0.2
	c0.1-0.1,0.2-0.3,0.2-0.4c0-0.2-0.1-0.3-0.2-0.4C113.6,118.4,113.2,118.4,113,118.6"/>
<path class="st2" d="M107.2,119c-0.1,0.1-0.1,0.1-0.1,0.2c0,0.1,0,0.2,0.1,0.3c0.1,0.1,0.2,0.1,0.2,0.1s0.2,0,0.2-0.1
	c0.1-0.1,0.1-0.2,0.1-0.3c0-0.1,0-0.2-0.1-0.2C107.5,118.9,107.3,118.9,107.2,119"/>
<path class="st2" d="M102.3,123.6c-0.1,0.1-0.2,0.2-0.2,0.3c0,0.2,0.1,0.3,0.2,0.4c0.1,0.1,0.2,0.1,0.3,0.1c0.1,0,0.3-0.1,0.4-0.1
	s0.1-0.2,0.1-0.4c0-0.1-0.1-0.2-0.1-0.3C102.8,123.4,102.5,123.4,102.3,123.6"/>
<path class="st2" d="M96.2,123.2c-0.1,0.1-0.1,0.2-0.1,0.3c0,0.1,0,0.2,0.1,0.3c0.1,0.1,0.2,0.1,0.3,0.1c0.1,0,0.2,0,0.3-0.1
	c0.1-0.1,0.1-0.2,0.1-0.3c0-0.1,0-0.2-0.1-0.3C96.6,123,96.3,123,96.2,123.2"/>
<path class="st2" d="M90.2,124.4c-0.1,0.1-0.1,0.2-0.1,0.4c0,0.1,0.1,0.3,0.1,0.4c0.1,0.1,0.2,0.2,0.4,0.2c0.1,0,0.3-0.1,0.4-0.2
	s0.2-0.2,0.2-0.4c0-0.1-0.1-0.3-0.2-0.4C90.8,124.3,90.4,124.3,90.2,124.4"/>
<path class="st2" d="M84.5,121.5c-0.1,0.1-0.1,0.1-0.1,0.2c0,0.1,0,0.2,0.1,0.2c0.1,0.1,0.1,0.1,0.2,0.1c0.1,0,0.2,0,0.2-0.1
	c0.1-0.1,0.1-0.1,0.1-0.2c0-0.1,0-0.2-0.1-0.2C84.9,121.4,84.6,121.4,84.5,121.5"/>
<path class="st2" d="M78.7,120.9c-0.1,0.1-0.1,0.1-0.1,0.2c0,0.1,0,0.2,0.1,0.2c0.1,0.1,0.1,0.1,0.2,0.1c0.1,0,0.2,0,0.2-0.1
	c0.1-0.1,0.1-0.1,0.1-0.2c0-0.1,0-0.2-0.1-0.2C79,120.8,78.8,120.8,78.7,120.9"/>
<path class="st2" d="M72.8,124.4c-0.1,0.1-0.1,0.2-0.1,0.3c0,0.1,0,0.2,0.1,0.3c0.1,0.1,0.2,0.1,0.3,0.1s0.2,0,0.3-0.1
	c0.1-0.1,0.1-0.2,0.1-0.3c0-0.1,0-0.2-0.1-0.3C73.2,124.2,72.9,124.2,72.8,124.4"/>
<path class="st2" d="M135.5,100.1c-0.1,0.1-0.1,0.2-0.1,0.3c0,0.1,0.1,0.3,0.1,0.4c0.1,0.1,0.2,0.2,0.3,0.2c0.1,0,0.3-0.1,0.4-0.2
	c0.1-0.1,0.1-0.2,0.1-0.4c0-0.1-0.1-0.2-0.1-0.3C136,99.9,135.7,99.9,135.5,100.1"/>
<path class="st2" d="M131.4,104.9c-0.1,0.1-0.1,0.2-0.1,0.3c0,0.1,0,0.2,0.1,0.3c0.1,0.1,0.2,0.1,0.3,0.1c0.1,0,0.2,0,0.3-0.1
	c0.1-0.1,0.1-0.2,0.1-0.3c0-0.1,0-0.2-0.1-0.3C131.9,104.8,131.6,104.8,131.4,104.9"/>
<path class="st2" d="M125.8,106.8c-0.1,0.1-0.1,0.2-0.1,0.3c0,0.1,0,0.2,0.1,0.3c0.1,0.1,0.2,0.1,0.3,0.1s0.2,0,0.3-0.1
	c0.1-0.1,0.1-0.2,0.1-0.3c0-0.1,0-0.2-0.1-0.3C126.2,106.6,126,106.6,125.8,106.8"/>
<path class="st2" d="M120.7,110.3c-0.1,0.1-0.2,0.3-0.2,0.4c0,0.2,0.1,0.3,0.2,0.4c0.1,0.1,0.3,0.2,0.4,0.2c0.2,0,0.3-0.1,0.4-0.2
	c0.1-0.1,0.2-0.3,0.2-0.4c0-0.2-0.1-0.3-0.2-0.4C121.4,110.1,120.9,110.1,120.7,110.3"/>
<path class="st2" d="M114.1,109.2c-0.1,0.1-0.2,0.2-0.2,0.4c0,0.2,0.1,0.3,0.2,0.4c0.1,0.1,0.2,0.2,0.4,0.2s0.3-0.1,0.4-0.2
	s0.2-0.2,0.2-0.4c0-0.1-0.1-0.3-0.2-0.4C114.6,109,114.3,109,114.1,109.2"/>
<path class="st2" d="M110,114.8c-0.1,0.1-0.1,0.1-0.1,0.2c0,0.1,0,0.2,0.1,0.2c0.1,0.1,0.1,0.1,0.2,0.1c0.1,0,0.2,0,0.2-0.1
	c0.1-0.1,0.1-0.1,0.1-0.2c0-0.1,0-0.2-0.1-0.2C110.3,114.7,110.1,114.7,110,114.8"/>
<path class="st2" d="M103.4,112.7c-0.1,0.1-0.2,0.2-0.2,0.4c0,0.2,0.1,0.3,0.2,0.4c0.1,0.1,0.2,0.2,0.4,0.2c0.2,0,0.3-0.1,0.4-0.2
	c0.1-0.1,0.2-0.2,0.2-0.4c0-0.2-0.1-0.3-0.2-0.4C104,112.5,103.6,112.5,103.4,112.7"/>
<path class="st2" d="M97.8,113.4c-0.1,0.1-0.1,0.1-0.1,0.2c0,0.1,0,0.2,0.1,0.2c0.1,0.1,0.1,0.1,0.2,0.1s0.2,0,0.2-0.1
	c0.1-0.1,0.1-0.1,0.1-0.2c0-0.1,0-0.2-0.1-0.2C98.1,113.3,97.9,113.3,97.8,113.4"/>
<path class="st2" d="M91.8,113.8c-0.1,0.1-0.2,0.2-0.2,0.4c0,0.2,0.1,0.3,0.2,0.4c0.1,0.1,0.2,0.2,0.4,0.2c0.1,0,0.3-0.1,0.4-0.2
	c0.1-0.1,0.2-0.2,0.2-0.4c0-0.1-0.1-0.3-0.2-0.4C92.3,113.7,92,113.7,91.8,113.8"/>
<path class="st2" d="M162.8,70.6c-0.1,0.1-0.2,0.2-0.2,0.3c0,0.2,0.1,0.3,0.2,0.4s0.2,0.2,0.3,0.2c0.1,0,0.3-0.1,0.4-0.2
	s0.2-0.2,0.2-0.4c0-0.1-0.1-0.3-0.2-0.3C163.3,70.4,163,70.4,162.8,70.6"/>
<path class="st2" d="M162.3,76.7c-0.1,0.1-0.1,0.1-0.1,0.2c0,0.1,0,0.2,0.1,0.2c0.1,0.1,0.1,0.1,0.2,0.1c0.1,0,0.2,0,0.2-0.1
	c0.1-0.1,0.1-0.1,0.1-0.2c0-0.1,0-0.1-0.1-0.2C162.6,76.6,162.5,76.6,162.3,76.7"/>
<path class="st2" d="M157.3,80.1c-0.1,0.1-0.1,0.2-0.1,0.3c0,0.1,0.1,0.3,0.1,0.4c0.1,0.1,0.2,0.1,0.3,0.1c0.1,0,0.3-0.1,0.4-0.1
	c0.1-0.1,0.1-0.2,0.1-0.4c0-0.1-0.1-0.2-0.1-0.3C157.8,79.9,157.5,79.9,157.3,80.1"/>
<path class="st2" d="M153.6,75.5c-0.1,0.1-0.1,0.2-0.1,0.3c0,0.1,0,0.2,0.1,0.3c0.1,0.1,0.2,0.1,0.3,0.1c0.1,0,0.2,0,0.3-0.1
	c0.1-0.1,0.1-0.2,0.1-0.3c0-0.1,0-0.2-0.1-0.3C154.1,75.4,153.8,75.4,153.6,75.5"/>
<path class="st2" d="M155.3,70.1c0.1-0.1,0.2-0.2,0.2-0.4c0-0.1-0.1-0.3-0.2-0.4c-0.2-0.2-0.6-0.2-0.8,0c-0.1,0.1-0.2,0.2-0.2,0.4
	c0,0.2,0.1,0.3,0.2,0.4c0.1,0.1,0.2,0.2,0.4,0.2C155.1,70.3,155.2,70.2,155.3,70.1"/>
<path class="st2" d="M153.5,64.3c0.1,0.1,0.2,0.1,0.3,0.1s0.2,0,0.3-0.1c0.1-0.1,0.1-0.2,0.1-0.3c0-0.1,0-0.2-0.1-0.3
	c-0.1-0.1-0.4-0.1-0.5,0c-0.1,0.1-0.1,0.2-0.1,0.3C153.4,64.1,153.5,64.2,153.5,64.3"/>
<path class="st2" d="M153.1,58.3c0-0.1,0-0.2-0.1-0.2c-0.1-0.1-0.3-0.1-0.5,0c-0.1,0.1-0.1,0.1-0.1,0.2c0,0.1,0,0.2,0.1,0.2
	c0.1,0.1,0.1,0.1,0.2,0.1c0.1,0,0.2,0,0.2-0.1C153,58.4,153.1,58.4,153.1,58.3"/>
<path class="st2" d="M151.9,52.4c-0.1,0.1-0.1,0.1-0.1,0.2c0,0.1,0,0.2,0.1,0.2s0.1,0.1,0.2,0.1c0.1,0,0.2,0,0.2-0.1
	c0.1-0.1,0.1-0.1,0.1-0.2c0-0.1,0-0.2-0.1-0.2C152.2,52.2,152,52.2,151.9,52.4"/>
<path class="st2" d="M155.2,47.9c-0.1,0.1-0.2,0.2-0.2,0.4c0,0.2,0.1,0.3,0.2,0.4c0.1,0.1,0.2,0.2,0.4,0.2c0.2,0,0.3-0.1,0.4-0.2
	c0.1-0.1,0.2-0.2,0.2-0.4c0-0.1-0.1-0.3-0.2-0.4C155.8,47.7,155.4,47.7,155.2,47.9"/>
<path class="st2" d="M158.2,44.9c-0.1,0.1-0.1,0.2-0.1,0.3c0,0.1,0,0.2,0.1,0.3c0.1,0.1,0.2,0.1,0.3,0.1c0.1,0,0.2,0,0.3-0.1
	c0.1-0.1,0.1-0.2,0.1-0.3c0-0.1,0-0.2-0.1-0.3C158.7,44.7,158.4,44.7,158.2,44.9"/>
<path class="st2" d="M164.6,42.5c-0.1-0.1-0.3-0.1-0.4,0c-0.1,0.1-0.1,0.1-0.1,0.2c0,0.1,0,0.2,0.1,0.2c0.1,0.1,0.1,0.1,0.2,0.1
	c0.1,0,0.2,0,0.2-0.1c0.1-0.1,0.1-0.1,0.1-0.2C164.7,42.6,164.7,42.5,164.6,42.5"/>
<path class="st2" d="M169,46.3c-0.1,0.1-0.2,0.2-0.2,0.4c0,0.2,0.1,0.3,0.2,0.4c0.1,0.1,0.2,0.2,0.4,0.2s0.3-0.1,0.4-0.2
	c0.1-0.1,0.2-0.2,0.2-0.4c0-0.1-0.1-0.3-0.2-0.4C169.6,46.1,169.2,46.1,169,46.3"/>
<path class="st2" d="M168.9,52.4c-0.1,0.1-0.2,0.2-0.2,0.4c0,0.2,0.1,0.3,0.2,0.4c0.1,0.1,0.2,0.2,0.4,0.2s0.3-0.1,0.4-0.2
	c0.1-0.1,0.2-0.2,0.2-0.4c0-0.1-0.1-0.3-0.2-0.4C169.5,52.2,169.1,52.2,168.9,52.4"/>
<path class="st2" d="M170.9,58.3c-0.1,0.1-0.1,0.2-0.1,0.3c0,0.1,0,0.2,0.1,0.3s0.2,0.1,0.3,0.1c0.1,0,0.2,0,0.3-0.1
	s0.1-0.2,0.1-0.3c0-0.1,0-0.2-0.1-0.3C171.3,58.1,171,58.1,170.9,58.3"/>
<path class="st2" d="M168.5,63.5c-0.1,0.1-0.2,0.2-0.2,0.4c0,0.2,0.1,0.3,0.2,0.4c0.1,0.1,0.2,0.2,0.4,0.2s0.3-0.1,0.4-0.2
	c0.1-0.1,0.2-0.2,0.2-0.4c0-0.1-0.1-0.3-0.2-0.4C169,63.4,168.7,63.4,168.5,63.5"/>
<path class="st2" d="M168.4,69.9c-0.1,0.1-0.1,0.1-0.1,0.2c0,0.1,0,0.2,0.1,0.2c0.1,0.1,0.1,0.1,0.2,0.1c0.1,0,0.2,0,0.2-0.1
	c0.1-0.1,0.1-0.1,0.1-0.2c0-0.1,0-0.2-0.1-0.2C168.8,69.8,168.6,69.8,168.4,69.9"/>
<path class="st2" d="M165.5,74.5c-0.2-0.2-0.5-0.2-0.7,0c-0.1,0.1-0.2,0.2-0.2,0.3c0,0.2,0.1,0.3,0.2,0.4c0.1,0.1,0.2,0.2,0.3,0.2
	c0.1,0,0.3-0.1,0.4-0.2c0.1-0.1,0.2-0.2,0.2-0.4C165.6,74.7,165.6,74.6,165.5,74.5"/>
<path class="st2" d="M161,79.8c0.1,0.1,0.2,0.2,0.4,0.2s0.3-0.1,0.4-0.2c0.1-0.1,0.2-0.2,0.2-0.4c0-0.1-0.1-0.3-0.2-0.4
	c-0.2-0.2-0.5-0.2-0.7,0c-0.1,0.1-0.2,0.2-0.2,0.4C160.8,79.5,160.9,79.7,161,79.8"/>
<path class="st2" d="M154.8,80.6c-0.1,0.1-0.1,0.2-0.1,0.3c0,0.1,0.1,0.3,0.1,0.3c0.1,0.1,0.2,0.1,0.3,0.1c0.1,0,0.3-0.1,0.3-0.1
	c0.1-0.1,0.1-0.2,0.1-0.3c0-0.1-0.1-0.2-0.1-0.3C155.3,80.4,155,80.4,154.8,80.6"/>
<path class="st2" d="M152.9,75c-0.1,0.1-0.1,0.1-0.1,0.2c0,0.1,0,0.2,0.1,0.2c0.1,0.1,0.1,0.1,0.2,0.1c0.1,0,0.2,0,0.2-0.1
	c0.1-0.1,0.1-0.1,0.1-0.2c0-0.1,0-0.1-0.1-0.2C153.2,74.9,153,74.9,152.9,75"/>
<path class="st2" d="M149.9,69.6c-0.1,0.1-0.2,0.3-0.2,0.4c0,0.2,0.1,0.3,0.2,0.4c0.1,0.1,0.3,0.2,0.4,0.2c0.2,0,0.3-0.1,0.4-0.2
	c0.1-0.1,0.2-0.3,0.2-0.4c0-0.2-0.1-0.3-0.2-0.4C150.5,69.4,150.1,69.4,149.9,69.6"/>
<path class="st2" d="M150.2,65c0.1-0.1,0.1-0.1,0.1-0.2c0-0.1,0-0.2-0.1-0.2c-0.1-0.1-0.4-0.1-0.5,0c-0.1,0.1-0.1,0.2-0.1,0.2
	c0,0.1,0,0.2,0.1,0.2c0.1,0.1,0.2,0.1,0.2,0.1S150.1,65,150.2,65"/>
<path class="st2" d="M149.7,59.5c0-0.1-0.1-0.2-0.2-0.3c-0.2-0.2-0.5-0.2-0.7,0c-0.1,0.1-0.1,0.2-0.1,0.3c0,0.2,0.1,0.3,0.1,0.4
	s0.2,0.1,0.3,0.1s0.3-0.1,0.4-0.1S149.7,59.6,149.7,59.5"/>
<path class="st2" d="M144.4,53.1c-0.1,0.1-0.2,0.2-0.2,0.4c0,0.2,0.1,0.3,0.2,0.4c0.1,0.1,0.2,0.2,0.4,0.2c0.2,0,0.3-0.1,0.4-0.2
	c0.1-0.1,0.2-0.2,0.2-0.4c0-0.2-0.1-0.3-0.2-0.4C145,52.8,144.6,52.8,144.4,53.1"/>
<path class="st2" d="M147,47.3c-0.1,0.1-0.2,0.2-0.2,0.4c0,0.2,0.1,0.3,0.2,0.4c0.1,0.1,0.2,0.2,0.4,0.2c0.2,0,0.3-0.1,0.4-0.2
	c0.1-0.1,0.2-0.2,0.2-0.4c0-0.2-0.1-0.3-0.2-0.4C147.6,47.1,147.2,47.1,147,47.3"/>
<path class="st2" d="M147.5,41.3c-0.1,0.1-0.1,0.2-0.1,0.3c0,0.1,0.1,0.3,0.1,0.3c0.1,0.1,0.2,0.1,0.3,0.1s0.3-0.1,0.3-0.1
	c0.1-0.1,0.1-0.2,0.1-0.3c0-0.1-0.1-0.2-0.1-0.3C148,41.1,147.6,41.1,147.5,41.3"/>
<path class="st2" d="M154,40.3c0.2,0,0.3-0.1,0.4-0.2c0.1-0.1,0.2-0.2,0.2-0.4c0-0.1-0.1-0.3-0.2-0.4c-0.2-0.2-0.6-0.2-0.8,0
	c-0.1,0.1-0.2,0.2-0.2,0.4c0,0.2,0.1,0.3,0.2,0.4C153.8,40.2,153.9,40.3,154,40.3"/>
<path class="st2" d="M158.4,35.5c0.1-0.1,0.2-0.2,0.2-0.4c0-0.1-0.1-0.3-0.2-0.4c-0.2-0.2-0.6-0.2-0.8,0c-0.1,0.1-0.2,0.2-0.2,0.4
	c0,0.2,0.1,0.3,0.2,0.4c0.1,0.1,0.2,0.2,0.4,0.2C158.1,35.7,158.3,35.6,158.4,35.5"/>
<path class="st2" d="M165.6,85.5c-0.1,0.1-0.1,0.1-0.1,0.2c0,0.1,0,0.1,0.1,0.2c0,0,0.1,0.1,0.2,0.1c0.1,0,0.1,0,0.2-0.1
	s0.1-0.1,0.1-0.2c0-0.1,0-0.1-0.1-0.2C165.9,85.5,165.7,85.5,165.6,85.5"/>
<path class="st2" d="M161.1,89.8c-0.1,0.1-0.2,0.3-0.2,0.4c0,0.2,0.1,0.3,0.2,0.4c0.1,0.1,0.3,0.2,0.4,0.2c0.2,0,0.3-0.1,0.4-0.2
	c0.1-0.1,0.2-0.3,0.2-0.4c0-0.2-0.1-0.3-0.2-0.4C161.7,89.6,161.3,89.6,161.1,89.8"/>
<path class="st2" d="M159.5,95.3c-0.1,0.1-0.2,0.2-0.2,0.3c0,0.2,0.1,0.3,0.2,0.4c0.1,0.1,0.2,0.2,0.4,0.2s0.3-0.1,0.4-0.2
	c0.1-0.1,0.1-0.2,0.1-0.4c0-0.1-0.1-0.3-0.1-0.3C160,95.1,159.6,95.1,159.5,95.3"/>
<path class="st2" d="M156.5,100.4c-0.1,0.1-0.2,0.2-0.2,0.4c0,0.2,0.1,0.3,0.2,0.4c0.1,0.1,0.2,0.2,0.4,0.2c0.1,0,0.3-0.1,0.4-0.2
	c0.1-0.1,0.2-0.2,0.2-0.4c0-0.1-0.1-0.3-0.2-0.4C157.1,100.2,156.7,100.2,156.5,100.4"/>
<path class="st2" d="M169.3,36.9c-0.1,0.1-0.1,0.2-0.1,0.3c0,0.1,0,0.2,0.1,0.3c0.1,0.1,0.2,0.1,0.3,0.1c0.1,0,0.2,0,0.3-0.1
	c0.1-0.1,0.1-0.2,0.1-0.3c0-0.1,0-0.2-0.1-0.3C169.8,36.7,169.5,36.7,169.3,36.9"/>
<path class="st2" d="M171.6,30.8c-0.1,0.1-0.1,0.2-0.1,0.3c0,0.1,0,0.2,0.1,0.3c0.1,0.1,0.2,0.1,0.3,0.1c0.1,0,0.2,0,0.3-0.1
	c0.1-0.1,0.1-0.2,0.1-0.3c0-0.1,0-0.2-0.1-0.3C172,30.6,171.7,30.6,171.6,30.8"/>
<path class="st2" d="M160,61.3c-0.1,0.1-0.1,0.1-0.1,0.2c0,0.1,0,0.2,0.1,0.2c0.1,0.1,0.1,0.1,0.2,0.1c0.1,0,0.2,0,0.2-0.1
	c0.1-0.1,0.1-0.1,0.1-0.2c0-0.1,0-0.2-0.1-0.2C160.4,61.1,160.2,61.1,160,61.3"/>
<path class="st2" d="M161.4,56.3c0.2,0,0.3-0.1,0.4-0.2c0.1-0.1,0.2-0.2,0.2-0.4c0-0.1-0.1-0.3-0.2-0.4c-0.2-0.2-0.6-0.2-0.8,0
	c-0.1,0.1-0.2,0.2-0.2,0.4c0,0.2,0.1,0.3,0.2,0.4C161.1,56.2,161.2,56.3,161.4,56.3"/>
<path class="st2" d="M160.2,49.8c0.1,0,0.2,0,0.2-0.1c0.1-0.1,0.1-0.1,0.1-0.2c0-0.1,0-0.2-0.1-0.2c-0.1-0.1-0.3-0.1-0.4,0
	c-0.1,0.1-0.1,0.1-0.1,0.2c0,0.1,0,0.2,0.1,0.2C160.1,49.8,160.1,49.8,160.2,49.8"/>
<g>
	<defs>
		<rect id="SVGID_00000005227451073607806020000001883634175220082611_" y="1.2" width="178.3" height="24.6"/>
	</defs>
	<clipPath id="SVGID_00000039829082022677955860000012419084373740517535_">
		<use xlink:href="#SVGID_00000005227451073607806020000001883634175220082611_"  style="overflow:visible;"/>
	</clipPath>
	<g style="clip-path:url(#SVGID_00000039829082022677955860000012419084373740517535_);">
		<path class="st4" d="M169.1,18.8c-5.9,1.2-11.8,2.1-17.7,2.7c-21.1,2.2-42.3,1.3-63.5,1.5h0c-0.1,0-0.1,0-0.2,0c0,0,0,0,0,0
			c-17.9,0-35.6,0.5-53.5-0.9C25,21.4,15.8,20.2,6.8,18c-1.4-0.4-2.8-0.9-4-1.8c-0.5-0.4,6.5-3,7.3-3.2c4.6-1.5,9.3-2.7,14-3.7
			c18.1-4,36.7-4.6,55.2-5C97.9,3.9,116.5,4.7,135,6c0,0,0,0,0,0c10.9,1.2,21.9,3,32.5,5.8c2.6,0.7,5.7,1.4,7.8,3.1
			C178,17,169.7,18.7,169.1,18.8z M173.7,11.3C161.4,7,147.9,5,135.1,3.6c-20.4-2.8-41.3-2.6-61.8-2.1c-20.6,0.5-41.2,2-61,7.9
			c-2.9,0.9-15.7,3.3-11.2,8.7c2,2.4,6.8,2.9,9.5,3.5c4.9,1,9.9,1.7,14.9,2.3c21.8,2.7,43.8,1.8,65.8,1.8c0.1,0,0.2,0,0.4-0.1
			c24.9-0.2,50.5,0.8,75.3-3.8c3.6-0.7,9.4-1,11.3-4.7C179.4,14.3,175.8,12.1,173.7,11.3"/>
	</g>
</g>
<path class="st4" d="M39.3,106.8c-0.1,0.1-0.1,0.2-0.1,0.3c0,0.1,0.1,0.3,0.1,0.3c0.1,0.1,0.2,0.1,0.3,0.1c0.1,0,0.3-0.1,0.3-0.1
	c0.1-0.1,0.1-0.2,0.1-0.3c0-0.1-0.1-0.2-0.1-0.3C39.8,106.7,39.5,106.7,39.3,106.8"/>
<path class="st4" d="M35.5,102.5c-0.1,0.1-0.1,0.1-0.1,0.2c0,0.1,0,0.2,0.1,0.2c0.1,0.1,0.1,0.1,0.2,0.1s0.2,0,0.2-0.1
	c0.1-0.1,0.1-0.1,0.1-0.2c0-0.1,0-0.1-0.1-0.2C35.8,102.4,35.6,102.4,35.5,102.5"/>
<path class="st4" d="M29.6,100.2c-0.1,0.1-0.2,0.2-0.2,0.4c0,0.2,0.1,0.3,0.2,0.4c0.1,0.1,0.2,0.2,0.4,0.2c0.1,0,0.3-0.1,0.4-0.2
	c0.1-0.1,0.2-0.2,0.2-0.4c0-0.1-0.1-0.3-0.2-0.4C30.2,100,29.8,100,29.6,100.2"/>
<path class="st4" d="M25.3,96.4c-0.1,0.1-0.1,0.1-0.1,0.2c0,0.1,0,0.2,0.1,0.3c0.1,0.1,0.1,0.1,0.2,0.1c0.1,0,0.2,0,0.3-0.1
	c0.1-0.1,0.1-0.1,0.1-0.3c0-0.1,0-0.2-0.1-0.2C25.7,96.3,25.4,96.3,25.3,96.4"/>
<path class="st4" d="M22.3,91.1c-0.1,0.1-0.2,0.2-0.2,0.4c0,0.2,0.1,0.3,0.2,0.4c0.1,0.1,0.2,0.2,0.4,0.2c0.1,0,0.3-0.1,0.4-0.2
	c0.1-0.1,0.2-0.2,0.2-0.4c0-0.1-0.1-0.3-0.2-0.4C22.9,90.9,22.5,90.9,22.3,91.1"/>
<path class="st4" d="M22.6,85.7c0.1-0.1,0.2-0.2,0.2-0.4c0-0.2-0.1-0.3-0.2-0.4c-0.2-0.2-0.6-0.2-0.8,0c-0.1,0.1-0.2,0.2-0.2,0.4
	c0,0.2,0.1,0.3,0.2,0.4c0.1,0.1,0.2,0.2,0.4,0.2C22.3,85.9,22.5,85.8,22.6,85.7"/>
<path class="st4" d="M17.8,80.4c-0.1,0.1-0.1,0.2-0.1,0.3c0,0.1,0,0.3,0.1,0.4c0.1,0.1,0.2,0.1,0.3,0.1c0.1,0,0.3-0.1,0.4-0.1
	c0.1-0.1,0.1-0.2,0.1-0.4c0-0.1-0.1-0.2-0.1-0.3C18.3,80.2,17.9,80.2,17.8,80.4"/>
<path class="st4" d="M17.5,74.5c-0.1-0.1-0.3-0.1-0.4,0c-0.1,0-0.1,0.1-0.1,0.2c0,0.1,0,0.1,0.1,0.2c0,0.1,0.1,0.1,0.2,0.1
	s0.1,0,0.2-0.1c0,0,0.1-0.1,0.1-0.2C17.6,74.6,17.6,74.5,17.5,74.5"/>
<path class="st4" d="M11.9,69.8c-0.1,0.1-0.2,0.3-0.2,0.4c0,0.2,0.1,0.3,0.2,0.5c0.1,0.1,0.3,0.2,0.4,0.2c0.2,0,0.3-0.1,0.5-0.2
	c0.1-0.1,0.2-0.3,0.2-0.5c0-0.2-0.1-0.3-0.2-0.4C12.6,69.5,12.2,69.5,11.9,69.8"/>
<path class="st4" d="M12.8,63.4c-0.1,0.1-0.2,0.3-0.2,0.4c0,0.2,0.1,0.3,0.2,0.4c0.1,0.1,0.3,0.2,0.4,0.2c0.2,0,0.3-0.1,0.4-0.2
	c0.1-0.1,0.2-0.3,0.2-0.4c0-0.2-0.1-0.3-0.2-0.4C13.5,63.2,13,63.2,12.8,63.4"/>
<path class="st4" d="M12.2,57.5c-0.1,0.1-0.2,0.3-0.2,0.4c0,0.2,0.1,0.3,0.2,0.4c0.1,0.1,0.3,0.2,0.4,0.2c0.2,0,0.3-0.1,0.5-0.2
	c0.1-0.1,0.2-0.3,0.2-0.4c0-0.2-0.1-0.3-0.2-0.4C12.9,57.2,12.4,57.2,12.2,57.5"/>
<path class="st4" d="M10.3,52.5c-0.1,0.1-0.1,0.2-0.1,0.2c0,0.1,0,0.2,0.1,0.3c0.1,0.1,0.2,0.1,0.2,0.1s0.2,0,0.3-0.1
	c0.1-0.1,0.1-0.2,0.1-0.3c0-0.1,0-0.2-0.1-0.2C10.7,52.3,10.5,52.3,10.3,52.5"/>
<path class="st4" d="M11.7,46.8c0,0.2,0.1,0.3,0.2,0.4s0.2,0.2,0.4,0.2s0.3-0.1,0.4-0.2c0.1-0.1,0.2-0.2,0.2-0.4
	c0-0.2-0.1-0.3-0.2-0.4c-0.2-0.2-0.6-0.2-0.8,0C11.8,46.5,11.7,46.6,11.7,46.8"/>
<path class="st4" d="M10.4,40.6c-0.1,0.1-0.2,0.3-0.2,0.4c0,0.2,0.1,0.3,0.2,0.4c0.1,0.1,0.3,0.2,0.4,0.2c0.2,0,0.3-0.1,0.4-0.2
	c0.1-0.1,0.2-0.3,0.2-0.4c0-0.2-0.1-0.3-0.2-0.4C11,40.3,10.6,40.3,10.4,40.6"/>
<path class="st4" d="M67.7,107.5c-0.1,0.1-0.1,0.2-0.1,0.3c0,0.1,0,0.2,0.1,0.3c0.1,0.1,0.2,0.1,0.3,0.1c0.1,0,0.2,0,0.3-0.1
	c0.1-0.1,0.1-0.2,0.1-0.3c0-0.1,0-0.2-0.1-0.3C68.2,107.3,67.9,107.3,67.7,107.5"/>
<path class="st4" d="M62.1,105.8c-0.1,0.1-0.1,0.2-0.1,0.3c0,0.1,0.1,0.2,0.1,0.3c0.1,0.1,0.2,0.1,0.3,0.1c0.1,0,0.2-0.1,0.3-0.1
	c0.1-0.1,0.1-0.2,0.1-0.3c0-0.1-0.1-0.2-0.1-0.3C62.6,105.6,62.3,105.6,62.1,105.8"/>
<path class="st4" d="M56.7,102.9c-0.1,0.1-0.1,0.2-0.1,0.3c0,0.1,0.1,0.3,0.1,0.4c0.1,0.1,0.2,0.1,0.3,0.1c0.1,0,0.3-0.1,0.4-0.1
	c0.1-0.1,0.1-0.2,0.1-0.4c0-0.1-0.1-0.2-0.1-0.3C57.2,102.7,56.9,102.7,56.7,102.9"/>
<path class="st4" d="M50.8,102.3c-0.1,0.1-0.1,0.2-0.1,0.2c0,0.1,0,0.2,0.1,0.2c0.1,0.1,0.1,0.1,0.2,0.1c0.1,0,0.2,0,0.2-0.1
	c0.1-0.1,0.1-0.1,0.1-0.2c0-0.1,0-0.2-0.1-0.2C51.2,102.2,51,102.2,50.8,102.3"/>
<path class="st4" d="M47.3,97.3c-0.1,0.1-0.1,0.2-0.1,0.3c0,0.1,0,0.2,0.1,0.3c0.1,0.1,0.2,0.1,0.3,0.1c0.1,0,0.2,0,0.3-0.1
	c0.1-0.1,0.1-0.2,0.1-0.3c0-0.1,0-0.2-0.1-0.3C47.7,97.1,47.5,97.1,47.3,97.3"/>
<path class="st4" d="M42.8,93.2c-0.1,0.1-0.2,0.2-0.2,0.4c0,0.2,0.1,0.3,0.2,0.4s0.2,0.2,0.4,0.2s0.3-0.1,0.4-0.2
	c0.1-0.1,0.2-0.2,0.2-0.4c0-0.2-0.1-0.3-0.2-0.4C43.4,93,43.1,93,42.8,93.2"/>
<path class="st4" d="M37.7,90.6c-0.1,0.1-0.1,0.1-0.1,0.2c0,0.1,0,0.2,0.1,0.2s0.1,0.1,0.2,0.1c0.1,0,0.2,0,0.2-0.1
	c0.1-0.1,0.1-0.1,0.1-0.2c0-0.1,0-0.2-0.1-0.2C38,90.5,37.8,90.5,37.7,90.6"/>
<path class="st4" d="M32.6,86.8c-0.1,0.1-0.1,0.2-0.1,0.3c0,0.1,0,0.2,0.1,0.3c0.1,0.1,0.2,0.1,0.3,0.1s0.2,0,0.3-0.1
	c0.1-0.1,0.1-0.2,0.1-0.3c0-0.1-0.1-0.2-0.1-0.3C33.1,86.6,32.8,86.6,32.6,86.8"/>
<path class="st4" d="M30.6,81.1c-0.1,0.1-0.1,0.2-0.1,0.3c0,0.1,0.1,0.3,0.1,0.3c0.1,0.1,0.2,0.1,0.3,0.1c0.1,0,0.3-0.1,0.3-0.1
	c0.1-0.1,0.1-0.2,0.1-0.3c0-0.1-0.1-0.2-0.1-0.3C31.1,80.9,30.8,80.9,30.6,81.1"/>
<path class="st4" d="M28.9,75.5c0,0.1-0.1,0.1-0.1,0.2s0,0.1,0.1,0.2c0.1,0.1,0.1,0.1,0.2,0.1c0.1,0,0.1,0,0.2-0.1
	c0,0,0.1-0.1,0.1-0.2s0-0.1-0.1-0.2C29.2,75.4,29,75.4,28.9,75.5"/>
<path class="st4" d="M24.3,71.4c-0.1,0.1-0.1,0.1-0.1,0.2c0,0.1,0,0.2,0.1,0.2c0.1,0.1,0.1,0.1,0.2,0.1c0.1,0,0.2,0,0.2-0.1
	c0.1-0.1,0.1-0.1,0.1-0.2c0-0.1,0-0.2-0.1-0.2C24.6,71.3,24.4,71.3,24.3,71.4"/>
<path class="st4" d="M22,66.7c0.2,0,0.3-0.1,0.4-0.2c0.1-0.1,0.2-0.2,0.2-0.4c0-0.2-0.1-0.3-0.2-0.4c-0.2-0.2-0.6-0.2-0.8,0
	c-0.1,0.1-0.2,0.3-0.2,0.4c0,0.2,0.1,0.3,0.2,0.4C21.8,66.7,21.9,66.7,22,66.7"/>
<path class="st4" d="M21.8,60.1c0-0.1,0-0.2-0.1-0.3c-0.2-0.2-0.5-0.2-0.6,0c-0.1,0.1-0.1,0.2-0.1,0.3c0,0.1,0,0.2,0.1,0.3
	c0.1,0.1,0.2,0.1,0.3,0.1c0.1,0,0.2,0,0.3-0.1C21.7,60.4,21.8,60.3,21.8,60.1"/>
<path class="st4" d="M21.1,59c0-0.1,0-0.1-0.1-0.2c-0.1-0.1-0.3-0.1-0.4,0c-0.1,0.1-0.1,0.1-0.1,0.2c0,0.1,0,0.2,0.1,0.2
	c0.1,0.1,0.1,0.1,0.2,0.1s0.2,0,0.2-0.1C21.1,59.2,21.1,59.1,21.1,59"/>
<path class="st4" d="M98.4,35.3c-0.1,0.1-0.1,0.2-0.1,0.3c0,0.1,0,0.2,0.1,0.3c0.1,0.1,0.2,0.1,0.3,0.1s0.2,0,0.3-0.1
	c0.1-0.1,0.1-0.2,0.1-0.3c0-0.1,0-0.2-0.1-0.3C98.9,35.1,98.6,35.1,98.4,35.3"/>
<path class="st4" d="M92.6,36.1c-0.1,0.1-0.1,0.2-0.1,0.3c0,0.1,0,0.3,0.1,0.3c0.1,0.1,0.2,0.1,0.3,0.1c0.1,0,0.3,0,0.3-0.1
	c0.1-0.1,0.1-0.2,0.1-0.3c0-0.1-0.1-0.2-0.1-0.3C93.1,35.9,92.8,35.9,92.6,36.1"/>
<path class="st4" d="M87,38c-0.1,0.1-0.1,0.1-0.1,0.2c0,0.1,0,0.2,0.1,0.2c0.1,0.1,0.1,0.1,0.2,0.1c0.1,0,0.2,0,0.2-0.1
	c0.1-0.1,0.1-0.1,0.1-0.2c0-0.1,0-0.2-0.1-0.2C87.3,37.9,87.1,37.9,87,38"/>
<path class="st4" d="M80.9,36.6c-0.1,0.1-0.1,0.2-0.1,0.3c0,0.1,0.1,0.2,0.1,0.3c0.1,0.1,0.2,0.1,0.3,0.1c0.1,0,0.2,0,0.3-0.1
	c0.1-0.1,0.1-0.2,0.1-0.3c0-0.1,0-0.2-0.1-0.3C81.4,36.4,81.1,36.4,80.9,36.6"/>
<path class="st4" d="M75,35c-0.1,0.1-0.2,0.2-0.2,0.4c0,0.2,0.1,0.3,0.2,0.4c0.1,0.1,0.2,0.2,0.4,0.2c0.1,0,0.3-0.1,0.4-0.2
	c0.1-0.1,0.2-0.2,0.2-0.4c0-0.1-0.1-0.3-0.2-0.4C75.6,34.8,75.2,34.8,75,35"/>
<path class="st4" d="M69.1,35.4c-0.1,0.1-0.2,0.3-0.2,0.4c0,0.2,0.1,0.3,0.2,0.4c0.1,0.1,0.3,0.2,0.4,0.2c0.2,0,0.3-0.1,0.4-0.2
	c0.1-0.1,0.2-0.2,0.2-0.4c0-0.2-0.1-0.3-0.2-0.4C69.7,35.2,69.3,35.2,69.1,35.4"/>
<path class="st4" d="M63.4,35.6c-0.1,0.1-0.1,0.2-0.1,0.2c0,0.1,0,0.2,0.1,0.3c0.1,0.1,0.2,0.1,0.2,0.1c0.1,0,0.2,0,0.3-0.1
	C64,36,64,35.9,64,35.8c0-0.1,0-0.2-0.1-0.2C63.8,35.4,63.6,35.4,63.4,35.6"/>
<path class="st4" d="M57.5,38.8c-0.1,0.1-0.2,0.2-0.2,0.4c0,0.2,0.1,0.3,0.2,0.4c0.1,0.1,0.2,0.2,0.4,0.2c0.2,0,0.3-0.1,0.4-0.2
	c0.1-0.1,0.2-0.2,0.2-0.4c0-0.1-0.1-0.3-0.2-0.4C58,38.6,57.7,38.6,57.5,38.8"/>
<path class="st4" d="M51.6,34.9c-0.1,0.1-0.2,0.2-0.2,0.4c0,0.2,0.1,0.3,0.2,0.4c0.1,0.1,0.2,0.2,0.4,0.2c0.1,0,0.3-0.1,0.4-0.2
	c0.1-0.1,0.2-0.2,0.2-0.4c0-0.1-0.1-0.3-0.2-0.4C52.1,34.7,51.8,34.7,51.6,34.9"/>
<path class="st4" d="M46.2,35.4c-0.1,0.1-0.1,0.1-0.1,0.2c0,0.1,0,0.2,0.1,0.2c0.1,0.1,0.1,0.1,0.2,0.1s0.2,0,0.2-0.1
	s0.1-0.1,0.1-0.2c0-0.1,0-0.1-0.1-0.2C46.5,35.3,46.3,35.3,46.2,35.4"/>
<path class="st4" d="M40.6,37.7c0.1-0.1,0.2-0.2,0.2-0.4c0-0.1-0.1-0.2-0.2-0.3c-0.2-0.2-0.5-0.2-0.7,0c-0.1,0.1-0.1,0.2-0.1,0.3
	c0,0.2,0.1,0.3,0.1,0.4c0.1,0.1,0.2,0.2,0.3,0.2C40.4,37.9,40.5,37.8,40.6,37.7"/>
<path class="st4" d="M34.3,34.3c-0.1,0.1-0.1,0.2-0.1,0.3c0,0.1,0.1,0.3,0.1,0.4c0.1,0.1,0.2,0.1,0.3,0.1c0.1,0,0.3,0,0.4-0.1
	c0.1-0.1,0.1-0.2,0.1-0.4c0-0.1-0.1-0.2-0.1-0.3C34.9,34.1,34.5,34.1,34.3,34.3"/>
<path class="st4" d="M29,35.4c0-0.1,0-0.2-0.1-0.2c-0.1-0.1-0.3-0.1-0.4,0c-0.1,0.1-0.1,0.1-0.1,0.2c0,0.1,0,0.2,0.1,0.2
	c0.1,0.1,0.1,0.1,0.2,0.1c0.1,0,0.2,0,0.2-0.1C29,35.6,29,35.5,29,35.4"/>
<path class="st4" d="M23.6,31.8c-0.2-0.2-0.5-0.2-0.7,0c-0.1,0.1-0.1,0.2-0.1,0.3c0,0.1,0.1,0.3,0.1,0.3c0.1,0.1,0.2,0.1,0.3,0.1
	c0.1,0,0.3-0.1,0.3-0.1c0.1-0.1,0.1-0.2,0.1-0.3C23.7,32,23.6,31.9,23.6,31.8"/>
<path class="st4" d="M17.6,31.7c0.1,0,0.3-0.1,0.4-0.1s0.1-0.2,0.1-0.4c0-0.1-0.1-0.3-0.1-0.3c-0.2-0.2-0.5-0.2-0.7,0
	c-0.1,0.1-0.1,0.2-0.1,0.3c0,0.1,0.1,0.3,0.1,0.4S17.5,31.7,17.6,31.7"/>
<path class="st4" d="M11,32.3c-0.1,0.1-0.1,0.1-0.1,0.2c0,0.1,0,0.2,0.1,0.2s0.1,0.1,0.2,0.1c0.1,0,0.2,0,0.2-0.1s0.1-0.1,0.1-0.2
	c0-0.1,0-0.2-0.1-0.2C11.3,32.2,11.1,32.2,11,32.3"/>
<path class="st4" d="M15,55.6c-0.1,0.1-0.1,0.2-0.1,0.3c0,0.1,0,0.2,0.1,0.3c0.1,0.1,0.2,0.1,0.3,0.1c0.1,0,0.2,0,0.3-0.1
	c0.1-0.1,0.1-0.2,0.1-0.3c0-0.1,0-0.2-0.1-0.3C15.4,55.5,15.2,55.5,15,55.6"/>
<path class="st4" d="M15.3,49.9c-0.1,0.1-0.1,0.1-0.1,0.2c0,0.1,0,0.2,0.1,0.2c0.1,0.1,0.1,0.1,0.2,0.1c0.1,0,0.2,0,0.2-0.1
	c0.1-0.1,0.1-0.1,0.1-0.2c0-0.1,0-0.2-0.1-0.2C15.6,49.8,15.4,49.8,15.3,49.9"/>
<path class="st4" d="M12.8,44.6c0.1-0.1,0.1-0.2,0.1-0.3c0-0.1,0-0.2-0.1-0.3c-0.1-0.1-0.4-0.1-0.5,0c-0.1,0.1-0.1,0.2-0.1,0.3
	c0,0.1,0,0.2,0.1,0.3c0.1,0.1,0.2,0.1,0.3,0.1C12.6,44.7,12.7,44.6,12.8,44.6"/>
<path class="st4" d="M15.1,38.4c-0.1,0.1-0.2,0.2-0.2,0.4c0,0.2,0.1,0.3,0.2,0.4c0.1,0.1,0.2,0.2,0.4,0.2c0.1,0,0.3-0.1,0.4-0.2
	c0.1-0.1,0.2-0.2,0.2-0.4c0-0.1-0.1-0.3-0.2-0.4C15.6,38.2,15.3,38.2,15.1,38.4"/>
<path class="st4" d="M101,46.3c-0.1,0.1-0.1,0.2-0.1,0.3c0,0.1,0,0.2,0.1,0.3c0.1,0.1,0.2,0.1,0.3,0.1c0.1,0,0.2,0,0.3-0.1
	c0.1-0.1,0.1-0.2,0.1-0.3c0-0.1,0-0.2-0.1-0.3C101.4,46.1,101.2,46.1,101,46.3"/>
<path class="st4" d="M95.2,44.6c-0.1,0.1-0.1,0.2-0.1,0.3c0,0.1,0,0.2,0.1,0.3s0.2,0.1,0.3,0.1s0.2,0,0.3-0.1
	c0.1-0.1,0.1-0.2,0.1-0.3c0-0.1,0-0.2-0.1-0.3C95.6,44.4,95.3,44.4,95.2,44.6"/>
<path class="st4" d="M89.3,43c-0.1,0.1-0.2,0.2-0.2,0.4c0,0.2,0.1,0.3,0.2,0.4c0.1,0.1,0.2,0.2,0.4,0.2c0.1,0,0.3-0.1,0.4-0.2
	c0.1-0.1,0.2-0.2,0.2-0.4c0-0.1-0.1-0.3-0.2-0.4C89.8,42.8,89.5,42.8,89.3,43"/>
<path class="st4" d="M83.3,46.5c-0.1,0.1-0.2,0.3-0.2,0.4c0,0.2,0.1,0.3,0.2,0.5c0.1,0.1,0.3,0.2,0.4,0.2c0.2,0,0.3-0.1,0.4-0.2
	c0.1-0.1,0.2-0.3,0.2-0.5c0-0.2-0.1-0.3-0.2-0.4C83.9,46.3,83.5,46.3,83.3,46.5"/>
<path class="st4" d="M77.6,43c-0.1,0.1-0.2,0.2-0.2,0.4c0,0.2,0.1,0.3,0.2,0.4c0.1,0.1,0.2,0.2,0.4,0.2c0.1,0,0.3-0.1,0.4-0.2
	c0.1-0.1,0.2-0.2,0.2-0.4c0-0.1-0.1-0.3-0.2-0.4C78.1,42.8,77.8,42.8,77.6,43"/>
<path class="st4" d="M71.7,42.5c-0.1,0.1-0.2,0.2-0.2,0.4c0,0.2,0.1,0.3,0.2,0.4c0.1,0.1,0.2,0.2,0.4,0.2c0.1,0,0.3-0.1,0.4-0.2
	c0.1-0.1,0.2-0.2,0.2-0.4c0-0.1-0.1-0.3-0.2-0.4C72.3,42.3,71.9,42.3,71.7,42.5"/>
<path class="st4" d="M65.9,46c-0.1,0.1-0.1,0.1-0.1,0.2c0,0.1,0,0.2,0.1,0.2c0.1,0.1,0.2,0.1,0.2,0.1c0.1,0,0.2,0,0.2-0.1
	c0.1-0.1,0.1-0.1,0.1-0.2c0-0.1,0-0.2-0.1-0.2C66.3,45.9,66.1,45.9,65.9,46"/>
<path class="st4" d="M60.1,41.7C60.1,41.8,60,41.9,60,42c0,0.1,0,0.2,0.1,0.3c0.1,0.1,0.2,0.1,0.3,0.1s0.2,0,0.3-0.1
	c0.1-0.1,0.1-0.2,0.1-0.3c0-0.1,0-0.2-0.1-0.3C60.5,41.6,60.3,41.6,60.1,41.7"/>
<path class="st4" d="M54.9,42.4c0.1-0.1,0.1-0.2,0.1-0.3c0-0.1-0.1-0.2-0.1-0.3c-0.2-0.2-0.5-0.2-0.7,0c-0.1,0.1-0.1,0.2-0.1,0.3
	c0,0.1,0.1,0.3,0.1,0.3c0.1,0.1,0.2,0.1,0.3,0.1S54.8,42.5,54.9,42.4"/>
<path class="st4" d="M49,42.4c0.1-0.1,0.1-0.1,0.1-0.2s0-0.1-0.1-0.2c-0.1-0.1-0.3-0.1-0.4,0c-0.1,0-0.1,0.1-0.1,0.2s0,0.1,0.1,0.2
	c0,0,0.1,0.1,0.2,0.1C48.9,42.5,48.9,42.5,49,42.4"/>
<path class="st4" d="M43.3,43.8c0.1-0.1,0.2-0.3,0.2-0.4c0-0.2-0.1-0.3-0.2-0.4c-0.2-0.2-0.6-0.2-0.9,0c-0.1,0.1-0.2,0.3-0.2,0.4
	c0,0.2,0.1,0.3,0.2,0.4s0.3,0.2,0.4,0.2C43,44,43.2,43.9,43.3,43.8"/>
<path class="st4" d="M37.5,43.6c0-0.1-0.1-0.3-0.1-0.3c-0.2-0.2-0.5-0.2-0.7,0c-0.1,0.1-0.1,0.2-0.1,0.3c0,0.1,0.1,0.3,0.1,0.4
	s0.2,0.1,0.3,0.1c0.1,0,0.3-0.1,0.4-0.1S37.5,43.8,37.5,43.6"/>
<path class="st4" d="M31.1,40C31,40.1,31,40.2,31,40.3c0,0.1,0,0.2,0.1,0.3c0.1,0.1,0.2,0.1,0.2,0.1c0.1,0,0.2,0,0.3-0.1
	c0.1-0.1,0.1-0.2,0.1-0.3c0-0.1,0-0.2-0.1-0.2C31.5,39.9,31.2,39.9,31.1,40"/>
<path class="st4" d="M25.4,40.9c0.1,0,0.2,0,0.2-0.1c0.1-0.1,0.1-0.1,0.1-0.2c0-0.1,0-0.2-0.1-0.2c-0.1-0.1-0.3-0.1-0.5,0
	c-0.1,0.1-0.1,0.1-0.1,0.2c0,0.1,0,0.2,0.1,0.2C25.3,40.8,25.4,40.9,25.4,40.9"/>
<path class="st4" d="M19,43.6c-0.1,0.1-0.1,0.2-0.1,0.3c0,0.1,0,0.2,0.1,0.3c0.1,0.1,0.2,0.1,0.3,0.1c0.1,0,0.2,0,0.3-0.1
	c0.1-0.1,0.1-0.2,0.1-0.3c0-0.1,0-0.2-0.1-0.3C19.5,43.4,19.2,43.4,19,43.6"/>
<path class="st4" d="M54.5,82.9c-0.1,0.1-0.1,0.1-0.1,0.2c0,0.1,0,0.2,0.1,0.2c0.1,0.1,0.2,0.1,0.2,0.1c0.1,0,0.2,0,0.3-0.1
	c0.1-0.1,0.1-0.1,0.1-0.2c0-0.1,0-0.2-0.1-0.2C54.8,82.8,54.6,82.8,54.5,82.9"/>
<path class="st4" d="M48.5,81.4c-0.1,0.1-0.2,0.3-0.2,0.4c0,0.2,0.1,0.3,0.2,0.5c0.1,0.1,0.3,0.2,0.4,0.2c0.2,0,0.3-0.1,0.4-0.2
	c0.1-0.1,0.2-0.3,0.2-0.5c0-0.2-0.1-0.3-0.2-0.4C49.2,81.2,48.8,81.2,48.5,81.4"/>
<path class="st4" d="M45.4,77.9c-0.1,0.1-0.1,0.2-0.1,0.3c0,0.1,0,0.2,0.1,0.3c0.1,0.1,0.2,0.1,0.3,0.1c0.1,0,0.2,0,0.3-0.1
	c0.1-0.1,0.1-0.2,0.1-0.3c0-0.1,0-0.2-0.1-0.3C45.8,77.7,45.5,77.7,45.4,77.9"/>
<path class="st4" d="M43,72.5c-0.1,0.1-0.1,0.1-0.1,0.2c0,0.1,0,0.2,0.1,0.2c0.1,0.1,0.1,0.1,0.2,0.1c0.1,0,0.2,0,0.2-0.1
	c0.1-0.1,0.1-0.1,0.1-0.2c0-0.1,0-0.2-0.1-0.2C43.3,72.4,43.1,72.4,43,72.5"/>
<path class="st4" d="M40.3,67.6c-0.1,0.1-0.2,0.2-0.2,0.4c0,0.2,0.1,0.3,0.2,0.4c0.1,0.1,0.2,0.2,0.3,0.2c0.1,0,0.3-0.1,0.4-0.2
	c0.1-0.1,0.1-0.2,0.1-0.4c0-0.1-0.1-0.3-0.1-0.4C40.8,67.4,40.5,67.4,40.3,67.6"/>
<path class="st4" d="M37.7,63.2c0-0.1,0-0.1-0.1-0.2c-0.1-0.1-0.3-0.1-0.4,0c-0.1,0-0.1,0.1-0.1,0.2c0,0.1,0,0.1,0.1,0.2
	s0.1,0.1,0.2,0.1s0.1,0,0.2-0.1C37.7,63.3,37.7,63.3,37.7,63.2"/>
<path class="st4" d="M35.9,57.1c-0.1,0.1-0.1,0.2-0.1,0.3c0,0.1,0,0.2,0.1,0.3c0.1,0.1,0.2,0.1,0.3,0.1c0.1,0,0.2,0,0.3-0.1
	c0.1-0.1,0.1-0.2,0.1-0.3c0-0.1,0-0.2-0.1-0.3C36.3,57,36,57,35.9,57.1"/>
<path class="st4" d="M35.9,52.8c0.1-0.1,0.1-0.2,0.1-0.3c0-0.1,0-0.2-0.1-0.3c-0.1-0.2-0.4-0.2-0.6,0c-0.1,0.1-0.1,0.2-0.1,0.3
	c0,0.1,0,0.2,0.1,0.3c0.1,0.1,0.2,0.1,0.3,0.1C35.7,52.9,35.8,52.9,35.9,52.8"/>
<path class="st4" d="M24.7,52.7c0-0.2-0.1-0.3-0.2-0.4c-0.2-0.2-0.6-0.2-0.8,0c-0.1,0.1-0.2,0.2-0.2,0.4c0,0.2,0.1,0.3,0.2,0.4
	c0.1,0.1,0.2,0.2,0.4,0.2c0.2,0,0.3-0.1,0.4-0.2C24.7,53,24.7,52.8,24.7,52.7"/>
<path class="st4" d="M21.1,48c0.1,0,0.2,0,0.3-0.1s0.1-0.2,0.1-0.3c0-0.1,0-0.2-0.1-0.3c-0.2-0.2-0.4-0.2-0.6,0
	c-0.1,0.1-0.1,0.2-0.1,0.3c0,0.1,0,0.2,0.1,0.3S21,48,21.1,48"/>
<path class="st4" d="M3.7,30.4c-0.1,0.1-0.1,0.1-0.1,0.2c0,0.1,0,0.2,0.1,0.2c0.1,0.1,0.1,0.1,0.2,0.1c0.1,0,0.2,0,0.2-0.1
	c0.1-0.1,0.1-0.1,0.1-0.2c0-0.1,0-0.1-0.1-0.2C4,30.3,3.9,30.3,3.7,30.4"/>
</svg>
