<svg xmlns="http://www.w3.org/2000/svg" xmlns:xlink="http://www.w3.org/1999/xlink" width="250" zoomAndPan="magnify" viewBox="0 0 187.5 187.499992" height="250" preserveAspectRatio="xMidYMid meet" version="1.0"><defs><clipPath id="dc3a34fa30"><path d="M 32.160156 123.550781 L 155.542969 123.550781 L 155.542969 147.796875 L 32.160156 147.796875 Z M 32.160156 123.550781 " clip-rule="nonzero"/></clipPath><clipPath id="b876609f39"><path d="M 29.132812 54.183594 L 158.503906 54.183594 L 158.503906 114.835938 L 29.132812 114.835938 Z M 29.132812 54.183594 " clip-rule="nonzero"/></clipPath><clipPath id="a74bafc8ed"><path d="M 68 39.199219 L 70 39.199219 L 70 44 L 68 44 Z M 68 39.199219 " clip-rule="nonzero"/></clipPath><clipPath id="f5d51a4eaf"><path d="M 68 39.199219 L 70 39.199219 L 70 40 L 68 40 Z M 68 39.199219 " clip-rule="nonzero"/></clipPath></defs><path fill="#48241e" d="M 32.328125 98.335938 C 32.328125 98.335938 32.117188 105.132812 35.300781 107.703125 C 39.652344 111.214844 50.394531 122.234375 94.984375 121.1875 C 139.574219 120.140625 152.457031 108.269531 154.207031 106.003906 C 155.792969 103.949219 155.257812 99.207031 155.257812 99.207031 C 155.257812 99.207031 138.121094 112.976562 94.929688 113.324219 C 51.886719 113.671875 33.027344 101.648438 32.328125 98.335938 " fill-opacity="1" fill-rule="nonzero"/><path fill="#a07d6b" d="M 32.324219 90.316406 C 32.324219 90.316406 31.105469 95.199219 32.328125 98.335938 C 33.550781 101.472656 47.75 113.8125 94.929688 113.324219 C 142.105469 112.839844 155.257812 99.207031 155.257812 99.207031 C 155.257812 99.207031 156.65625 96.765625 155.34375 92.933594 C 155.34375 92.933594 137.070312 106.328125 94.578125 106.527344 C 57.160156 106.703125 38.792969 100.078125 32.324219 90.316406 " fill-opacity="1" fill-rule="nonzero"/><path fill="#48241e" d="M 32.324219 86.308594 C 32.324219 86.308594 31.625 89.96875 32.324219 91.710938 C 33.027344 93.457031 42.121094 107.949219 94.578125 107.078125 C 147.039062 106.207031 155.34375 92.933594 155.34375 92.933594 C 155.34375 92.933594 155.953125 90.316406 155.34375 87.878906 C 155.34375 87.878906 140.660156 99.03125 93.84375 100.042969 C 45.09375 101.09375 32.324219 86.308594 32.324219 86.308594 " fill-opacity="1" fill-rule="nonzero"/><path fill="#a07d6b" d="M 32.324219 80.207031 C 32.324219 80.207031 31.449219 83.695312 32.324219 86.308594 C 33.203125 88.921875 49.277344 101.316406 95.273438 100.128906 C 141.265625 98.945312 155.34375 87.878906 155.34375 87.878906 C 155.34375 87.878906 156.304688 85.261719 155.34375 82.300781 C 155.34375 82.300781 130.574219 92.574219 93.851562 93.28125 C 57.132812 93.988281 32.324219 80.207031 32.324219 80.207031 " fill-opacity="1" fill-rule="nonzero"/><g clip-path="url(#dc3a34fa30)"><path fill="#48241e" d="M 32.328125 123.84375 C 32.328125 123.84375 32.117188 130.644531 35.300781 133.214844 C 39.652344 136.726562 50.480469 148.78125 95.070312 147.734375 C 139.660156 146.6875 152.457031 133.78125 154.207031 131.515625 C 155.792969 129.460938 155.257812 124.714844 155.257812 124.714844 C 155.257812 124.714844 138.085938 140.988281 94.898438 141.335938 C 51.855469 141.683594 33.027344 127.15625 32.328125 123.84375 " fill-opacity="1" fill-rule="nonzero"/></g><path fill="#a07d6b" d="M 32.324219 115.828125 C 32.324219 115.828125 31.105469 120.707031 32.328125 123.84375 C 33.550781 126.980469 47.71875 141.824219 94.898438 141.335938 C 142.074219 140.851562 155.257812 124.714844 155.257812 124.714844 C 155.257812 124.714844 156.65625 122.277344 155.34375 118.441406 C 155.34375 118.441406 137.070312 131.839844 94.578125 132.039062 C 57.160156 132.210938 38.792969 125.589844 32.324219 115.828125 " fill-opacity="1" fill-rule="nonzero"/><path fill="#48241e" d="M 32.324219 111.816406 C 32.324219 111.816406 31.625 115.476562 32.324219 117.222656 C 33.027344 118.964844 41.863281 135.449219 94.324219 134.578125 C 146.78125 133.707031 155.34375 118.441406 155.34375 118.441406 C 155.34375 118.441406 155.953125 115.828125 155.34375 113.386719 C 155.34375 113.386719 140.660156 124.539062 93.84375 125.550781 C 45.09375 126.605469 32.324219 111.816406 32.324219 111.816406 " fill-opacity="1" fill-rule="nonzero"/><path fill="#a07d6b" d="M 33.050781 103.917969 C 33.050781 103.917969 31.449219 109.203125 32.324219 111.816406 C 33.203125 114.433594 48.28125 129.011719 94.273438 127.828125 C 140.269531 126.640625 155.34375 113.386719 155.34375 113.386719 C 155.34375 113.386719 156.671875 107.984375 154.617188 105.320312 C 154.617188 105.320312 141.609375 120.777344 93.714844 120.726562 C 39.199219 120.667969 33.050781 103.917969 33.050781 103.917969 " fill-opacity="1" fill-rule="nonzero"/><path fill="#48241e" d="M 31.96875 73.585938 C 31.96875 73.585938 30.578125 77.246094 32.324219 80.207031 C 33.335938 81.921875 56.269531 93.597656 94.570312 93.265625 C 132.871094 92.933594 155.34375 82.300781 155.34375 82.300781 C 155.34375 82.300781 156.914062 77.589844 155.679688 75.148438 C 155.679688 75.148438 129.902344 86.308594 94.035156 86.308594 C 59.214844 86.308594 31.96875 73.585938 31.96875 73.585938 " fill-opacity="1" fill-rule="nonzero"/><path fill="#a07d6b" d="M 32.011719 68.355469 C 32.011719 68.355469 31.261719 71.492188 31.96875 73.585938 C 32.679688 75.675781 61.988281 88.578125 94.53125 87.007812 C 127.074219 85.441406 141.242188 80.546875 155.679688 75.148438 C 155.679688 75.148438 156.699219 72.367188 156.152344 69.226562 C 156.152344 69.226562 128.152344 80.207031 93.988281 81.078125 C 61.328125 81.914062 32.011719 68.355469 32.011719 68.355469 " fill-opacity="1" fill-rule="nonzero"/><path fill="#48241e" d="M 32.011719 65.394531 C 32.011719 65.394531 31.175781 66.613281 32.011719 68.355469 C 32.851562 70.101562 62.039062 82.511719 96.144531 81.011719 C 130.25 79.511719 156.152344 69.226562 156.152344 69.226562 C 156.152344 69.226562 157.050781 67.484375 156.152344 66.089844 C 155.257812 64.695312 133.152344 75.957031 96.152344 77.402344 C 60.25 78.804688 32.011719 65.394531 32.011719 65.394531 " fill-opacity="1" fill-rule="nonzero"/><path fill="#a07d6b" d="M 32.011719 59.292969 C 32.011719 59.292969 29.707031 63.476562 32.011719 65.394531 C 32.835938 66.074219 58.382812 79.128906 97.027344 77.402344 C 135.671875 75.675781 156.152344 66.089844 156.152344 66.089844 C 156.152344 66.089844 156.976562 63.476562 156.550781 61.210938 C 156.550781 61.210938 130.765625 71.585938 96.851562 72.367188 C 57.683594 73.265625 32.011719 59.292969 32.011719 59.292969 " fill-opacity="1" fill-rule="nonzero"/><path fill="#3a1712" d="M 94.097656 42.039062 C 94.097656 42.039062 53.660156 41.863281 37.574219 50.925781 C 37.574219 50.925781 33.613281 52.914062 31.949219 55.648438 C 30.183594 58.554688 31.011719 62.300781 41.945312 65.394531 C 63.078125 71.371094 96.675781 80.207031 152.824219 63.71875 C 153.851562 63.414062 154.816406 62.933594 155.628906 62.242188 C 157.601562 60.558594 159.375 57.203125 151.585938 52.496094 C 140.042969 45.523438 104.242188 42.121094 94.097656 42.039062 " fill-opacity="1" fill-rule="nonzero"/><g clip-path="url(#b876609f39)"><path fill="#3a1712" d="M 32.863281 54.441406 C 32.863281 54.441406 29.707031 56.503906 30.054688 62.605469 C 30.40625 68.707031 27.902344 76.027344 30.027344 76.546875 C 32.152344 77.070312 32.3125 68.878906 32.011719 65.394531 C 31.714844 61.90625 33.726562 62.828125 33.550781 65.503906 C 33.378906 68.183594 31.628906 91.363281 34.953125 92.234375 C 38.273438 93.105469 35.277344 67.886719 37.398438 66.265625 C 39.519531 64.640625 43.695312 66.789062 44.742188 69.226562 C 45.792969 71.667969 45.96875 80.382812 47.542969 86.484375 C 49.113281 92.582031 44.917969 96.242188 47.542969 98.507812 C 50.164062 100.777344 51.214844 85.785156 49.988281 82.476562 C 48.765625 79.164062 49.816406 74.109375 51.914062 75.328125 C 54.011719 76.546875 50.863281 88.75 53.136719 89.621094 C 55.410156 90.492188 51.625 73.5625 59.257812 72.367188 C 66.890625 71.167969 66.078125 69.75 70.097656 75.328125 C 74.121094 80.90625 70.625 89.621094 72.546875 89.621094 C 74.46875 89.621094 72.195312 75.503906 75.167969 74.804688 C 78.140625 74.109375 80.636719 72.457031 85.535156 78.6875 C 90.429688 84.921875 82.691406 113.339844 90.507812 114 C 93.550781 114.253906 94.144531 106.003906 94.273438 97.988281 C 94.402344 89.96875 93.792969 81.316406 97.988281 82.363281 C 102.183594 83.410156 100.320312 97.257812 104.449219 94.257812 C 109.300781 90.730469 105.5625 69.867188 115.179688 71.3125 C 124.796875 72.761719 114.960938 105.175781 123.355469 112.148438 C 131.746094 119.121094 122.730469 90.839844 124.128906 83.171875 C 125.527344 75.503906 124.480469 71.667969 130.074219 71.320312 C 135.671875 70.972656 137.945312 71.492188 138.292969 77.070312 C 138.644531 82.648438 137.269531 113.285156 140.4375 114.503906 C 143.605469 115.726562 146.28125 111.121094 144.871094 103.917969 C 144.136719 100.167969 142.425781 80.175781 144.347656 77.558594 C 146.273438 74.945312 146.695312 72.851562 147.039062 69.054688 C 147.382812 65.257812 149.484375 63.824219 150.882812 66.441406 C 152.28125 69.054688 150.710938 89.183594 153.507812 89.011719 C 156.304688 88.835938 158.105469 81.710938 155.082031 73.183594 C 154.054688 70.289062 152.28125 63.648438 154.207031 64.347656 C 156.128906 65.042969 154.835938 73.761719 157.320312 71.144531 C 159.800781 68.53125 157.667969 65.324219 157.320312 62.953125 C 156.96875 60.582031 157.320312 58.503906 157.320312 58.503906 L 32.863281 54.441406 " fill-opacity="1" fill-rule="nonzero"/></g><path fill="#5e342e" d="M 93.203125 44.304688 C 93.203125 44.304688 54.632812 44.164062 39.289062 51.347656 C 39.289062 51.347656 35.511719 52.921875 33.925781 55.089844 C 32.238281 57.390625 33.027344 60.359375 43.457031 62.8125 C 63.617188 67.546875 95.664062 74.550781 149.21875 61.484375 C 150.199219 61.246094 151.121094 60.863281 151.894531 60.3125 C 153.777344 58.980469 155.464844 56.320312 148.035156 52.589844 C 137.027344 47.066406 102.878906 44.367188 93.203125 44.304688 " fill-opacity="1" fill-rule="nonzero"/><path fill="#48241e" d="M 93.679688 45.609375 C 93.679688 45.609375 58.644531 45.496094 44.703125 51.40625 C 44.703125 51.40625 41.273438 52.703125 39.832031 54.484375 C 38.300781 56.378906 39.015625 58.820312 48.492188 60.839844 C 66.804688 64.734375 95.917969 70.496094 144.566406 59.746094 C 145.457031 59.550781 146.292969 59.234375 146.996094 58.785156 C 148.707031 57.683594 150.242188 55.496094 143.492188 52.429688 C 133.492188 47.882812 102.46875 45.664062 93.679688 45.609375 " fill-opacity="1" fill-rule="nonzero"/><path fill="#5e342e" d="M 29.855469 67.71875 C 29.855469 67.71875 28.121094 76.375 30.027344 76.546875 C 31.933594 76.722656 29.855469 67.71875 29.855469 67.71875 " fill-opacity="1" fill-rule="nonzero"/><path fill="#5e342e" d="M 34.164062 68.984375 C 34.164062 68.984375 32.199219 86.394531 34.164062 90.316406 C 36.132812 94.238281 34.164062 68.984375 34.164062 68.984375 " fill-opacity="1" fill-rule="nonzero"/><path fill="#5e342e" d="M 45.574219 66.527344 C 45.574219 66.527344 47.277344 69.117188 47.542969 72.136719 C 47.804688 75.152344 49.113281 72.253906 50.949219 72.136719 C 52.785156 72.015625 53.050781 73.558594 54.492188 72.136719 C 55.933594 70.710938 60.523438 70.394531 57.769531 68.984375 C 55.015625 67.570312 42.953125 64.042969 45.574219 66.527344 " fill-opacity="1" fill-rule="nonzero"/><path fill="#5e342e" d="M 66.414062 71.398438 C 66.414062 71.398438 71.660156 75.800781 71.898438 79.855469 C 72.132812 83.914062 74.664062 70.125 66.414062 71.398438 " fill-opacity="1" fill-rule="nonzero"/><path fill="#5e342e" d="M 47.539062 92.378906 C 47.539062 92.378906 45.441406 98.859375 47.542969 98.507812 C 49.640625 98.160156 47.539062 92.378906 47.539062 92.378906 " fill-opacity="1" fill-rule="nonzero"/><path fill="#5e342e" d="M 91.953125 100.941406 C 91.953125 100.941406 89.855469 109.511719 91.953125 109.050781 C 94.050781 108.589844 91.953125 100.941406 91.953125 100.941406 " fill-opacity="1" fill-rule="nonzero"/><path fill="#5e342e" d="M 137.941406 68.214844 C 137.503906 67.582031 137.824219 66.707031 138.566406 66.492188 C 139.832031 66.132812 141.46875 65.777344 142.621094 65.917969 C 144.765625 66.179688 145.410156 66.675781 144.851562 68.980469 C 143.953125 72.671875 142.117188 75.960938 140.65625 74.109375 C 139.894531 73.144531 139.808594 70.921875 137.941406 68.214844 " fill-opacity="1" fill-rule="nonzero"/><path fill="#5e342e" d="M 153.507812 75.796875 C 153.636719 76.191406 156.113281 87.425781 153.996094 87.699219 C 151.882812 87.96875 153.507812 75.796875 153.507812 75.796875 " fill-opacity="1" fill-rule="nonzero"/><path fill="#5e342e" d="M 157.320312 65.664062 C 157.320312 65.664062 159.085938 71.183594 157.320312 70.085938 C 155.554688 68.984375 157.320312 65.664062 157.320312 65.664062 " fill-opacity="1" fill-rule="nonzero"/><path fill="#5e342e" d="M 90.292969 74.53125 C 90.292969 74.53125 84.261719 71.347656 88.722656 71.558594 C 93.179688 71.769531 108.132812 70.070312 107.210938 71.558594 C 106.296875 73.046875 93.832031 77.992188 90.292969 74.53125 " fill-opacity="1" fill-rule="nonzero"/><path fill="#5e342e" d="M 125.832031 73.640625 C 125.832031 73.640625 122.242188 88.578125 125.832031 103.878906 C 128.492188 115.210938 124.035156 110.953125 123.367188 106.453125 C 122.90625 103.339844 121.898438 84.671875 125.832031 73.640625 " fill-opacity="1" fill-rule="nonzero"/><path fill="#5e342e" d="M 94.808594 48.214844 C 94.808594 48.214844 63.753906 48.136719 51.398438 52.222656 C 51.398438 52.222656 48.359375 53.121094 47.082031 54.351562 C 45.722656 55.660156 46.359375 57.351562 54.757812 58.746094 C 70.988281 61.4375 96.792969 65.421875 139.914062 57.988281 C 140.703125 57.851562 141.441406 57.636719 142.066406 57.324219 C 143.582031 56.5625 144.941406 55.050781 138.960938 52.929688 C 130.097656 49.789062 102.601562 48.253906 94.808594 48.214844 " fill-opacity="1" fill-rule="nonzero"/><path fill="#48241e" d="M 92.476562 50.273438 C 92.476562 50.273438 68.882812 50.226562 59.492188 52.6875 C 59.492188 52.6875 57.183594 53.226562 56.210938 53.96875 C 55.179688 54.757812 55.664062 55.777344 62.046875 56.617188 C 74.378906 58.242188 93.984375 60.640625 126.75 56.160156 C 127.347656 56.082031 127.914062 55.949219 128.386719 55.761719 C 129.539062 55.304688 130.570312 54.390625 126.027344 53.113281 C 119.292969 51.21875 98.398438 50.292969 92.476562 50.273438 " fill-opacity="1" fill-rule="nonzero"/><path fill="#3a1712" d="M 51.847656 55.992188 C 51.847656 55.992188 44.625 56.871094 47.03125 58.746094 C 49.433594 60.625 58.519531 61.398438 61.078125 59.535156 C 62.945312 58.175781 51.847656 55.992188 51.847656 55.992188 " fill-opacity="1" fill-rule="nonzero"/><path fill="#3a1712" d="M 71.203125 52.425781 C 70.691406 52.253906 59.476562 56.472656 67.894531 58.359375 C 76.3125 60.246094 80.554688 59.425781 78.640625 56.277344 C 76.722656 53.132812 71.203125 52.425781 71.203125 52.425781 " fill-opacity="1" fill-rule="nonzero"/><path fill="#3a1712" d="M 87.886719 57.460938 C 87.886719 57.460938 78.546875 58.605469 84.636719 60.601562 C 90.730469 62.597656 99.464844 63.730469 100.992188 61.320312 C 102.515625 58.90625 87.886719 57.460938 87.886719 57.460938 " fill-opacity="1" fill-rule="nonzero"/><path fill="#3a1712" d="M 104.449219 53.070312 C 104.449219 53.070312 100.058594 52.789062 102.859375 55.539062 C 105.664062 58.285156 111.691406 59.390625 112.996094 56.824219 C 114.292969 54.253906 113.691406 52.757812 104.449219 53.070312 " fill-opacity="1" fill-rule="nonzero"/><path fill="#3a1712" d="M 128.277344 54.585938 C 128.277344 54.585938 120.292969 55.863281 124.34375 56.699219 C 128.398438 57.535156 138.574219 58.453125 137.390625 55.640625 C 136.210938 52.828125 128.277344 54.585938 128.277344 54.585938 " fill-opacity="1" fill-rule="nonzero"/><path fill="#9e0404" d="M 69.015625 44.339844 C 69.015625 44.339844 64.097656 43.554688 63.902344 49.371094 C 63.703125 55.1875 74.917969 59.828125 77.082031 59.238281 C 79.246094 58.652344 78.523438 51.789062 78.523438 49.632812 C 78.523438 47.476562 76.285156 41.179688 70.65625 43.488281 C 70.65625 43.488281 69.921875 44.363281 69.015625 44.339844 " fill-opacity="1" fill-rule="nonzero"/><path fill="#d40016" d="M 69.101562 44.597656 C 69.101562 44.597656 64.371094 43.84375 64.183594 49.4375 C 63.992188 55.035156 74.777344 59.496094 76.859375 58.933594 C 78.941406 58.367188 78.25 51.765625 78.25 49.6875 C 78.25 47.613281 76.089844 41.558594 70.679688 43.777344 C 70.679688 43.777344 69.972656 44.621094 69.101562 44.597656 " fill-opacity="1" fill-rule="nonzero"/><path fill="#fd5e68" d="M 70.65625 43.488281 C 70.65625 43.488281 69.777344 44.601562 67.828125 44.339844 C 67.828125 44.339844 66.75 48.417969 73.101562 54.421875 C 73.734375 55.019531 74.347656 55.644531 74.949219 56.277344 C 75.398438 56.75 76.007812 57.019531 76.046875 55.058594 C 76.148438 50.03125 72.347656 43.03125 70.65625 43.488281 " fill-opacity="1" fill-rule="nonzero"/><path fill="#bf2434" d="M 68.636719 45.710938 C 68.636719 45.710938 69.816406 45.710938 70.339844 46.5625 C 70.863281 47.410156 75.195312 55.644531 75.195312 55.644531 C 75.195312 55.644531 68.832031 48.523438 68.636719 45.710938 " fill-opacity="1" fill-rule="nonzero"/><path fill="#bf2434" d="M 70.734375 46.234375 C 70.734375 46.234375 70.589844 45.488281 71.269531 44.796875 C 71.949219 44.105469 75.453125 51.789062 75.585938 55.125 C 75.585938 55.125 70.679688 46.863281 70.734375 46.234375 " fill-opacity="1" fill-rule="nonzero"/><path fill="#ed988a" d="M 69.019531 49.339844 C 69.019531 49.339844 66.5 46.167969 67.828125 44.339844 C 67.828125 44.339844 69.59375 44.535156 70.65625 43.488281 C 70.65625 43.488281 72.503906 43.015625 74.570312 48.414062 C 74.570312 48.414062 72.78125 45.019531 71.4375 44.507812 C 71.046875 44.359375 70.832031 44.726562 70.699219 45.121094 C 70.515625 45.664062 70.703125 46.699219 71.003906 47.257812 C 71.003906 47.257812 69.992188 45.320312 68.636719 45.320312 C 67.441406 45.320312 69.019531 49.339844 69.019531 49.339844 " fill-opacity="1" fill-rule="nonzero"/><g clip-path="url(#a74bafc8ed)"><path fill="#415f18" d="M 69.027344 43.941406 C 69.027344 43.769531 67.542969 40.851562 68.636719 39.457031 C 68.636719 39.457031 69.597656 39.328125 69.464844 39.71875 C 69.335938 40.109375 67.644531 39.914062 69.476562 43.746094 L 69.027344 43.941406 " fill-opacity="1" fill-rule="nonzero"/></g><path fill="#5f8e25" d="M 69.488281 44.75 C 69.488281 44.75 67.960938 44.671875 67.792969 45.710938 C 67.792969 45.710938 64.832031 45.382812 64.832031 44.46875 C 64.832031 43.554688 65.292969 41.199219 66.40625 42.246094 C 67.519531 43.292969 66.601562 43.488281 66.601562 43.847656 C 66.601562 44.207031 67.914062 44.1875 68.175781 43.476562 C 68.4375 42.769531 68.714844 42.484375 69.683594 42.988281 C 70.65625 43.488281 71.566406 43.03125 71.902344 42.246094 C 72.242188 41.460938 74.402344 41.636719 74.570312 43.476562 C 74.734375 45.320312 74.734375 45.320312 74.734375 45.320312 C 74.734375 45.320312 72.964844 44.878906 72.765625 43.757812 C 72.570312 42.640625 71.917969 43.90625 69.488281 44.75 " fill-opacity="1" fill-rule="nonzero"/><path fill="#b5dc8c" d="M 65.480469 42.175781 C 65.480469 42.175781 63.902344 44.382812 65.480469 45.144531 L 67.792969 45.710938 C 67.792969 45.710938 63.96875 44.980469 65.480469 42.175781 " fill-opacity="1" fill-rule="nonzero"/><path fill="#b5dc8c" d="M 69.027344 42.988281 C 69.027344 42.988281 71.757812 44.050781 70.71875 44.226562 C 69.683594 44.402344 69.027344 42.988281 69.027344 42.988281 " fill-opacity="1" fill-rule="nonzero"/><path fill="#b5dc8c" d="M 72.832031 42.175781 C 72.832031 42.175781 71.859375 44.332031 74.734375 45.320312 C 74.734375 45.320312 72.964844 43.933594 72.832031 42.175781 " fill-opacity="1" fill-rule="nonzero"/><path fill="#e22133" d="M 71.269531 57.019531 C 71.269531 57.019531 70.339844 56.59375 69.179688 55.800781 C 69.796875 56.207031 70.492188 56.613281 71.269531 57.019531 M 69.179688 55.800781 C 61.300781 50.636719 65.792969 45.710938 65.792969 45.710938 C 62.867188 50.449219 66.59375 54.035156 69.179688 55.800781 " fill-opacity="1" fill-rule="nonzero"/><path fill="#e92f3f" d="M 77.816406 56.617188 C 77.816406 56.617188 78.519531 49.304688 76.046875 44.949219 C 76.046875 44.949219 78.910156 47.328125 77.816406 56.617188 " fill-opacity="1" fill-rule="nonzero"/><g clip-path="url(#f5d51a4eaf)"><path fill="#5f8e25" d="M 68.722656 39.660156 C 68.683594 39.628906 68.699219 39.570312 68.75 39.5625 C 68.996094 39.53125 69.542969 39.476562 69.292969 39.691406 C 69.074219 39.878906 68.84375 39.753906 68.722656 39.660156 " fill-opacity="1" fill-rule="nonzero"/></g><path fill="#3a1712" d="M 118.246094 60.507812 C 118.488281 60.425781 127.558594 61.15625 119.804688 63.304688 C 115.890625 64.386719 113.839844 63.804688 114.746094 62.324219 C 115.648438 60.839844 118.246094 60.507812 118.246094 60.507812 " fill-opacity="1" fill-rule="nonzero"/><path fill="#9e0404" d="M 119.277344 56.699219 C 119.277344 56.699219 121.59375 56.328125 121.6875 59.070312 C 121.78125 61.808594 116.496094 63.996094 115.476562 63.71875 C 114.457031 63.441406 114.796875 60.207031 114.796875 59.191406 C 114.796875 58.175781 115.855469 55.210938 118.507812 56.296875 C 118.507812 56.296875 118.851562 56.710938 119.277344 56.699219 " fill-opacity="1" fill-rule="nonzero"/><path fill="#d40016" d="M 119.238281 56.820312 C 119.238281 56.820312 121.464844 56.464844 121.554688 59.101562 C 121.644531 61.738281 116.5625 63.839844 115.582031 63.574219 C 114.601562 63.308594 114.929688 60.195312 114.929688 59.21875 C 114.929688 58.242188 115.945312 55.390625 118.496094 56.433594 C 118.496094 56.433594 118.828125 56.832031 119.238281 56.820312 " fill-opacity="1" fill-rule="nonzero"/><path fill="#fd5e68" d="M 118.507812 56.296875 C 118.507812 56.296875 118.917969 56.820312 119.835938 56.699219 C 119.835938 56.699219 120.34375 58.621094 117.355469 61.445312 C 117.054688 61.730469 116.765625 62.023438 116.484375 62.324219 C 116.273438 62.546875 115.984375 62.671875 115.964844 61.75 C 115.917969 59.382812 117.707031 56.082031 118.507812 56.296875 " fill-opacity="1" fill-rule="nonzero"/><path fill="#bf2434" d="M 119.457031 57.34375 C 119.457031 57.34375 118.902344 57.34375 118.65625 57.746094 C 118.40625 58.144531 116.367188 62.027344 116.367188 62.027344 C 116.367188 62.027344 119.363281 58.667969 119.457031 57.34375 " fill-opacity="1" fill-rule="nonzero"/><path fill="#bf2434" d="M 118.46875 57.589844 C 118.46875 57.589844 118.539062 57.238281 118.21875 56.914062 C 117.898438 56.589844 116.246094 60.207031 116.183594 61.777344 C 116.183594 61.777344 118.492188 57.886719 118.46875 57.589844 " fill-opacity="1" fill-rule="nonzero"/><path fill="#ed988a" d="M 119.277344 59.054688 C 119.277344 59.054688 120.460938 57.5625 119.835938 56.699219 C 119.835938 56.699219 119.007812 56.789062 118.507812 56.296875 C 118.507812 56.296875 117.636719 56.074219 116.664062 58.617188 C 116.664062 58.617188 117.503906 57.019531 118.136719 56.777344 C 118.320312 56.707031 118.421875 56.882812 118.484375 57.066406 C 118.570312 57.324219 118.484375 57.8125 118.339844 58.074219 C 118.339844 58.074219 118.820312 57.160156 119.457031 57.160156 C 120.019531 57.160156 119.277344 59.054688 119.277344 59.054688 " fill-opacity="1" fill-rule="nonzero"/><path fill="#415f18" d="M 119.273438 56.511719 C 119.273438 56.429688 119.972656 55.054688 119.457031 54.398438 C 119.457031 54.398438 119.003906 54.335938 119.066406 54.523438 C 119.128906 54.707031 119.921875 54.613281 119.058594 56.421875 L 119.273438 56.511719 " fill-opacity="1" fill-rule="nonzero"/><path fill="#5f8e25" d="M 119.054688 56.894531 C 119.054688 56.894531 119.773438 56.855469 119.851562 57.34375 C 119.851562 57.34375 121.246094 57.191406 121.246094 56.757812 C 121.246094 56.328125 121.03125 55.21875 120.507812 55.710938 C 119.980469 56.207031 120.414062 56.296875 120.414062 56.46875 C 120.414062 56.636719 119.796875 56.628906 119.671875 56.292969 C 119.550781 55.960938 119.421875 55.824219 118.964844 56.0625 C 118.507812 56.296875 118.078125 56.082031 117.917969 55.710938 C 117.757812 55.34375 116.738281 55.425781 116.664062 56.292969 C 116.585938 57.160156 116.585938 57.160156 116.585938 57.160156 C 116.585938 57.160156 117.417969 56.953125 117.511719 56.425781 C 117.605469 55.898438 117.910156 56.496094 119.054688 56.894531 " fill-opacity="1" fill-rule="nonzero"/><path fill="#b5dc8c" d="M 120.941406 55.679688 C 120.941406 55.679688 121.6875 56.71875 120.941406 57.078125 L 119.851562 57.34375 C 119.851562 57.34375 121.65625 57 120.941406 55.679688 " fill-opacity="1" fill-rule="nonzero"/><path fill="#b5dc8c" d="M 119.273438 56.0625 C 119.273438 56.0625 117.984375 56.5625 118.472656 56.644531 C 118.964844 56.730469 119.273438 56.0625 119.273438 56.0625 " fill-opacity="1" fill-rule="nonzero"/><path fill="#b5dc8c" d="M 117.480469 55.679688 C 117.480469 55.679688 117.9375 56.695312 116.585938 57.160156 C 116.585938 57.160156 117.417969 56.507812 117.480469 55.679688 " fill-opacity="1" fill-rule="nonzero"/><path fill="#e22133" d="M 118.21875 62.671875 C 118.582031 62.480469 118.910156 62.289062 119.199219 62.097656 C 118.65625 62.472656 118.21875 62.671875 118.21875 62.671875 M 119.199219 62.097656 C 120.417969 61.265625 122.175781 59.578125 120.796875 57.34375 C 120.796875 57.34375 122.910156 59.664062 119.199219 62.097656 " fill-opacity="1" fill-rule="nonzero"/><path fill="#e92f3f" d="M 115.132812 62.484375 C 114.617188 58.105469 115.964844 56.984375 115.964844 56.984375 C 114.800781 59.039062 115.132812 62.484375 115.132812 62.484375 " fill-opacity="1" fill-rule="nonzero"/><path fill="#5f8e25" d="M 119.414062 54.496094 L 119.402344 54.449219 C 119.289062 54.433594 119.03125 54.410156 119.148438 54.507812 C 119.25 54.597656 119.359375 54.539062 119.414062 54.496094 " fill-opacity="1" fill-rule="nonzero"/><path fill="#9e0404" d="M 87.652344 52.753906 C 87.652344 52.753906 83.015625 54.515625 85.246094 58.992188 C 87.480469 63.46875 99.234375 61.597656 100.886719 60.121094 C 102.542969 58.640625 99.074219 53.816406 98.183594 52.191406 C 97.289062 50.570312 92.722656 46.898438 88.738281 51.332031 C 88.738281 51.332031 88.457031 52.339844 87.652344 52.753906 " fill-opacity="1" fill-rule="nonzero"/><path fill="#d40016" d="M 87.835938 52.910156 C 87.835938 52.910156 83.371094 54.605469 85.519531 58.910156 C 87.667969 63.214844 98.976562 61.414062 100.566406 59.992188 C 102.160156 58.570312 98.820312 53.929688 97.964844 52.367188 C 97.105469 50.804688 92.710938 47.277344 88.878906 51.539062 C 88.878906 51.539062 88.609375 52.507812 87.835938 52.910156 " fill-opacity="1" fill-rule="nonzero"/><path fill="#fd5e68" d="M 88.738281 51.332031 C 88.738281 51.332031 88.429688 52.585938 86.613281 53.320312 C 86.613281 53.320312 87.351562 56.910156 95.402344 58.394531 C 96.210938 58.542969 97.003906 58.71875 97.792969 58.910156 C 98.382812 59.050781 99.027344 58.960938 98.25 57.464844 C 96.261719 53.632812 90.035156 50.175781 88.738281 51.332031 " fill-opacity="1" fill-rule="nonzero"/><path fill="#bf2434" d="M 87.886719 53.96875 C 87.886719 53.96875 88.921875 53.40625 89.734375 53.792969 C 90.542969 54.183594 97.746094 58.316406 97.746094 58.316406 C 97.746094 58.316406 89.21875 55.992188 87.886719 53.96875 " fill-opacity="1" fill-rule="nonzero"/><path fill="#bf2434" d="M 89.945312 53.359375 C 89.945312 53.359375 89.507812 52.867188 89.816406 52.023438 C 90.128906 51.175781 96.382812 55.285156 97.875 57.734375 C 97.875 57.734375 90.15625 53.859375 89.945312 53.359375 " fill-opacity="1" fill-rule="nonzero"/><path fill="#ed988a" d="M 89.722656 56.519531 C 89.722656 56.519531 86.199219 55.335938 86.613281 53.320312 C 86.613281 53.320312 88.238281 52.625 88.738281 51.332031 C 88.738281 51.332031 90.164062 50.089844 94.210938 53.167969 C 94.210938 53.167969 91.234375 51.464844 89.847656 51.722656 C 89.445312 51.796875 89.40625 52.179688 89.453125 52.539062 C 89.515625 53.035156 90.109375 53.726562 90.605469 54 C 90.605469 54 88.914062 53.027344 87.722656 53.675781 C 86.675781 54.246094 89.722656 56.519531 89.722656 56.519531 " fill-opacity="1" fill-rule="nonzero"/><path fill="#415f18" d="M 87.5 52.453125 C 87.429688 52.320312 84.917969 50.835938 85.300781 49.261719 C 85.300781 49.261719 86.089844 48.703125 86.136719 49.0625 C 86.183594 49.417969 84.621094 50.078125 87.8125 52.089844 L 87.5 52.453125 " fill-opacity="1" fill-rule="nonzero"/><path fill="#5f8e25" d="M 88.03125 52.957031 C 87.773438 53.113281 87.351562 53.421875 87.183594 53.808594 C 86.988281 54.253906 86.609375 54.59375 86.144531 54.746094 C 85.324219 55.015625 84.261719 55.265625 84.035156 54.855469 C 83.660156 54.167969 83.117188 52.808594 84.496094 52.429688 C 84.945312 52.304688 82.9375 54.289062 85.378906 54.128906 C 85.6875 54.109375 86.625 53.167969 86.5625 52.507812 C 86.496094 51.847656 86.621094 51.503906 87.679688 51.417969 C 88.738281 51.332031 89.347656 50.550781 89.320312 49.796875 C 89.292969 49.046875 91.261719 48.144531 92.167969 49.449219 C 93.074219 50.757812 93.074219 50.757812 93.074219 50.757812 C 93.074219 50.757812 91.339844 51.273438 90.703125 50.523438 C 90.097656 49.808594 90.023438 50.929688 88.472656 52.597656 C 88.339844 52.738281 88.191406 52.855469 88.03125 52.957031 " fill-opacity="1" fill-rule="nonzero"/><path fill="#b5dc8c" d="M 83.972656 52.957031 C 83.972656 52.957031 83.183594 55.234375 84.886719 55.054688 L 87.148438 54.375 C 87.148438 54.375 83.800781 55.792969 83.972656 52.957031 " fill-opacity="1" fill-rule="nonzero"/><path fill="#b5dc8c" d="M 87.105469 51.730469 C 87.105469 51.730469 89.9375 51.226562 89.101562 51.855469 C 88.265625 52.484375 87.105469 51.730469 87.105469 51.730469 " fill-opacity="1" fill-rule="nonzero"/><path fill="#b5dc8c" d="M 90.105469 49.300781 C 90.105469 49.300781 90.144531 51.390625 93.074219 50.757812 C 93.074219 50.757812 90.949219 50.5625 90.105469 49.300781 " fill-opacity="1" fill-rule="nonzero"/><path fill="#e22133" d="M 93.082031 61.320312 C 92.90625 61.320312 92.722656 61.316406 92.53125 61.308594 C 92.625 61.3125 92.722656 61.3125 92.816406 61.3125 C 93.449219 61.3125 94.132812 61.285156 94.871094 61.226562 C 94.871094 61.226562 94.140625 61.320312 93.082031 61.320312 M 92.53125 61.308594 C 83.488281 61.1875 85.394531 55.328125 85.394531 55.328125 C 84.785156 60.300781 89.535156 61.21875 92.53125 61.308594 " fill-opacity="1" fill-rule="nonzero"/><path fill="#e92f3f" d="M 100.449219 57.792969 C 100.449219 57.792969 98.042969 51.949219 94.074219 49.851562 C 94.074219 49.851562 97.566406 50.273438 100.449219 57.792969 " fill-opacity="1" fill-rule="nonzero"/><path fill="#5f8e25" d="M 85.460938 49.371094 C 85.414062 49.367188 85.40625 49.316406 85.445312 49.289062 C 85.648438 49.144531 86.105469 48.84375 85.972656 49.125 C 85.855469 49.371094 85.605469 49.386719 85.460938 49.371094 " fill-opacity="1" fill-rule="nonzero"/><path fill="#415f18" d="M 87.679688 51.417969 C 87.679688 51.417969 88.707031 51.121094 88.148438 49.988281 C 88.148438 49.988281 87.726562 49.515625 87.414062 50.003906 C 87.414062 50.003906 87.792969 48.933594 88.539062 49.835938 C 89.285156 50.742188 88.464844 51.585938 87.679688 51.417969 " fill-opacity="1" fill-rule="nonzero"/><path fill="#9e0404" d="M 108.292969 44.945312 C 108.292969 44.945312 104.652344 43.453125 102.640625 48.023438 C 100.632812 52.589844 108.023438 58.246094 109.925781 58.164062 C 111.824219 58.082031 114.4375 53.027344 115.125 51.320312 C 115.8125 49.613281 115.050781 43.730469 109.859375 44.5625 C 109.859375 44.5625 109.003906 45.125 108.292969 44.945312 " fill-opacity="1" fill-rule="nonzero"/><path fill="#d40016" d="M 108.277344 45.164062 C 108.277344 45.164062 104.777344 43.730469 102.84375 48.125 C 100.910156 52.519531 108.019531 57.960938 109.847656 57.882812 C 111.675781 57.800781 114.070312 52.941406 114.730469 51.296875 C 115.390625 49.65625 114.777344 43.996094 109.785156 44.796875 C 109.785156 44.796875 108.960938 45.335938 108.277344 45.164062 " fill-opacity="1" fill-rule="nonzero"/><path fill="#fd5e68" d="M 109.859375 44.5625 C 109.859375 44.5625 108.8125 45.285156 107.355469 44.734375 C 107.355469 44.734375 103.519531 47.644531 107.957031 53.714844 C 108.347656 54.25 108.773438 54.914062 109.179688 55.445312 C 109.578125 55.957031 109.671875 56.164062 110.4375 54.671875 C 112.996094 49.703125 111.34375 44.496094 109.859375 44.5625 " fill-opacity="1" fill-rule="nonzero"/><path fill="#bf2434" d="M 107.429688 46.40625 C 107.488281 46.316406 107.566406 46.238281 107.671875 46.277344 C 107.949219 46.382812 108.457031 46.644531 108.558594 47.191406 C 108.703125 47.957031 109.503906 55.242188 109.503906 55.242188 C 109.503906 55.242188 105.816406 48.898438 107.429688 46.40625 " fill-opacity="1" fill-rule="nonzero"/><path fill="#bf2434" d="M 109.363281 47.082031 C 109.363281 47.082031 109.527344 46.472656 110.3125 46.101562 C 111.097656 45.726562 110.960938 52.4375 109.824219 55.023438 C 109.824219 55.023438 109.085938 47.554688 109.363281 47.082031 " fill-opacity="1" fill-rule="nonzero"/><path fill="#ed988a" d="M 105.832031 48.308594 C 105.832031 48.308594 105.71875 45.945312 107.355469 44.734375 C 107.355469 44.734375 108.6875 45.199219 109.859375 44.5625 C 109.859375 44.5625 111.855469 44.511719 111.769531 49.152344 C 111.769531 49.152344 111.054688 46.148438 110.15625 45.507812 C 109.894531 45.320312 109.605469 45.574219 109.375 45.863281 C 109.058594 46.261719 108.875 47.109375 108.9375 47.605469 C 108.9375 47.605469 108.753906 45.890625 107.679688 45.652344 C 106.734375 45.441406 105.832031 48.308594 105.832031 48.308594 " fill-opacity="1" fill-rule="nonzero"/><path fill="#415f18" d="M 108.429688 44.632812 C 108.484375 44.496094 108.238281 41.925781 109.546875 41.011719 C 109.546875 41.011719 110.347656 41.078125 110.121094 41.367188 C 109.890625 41.65625 108.621094 41.199219 108.847656 44.558594 L 108.429688 44.632812 " fill-opacity="1" fill-rule="nonzero"/><path fill="#e22133" d="M 106.035156 55.378906 C 106.035156 55.378906 105.433594 54.878906 104.769531 54.046875 C 105.128906 54.476562 105.546875 54.917969 106.035156 55.378906 M 104.769531 54.046875 C 100.183594 48.566406 105.304688 45.460938 105.304688 45.460938 C 101.480469 48.691406 103.285156 52.191406 104.769531 54.046875 " fill-opacity="1" fill-rule="nonzero"/><path fill="#e92f3f" d="M 111.34375 56.21875 C 111.34375 56.21875 114.230469 50.554688 113.664062 46.667969 C 113.664062 46.667969 117.011719 49.792969 111.34375 56.21875 " fill-opacity="1" fill-rule="nonzero"/><path fill="#5f8e25" d="M 109.550781 41.1875 C 109.53125 41.160156 109.5625 41.113281 109.601562 41.117188 C 109.808594 41.136719 110.257812 41.191406 109.992188 41.3125 C 109.757812 41.421875 109.617188 41.285156 109.550781 41.1875 " fill-opacity="1" fill-rule="nonzero"/><path fill="#415f18" d="M 108.449219 44.367188 C 108.449219 44.367188 109.140625 44.742188 109.648438 43.726562 C 109.699219 43.628906 109.722656 43.511719 109.710938 43.402344 C 109.691406 43.25 109.605469 43.089844 109.3125 43.1875 C 109.3125 43.1875 110.265625 42.640625 110.011719 43.738281 C 109.757812 44.835938 108.738281 44.960938 108.449219 44.367188 " fill-opacity="1" fill-rule="nonzero"/><path fill="#415f18" d="M 107.261719 43.320312 C 107.261719 43.320312 106.96875 44.046875 108.039062 44.433594 C 108.148438 44.472656 108.261719 44.480469 108.371094 44.453125 C 108.519531 44.417969 108.671875 44.316406 108.539062 44.035156 C 108.539062 44.035156 109.199219 44.917969 108.074219 44.792969 C 106.949219 44.667969 106.707031 43.671875 107.261719 43.320312 " fill-opacity="1" fill-rule="nonzero"/><path fill="#5f8e25" d="M 105.550781 44.71875 C 105.550781 44.71875 107.367188 44.800781 107.800781 45.042969 C 108.238281 45.28125 109.945312 45.03125 110.492188 44.632812 C 111.039062 44.234375 111.367188 43.929688 111.691406 44.125 C 111.691406 44.125 110.066406 43.882812 109.296875 44.34375 C 108.523438 44.800781 107.648438 44.59375 107.191406 44.480469 C 106.730469 44.367188 105.632812 44.460938 105.550781 44.71875 " fill-opacity="1" fill-rule="nonzero"/><path fill="#415f18" d="M 108.765625 44.792969 C 108.765625 44.792969 110.152344 44.339844 110.898438 44.792969 C 110.898438 44.792969 109.480469 45.667969 108.765625 44.792969 " fill-opacity="1" fill-rule="nonzero"/><path fill="#9e0404" d="M 134.316406 50.53125 C 134.316406 50.53125 133.964844 47.773438 129.984375 48.085938 C 126.007812 48.402344 124.878906 54.902344 125.667969 56.046875 C 126.453125 57.195312 131.003906 57.089844 132.46875 56.929688 C 133.929688 56.773438 137.761719 54.296875 135.1875 51.371094 C 135.1875 51.371094 134.464844 51.03125 134.316406 50.53125 " fill-opacity="1" fill-rule="nonzero"/><path fill="#d40016" d="M 134.15625 50.597656 C 134.15625 50.597656 133.816406 47.945312 129.992188 48.246094 C 126.164062 48.550781 125.078125 54.800781 125.835938 55.902344 C 126.59375 57.007812 130.925781 56.832031 132.332031 56.679688 C 133.738281 56.527344 137.472656 54.21875 134.992188 51.40625 C 134.992188 51.40625 134.296875 51.078125 134.15625 50.597656 " fill-opacity="1" fill-rule="nonzero"/><path fill="#fd5e68" d="M 135.1875 51.371094 C 135.1875 51.371094 134.277344 50.972656 134.101562 49.878906 C 134.101562 49.878906 130.585938 48.5 128.035156 53.3125 C 127.808594 53.738281 127.503906 54.226562 127.289062 54.660156 C 127.082031 55.078125 126.972656 55.207031 128.316406 55.175781 C 132.78125 55.0625 135.800781 52.269531 135.1875 51.371094 " fill-opacity="1" fill-rule="nonzero"/><path fill="#bf2434" d="M 132.957031 50.496094 C 133.046875 50.503906 133.128906 50.523438 133.140625 50.601562 C 133.175781 50.8125 133.183594 51.214844 132.839844 51.464844 C 132.359375 51.8125 127.558594 54.789062 127.558594 54.789062 C 127.558594 54.789062 130.589844 50.347656 132.957031 50.496094 " fill-opacity="1" fill-rule="nonzero"/><path fill="#bf2434" d="M 133.226562 51.921875 C 133.226562 51.921875 133.714844 51.816406 134.28125 52.175781 C 134.84375 52.535156 130.085938 54.734375 127.828125 54.914062 C 127.828125 54.914062 132.789062 51.914062 133.226562 51.921875 " fill-opacity="1" fill-rule="nonzero"/><path fill="#ed988a" d="M 131.007812 50.15625 C 131.007812 50.15625 132.625 49.28125 134.101562 49.878906 C 134.101562 49.878906 134.289062 50.863281 135.1875 51.371094 C 135.1875 51.371094 135.988281 52.589844 132.699219 54.117188 C 132.699219 54.117188 134.53125 52.652344 134.636719 51.875 C 134.667969 51.652344 134.378906 51.558594 134.085938 51.515625 C 133.6875 51.453125 133.019531 51.628906 132.695312 51.839844 C 132.695312 51.839844 133.828125 51.140625 133.582031 50.394531 C 133.371094 49.738281 131.007812 50.15625 131.007812 50.15625 " fill-opacity="1" fill-rule="nonzero"/><path fill="#415f18" d="M 134.585938 50.511719 C 134.703125 50.5 136.414062 49.46875 137.554688 49.96875 C 137.554688 49.96875 137.816406 50.488281 137.527344 50.445312 C 137.238281 50.402344 137.070312 49.460938 134.800781 50.742188 L 134.585938 50.511719 " fill-opacity="1" fill-rule="nonzero"/><path fill="#e22133" d="M 126.128906 52.691406 C 126.128906 52.691406 126.25 52.152344 126.574219 51.460938 C 126.410156 51.828125 126.261719 52.238281 126.128906 52.691406 M 126.574219 51.460938 C 127.671875 48.976562 129.34375 48.390625 130.679688 48.390625 C 131.878906 48.390625 132.804688 48.863281 132.804688 48.863281 C 132.050781 48.605469 131.378906 48.496094 130.777344 48.496094 C 128.398438 48.496094 127.15625 50.222656 126.574219 51.460938 " fill-opacity="1" fill-rule="nonzero"/><path fill="#e92f3f" d="M 130.558594 56.585938 C 129.722656 56.585938 128.738281 56.488281 127.578125 56.261719 C 127.578125 56.261719 132.660156 56.117188 135.167969 54.441406 C 135.167969 54.441406 134.550781 56.585938 130.558594 56.585938 " fill-opacity="1" fill-rule="nonzero"/><path fill="#5f8e25" d="M 137.433594 50.03125 L 137.503906 50.039062 C 137.570312 50.171875 137.703125 50.46875 137.515625 50.347656 C 137.351562 50.238281 137.390625 50.105469 137.433594 50.03125 " fill-opacity="1" fill-rule="nonzero"/><path fill="#415f18" d="M 134.78125 50.433594 C 134.78125 50.433594 134.785156 50.988281 135.691406 50.957031 C 135.78125 50.953125 135.871094 50.929688 135.941406 50.882812 C 136.039062 50.820312 136.121094 50.714844 135.941406 50.566406 C 135.941406 50.566406 136.691406 50.96875 135.824219 51.183594 C 134.953125 51.402344 134.476562 50.8125 134.78125 50.433594 " fill-opacity="1" fill-rule="nonzero"/><path fill="#415f18" d="M 135.058594 49.34375 C 135.058594 49.34375 134.4375 49.410156 134.578125 50.203125 C 134.59375 50.28125 134.628906 50.355469 134.6875 50.414062 C 134.773438 50.496094 134.902344 50.554688 135.046875 50.378906 C 135.046875 50.378906 134.683594 51.082031 134.339844 50.34375 C 133.992188 49.605469 134.597656 49.117188 135.058594 49.34375 " fill-opacity="1" fill-rule="nonzero"/><path fill="#5f8e25" d="M 133.421875 48.761719 C 133.421875 48.761719 134.058594 49.910156 134.058594 50.261719 C 134.058594 50.613281 134.890625 51.582031 135.378906 51.785156 C 135.867188 51.988281 136.207031 52.085938 136.195312 52.355469 C 136.195312 52.355469 135.742188 51.269531 135.125 50.949219 C 134.503906 50.625 134.3125 50.015625 134.21875 49.691406 C 134.121094 49.371094 133.632812 48.722656 133.421875 48.761719 " fill-opacity="1" fill-rule="nonzero"/><path fill="#415f18" d="M 134.605469 50.773438 C 134.605469 50.773438 135.453125 51.476562 135.421875 52.089844 C 135.421875 52.089844 134.261719 51.511719 134.605469 50.773438 " fill-opacity="1" fill-rule="nonzero"/><path fill="#9e0404" d="M 49.90625 55.90625 C 49.90625 55.90625 48.230469 58.097656 51.890625 59.929688 C 55.546875 61.765625 61.183594 57.621094 61.324219 56.378906 C 61.464844 55.136719 57.464844 52.851562 56.089844 52.210938 C 54.714844 51.5625 49.628906 51.375 49.753906 54.839844 C 49.753906 54.839844 50.136719 55.464844 49.90625 55.90625 " fill-opacity="1" fill-rule="nonzero"/><path fill="#d40016" d="M 50.09375 55.941406 C 50.09375 55.941406 48.480469 58.046875 52 59.8125 C 55.519531 61.578125 60.9375 57.59375 61.074219 56.398438 C 61.210938 55.199219 57.347656 53.082031 56.027344 52.460938 C 54.703125 51.839844 49.824219 51.582031 49.949219 54.917969 C 49.949219 54.917969 50.316406 55.515625 50.09375 55.941406 " fill-opacity="1" fill-rule="nonzero"/><path fill="#fd5e68" d="M 49.753906 54.839844 C 49.753906 54.839844 50.253906 55.605469 49.621094 56.488281 C 49.621094 56.488281 51.667969 59.320312 57.320312 57.140625 C 57.820312 56.949219 58.433594 56.75 58.925781 56.546875 C 59.410156 56.351562 59.597656 56.3125 58.414062 55.640625 C 54.476562 53.40625 49.867188 53.871094 49.753906 54.839844 " fill-opacity="1" fill-rule="nonzero"/><path fill="#bf2434" d="M 51.054688 56.636719 C 50.980469 56.585938 50.925781 56.527344 50.96875 56.464844 C 51.089844 56.292969 51.371094 55.996094 51.847656 55.992188 C 52.511719 55.988281 58.792969 56.3125 58.792969 56.3125 C 58.792969 56.3125 52.988281 57.972656 51.054688 56.636719 " fill-opacity="1" fill-rule="nonzero"/><path fill="#bf2434" d="M 51.84375 55.457031 C 51.84375 55.457031 51.34375 55.28125 51.113281 54.726562 C 50.886719 54.171875 56.570312 55.039062 58.644531 56.082031 C 58.644531 56.082031 52.210938 55.691406 51.84375 55.457031 " fill-opacity="1" fill-rule="nonzero"/><path fill="#ed988a" d="M 52.492188 57.894531 C 52.492188 57.894531 50.46875 57.691406 49.621094 56.488281 C 49.621094 56.488281 50.167969 55.679688 49.753906 54.839844 C 49.753906 54.839844 49.941406 53.539062 53.871094 54.136719 C 53.871094 54.136719 51.238281 54.25 50.59375 54.761719 C 50.40625 54.910156 50.589844 55.125 50.808594 55.308594 C 51.109375 55.558594 51.8125 55.777344 52.242188 55.796875 C 52.242188 55.796875 50.765625 55.714844 50.441406 56.386719 C 50.152344 56.972656 52.492188 57.894531 52.492188 57.894531 " fill-opacity="1" fill-rule="nonzero"/><path fill="#415f18" d="M 49.65625 55.78125 C 49.546875 55.730469 47.335938 55.589844 46.707031 54.632812 C 46.707031 54.632812 46.851562 54.121094 47.070312 54.300781 C 47.289062 54.484375 46.761719 55.257812 49.640625 55.5 L 49.65625 55.78125 " fill-opacity="1" fill-rule="nonzero"/><path fill="#e22133" d="M 54.035156 60.027344 C 51.199219 60.027344 50.011719 57.902344 50.011719 57.902344 C 51.265625 59.453125 52.773438 59.9375 54.167969 59.9375 C 55.347656 59.9375 56.449219 59.59375 57.246094 59.25 C 56 59.8125 54.933594 60.027344 54.035156 60.027344 M 57.246094 59.25 C 57.652344 59.066406 58.078125 58.84375 58.519531 58.582031 C 58.519531 58.582031 58.027344 58.914062 57.246094 59.25 " fill-opacity="1" fill-rule="nonzero"/><path fill="#e92f3f" d="M 59.828125 55.234375 C 59.828125 55.234375 55.339844 52.703125 51.972656 52.617188 C 51.972656 52.617188 52.589844 52.25 53.703125 52.25 C 55.066406 52.25 57.175781 52.796875 59.828125 55.234375 " fill-opacity="1" fill-rule="nonzero"/><path fill="#5f8e25" d="M 46.855469 54.652344 L 46.800781 54.609375 C 46.839844 54.476562 46.9375 54.191406 47.011719 54.378906 C 47.078125 54.542969 46.945312 54.621094 46.855469 54.652344 " fill-opacity="1" fill-rule="nonzero"/><path fill="#415f18" d="M 49.433594 55.734375 C 49.433594 55.734375 49.828125 55.332031 49.023438 54.882812 C 48.945312 54.835938 48.851562 54.808594 48.753906 54.804688 C 48.625 54.800781 48.476562 54.835938 48.527344 55.039062 C 48.527344 55.039062 48.167969 54.355469 49.074219 54.648438 C 49.976562 54.941406 49.96875 55.617188 49.433594 55.734375 " fill-opacity="1" fill-rule="nonzero"/><path fill="#415f18" d="M 48.410156 56.386719 C 48.410156 56.386719 48.996094 56.660156 49.441406 56.007812 C 49.488281 55.945312 49.511719 55.871094 49.5 55.796875 C 49.484375 55.695312 49.417969 55.585938 49.164062 55.640625 C 49.164062 55.640625 49.984375 55.3125 49.75 56.03125 C 49.519531 56.746094 48.648438 56.785156 48.410156 56.386719 " fill-opacity="1" fill-rule="nonzero"/><path fill="#5f8e25" d="M 49.773438 59.078125 C 49.773438 59.078125 49.433594 57.335938 49.933594 56.234375 C 50.082031 55.90625 50.261719 54.757812 49.886719 54.441406 C 49.582031 54.183594 49.441406 54.011719 49.800781 53.042969 C 49.800781 53.042969 49.203125 54.628906 49.507812 55.183594 C 49.8125 55.738281 49.53125 56.277344 49.390625 56.566406 C 48.800781 57.75 49.566406 58.992188 49.773438 59.078125 " fill-opacity="1" fill-rule="nonzero"/><path fill="#415f18" d="M 49.832031 55.578125 C 49.832031 55.578125 49.738281 54.066406 50.207031 53.636719 C 50.207031 53.636719 50.65625 55.21875 49.832031 55.578125 " fill-opacity="1" fill-rule="nonzero"/><path fill="#415f18" d="M 49.578125 56.058594 C 49.578125 56.058594 49.046875 58.058594 48.410156 58.070312 C 48.410156 58.070312 48.523438 56.582031 49.578125 56.058594 " fill-opacity="1" fill-rule="nonzero"/><path fill="#5e342e" d="M 94.507812 87.703125 C 94.507812 87.703125 95.953125 80.253906 99.394531 83.429688 C 99.394531 83.429688 98.679688 81.324219 98.332031 80.796875 C 97.027344 78.816406 93.988281 78.710938 94.507812 87.703125 " fill-opacity="1" fill-rule="nonzero"/></svg>