<svg width="1440" height="778" viewBox="0 0 1440 778" fill="none" xmlns="http://www.w3.org/2000/svg">
<path d="M467.04 -54.9854C471.657 -55.3022 475.479 -51.4473 475.123 -46.8331V-46.8331C474.48 -38.4828 485.851 -35.4009 489.511 -42.9336L500.472 -65.4855C505.281 -75.3802 519.652 -74.523 523.25 -64.1268L553.21 22.4261C554.388 25.8306 554.789 29.4557 554.383 33.0353L541.328 148.106C538.756 170.767 509.009 177.42 497.03 158.013L486.765 141.383C478.549 128.073 458.204 132.202 455.827 147.662L454.973 153.221C452.655 168.302 432.046 170.948 425.993 156.941V156.941C420.729 144.759 403.475 144.698 398.127 156.844L393.305 167.792C384.495 187.798 354.657 181.842 354.201 159.988L353.893 145.239C353.553 128.951 336.687 118.304 321.837 125.002V125.002C301.8 134.039 281.887 112.192 292.737 93.0762L296.978 85.6039C303.257 74.5419 299.449 60.4867 288.445 54.1064L287.591 53.6112C274.889 46.2461 272.578 28.8619 282.914 18.4338V18.4338C289.918 11.3684 291.428 0.532796 286.622 -8.17795L284.379 -12.2446C277.232 -25.2007 285.806 -41.2205 300.551 -42.4588V-42.4588C310.415 -43.2873 318.265 -51.0711 319.177 -60.928V-60.928C320.539 -75.6619 336.631 -84.101 349.526 -76.8447L353.574 -74.5671C362.244 -69.6885 373.092 -71.1068 380.216 -78.0504V-78.0504C390.731 -88.2987 408.095 -85.8409 415.353 -73.0769L419.7 -65.4308C424.281 -57.3742 433.073 -52.6548 442.32 -53.2892L467.04 -54.9854Z" fill="url(#paint0_linear_213_315)"/>
<path d="M289.19 -36.1285C303.8 -37.0762 315.878 -24.8955 314.807 -10.2941V-10.2941C314.133 -1.09979 318.758 7.67469 326.725 12.3141L332.135 15.465C343.23 21.9262 345.237 37.1242 336.199 46.2434V46.2434C330.058 52.4394 328.743 61.945 332.972 69.5752L334.757 72.7967C341.168 84.3626 333.485 98.6863 320.304 99.744V99.744C311.876 100.42 305.026 106.815 303.771 115.176L299.266 145.205C297.274 158.487 279.138 160.872 273.779 148.557V148.557C269.121 137.852 253.942 137.838 249.264 148.535L245.088 158.084C237.407 175.649 211.227 170.51 210.755 151.346L210.426 137.995C210.074 123.681 195.259 114.342 182.192 120.197V120.197C164.537 128.107 147.028 108.888 156.545 92.0447L160.188 85.598C165.702 75.8385 162.348 63.4595 152.661 57.8184L151.704 57.2609C140.609 50.7997 138.602 35.6016 147.64 26.4825V26.4825C153.781 20.2864 155.096 10.7808 150.867 3.15065L148.793 -0.590754C142.518 -11.9131 150.039 -25.9352 162.943 -26.9706V-26.9706C171.596 -27.665 178.487 -34.4983 179.254 -43.1453V-43.1453C180.399 -56.0397 194.484 -63.4422 205.753 -57.0716L209.476 -54.9665C217.071 -50.6734 226.587 -51.9078 232.835 -57.9962V-57.9962C242.03 -66.957 257.21 -64.8224 263.578 -53.6734L266.683 -48.2364C271.255 -40.231 279.99 -35.5318 289.19 -36.1285V-36.1285Z" fill="url(#paint1_linear_213_315)"/>
<path d="M667.188 -23.1293C681.798 -24.077 693.876 -11.8963 692.806 2.70514V2.70514C692.131 11.8994 696.757 20.6739 704.723 25.3133L710.134 28.4641C721.229 34.9253 723.235 50.1233 714.197 59.2425V59.2425C708.056 65.4386 706.742 74.9442 710.971 82.5743L712.756 85.7959C719.166 97.3618 711.483 111.685 698.302 112.743V112.743C689.875 113.419 683.024 119.814 681.77 128.175L677.265 158.205C675.272 171.486 657.136 173.871 651.778 161.556V161.556C647.119 150.851 631.941 150.837 627.263 161.534L623.086 171.084C615.405 188.648 589.226 183.51 588.754 164.345L588.448 151.941C588.084 137.177 572.805 127.545 559.327 133.583L549.324 138.065C531.049 146.253 511.332 129.893 516.007 110.421L537.62 20.4056C540.63 7.86907 533.25 -4.81822 520.864 -8.39817L384.586 -47.7872C364.594 -53.5655 360.811 -80.2506 378.41 -91.3575L421.359 -118.464C422.451 -119.154 423.597 -119.754 424.785 -120.26L498.019 -151.434C509.79 -156.445 523.244 -149.695 526.264 -137.264L547.905 -48.1851C549.401 -42.0263 558.367 -42.6992 558.927 -49.0123V-49.0123C559.287 -53.0687 563.718 -55.3974 567.263 -53.3934L587.475 -41.9673C595.069 -37.6742 604.585 -38.9085 610.833 -44.997V-44.997C620.028 -53.9577 635.209 -51.8232 641.576 -40.6742L644.681 -35.2372C649.253 -27.2318 657.989 -22.5326 667.188 -23.1293V-23.1293Z" fill="url(#paint2_linear_213_315)"/>
<path d="M808.04 -20.9854C812.657 -21.3022 816.479 -17.4473 816.123 -12.8331V-12.8331C815.48 -4.48276 826.851 -1.40094 830.511 -8.93357L841.472 -31.4855C846.281 -41.3802 860.652 -40.523 864.25 -30.1268L894.21 56.4261C895.388 59.8306 895.789 63.4557 895.383 67.0353L882.328 182.106C879.756 204.767 850.009 211.42 838.03 192.013L827.765 175.383C819.549 162.073 799.204 166.202 796.827 181.662L795.973 187.221C793.655 202.302 773.046 204.948 766.993 190.941V190.941C761.729 178.759 744.475 178.698 739.127 190.844L734.305 201.792C725.495 221.798 695.657 215.842 695.201 193.988L694.893 179.239C694.553 162.951 677.687 152.304 662.837 159.002V159.002C642.8 168.039 622.887 146.192 633.737 127.076L637.978 119.604C644.257 108.542 640.449 94.4867 629.445 88.1064L628.591 87.6112C615.889 80.2461 613.578 62.8619 623.914 52.4338V52.4338C630.918 45.3684 632.428 34.5328 627.622 25.822L625.379 21.7554C618.232 8.79926 626.806 -7.22045 641.551 -8.45883V-8.45883C651.415 -9.2873 659.265 -17.0711 660.177 -26.928V-26.928C661.539 -41.6619 677.631 -50.101 690.526 -42.8447L694.574 -40.5671C703.244 -35.6885 714.092 -37.1068 721.216 -44.0504V-44.0504C731.731 -54.2987 749.095 -51.8409 756.353 -39.0769L760.7 -31.4308C765.281 -23.3742 774.073 -18.6548 783.32 -19.2892L808.04 -20.9854Z" fill="url(#paint3_linear_213_315)"/>
<path d="M166.04 -11.9854C170.657 -12.3022 174.479 -8.44728 174.123 -3.83311V-3.83311C173.48 4.51724 184.851 7.59906 188.511 0.0664269L199.472 -22.4855C204.281 -32.3802 218.652 -31.523 222.25 -21.1268L252.21 65.4261C253.388 68.8306 253.789 72.4557 253.383 76.0353L240.328 191.106C237.756 213.767 208.009 220.42 196.03 201.013L185.765 184.383C177.549 171.073 157.204 175.202 154.827 190.662L153.973 196.221C151.655 211.302 131.046 213.948 124.993 199.941V199.941C119.729 187.759 102.475 187.698 97.1265 199.844L92.3049 210.792C83.4946 230.798 53.6566 224.842 53.2005 202.988L52.8927 188.239C52.5529 171.951 35.687 161.304 20.8367 168.002V168.002C0.800173 177.039 -19.1134 155.192 -8.2634 136.076L-4.0221 128.604C2.25668 117.542 -1.55081 103.487 -12.5546 97.1064L-13.4087 96.6112C-26.111 89.2461 -28.4223 71.8619 -18.0856 61.4338V61.4338C-11.0822 54.3684 -9.57243 43.5328 -14.3777 34.822L-16.6211 30.7554C-23.7683 17.7993 -15.1938 1.77955 -0.448936 0.541172V0.541172C9.41536 -0.287301 17.2651 -8.07108 18.1767 -17.928V-17.928C19.5394 -32.6619 35.6308 -41.101 48.5261 -33.8447L52.5737 -31.5671C61.2436 -26.6885 72.0916 -28.1068 79.2158 -35.0504V-35.0504C89.7308 -45.2987 107.095 -42.8409 114.353 -30.0769L118.7 -22.4308C123.281 -14.3742 132.073 -9.65478 141.32 -10.2892L166.04 -11.9854Z" fill="url(#paint4_linear_213_315)"/>
<path d="M363.937 -4.11711C367.801 -4.38224 370.8 -7.59393 370.8 -11.467V-11.467C370.8 -13.8913 371.993 -16.1604 373.99 -17.5351L382.398 -23.3235C395.526 -32.3616 413.656 -26.4077 418.869 -11.3455L448.212 73.4245C449.39 76.8289 449.791 80.4541 449.385 84.0337L436.33 199.105C433.759 221.766 404.011 228.418 392.032 209.011L381.767 192.381C373.551 179.071 353.206 183.2 350.829 198.66L349.975 204.219C347.657 219.301 327.048 221.946 320.995 207.94V207.94C315.731 195.757 298.478 195.697 293.129 207.842L271.659 256.592C263.455 275.221 237.286 275.938 228.075 257.785L209.38 220.944C205.61 213.515 198.273 208.557 189.973 207.83L156.986 204.944C154.588 204.734 152.235 204.166 150.005 203.26L6.55935 144.947C4.20132 143.988 2.00988 142.663 0.0663785 141.019L-85.7045 68.476C-87.7952 66.7077 -90.9985 68.1936 -90.9989 70.9319V70.9319C-90.9992 73.7834 -87.5641 75.2257 -85.5288 73.2285L72.4359 -81.7746C82.269 -91.4233 98.1722 -90.8907 107.338 -80.6058L155.157 -26.9453C161.455 -19.8783 171.304 -17.1482 180.342 -19.9645L192.22 -23.6661C195.049 -24.5478 197.692 -25.9433 200.015 -27.7828L204.387 -31.2438C212.064 -37.3216 222.654 -38.1551 231.188 -33.3532L248.576 -23.5687C257.246 -18.6901 268.094 -20.1084 275.218 -27.052V-27.052C285.733 -37.3003 303.097 -34.8425 310.355 -22.0786L314.702 -14.4325C319.283 -6.37581 328.075 -1.6564 337.322 -2.29084L363.937 -4.11711Z" fill="url(#paint5_linear_213_315)"/>
<path d="M559.04 -3.98538C563.657 -4.30218 567.479 -0.44728 567.123 4.16689V4.16689C566.48 12.5172 577.851 15.5991 581.511 8.06643L592.472 -14.4855C597.281 -24.3802 611.652 -23.523 615.25 -13.1268L645.21 73.4261C646.388 76.8306 646.789 80.4557 646.383 84.0353L633.328 199.106C630.756 221.767 601.009 228.42 589.03 209.013L578.765 192.383C570.549 179.073 550.204 183.202 547.827 198.662L546.973 204.221C544.655 219.302 524.046 221.948 517.993 207.941V207.941C512.729 195.759 495.475 195.698 490.127 207.844L485.305 218.792C476.495 238.798 446.657 232.842 446.201 210.988L445.893 196.239C445.553 179.951 428.687 169.304 413.837 176.002V176.002C393.8 185.039 373.887 163.192 384.737 144.076L388.978 136.604C395.257 125.542 391.449 111.487 380.445 105.106L379.591 104.611C366.889 97.2461 364.578 79.8619 374.914 69.4338V69.4338C381.918 62.3684 383.428 51.5328 378.622 42.822L376.379 38.7554C369.232 25.7993 377.806 9.77955 392.551 8.54117V8.54117C402.415 7.7127 410.265 -0.071079 411.177 -9.92804V-9.92804C412.539 -24.6619 428.631 -33.101 441.526 -25.8447L445.574 -23.5671C454.244 -18.6885 465.092 -20.1068 472.216 -27.0504V-27.0504C482.731 -37.2987 500.095 -34.8409 507.353 -22.0769L511.7 -14.4308C516.281 -6.37419 525.073 -1.65478 534.32 -2.28922L559.04 -3.98538Z" fill="url(#paint6_linear_213_315)"/>
<path d="M467.04 -54.9854C471.657 -55.3022 475.479 -51.4473 475.123 -46.8331V-46.8331C474.48 -38.4828 485.851 -35.4009 489.511 -42.9336L500.472 -65.4855C505.281 -75.3802 519.652 -74.523 523.25 -64.1268L553.21 22.4261C554.388 25.8306 554.789 29.4557 554.383 33.0353L541.328 148.106C538.756 170.767 509.009 177.42 497.03 158.013L486.765 141.383C478.549 128.073 458.204 132.202 455.827 147.662L454.973 153.221C452.655 168.302 432.046 170.948 425.993 156.941V156.941C420.729 144.759 403.475 144.698 398.127 156.844L393.305 167.792C384.495 187.798 354.657 181.842 354.201 159.988L353.893 145.239C353.553 128.951 336.687 118.304 321.837 125.002V125.002C301.8 134.039 281.887 112.192 292.737 93.0762L296.978 85.6039C303.257 74.5419 299.449 60.4867 288.445 54.1064L287.591 53.6112C274.889 46.2461 272.578 28.8619 282.914 18.4338V18.4338C289.918 11.3684 291.428 0.532796 286.622 -8.17795L284.379 -12.2446C277.232 -25.2007 285.806 -41.2205 300.551 -42.4588V-42.4588C310.415 -43.2873 318.265 -51.0711 319.177 -60.928V-60.928C320.539 -75.6619 336.631 -84.101 349.526 -76.8447L353.574 -74.5671C362.244 -69.6885 373.092 -71.1068 380.216 -78.0504V-78.0504C390.731 -88.2987 408.095 -85.8409 415.353 -73.0769L419.7 -65.4308C424.281 -57.3742 433.073 -52.6548 442.32 -53.2892L467.04 -54.9854Z" fill="url(#paint7_linear_213_315)"/>
<path d="M345.976 26.6403C361.665 24.6813 374.965 38.0936 372.874 53.7656L368.739 84.7501C367.414 94.6822 372.367 104.399 381.183 109.162L409.539 124.482C423.711 132.139 426.54 151.27 415.189 162.7L395.334 182.693C387.983 190.095 386.224 201.384 390.973 210.672L404.508 237.139C412.058 251.904 402.801 269.709 386.377 272.009L358.367 275.931C348.29 277.342 340.182 284.926 338.101 294.887L323.161 366.406C318.316 389.603 286.226 392.203 277.709 370.088V370.088C270.237 350.689 243.22 349.549 234.141 368.249L206.07 426.065C194.679 449.528 159.328 440.727 160.266 414.662L162.876 342.182C163.534 323.926 144.448 311.594 128.075 319.694L81.9671 342.505C60.3402 353.204 38.1408 329.033 50.6378 308.392L83.1129 254.755C90.2532 242.962 86.074 227.594 73.9446 221.041L53.2332 209.851C39.0607 202.194 36.2324 183.063 47.5833 171.633L67.438 151.639C74.7887 144.237 76.5481 132.949 71.7986 123.661L58.2642 97.1938C50.7137 82.4284 59.9712 64.624 76.3948 62.3241L103.341 58.5506C113.932 57.0675 122.282 48.7876 123.854 38.2095L127.855 11.2965C130.293 -5.10718 148.175 -14.2141 162.876 -6.53937L189.228 7.21772C198.476 12.0454 209.779 10.3813 217.242 3.09326L237.402 -16.5921C248.928 -27.8461 268.035 -24.8566 275.572 -10.62L290.652 17.8642C295.34 26.7199 305.015 31.7548 314.958 30.5133L345.976 26.6403Z" fill="url(#paint8_linear_213_315)"/>
<path d="M667.188 -23.1293C681.798 -24.077 693.876 -11.8963 692.806 2.70514V2.70514C692.131 11.8994 696.757 20.6739 704.723 25.3133L710.134 28.4641C721.229 34.9253 723.235 50.1233 714.197 59.2425V59.2425C708.056 65.4386 706.742 74.9442 710.971 82.5743L712.756 85.7959C719.166 97.3618 711.483 111.685 698.302 112.743V112.743C689.875 113.419 683.024 119.814 681.77 128.175L677.265 158.205C675.272 171.486 657.136 173.871 651.778 161.556V161.556C647.119 150.851 631.941 150.837 627.263 161.534L623.086 171.084C615.405 188.648 589.226 183.51 588.754 164.345L588.448 151.941C588.084 137.177 572.805 127.545 559.327 133.583L549.324 138.065C531.049 146.253 511.332 129.893 516.007 110.421L537.62 20.4056C540.63 7.86907 533.25 -4.81822 520.864 -8.39817L384.586 -47.7872C364.594 -53.5655 360.811 -80.2506 378.41 -91.3575L421.359 -118.464C422.451 -119.154 423.597 -119.754 424.785 -120.26L498.019 -151.434C509.79 -156.445 523.244 -149.695 526.264 -137.264L547.905 -48.1851C549.401 -42.0263 558.367 -42.6992 558.927 -49.0123V-49.0123C559.287 -53.0687 563.718 -55.3974 567.263 -53.3934L587.475 -41.9673C595.069 -37.6742 604.585 -38.9085 610.833 -44.997V-44.997C620.028 -53.9577 635.209 -51.8232 641.576 -40.6742L644.681 -35.2372C649.253 -27.2318 657.989 -22.5326 667.188 -23.1293V-23.1293Z" fill="url(#paint9_linear_213_315)"/>
<path d="M799.256 -20.3818C808.503 -21.0162 816.159 -13.2957 815.446 -4.05463V-4.05463C814.473 8.56434 828.451 16.7721 838.997 9.77456L1014.57 -106.722C1038.23 -122.421 1064.85 -91.4573 1045.78 -70.4217L1003.95 -24.2917C1002.33 -22.4977 1000.98 -20.469 999.958 -18.2739L893.39 210.539C885.284 227.943 861.083 229.362 850.998 213.025L827.765 175.384C819.549 162.074 799.203 166.203 796.827 181.663L795.972 187.222C793.654 202.304 773.045 204.949 766.993 190.942V190.942C761.728 178.76 744.475 178.7 739.126 190.845L734.304 201.794C725.494 221.799 695.656 215.844 695.2 193.989L694.892 179.24C694.552 162.952 677.686 152.305 662.836 159.003V159.003C642.8 168.04 622.886 146.193 633.736 127.077L637.977 119.605C644.256 108.543 640.449 94.4878 629.445 88.1076L628.591 87.6124C615.888 80.2473 613.577 62.8631 623.914 52.4349V52.4349C630.917 45.3695 632.427 34.5339 627.622 25.8232L625.378 21.7565C618.231 8.80036 626.806 -7.21936 641.55 -8.45774V-8.45774C651.415 -9.28622 659.264 -17.07 660.176 -26.927V-26.927C661.539 -41.6608 677.63 -50.0999 690.526 -42.8436L694.573 -40.566C703.243 -35.6874 714.091 -37.1057 721.215 -44.0493V-44.0493C731.73 -54.2977 749.094 -51.8399 756.352 -39.0759L760.7 -31.4299C765.281 -23.3732 774.073 -18.6538 783.319 -19.2882L799.256 -20.3818Z" fill="url(#paint10_linear_213_315)"/>
<path d="M189.276 73.2484C197 72.4236 203.495 78.9741 202.605 86.6906V86.6906C201.061 100.083 219.249 105.615 225.423 93.6312L246.529 52.6651C254.939 36.3424 278.908 38.4246 284.377 55.9528L329.214 199.66C330.303 203.149 330.584 206.84 330.037 210.454L293.044 454.808C289.651 477.222 260.016 483.001 248.45 463.505L204.997 390.257C193.667 371.158 164.73 376.222 160.56 398.033L155.043 426.884C150.519 450.547 117.918 453.687 108.96 431.322L107.437 427.52C99.6018 407.957 72.2093 407.143 63.2263 426.207L33.2964 489.723C22.2167 513.236 -13.0993 505.004 -12.6404 479.016L-11.1669 395.56C-10.8499 377.608 -29.5565 365.615 -45.7375 373.396L-99.1231 399.069C-120.643 409.417 -142.507 385.554 -130.319 365.02L-94.95 305.427C-88.0048 293.725 -92.1083 278.598 -104.015 272.01L-128.949 258.215C-142.953 250.466 -145.666 231.477 -134.391 220.117L-113.546 199.114C-106.133 191.646 -104.417 180.234 -109.306 170.916L-124.461 142.03C-132.299 127.09 -122.77 108.925 -106.023 106.881L-78.356 103.504C-67.4257 102.17 -58.7862 93.6036 -57.3602 82.6849L-53.7507 55.0478C-51.5658 38.3182 -33.3208 28.9431 -18.4472 36.9071L10.3101 52.3049C19.5864 57.2718 31.012 55.6524 38.5427 48.3033L59.721 27.6355C71.1754 16.4572 90.1409 19.33 97.771 33.3991L115.507 66.1029C120.167 74.6955 129.552 79.6261 139.272 78.5882L189.276 73.2484Z" fill="url(#paint11_linear_213_315)"/>
<path d="M391.442 93.0646C397.847 91.579 402.727 86.3821 403.808 79.8961V79.8961C404.487 75.824 406.688 72.1624 409.967 69.6538L440.687 46.1492C454.929 35.2519 475.66 43.155 479.034 60.7679L504.668 194.59C505.547 199.176 505.075 203.918 503.311 208.241L422.686 405.826C415.252 424.044 390.307 426.175 379.89 409.483L359.502 376.815C350.177 361.873 328.502 361.64 318.857 376.377L286.348 426.049C280.189 435.459 265.872 433.522 262.435 422.815V422.815C258.875 411.724 243.82 410.175 238.077 420.31L155.821 565.466C145.723 583.286 119.414 581.206 112.242 562.021L88.3485 498.113C83.4168 484.922 68.2808 478.743 55.5268 484.715L18.0539 502.261C12.2571 504.975 5.6191 505.274 -0.398213 503.091L-218.455 424.007C-220.875 423.13 -223.139 421.87 -225.161 420.277L-344.073 326.576C-347.012 324.26 -351.359 325.941 -351.975 329.633V329.633C-352.759 334.337 -347.065 337.296 -343.666 333.951L-37.1751 32.3044C-27.2022 22.4892 -10.9975 23.1918 -1.9115 33.8333L66.5463 114.012C73.5236 122.184 85.065 124.755 94.8512 120.317L127.14 105.677C129.162 104.76 131.047 103.569 132.742 102.137L155.77 82.69C162.784 76.7667 172.552 75.3384 180.968 79.0055L218.822 95.4993C227.829 99.4238 238.316 97.4932 245.335 90.6185L269.568 66.8838C281.577 55.1219 301.632 58.9415 308.477 74.294L315.735 90.5742C320.438 101.125 331.962 106.859 343.215 104.25L391.442 93.0646Z" fill="url(#paint12_linear_213_315)"/>
<path d="M577.183 -25.2667C577.183 -10.5662 596.891 -5.71865 603.71 -18.7418L606.422 -23.9215C610.941 -32.5511 623.14 -32.9678 628.237 -24.6668V-24.6668C629.905 -21.9494 632.546 -19.969 635.621 -19.1277L729.465 6.53973C749.113 11.9135 753.666 37.7153 737.044 49.4891L707.131 70.6782C701.054 74.9823 697.307 81.8514 696.976 89.2903L693.715 162.657C693.614 164.934 691.202 166.351 689.164 165.332V165.332C688.727 165.114 688.246 165 687.757 165L684 165V165C681.698 165 679.428 165.536 677.37 166.565L676.978 166.761C675.995 167.253 675.063 167.84 674.196 168.514L672.719 169.663C668.678 172.806 665.742 177.153 664.335 182.076L662.5 188.5L650.5 235.5L639.976 286.367C636.071 305.243 612.696 312.139 599.17 298.405L574.858 273.72C561.823 260.484 539.346 266.334 534.417 284.246L531.862 293.531C527.49 309.417 507.213 314.075 496.346 301.691V301.691C486.621 290.608 468.757 292.957 462.228 306.177L440.744 349.677C429.17 373.112 393.799 363.975 395.023 337.867L396.508 306.183C397.372 287.751 378.064 275.214 361.578 283.503L343.597 292.544C321.91 303.449 299.514 279.098 312.191 258.397L329.253 230.538C336.509 218.69 332.282 203.178 320.019 196.649L312.493 192.642C298.219 185.043 295.319 165.825 306.716 154.352L317.585 143.411C324.898 136.05 326.683 124.836 322.017 115.567L314.853 101.335C307.473 86.6737 316.574 69.0831 332.805 66.6378L347.468 64.4286C357.859 62.863 366.041 54.7497 367.694 44.3716L370.027 29.7281C372.609 13.5188 390.276 4.56649 404.874 12.0699L419.045 19.3537C428.274 24.0974 439.503 22.4068 446.926 15.1559L476.621 -13.849C479.611 -16.7698 483.309 -18.8634 487.352 -19.9245L559.547 -38.8718C568.463 -41.212 577.183 -34.4854 577.183 -25.2667V-25.2667Z" fill="url(#paint13_linear_213_315)"/>
<path d="M1157.85 -191.464C1157.85 -176.764 1177.56 -171.916 1184.38 -184.939L1185.72 -187.498C1190.84 -197.283 1204.67 -197.755 1210.45 -188.343V-188.343C1211.15 -187.209 1212 -186.179 1212.98 -185.283L1270.3 -132.912C1276.26 -127.467 1279.1 -119.403 1277.87 -111.426L1266.34 -36.6961L1222.53 123.905C1217.64 141.851 1195.13 147.737 1182.08 134.483L1155.52 107.523C1142.49 94.2865 1120.01 100.137 1115.08 118.048L1112.53 127.333C1108.16 143.219 1087.88 147.878 1077.01 135.493V135.493C1067.29 124.411 1049.42 126.759 1042.89 139.979L1020.19 185.944C1008.68 209.262 973.497 200.357 974.462 174.368L975.795 138.438C976.516 119.007 955.129 106.752 938.73 117.2L915.5 132V132C899.038 139.97 883.1 120.24 894.353 105.822L993.769 -21.5527C1010.8 -43.3795 983.642 -72.0228 960.942 -56.1688L902.434 -15.3054C886.445 -4.13831 864.501 -15.5781 864.501 -35.0808L864.502 -70.0756C864.502 -77.336 867.772 -84.2102 873.405 -88.7906L875.44 -90.4446C878.785 -93.1649 882.799 -94.9387 887.063 -95.5811L928.133 -101.769C938.525 -103.335 946.707 -111.448 948.36 -121.826L950.693 -136.469C953.275 -152.679 970.942 -161.631 985.54 -154.127L999.711 -146.844C1008.94 -142.1 1020.17 -143.791 1027.59 -151.041L1057.29 -180.046C1060.28 -182.967 1063.97 -185.061 1068.02 -186.122L1140.21 -205.069C1149.13 -207.409 1157.85 -200.683 1157.85 -191.464V-191.464Z" fill="url(#paint14_linear_213_315)"/>
<path d="M1220.13 74.3095C1204.51 76.7919 1190.77 63.8316 1192.34 48.0985L1195.44 16.9931C1196.43 7.0222 1191.15 -2.52394 1182.18 -6.98941L1153.33 -21.3525C1138.91 -28.5313 1135.45 -47.5574 1146.41 -59.3606L1165.58 -80.0064C1172.68 -87.65 1174.06 -98.9911 1169.01 -108.115L1154.59 -134.115C1146.55 -148.62 1155.21 -166.724 1171.55 -169.571L1199.41 -174.428C1209.44 -176.175 1217.29 -184.026 1219.03 -194.05L1231.57 -266.029C1235.64 -289.375 1267.63 -293.046 1276.88 -271.229V-271.229C1284.99 -252.09 1312.03 -251.853 1320.48 -270.847L1346.61 -329.569C1357.21 -353.399 1392.83 -345.785 1392.76 -319.704L1392.58 -247.176C1392.53 -228.909 1412.02 -217.222 1428.11 -225.865L1473.43 -250.204C1494.69 -261.62 1517.68 -238.204 1505.88 -217.158L1475.22 -162.465C1468.48 -150.44 1473.17 -135.22 1485.51 -129.076L1506.58 -118.585C1521.01 -111.406 1524.47 -92.3799 1513.51 -80.5768L1494.33 -59.931C1487.23 -52.2874 1485.85 -40.9462 1490.91 -31.8223L1505.32 -5.82236C1513.36 8.68237 1504.7 26.7862 1488.37 29.6339L1461.56 34.306C1451.03 36.1424 1442.96 44.6967 1441.74 55.3215L1438.64 82.3532C1436.75 98.8292 1419.19 108.529 1404.24 101.35L1377.44 88.4813C1368.04 83.9655 1356.79 86.0065 1349.58 93.54L1330.09 113.888C1318.95 125.521 1299.75 123.172 1291.74 109.195L1275.72 81.2313C1270.73 72.5372 1260.9 67.8285 1251 69.4017L1220.13 74.3095Z" fill="url(#paint15_linear_213_315)"/>
<defs>
<linearGradient id="paint0_linear_213_315" x1="389.913" y1="-25.1842" x2="400.459" y2="206.953" gradientUnits="userSpaceOnUse">
<stop stop-color="#F7C6C2"/>
<stop offset="1" stop-color="#FCEEED"/>
</linearGradient>
<linearGradient id="paint1_linear_213_315" x1="241.5" y1="-11.5" x2="250" y2="192.5" gradientUnits="userSpaceOnUse">
<stop stop-color="#F7C6C2"/>
<stop offset="1" stop-color="#FCEEED"/>
</linearGradient>
<linearGradient id="paint2_linear_213_315" x1="619.5" y1="1.49997" x2="546" y2="210" gradientUnits="userSpaceOnUse">
<stop stop-color="#F7C6C2"/>
<stop offset="1" stop-color="#FCEEED"/>
</linearGradient>
<linearGradient id="paint3_linear_213_315" x1="730.913" y1="8.81579" x2="741.459" y2="240.953" gradientUnits="userSpaceOnUse">
<stop stop-color="#F7C6C2"/>
<stop offset="1" stop-color="#FCEEED"/>
</linearGradient>
<linearGradient id="paint4_linear_213_315" x1="88.9125" y1="17.8158" x2="99.4587" y2="249.953" gradientUnits="userSpaceOnUse">
<stop stop-color="#F7C6C2"/>
<stop offset="1" stop-color="#FCEEED"/>
</linearGradient>
<linearGradient id="paint5_linear_213_315" x1="284.913" y1="25.8159" x2="295.459" y2="257.953" gradientUnits="userSpaceOnUse">
<stop stop-color="#F7C6C2"/>
<stop offset="1" stop-color="#FCEEED"/>
</linearGradient>
<linearGradient id="paint6_linear_213_315" x1="481.913" y1="25.8158" x2="492.459" y2="257.953" gradientUnits="userSpaceOnUse">
<stop stop-color="#F7C6C2"/>
<stop offset="1" stop-color="#FCEEED"/>
</linearGradient>
<linearGradient id="paint7_linear_213_315" x1="406.5" y1="37.5" x2="463.459" y2="298.072" gradientUnits="userSpaceOnUse">
<stop stop-color="#F7C6C2"/>
<stop offset="1" stop-color="#FCEEED"/>
</linearGradient>
<linearGradient id="paint8_linear_213_315" x1="235.932" y1="79.5327" x2="273.462" y2="447.752" gradientUnits="userSpaceOnUse">
<stop stop-color="#F7C6C2"/>
<stop offset="1" stop-color="#FCEEED"/>
</linearGradient>
<linearGradient id="paint9_linear_213_315" x1="619.5" y1="1.49997" x2="546" y2="210" gradientUnits="userSpaceOnUse">
<stop stop-color="#F7C6C2"/>
<stop offset="1" stop-color="#FCEEED"/>
</linearGradient>
<linearGradient id="paint10_linear_213_315" x1="697.5" y1="120.5" x2="764" y2="316" gradientUnits="userSpaceOnUse">
<stop stop-color="#F7C6C2"/>
<stop offset="1" stop-color="#FCEEED"/>
</linearGradient>
<linearGradient id="paint11_linear_213_315" x1="59.4056" y1="127.727" x2="91.4901" y2="510.81" gradientUnits="userSpaceOnUse">
<stop stop-color="#F7C6C2"/>
<stop offset="1" stop-color="#FCEEED"/>
</linearGradient>
<linearGradient id="paint12_linear_213_315" x1="257.381" y1="161.53" x2="328.95" y2="502.556" gradientUnits="userSpaceOnUse">
<stop stop-color="#F7C6C2"/>
<stop offset="1" stop-color="#FCEEED"/>
</linearGradient>
<linearGradient id="paint13_linear_213_315" x1="423.5" y1="132" x2="456.647" y2="440.76" gradientUnits="userSpaceOnUse">
<stop stop-color="#F7C6C2"/>
<stop offset="1" stop-color="#FCEEED"/>
</linearGradient>
<linearGradient id="paint14_linear_213_315" x1="1075.84" y1="48.3556" x2="1071.21" y2="273.661" gradientUnits="userSpaceOnUse">
<stop stop-color="#F7C6C2"/>
<stop offset="1" stop-color="#FCEEED"/>
</linearGradient>
<linearGradient id="paint15_linear_213_315" x1="1328.34" y1="17.768" x2="1278.53" y2="-348.991" gradientUnits="userSpaceOnUse">
<stop stop-color="#F7C6C2"/>
<stop offset="1" stop-color="#FCEEED"/>
</linearGradient>
</defs>
</svg>
