<svg width="277" height="266" viewBox="0 0 277 266" fill="none" xmlns="http://www.w3.org/2000/svg">
<g clip-path="url(#clip0_579_300)">
<path d="M178.491 46.0163C179.694 62.2351 163.84 76.6257 143.09 78.157C122.34 79.6934 104.543 67.7976 103.345 51.5788C102.142 35.3653 117.996 20.9695 138.741 19.4382C159.496 17.9017 177.293 29.8028 178.491 46.0163Z" fill="#918E84"/>
<mask id="mask0_579_300" style="mask-type:luminance" maskUnits="userSpaceOnUse" x="55" y="48" width="177" height="155">
<path d="M55.1758 48H231.176V202.667H55.1758V48Z" fill="white"/>
</mask>
<g mask="url(#mask0_579_300)">
<path d="M231.191 125.276C231.191 167.516 191.785 201.755 143.181 201.755C94.5716 201.755 55.1602 167.516 55.1602 125.276C55.1602 83.0365 94.5716 48.7969 143.181 48.7969C191.785 48.7969 231.191 83.0365 231.191 125.276Z" fill="#9D9A8E"/>
</g>
<path d="M75.0261 169.959C75.7865 177.115 74.5209 183.12 67.2449 183.891C62.1824 184.432 58.2188 178.985 57.4532 171.828C56.6928 164.672 58.4115 157.339 63.4688 156.797C68.5261 156.255 74.2657 162.797 75.0261 169.959Z" fill="#CF967B"/>
<path d="M59.9023 169.304C59.9023 169.304 59.9336 168.721 60.0742 167.71C60.1471 167.21 60.2461 166.596 60.3971 165.903C60.543 165.205 60.7357 164.419 61.0586 163.596C61.2201 163.179 61.4076 162.752 61.6576 162.325C61.9128 161.908 62.2201 161.476 62.7044 161.153C62.944 160.981 63.2409 160.867 63.5534 160.835C63.7096 160.815 63.8711 160.815 64.0273 160.841L64.1471 160.856L64.2721 160.893L64.4596 160.945C64.5846 160.992 64.7044 161.012 64.8398 161.075L65.2409 161.278C65.5326 161.403 65.7305 161.585 65.9805 161.742C66.8971 162.429 67.6888 163.299 68.3711 164.242C69.0586 165.19 69.6576 166.216 70.1784 167.278C70.6888 168.346 71.1003 169.46 71.4076 170.591C71.7253 171.705 71.8763 172.893 71.9336 173.971C72.0013 175.085 71.9648 176.158 71.793 177.174C71.6211 178.184 71.3034 179.153 70.7461 179.893C70.194 180.658 69.3503 181.059 68.6315 181.158C68.444 181.179 68.2669 181.2 68.1003 181.216C67.9284 181.205 67.7669 181.195 67.6107 181.184C67.293 181.179 67.0169 181.106 66.7669 181.049C66.2565 180.96 65.8919 180.778 65.6367 180.69C65.3815 180.596 65.2461 180.544 65.2461 180.544C65.2461 180.544 65.3867 180.58 65.6523 180.643C65.9128 180.705 66.2982 180.825 66.7982 180.872C67.0482 180.913 67.319 180.955 67.6159 180.934C67.7669 180.929 67.918 180.929 68.0794 180.924C68.2357 180.893 68.3971 180.861 68.5638 180.83C69.2148 180.669 69.8815 180.278 70.3294 179.601C70.7878 178.929 71.0326 178.038 71.1419 177.085C71.2565 176.127 71.2253 175.085 71.1419 174.038C71.0638 172.94 70.8711 171.903 70.569 170.82C70.2669 169.752 69.8659 168.684 69.3659 167.669C68.8763 166.648 68.3086 165.658 67.668 164.752C67.0221 163.851 66.3138 163.007 65.5013 162.377C65.2982 162.236 65.0898 162.054 64.8867 161.96L64.5898 161.788C64.4857 161.731 64.3451 161.695 64.2253 161.648C63.793 161.46 63.4232 161.486 63.0534 161.705C62.694 161.913 62.3919 162.268 62.1471 162.632C61.8971 163.007 61.6992 163.403 61.5221 163.788C60.8503 165.351 60.4753 166.762 60.2461 167.747C60.0117 168.731 59.9023 169.304 59.9023 169.304Z" fill="#993F45"/>
<path d="M63.213 172.958C63.213 172.958 63.1297 172.219 63.0932 171.099C63.0568 169.979 63.0516 168.474 63.2755 166.974C63.3953 166.224 63.5672 165.474 63.8485 164.792C63.9995 164.458 64.161 164.13 64.3849 163.849C64.5932 163.557 64.8641 163.328 65.1453 163.146C65.4318 162.979 65.7391 162.88 66.0047 162.849C66.2808 162.802 66.5099 162.823 66.7026 162.839C66.8901 162.854 67.0255 162.901 67.1245 162.917C67.2235 162.943 67.2755 162.953 67.2755 162.953L66.9943 163.807C66.9943 163.807 66.9578 163.797 66.8849 163.776C66.8172 163.761 66.7078 163.714 66.5724 163.693C66.4422 163.672 66.2808 163.641 66.0985 163.656C65.9162 163.662 65.7182 163.719 65.5151 163.813C65.3172 163.922 65.1037 164.068 64.9214 164.287C64.7287 164.495 64.5672 164.766 64.4057 165.052C64.1089 165.646 63.8849 166.344 63.7182 167.057C63.3901 168.49 63.2808 169.985 63.2339 171.099C63.187 172.214 63.213 172.958 63.213 172.958Z" fill="#993F45"/>
<path d="M69.0091 167.656C69.0039 167.672 67.0872 170.615 67.082 173.443C67.082 174.38 67.2956 175.313 67.8841 176.109C68.4779 176.901 69.431 177.531 70.8529 177.896L70.9674 177.464C69.6133 177.115 68.7643 176.531 68.2487 175.839C67.7331 175.141 67.5299 174.313 67.5299 173.443C67.5299 172.13 67.9883 170.734 68.457 169.677C68.6914 169.146 68.9258 168.703 69.0977 168.391C69.1862 168.229 69.2591 168.109 69.306 168.026C69.3581 167.943 69.3893 167.896 69.3893 167.896L69.0091 167.656Z" fill="#993F45"/>
<mask id="mask1_579_300" style="mask-type:luminance" maskUnits="userSpaceOnUse" x="211" y="156" width="21" height="28">
<path d="M211.332 156H231.176V184H211.332V156Z" fill="white"/>
</mask>
<g mask="url(#mask1_579_300)">
<path d="M212.644 169.959C211.879 177.115 213.144 183.12 220.421 183.891C225.483 184.432 229.452 178.985 230.212 171.828C230.978 164.672 229.259 157.339 224.202 156.797C219.139 156.255 213.405 162.797 212.644 169.959Z" fill="#CF967B"/>
</g>
<path d="M227.772 169.304C227.772 169.304 227.662 168.731 227.428 167.747C227.199 166.762 226.829 165.351 226.147 163.788C225.975 163.403 225.772 163.007 225.527 162.632C225.282 162.268 224.98 161.913 224.621 161.705C224.251 161.486 223.876 161.46 223.443 161.648C223.324 161.695 223.188 161.731 223.084 161.788L222.782 161.96C222.579 162.054 222.376 162.236 222.167 162.377C221.355 163.007 220.652 163.851 220.001 164.752C219.36 165.653 218.792 166.643 218.308 167.663C217.803 168.684 217.402 169.747 217.1 170.82C216.798 171.903 216.605 172.94 216.527 174.033C216.443 175.085 216.417 176.127 216.527 177.08C216.636 178.033 216.886 178.924 217.339 179.596C217.787 180.273 218.454 180.669 219.105 180.825C219.272 180.861 219.433 180.893 219.584 180.924C219.746 180.929 219.902 180.929 220.048 180.934C220.35 180.955 220.621 180.913 220.871 180.872C221.371 180.825 221.756 180.705 222.016 180.643C222.282 180.58 222.423 180.544 222.423 180.544C222.423 180.544 222.287 180.596 222.032 180.69C221.772 180.778 221.412 180.96 220.902 181.049C220.652 181.106 220.376 181.179 220.058 181.184C219.902 181.195 219.74 181.205 219.568 181.216C219.397 181.2 219.225 181.179 219.037 181.158C218.318 181.059 217.475 180.658 216.928 179.893C216.365 179.148 216.048 178.184 215.876 177.174C215.704 176.158 215.667 175.085 215.735 173.966C215.787 172.893 215.943 171.7 216.261 170.585C216.568 169.46 216.98 168.341 217.49 167.278C218.011 166.21 218.61 165.19 219.298 164.242C219.985 163.294 220.772 162.424 221.693 161.742C221.943 161.585 222.141 161.403 222.433 161.278L222.834 161.075C222.97 161.012 223.089 160.992 223.214 160.945L223.402 160.893L223.527 160.856L223.647 160.841C223.803 160.815 223.959 160.815 224.115 160.835C224.433 160.867 224.73 160.981 224.964 161.153C225.449 161.476 225.761 161.908 226.011 162.33C226.266 162.752 226.454 163.179 226.615 163.596C226.938 164.419 227.131 165.205 227.282 165.903C227.428 166.596 227.532 167.21 227.6 167.71C227.746 168.721 227.772 169.304 227.772 169.304Z" fill="#993F45"/>
<path d="M224.453 172.958C224.453 172.958 224.479 172.214 224.432 171.099C224.385 169.985 224.276 168.49 223.948 167.057C223.781 166.344 223.557 165.646 223.26 165.052C223.104 164.766 222.943 164.495 222.745 164.287C222.562 164.068 222.349 163.922 222.151 163.813C221.948 163.719 221.75 163.662 221.568 163.656C221.391 163.641 221.224 163.672 221.094 163.693C220.958 163.714 220.854 163.761 220.776 163.776C220.708 163.797 220.667 163.807 220.667 163.807L220.391 162.953C220.391 162.953 220.443 162.943 220.542 162.917C220.641 162.901 220.776 162.854 220.969 162.839C221.156 162.823 221.391 162.802 221.661 162.849C221.932 162.875 222.234 162.979 222.521 163.146C222.802 163.323 223.073 163.557 223.281 163.849C223.505 164.13 223.661 164.458 223.818 164.792C224.104 165.474 224.276 166.224 224.391 166.974C224.615 168.474 224.609 169.979 224.573 171.099C224.536 172.219 224.453 172.958 224.453 172.958Z" fill="#993F45"/>
<path d="M218.276 167.896C218.276 167.896 218.307 167.943 218.354 168.026C218.714 168.609 220.141 171.141 220.135 173.443C220.135 174.313 219.938 175.146 219.417 175.839C218.896 176.536 218.052 177.115 216.703 177.464L216.813 177.896C218.234 177.536 219.188 176.901 219.776 176.109C220.37 175.318 220.583 174.38 220.583 173.443C220.578 170.615 218.661 167.672 218.656 167.656L218.276 167.896Z" fill="#993F45"/>
<mask id="mask2_579_300" style="mask-type:luminance" maskUnits="userSpaceOnUse" x="71" y="101" width="146" height="132">
<path d="M71.332 101.336H216.665V232.737H71.332V101.336Z" fill="white"/>
</mask>
<g mask="url(#mask2_579_300)">
<path d="M163.464 102.648H124C95.3281 102.648 72.0781 125.904 72.0781 154.586V171.206C72.0781 198.747 93.5156 221.268 120.609 223.018C123.401 228.487 133.615 232.544 145.797 232.544C158.318 232.544 168.771 228.263 171.208 222.565C196.214 218.826 215.391 197.258 215.391 171.206V154.586C215.391 125.904 192.146 102.648 163.464 102.648Z" fill="#CF967B"/>
</g>
<path d="M109.797 158.219C109.797 158.219 108.818 158.755 107.255 159.375C106.474 159.667 105.563 160.021 104.557 160.318C103.552 160.625 102.458 160.885 101.365 161.12C100.812 161.214 100.26 161.323 99.7135 161.396C99.1667 161.458 98.6302 161.536 98.1042 161.568C97.5781 161.594 97.0729 161.646 96.5885 161.625C96.1042 161.615 95.651 161.625 95.2292 161.594C94.8073 161.563 94.4271 161.521 94.0885 161.484C93.75 161.448 93.4583 161.375 93.2188 161.339C92.7396 161.24 92.4688 161.182 92.4688 161.182C92.4688 161.182 92.7448 161.198 93.2344 161.224C93.4792 161.24 93.7656 161.276 94.1042 161.276C94.4427 161.271 94.8229 161.266 95.2396 161.276C95.651 161.276 96.099 161.234 96.5729 161.208C97.0469 161.198 97.5417 161.104 98.0573 161.068C98.5729 161.026 99.099 160.917 99.6354 160.849C100.172 160.776 100.714 160.661 101.255 160.563C101.792 160.448 102.339 160.344 102.87 160.219C103.391 160.083 103.917 159.979 104.417 159.833C105.422 159.578 106.354 159.318 107.151 159.068C107.943 158.818 108.615 158.625 109.073 158.464C109.536 158.307 109.797 158.219 109.797 158.219Z" fill="#993F45"/>
<path d="M111.589 159.828C111.589 159.828 111.438 160.036 111.146 160.375C110.854 160.703 110.438 161.182 109.885 161.714C109.344 162.25 108.667 162.833 107.927 163.432C107.547 163.719 107.167 164.036 106.745 164.313C106.333 164.594 105.917 164.885 105.479 165.151C105.047 165.422 104.604 165.672 104.156 165.911C103.724 166.161 103.271 166.365 102.839 166.563C102.411 166.776 101.979 166.943 101.568 167.099C101.161 167.26 100.771 167.401 100.406 167.505C100.036 167.615 99.7031 167.714 99.401 167.792C99.1042 167.859 98.8333 167.917 98.6198 167.964C98.1823 168.047 97.9375 168.099 97.9375 168.099C97.9375 168.099 98.1719 168.005 98.5885 167.854C98.7969 167.781 99.0521 167.693 99.3438 167.594C99.625 167.474 99.9427 167.339 100.292 167.198C100.646 167.063 101.016 166.891 101.401 166.708C101.792 166.531 102.208 166.333 102.62 166.115C103.042 165.906 103.469 165.677 103.896 165.427C104.328 165.198 104.755 164.938 105.177 164.667C106.036 164.156 106.859 163.573 107.625 163.036C108 162.75 108.375 162.49 108.714 162.224C109.052 161.953 109.375 161.703 109.667 161.469C110.255 160.995 110.745 160.594 111.073 160.292C111.401 160 111.589 159.828 111.589 159.828Z" fill="#993F45"/>
<path d="M186.52 157.891C186.52 157.891 186.785 157.979 187.249 158.135C187.707 158.297 188.374 158.49 189.165 158.74C189.962 158.99 190.895 159.25 191.9 159.505C192.4 159.646 192.926 159.75 193.452 159.891C193.983 160.016 194.525 160.12 195.061 160.234C195.603 160.328 196.15 160.448 196.681 160.521C197.223 160.589 197.749 160.698 198.264 160.74C198.78 160.776 199.27 160.865 199.743 160.88C200.217 160.901 200.665 160.943 201.082 160.943C201.493 160.938 201.874 160.943 202.212 160.943C202.551 160.943 202.842 160.906 203.087 160.896C203.572 160.865 203.853 160.854 203.853 160.854C203.853 160.854 203.577 160.906 203.103 161.005C202.858 161.047 202.572 161.12 202.233 161.156C201.889 161.193 201.509 161.234 201.087 161.266C200.671 161.297 200.212 161.281 199.728 161.292C199.249 161.313 198.738 161.266 198.217 161.24C197.691 161.208 197.155 161.13 196.603 161.063C196.056 160.995 195.504 160.885 194.952 160.792C193.853 160.557 192.764 160.297 191.764 159.984C190.759 159.693 189.842 159.339 189.061 159.042C187.504 158.427 186.52 157.891 186.52 157.891Z" fill="#993F45"/>
<path d="M187.062 160.312C187.062 160.312 187.25 160.484 187.578 160.776C187.906 161.073 188.396 161.479 188.979 161.953C189.276 162.182 189.594 162.437 189.938 162.703C190.276 162.974 190.651 163.229 191.021 163.516C191.792 164.057 192.609 164.635 193.469 165.146C193.891 165.422 194.318 165.672 194.75 165.906C195.177 166.156 195.604 166.385 196.026 166.594C196.443 166.818 196.849 167.005 197.245 167.188C197.63 167.37 198.005 167.542 198.354 167.677C198.703 167.818 199.026 167.953 199.307 168.073C199.594 168.172 199.849 168.26 200.057 168.333C200.474 168.49 200.708 168.573 200.708 168.573C200.708 168.573 200.464 168.526 200.026 168.443C199.807 168.396 199.547 168.339 199.245 168.271C198.943 168.193 198.604 168.094 198.245 167.984C197.875 167.88 197.484 167.74 197.078 167.578C196.672 167.422 196.24 167.255 195.807 167.047C195.375 166.844 194.922 166.641 194.49 166.391C194.047 166.156 193.604 165.901 193.172 165.63C192.734 165.365 192.313 165.073 191.901 164.792C191.484 164.516 191.104 164.198 190.724 163.911C189.974 163.312 189.302 162.734 188.766 162.193C188.214 161.667 187.797 161.188 187.5 160.854C187.208 160.516 187.062 160.312 187.062 160.312Z" fill="#993F45"/>
<path d="M151.616 102.643H136.23L139.829 99.3672H148.116L151.616 102.643Z" fill="#B28876"/>
<path d="M136.651 158.013H136.021C136.021 162.044 134.391 165.685 131.75 168.326C129.109 170.966 125.469 172.596 121.438 172.596C117.411 172.596 113.771 170.966 111.13 168.326C108.49 165.685 106.859 162.044 106.859 158.013C106.859 153.982 108.49 150.341 111.13 147.701C113.771 145.06 117.411 143.43 121.438 143.43C125.469 143.43 129.109 145.06 131.75 147.701C134.391 150.341 136.021 153.982 136.021 158.013H137.286C137.281 149.258 130.193 142.164 121.438 142.164C112.693 142.164 105.594 149.258 105.594 158.013C105.594 166.768 112.688 173.862 121.438 173.862C130.193 173.862 137.281 166.768 137.286 158.013H136.651Z" fill="#1E1518"/>
<path d="M187.796 156.404H187.16C187.16 160.43 185.525 164.076 182.889 166.716C180.249 169.352 176.608 170.987 172.582 170.987C168.551 170.987 164.91 169.352 162.27 166.716C159.634 164.076 158.004 160.43 158.004 156.404C158.004 152.372 159.634 148.732 162.27 146.091C164.91 143.451 168.551 141.82 172.582 141.82C176.608 141.82 180.249 143.451 182.889 146.091C185.525 148.732 187.16 152.372 187.16 156.404H188.426C188.426 147.648 181.327 140.555 172.582 140.555C163.832 140.555 156.738 147.648 156.738 156.404C156.738 165.159 163.832 172.253 172.582 172.253C181.332 172.253 188.426 165.159 188.426 156.404H187.796Z" fill="#1E1518"/>
<path d="M136.396 153.935L136.401 153.93C136.505 153.831 137.615 152.841 139.427 151.883C141.245 150.919 143.76 149.992 146.693 149.992C149.724 149.997 153.214 150.961 156.943 153.966L157.74 152.982C153.812 149.81 150 148.721 146.693 148.727C143.385 148.727 140.604 149.794 138.651 150.862C136.698 151.924 135.557 152.987 135.531 153.008L136.396 153.935Z" fill="#1E1518"/>
<path d="M105.652 157.891C105.652 157.891 102.647 156.703 100.751 156.406C98.8398 156.109 99.9075 152 101.074 151.302C102.246 150.599 108.21 150.5 108.21 150.5C108.21 150.5 105.939 155.974 105.652 157.891Z" fill="#1E1518"/>
<path d="M72.9414 151.685V154.93L100.645 155.768L101.743 151.602L72.9414 151.685Z" fill="#1E1518"/>
<path d="M188.475 157.891C188.475 157.891 191.475 156.703 193.376 156.406C195.277 156.109 194.215 152 193.048 151.302C191.876 150.599 185.918 150.5 185.918 150.5C185.918 150.5 188.178 155.974 188.475 157.891Z" fill="#1E1518"/>
<path d="M214.656 151.289L192.375 151.607L193.479 155.773L214.656 154.648V151.289Z" fill="#1E1518"/>
<mask id="mask3_579_300" style="mask-type:luminance" maskUnits="userSpaceOnUse" x="71" y="144" width="141" height="89">
<path d="M71.332 144H211.332V232.734H71.332V144Z" fill="white"/>
</mask>
<g mask="url(#mask3_579_300)">
<path d="M145.797 232.539C133.615 232.539 123.401 228.482 120.609 223.013C96.8542 221.477 77.4479 203.977 73.026 181.128C72.4063 177.914 72.0781 174.596 72.0781 171.201V161.107C72.2031 161.107 76.9427 161.081 84.2083 159.758C82.5052 164.695 80.7917 166.07 80.7917 166.07C70.3437 211.112 121.557 220.497 121.557 220.497C121.646 219.695 122.099 216.122 122.099 216.122C131.432 223.799 140.099 226.362 147.516 226.362C162.438 226.357 172.292 215.992 172.292 215.992C173.068 216.081 173.844 216.122 174.615 216.122C192.854 216.122 211.005 192.039 211.089 191.935C204.073 208.029 189.141 219.878 171.208 222.56C168.771 228.258 158.318 232.539 145.797 232.539ZM72.0781 161.107V154.581C72.0781 154.57 72.0781 154.555 72.0781 154.544C72.0781 154.534 72.0781 154.523 72.0781 154.513C72.0781 154.508 72.0781 154.508 72.0781 154.503C72.0833 150.977 72.4427 147.534 73.1146 144.211H87.1354C87.0833 144.643 87.0313 145.076 86.9896 145.508C86.9167 146.279 86.8333 147.023 86.75 147.737L82.4479 151.654L72.9427 151.685V154.93L78.6667 155.102L72.0781 161.107Z" fill="#CF967B"/>
<line x1="98.7138" y1="230.144" x2="88.7138" y2="224.144" stroke="#93B9C6" stroke-width="5"/>
</g>
<path d="M85.4622 155.31L78.6654 155.102L72.9414 154.93V151.685L82.4466 151.654L86.1914 151.648C85.9622 152.982 85.7174 154.201 85.4622 155.31Z" fill="#4D2C30"/>
<path d="M134.543 140.208C134.543 140.208 117.376 133.078 106.043 142.068C106.043 142.068 110.861 133.641 119.965 132.641C119.965 132.641 132.085 131.521 134.543 140.208Z" fill="#908E84"/>
<path d="M158.035 141.471C158.035 141.471 175.202 134.341 186.54 143.325C186.54 143.325 181.728 134.898 172.624 133.898C172.624 133.898 160.493 132.783 158.035 141.471Z" fill="#908E84"/>
<path d="M153.191 159.477C153.191 159.477 153.353 159.888 153.676 160.596C154.004 161.294 154.478 162.289 155.15 163.414C155.822 164.539 156.676 165.805 157.759 166.987C158.296 167.586 158.895 168.159 159.556 168.669C159.879 168.935 160.223 169.18 160.572 169.409L161.139 169.794C161.337 169.966 161.556 170.133 161.712 170.326C162.426 171.049 162.801 172.055 162.9 173.003C162.999 173.961 162.858 174.888 162.587 175.721C162.066 177.398 161.118 178.737 160.176 179.727C159.228 180.711 158.254 181.32 157.546 181.654C157.191 181.826 156.9 181.935 156.697 181.997C156.504 182.06 156.395 182.091 156.395 182.091C156.395 182.091 156.493 182.044 156.681 181.951C156.868 181.862 157.129 181.706 157.452 181.492C158.092 181.076 158.952 180.378 159.754 179.352C160.561 178.341 161.337 177.008 161.728 175.482C161.915 174.716 162.004 173.904 161.895 173.128C161.78 172.352 161.452 171.622 160.915 171.076C160.79 170.924 160.645 170.826 160.514 170.706L160.238 170.518L159.978 170.346C159.587 170.107 159.207 169.846 158.853 169.56C158.139 168.992 157.504 168.357 156.941 167.706C155.832 166.388 155.04 164.997 154.483 163.763C153.931 162.523 153.603 161.445 153.421 160.685C153.233 159.919 153.191 159.477 153.191 159.477Z" fill="#993F45"/>
<path d="M134.129 188.992C134.129 188.992 150.426 192.711 165.592 188.992C165.592 188.992 149.4 211.69 134.129 188.992Z" fill="white"/>
<path d="M139.828 205.5C139.828 205.5 150.333 209.948 156.396 205.5C156.396 205.5 148.042 219.245 139.828 205.5Z" fill="#312101" fill-opacity="0.44"/>
<path d="M136.469 158.643C136.469 158.643 125.87 146.565 113.839 156.497C113.839 156.497 109.531 155.919 107.734 154.888C107.734 154.888 110.427 158.404 113.839 158.643C113.839 158.643 123.896 158.242 136.469 158.643Z" fill="#372122"/>
<path d="M157.922 158.643C157.922 158.643 168.521 146.565 180.552 156.497C180.552 156.497 184.859 155.919 186.656 154.888C186.656 154.888 183.964 158.404 180.552 158.643C180.552 158.643 170.49 158.242 157.922 158.643Z" fill="#372122"/>
<path d="M72.0769 161.109C72.0769 161.109 135.03 151.239 145.176 102.645C145.176 102.645 167.389 148.499 215.389 162.374C215.389 162.374 226.566 142.213 216.759 123.395C206.947 104.572 193.494 88.1607 145.176 92.1607C145.176 92.1607 60.1029 89.5201 72.0769 161.109Z" fill="#9D9A8E"/>
<line x1="279.29" y1="222.866" x2="262.342" y2="268.755" stroke="#F4EF6A" stroke-width="5"/>
<line x1="39.4784" y1="230.984" x2="54.4784" y2="241.984" stroke="#D9F3E8" stroke-width="5"/>
<line x1="255.326" y1="101.918" x2="247.326" y2="122.194" stroke="#F4EF6A" stroke-width="5"/>
<line y1="-2.5" x2="24.009" y2="-2.5" transform="matrix(-0.993103 0.117245 -0.0802876 -0.996772 256.844 202)" stroke="#F7C6C2" stroke-width="5"/>
<line x1="151.608" y1="3.08568" x2="168.443" y2="17.2263" stroke="#D1B5DB" stroke-width="5"/>
<line x1="95.2741" y1="38.1789" x2="89.6137" y2="19.7371" stroke="#D9F3E8" stroke-width="5"/>
<line x1="48.9861" y1="193.482" x2="64.5634" y2="213.857" stroke="#F4EF6A" stroke-width="5"/>
<line x1="62.37" y1="79.8716" x2="42.9868" y2="71.2829" stroke="#93B9C6" stroke-width="5"/>
<line x1="40.223" y1="180.258" x2="29.1605" y2="199.258" stroke="#D1B5DB" stroke-width="5"/>
<line x1="207.788" y1="230.104" x2="220.007" y2="215.176" stroke="#D9F3E8" stroke-width="5"/>
<line x1="248.041" y1="179.064" x2="258.041" y2="166.447" stroke="#D1B5DB" stroke-width="5"/>
<line x1="43.1952" y1="138.196" x2="35.1929" y2="152.881" stroke="#F7C6C2" stroke-width="5"/>
<line x1="242.314" y1="93.3955" x2="233.732" y2="75.0557" stroke="#93B9C6" stroke-width="5"/>
<line x1="125.308" y1="13.6608" x2="114.172" y2="17.1216" stroke="#93B9C6" stroke-width="5"/>
</g>
<line y1="-2.5" x2="18.6766" y2="-2.5" transform="matrix(-0.266728 0.963772 -0.961047 -0.276383 81.2578 245)" stroke="#F4EF6A" stroke-width="5"/>
<line y1="-2.5" x2="13.5077" y2="-2.5" transform="matrix(-0.580734 -0.814093 0.803354 -0.595501 116.492 263)" stroke="#D9F3E8" stroke-width="5"/>
<line x1="25.4281" y1="110.673" x2="42.266" y2="97.0588" stroke="#D1B5DB" stroke-width="5"/>
<line x1="157.223" y1="245.258" x2="146.16" y2="264.258" stroke="#D1B5DB" stroke-width="5"/>
<line x1="1.68336" y1="135.152" x2="19.2528" y2="151.153" stroke="#93B9C6" stroke-width="5"/>
<line x1="192.5" y1="245" x2="192.5" y2="263" stroke="#F7C6C2" stroke-width="5"/>
<line x1="65.2689" y1="33.0498" x2="54.4994" y2="56.3266" stroke="#F4EF6A" stroke-width="5"/>
<line x1="274.61" y1="149.734" x2="268.95" y2="131.292" stroke="#D9F3E8" stroke-width="5"/>
<line x1="245.649" y1="247.414" x2="225.174" y2="252.916" stroke="#93B9C6" stroke-width="5"/>
<line x1="244.407" y1="57.4286" x2="230.907" y2="54.1309" stroke="#D1B5DB" stroke-width="5"/>
<line x1="218.551" y1="20.9606" x2="202.518" y2="33.645" stroke="#F7C6C2" stroke-width="5"/>
<defs>
<clipPath id="clip0_579_300">
<rect width="250" height="250" fill="white" transform="translate(18)"/>
</clipPath>
</defs>
</svg>
