<svg width="1260" height="1209" viewBox="0 0 1260 1209" fill="none" xmlns="http://www.w3.org/2000/svg">
<g clip-path="url(#clip0_579_300)">
<path d="M811.816 209.171C817.285 282.891 745.222 348.302 650.907 355.262C556.591 362.245 475.698 308.175 470.253 234.455C464.784 160.759 536.847 95.3248 631.139 88.3647C725.479 81.381 806.372 135.475 811.816 209.171Z" fill="#918E84"/>
<mask id="mask0_579_300" style="mask-type:luminance" maskUnits="userSpaceOnUse" x="251" y="218" width="801" height="704">
<path d="M251.328 218.164H1051.31V921.178H251.328V218.164Z" fill="white"/>
</mask>
<g mask="url(#mask0_579_300)">
<path d="M1051.37 569.413C1051.37 761.407 872.258 917.038 651.335 917.038C430.389 917.038 251.25 761.407 251.25 569.413C251.25 377.42 430.389 221.789 651.335 221.789C872.258 221.789 1051.37 377.42 1051.37 569.413Z" fill="#9D9A8E"/>
</g>
<path d="M341.532 772.529C344.988 805.056 339.235 832.352 306.163 835.856C283.152 838.318 265.137 813.555 261.657 781.028C258.2 748.5 266.013 715.167 289 712.705C311.987 710.243 338.075 739.977 341.532 772.529Z" fill="#CF967B"/>
<path d="M272.797 769.538C272.797 769.538 272.939 766.887 273.578 762.294C273.91 760.021 274.359 757.228 275.046 754.079C275.709 750.907 276.585 747.332 278.052 743.592C278.786 741.698 279.639 739.757 280.775 737.816C281.935 735.922 283.332 733.957 285.533 732.489C286.622 731.708 287.972 731.187 289.392 731.045C290.102 730.95 290.836 730.95 291.546 731.069L292.091 731.14L292.659 731.305L293.511 731.542C294.08 731.755 294.624 731.85 295.24 732.134L297.062 733.057C298.388 733.625 299.288 734.454 300.424 735.164C304.591 738.289 308.189 742.243 311.29 746.527C314.415 750.836 317.138 755.5 319.505 760.329C321.825 765.182 323.695 770.248 325.092 775.386C326.536 780.452 327.223 785.849 327.483 790.75C327.791 795.816 327.625 800.693 326.844 805.309C326.063 809.902 324.619 814.305 322.085 817.667C319.576 821.147 315.741 822.97 312.474 823.42C311.622 823.514 310.817 823.609 310.059 823.68C309.278 823.633 308.544 823.585 307.834 823.538C306.39 823.514 305.135 823.183 303.999 822.922C301.679 822.52 300.022 821.691 298.862 821.289C297.702 820.863 297.086 820.626 297.086 820.626C297.086 820.626 297.725 820.792 298.933 821.076C300.116 821.36 301.868 821.904 304.141 822.118C305.277 822.307 306.508 822.496 307.858 822.402C308.544 822.378 309.231 822.378 309.965 822.354C310.675 822.212 311.409 822.07 312.166 821.928C315.125 821.194 318.156 819.419 320.192 816.341C322.275 813.287 323.388 809.239 323.885 804.907C324.405 800.551 324.263 795.816 323.885 791.058C323.53 786.062 322.654 781.351 321.281 776.427C319.907 771.574 318.085 766.721 315.812 762.105C313.587 757.465 311.006 752.967 308.094 748.847C305.159 744.752 301.939 740.917 298.246 738.052C297.323 737.413 296.376 736.585 295.453 736.158L294.103 735.377C293.63 735.117 292.991 734.951 292.446 734.738C290.481 733.886 288.8 734.004 287.119 734.998C285.486 735.945 284.113 737.555 283 739.212C281.864 740.917 280.964 742.716 280.159 744.468C277.105 751.57 275.401 757.986 274.359 762.46C273.294 766.934 272.797 769.538 272.797 769.538Z" fill="#993F45"/>
<path d="M287.842 786.16C287.842 786.16 287.463 782.798 287.297 777.708C287.132 772.618 287.108 765.777 288.126 758.959C288.671 755.55 289.452 752.141 290.73 749.039C291.417 747.524 292.151 746.033 293.169 744.754C294.115 743.429 295.346 742.387 296.625 741.558C297.927 740.801 299.324 740.351 300.531 740.209C301.786 739.996 302.827 740.091 303.703 740.162C304.556 740.233 305.171 740.446 305.621 740.517C306.071 740.635 306.307 740.683 306.307 740.683L305.029 744.565C305.029 744.565 304.863 744.518 304.532 744.423C304.224 744.352 303.727 744.139 303.111 744.044C302.52 743.949 301.786 743.807 300.957 743.878C300.129 743.902 299.229 744.163 298.306 744.589C297.406 745.086 296.435 745.749 295.607 746.743C294.731 747.69 293.997 748.921 293.263 750.223C291.914 752.922 290.896 756.094 290.138 759.337C288.647 765.848 288.15 772.642 287.937 777.708C287.724 782.774 287.842 786.16 287.842 786.16Z" fill="#993F45"/>
<path d="M314.189 762.062C314.165 762.134 305.453 775.509 305.43 788.364C305.43 792.625 306.4 796.863 309.075 800.485C311.774 804.083 316.107 806.948 322.569 808.605L323.09 806.64C316.935 805.054 313.076 802.402 310.733 799.254C308.389 796.082 307.466 792.317 307.466 788.364C307.466 782.398 309.549 776.054 311.68 771.248C312.745 768.833 313.81 766.821 314.591 765.4C314.994 764.667 315.325 764.122 315.538 763.743C315.775 763.365 315.917 763.151 315.917 763.151L314.189 762.062Z" fill="#993F45"/>
<mask id="mask1_579_300" style="mask-type:luminance" maskUnits="userSpaceOnUse" x="961" y="709" width="91" height="128">
<path d="M961.102 709.094H1051.3V836.363H961.102V709.094Z" fill="white"/>
</mask>
<g mask="url(#mask1_579_300)">
<path d="M967.052 772.537C963.572 805.064 969.324 832.36 1002.4 835.864C1025.41 838.326 1043.45 813.563 1046.9 781.035C1050.38 748.508 1042.57 715.175 1019.58 712.713C996.573 710.251 970.508 739.985 967.052 772.537Z" fill="#CF967B"/>
</g>
<path d="M1035.83 769.538C1035.83 769.538 1035.33 766.934 1034.27 762.46C1033.23 757.986 1031.55 751.57 1028.45 744.468C1027.66 742.716 1026.74 740.917 1025.63 739.212C1024.52 737.555 1023.14 735.945 1021.51 734.998C1019.83 734.004 1018.12 733.886 1016.16 734.738C1015.61 734.951 1015 735.117 1014.53 735.377L1013.15 736.158C1012.23 736.585 1011.31 737.413 1010.36 738.052C1006.67 740.917 1003.47 744.752 1000.51 748.847C997.599 752.943 995.018 757.441 992.817 762.081C990.52 766.721 988.698 771.551 987.325 776.427C985.951 781.351 985.076 786.062 984.72 791.034C984.342 795.816 984.223 800.551 984.72 804.883C985.218 809.215 986.354 813.264 988.414 816.317C990.449 819.395 993.48 821.194 996.439 821.904C997.196 822.07 997.93 822.212 998.617 822.354C999.351 822.378 1000.06 822.378 1000.72 822.402C1002.1 822.496 1003.33 822.307 1004.46 822.118C1006.74 821.904 1008.49 821.36 1009.67 821.076C1010.88 820.792 1011.52 820.626 1011.52 820.626C1011.52 820.626 1010.9 820.863 1009.74 821.289C1008.56 821.691 1006.93 822.52 1004.61 822.922C1003.47 823.183 1002.22 823.514 1000.77 823.538C1000.06 823.585 999.327 823.633 998.546 823.68C997.765 823.609 996.983 823.514 996.131 823.42C992.864 822.97 989.029 821.147 986.543 817.667C983.987 814.282 982.542 809.902 981.761 805.309C980.98 800.693 980.814 795.816 981.122 790.726C981.359 785.849 982.069 780.428 983.513 775.362C984.91 770.248 986.78 765.159 989.1 760.329C991.467 755.476 994.19 750.836 997.315 746.527C1000.44 742.219 1004.01 738.265 1008.2 735.164C1009.34 734.454 1010.24 733.625 1011.57 733.057L1013.39 732.134C1014 731.85 1014.55 731.755 1015.12 731.542L1015.97 731.305L1016.54 731.14L1017.08 731.069C1017.79 730.95 1018.5 730.95 1019.21 731.045C1020.66 731.187 1022.01 731.708 1023.07 732.489C1025.27 733.957 1026.69 735.922 1027.83 737.839C1028.99 739.757 1029.84 741.698 1030.58 743.592C1032.04 747.332 1032.92 750.907 1033.61 754.079C1034.27 757.228 1034.74 760.021 1035.05 762.294C1035.71 766.887 1035.83 769.538 1035.83 769.538Z" fill="#993F45"/>
<path d="M1020.75 786.16C1020.75 786.16 1020.87 782.774 1020.65 777.708C1020.44 772.642 1019.94 765.848 1018.45 759.337C1017.69 756.094 1016.67 752.922 1015.33 750.223C1014.62 748.921 1013.88 747.69 1012.98 746.743C1012.15 745.749 1011.18 745.086 1010.28 744.589C1009.36 744.163 1008.46 743.902 1007.63 743.878C1006.83 743.807 1006.07 743.949 1005.48 744.044C1004.86 744.139 1004.39 744.352 1004.03 744.423C1003.73 744.518 1003.54 744.565 1003.54 744.565L1002.28 740.683C1002.28 740.683 1002.52 740.635 1002.97 740.517C1003.42 740.446 1004.03 740.233 1004.91 740.162C1005.76 740.091 1006.83 739.996 1008.06 740.209C1009.29 740.327 1010.66 740.801 1011.96 741.558C1013.24 742.363 1014.47 743.429 1015.42 744.754C1016.44 746.033 1017.15 747.524 1017.86 749.039C1019.16 752.141 1019.94 755.55 1020.46 758.959C1021.48 765.777 1021.46 772.618 1021.29 777.708C1021.13 782.798 1020.75 786.16 1020.75 786.16Z" fill="#993F45"/>
<path d="M992.657 763.151C992.657 763.151 992.799 763.365 993.012 763.743C994.646 766.395 1001.13 777.9 1001.11 788.364C1001.11 792.317 1000.21 796.105 997.842 799.254C995.474 802.426 991.639 805.054 985.508 806.64L986.005 808.605C992.468 806.971 996.8 804.083 999.475 800.485C1002.17 796.886 1003.14 792.625 1003.14 788.364C1003.12 775.509 994.409 762.134 994.385 762.062L992.657 763.151Z" fill="#993F45"/>
<mask id="mask2_579_300" style="mask-type:luminance" maskUnits="userSpaceOnUse" x="324" y="460" width="662" height="598">
<path d="M324.734 460.609H985.325V1057.87H324.734V460.609Z" fill="white"/>
</mask>
<g mask="url(#mask2_579_300)">
<path d="M743.503 466.578H564.128C433.804 466.578 328.125 572.281 328.125 702.652V778.195C328.125 903.381 425.566 1005.75 548.716 1013.7C561.405 1038.56 607.83 1057 663.202 1057C720.114 1057 767.627 1037.54 778.706 1011.64C892.363 994.643 979.53 896.61 979.53 778.195V702.652C979.53 572.281 873.874 466.578 743.503 466.578Z" fill="#CF967B"/>
</g>
<path d="M499.583 719.172C499.583 719.172 495.132 721.61 488.03 724.427C484.479 725.753 480.336 727.363 475.767 728.712C471.198 730.109 466.226 731.293 461.255 732.358C458.746 732.784 456.236 733.281 453.75 733.613C451.265 733.897 448.826 734.252 446.435 734.394C444.044 734.512 441.748 734.749 439.546 734.654C437.345 734.607 435.285 734.654 433.367 734.512C431.45 734.37 429.722 734.181 428.183 734.015C426.644 733.85 425.318 733.518 424.229 733.352C422.051 732.903 420.82 732.642 420.82 732.642C420.82 732.642 422.075 732.713 424.3 732.832C425.413 732.903 426.715 733.068 428.254 733.068C429.793 733.045 431.521 733.021 433.415 733.068C435.285 733.068 437.321 732.879 439.475 732.761C441.629 732.713 443.878 732.287 446.222 732.121C448.566 731.932 450.957 731.435 453.395 731.127C455.834 730.796 458.296 730.275 460.758 729.825C463.196 729.304 465.682 728.831 468.097 728.263C470.464 727.647 472.855 727.174 475.128 726.511C479.697 725.351 483.934 724.167 487.556 723.031C491.155 721.894 494.209 721.018 496.292 720.285C498.399 719.574 499.583 719.172 499.583 719.172Z" fill="#993F45"/>
<path d="M507.721 726.477C507.721 726.477 507.034 727.424 505.708 728.962C504.383 730.454 502.489 732.632 499.979 735.046C497.517 737.485 494.44 740.136 491.078 742.859C489.35 744.161 487.622 745.605 485.704 746.86C483.834 748.138 481.94 749.464 479.951 750.671C477.986 751.902 475.974 753.038 473.938 754.127C471.973 755.264 469.914 756.187 467.949 757.087C466.008 758.057 464.043 758.815 462.172 759.525C460.326 760.259 458.55 760.898 456.893 761.372C455.212 761.869 453.697 762.319 452.324 762.674C450.975 762.981 449.744 763.242 448.773 763.455C446.785 763.834 445.672 764.07 445.672 764.07C445.672 764.07 446.737 763.644 448.631 762.958C449.578 762.626 450.738 762.224 452.064 761.774C453.342 761.23 454.786 760.614 456.372 759.975C457.982 759.359 459.663 758.578 461.415 757.749C463.19 756.945 465.084 756.045 466.955 755.051C468.872 754.104 470.813 753.062 472.755 751.926C474.719 750.884 476.661 749.7 478.578 748.469C482.484 746.149 486.225 743.498 489.705 741.06C491.409 739.757 493.114 738.574 494.653 737.366C496.191 736.135 497.659 734.999 498.985 733.934C501.66 731.779 503.885 729.957 505.377 728.584C506.868 727.258 507.721 726.477 507.721 726.477Z" fill="#993F45"/>
<path d="M848.32 717.672C848.32 717.672 849.528 718.074 851.635 718.785C853.718 719.518 856.748 720.394 860.347 721.531C863.969 722.667 868.206 723.851 872.775 725.011C875.048 725.65 877.439 726.123 879.83 726.763C882.245 727.331 884.707 727.804 887.145 728.325C889.607 728.751 892.093 729.296 894.508 729.627C896.97 729.935 899.361 730.432 901.704 730.621C904.048 730.787 906.273 731.19 908.428 731.261C910.582 731.355 912.618 731.545 914.512 731.545C916.382 731.521 918.11 731.545 919.649 731.545C921.188 731.545 922.514 731.379 923.626 731.332C925.828 731.19 927.106 731.142 927.106 731.142C927.106 731.142 925.852 731.379 923.697 731.829C922.585 732.018 921.283 732.35 919.744 732.515C918.181 732.681 916.453 732.87 914.536 733.012C912.642 733.154 910.558 733.083 908.357 733.131C906.179 733.225 903.859 733.012 901.491 732.894C899.1 732.752 896.662 732.397 894.153 732.089C891.667 731.781 889.157 731.284 886.648 730.858C881.653 729.793 876.705 728.609 872.16 727.189C867.591 725.863 863.424 724.253 859.873 722.904C852.795 720.11 848.32 717.672 848.32 717.672Z" fill="#993F45"/>
<path d="M850.781 728.695C850.781 728.695 851.634 729.477 853.125 730.802C854.616 732.152 856.842 733.998 859.493 736.153C860.843 737.194 862.287 738.354 863.849 739.562C865.388 740.793 867.092 741.953 868.773 743.255C872.277 745.717 875.994 748.344 879.9 750.664C881.817 751.919 883.759 753.056 885.724 754.121C887.665 755.257 889.606 756.299 891.524 757.246C893.418 758.264 895.264 759.116 897.063 759.945C898.815 760.773 900.52 761.554 902.106 762.17C903.692 762.809 905.16 763.425 906.438 763.969C907.74 764.419 908.9 764.821 909.847 765.153C911.741 765.863 912.806 766.242 912.806 766.242C912.806 766.242 911.694 766.029 909.705 765.65C908.711 765.437 907.527 765.176 906.154 764.869C904.781 764.514 903.242 764.064 901.609 763.567C899.928 763.093 898.152 762.454 896.306 761.72C894.459 761.01 892.494 760.252 890.529 759.305C888.564 758.382 886.505 757.459 884.54 756.322C882.528 755.257 880.515 754.097 878.55 752.866C876.562 751.659 874.644 750.333 872.774 749.055C870.88 747.8 869.152 746.356 867.424 745.054C864.015 742.331 860.961 739.704 858.523 737.242C856.013 734.85 854.119 732.672 852.77 731.157C851.444 729.619 850.781 728.695 850.781 728.695Z" fill="#993F45"/>
<path d="M689.674 466.547H619.742L636.101 451.656H673.766L689.674 466.547Z" fill="#B28876"/>
<path d="M621.651 718.234H618.786C618.786 736.558 611.376 753.106 599.374 765.108C587.371 777.111 570.823 784.521 552.5 784.521C534.2 784.521 517.652 777.111 505.649 765.108C493.647 753.106 486.237 736.558 486.237 718.234C486.237 699.911 493.647 683.363 505.649 671.36C517.652 659.358 534.2 651.948 552.5 651.948C570.823 651.948 587.371 659.358 599.374 671.36C611.376 683.363 618.786 699.911 618.786 718.234H624.539C624.515 678.439 592.295 646.195 552.5 646.195C512.752 646.195 480.484 678.439 480.484 718.234C480.484 758.03 512.728 790.273 552.5 790.273C592.295 790.273 624.515 758.03 624.539 718.234H621.651Z" fill="#1E1518"/>
<path d="M854.119 710.922H851.231C851.231 729.222 843.798 745.793 831.819 757.796C819.816 769.775 803.268 777.208 784.968 777.208C766.645 777.208 750.097 769.775 738.095 757.796C726.116 745.793 718.706 729.222 718.706 710.922C718.706 692.598 726.116 676.05 738.095 664.048C750.097 652.045 766.645 644.636 784.968 644.636C803.268 644.636 819.816 652.045 831.819 664.048C843.798 676.05 851.231 692.598 851.231 710.922H856.984C856.984 671.126 824.717 638.883 784.968 638.883C745.197 638.883 712.953 671.126 712.953 710.922C712.953 750.717 745.197 782.961 784.968 782.961C824.74 782.961 856.984 750.717 856.984 710.922H854.119Z" fill="#1E1518"/>
<path d="M620.477 699.705L620.5 699.681C620.974 699.232 626.016 694.734 634.255 690.378C642.517 685.998 653.951 681.784 667.28 681.784C681.058 681.808 696.919 686.187 713.869 699.847L717.491 695.373C699.641 680.955 682.312 676.008 667.28 676.031C652.247 676.031 639.605 680.884 630.727 685.738C621.85 690.567 616.665 695.396 616.547 695.491L620.477 699.705Z" fill="#1E1518"/>
<path d="M480.736 717.671C480.736 717.671 467.077 712.273 458.459 710.924C449.771 709.575 454.624 690.896 459.927 687.724C465.254 684.528 492.36 684.078 492.36 684.078C492.36 684.078 482.038 708.959 480.736 717.671Z" fill="#1E1518"/>
<path d="M332.062 689.465V704.213L457.983 708.025L462.978 689.086L332.062 689.465Z" fill="#1E1518"/>
<path d="M857.194 717.671C857.194 717.671 870.83 712.273 879.471 710.924C888.112 709.575 883.282 690.896 877.98 687.724C872.653 684.528 845.57 684.078 845.57 684.078C845.57 684.078 855.845 708.959 857.194 717.671Z" fill="#1E1518"/>
<path d="M976.198 687.68L874.922 689.124L879.941 708.063L976.198 702.949V687.68Z" fill="#1E1518"/>
<mask id="mask3_579_300" style="mask-type:luminance" maskUnits="userSpaceOnUse" x="324" y="654" width="638" height="404">
<path d="M324.734 654.531H961.083V1057.86H324.734V654.531Z" fill="white"/>
</mask>
<g mask="url(#mask3_579_300)">
<path d="M663.202 1056.97C607.83 1056.97 561.405 1038.53 548.716 1013.67C440.741 1006.69 352.533 927.148 332.434 823.291C329.616 808.685 328.125 793.604 328.125 778.169V732.29C328.693 732.29 350.236 732.171 383.261 726.158C375.52 748.601 367.731 754.851 367.731 754.851C320.242 959.581 553.025 1002.24 553.025 1002.24C553.427 998.595 555.487 982.355 555.487 982.355C597.91 1017.25 637.303 1028.9 671.015 1028.9C738.84 1028.87 783.63 981.763 783.63 981.763C787.158 982.165 790.685 982.355 794.189 982.355C877.094 982.355 959.597 872.888 959.975 872.414C928.087 945.566 860.215 999.423 778.706 1011.62C767.627 1037.51 720.114 1056.97 663.202 1056.97ZM328.125 732.29V702.626C328.125 702.579 328.125 702.508 328.125 702.461C328.125 702.413 328.125 702.366 328.125 702.319C328.125 702.295 328.125 702.295 328.125 702.271C328.149 686.244 329.782 670.596 332.836 655.492H396.566C396.329 657.457 396.092 659.422 395.903 661.387C395.571 664.891 395.193 668.276 394.814 671.519L375.259 689.322L332.055 689.464V704.213L358.072 704.994L328.125 732.29Z" fill="#CF967B"/>
<line x1="449.185" y1="1046.1" x2="403.731" y2="1018.83" stroke="#93B9C6" stroke-width="22.7267"/>
</g>
<path d="M388.974 705.947L358.08 705L332.062 704.219V689.47L375.267 689.328L392.288 689.305C391.247 695.365 390.134 700.905 388.974 705.947Z" fill="#4D2C30"/>
<path d="M612.066 637.299C612.066 637.299 534.037 604.89 482.523 645.751C482.523 645.751 504.422 607.447 545.803 602.901C545.803 602.901 600.892 597.811 612.066 637.299Z" fill="#908E84"/>
<path d="M718.836 643.055C718.836 643.055 796.864 610.645 848.402 651.482C848.402 651.482 826.527 613.178 785.146 608.633C785.146 608.633 730.01 603.567 718.836 643.055Z" fill="#908E84"/>
<path d="M696.82 724.875C696.82 724.875 697.554 726.745 699.022 729.965C700.513 733.137 702.668 737.659 705.722 742.772C708.776 747.886 712.658 753.639 717.582 759.012C720.021 761.735 722.743 764.339 725.75 766.659C727.217 767.866 728.78 768.979 730.366 770.021L732.946 771.773C733.846 772.554 734.84 773.311 735.55 774.187C738.794 777.478 740.498 782.047 740.948 786.356C741.398 790.711 740.759 794.925 739.528 798.713C737.16 806.336 732.852 812.42 728.567 816.918C724.258 821.393 719.831 824.162 716.612 825.678C715.002 826.459 713.676 826.956 712.753 827.24C711.877 827.524 711.38 827.666 711.38 827.666C711.38 827.666 711.829 827.453 712.682 827.027C713.534 826.624 714.718 825.914 716.185 824.944C719.097 823.05 723.003 819.877 726.649 815.214C730.319 810.621 733.846 804.561 735.621 797.624C736.474 794.144 736.876 790.451 736.379 786.924C735.858 783.396 734.367 780.082 731.928 777.596C731.36 776.91 730.697 776.46 730.106 775.915L728.851 775.063L727.667 774.282C725.892 773.193 724.163 772.009 722.554 770.707C719.31 768.127 716.422 765.239 713.865 762.279C708.823 756.29 705.224 749.969 702.691 744.358C700.182 738.724 698.691 733.824 697.862 730.367C697.01 726.887 696.82 724.875 696.82 724.875Z" fill="#993F45"/>
<path d="M610.188 859.047C610.188 859.047 684.262 875.95 753.2 859.047C753.2 859.047 679.599 962.217 610.188 859.047Z" fill="white"/>
<path d="M636.086 934.062C636.086 934.062 683.836 954.28 711.392 934.062C711.392 934.062 673.419 996.537 636.086 934.062Z" fill="#312101" fill-opacity="0.44"/>
<path d="M620.819 721.099C620.819 721.099 572.643 666.2 517.956 711.346C517.956 711.346 498.378 708.718 490.211 704.031C490.211 704.031 502.45 720.01 517.956 721.099C517.956 721.099 563.67 719.277 620.819 721.099Z" fill="#372122"/>
<path d="M718.328 721.099C718.328 721.099 766.504 666.2 821.19 711.346C821.19 711.346 840.768 708.718 848.936 704.031C848.936 704.031 836.697 720.01 821.19 721.099C821.19 721.099 775.453 719.277 718.328 721.099Z" fill="#372122"/>
<path d="M328.133 732.303C328.133 732.303 614.276 687.441 660.393 466.566C660.393 466.566 761.361 674.989 979.538 738.056C979.538 738.056 1030.34 646.415 985.764 560.882C941.163 475.325 880.014 400.73 660.393 418.911C660.393 418.911 273.707 406.908 328.133 732.303Z" fill="#9D9A8E"/>
<line x1="1269.98" y1="1013" x2="1192.94" y2="1221.58" stroke="#F4EF6A" stroke-width="22.7267"/>
<line x1="179.954" y1="1049.9" x2="248.134" y2="1099.9" stroke="#D9F3E8" stroke-width="22.7267"/>
<line x1="1161.05" y1="463.249" x2="1124.69" y2="555.41" stroke="#F4EF6A" stroke-width="22.7267"/>
<line y1="-11.3634" x2="109.129" y2="-11.3634" transform="matrix(-0.993103 0.117245 -0.0802876 -0.996772 1167.96 918.164)" stroke="#F7C6C2" stroke-width="22.7267"/>
<line x1="689.629" y1="14.041" x2="766.151" y2="78.3147" stroke="#D1B5DB" stroke-width="22.7267"/>
<line x1="433.574" y1="173.545" x2="407.846" y2="89.7209" stroke="#D9F3E8" stroke-width="22.7267"/>
<line x1="223.176" y1="879.45" x2="293.98" y2="972.062" stroke="#F4EF6A" stroke-width="22.7267"/>
<line x1="284.006" y1="363.069" x2="195.902" y2="324.03" stroke="#93B9C6" stroke-width="22.7267"/>
<line x1="183.351" y1="819.343" x2="133.068" y2="905.704" stroke="#D1B5DB" stroke-width="22.7267"/>
<line x1="944.988" y1="1045.93" x2="1000.53" y2="978.076" stroke="#D9F3E8" stroke-width="22.7267"/>
<line x1="1127.95" y1="813.918" x2="1173.41" y2="756.569" stroke="#D1B5DB" stroke-width="22.7267"/>
<line x1="196.861" y1="628.164" x2="160.487" y2="694.91" stroke="#F7C6C2" stroke-width="22.7267"/>
<line x1="1101.91" y1="424.512" x2="1062.9" y2="341.151" stroke="#93B9C6" stroke-width="22.7267"/>
<line x1="570.083" y1="62.0858" x2="519.464" y2="77.8164" stroke="#93B9C6" stroke-width="22.7267"/>
</g>
<line y1="-11.3634" x2="84.8917" y2="-11.3634" transform="matrix(-0.266728 0.963772 -0.961047 -0.276383 369.859 1113.62)" stroke="#F4EF6A" stroke-width="22.7267"/>
<line y1="-11.3634" x2="61.397" y2="-11.3634" transform="matrix(-0.580734 -0.814093 0.803354 -0.595501 530.008 1195.43)" stroke="#D9F3E8" stroke-width="22.7267"/>
<line x1="116.09" y1="503.07" x2="192.623" y2="441.188" stroke="#D1B5DB" stroke-width="22.7267"/>
<line x1="715.14" y1="1114.78" x2="664.858" y2="1201.14" stroke="#D1B5DB" stroke-width="22.7267"/>
<line x1="8.15924" y1="614.325" x2="88.0186" y2="687.057" stroke="#93B9C6" stroke-width="22.7267"/>
<line x1="875.496" y1="1113.62" x2="875.496" y2="1195.43" stroke="#F7C6C2" stroke-width="22.7267"/>
<line x1="297.18" y1="150.24" x2="248.229" y2="256.042" stroke="#F4EF6A" stroke-width="22.7267"/>
<line x1="1248.71" y1="680.616" x2="1222.98" y2="596.791" stroke="#D9F3E8" stroke-width="22.7267"/>
<line x1="1117.07" y1="1124.59" x2="1024.01" y2="1149.6" stroke="#93B9C6" stroke-width="22.7267"/>
<line x1="1111.43" y1="261.054" x2="1050.07" y2="246.065" stroke="#D1B5DB" stroke-width="22.7267"/>
<line x1="993.91" y1="95.279" x2="921.032" y2="152.934" stroke="#F7C6C2" stroke-width="22.7267"/>
<defs>
<clipPath id="clip0_579_300">
<rect width="1136.34" height="1136.34" fill="white" transform="translate(82.3359)"/>
</clipPath>
</defs>
</svg>
