<svg width="683" height="548" viewBox="0 0 683 548" fill="none" xmlns="http://www.w3.org/2000/svg">
<path d="M100.43 153.602C100.43 156.857 99.1276 159.852 96.5234 162.586C94.0495 165.19 90.9896 167.534 87.3438 169.617C83.8281 171.57 80.1823 173.198 76.4062 174.5C72.6302 175.802 69.5052 176.714 67.0312 177.234C65.9896 187.26 65.1432 197.286 64.4922 207.312C63.9714 217.208 63.7109 227.169 63.7109 237.195C63.7109 242.534 63.8411 247.807 64.1016 253.016C64.362 258.224 64.4922 263.432 64.4922 268.641C64.4922 270.984 64.2318 273.589 63.7109 276.453C63.3203 279.188 62.5391 281.792 61.3672 284.266C60.3255 286.74 58.8281 288.823 56.875 290.516C54.9219 292.208 52.513 293.055 49.6484 293.055C46.263 293.055 43.5286 292.078 41.4453 290.125C39.4922 288.302 37.9297 286.023 36.7578 283.289C35.7161 280.555 35 277.69 34.6094 274.695C34.2188 271.57 34.0234 268.771 34.0234 266.297C33.763 258.484 33.5677 250.672 33.4375 242.859C33.3073 234.917 33.2422 226.974 33.2422 219.031C33.2422 212.391 33.2422 205.88 33.2422 199.5C33.3724 193.12 33.4375 186.609 33.4375 179.969C31.6146 180.229 29.7266 180.424 27.7734 180.555C25.9505 180.685 24.0625 180.75 22.1094 180.75C20.5469 180.75 18.4635 180.62 15.8594 180.359C13.3854 179.969 10.9766 179.383 8.63281 178.602C6.28906 177.69 4.27083 176.518 2.57812 175.086C0.885417 173.523 0.0390625 171.57 0.0390625 169.227C0.0390625 165.32 1.60156 161.935 4.72656 159.07C7.72135 156.076 11.5625 153.536 16.25 151.453C21.0677 149.24 26.3411 147.417 32.0703 145.984C37.9297 144.422 43.6589 143.25 49.2578 142.469C54.987 141.557 60.1953 140.906 64.8828 140.516C69.7005 140.125 73.4115 139.93 76.0156 139.93C78.4896 139.93 81.0938 140.06 83.8281 140.32C86.6927 140.451 89.362 140.971 91.8359 141.883C94.3099 142.794 96.3281 144.161 97.8906 145.984C99.5833 147.807 100.43 150.346 100.43 153.602ZM186.953 258.094C186.953 260.698 186.693 263.823 186.172 267.469C185.781 271.115 184.935 274.63 183.633 278.016C182.331 281.271 180.573 284.07 178.359 286.414C176.146 288.628 173.216 289.734 169.57 289.734C164.753 289.734 161.107 287.977 158.633 284.461C156.289 280.945 154.596 276.779 153.555 271.961C152.513 267.013 151.862 262 151.602 256.922C151.471 251.844 151.341 247.807 151.211 244.812C141.836 246.375 132.591 247.742 123.477 248.914C123.216 251.909 122.63 255.62 121.719 260.047C120.938 264.474 119.635 268.771 117.812 272.938C116.12 276.974 113.841 280.49 110.977 283.484C108.242 286.479 104.857 287.977 100.82 287.977C97.6953 287.977 95.2214 286.87 93.3984 284.656C91.7057 282.312 90.4036 279.578 89.4922 276.453C88.5807 273.328 87.9948 270.138 87.7344 266.883C87.6042 263.497 87.5391 260.698 87.5391 258.484C87.5391 251.062 88.125 243.771 89.2969 236.609C90.4688 229.318 91.8359 222.091 93.3984 214.93C94.1797 211.154 95.2214 206.727 96.5234 201.648C97.8255 196.57 99.388 191.362 101.211 186.023C103.164 180.555 105.378 175.216 107.852 170.008C110.456 164.669 113.385 159.917 116.641 155.75C119.896 151.583 123.607 148.198 127.773 145.594C131.94 142.99 136.562 141.688 141.641 141.688C146.589 141.688 150.885 142.794 154.531 145.008C158.177 147.221 161.367 150.151 164.102 153.797C166.836 157.443 169.115 161.609 170.938 166.297C172.76 170.854 174.258 175.542 175.43 180.359C176.732 185.047 177.773 189.669 178.555 194.227C179.466 198.784 180.247 202.82 180.898 206.336C182.591 214.799 184.023 223.393 185.195 232.117C186.367 240.711 186.953 249.37 186.953 258.094ZM149.258 210.633C149.258 209.07 149.128 206.531 148.867 203.016C148.737 199.37 148.346 195.789 147.695 192.273C147.044 188.628 146.003 185.438 144.57 182.703C143.268 179.839 141.445 178.406 139.102 178.406C137.799 178.406 136.562 179.318 135.391 181.141C134.219 182.833 133.177 185.047 132.266 187.781C131.354 190.385 130.508 193.315 129.727 196.57C129.076 199.826 128.49 202.951 127.969 205.945C127.448 208.94 127.057 211.674 126.797 214.148C126.536 216.492 126.341 218.185 126.211 219.227C134.023 218.576 141.706 217.599 149.258 216.297V210.633ZM297.695 278.406C297.695 282.052 296.784 284.982 294.961 287.195C293.138 289.539 290.339 290.711 286.562 290.711C283.568 290.711 280.768 289.799 278.164 287.977C275.69 286.154 273.346 283.94 271.133 281.336C269.049 278.602 267.161 275.737 265.469 272.742C263.906 269.747 262.604 267.143 261.562 264.93C258.828 259.461 256.094 253.992 253.359 248.523C250.755 243.055 248.151 237.521 245.547 231.922L233.828 239.148C233.958 242.924 233.763 246.701 233.242 250.477C232.721 254.253 232.331 258.029 232.07 261.805C231.81 264.409 231.354 267.273 230.703 270.398C230.182 273.393 229.271 276.258 227.969 278.992C226.667 281.596 224.909 283.81 222.695 285.633C220.482 287.456 217.747 288.367 214.492 288.367C211.497 288.367 209.023 287.781 207.07 286.609C205.117 285.307 203.49 283.68 202.188 281.727C201.016 279.773 200.169 277.56 199.648 275.086C199.128 272.612 198.867 270.073 198.867 267.469V265.906C198.867 258.224 199.258 250.542 200.039 242.859C200.951 235.047 201.536 227.234 201.797 219.422C202.057 209.135 202.383 198.849 202.773 188.562C203.164 178.276 203.685 167.99 204.336 157.703C204.466 155.359 204.857 153.081 205.508 150.867C206.159 148.654 207.135 146.701 208.438 145.008C209.74 143.185 211.302 141.753 213.125 140.711C215.078 139.669 217.357 139.148 219.961 139.148C223.997 139.148 226.992 140.581 228.945 143.445C231.029 146.31 232.461 149.76 233.242 153.797C234.023 157.833 234.349 162 234.219 166.297C234.219 170.594 234.219 174.174 234.219 177.039C234.219 185.242 234.023 193.445 233.633 201.648C237.409 198.523 241.055 194.943 244.57 190.906C248.216 186.87 251.406 182.768 254.141 178.602C255.833 176.128 257.786 172.742 260 168.445C262.214 164.018 264.622 159.786 267.227 155.75C269.831 151.583 272.695 148.003 275.82 145.008C278.945 141.883 282.266 140.32 285.781 140.32C289.557 140.32 292.292 141.427 293.984 143.641C295.807 145.724 296.719 148.523 296.719 152.039C296.719 157.247 295.872 162.586 294.18 168.055C292.617 173.523 290.469 178.927 287.734 184.266C285 189.474 281.875 194.487 278.359 199.305C274.974 203.992 271.523 208.094 268.008 211.609C271.654 217.729 275.104 223.914 278.359 230.164C281.615 236.284 284.87 242.469 288.125 248.719C289.297 250.802 290.404 253.081 291.445 255.555C292.617 258.029 293.659 260.568 294.57 263.172C295.482 265.776 296.198 268.38 296.719 270.984C297.37 273.589 297.695 276.062 297.695 278.406ZM389.883 256.336C389.883 258.81 389.232 261.219 387.93 263.562C386.628 265.776 383.568 268.38 378.75 271.375C373.932 274.37 368.594 277.234 362.734 279.969C356.875 282.573 351.211 284.852 345.742 286.805C340.273 288.628 336.237 289.539 333.633 289.539C331.81 289.539 329.661 289.083 327.188 288.172C324.714 287.391 322.24 286.349 319.766 285.047C317.292 283.745 315.013 282.247 312.93 280.555C310.977 278.862 309.544 277.234 308.633 275.672C308.112 274.76 307.591 272.938 307.07 270.203C306.68 267.469 306.289 264.279 305.898 260.633C305.638 256.987 305.378 253.146 305.117 249.109C304.857 244.943 304.596 241.036 304.336 237.391C304.206 233.615 304.076 230.294 303.945 227.43C303.945 224.565 303.945 222.482 303.945 221.18C303.945 216.362 304.076 210.828 304.336 204.578C304.727 198.328 305.378 192.078 306.289 185.828C307.201 179.448 308.503 173.393 310.195 167.664C312.018 161.805 314.427 156.857 317.422 152.82C318.333 151.648 320.156 150.411 322.891 149.109C325.625 147.807 328.815 146.57 332.461 145.398C336.237 144.227 340.273 143.12 344.57 142.078C348.867 141.036 352.969 140.19 356.875 139.539C360.911 138.758 364.557 138.172 367.812 137.781C371.068 137.26 373.542 137 375.234 137C377.188 137 379.01 137.456 380.703 138.367C382.526 139.148 384.023 140.255 385.195 141.688C386.497 143.12 387.474 144.747 388.125 146.57C388.906 148.263 389.297 150.086 389.297 152.039C389.297 153.732 389.036 155.164 388.516 156.336C388.125 157.508 387.474 158.81 386.562 160.242C385.26 161.935 382.526 163.953 378.359 166.297C374.193 168.641 369.635 170.984 364.688 173.328C359.87 175.542 355.182 177.56 350.625 179.383C346.198 181.206 343.073 182.508 341.25 183.289C340.729 186.284 340.143 189.344 339.492 192.469C338.971 195.464 338.581 198.523 338.32 201.648C342.357 199.565 346.914 197.612 351.992 195.789C357.07 193.966 361.888 193.055 366.445 193.055C375.69 193.055 380.312 197.612 380.312 206.727C380.312 208.94 379.857 210.893 378.945 212.586C378.164 214.279 377.057 215.776 375.625 217.078C374.323 218.38 372.76 219.552 370.938 220.594C369.245 221.505 367.552 222.417 365.859 223.328C361.693 225.542 357.331 227.495 352.773 229.188C348.216 230.75 343.659 232.312 339.102 233.875C338.841 234.917 338.581 236.089 338.32 237.391C338.06 238.562 337.93 239.734 337.93 240.906C337.93 242.729 338.06 244.552 338.32 246.375C338.581 248.198 338.841 250.021 339.102 251.844C340.664 251.323 343.138 250.477 346.523 249.305C350.039 248.133 353.685 246.961 357.461 245.789C361.237 244.617 364.883 243.641 368.398 242.859C371.914 241.948 374.518 241.492 376.211 241.492C378.164 241.492 379.987 241.948 381.68 242.859C383.372 243.641 384.805 244.747 385.977 246.18C387.148 247.482 388.06 249.044 388.711 250.867C389.492 252.69 389.883 254.513 389.883 256.336Z" fill="#93B9C6"/>
<path d="M369.188 369.57C369.188 378.555 366.974 386.758 362.547 394.18C358.12 401.471 352.195 407.591 344.773 412.539C348.68 413.32 352.065 414.688 354.93 416.641C357.794 418.464 360.138 420.742 361.961 423.477C363.914 426.211 365.346 429.336 366.258 432.852C367.299 436.237 367.82 439.818 367.82 443.594C367.82 451.016 366.062 457.526 362.547 463.125C359.161 468.594 354.734 473.151 349.266 476.797C343.797 480.312 337.677 482.982 330.906 484.805C324.266 486.497 317.625 487.344 310.984 487.344C307.339 487.344 303.693 487.083 300.047 486.562C296.401 486.042 292.951 485.13 289.695 483.828C288.523 483.438 287.547 481.875 286.766 479.141C285.984 476.276 285.333 472.826 284.812 468.789C284.422 464.753 284.096 460.391 283.836 455.703C283.576 451.016 283.38 446.523 283.25 442.227C283.12 437.93 283.055 434.154 283.055 430.898C283.055 427.643 283.055 425.365 283.055 424.062C283.055 419.505 283.055 414.948 283.055 410.391C283.055 405.703 283.185 401.081 283.445 396.523C283.445 395.352 283.445 393.529 283.445 391.055C283.576 388.581 283.641 385.846 283.641 382.852C283.771 379.727 283.901 376.471 284.031 373.086C284.292 369.701 284.552 366.576 284.812 363.711C285.203 360.716 285.659 358.177 286.18 356.094C286.831 354.01 287.547 352.708 288.328 352.188C291.323 350.234 294.643 348.411 298.289 346.719C301.935 344.896 305.711 343.333 309.617 342.031C313.523 340.729 317.43 339.688 321.336 338.906C325.242 338.125 328.953 337.734 332.469 337.734C337.286 337.734 341.909 338.451 346.336 339.883C350.893 341.185 354.799 343.203 358.055 345.938C361.44 348.672 364.109 352.057 366.062 356.094C368.146 360 369.188 364.492 369.188 369.57ZM336.766 379.922C336.766 377.708 336.049 376.081 334.617 375.039C333.315 373.997 331.557 373.477 329.344 373.477C327.521 373.477 325.568 373.867 323.484 374.648C321.531 375.43 319.839 376.471 318.406 377.773C318.016 378.164 317.625 379.271 317.234 381.094C316.974 382.917 316.714 385 316.453 387.344C316.323 389.557 316.193 391.706 316.062 393.789C316.062 395.742 316.062 397.044 316.062 397.695C316.062 397.956 316.062 398.411 316.062 399.062C316.062 399.583 316.062 400.169 316.062 400.82C316.193 401.471 316.323 402.057 316.453 402.578C316.583 403.099 316.779 403.359 317.039 403.359C319.253 403.359 321.531 402.578 323.875 401.016C326.219 399.323 328.302 397.305 330.125 394.961C332.078 392.487 333.641 389.883 334.812 387.148C336.115 384.414 336.766 382.005 336.766 379.922ZM335.984 436.367C335.984 434.154 335.203 432.591 333.641 431.68C332.078 430.768 330.32 430.312 328.367 430.312C326.544 430.312 324.591 430.768 322.508 431.68C320.555 432.461 318.927 433.438 317.625 434.609C317.234 434.87 316.909 435.521 316.648 436.562C316.518 437.604 316.388 438.776 316.258 440.078C316.258 441.25 316.193 442.422 316.062 443.594C316.062 444.635 316.062 445.352 316.062 445.742C316.062 446.003 316.062 446.523 316.062 447.305C316.062 448.086 316.062 448.932 316.062 449.844C316.193 450.625 316.323 451.406 316.453 452.188C316.714 452.839 316.974 453.164 317.234 453.164C319.057 453.164 321.076 452.643 323.289 451.602C325.503 450.56 327.521 449.258 329.344 447.695C331.297 446.133 332.859 444.375 334.031 442.422C335.333 440.339 335.984 438.32 335.984 436.367ZM476.609 456.094C476.609 458.698 476.349 461.823 475.828 465.469C475.438 469.115 474.591 472.63 473.289 476.016C471.987 479.271 470.229 482.07 468.016 484.414C465.802 486.628 462.872 487.734 459.227 487.734C454.409 487.734 450.763 485.977 448.289 482.461C445.945 478.945 444.253 474.779 443.211 469.961C442.169 465.013 441.518 460 441.258 454.922C441.128 449.844 440.997 445.807 440.867 442.812C431.492 444.375 422.247 445.742 413.133 446.914C412.872 449.909 412.286 453.62 411.375 458.047C410.594 462.474 409.292 466.771 407.469 470.938C405.776 474.974 403.497 478.49 400.633 481.484C397.898 484.479 394.513 485.977 390.477 485.977C387.352 485.977 384.878 484.87 383.055 482.656C381.362 480.312 380.06 477.578 379.148 474.453C378.237 471.328 377.651 468.138 377.391 464.883C377.26 461.497 377.195 458.698 377.195 456.484C377.195 449.062 377.781 441.771 378.953 434.609C380.125 427.318 381.492 420.091 383.055 412.93C383.836 409.154 384.878 404.727 386.18 399.648C387.482 394.57 389.044 389.362 390.867 384.023C392.82 378.555 395.034 373.216 397.508 368.008C400.112 362.669 403.042 357.917 406.297 353.75C409.552 349.583 413.263 346.198 417.43 343.594C421.596 340.99 426.219 339.688 431.297 339.688C436.245 339.688 440.542 340.794 444.188 343.008C447.833 345.221 451.023 348.151 453.758 351.797C456.492 355.443 458.771 359.609 460.594 364.297C462.417 368.854 463.914 373.542 465.086 378.359C466.388 383.047 467.43 387.669 468.211 392.227C469.122 396.784 469.904 400.82 470.555 404.336C472.247 412.799 473.68 421.393 474.852 430.117C476.023 438.711 476.609 447.37 476.609 456.094ZM438.914 408.633C438.914 407.07 438.784 404.531 438.523 401.016C438.393 397.37 438.003 393.789 437.352 390.273C436.701 386.628 435.659 383.438 434.227 380.703C432.924 377.839 431.102 376.406 428.758 376.406C427.456 376.406 426.219 377.318 425.047 379.141C423.875 380.833 422.833 383.047 421.922 385.781C421.01 388.385 420.164 391.315 419.383 394.57C418.732 397.826 418.146 400.951 417.625 403.945C417.104 406.94 416.714 409.674 416.453 412.148C416.193 414.492 415.997 416.185 415.867 417.227C423.68 416.576 431.362 415.599 438.914 414.297V408.633ZM587.352 476.406C587.352 480.052 586.44 482.982 584.617 485.195C582.794 487.539 579.995 488.711 576.219 488.711C573.224 488.711 570.424 487.799 567.82 485.977C565.346 484.154 563.003 481.94 560.789 479.336C558.706 476.602 556.818 473.737 555.125 470.742C553.562 467.747 552.26 465.143 551.219 462.93C548.484 457.461 545.75 451.992 543.016 446.523C540.411 441.055 537.807 435.521 535.203 429.922L523.484 437.148C523.615 440.924 523.419 444.701 522.898 448.477C522.378 452.253 521.987 456.029 521.727 459.805C521.466 462.409 521.01 465.273 520.359 468.398C519.839 471.393 518.927 474.258 517.625 476.992C516.323 479.596 514.565 481.81 512.352 483.633C510.138 485.456 507.404 486.367 504.148 486.367C501.154 486.367 498.68 485.781 496.727 484.609C494.773 483.307 493.146 481.68 491.844 479.727C490.672 477.773 489.826 475.56 489.305 473.086C488.784 470.612 488.523 468.073 488.523 465.469V463.906C488.523 456.224 488.914 448.542 489.695 440.859C490.607 433.047 491.193 425.234 491.453 417.422C491.714 407.135 492.039 396.849 492.43 386.562C492.82 376.276 493.341 365.99 493.992 355.703C494.122 353.359 494.513 351.081 495.164 348.867C495.815 346.654 496.792 344.701 498.094 343.008C499.396 341.185 500.958 339.753 502.781 338.711C504.734 337.669 507.013 337.148 509.617 337.148C513.654 337.148 516.648 338.581 518.602 341.445C520.685 344.31 522.117 347.76 522.898 351.797C523.68 355.833 524.005 360 523.875 364.297C523.875 368.594 523.875 372.174 523.875 375.039C523.875 383.242 523.68 391.445 523.289 399.648C527.065 396.523 530.711 392.943 534.227 388.906C537.872 384.87 541.062 380.768 543.797 376.602C545.49 374.128 547.443 370.742 549.656 366.445C551.87 362.018 554.279 357.786 556.883 353.75C559.487 349.583 562.352 346.003 565.477 343.008C568.602 339.883 571.922 338.32 575.438 338.32C579.214 338.32 581.948 339.427 583.641 341.641C585.464 343.724 586.375 346.523 586.375 350.039C586.375 355.247 585.529 360.586 583.836 366.055C582.273 371.523 580.125 376.927 577.391 382.266C574.656 387.474 571.531 392.487 568.016 397.305C564.63 401.992 561.18 406.094 557.664 409.609C561.31 415.729 564.76 421.914 568.016 428.164C571.271 434.284 574.526 440.469 577.781 446.719C578.953 448.802 580.06 451.081 581.102 453.555C582.273 456.029 583.315 458.568 584.227 461.172C585.138 463.776 585.854 466.38 586.375 468.984C587.026 471.589 587.352 474.062 587.352 476.406ZM679.539 454.336C679.539 456.81 678.888 459.219 677.586 461.562C676.284 463.776 673.224 466.38 668.406 469.375C663.589 472.37 658.25 475.234 652.391 477.969C646.531 480.573 640.867 482.852 635.398 484.805C629.93 486.628 625.893 487.539 623.289 487.539C621.466 487.539 619.318 487.083 616.844 486.172C614.37 485.391 611.896 484.349 609.422 483.047C606.948 481.745 604.669 480.247 602.586 478.555C600.633 476.862 599.201 475.234 598.289 473.672C597.768 472.76 597.247 470.938 596.727 468.203C596.336 465.469 595.945 462.279 595.555 458.633C595.294 454.987 595.034 451.146 594.773 447.109C594.513 442.943 594.253 439.036 593.992 435.391C593.862 431.615 593.732 428.294 593.602 425.43C593.602 422.565 593.602 420.482 593.602 419.18C593.602 414.362 593.732 408.828 593.992 402.578C594.383 396.328 595.034 390.078 595.945 383.828C596.857 377.448 598.159 371.393 599.852 365.664C601.674 359.805 604.083 354.857 607.078 350.82C607.99 349.648 609.812 348.411 612.547 347.109C615.281 345.807 618.471 344.57 622.117 343.398C625.893 342.227 629.93 341.12 634.227 340.078C638.523 339.036 642.625 338.19 646.531 337.539C650.568 336.758 654.214 336.172 657.469 335.781C660.724 335.26 663.198 335 664.891 335C666.844 335 668.667 335.456 670.359 336.367C672.182 337.148 673.68 338.255 674.852 339.688C676.154 341.12 677.13 342.747 677.781 344.57C678.562 346.263 678.953 348.086 678.953 350.039C678.953 351.732 678.693 353.164 678.172 354.336C677.781 355.508 677.13 356.81 676.219 358.242C674.917 359.935 672.182 361.953 668.016 364.297C663.849 366.641 659.292 368.984 654.344 371.328C649.526 373.542 644.839 375.56 640.281 377.383C635.854 379.206 632.729 380.508 630.906 381.289C630.385 384.284 629.799 387.344 629.148 390.469C628.628 393.464 628.237 396.523 627.977 399.648C632.013 397.565 636.57 395.612 641.648 393.789C646.727 391.966 651.544 391.055 656.102 391.055C665.346 391.055 669.969 395.612 669.969 404.727C669.969 406.94 669.513 408.893 668.602 410.586C667.82 412.279 666.714 413.776 665.281 415.078C663.979 416.38 662.417 417.552 660.594 418.594C658.901 419.505 657.208 420.417 655.516 421.328C651.349 423.542 646.987 425.495 642.43 427.188C637.872 428.75 633.315 430.312 628.758 431.875C628.497 432.917 628.237 434.089 627.977 435.391C627.716 436.562 627.586 437.734 627.586 438.906C627.586 440.729 627.716 442.552 627.977 444.375C628.237 446.198 628.497 448.021 628.758 449.844C630.32 449.323 632.794 448.477 636.18 447.305C639.695 446.133 643.341 444.961 647.117 443.789C650.893 442.617 654.539 441.641 658.055 440.859C661.57 439.948 664.174 439.492 665.867 439.492C667.82 439.492 669.643 439.948 671.336 440.859C673.029 441.641 674.461 442.747 675.633 444.18C676.805 445.482 677.716 447.044 678.367 448.867C679.148 450.69 679.539 452.513 679.539 454.336Z" fill="#93B9C6"/>
<path d="M178.8 317.8L172.2 341.8L170 332.8C172.867 332.8 175.2 333.633 177 335.3C178.8 336.967 179.7 339.267 179.7 342.2C179.7 345.067 178.767 347.4 176.9 349.2C175.1 350.933 172.833 351.8 170.1 351.8C167.3 351.8 164.967 350.933 163.1 349.2C161.3 347.4 160.4 345.067 160.4 342.2C160.4 341.333 160.467 340.5 160.6 339.7C160.733 338.833 161 337.833 161.4 336.7C161.8 335.567 162.367 334.067 163.1 332.2L168.9 317.8H178.8ZM217.099 337.4C221.366 337.4 225.166 338.267 228.499 340C231.899 341.667 234.566 344.267 236.499 347.8C238.433 351.267 239.399 355.733 239.399 361.2V392H223.799V363.6C223.799 359.267 222.833 356.067 220.899 354C219.033 351.933 216.366 350.9 212.899 350.9C210.433 350.9 208.199 351.433 206.199 352.5C204.266 353.5 202.733 355.067 201.599 357.2C200.533 359.333 199.999 362.067 199.999 365.4V392H184.399V338.2H199.299V353.1L196.499 348.6C198.433 345 201.199 342.233 204.799 340.3C208.399 338.367 212.499 337.4 217.099 337.4Z" fill="#A74272"/>
<line x1="481.477" y1="0.850896" x2="482.076" y2="2.76753" stroke="white"/>
<line x1="481.477" y1="0.850896" x2="482.076" y2="2.76753" stroke="white"/>
<line x1="481.477" y1="0.850896" x2="482.076" y2="2.76753" stroke="white"/>
<line x1="481.477" y1="0.850896" x2="482.076" y2="2.76753" stroke="white"/>
<path d="M558.33 268.48L564.053 269.413L563.179 270.784L562.821 271.344L563.459 271.532L567.416 272.698L565.137 273.951L564.341 274.389L565.137 274.828L567.416 276.081L563.459 277.247L562.821 277.434L563.179 277.995L564.053 279.366L558.33 280.299L558.059 280.343L557.951 280.596L557.202 282.343L550.194 282.842L550.067 282.851L549.961 282.919L547.135 284.718L539.723 284.663L539.641 284.662L539.563 284.688L534.868 286.235L527.776 285.615L527.709 285.609L527.642 285.621L521.486 286.755L515.33 285.621L515.264 285.609L515.196 285.615L508.104 286.235L503.409 284.688L503.331 284.662L503.249 284.663L495.837 284.718L493.012 282.919L492.905 282.851L492.778 282.842L485.77 282.343L485.021 280.596L484.913 280.343L484.642 280.299L478.919 279.366L479.793 277.995L480.151 277.434L479.513 277.247L475.556 276.081L477.835 274.828L478.632 274.389L477.835 273.951L475.556 272.698L479.513 271.532L480.151 271.344L479.793 270.784L478.919 269.413L484.642 268.48L484.913 268.435L485.021 268.183L485.77 266.436L492.778 265.937L492.905 265.928L493.012 265.86L495.837 264.06L503.249 264.116L503.331 264.116L503.409 264.091L508.104 262.544L515.196 263.164L515.264 263.17L515.33 263.158L521.486 262.024L527.642 263.158L527.709 263.17L527.776 263.164L534.868 262.544L539.563 264.091L539.641 264.116L539.723 264.116L547.135 264.06L549.961 265.86L550.067 265.928L550.194 265.937L557.202 266.436L557.951 268.183L558.059 268.435L558.33 268.48Z" fill="#C6E3DE" stroke="#93B9C6"/>
<path d="M451.059 191.844H593.428L566.923 275.902H477.563L451.059 191.844Z" fill="#C6E3DE"/>
<line x1="481.839" y1="209.929" x2="495.47" y2="284.143" stroke="#93B9C6"/>
<line x1="580.272" y1="207.147" x2="556.039" y2="281.361" stroke="#93B9C6"/>
<line x1="563.625" y1="208.611" x2="546.965" y2="284.339" stroke="#93B9C6"/>
<line x1="543.942" y1="210.079" x2="534.854" y2="285.807" stroke="#93B9C6"/>
<line x1="522.742" y1="211.545" x2="521.228" y2="285.759" stroke="#93B9C6"/>
<line x1="501.537" y1="211.494" x2="507.596" y2="285.708" stroke="#93B9C6"/>
<path d="M583.301 188.98L593.027 190.292L591.457 192.328L590.988 192.937L591.735 193.119L598.684 194.813L594.553 196.693L593.553 197.148L594.553 197.603L598.684 199.483L591.735 201.177L590.988 201.359L591.457 201.968L593.027 204.004L583.301 205.316L583.044 205.35L582.924 205.581L581.635 208.072L569.963 208.759L569.855 208.765L569.76 208.816L565.048 211.3L552.813 211.224L552.745 211.224L552.679 211.242L544.926 213.355L533.249 212.51L533.193 212.506L533.137 212.515L523 214.06L512.863 212.515L512.807 212.506L512.751 212.51L501.074 213.355L493.321 211.242L493.255 211.224L493.187 211.224L480.952 211.3L476.24 208.816L476.145 208.765L476.037 208.759L464.365 208.072L463.076 205.581L462.956 205.35L462.698 205.316L452.973 204.004L454.543 201.968L455.012 201.359L454.265 201.177L447.316 199.483L451.447 197.603L452.447 197.148L451.447 196.693L447.316 194.813L454.265 193.119L455.012 192.937L454.543 192.328L452.973 190.292L462.698 188.98L462.956 188.945L463.076 188.715L464.365 186.224L476.037 185.537L476.145 185.531L476.24 185.48L480.952 182.996L493.187 183.072L493.255 183.072L493.321 183.054L501.074 180.941L512.751 181.786L512.807 181.79L512.863 181.781L523 180.236L533.137 181.781L533.193 181.79L533.249 181.786L544.926 180.941L552.679 183.054L552.745 183.072L552.813 183.072L565.048 182.996L569.76 185.48L569.855 185.531L569.963 185.537L581.635 186.224L582.924 188.715L583.044 188.945L583.301 188.98Z" fill="#956A57" stroke="#93B9C6"/>
<line x1="454.563" y1="203.812" x2="477.282" y2="276.511" stroke="#93B9C6"/>
<line x1="589.36" y1="202.594" x2="566.642" y2="275.293" stroke="#93B9C6"/>
<line x1="474.255" y1="271.968" x2="475.162" y2="274.871" stroke="white"/>
<line x1="465.169" y1="206.857" x2="486.373" y2="282.586" stroke="#93B9C6"/>
<path d="M593.426 184.058C593.426 212.961 566.164 205.477 522.242 209.082C492.708 209.082 449.543 212.961 449.543 184.058C449.543 155.155 477.57 128.234 521.485 128.234C565.399 128.234 593.426 155.155 593.426 184.058Z" fill="#956A57"/>
<line y1="-0.5" x2="12.1165" y2="-0.5" transform="matrix(-0.694667 0.719332 -0.747986 -0.663714 529.148 128.234)" stroke="#DBD7B5"/>
<line y1="-0.5" x2="12.1165" y2="-0.5" transform="matrix(0.168781 0.985654 -0.977659 0.210196 496.656 173.574)" stroke="#DBD7B5"/>
<line y1="-0.5" x2="12.1165" y2="-0.5" transform="matrix(0.0314815 0.999504 -0.998933 0.0461866 541.133 132.27)" stroke="#D1B5DB"/>
<line y1="-0.5" x2="12.1165" y2="-0.5" transform="matrix(0.323582 0.9462 -0.941336 0.337471 465.949 170.961)" stroke="#D1B5DB"/>
<line y1="-0.5" x2="12.1165" y2="-0.5" transform="matrix(0.233112 0.97245 -0.968914 0.247397 510.422 149.602)" stroke="#D1B5DB"/>
<line y1="-0.5" x2="12.1165" y2="-0.5" transform="matrix(0.512445 0.85872 -0.851086 0.525026 521.562 184.629)" stroke="#B5DBD2"/>
<path d="M530.566 122.146C531.399 128.785 526.355 134.885 519.301 135.771C512.246 136.656 505.852 131.991 505.019 125.351C504.186 118.711 509.899 115.583 516.944 116.986C523.424 113.886 529.733 115.506 530.566 122.146Z" fill="#DC025D"/>
<path d="M517.77 118.276L517.331 118.728L510.685 110.601L510.667 110.579L510.644 110.561L506.516 107.379L513.329 105.766L514.033 109.293L514.038 109.318L514.047 109.341L517.77 118.276Z" fill="#838F78" stroke="#3F514D" stroke-width="0.5"/>
<line y1="-0.5" x2="12.1165" y2="-0.5" transform="matrix(-0.400079 0.916481 -0.922269 -0.386549 491.578 139.238)" stroke="#B5DBD2"/>
<line y1="-0.5" x2="12.1165" y2="-0.5" transform="matrix(-0.0501602 0.998741 -0.999371 -0.0354575 571.922 155)" stroke="#B5DBD2"/>
<line y1="-0.5" x2="12.1165" y2="-0.5" transform="matrix(-0.694667 0.719332 -0.747986 -0.663714 548.637 164.582)" stroke="#DBD7B5"/>
</svg>
