<svg width="315" height="274" viewBox="0 0 315 274" fill="none" xmlns="http://www.w3.org/2000/svg">
<g clip-path="url(#clip0_202_2249)">
<path d="M102.478 71.9666C103.773 72.3086 105.33 72.7803 107.21 73.4184C107.691 73.5847 108.072 73.7139 108.323 73.7906C113.018 75.223 117.662 77.1245 122.15 78.9694C123.519 79.5299 124.934 80.1099 126.327 80.6688C138.062 85.3623 149.251 90.8943 158.65 95.6869C159.273 96.0025 159.898 96.3237 160.52 96.6431C171.526 102.3 180.998 107.597 189.476 112.83C194.83 116.139 200.364 119.559 205.652 123.376C205.828 123.505 206.086 123.68 206.409 123.903C209.077 125.751 210.964 127.23 212.295 128.409L102.478 71.9666ZM217.566 131.118C217.054 129.179 215.048 127.406 213.7 126.213C213.512 126.05 213.34 125.895 213.186 125.759C208.089 121.107 202.312 117.437 196.729 113.888C185.069 106.476 173.028 99.5351 160.928 93.264C148.661 86.9021 136.072 81.0743 123.5 75.9454C117.102 73.3333 110.492 70.6356 103.599 69.0632C103.389 69.0173 103.157 68.9598 102.902 68.9002C100.93 68.42 97.9637 67.6998 95.9409 68.607L92.2696 66.7201C86.665 79.5048 76.8842 96.6548 72.4185 110.03C61.2152 143.08 85.846 169.239 112.418 184.582C140.365 197.26 175.973 202.062 196.326 173.714C204.602 162.298 212.854 144.362 219.988 132.363L217.566 131.118Z" fill="#D9EFF3"/>
<path d="M215.913 132.805C216.892 129.919 207.737 123.985 206.076 122.789C200.849 119.012 195.339 115.6 189.853 112.214C179.828 106.019 169.477 100.394 158.976 95.0399C148.378 89.6356 137.647 84.4155 126.595 79.9964C120.623 77.603 114.7 74.9773 108.537 73.0949C106.693 72.5329 97.5961 69.0142 95.9359 71.1978C95.5074 71.763 94.6192 71.1017 94.9308 70.4955C96.3529 67.7564 101.189 69.2567 103.438 69.7702C110.266 71.3229 116.758 73.9739 123.227 76.6133C135.959 81.8103 148.382 87.5718 160.593 93.9047C172.83 100.251 184.711 107.105 196.339 114.495C202.01 118.105 207.718 121.753 212.696 126.292C214.273 127.725 217.922 130.563 216.718 133.09C216.513 133.518 215.754 133.271 215.913 132.805ZM218.518 128.736C214.528 124.358 209.625 120.71 204.973 117.062C201.315 114.187 197.513 111.49 193.62 108.933C193.08 108.574 192.543 108.222 191.999 107.871C176.794 98.0761 160.374 89.6894 144.027 81.9586C128.746 74.7282 112.696 68.6783 95.8466 66.6298C90.5351 65.98 92.9588 69.5534 95.3551 71.6704C99.1932 75.0663 103.494 78.1 107.727 80.9854C122.327 90.931 138.388 98.3765 154.056 106.429C153.468 106.127 152.888 105.829 152.303 105.524C156.999 107.852 161.655 110.259 166.313 112.662C182.057 120.778 198.027 128.948 215.279 133.317C219.774 134.451 221.728 132.262 218.518 128.736Z" fill="#B4DBDC"/>
<path d="M212.824 137.546C190.534 131.588 170.648 119.934 150.15 109.713C150.15 109.713 150.15 109.713 150.146 109.711C150.097 109.686 150.048 109.661 150.003 109.638C150.001 109.641 150.001 109.641 150.001 109.641C141.058 105.064 131.522 100.382 122.415 95.3632C112.087 89.6836 102.681 83.1168 93.2506 76.0802C92.2872 75.3613 91.1524 76.6154 92.0212 77.4904C99.6512 85.2057 109.988 90.9706 119.37 96.2591C129.847 102.168 140.743 107.335 151.444 112.816C151.542 112.866 151.637 112.896 151.731 112.915C171.334 122.767 190.864 133.976 212.366 139.353C213.548 139.647 213.992 137.857 212.824 137.546Z" fill="#B4DBDC"/>
<path d="M75.1394 124.657C75.0401 120.47 75.9416 116.363 77.2106 112.403C80.4844 102.181 85.8626 92.5593 90.222 82.7808C90.4201 82.3399 89.7969 82.0149 89.5518 82.4363C84.0951 91.7937 79.1631 101.806 75.6767 112.081C73.0241 119.909 72.5514 129.229 75.7618 136.977C75.9664 137.477 76.8155 137.4 76.7465 136.793C76.2579 132.715 75.2393 128.788 75.1394 124.657Z" fill="#B4DBDC"/>
<path d="M103.746 169.81C99.3585 165.279 93.7665 161.924 89.2434 157.472C84.2182 152.523 80.7899 146.839 78.1297 140.355C77.9251 139.854 77.2238 140.089 77.3411 140.611C78.7344 146.939 82.5629 152.391 86.8405 157.137C91.3219 162.115 97.1898 167.554 103.294 170.458C103.71 170.658 104.061 170.133 103.746 169.81Z" fill="#B4DBDC"/>
<path d="M114.152 166.633C114.05 166.666 113.962 166.735 113.913 166.829C113.857 166.939 113.852 167.05 113.885 167.153C113.922 167.258 113.987 167.343 114.085 167.394C114.183 167.444 114.302 167.453 114.405 167.42C114.507 167.387 114.595 167.318 114.651 167.209C114.7 167.115 114.705 167.003 114.672 166.9C114.608 166.691 114.359 166.564 114.152 166.633Z" fill="#B4DBDC"/>
<path d="M110.308 163.195C110.188 163.234 110.097 163.31 110.039 163.423C109.975 163.548 109.966 163.667 110.006 163.783C110.045 163.903 110.119 163.998 110.232 164.056C110.345 164.114 110.478 164.125 110.597 164.087C110.711 164.05 110.807 163.975 110.871 163.851C110.929 163.738 110.934 163.617 110.899 163.499C110.822 163.26 110.547 163.119 110.308 163.195Z" fill="#B4DBDC"/>
<path d="M105.565 163.757C105.649 163.734 105.721 163.676 105.768 163.585C105.808 163.506 105.811 163.417 105.784 163.332C105.729 163.161 105.525 163.056 105.354 163.111C105.269 163.139 105.198 163.193 105.158 163.272C105.111 163.362 105.108 163.451 105.136 163.537C105.161 163.626 105.217 163.693 105.3 163.735C105.379 163.776 105.478 163.788 105.565 163.757Z" fill="#B4DBDC"/>
<path d="M101.134 161.709C101.242 161.674 101.334 161.597 101.394 161.48C101.448 161.375 101.455 161.26 101.422 161.148C101.349 160.919 101.086 160.784 100.857 160.857C100.747 160.896 100.654 160.967 100.599 161.072C100.54 161.189 100.534 161.31 100.569 161.418C100.606 161.532 100.679 161.622 100.784 161.676C100.893 161.732 101.02 161.745 101.134 161.709Z" fill="#B4DBDC"/>
<path d="M99.1406 156.618C99.2412 156.589 99.3215 156.525 99.3757 156.42C99.424 156.326 99.429 156.224 99.3941 156.125C99.33 155.925 99.0966 155.805 98.8971 155.869C98.8001 155.9 98.7199 155.964 98.6715 156.058C98.6173 156.164 98.6124 156.266 98.6435 156.363C98.6765 156.465 98.74 156.545 98.8341 156.594C98.9282 156.642 99.0417 156.653 99.1406 156.618Z" fill="#B4DBDC"/>
<path d="M96.6046 152.963C96.6693 152.939 96.7266 152.893 96.7633 152.821C96.7962 152.757 96.7989 152.687 96.7807 152.621C96.733 152.482 96.5749 152.4 96.4381 152.444C96.3697 152.466 96.3143 152.509 96.2814 152.573C96.2446 152.645 96.24 152.719 96.262 152.787C96.2839 152.855 96.3288 152.907 96.3928 152.94C96.4568 152.973 96.5324 152.983 96.6046 152.963Z" fill="#B4DBDC"/>
<path d="M91.3329 150.708C91.3899 150.689 91.432 150.654 91.4629 150.594C91.4881 150.545 91.4944 150.486 91.4742 150.433C91.4414 150.321 91.3096 150.253 91.1993 150.292C91.1443 150.306 91.1022 150.342 91.0751 150.394C91.0441 150.455 91.0398 150.509 91.0581 150.566C91.0745 150.618 91.1119 150.666 91.1646 150.693C91.2173 150.72 91.2779 150.722 91.3329 150.708Z" fill="#B4DBDC"/>
<path d="M89.0317 146.554C89.1058 146.53 89.1632 146.483 89.2038 146.404C89.2406 146.333 89.2452 146.259 89.2214 146.185C89.1757 146.033 88.9988 145.942 88.8486 145.993C88.7745 146.017 88.7172 146.064 88.6804 146.135C88.6398 146.214 88.6352 146.288 88.659 146.362C88.6808 146.44 88.7313 146.499 88.8028 146.536C88.8706 146.571 88.9557 146.581 89.0317 146.554Z" fill="#B4DBDC"/>
<path d="M87.374 141.797C87.45 141.77 87.5131 141.721 87.5537 141.642C87.5905 141.571 87.5933 141.491 87.5695 141.417C87.52 141.263 87.3393 141.17 87.1892 141.222C87.1113 141.244 87.0483 141.292 87.0115 141.364C86.9708 141.443 86.9681 141.522 86.9937 141.602C87.0175 141.676 87.066 141.739 87.1376 141.776C87.2091 141.813 87.2961 141.819 87.374 141.797Z" fill="#B4DBDC"/>
<path d="M88.9604 136.721C89.0326 136.701 89.0919 136.65 89.1325 136.571C89.1673 136.503 89.1739 136.426 89.1501 136.352C89.1025 136.203 88.9293 136.114 88.7811 136.162C88.707 136.186 88.6439 136.234 88.6091 136.302C88.5685 136.381 88.5657 136.461 88.5914 136.531C88.6152 136.605 88.66 136.666 88.7315 136.703C88.7993 136.738 88.8863 136.744 88.9604 136.721Z" fill="#B4DBDC"/>
<path d="M163.677 186.233C163.552 186.273 163.447 186.357 163.385 186.478C163.315 186.613 163.308 186.748 163.348 186.873C163.39 187.004 163.474 187.109 163.595 187.171C163.719 187.235 163.865 187.248 163.992 187.204C164.121 187.166 164.223 187.08 164.292 186.944C164.354 186.824 164.365 186.691 164.321 186.564C164.239 186.307 163.934 186.151 163.677 186.233Z" fill="#B4DBDC"/>
<path d="M158.906 184.439C158.821 184.466 158.748 184.524 158.706 184.607C158.659 184.697 158.654 184.79 158.682 184.875C158.713 184.963 158.767 185.034 158.85 185.076C158.933 185.119 159.033 185.127 159.119 185.1C159.204 185.072 159.277 185.015 159.323 184.924C159.366 184.841 159.37 184.749 159.343 184.663C159.286 184.486 159.083 184.382 158.906 184.439Z" fill="#B4DBDC"/>
<path d="M154.231 185.976C154.174 185.995 154.126 186.032 154.099 186.085C154.07 186.141 154.067 186.202 154.088 186.255C154.106 186.312 154.14 186.358 154.192 186.385C154.245 186.412 154.307 186.42 154.366 186.398C154.421 186.384 154.465 186.345 154.494 186.288C154.522 186.235 154.528 186.177 154.51 186.12C154.473 186.006 154.341 185.938 154.231 185.976Z" fill="#B4DBDC"/>
<path d="M149.317 183.453C149.193 183.49 149.094 183.572 149.034 183.689C148.966 183.82 148.957 183.949 148.999 184.071C149.038 184.2 149.12 184.299 149.236 184.359C149.353 184.419 149.493 184.434 149.621 184.39C149.74 184.352 149.843 184.271 149.911 184.14C149.971 184.023 149.976 183.892 149.938 183.773C149.857 183.522 149.564 183.371 149.317 183.453Z" fill="#B4DBDC"/>
<path d="M144.95 184.005C144.851 184.04 144.771 184.103 144.725 184.194C144.671 184.299 144.666 184.401 144.697 184.498C144.73 184.601 144.793 184.681 144.884 184.727C144.978 184.776 145.091 184.787 145.194 184.754C145.291 184.722 145.371 184.659 145.425 184.554C145.472 184.463 145.476 184.361 145.447 184.26C145.383 184.061 145.15 183.941 144.95 184.005Z" fill="#B4DBDC"/>
<path d="M139.712 186.014C139.632 186.039 139.567 186.092 139.529 186.167C139.486 186.25 139.481 186.333 139.507 186.413C139.533 186.493 139.585 186.558 139.66 186.596C139.736 186.635 139.826 186.644 139.906 186.618C139.986 186.593 140.051 186.54 140.093 186.457C140.132 186.382 140.137 186.299 140.111 186.219C140.06 186.059 139.872 185.963 139.712 186.014Z" fill="#B4DBDC"/>
<path d="M135.394 182.991C135.275 183.03 135.175 183.112 135.117 183.225C135.051 183.353 135.042 183.481 135.081 183.601C135.121 183.727 135.203 183.826 135.316 183.884C135.433 183.944 135.569 183.957 135.695 183.917C135.814 183.878 135.914 183.796 135.979 183.668C136.038 183.555 136.047 183.426 136.008 183.307C135.929 183.062 135.639 182.913 135.394 182.991Z" fill="#B4DBDC"/>
<path d="M131.02 181.146C130.948 181.166 130.89 181.213 130.856 181.281C130.817 181.356 130.812 181.43 130.836 181.504C130.862 181.574 130.907 181.635 130.974 181.67C131.042 181.705 131.125 181.71 131.194 181.688C131.268 181.664 131.325 181.617 131.364 181.542C131.399 181.474 131.403 181.401 131.378 181.33C131.334 181.184 131.164 181.097 131.02 181.146Z" fill="#B4DBDC"/>
<path d="M125.791 182.653C125.688 182.685 125.602 182.751 125.554 182.845C125.498 182.954 125.495 183.062 125.528 183.165C125.557 183.265 125.624 183.347 125.722 183.398C125.82 183.448 125.933 183.459 126.036 183.426C126.139 183.393 126.221 183.326 126.277 183.217C126.325 183.122 126.332 183.016 126.299 182.914C126.233 182.709 125.992 182.585 125.791 182.653Z" fill="#B4DBDC"/>
<path d="M121.509 180.082C121.423 180.11 121.351 180.168 121.308 180.25C121.262 180.341 121.259 180.43 121.286 180.515C121.315 180.606 121.372 180.673 121.454 180.716C121.537 180.759 121.636 180.771 121.723 180.74C121.808 180.712 121.879 180.658 121.926 180.568C121.968 180.485 121.973 180.392 121.946 180.307C121.889 180.13 121.685 180.026 121.509 180.082Z" fill="#B4DBDC"/>
<path d="M116.772 178.774C116.67 178.807 116.586 178.878 116.535 178.976C116.481 179.081 116.472 179.191 116.505 179.293C116.542 179.398 116.607 179.484 116.705 179.534C116.803 179.584 116.922 179.593 117.025 179.56C117.128 179.527 117.215 179.458 117.27 179.353C117.32 179.255 117.325 179.143 117.292 179.041C117.226 178.836 116.981 178.71 116.772 178.774Z" fill="#B4DBDC"/>
<path d="M113.736 174.512C113.668 174.534 113.611 174.581 113.578 174.645C113.541 174.716 113.538 174.786 113.56 174.855C113.58 174.927 113.629 174.98 113.693 175.013C113.757 175.046 113.836 175.059 113.907 175.033C113.975 175.011 114.031 174.968 114.067 174.896C114.1 174.832 114.105 174.759 114.083 174.69C114.035 174.551 113.873 174.468 113.736 174.512Z" fill="#B4DBDC"/>
<path d="M109.717 171.933C109.643 171.956 109.588 171.999 109.555 172.063C109.516 172.139 109.513 172.209 109.539 172.279C109.561 172.347 109.604 172.403 109.672 172.438C109.736 172.47 109.813 172.477 109.886 172.457C109.95 172.433 110.006 172.39 110.044 172.315C110.077 172.251 110.084 172.183 110.064 172.111C110.016 171.972 109.854 171.889 109.717 171.933Z" fill="#B4DBDC"/>
<path d="M104.155 172.232C104.07 172.259 104.003 172.315 103.964 172.391C103.918 172.481 103.913 172.564 103.941 172.65C103.964 172.733 104.02 172.8 104.099 172.841C104.178 172.882 104.273 172.892 104.355 172.863C104.44 172.835 104.505 172.783 104.552 172.693C104.59 172.617 104.597 172.53 104.57 172.445C104.516 172.279 104.321 172.179 104.155 172.232Z" fill="#B4DBDC"/>
<path d="M158.517 178.015C158.414 178.048 158.334 178.111 158.284 178.209C158.23 178.315 158.223 178.421 158.258 178.519C158.289 178.626 158.356 178.708 158.454 178.758C158.548 178.807 158.661 178.817 158.77 178.783C158.867 178.751 158.949 178.684 159.003 178.579C159.053 178.481 159.058 178.379 159.029 178.278C158.963 178.073 158.722 177.949 158.517 178.015Z" fill="#B4DBDC"/>
<path d="M153.818 179.965C153.732 179.993 153.66 180.05 153.617 180.133C153.571 180.224 153.568 180.313 153.595 180.398C153.621 180.487 153.681 180.556 153.76 180.597C153.843 180.639 153.941 180.652 154.028 180.621C154.114 180.593 154.184 180.539 154.231 180.449C154.273 180.366 154.278 180.273 154.251 180.188C154.192 180.015 153.989 179.91 153.818 179.965Z" fill="#B4DBDC"/>
<path d="M149.049 179.24C148.966 179.263 148.899 179.319 148.86 179.395C148.814 179.485 148.809 179.568 148.838 179.65C148.862 179.734 148.914 179.799 148.994 179.839C149.073 179.88 149.163 179.888 149.249 179.861C149.329 179.835 149.394 179.783 149.44 179.693C149.479 179.617 149.485 179.53 149.46 179.451C149.407 179.285 149.211 179.185 149.049 179.24Z" fill="#B4DBDC"/>
<path d="M144.069 179.864C143.943 179.904 143.84 179.985 143.78 180.101C143.713 180.233 143.707 180.364 143.748 180.489C143.788 180.614 143.868 180.718 143.989 180.78C144.105 180.84 144.251 180.852 144.376 180.812C144.502 180.772 144.601 180.69 144.669 180.558C144.729 180.441 144.738 180.313 144.698 180.187C144.617 179.936 144.32 179.783 144.069 179.864Z" fill="#B4DBDC"/>
<path d="M139.704 176.604C139.596 176.639 139.514 176.706 139.464 176.804C139.407 176.913 139.399 177.023 139.435 177.127C139.468 177.23 139.537 177.318 139.635 177.368C139.733 177.418 139.852 177.427 139.955 177.394C140.058 177.361 140.146 177.292 140.202 177.183C140.252 177.085 140.255 176.977 140.224 176.871C140.158 176.666 139.91 176.538 139.704 176.604Z" fill="#B4DBDC"/>
<path d="M134.676 179.143C134.613 179.164 134.56 179.203 134.529 179.263C134.494 179.331 134.493 179.397 134.513 179.46C134.534 179.522 134.575 179.572 134.635 179.603C134.695 179.634 134.767 179.642 134.83 179.622C134.892 179.602 134.942 179.561 134.977 179.493C135.008 179.433 135.012 179.369 134.992 179.306C134.948 179.179 134.801 179.103 134.676 179.143Z" fill="#B4DBDC"/>
<path d="M130.673 175.19C130.555 175.225 130.459 175.3 130.401 175.413C130.339 175.533 130.332 175.658 130.373 175.774C130.409 175.888 130.488 175.986 130.597 176.042C130.706 176.098 130.839 176.109 130.956 176.074C131.07 176.037 131.168 175.959 131.23 175.839C131.288 175.726 131.293 175.604 131.256 175.49C131.181 175.257 130.906 175.115 130.673 175.19Z" fill="#B4DBDC"/>
<path d="M126.325 173.598C126.262 173.618 126.212 173.659 126.181 173.719C126.146 173.787 126.142 173.851 126.164 173.91C126.182 173.977 126.223 174.026 126.283 174.057C126.344 174.088 126.412 174.095 126.476 174.071C126.537 174.054 126.591 174.015 126.626 173.947C126.656 173.887 126.657 173.821 126.637 173.758C126.597 173.633 126.45 173.557 126.325 173.598Z" fill="#B4DBDC"/>
<path d="M121.836 171.691C121.734 171.724 121.644 171.797 121.594 171.895C121.535 172.008 121.53 172.12 121.563 172.222C121.598 172.331 121.667 172.418 121.769 172.471C121.867 172.521 121.99 172.532 122.098 172.497C122.201 172.464 122.289 172.395 122.347 172.282C122.397 172.184 122.404 172.069 122.371 171.966C122.299 171.753 122.051 171.626 121.836 171.691Z" fill="#B4DBDC"/>
<path d="M189.236 166.798C189.134 166.831 189.048 166.897 188.997 166.995C188.941 167.104 188.938 167.212 188.971 167.314C189.004 167.417 189.069 167.503 189.167 167.553C189.269 167.605 189.384 167.612 189.487 167.579C189.589 167.546 189.675 167.481 189.732 167.372C189.782 167.274 189.785 167.166 189.752 167.064C189.688 166.855 189.443 166.729 189.236 166.798Z" fill="#B4DBDC"/>
<path d="M186.63 171.082C186.571 171.104 186.526 171.137 186.497 171.194C186.466 171.254 186.463 171.315 186.481 171.372C186.498 171.432 186.541 171.478 186.593 171.505C186.65 171.534 186.712 171.543 186.771 171.521C186.828 171.502 186.876 171.465 186.907 171.405C186.936 171.348 186.937 171.291 186.92 171.231C186.884 171.117 186.748 171.047 186.63 171.082Z" fill="#B4DBDC"/>
<path d="M181.722 171.62C181.619 171.653 181.539 171.716 181.49 171.811C181.436 171.916 181.429 172.022 181.464 172.121C181.497 172.223 181.561 172.304 181.655 172.352C181.753 172.402 181.866 172.413 181.969 172.38C182.066 172.349 182.148 172.282 182.202 172.176C182.25 172.082 182.255 171.98 182.226 171.879C182.16 171.674 181.923 171.552 181.722 171.62Z" fill="#B4DBDC"/>
<path d="M180.792 166.958C180.708 166.982 180.642 167.038 180.603 167.113C180.558 167.2 180.554 167.283 180.581 167.368C180.607 167.448 180.659 167.513 180.738 167.554C180.813 167.592 180.908 167.603 180.988 167.577C181.073 167.55 181.138 167.498 181.183 167.411C181.221 167.336 181.228 167.249 181.199 167.167C181.149 167.004 180.954 166.903 180.792 166.958Z" fill="#B4DBDC"/>
<path d="M184.022 163.671C184.13 163.636 184.218 163.567 184.276 163.454C184.328 163.352 184.335 163.237 184.3 163.129C184.231 162.912 183.975 162.781 183.758 162.85C183.65 162.885 183.56 162.958 183.508 163.059C183.45 163.172 183.445 163.284 183.479 163.392C183.514 163.501 183.583 163.588 183.685 163.641C183.79 163.695 183.913 163.706 184.022 163.671Z" fill="#B4DBDC"/>
<path d="M184.88 158.817C184.903 158.891 184.956 158.956 185.027 158.992C185.099 159.029 185.186 159.036 185.264 159.014C185.338 158.99 185.403 158.938 185.443 158.859C185.48 158.787 185.483 158.708 185.461 158.63C185.412 158.476 185.231 158.383 185.077 158.433C184.997 158.458 184.938 158.509 184.901 158.58C184.861 158.659 184.852 158.741 184.88 158.817Z" fill="#B4DBDC"/>
<path d="M186.799 154.276C186.832 154.212 186.834 154.142 186.816 154.076C186.77 153.943 186.612 153.861 186.481 153.903C186.413 153.925 186.361 153.97 186.328 154.034C186.293 154.102 186.285 154.174 186.309 154.239C186.331 154.307 186.374 154.362 186.438 154.395C186.502 154.428 186.576 154.433 186.644 154.411C186.707 154.391 186.764 154.344 186.799 154.276Z" fill="#B4DBDC"/>
<path d="M188.105 149.56C188.041 149.584 187.987 149.623 187.956 149.683C187.921 149.751 187.921 149.817 187.941 149.88C187.961 149.943 188 149.996 188.06 150.027C188.12 150.058 188.194 150.063 188.261 150.045C188.323 150.025 188.373 149.983 188.408 149.916C188.439 149.855 188.443 149.791 188.425 149.725C188.381 149.597 188.231 149.52 188.105 149.56Z" fill="#B4DBDC"/>
<path d="M192.184 147.55C192.07 147.587 191.98 147.66 191.926 147.765C191.866 147.882 191.859 147.997 191.898 148.108C191.934 148.222 192.007 148.311 192.109 148.364C192.218 148.42 192.341 148.431 192.455 148.394C192.563 148.359 192.657 148.288 192.717 148.172C192.771 148.066 192.774 147.949 192.741 147.837C192.67 147.614 192.406 147.479 192.184 147.55Z" fill="#B4DBDC"/>
<path d="M195.496 146.504C195.408 146.535 195.336 146.593 195.293 146.676C195.245 146.77 195.238 146.867 195.265 146.952C195.295 147.043 195.356 147.118 195.439 147.161C195.526 147.205 195.626 147.214 195.717 147.184C195.806 147.159 195.881 147.097 195.929 147.003C195.972 146.92 195.977 146.828 195.947 146.736C195.889 146.554 195.678 146.446 195.496 146.504Z" fill="#B4DBDC"/>
<path d="M200.992 147.146C200.957 147.029 200.818 146.957 200.702 146.997C200.641 147.014 200.597 147.053 200.568 147.109C200.537 147.17 200.531 147.228 200.553 147.287C200.571 147.344 200.608 147.392 200.665 147.421C200.717 147.448 200.786 147.455 200.843 147.436C200.9 147.418 200.947 147.381 200.978 147.32C201.007 147.264 201.01 147.203 200.992 147.146Z" fill="#B4DBDC"/>
<path d="M202.762 151.549C202.65 151.582 202.566 151.653 202.513 151.755C202.453 151.872 202.445 151.981 202.483 152.092C202.518 152.2 202.587 152.288 202.689 152.34C202.79 152.392 202.913 152.403 203.022 152.368C203.13 152.334 203.218 152.265 203.278 152.148C203.33 152.046 203.335 151.935 203.3 151.826C203.231 151.61 202.975 151.478 202.762 151.549Z" fill="#B4DBDC"/>
<path d="M200.415 155.952C200.303 155.985 200.211 156.061 200.159 156.163C200.097 156.284 200.09 156.399 200.128 156.509C200.161 156.621 200.234 156.711 200.339 156.765C200.445 156.819 200.571 156.832 200.685 156.796C200.794 156.761 200.884 156.688 200.946 156.568C200.998 156.466 201.007 156.347 200.972 156.238C200.901 156.016 200.637 155.881 200.415 155.952Z" fill="#B4DBDC"/>
<path d="M199.652 160.914C199.566 160.941 199.494 160.999 199.453 161.078C199.407 161.169 199.404 161.258 199.431 161.343C199.459 161.429 199.513 161.499 199.596 161.542C199.675 161.583 199.775 161.591 199.86 161.564C199.946 161.536 200.013 161.48 200.059 161.39C200.1 161.311 200.109 161.22 200.081 161.135C200.026 160.963 199.823 160.859 199.652 160.914Z" fill="#B4DBDC"/>
<path d="M195.952 163.816C195.844 163.85 195.756 163.919 195.706 164.017C195.648 164.13 195.643 164.242 195.678 164.35C195.709 164.457 195.78 164.541 195.881 164.593C195.983 164.645 196.104 164.66 196.208 164.623C196.317 164.588 196.405 164.519 196.463 164.406C196.513 164.308 196.518 164.197 196.483 164.088C196.416 163.878 196.163 163.748 195.952 163.816Z" fill="#B4DBDC"/>
<path d="M193.575 168.397C193.507 168.419 193.451 168.462 193.419 168.526C193.382 168.597 193.377 168.671 193.401 168.736C193.423 168.804 193.466 168.86 193.53 168.893C193.594 168.925 193.672 168.932 193.74 168.91C193.806 168.892 193.86 168.843 193.897 168.772C193.93 168.708 193.936 168.64 193.914 168.571C193.868 168.438 193.706 168.355 193.575 168.397Z" fill="#B4DBDC"/>
<path d="M189.743 170.606C189.675 170.395 189.431 170.269 189.223 170.339C189.121 170.372 189.033 170.441 188.985 170.535C188.928 170.644 188.923 170.756 188.956 170.858C188.987 170.965 189.055 171.047 189.153 171.097C189.254 171.15 189.371 171.162 189.476 171.125C189.579 171.093 189.666 171.023 189.723 170.914C189.771 170.82 189.776 170.708 189.743 170.606Z" fill="#B4DBDC"/>
<path d="M184.505 172.741C184.536 172.848 184.607 172.932 184.708 172.984C184.81 173.036 184.927 173.049 185.036 173.014C185.138 172.981 185.226 172.912 185.284 172.799C185.336 172.698 185.339 172.59 185.308 172.483C185.239 172.267 184.99 172.139 184.778 172.211C184.669 172.245 184.583 172.311 184.531 172.412C184.473 172.525 184.468 172.637 184.505 172.741Z" fill="#B4DBDC"/>
<path d="M179.793 171.054C179.694 171.088 179.614 171.152 179.568 171.242C179.515 171.344 179.51 171.446 179.541 171.543C179.573 171.64 179.636 171.72 179.726 171.767C179.821 171.815 179.93 171.824 180.027 171.793C180.124 171.762 180.204 171.698 180.257 171.596C180.303 171.506 180.308 171.404 180.279 171.303C180.217 171.109 179.987 170.991 179.793 171.054Z" fill="#B4DBDC"/>
<path d="M180.441 166.324C180.38 166.34 180.333 166.377 180.304 166.434C180.271 166.498 180.266 166.562 180.288 166.621C180.305 166.682 180.344 166.726 180.4 166.755C180.461 166.786 180.523 166.794 180.586 166.774C180.645 166.752 180.693 166.715 180.725 166.651C180.754 166.594 180.757 166.533 180.739 166.476C180.7 166.357 180.557 166.283 180.441 166.324Z" fill="#B4DBDC"/>
<path d="M180.249 161.308C180.123 161.348 180.02 161.428 179.958 161.549C179.888 161.684 179.883 161.815 179.923 161.94C179.966 162.071 180.048 162.171 180.168 162.233C180.289 162.295 180.432 162.311 180.56 162.267C180.685 162.227 180.788 162.147 180.858 162.011C180.92 161.891 180.925 161.76 180.885 161.635C180.806 161.38 180.505 161.225 180.249 161.308Z" fill="#B4DBDC"/>
<path d="M182.193 158.035C182.265 158.015 182.322 157.968 182.361 157.893C182.396 157.825 182.4 157.751 182.377 157.677C182.331 157.535 182.161 157.448 182.015 157.491C181.945 157.517 181.884 157.562 181.849 157.63C181.81 157.705 181.809 157.781 181.831 157.849C181.855 157.923 181.902 157.981 181.97 158.015C182.037 158.05 182.119 158.059 182.193 158.035Z" fill="#B4DBDC"/>
<path d="M183.939 153.902C183.988 153.808 183.991 153.7 183.958 153.597C183.892 153.392 183.651 153.268 183.446 153.334C183.343 153.367 183.261 153.434 183.213 153.528C183.156 153.637 183.15 153.743 183.183 153.846C183.216 153.949 183.283 154.031 183.381 154.081C183.479 154.131 183.592 154.142 183.695 154.109C183.797 154.076 183.883 154.011 183.939 153.902Z" fill="#B4DBDC"/>
<path d="M182.466 147.294C182.348 147.329 182.254 147.409 182.198 147.519C182.134 147.643 182.125 147.762 182.164 147.882C182.204 147.998 182.279 148.093 182.388 148.149C182.501 148.207 182.633 148.218 182.747 148.182C182.867 148.143 182.959 148.067 183.023 147.942C183.079 147.833 183.09 147.71 183.049 147.594C182.974 147.361 182.699 147.219 182.466 147.294Z" fill="#B4DBDC"/>
<path d="M186.485 144.144C186.365 144.182 186.269 144.257 186.213 144.366C186.151 144.486 186.146 144.608 186.185 144.727C186.221 144.841 186.296 144.937 186.405 144.993C186.518 145.051 186.651 145.062 186.765 145.025C186.881 144.985 186.976 144.91 187.038 144.79C187.094 144.681 187.099 144.559 187.065 144.442C186.988 144.212 186.713 144.07 186.485 144.144Z" fill="#B4DBDC"/>
<path d="M189.026 139.941C188.927 139.976 188.843 140.038 188.795 140.132C188.74 140.237 188.739 140.341 188.77 140.438C188.803 140.541 188.867 140.621 188.961 140.67C189.055 140.718 189.169 140.729 189.267 140.694C189.368 140.665 189.448 140.601 189.502 140.496C189.551 140.402 189.556 140.299 189.523 140.197C189.459 139.997 189.225 139.877 189.026 139.941Z" fill="#B4DBDC"/>
<path d="M194.176 141.631C194.286 141.687 194.416 141.702 194.532 141.662C194.646 141.625 194.736 141.552 194.8 141.428C194.854 141.322 194.863 141.203 194.826 141.089C194.749 140.859 194.478 140.72 194.25 140.793C194.136 140.83 194.044 140.906 193.99 141.012C193.926 141.136 193.917 141.255 193.956 141.365C193.994 141.485 194.067 141.575 194.176 141.631Z" fill="#B4DBDC"/>
<path d="M199.064 139.803C199.176 139.77 199.266 139.697 199.326 139.58C199.38 139.475 199.387 139.359 199.348 139.249C199.277 139.027 199.017 138.893 198.795 138.965C198.683 138.997 198.593 139.07 198.539 139.176C198.479 139.292 198.472 139.408 198.51 139.518C198.543 139.63 198.616 139.72 198.722 139.774C198.827 139.828 198.954 139.841 199.064 139.803Z" fill="#B4DBDC"/>
<path d="M185.718 178.663C185.661 178.681 185.619 178.717 185.596 178.762C185.567 178.818 185.563 178.873 185.583 178.926C185.599 178.978 185.631 179.018 185.684 179.045C185.733 179.07 185.791 179.076 185.843 179.06C185.894 179.043 185.94 179.01 185.969 178.953C185.994 178.904 185.993 178.851 185.978 178.796C185.945 178.694 185.821 178.63 185.718 178.663Z" fill="#B4DBDC"/>
<path d="M180.847 180.064C180.722 180.104 180.619 180.185 180.559 180.301C180.491 180.433 180.486 180.564 180.526 180.689C180.566 180.814 180.648 180.914 180.765 180.974C180.886 181.036 181.026 181.051 181.151 181.01C181.273 180.968 181.376 180.888 181.444 180.756C181.504 180.639 181.509 180.509 181.472 180.385C181.392 180.134 181.098 179.983 180.847 180.064Z" fill="#B4DBDC"/>
<path d="M177.64 183.43C177.538 183.463 177.452 183.528 177.402 183.626C177.344 183.739 177.34 183.847 177.373 183.95C177.408 184.058 177.475 184.14 177.573 184.191C177.671 184.241 177.788 184.254 177.897 184.219C177.999 184.186 178.082 184.119 178.14 184.006C178.19 183.908 178.197 183.802 178.164 183.699C178.096 183.488 177.851 183.362 177.64 183.43Z" fill="#B4DBDC"/>
<path d="M173.631 185.999C173.519 186.032 173.43 186.105 173.375 186.21C173.315 186.327 173.31 186.438 173.349 186.549C173.382 186.661 173.455 186.75 173.556 186.803C173.662 186.857 173.788 186.87 173.899 186.831C174.007 186.796 174.099 186.729 174.159 186.613C174.213 186.507 174.216 186.39 174.181 186.281C174.11 186.059 173.85 185.926 173.631 185.999Z" fill="#B4DBDC"/>
<path d="M206.486 144.849C206.396 144.874 206.322 144.936 206.279 145.019C206.231 145.113 206.224 145.209 206.255 145.297C206.283 145.392 206.341 145.464 206.427 145.509C206.514 145.553 206.614 145.562 206.707 145.529C206.796 145.503 206.871 145.442 206.919 145.348C206.962 145.265 206.969 145.168 206.938 145.081C206.879 144.898 206.668 144.79 206.486 144.849Z" fill="#B4DBDC"/>
<path d="M210.374 141.284C210.279 141.312 210.205 141.373 210.16 141.46C210.11 141.558 210.103 141.654 210.136 141.748C210.165 141.839 210.223 141.911 210.314 141.958C210.4 142.002 210.504 142.013 210.599 141.986C210.691 141.956 210.765 141.895 210.815 141.797C210.86 141.71 210.867 141.614 210.837 141.522C210.777 141.334 210.559 141.222 210.374 141.284Z" fill="#B4DBDC"/>
<path d="M190.714 159.025C190.651 159.045 190.598 159.084 190.565 159.148C190.53 159.216 190.529 159.282 190.55 159.345C190.572 159.413 190.613 159.463 190.673 159.494C190.737 159.527 190.809 159.535 190.873 159.512C190.936 159.491 190.99 159.452 191.024 159.384C191.057 159.32 191.058 159.254 191.038 159.191C190.996 159.06 190.845 158.983 190.714 159.025Z" fill="#B4DBDC"/>
<path d="M193.538 155.929C193.648 155.985 193.774 155.998 193.885 155.96C193.997 155.927 194.088 155.85 194.148 155.733C194.203 155.628 194.21 155.513 194.173 155.399C194.103 155.172 193.836 155.035 193.612 155.11C193.498 155.147 193.408 155.22 193.354 155.325C193.294 155.442 193.285 155.561 193.324 155.671C193.36 155.785 193.433 155.875 193.538 155.929Z" fill="#B4DBDC"/>
<path d="M195.089 150.817C195.146 150.846 195.218 150.855 195.28 150.835C195.337 150.816 195.391 150.777 195.424 150.713C195.455 150.653 195.455 150.587 195.437 150.53C195.397 150.404 195.254 150.331 195.128 150.371C195.067 150.387 195.018 150.428 194.987 150.489C194.954 150.553 194.949 150.617 194.972 150.676C194.992 150.739 195.033 150.788 195.089 150.817Z" fill="#B4DBDC"/>
<path d="M213.081 131.712C208.388 130.432 203.793 128.833 199.259 127.078C183.185 120.873 168.176 112.25 152.784 104.586L152.781 104.585C152.732 104.559 152.679 104.532 152.638 104.511C152.638 104.511 152.638 104.511 152.636 104.515C139.669 97.8837 126.708 91.6599 114.298 83.9918C107.885 80.0295 101.69 75.7648 96.0043 70.8147C95.0948 70.0188 94.2755 69.1216 93.788 68.0048C93.5792 67.5405 99.5979 68.2681 100.278 68.3798C104.161 69.0043 108.009 69.8972 111.808 70.8975C126.373 74.7231 140.061 81.1917 153.528 87.8037C167.122 94.4814 180.237 101.926 193.186 109.767C193.186 109.767 193.186 109.767 193.19 109.769C200.595 114.717 207.92 120.072 214.514 126.07C216.14 127.548 218.121 129.204 219.028 131.236C220.138 133.725 213.515 131.83 213.081 131.712ZM219.147 128.022C211.903 120.315 202.867 113.891 194.058 108.097C180.362 98.4589 165.167 90.8773 150.123 83.6021C135.047 76.3153 119.604 69.7874 103.081 66.6217C100.667 66.1613 90.4904 63.1588 91.7334 68.7052C92.2925 71.2108 95.5504 73.3184 97.3349 74.7735C100.493 77.3534 103.868 79.6592 107.23 81.9535C121.978 92.0277 138.269 99.5249 154.114 107.65C154.212 107.7 154.302 107.727 154.393 107.746C172.454 116.819 190.589 127.044 210.221 132.941C213.043 133.786 217.34 135.724 220.105 133.761C222.188 132.284 220.372 129.324 219.147 128.022Z" fill="#DAD9D6"/>
<path d="M86.525 147.144C86.4261 147.179 86.3459 147.243 86.2994 147.333C86.2453 147.438 86.2403 147.541 86.2715 147.638C86.3063 147.736 86.3698 147.817 86.4602 147.863C86.5543 147.911 86.664 147.92 86.7647 147.891C86.8616 147.86 86.9419 147.796 86.996 147.691C87.0425 147.601 87.0474 147.498 87.0182 147.398C86.9522 147.202 86.7226 147.084 86.525 147.144Z" fill="#DAD9D6"/>
<path d="M85.3721 142.543C85.315 142.561 85.2654 142.602 85.2383 142.655C85.2054 142.719 85.2028 142.779 85.2211 142.836C85.2432 142.895 85.2805 142.943 85.337 142.972C85.3935 143.001 85.4559 143.009 85.5148 142.987C85.5756 142.971 85.6196 142.932 85.6525 142.868C85.6795 142.815 85.6878 142.752 85.6658 142.693C85.6311 142.576 85.4918 142.504 85.3721 142.543Z" fill="#DAD9D6"/>
<path d="M81.9317 138.752C81.8177 138.788 81.7298 138.858 81.6756 138.963C81.6137 139.083 81.6067 139.199 81.6453 139.309C81.6819 139.423 81.7547 139.513 81.8602 139.567C81.9656 139.621 82.0885 139.632 82.2026 139.596C82.3109 139.561 82.4044 139.49 82.4664 139.369C82.5206 139.264 82.5218 139.15 82.489 139.038C82.4176 138.816 82.154 138.68 81.9317 138.752Z" fill="#DAD9D6"/>
<path d="M80.2422 134.395C80.17 134.415 80.1127 134.461 80.0778 134.529C80.0372 134.608 80.0326 134.682 80.0583 134.752C80.0783 134.824 80.125 134.882 80.1928 134.917C80.2644 134.953 80.3457 134.962 80.416 134.936C80.4882 134.916 80.5455 134.869 80.5862 134.79C80.621 134.723 80.6256 134.649 80.5999 134.578C80.5561 134.432 80.3866 134.345 80.2422 134.395Z" fill="#DAD9D6"/>
<path d="M80.0582 129.474C79.9442 129.511 79.8544 129.583 79.8021 129.685C79.7421 129.802 79.7351 129.917 79.7737 130.027C79.8065 130.139 79.8794 130.229 79.9848 130.283C80.0902 130.338 80.2169 130.35 80.331 130.314C80.4393 130.279 80.5291 130.206 80.5891 130.089C80.6413 129.988 80.6483 129.872 80.6154 129.76C80.5403 129.536 80.2805 129.403 80.0582 129.474Z" fill="#DAD9D6"/>
<path d="M82.267 125.663C82.381 125.626 82.4765 125.551 82.5404 125.427C82.5965 125.318 82.6036 125.193 82.567 125.079C82.4919 124.845 82.2171 124.704 81.9833 124.779C81.8693 124.816 81.7719 124.894 81.7158 125.003C81.6519 125.128 81.6468 125.249 81.6834 125.363C81.7218 125.482 81.7984 125.574 81.9076 125.63C82.0168 125.686 82.1473 125.701 82.267 125.663Z" fill="#DAD9D6"/>
<path d="M80.7525 119.964C80.6519 119.993 80.5735 120.062 80.5251 120.156C80.4709 120.262 80.4603 120.366 80.4951 120.465C80.5281 120.567 80.5953 120.649 80.6895 120.698C80.7836 120.746 80.8971 120.757 80.9997 120.724C81.0966 120.693 81.1788 120.626 81.233 120.52C81.2814 120.426 81.2882 120.32 81.2571 120.223C81.1912 120.018 80.954 119.896 80.7525 119.964Z" fill="#DAD9D6"/>
<path d="M82.7815 115.647C82.7429 115.537 82.6187 115.473 82.5103 115.508C82.4553 115.522 82.4132 115.558 82.3861 115.61C82.3571 115.667 82.3527 115.722 82.3729 115.775C82.3875 115.83 82.4211 115.876 82.4738 115.903C82.5265 115.93 82.587 115.933 82.6441 115.914C82.6954 115.898 82.7374 115.862 82.7664 115.806C82.7935 115.753 82.7979 115.698 82.7815 115.647Z" fill="#DAD9D6"/>
<path d="M80.4678 110.158C80.3424 110.199 80.2374 110.283 80.1754 110.403C80.1058 110.539 80.0986 110.673 80.1388 110.799C80.1809 110.93 80.2669 111.031 80.3874 111.093C80.5079 111.155 80.6516 111.172 80.7827 111.129C80.9081 111.089 81.0132 111.005 81.0829 110.87C81.1448 110.749 81.152 110.615 81.1117 110.489C81.0256 110.231 80.7244 110.076 80.4678 110.158Z" fill="#DAD9D6"/>
<path d="M83.4717 105.878C83.3406 105.92 83.2393 106.006 83.1793 106.123C83.1097 106.259 83.0987 106.391 83.1447 106.515C83.183 106.644 83.267 106.749 83.3875 106.811C83.508 106.873 83.6537 106.886 83.781 106.842C83.9045 106.805 84.0096 106.721 84.0793 106.586C84.1392 106.469 84.1464 106.334 84.1081 106.205C84.0295 105.951 83.7283 105.796 83.4717 105.878Z" fill="#DAD9D6"/>
<path d="M85.2437 101.366C85.1183 101.407 85.0132 101.491 84.9513 101.611C84.8816 101.747 84.8764 101.877 84.9167 102.003C84.9587 102.134 85.0428 102.239 85.1595 102.299C85.28 102.361 85.4294 102.376 85.5568 102.332C85.6822 102.291 85.7853 102.211 85.855 102.076C85.9169 101.955 85.9241 101.821 85.8838 101.695C85.8015 101.439 85.5002 101.284 85.2437 101.366Z" fill="#DAD9D6"/>
<path d="M85.7587 97.0419C85.6846 97.0657 85.6273 97.1124 85.5925 97.1801C85.5538 97.2554 85.5492 97.3292 85.573 97.4033C85.5987 97.4737 85.6435 97.5348 85.7112 97.5696C85.779 97.6044 85.8623 97.6092 85.9344 97.5891C86.0048 97.5634 86.0621 97.5167 86.1008 97.4414C86.1356 97.3736 86.1403 97.2998 86.1202 97.2276C86.0707 97.0832 85.9013 96.9961 85.7587 97.0419Z" fill="#DAD9D6"/>
<path d="M88.8446 93.4501C88.7827 93.5706 88.7738 93.6898 88.8104 93.8038C88.847 93.9178 88.9236 94.0095 89.0328 94.0657C89.142 94.1218 89.2687 94.1345 89.3828 94.0979C89.4968 94.0613 89.5923 93.9867 89.6542 93.8662C89.7103 93.757 89.7135 93.6396 89.6769 93.5256C89.6056 93.2938 89.3345 93.1545 89.1046 93.2314C88.9906 93.268 88.9008 93.3409 88.8446 93.4501Z" fill="#DAD9D6"/>
<path d="M90.2087 88.4579C90.0833 88.4981 89.9858 88.5766 89.9278 88.6895C89.862 88.8176 89.853 88.9462 89.8952 89.0679C89.9317 89.1913 90.0139 89.2907 90.1268 89.3488C90.2436 89.4088 90.3797 89.4216 90.5052 89.3814C90.6249 89.3429 90.7242 89.2607 90.79 89.1327C90.8481 89.0197 90.8552 88.8949 90.8187 88.7714C90.74 88.5262 90.45 88.3772 90.2087 88.4579Z" fill="#DAD9D6"/>
<path d="M106.804 158.137C106.712 158.166 106.638 158.228 106.595 158.311C106.545 158.408 106.54 158.501 106.569 158.592C106.599 158.684 106.657 158.756 106.743 158.801C106.83 158.845 106.934 158.856 107.025 158.827C107.112 158.795 107.189 158.739 107.239 158.642C107.282 158.559 107.288 158.462 107.259 158.371C107.201 158.189 106.986 158.078 106.804 158.137Z" fill="#DAD9D6"/>
<path d="M103.358 154.817C103.264 154.85 103.186 154.91 103.142 154.997C103.091 155.094 103.088 155.193 103.116 155.288C103.149 155.381 103.208 155.459 103.295 155.504C103.385 155.55 103.495 155.559 103.586 155.53C103.68 155.497 103.758 155.437 103.808 155.339C103.853 155.252 103.856 155.154 103.828 155.059C103.768 154.871 103.546 154.757 103.358 154.817Z" fill="#DAD9D6"/>
<path d="M100.541 150.714C100.438 150.747 100.356 150.815 100.308 150.909C100.254 151.014 100.247 151.12 100.28 151.223C100.309 151.323 100.376 151.406 100.474 151.456C100.568 151.504 100.685 151.517 100.788 151.484C100.887 151.449 100.969 151.382 101.023 151.276C101.072 151.182 101.078 151.076 101.049 150.976C100.983 150.77 100.742 150.647 100.541 150.714Z" fill="#DAD9D6"/>
<path d="M96.5113 148.117C96.441 148.142 96.3837 148.189 96.3508 148.253C96.314 148.325 96.3094 148.398 96.3313 148.467C96.3551 148.541 96.4 148.593 96.464 148.625C96.5318 148.66 96.6074 148.671 96.6815 148.647C96.7499 148.625 96.8072 148.578 96.844 148.507C96.8769 148.443 96.8815 148.369 96.8615 148.297C96.8138 148.158 96.6519 148.075 96.5113 148.117Z" fill="#DAD9D6"/>
<path d="M95.8665 143.182C95.7905 143.21 95.7255 143.262 95.6868 143.337C95.6443 143.42 95.6395 143.503 95.6633 143.577C95.689 143.657 95.7413 143.722 95.8166 143.761C95.8919 143.799 95.9789 143.806 96.0587 143.781C96.1366 143.759 96.2015 143.706 96.2441 143.624C96.2828 143.548 96.2875 143.465 96.2619 143.385C96.2087 143.229 96.0242 143.134 95.8665 143.182Z" fill="#DAD9D6"/>
<path d="M94.1165 138.59C93.9968 138.628 93.8994 138.707 93.8413 138.82C93.7774 138.944 93.7723 139.065 93.8107 139.185C93.8492 139.305 93.9238 139.4 94.0368 139.458C94.1498 139.516 94.2859 139.529 94.4019 139.489C94.5216 139.45 94.6171 139.376 94.681 139.251C94.739 139.138 94.7461 139.013 94.7077 138.894C94.6326 138.66 94.3502 138.515 94.1165 138.59Z" fill="#DAD9D6"/>
<path d="M91.356 134.806C91.2857 134.832 91.2303 134.875 91.1974 134.939C91.1606 135.011 91.158 135.081 91.1799 135.149C91.2019 135.218 91.2486 135.275 91.3088 135.306C91.3766 135.341 91.4542 135.347 91.5188 135.323C91.5872 135.301 91.6426 135.258 91.6794 135.187C91.7123 135.123 91.7149 135.053 91.6949 134.981C91.6528 134.85 91.4909 134.766 91.356 134.806Z" fill="#DAD9D6"/>
<path d="M89.1366 130.132C89.0453 130.161 88.9708 130.222 88.9282 130.305C88.8779 130.403 88.8731 130.496 88.9024 130.587C88.9317 130.678 88.9896 130.751 89.0762 130.795C89.1628 130.84 89.2668 130.851 89.358 130.821C89.4454 130.79 89.5218 130.734 89.5721 130.636C89.6147 130.553 89.6177 130.455 89.5922 130.366C89.5336 130.183 89.319 130.073 89.1366 130.132Z" fill="#DAD9D6"/>
<path d="M89.7476 125.286C89.6488 125.321 89.5686 125.385 89.5221 125.475C89.4699 125.577 89.4649 125.679 89.496 125.776C89.5252 125.876 89.5887 125.957 89.6828 126.005C89.777 126.053 89.8867 126.062 89.9855 126.027C90.0825 125.996 90.1627 125.933 90.2149 125.831C90.2614 125.741 90.2663 125.638 90.2371 125.538C90.1749 125.344 89.9452 125.226 89.7476 125.286Z" fill="#DAD9D6"/>
<path d="M90.6491 120.624C90.5959 120.645 90.5558 120.676 90.5287 120.729C90.5016 120.782 90.4972 120.837 90.5137 120.888C90.532 120.945 90.5637 120.985 90.6164 121.012C90.6654 121.037 90.724 121.044 90.7773 121.024C90.8286 121.007 90.8706 120.972 90.8977 120.919C90.9248 120.866 90.9273 120.815 90.9127 120.76C90.8798 120.657 90.7555 120.593 90.6491 120.624Z" fill="#DAD9D6"/>
<path d="M88.8189 115.943C88.7524 115.961 88.6971 116.004 88.6661 116.064C88.6293 116.136 88.6267 116.206 88.6506 116.27C88.6687 116.337 88.7136 116.388 88.7739 116.419C88.8379 116.452 88.9097 116.461 88.9781 116.439C89.0446 116.42 89.0962 116.375 89.133 116.304C89.164 116.244 89.1704 116.176 89.1465 116.111C89.1044 115.98 88.95 115.901 88.8189 115.943Z" fill="#DAD9D6"/>
<path d="M88.9218 111.712C89.0348 111.77 89.171 111.783 89.2964 111.743C89.4104 111.706 89.5098 111.624 89.5737 111.5C89.6317 111.387 89.6388 111.262 89.606 111.14C89.5254 110.899 89.243 110.754 88.9998 110.829C88.8782 110.871 88.7807 110.949 88.7227 111.062C88.6588 111.187 88.6517 111.312 88.6902 111.431C88.7304 111.557 88.8089 111.654 88.9218 111.712Z" fill="#DAD9D6"/>
<path d="M91.1563 106.848C91.2008 106.761 91.2057 106.669 91.1764 106.577C91.116 106.389 90.9014 106.279 90.717 106.341C90.622 106.369 90.5494 106.427 90.5049 106.513C90.4546 106.611 90.4478 106.708 90.4809 106.801C90.5102 106.892 90.5681 106.965 90.6547 107.009C90.7413 107.054 90.8453 107.064 90.9403 107.037C91.0315 107.008 91.106 106.946 91.1563 106.848Z" fill="#DAD9D6"/>
<path d="M91.0952 105.805C91.1242 105.749 91.1268 105.688 91.1085 105.631C91.07 105.512 90.9307 105.44 90.811 105.478C90.754 105.497 90.7063 105.534 90.6772 105.591C90.6443 105.655 90.6418 105.715 90.6601 105.772C90.6802 105.835 90.7175 105.883 90.774 105.912C90.8305 105.941 90.8986 105.947 90.9575 105.925C91.0145 105.907 91.0623 105.869 91.0952 105.805Z" fill="#DAD9D6"/>
<path d="M155.827 117.355C155.736 117.384 155.665 117.438 155.623 117.521C155.574 117.615 155.569 117.708 155.601 117.795C155.628 117.881 155.686 117.954 155.769 117.996C155.852 118.039 155.95 118.051 156.037 118.02C156.127 117.994 156.195 117.935 156.244 117.84C156.286 117.758 156.293 117.671 156.264 117.579C156.211 117.405 156.004 117.298 155.827 117.355Z" fill="#DAD9D6"/>
<path d="M151.295 115.795C151.194 115.824 151.117 115.89 151.069 115.984C151.017 116.086 151.008 116.186 151.043 116.285C151.072 116.385 151.138 116.462 151.228 116.508C151.322 116.557 151.434 116.571 151.532 116.536C151.629 116.505 151.71 116.442 151.762 116.34C151.81 116.246 151.815 116.144 151.784 116.047C151.724 115.849 151.49 115.729 151.295 115.795Z" fill="#DAD9D6"/>
<path d="M146.517 115.075C146.449 115.097 146.393 115.14 146.36 115.204C146.326 115.272 146.321 115.346 146.345 115.411C146.363 115.477 146.41 115.534 146.47 115.565C146.538 115.6 146.612 115.605 146.68 115.583C146.747 115.565 146.804 115.518 146.839 115.45C146.872 115.386 146.874 115.316 146.852 115.248C146.808 115.111 146.65 115.03 146.517 115.075Z" fill="#DAD9D6"/>
<path d="M142.67 111.779C142.573 111.81 142.495 111.87 142.45 111.957C142.398 112.058 142.395 112.157 142.428 112.25C142.455 112.345 142.521 112.421 142.607 112.466C142.698 112.512 142.806 112.525 142.899 112.492C142.994 112.464 143.068 112.403 143.12 112.301C143.165 112.215 143.172 112.118 143.141 112.021C143.08 111.833 142.858 111.719 142.67 111.779Z" fill="#DAD9D6"/>
<path d="M138.998 108.425C138.884 108.462 138.794 108.535 138.74 108.64C138.68 108.757 138.673 108.872 138.71 108.986C138.743 109.098 138.819 109.19 138.925 109.244C139.03 109.298 139.157 109.311 139.267 109.273C139.381 109.236 139.471 109.163 139.531 109.046C139.585 108.941 139.592 108.826 139.555 108.712C139.486 108.485 139.222 108.35 138.998 108.425Z" fill="#DAD9D6"/>
<path d="M134.593 106.53C134.473 106.568 134.374 106.65 134.315 106.763C134.25 106.891 134.241 107.02 134.281 107.136C134.321 107.261 134.4 107.359 134.516 107.419C134.629 107.477 134.766 107.49 134.891 107.449C135.009 107.415 135.108 107.332 135.174 107.204C135.232 107.091 135.241 106.963 135.203 106.843C135.122 106.602 134.836 106.455 134.593 106.53Z" fill="#DAD9D6"/>
<path d="M130.417 104.548C130.343 104.572 130.286 104.618 130.251 104.686C130.212 104.761 130.205 104.839 130.231 104.909C130.255 104.983 130.302 105.041 130.369 105.075C130.441 105.112 130.522 105.121 130.596 105.097C130.665 105.075 130.724 105.025 130.763 104.949C130.798 104.881 130.802 104.808 130.782 104.735C130.735 104.587 130.561 104.498 130.417 104.548Z" fill="#DAD9D6"/>
<path d="M124.885 104.712C124.769 104.752 124.674 104.827 124.62 104.933C124.558 105.053 124.552 105.174 124.589 105.288C124.624 105.406 124.7 105.498 124.81 105.554C124.919 105.61 125.049 105.625 125.165 105.584C125.279 105.548 125.371 105.471 125.433 105.351C125.487 105.245 125.496 105.126 125.461 105.008C125.388 104.78 125.113 104.639 124.885 104.712Z" fill="#DAD9D6"/>
<path d="M122.122 99.6555C122.016 99.6866 121.929 99.7613 121.879 99.8592C121.823 99.9684 121.814 100.078 121.849 100.186C121.884 100.295 121.955 100.379 122.053 100.429C122.154 100.481 122.274 100.49 122.38 100.459C122.484 100.423 122.572 100.354 122.628 100.244C122.679 100.146 122.684 100.035 122.653 99.9284C122.585 99.7175 122.333 99.5878 122.122 99.6555Z" fill="#DAD9D6"/>
<path d="M118.008 98.0265C117.951 98.0448 117.904 98.0822 117.876 98.1349C117.845 98.1951 117.843 98.2557 117.861 98.3127C117.879 98.3697 117.919 98.4137 117.971 98.4408C118.024 98.4679 118.09 98.4781 118.147 98.4598C118.204 98.4415 118.252 98.4041 118.283 98.3439C118.31 98.2912 118.313 98.2306 118.294 98.1736C118.258 98.0596 118.122 97.9899 118.008 98.0265Z" fill="#DAD9D6"/>
<path d="M113.137 97.644C113.24 97.6111 113.325 97.5457 113.382 97.4365C113.43 97.3424 113.433 97.2345 113.402 97.1281C113.336 96.9229 113.091 96.7971 112.886 96.863C112.782 96.8997 112.699 96.967 112.651 97.0611C112.595 97.1703 112.588 97.2763 112.621 97.3789C112.652 97.4852 112.723 97.5693 112.817 97.6177C112.915 97.668 113.032 97.6807 113.137 97.644Z" fill="#DAD9D6"/>
<path d="M109.855 92.8575C109.756 92.8923 109.675 92.9558 109.627 93.05C109.573 93.1554 109.568 93.2576 109.597 93.3582C109.63 93.4609 109.699 93.5393 109.79 93.5857C109.888 93.636 109.999 93.6505 110.098 93.6156C110.201 93.5827 110.281 93.5192 110.335 93.4138C110.383 93.3196 110.388 93.2175 110.355 93.1148C110.291 92.9153 110.054 92.7934 109.855 92.8575Z" fill="#DAD9D6"/>
<path d="M105.615 91.6539C105.645 91.5936 105.652 91.5255 105.632 91.4628C105.588 91.3355 105.437 91.2581 105.312 91.2983C105.245 91.3165 105.194 91.3614 105.163 91.4216C105.13 91.4856 105.123 91.5537 105.147 91.6184C105.167 91.6811 105.207 91.7345 105.267 91.7655C105.327 91.7965 105.401 91.8011 105.467 91.7829C105.53 91.7627 105.582 91.7179 105.615 91.6539Z" fill="#DAD9D6"/>
<path d="M102.99 87.0169C102.924 86.8211 102.69 86.7011 102.493 86.7614C102.394 86.7963 102.314 86.8598 102.265 86.9539C102.213 87.0556 102.206 87.1615 102.237 87.2585C102.272 87.3573 102.336 87.4375 102.43 87.4859C102.524 87.5343 102.634 87.5431 102.734 87.5139C102.831 87.4828 102.913 87.4156 102.966 87.3139C103.014 87.2198 103.019 87.1176 102.99 87.0169Z" fill="#DAD9D6"/>
<path d="M98.7488 84.722C98.843 84.7704 98.9602 84.7831 99.0628 84.7501C99.1654 84.7172 99.2476 84.6499 99.3018 84.5445C99.3521 84.4466 99.359 84.3406 99.326 84.238C99.2601 84.0328 99.0191 83.9089 98.8139 83.9748C98.7113 84.0078 98.6291 84.075 98.5788 84.1729C98.5246 84.2783 98.5178 84.3843 98.5507 84.4869C98.5837 84.5895 98.6509 84.6717 98.7488 84.722Z" fill="#DAD9D6"/>
<path d="M93.7105 82.7138C93.6441 82.732 93.5887 82.7749 93.5558 82.8389C93.5209 82.9067 93.5183 82.9767 93.5402 83.0452C93.5622 83.1136 93.6071 83.1652 93.6673 83.1961C93.7313 83.229 93.8032 83.2374 93.8716 83.2155C93.94 83.1935 93.9916 83.1486 94.0264 83.0809C94.0593 83.0168 94.0658 82.9487 94.0419 82.8841C94.0017 82.7492 93.8436 82.6679 93.7105 82.7138Z" fill="#DAD9D6"/>
<path d="M87.9384 101.074C87.8529 101.101 87.7803 101.159 87.7377 101.242C87.6913 101.333 87.6884 101.422 87.7159 101.507C87.7414 101.596 87.7993 101.669 87.8783 101.71C87.9612 101.752 88.0614 101.761 88.1527 101.732C88.2382 101.704 88.3051 101.648 88.3515 101.558C88.3941 101.475 88.4027 101.384 88.3752 101.299C88.3165 101.126 88.1132 101.021 87.9384 101.074Z" fill="#DAD9D6"/>
<path d="M90.3104 97.0209C90.2477 97.041 90.1961 97.0859 90.1651 97.1461C90.1303 97.2139 90.1238 97.282 90.144 97.3447C90.1679 97.4094 90.209 97.459 90.2692 97.49C90.3332 97.5229 90.4051 97.5313 90.4678 97.5111C90.5305 97.491 90.5859 97.4481 90.6207 97.3803C90.6517 97.3201 90.6544 97.25 90.6342 97.1873C90.5921 97.0562 90.4415 96.9788 90.3104 97.0209Z" fill="#DAD9D6"/>
<path d="M90.4376 92.2401C90.5155 92.2182 90.5747 92.1678 90.6154 92.0887C90.6522 92.0171 90.6587 91.9396 90.6331 91.8598C90.5874 91.7078 90.4067 91.6149 90.2528 91.6643C90.1767 91.6919 90.1137 91.7404 90.0769 91.8119C90.0363 91.891 90.0335 91.9705 90.0573 92.0446C90.0829 92.1244 90.1334 92.1837 90.2049 92.2205C90.2765 92.2572 90.3616 92.2676 90.4376 92.2401Z" fill="#DAD9D6"/>
<path d="M94.3874 88.6484C94.2791 88.6831 94.1893 88.756 94.137 88.8576C94.079 88.9706 94.072 89.086 94.1068 89.1943C94.1453 89.3046 94.2144 89.3925 94.3198 89.4466C94.4215 89.4989 94.5482 89.5117 94.6565 89.4769C94.7649 89.4421 94.8547 89.3693 94.9127 89.2563C94.965 89.1546 94.9719 89.0392 94.9372 88.9309C94.8658 88.7086 94.6097 88.577 94.3874 88.6484Z" fill="#DAD9D6"/>
<path d="M153.615 126.272C153.535 126.298 153.47 126.35 153.431 126.425C153.389 126.508 153.384 126.591 153.41 126.671C153.435 126.751 153.488 126.816 153.563 126.855C153.638 126.893 153.729 126.902 153.809 126.876C153.889 126.851 153.954 126.798 153.996 126.716C154.035 126.64 154.04 126.557 154.014 126.477C153.965 126.314 153.777 126.217 153.615 126.272Z" fill="#DAD9D6"/>
<path d="M150.014 122.888C149.928 122.915 149.856 122.973 149.813 123.056C149.766 123.146 149.762 123.239 149.789 123.324C149.817 123.41 149.874 123.483 149.957 123.525C150.04 123.568 150.137 123.574 150.226 123.549C150.311 123.521 150.384 123.464 150.43 123.373C150.473 123.29 150.478 123.198 150.45 123.112C150.392 122.939 150.185 122.833 150.014 122.888Z" fill="#DAD9D6"/>
<path d="M146.333 119.548C146.221 119.581 146.129 119.657 146.077 119.759C146.015 119.88 146.008 119.995 146.047 120.105C146.079 120.217 146.152 120.307 146.262 120.363C146.367 120.417 146.494 120.43 146.604 120.392C146.716 120.359 146.806 120.286 146.868 120.165C146.92 120.064 146.929 119.945 146.89 119.834C146.821 119.608 146.557 119.473 146.333 119.548Z" fill="#DAD9D6"/>
<path d="M140.702 119.856C140.574 119.9 140.471 119.98 140.409 120.1C140.34 120.236 140.332 120.37 140.373 120.496C140.415 120.627 140.501 120.728 140.621 120.79C140.742 120.852 140.885 120.869 141.013 120.825C141.138 120.784 141.243 120.7 141.313 120.565C141.375 120.444 141.38 120.314 141.342 120.185C141.259 119.928 140.958 119.773 140.702 119.856Z" fill="#DAD9D6"/>
<path d="M137.871 115.182C137.757 115.219 137.667 115.291 137.613 115.397C137.553 115.514 137.544 115.633 137.583 115.743C137.619 115.857 137.69 115.951 137.8 116.007C137.905 116.061 138.034 116.07 138.148 116.033C138.26 116 138.351 115.924 138.411 115.807C138.466 115.702 138.473 115.586 138.436 115.472C138.363 115.244 138.095 115.107 137.871 115.182Z" fill="#DAD9D6"/>
<path d="M133.841 112.653C133.731 112.692 133.643 112.761 133.589 112.866C133.529 112.983 133.524 113.095 133.558 113.203C133.591 113.315 133.664 113.405 133.77 113.459C133.871 113.511 133.998 113.524 134.108 113.486C134.217 113.451 134.304 113.382 134.364 113.265C134.419 113.16 134.424 113.048 134.391 112.936C134.317 112.717 134.058 112.584 133.841 112.653Z" fill="#DAD9D6"/>
<path d="M128.335 113.065C128.266 113.087 128.209 113.134 128.174 113.202C128.137 113.273 128.133 113.347 128.155 113.415C128.178 113.489 128.227 113.543 128.291 113.576C128.359 113.611 128.434 113.621 128.509 113.597C128.577 113.575 128.634 113.529 128.671 113.457C128.706 113.389 128.71 113.316 128.689 113.247C128.643 113.105 128.477 113.019 128.335 113.065Z" fill="#DAD9D6"/>
<path d="M125.737 107.796C125.655 107.825 125.59 107.877 125.549 107.956C125.505 108.043 125.498 108.13 125.524 108.21C125.551 108.295 125.603 108.36 125.682 108.401C125.762 108.441 125.856 108.452 125.938 108.423C126.021 108.399 126.088 108.343 126.133 108.256C126.173 108.177 126.178 108.094 126.151 108.008C126.098 107.843 125.902 107.742 125.737 107.796Z" fill="#DAD9D6"/>
<path d="M121.709 106.332C121.802 106.299 121.882 106.236 121.934 106.134C121.981 106.044 121.986 105.942 121.958 105.847C121.891 105.655 121.665 105.539 121.473 105.597C121.374 105.632 121.296 105.692 121.249 105.782C121.197 105.884 121.192 105.986 121.223 106.083C121.254 106.18 121.318 106.26 121.408 106.306C121.498 106.353 121.608 106.362 121.709 106.332Z" fill="#DAD9D6"/>
<path d="M117.414 104.169C117.471 104.15 117.513 104.115 117.541 104.062C117.568 104.009 117.572 103.954 117.552 103.901C117.521 103.795 117.393 103.729 117.288 103.766C117.233 103.78 117.191 103.816 117.164 103.868C117.137 103.921 117.132 103.976 117.151 104.033C117.167 104.084 117.203 104.126 117.252 104.152C117.304 104.179 117.363 104.185 117.414 104.169Z" fill="#DAD9D6"/>
<path d="M112.773 103.049C112.895 103.007 112.993 102.929 113.06 102.797C113.118 102.684 113.127 102.555 113.091 102.432C113.008 102.185 112.718 102.036 112.473 102.114C112.348 102.155 112.249 102.237 112.19 102.35C112.123 102.482 112.116 102.607 112.156 102.732C112.196 102.857 112.278 102.957 112.391 103.015C112.508 103.075 112.648 103.09 112.773 103.049Z" fill="#DAD9D6"/>
<path d="M108.652 100.725C108.703 100.627 108.71 100.521 108.677 100.419C108.611 100.214 108.37 100.09 108.165 100.156C108.062 100.189 107.98 100.256 107.929 100.354C107.875 100.459 107.868 100.565 107.901 100.668C107.934 100.77 108.002 100.853 108.099 100.903C108.194 100.951 108.311 100.964 108.413 100.931C108.516 100.898 108.598 100.831 108.652 100.725Z" fill="#DAD9D6"/>
<path d="M105.378 95.7591C105.304 95.7829 105.247 95.8296 105.21 95.9011C105.171 95.9764 105.167 96.0502 105.191 96.1243C105.214 96.1984 105.261 96.2558 105.333 96.2925C105.4 96.3274 105.482 96.3358 105.556 96.3121C105.63 96.2883 105.687 96.2416 105.726 96.1663C105.763 96.0947 105.767 96.0209 105.744 95.9468C105.694 95.8024 105.525 95.7153 105.378 95.7591Z" fill="#DAD9D6"/>
<path d="M100.986 94.2788C101.05 94.3117 101.127 94.3182 101.196 94.2962C101.262 94.278 101.314 94.2332 101.351 94.1616C101.383 94.0976 101.39 94.0295 101.368 93.9611C101.324 93.8243 101.166 93.743 101.029 93.7869C100.961 93.8089 100.909 93.8538 100.876 93.9178C100.839 93.9893 100.833 94.0574 100.857 94.1221C100.879 94.1905 100.922 94.2459 100.986 94.2788Z" fill="#DAD9D6"/>
<path d="M95.3314 93.8644C95.2421 93.8899 95.1676 93.9516 95.125 94.0344C95.0766 94.1285 95.0718 94.2213 95.1011 94.3125C95.1304 94.4037 95.1883 94.4763 95.2711 94.5189C95.3577 94.5634 95.458 94.5721 95.5492 94.5428C95.6404 94.5135 95.713 94.4556 95.7613 94.3615C95.8039 94.2786 95.8107 94.1821 95.7795 94.0947C95.7247 93.9142 95.51 93.8039 95.3314 93.8644Z" fill="#DAD9D6"/>
<path d="M106.353 135.473C106.284 135.495 106.227 135.541 106.192 135.609C106.153 135.684 106.149 135.758 106.171 135.827C106.195 135.901 106.241 135.958 106.305 135.991C106.373 136.026 106.454 136.034 106.528 136.01C106.597 135.988 106.654 135.942 106.693 135.866C106.728 135.799 106.732 135.725 106.71 135.656C106.665 135.514 106.495 135.427 106.353 135.473Z" fill="#DAD9D6"/>
<path d="M102.602 132.188C102.477 132.228 102.372 132.312 102.31 132.433C102.24 132.568 102.235 132.699 102.273 132.828C102.315 132.959 102.401 133.061 102.522 133.122C102.642 133.184 102.786 133.201 102.913 133.157C103.044 133.115 103.147 133.035 103.217 132.899C103.279 132.779 103.286 132.644 103.242 132.517C103.16 132.26 102.859 132.106 102.602 132.188Z" fill="#DAD9D6"/>
<path d="M101.655 128.455C101.581 128.479 101.516 128.531 101.479 128.603C101.439 128.682 101.434 128.765 101.458 128.839C101.485 128.916 101.534 128.979 101.605 129.015C101.681 129.054 101.766 129.064 101.842 129.037C101.92 129.015 101.981 128.961 102.021 128.882C102.058 128.81 102.067 128.729 102.039 128.653C101.99 128.499 101.809 128.406 101.655 128.455Z" fill="#DAD9D6"/>
<path d="M101.936 123.696C101.875 123.712 101.825 123.754 101.796 123.81C101.764 123.874 101.759 123.938 101.779 124.001C101.799 124.064 101.84 124.113 101.897 124.143C101.957 124.173 102.025 124.18 102.084 124.158C102.147 124.138 102.195 124.1 102.229 124.033C102.258 123.976 102.263 123.912 102.241 123.853C102.204 123.729 102.061 123.656 101.936 123.696Z" fill="#DAD9D6"/>
<path d="M101.808 119.091C101.702 119.122 101.618 119.193 101.568 119.291C101.511 119.4 101.505 119.506 101.541 119.611C101.572 119.717 101.64 119.799 101.737 119.85C101.835 119.9 101.953 119.913 102.061 119.878C102.164 119.845 102.246 119.778 102.302 119.669C102.352 119.571 102.361 119.461 102.328 119.358C102.258 119.151 102.014 119.025 101.808 119.091Z" fill="#DAD9D6"/>
<path d="M101.559 114.974C101.586 114.921 101.588 114.86 101.568 114.807C101.535 114.695 101.403 114.627 101.293 114.666C101.238 114.68 101.194 114.72 101.167 114.772C101.138 114.829 101.134 114.884 101.152 114.941C101.17 114.998 101.204 115.044 101.256 115.071C101.309 115.098 101.373 115.102 101.43 115.084C101.484 115.064 101.529 115.03 101.559 114.974Z" fill="#DAD9D6"/>
<path d="M102.479 109.913C102.39 109.939 102.321 109.999 102.281 110.078C102.232 110.172 102.226 110.259 102.257 110.346C102.282 110.436 102.337 110.506 102.419 110.549C102.502 110.592 102.602 110.6 102.69 110.569C102.775 110.542 102.846 110.487 102.894 110.393C102.935 110.314 102.94 110.221 102.912 110.136C102.86 109.961 102.652 109.855 102.479 109.913Z" fill="#DAD9D6"/>
<path d="M104.111 106.812C104.191 106.787 104.255 106.734 104.298 106.651C104.337 106.576 104.341 106.493 104.316 106.413C104.267 106.25 104.078 106.153 103.917 106.208C103.837 106.234 103.772 106.286 103.733 106.361C103.691 106.444 103.686 106.527 103.712 106.607C103.737 106.687 103.789 106.752 103.865 106.791C103.94 106.829 104.031 106.838 104.111 106.812Z" fill="#DAD9D6"/>
<path d="M96.083 102.542C96.1391 102.433 96.1461 102.308 96.1095 102.194C96.0327 101.955 95.754 101.812 95.5184 101.891C95.4006 101.925 95.3032 102.004 95.247 102.113C95.1832 102.237 95.1761 102.362 95.2165 102.478C95.2549 102.598 95.3296 102.693 95.4425 102.751C95.5517 102.807 95.6879 102.82 95.8076 102.782C95.9216 102.745 96.0191 102.667 96.083 102.542Z" fill="#DAD9D6"/>
<path d="M95.2138 97.8317C95.2966 97.8742 95.3969 97.8829 95.4824 97.8555C95.5679 97.828 95.6405 97.7701 95.6869 97.6798C95.7276 97.6007 95.7324 97.508 95.705 97.4225C95.6482 97.2457 95.4449 97.1412 95.2719 97.1999C95.1864 97.2274 95.1138 97.2853 95.0732 97.3643C95.0267 97.4547 95.0219 97.5474 95.0494 97.6329C95.0768 97.7184 95.1347 97.791 95.2138 97.8317Z" fill="#DAD9D6"/>
<path d="M89.1855 78.6575C89.1285 78.6758 89.0808 78.7131 89.0517 78.7696C89.0188 78.8336 89.0163 78.8942 89.0346 78.9512C89.0547 79.0139 89.092 79.0616 89.1485 79.0907C89.205 79.1197 89.2731 79.1261 89.332 79.1041C89.389 79.0858 89.4368 79.0484 89.4697 78.9844C89.4987 78.9279 89.5013 78.8674 89.483 78.8104C89.4446 78.6906 89.3052 78.619 89.1855 78.6575Z" fill="#DAD9D6"/>
</g>
<path d="M150.896 86.3756L141.039 83.8283C136.994 82.7828 133.138 81.1072 129.613 78.863L127.938 77.7963C123.963 75.2652 119.57 73.4597 114.963 72.4637L106.89 70.7181L96.7298 67.8734L94.5581 67.3069C93.7504 67.0961 93.3371 68.2373 94.0924 68.5927C94.2213 68.6534 94.3282 68.7527 94.3982 68.8768L96.5116 72.6258C97.5453 74.4594 98.9743 76.0398 100.695 77.2523L105.265 80.4726L115.019 86.3756L124.773 91.4461L138.185 97.5425L150.896 104.858L160.539 108.922L172.394 115.019L182.962 120.302L191.833 123.96L200.775 127.618L208.769 130.463L217.677 132.732C219.058 133.084 219.978 131.342 218.91 130.399C217.972 129.572 218.557 128.024 219.808 128.024L225.16 128.024L227.905 128.024C229.594 128.024 231.281 127.885 232.947 127.607L234.538 127.342C235.059 127.255 235.572 127.127 236.073 126.96L238.405 126.183C240.278 125.559 242.339 125.948 243.855 127.211C245.208 128.564 246.446 130.026 247.558 131.582L247.92 132.088L252.39 138.998L253.166 140.119C255.008 142.78 257.85 144.58 261.042 145.11L264.731 145.267C266.803 145.355 268.739 144.238 269.7 142.401C269.999 141.83 270.192 141.21 270.27 140.57L270.361 139.828C270.678 137.235 269.909 134.627 268.237 132.621L267.35 131.558C266.807 130.906 266.34 130.193 265.961 129.433L264.871 127.253C264.421 126.351 264.302 125.319 264.536 124.338C264.792 123.268 265.448 122.337 266.37 121.737L266.56 121.613C267.387 121.075 268.359 120.801 269.346 120.829L271.616 120.892C272.852 120.927 274.075 121.149 275.243 121.553L276.225 121.892C278.075 122.531 279.814 123.454 281.381 124.626L286.577 128.514C288.519 129.968 290.325 131.596 291.971 133.378L293.797 135.355C294.525 136.142 295.309 136.875 296.144 137.547L298.421 139.379C299.772 140.467 301.376 141.199 303.084 141.506L304.536 141.767C306.295 142.084 308.108 141.693 309.581 140.679C311.479 139.373 312.583 137.192 312.513 134.889L312.431 132.196C312.395 131.009 312.179 129.835 311.79 128.712L310.7 125.569C309.586 122.357 307.786 119.426 305.425 116.98C302.726 114.185 299.373 112.106 295.669 110.93L294.882 110.681C292.511 109.928 290.046 109.511 287.559 109.442L286.11 109.402C283.307 109.324 280.504 109.565 277.755 110.12L275.42 110.592C272.856 111.11 270.222 111.196 267.63 110.845C265.123 110.506 262.688 109.763 260.419 108.647L257.607 107.263L250.667 103.036L244.626 98.6271L240.876 95.0565C239.128 93.3916 237.232 91.8892 235.212 90.5677L234.92 90.3764C231.76 88.3097 228.323 86.7027 224.711 85.6036L218.184 83.6174L217.731 83.5421C212.612 82.6923 207.366 83.0326 202.4 84.5366L194.678 86.3756L188.3 88.0385C186.865 88.4125 185.471 88.9274 184.138 89.5758C180.145 91.5177 175.667 92.234 171.267 91.6344L169.886 91.4461L165.506 90.8747C162.207 90.4443 158.976 89.6024 155.886 88.3686L150.896 86.3756Z" fill="#F4D1B1"/>
<path d="M269.121 82.7741L260.433 87.2779C260.351 87.3201 260.386 87.4435 260.477 87.4373L265.749 87.0778L266.833 87.0038C268.532 86.888 270.238 87.0467 271.886 87.474C274.099 88.1358 276.239 89.0172 278.276 90.105L278.595 90.2754L278.937 90.4857C280.688 91.5649 282.551 92.4522 284.493 93.1321L285.629 93.6065C287.088 94.2157 288.669 94.4768 290.246 94.3692L290.327 94.3637C291.104 94.3107 291.872 94.1627 292.613 93.9228L292.837 93.85C294.054 93.4563 295.166 92.7929 296.09 91.9095L296.294 91.7143C296.749 91.2793 297.139 90.781 297.452 90.2346L297.629 89.9258C298.155 89.0058 298.398 87.9505 298.326 86.893C298.253 85.8354 297.87 84.8228 297.223 83.9829L296.891 83.5515C296.007 82.4026 294.795 81.549 293.415 81.1034L291.185 80.3833C289.924 79.9759 288.614 79.7409 287.29 79.6845L285.241 79.5972C283.041 79.5035 280.838 79.6538 278.671 80.0453L277.806 80.2015C275.731 80.5765 273.69 81.1249 271.707 81.841L269.121 82.7741Z" fill="#F4D1B1"/>
<defs>
<clipPath id="clip0_202_2249">
<rect width="203.213" height="203.213" fill="white" transform="translate(92.8936) rotate(27.2016)"/>
</clipPath>
</defs>
</svg>
