<svg width="869" height="551" viewBox="0 0 869 551" fill="none" xmlns="http://www.w3.org/2000/svg">
<line x1="724.665" y1="522.784" x2="689.751" y2="557.048" stroke="#D1B5DB" stroke-width="5"/>
<line x1="776.598" y1="69.099" x2="808.598" y2="106.099" stroke="#D1B5DB" stroke-width="5"/>
<line x1="748.737" y1="188.759" x2="773.015" y2="231.228" stroke="#D9F3E8" stroke-width="5"/>
<line x1="838.665" y1="167.89" x2="821.717" y2="213.778" stroke="#F4EF6A" stroke-width="5"/>
<line x1="871.001" y1="254.601" x2="854.053" y2="300.489" stroke="#93B9C6" stroke-width="5"/>
<line x1="767.874" y1="119.201" x2="777.397" y2="167.183" stroke="#93B9C6" stroke-width="5"/>
<line x1="27.6024" y1="538.601" x2="2.6165" y2="580.657" stroke="#F4EF6A" stroke-width="5"/>
<line x1="857.194" y1="107.475" x2="862.272" y2="156.129" stroke="#F7C6C2" stroke-width="5"/>
<line x1="852.029" y1="491.036" x2="867.215" y2="537.538" stroke="#F7C6C2" stroke-width="5"/>
<line x1="781.676" y1="409.878" x2="777.8" y2="458.642" stroke="#F7C6C2" stroke-width="5"/>
<line x1="754.294" y1="451.866" x2="737.346" y2="497.755" stroke="#F4EF6A" stroke-width="5"/>
<line x1="839.001" y1="0.866143" x2="822.053" y2="46.7547" stroke="#F4EF6A" stroke-width="5"/>
<line x1="806.677" y1="320.834" x2="790.355" y2="366.949" stroke="#D9F3E8" stroke-width="5"/>
<line x1="870.946" y1="373.228" x2="841.713" y2="412.451" stroke="#D1B5DB" stroke-width="5"/>
<line x1="712.598" y1="275.099" x2="744.598" y2="312.099" stroke="#D1B5DB" stroke-width="5"/>
<line x1="243.668" y1="476.5" x2="195.052" y2="471.07" stroke="#D9F3E8" stroke-width="5"/>
<line x1="524.665" y1="500.784" x2="489.751" y2="535.048" stroke="#D1B5DB" stroke-width="5"/>
<line x1="596.781" y1="432.74" x2="555.924" y2="459.642" stroke="#D9F3E8" stroke-width="5"/>
<line x1="623.267" y1="521.18" x2="576.404" y2="507.152" stroke="#F4EF6A" stroke-width="5"/>
<line x1="705.929" y1="460.417" x2="658.641" y2="472.939" stroke="#93B9C6" stroke-width="5"/>
<line x1="281.461" y1="477.405" x2="245.876" y2="510.97" stroke="#F4EF6A" stroke-width="5"/>
<line x1="353.302" y1="538.807" x2="329.564" y2="496.034" stroke="#F7C6C2" stroke-width="5"/>
<line x1="374.146" y1="443.032" x2="327.283" y2="429.004" stroke="#D1B5DB" stroke-width="5"/>
<line x1="462.016" y1="512.025" x2="428.728" y2="476.179" stroke="#D9F3E8" stroke-width="5"/>
<line x1="144.665" y1="501.105" x2="109.751" y2="535.369" stroke="#D1B5DB" stroke-width="5"/>
<line x1="777.569" y1="527.067" x2="817.462" y2="498.755" stroke="#D9F3E8" stroke-width="5"/>
<line x1="59.6615" y1="504.417" x2="71.072" y2="551.986" stroke="#F7C6C2" stroke-width="5"/>
<line x1="473.441" y1="431.489" x2="507.136" y2="466.953" stroke="#F4EF6A" stroke-width="5"/>
<line x1="724.665" y1="522.784" x2="689.751" y2="557.048" stroke="#D1B5DB" stroke-width="5"/>
<line x1="776.598" y1="69.099" x2="808.598" y2="106.099" stroke="#D1B5DB" stroke-width="5"/>
<line x1="748.737" y1="188.759" x2="773.015" y2="231.228" stroke="#D9F3E8" stroke-width="5"/>
<line x1="838.665" y1="167.89" x2="821.717" y2="213.778" stroke="#F4EF6A" stroke-width="5"/>
<line x1="871.001" y1="254.601" x2="854.053" y2="300.489" stroke="#93B9C6" stroke-width="5"/>
<line x1="767.874" y1="119.201" x2="777.397" y2="167.183" stroke="#93B9C6" stroke-width="5"/>
<line x1="857.194" y1="107.475" x2="862.272" y2="156.129" stroke="#F7C6C2" stroke-width="5"/>
<line x1="852.029" y1="491.036" x2="867.215" y2="537.538" stroke="#F7C6C2" stroke-width="5"/>
<line x1="781.676" y1="409.878" x2="777.8" y2="458.642" stroke="#F7C6C2" stroke-width="5"/>
<line x1="754.294" y1="451.866" x2="737.346" y2="497.755" stroke="#F4EF6A" stroke-width="5"/>
<line x1="839.001" y1="0.866143" x2="822.053" y2="46.7547" stroke="#F4EF6A" stroke-width="5"/>
<line x1="806.677" y1="320.834" x2="790.355" y2="366.949" stroke="#D9F3E8" stroke-width="5"/>
<line x1="870.946" y1="373.228" x2="841.713" y2="412.451" stroke="#D1B5DB" stroke-width="5"/>
<line x1="712.598" y1="275.099" x2="744.598" y2="312.099" stroke="#D1B5DB" stroke-width="5"/>
<line x1="243.668" y1="476.5" x2="195.052" y2="471.07" stroke="#D9F3E8" stroke-width="5"/>
<line x1="524.665" y1="500.784" x2="489.751" y2="535.048" stroke="#D1B5DB" stroke-width="5"/>
<line x1="596.781" y1="432.74" x2="555.924" y2="459.642" stroke="#D9F3E8" stroke-width="5"/>
<line x1="623.267" y1="521.18" x2="576.404" y2="507.152" stroke="#F4EF6A" stroke-width="5"/>
<line x1="705.929" y1="460.417" x2="658.641" y2="472.939" stroke="#93B9C6" stroke-width="5"/>
<line x1="281.461" y1="477.405" x2="245.876" y2="510.97" stroke="#F4EF6A" stroke-width="5"/>
<line x1="353.302" y1="538.807" x2="329.564" y2="496.034" stroke="#F7C6C2" stroke-width="5"/>
<line x1="374.146" y1="443.032" x2="327.283" y2="429.004" stroke="#D1B5DB" stroke-width="5"/>
<line x1="462.016" y1="512.025" x2="428.728" y2="476.179" stroke="#D9F3E8" stroke-width="5"/>
<line x1="144.665" y1="501.105" x2="109.751" y2="535.369" stroke="#D1B5DB" stroke-width="5"/>
<line x1="777.569" y1="527.067" x2="817.462" y2="498.755" stroke="#D9F3E8" stroke-width="5"/>
<line x1="59.6615" y1="504.417" x2="71.072" y2="551.986" stroke="#F7C6C2" stroke-width="5"/>
<line x1="473.441" y1="431.489" x2="507.136" y2="466.953" stroke="#F4EF6A" stroke-width="5"/>
</svg>
